<?xml version="1.0" encoding="UTF-8" standalone="no"?>
<!-- Created with Inkscape (http://www.inkscape.org/) -->

<svg
   width="400"
   height="400"
   viewBox="0 0 105.83333 105.83333"
   version="1.1"
   id="svg1404"
   xml:space="preserve"
   inkscape:version="1.2.2 (732a01da63, 2022-12-09)"
   sodipodi:docname="dark_queen.svg"
   xmlns:inkscape="http://www.inkscape.org/namespaces/inkscape"
   xmlns:sodipodi="http://sodipodi.sourceforge.net/DTD/sodipodi-0.dtd"
   xmlns="http://www.w3.org/2000/svg"
   xmlns:svg="http://www.w3.org/2000/svg"><sodipodi:namedview
     id="namedview1406"
     pagecolor="#505050"
     bordercolor="#ffffff"
     borderopacity="1"
     inkscape:showpageshadow="0"
     inkscape:pageopacity="0"
     inkscape:pagecheckerboard="1"
     inkscape:deskcolor="#505050"
     inkscape:document-units="mm"
     showgrid="false"
     inkscape:zoom="1.0129245"
     inkscape:cx="309.00625"
     inkscape:cy="264.08681"
     inkscape:window-width="1920"
     inkscape:window-height="991"
     inkscape:window-x="-9"
     inkscape:window-y="-9"
     inkscape:window-maximized="1"
     inkscape:current-layer="layer1" /><defs
     id="defs1401" /><g
     inkscape:label="Layer 1"
     inkscape:groupmode="layer"
     id="layer1"><g
       style="fill:#000000;stroke:#000000;stroke-width:1.5;stroke-linecap:round;stroke-linejoin:round"
       id="g1852"
       transform="matrix(2.4096874,0,0,2.4096874,-1.3013,-3.3793455)"><path
         d="m 9,26 c 8.5,-1.5 21,-1.5 27,0 L 38.5,13.5 31,25 30.7,10.9 25.5,24.5 22.5,10 19.5,24.5 14.3,10.9 14,25 6.5,13.5 Z"
         style="fill:#000000;stroke-linecap:butt"
         id="path1822" /><path
         d="m 9,26 c 0,2 1.5,2 2.5,4 1,1.5 1,1 0.5,3.5 -1.5,1 -1,2.5 -1,2.5 -1.5,1.5 0,2.5 0,2.5 6.5,1 16.5,1 23,0 0,0 1.5,-1 0,-2.5 0,0 0.5,-1.5 -1,-2.5 -0.5,-2.5 -0.5,-2 0.5,-3.5 1,-2 2.5,-2 2.5,-4 -8.5,-1.5 -18.5,-1.5 -27,0 z"
         id="path1824" /><path
         d="M 11.5,30 C 15,29 30,29 33.5,30"
         id="path1826" /><path
         d="m 12,33.5 c 6,-1 15,-1 21,0"
         id="path1828" /><circle
         cx="6"
         cy="12"
         r="2"
         id="circle1830" /><circle
         cx="14"
         cy="9"
         r="2"
         id="circle1832" /><circle
         cx="22.5"
         cy="8"
         r="2"
         id="circle1834" /><circle
         cx="31"
         cy="9"
         r="2"
         id="circle1836" /><circle
         cx="39"
         cy="12"
         r="2"
         id="circle1838" /><path
         d="m 11,38.5 a 35,35 1 0 0 23,0"
         style="fill:none;stroke:#000000;stroke-linecap:butt"
         id="path1840" /><g
         style="fill:none;stroke:#ffffff"
         id="g1850"><path
           d="m 11,29 a 35,35 1 0 1 23,0"
           id="path1842" /><path
           d="m 12.5,31.5 h 20"
           id="path1844" /><path
           d="m 11.5,34.5 a 35,35 1 0 0 22,0"
           id="path1846" /><path
           d="m 10.5,37.5 a 35,35 1 0 0 24,0"
           id="path1848" /></g></g></g></svg>
