<?xml version="1.0" encoding="UTF-8" standalone="no"?>
<!-- Created with Inkscape (http://www.inkscape.org/) -->

<svg
   width="400"
   height="400"
   viewBox="0 0 105.83333 105.83333"
   version="1.1"
   id="svg1404"
   xml:space="preserve"
   inkscape:version="1.2.2 (732a01da63, 2022-12-09)"
   sodipodi:docname="dark_pawn.svg"
   xmlns:inkscape="http://www.inkscape.org/namespaces/inkscape"
   xmlns:sodipodi="http://sodipodi.sourceforge.net/DTD/sodipodi-0.dtd"
   xmlns="http://www.w3.org/2000/svg"
   xmlns:svg="http://www.w3.org/2000/svg"><sodipodi:namedview
     id="namedview1406"
     pagecolor="#505050"
     bordercolor="#ffffff"
     borderopacity="1"
     inkscape:showpageshadow="0"
     inkscape:pageopacity="0"
     inkscape:pagecheckerboard="1"
     inkscape:deskcolor="#505050"
     inkscape:document-units="mm"
     showgrid="false"
     inkscape:zoom="1.0129245"
     inkscape:cx="309.00625"
     inkscape:cy="264.08681"
     inkscape:window-width="1920"
     inkscape:window-height="991"
     inkscape:window-x="-9"
     inkscape:window-y="-9"
     inkscape:window-maximized="1"
     inkscape:current-layer="layer1" /><defs
     id="defs1401" /><g
     inkscape:label="Layer 1"
     inkscape:groupmode="layer"
     id="layer1"><path
       d="m 52.685162,8.9839996 c -6.366632,0 -11.523317,5.1566954 -11.523317,11.5233304 0,2.563937 0.835445,4.926214 2.247041,6.856372 -5.617623,3.226527 -9.449129,9.247472 -9.449129,16.190261 0,5.848102 2.707988,11.06239 6.942801,14.49059 -8.642489,3.053681 -21.346951,15.988603 -21.346951,38.804777 h 66.259104 c 0,-22.816174 -12.704458,-35.751096 -21.346954,-38.804777 4.234813,-3.4282 6.942808,-8.642488 6.942808,-14.49059 0,-6.942789 -3.831507,-12.963734 -9.449137,-16.190261 1.411614,-1.930158 2.247051,-4.292435 2.247051,-6.856372 0,-6.366635 -5.156686,-11.5233304 -11.523317,-11.5233304 z"
       style="opacity:1;fill:#000000;fill-opacity:1;fill-rule:nonzero;stroke:#000000;stroke-width:4.32125;stroke-linecap:round;stroke-linejoin:miter;stroke-miterlimit:4;stroke-dasharray:none;stroke-opacity:1"
       id="path1770" /></g></svg>
