<?xml version="1.0" encoding="UTF-8" standalone="no"?>
<!-- Created with Inkscape (http://www.inkscape.org/) -->

<svg
   width="400"
   height="400"
   viewBox="0 0 105.83333 105.83333"
   version="1.1"
   id="svg1404"
   xml:space="preserve"
   inkscape:version="1.2.2 (732a01da63, 2022-12-09)"
   sodipodi:docname="duck.svg"
   xmlns:inkscape="http://www.inkscape.org/namespaces/inkscape"
   xmlns:sodipodi="http://sodipodi.sourceforge.net/DTD/sodipodi-0.dtd"
   xmlns="http://www.w3.org/2000/svg"
   xmlns:svg="http://www.w3.org/2000/svg"><sodipodi:namedview
     id="namedview1406"
     pagecolor="#505050"
     bordercolor="#ffffff"
     borderopacity="1"
     inkscape:showpageshadow="0"
     inkscape:pageopacity="0"
     inkscape:pagecheckerboard="1"
     inkscape:deskcolor="#505050"
     inkscape:document-units="mm"
     showgrid="false"
     inkscape:zoom="1.0129245"
     inkscape:cx="317.89141"
     inkscape:cy="268.03577"
     inkscape:window-width="1920"
     inkscape:window-height="991"
     inkscape:window-x="-9"
     inkscape:window-y="-9"
     inkscape:window-maximized="1"
     inkscape:current-layer="g5587" /><defs
     id="defs1401"><linearGradient
       id="linearGradient3910"
       inkscape:swatch="solid"><stop
         style="stop-color:#000000;stop-opacity:1;"
         offset="0"
         id="stop3908" /></linearGradient><linearGradient
       id="linearGradient1908"
       inkscape:swatch="gradient"><stop
         style="stop-color:#412a2a;stop-opacity:1;"
         offset="0.83033931"
         id="stop1904" /><stop
         style="stop-color:#412a2a;stop-opacity:0;"
         offset="0.84431136"
         id="stop1906" /></linearGradient><rect
       x="20.732048"
       y="466.96472"
       width="356.39377"
       height="115.50713"
       id="rect857" /><rect
       x="13.821366"
       y="17.770327"
       width="368.24066"
       height="96.749557"
       id="rect721" /></defs><g
     inkscape:label="Layer 1"
     inkscape:groupmode="layer"
     id="layer1"><g
       id="g5587"
       transform="matrix(1.1128197,0,0,1.1967716,-0.16781729,-14.698019)"><g
         id="g7825"
         transform="matrix(0.87659496,0,0,0.87659496,5.8867518,13.765709)"><path
           id="path2855"
           style="fill:#ffcc00;fill-opacity:1;fill-rule:evenodd;stroke:#000000;stroke-width:2.54332;stroke-linecap:round;stroke-dasharray:none;stroke-opacity:1"
           d="M 54.556501,80.540845 C 27.470873,80.910157 16.677957,74.619409 16.452489,56.440086 16.28742,43.130796 33.512236,32.339325 54.556501,32.339325 c 10.580349,0 23.760996,1.753732 28.861558,8.348704 0.949653,1.227892 7.400124,-8.19094 7.947248,-6.886151 6.698849,29.302838 2.47343,46.203354 -36.808806,46.738967 z"
           sodipodi:nodetypes="sssscs" /><path
           style="fill:#ffcc00;fill-opacity:1;fill-rule:evenodd;stroke:#000000;stroke-width:2.54332;stroke-linecap:round;stroke-linejoin:round;stroke-dasharray:none;stroke-opacity:1;paint-order:stroke fill markers"
           d="m 16.061028,31.570158 c 0,0 -3.867275,-0.235109 -5.777437,0.0099 -2.196359,0.281751 -6.4308457,1.665716 -6.4308457,1.665716 0,0 4.8445535,-1.643638 6.9419647,-3.710358 -1.6893424,-1.94645 -9.375642,-5.425904 -9.375642,-5.425904 0,0 4.2636558,1.611581 6.503105,1.715544 2.585802,0.120067 7.660099,-1.276656 7.660099,-1.276656 z"
           id="path5262"
           sodipodi:nodetypes="cacccacc" /><path
           id="path2908"
           style="fill:#ffcc00;fill-rule:evenodd;stroke:#000000;stroke-width:2.54332;stroke-linecap:round;stroke-dasharray:none"
           d="M 48.260891,29.614634 C 47.57482,38.454219 47.430557,44.585512 30.674908,45.676219 15.883695,46.639052 13.088923,38.485202 13.088924,29.614634 c 0,-8.870568 7.873512,-16.061584 17.585984,-16.061584 9.71247,0 18.70199,1.682551 17.585983,16.061584 z"
           sodipodi:nodetypes="sssss" /><path
           style="fill:none;fill-opacity:1;fill-rule:evenodd;stroke:#000000;stroke-width:2.54332;stroke-linecap:round;stroke-dasharray:none;stroke-opacity:1;paint-order:stroke fill markers"
           d="m 41.303931,62.117726 c 10.358673,3.942735 21.39287,4.74705 30.458831,-3.789167 -8.385558,1.379695 -12.897647,0.929336 -20.868451,-0.749727 9.23802,0.0067 19.239816,-0.699241 25.348504,-9.676513 -10.216398,4.654776 -18.104422,4.729625 -27.356995,-3.491725"
           id="path4364"
           sodipodi:nodetypes="ccccc" /><ellipse
           style="fill:#000000;fill-opacity:1;fill-rule:evenodd;stroke:#000000;stroke-width:2.54332;stroke-linecap:round;stroke-linejoin:round;stroke-dasharray:none;stroke-opacity:1;paint-order:stroke fill markers"
           id="path5372"
           cx="22.904694"
           cy="22.078602"
           rx="1.1848611"
           ry="1.9747684" /></g></g></g></svg>
