<?xml version="1.0" encoding="UTF-8" standalone="no"?>
<!-- Created with Inkscape (http://www.inkscape.org/) -->

<svg
   width="400"
   height="400"
   viewBox="0 0 105.83333 105.83333"
   version="1.1"
   id="svg1404"
   xml:space="preserve"
   inkscape:version="1.2.2 (732a01da63, 2022-12-09)"
   sodipodi:docname="light_pawn.svg"
   xmlns:inkscape="http://www.inkscape.org/namespaces/inkscape"
   xmlns:sodipodi="http://sodipodi.sourceforge.net/DTD/sodipodi-0.dtd"
   xmlns="http://www.w3.org/2000/svg"
   xmlns:svg="http://www.w3.org/2000/svg"><sodipodi:namedview
     id="namedview1406"
     pagecolor="#505050"
     bordercolor="#ffffff"
     borderopacity="1"
     inkscape:showpageshadow="0"
     inkscape:pageopacity="0"
     inkscape:pagecheckerboard="1"
     inkscape:deskcolor="#505050"
     inkscape:document-units="mm"
     showgrid="false"
     inkscape:zoom="1.0129245"
     inkscape:cx="309.00625"
     inkscape:cy="264.08681"
     inkscape:window-width="1920"
     inkscape:window-height="991"
     inkscape:window-x="-9"
     inkscape:window-y="-9"
     inkscape:window-maximized="1"
     inkscape:current-layer="layer1" /><defs
     id="defs1401" /><g
     inkscape:label="Layer 1"
     inkscape:groupmode="layer"
     id="layer1"><path
       d="m 53.214235,8.6588299 c -6.413658,0 -11.608572,5.1948531 -11.608572,11.6086101 0,2.582914 0.841304,4.962688 2.263734,6.907121 -5.659226,3.250418 -9.519136,9.315917 -9.519136,16.310108 0,5.891369 2.728038,11.144268 6.994231,14.597828 -8.706456,3.076279 -21.504933,16.106946 -21.504933,39.092013 h 66.749453 c 0,-22.985067 -12.798464,-36.015734 -21.504929,-39.092013 4.266193,-3.45356 6.99424,-8.706459 6.99424,-14.597828 0,-6.994191 -3.85991,-13.05969 -9.519136,-16.310108 1.422096,-1.944433 2.263734,-4.324207 2.263734,-6.907121 0,-6.413757 -5.194922,-11.6086101 -11.608686,-11.6086101 z"
       style="opacity:1;fill:#ffffff;fill-opacity:1;fill-rule:nonzero;stroke:#000000;stroke-width:4.35323;stroke-linecap:round;stroke-linejoin:miter;stroke-miterlimit:4;stroke-dasharray:none;stroke-opacity:1"
       id="path2136" /></g></svg>
