<?xml version="1.0" encoding="UTF-8" standalone="no"?>
<!-- Created with Inkscape (http://www.inkscape.org/) -->

<svg
   width="400.00006"
   height="600"
   viewBox="0 0 105.83335 158.75"
   version="1.1"
   id="svg5"
   inkscape:export-filename="CardTemplate.svg"
   inkscape:export-xdpi="26.281288"
   inkscape:export-ydpi="26.281288"
   sodipodi:docname="AnnointedCard.svg"
   inkscape:version="1.2.2 (732a01da63, 2022-12-09)"
   xmlns:inkscape="http://www.inkscape.org/namespaces/inkscape"
   xmlns:sodipodi="http://sodipodi.sourceforge.net/DTD/sodipodi-0.dtd"
   xmlns:xlink="http://www.w3.org/1999/xlink"
   xmlns="http://www.w3.org/2000/svg"
   xmlns:svg="http://www.w3.org/2000/svg">
  <sodipodi:namedview
     id="namedview7"
     pagecolor="#505050"
     bordercolor="#ffffff"
     borderopacity="1"
     inkscape:showpageshadow="0"
     inkscape:pageopacity="0"
     inkscape:pagecheckerboard="1"
     inkscape:deskcolor="#505050"
     inkscape:document-units="mm"
     showgrid="false"
     showguides="true"
     inkscape:zoom="1.34"
     inkscape:cx="100"
     inkscape:cy="240.67164"
     inkscape:window-width="1920"
     inkscape:window-height="991"
     inkscape:window-x="-9"
     inkscape:window-y="-9"
     inkscape:window-maximized="1"
     inkscape:current-layer="layer1" />
  <defs
     id="defs2">
    <pattern
       inkscape:collect="always"
       xlink:href="#Strips1_1white"
       id="pattern37145"
       patternTransform="matrix(21.509111,2.462095,-1.2719792,11.112139,8.0954602,-0.19745025)" />
    <pattern
       inkscape:collect="always"
       patternUnits="userSpaceOnUse"
       width="2"
       height="1"
       patternTransform="translate(0,0) scale(10,10)"
       id="Strips1_1white"
       inkscape:stockid="Stripes 1:1 white"
       inkscape:isstock="true">
      <rect
         style="fill:white;stroke:none"
         x="0"
         y="-0.5"
         width="1"
         height="2"
         id="rect2899" />
    </pattern>
    <linearGradient
       inkscape:collect="always"
       id="linearGradient37063">
      <stop
         style="stop-color:#e49719;stop-opacity:1;"
         offset="0"
         id="stop37059" />
      <stop
         style="stop-color:#94850f;stop-opacity:0.49498329;"
         offset="0.63876653"
         id="stop37071" />
      <stop
         style="stop-color:#5f100c;stop-opacity:0;"
         offset="1"
         id="stop37061" />
    </linearGradient>
    <linearGradient
       id="linearGradient3910"
       inkscape:swatch="solid">
      <stop
         style="stop-color:#000000;stop-opacity:1;"
         offset="0"
         id="stop3908" />
    </linearGradient>
    <linearGradient
       id="linearGradient3902"
       inkscape:swatch="solid">
      <stop
         style="stop-color:#000000;stop-opacity:1;"
         offset="0"
         id="stop3900" />
    </linearGradient>
    <linearGradient
       id="linearGradient1908"
       inkscape:swatch="gradient">
      <stop
         style="stop-color:#412a2a;stop-opacity:1;"
         offset="0.83033931"
         id="stop1904" />
      <stop
         style="stop-color:#412a2a;stop-opacity:0;"
         offset="0.84431136"
         id="stop1906" />
    </linearGradient>
    <rect
       x="20.732048"
       y="466.96472"
       width="356.39377"
       height="115.50713"
       id="rect857" />
    <rect
       x="13.821366"
       y="17.770327"
       width="368.24066"
       height="96.749557"
       id="rect721" />
    <radialGradient
       inkscape:collect="always"
       xlink:href="#linearGradient37063"
       id="radialGradient37067"
       cx="25.510199"
       cy="61.149963"
       fx="25.510199"
       fy="61.149963"
       r="72.760414"
       gradientTransform="matrix(0.78018995,0,0,0.7652646,6.7920994,12.77446)"
       gradientUnits="userSpaceOnUse" />
    <clipPath
       clipPathUnits="userSpaceOnUse"
       id="clipPath37184">
      <rect
         style="opacity:1;vector-effect:none;fill:#ffffff;fill-opacity:1;stroke-width:0.289245;stroke-linecap:butt;stroke-linejoin:miter;stroke-miterlimit:4;stroke-dasharray:none;stroke-dashoffset:0;stroke-opacity:1;-inkscape-stroke:none;stop-color:#000000;stop-opacity:1"
         id="rect37186"
         width="96.429878"
         height="80.496231"
         x="4.7017331"
         y="31.71199" />
    </clipPath>
  </defs>
  <g
     inkscape:label="Layer 1"
     inkscape:groupmode="layer"
     id="layer1"
     transform="translate(-0.33529438,-0.33529437)">
    <g
       id="rect386">
      <path
         style="color:#000000;fill:#c87137;stroke-width:2.64597;stroke-linejoin:round;-inkscape-stroke:none;paint-order:markers fill stroke"
         d="M 1.6582794,1.6582794 H 104.84566 V 157.76231 H 1.6582794 Z"
         id="path7044" />
      <path
         style="color:#000000;fill:#331f14;stroke-linejoin:round;-inkscape-stroke:none;paint-order:markers fill stroke"
         d="M 1.6582031,0.3359375 A 1.3231174,1.3231174 0 0 0 0.3359375,1.6582031 V 157.76172 a 1.3231174,1.3231174 0 0 0 1.3222656,1.32422 H 104.8457 a 1.3231174,1.3231174 0 0 0 1.32227,-1.32422 V 1.6582031 A 1.3231174,1.3231174 0 0 0 104.8457,0.3359375 Z M 2.9804688,2.9804688 H 103.52344 V 156.43945 H 2.9804688 Z"
         id="path7046" />
    </g>
    <g
       aria-label="Anointed"
       transform="matrix(0.26458333,0,0,0.26458333,0,9.5250005)"
       id="text719"
       style="font-size:53.3333px;font-family:Broadway;-inkscape-font-specification:Broadway;text-align:center;letter-spacing:0px;word-spacing:0px;white-space:pre;stroke-width:0.999999">
      <path
         d="M 85.051825,5.0035231 105.88515,42.685792 H 87.838282 L 85.364325,37.92017 H 76.61433 l -7.708329,-0.02604 -1.302082,-0.02604 -1.718749,3.177081 q -0.755208,1.432291 -1.067708,1.770833 -0.286458,0.364583 -0.729166,0.364583 -0.885416,0 -0.885416,-0.78125 0,-0.338541 0.494791,-1.249999 0.520833,-0.9375 3.567706,-6.093746 L 83.020576,8.5191461 Z m -8.098953,17.0572819 -4.557289,7.682287 -3.645832,6.328121 7.812496,0.104167 7.838537,-0.07813 z"
         id="path7009" />
      <path
         d="m 121.56222,14.248309 v 3.61979 q 3.04687,-2.161457 5.96354,-3.229165 2.91666,-1.093749 5.67708,-1.093749 3.69791,0 6.24999,1.692707 1.92708,1.276041 2.57813,3.177081 0.67708,1.874999 0.67708,6.14583 l -0.0521,12.057285 0.0781,6.067704 h -13.2552 l 0.10417,-7.239579 0.0781,-5.312496 -0.026,-8.020829 q -0.026,-2.786457 -0.0781,-3.30729 -0.026,-0.546874 -0.23438,-0.963541 -0.41667,-0.833333 -1.79687,-0.833333 -1.27604,0 -2.76042,0.729167 -1.48437,0.729166 -3.20312,2.187498 l -0.026,1.067708 -0.0521,7.317704 -0.0521,5.598955 0.0781,7.656245 0.026,1.119791 h -13.30729 l 0.0781,-10.208327 0.0781,-6.744788 -0.0781,-5.833329 -0.0781,-5.651039 z"
         id="path7011" />
      <path
         d="m 161.45803,13.545185 q 4.1927,0 7.9427,2.317707 3.46354,2.135415 5.28646,5.83333 1.61458,3.255206 1.61458,6.901037 0,2.499999 -0.96354,5.026039 -0.9375,2.52604 -2.57813,4.479164 -2.29166,2.68229 -5.59895,4.036456 -2.70833,1.119791 -5.65104,1.119791 -4.92187,0 -8.85416,-2.916665 -3.07292,-2.239582 -4.66146,-5.755205 -1.32812,-2.968748 -1.32812,-6.276038 0,-6.45833 4.6875,-10.72916 4.40104,-3.958331 10.10416,-4.036456 z m -0.75521,1.692707 -0.0781,26.249984 q 0.8073,0.05208 1.1198,0.05208 3.61979,0 6.92707,-2.031249 3.17709,-1.979166 4.76563,-5.260414 1.25,-2.604165 1.25,-5.729163 0,-6.276038 -4.63542,-10.182285 -3.75,-3.15104 -8.15103,-3.15104 -0.36459,0 -1.19792,0.05208 z"
         id="path7013" />
      <path
         d="m 187.05697,5.1337314 q 6.875,0 6.875,3.5937479 0,1.7447907 -1.82292,2.7343737 -1.79687,0.963541 -5.07812,0.963541 -6.53645,0 -6.53645,-3.6979147 0,-3.5416646 6.56249,-3.5937479 z m 6.74479,9.1145776 v 0.755208 l -0.0521,4.062498 -0.0521,6.302079 -0.0781,9.583328 0.10417,5.390622 0.0521,2.343748 h -13.38541 l 0.13021,-9.583327 0.0781,-8.463537 -0.0521,-4.453122 -0.0781,-4.947914 0.026,-0.989583 z"
         id="path7015" />
      <path
         d="m 213.30695,14.248309 v 3.61979 q 3.04687,-2.161457 5.96354,-3.229165 2.91666,-1.093749 5.67708,-1.093749 3.69791,0 6.24999,1.692707 1.92709,1.276041 2.57813,3.177081 0.67708,1.874999 0.67708,6.14583 l -0.0521,12.057285 0.0781,6.067704 h -13.2552 l 0.10417,-7.239579 0.0781,-5.312496 -0.026,-8.020829 q -0.026,-2.786457 -0.0781,-3.30729 -0.026,-0.546874 -0.23438,-0.963541 -0.41666,-0.833333 -1.79687,-0.833333 -1.27604,0 -2.76042,0.729167 -1.48437,0.729166 -3.20312,2.187498 l -0.026,1.067708 -0.0521,7.317704 -0.0521,5.598955 0.0781,7.656245 0.026,1.119791 h -13.30729 l 0.0781,-10.208327 0.0781,-6.744788 -0.0781,-5.833329 -0.0781,-5.651039 z"
         id="path7017" />
      <path
         d="m 254.53089,5.0816481 -0.28646,8.4114529 -0.026,0.807292 q 2.26562,0 4.11458,-0.182292 0.3125,-0.02604 0.54687,-0.02604 1.14584,0 1.14584,1.041666 0,0.963542 -1.19792,0.963542 -0.36458,0 -0.91146,-0.05208 -2.05729,-0.15625 -2.9427,-0.15625 h -0.75521 l -0.026,5.052081 0.10416,10.130202 0.0781,5.416663 q 0,1.901041 0.28646,2.656249 0.28645,0.755208 0.98958,0.755208 0.9375,0 2.00521,-1.09375 1.04166,-1.093749 1.64062,-2.68229 0.54687,-1.510416 1.30208,-1.510416 0.88542,0 0.88542,0.989583 0,0.989583 -0.88542,2.473957 -0.88541,1.458333 -2.13541,2.552082 -3.07292,2.68229 -7.96875,2.68229 -4.60937,0 -7.13541,-2.786457 -1.30208,-1.406249 -1.79687,-3.124998 -0.4948,-1.74479 -0.4948,-4.817705 v -1.953124 l 0.026,-5.494789 v -9.322911 q -0.36459,-0.02604 -0.52084,-0.02604 -0.26041,0 -1.04166,0.05208 -0.65104,0.05208 -1.09375,0.05208 -1.27604,0 -1.27604,-0.963541 0,-0.937499 1.22395,-0.937499 0.57292,0 0.80729,0.02604 l 1.90105,0.130209 v -2.942707 q 7.70832,-2.7864566 13.43749,-6.1197879 z"
         id="path7019" />
      <path
         d="m 274.01006,29.300384 v 8.072912 q 0,2.343748 0.28645,2.968748 0.54688,1.197916 2.57813,1.197916 3.02083,0 5.96354,-1.640624 2.96874,-1.666666 5.1302,-4.583331 0.70313,-0.963541 1.01563,-1.223958 0.3125,-0.260416 0.67708,-0.260416 0.44271,0 0.72917,0.338541 0.28645,0.3125 0.28645,0.807292 0,1.093749 -1.74479,2.942706 -2.29166,2.36979 -5.70312,3.854165 -3.38541,1.484374 -6.61458,1.484374 -5.54687,0 -9.79166,-3.723956 -2.47396,-2.187499 -3.80208,-5.390622 -1.17187,-2.812499 -1.17187,-5.624997 0,-2.708332 1.04166,-5.416663 1.04167,-2.734374 2.86458,-4.713539 2.10938,-2.317707 5,-3.593748 2.83854,-1.249999 5.9375,-1.249999 4.8177,0 8.72395,2.83854 6.09375,4.42708 6.04166,12.838534 h -6.0677 l -7.8125,0.02604 z m 6.66666,-1.718749 v -7.604162 q -0.0521,-2.447916 -0.10417,-2.916665 -0.0521,-0.494792 -0.36458,-0.911458 -0.72917,-1.015625 -2.96875,-1.015625 -2.29166,0 -2.86458,1.171875 -0.36458,0.703124 -0.36458,3.671873 v 7.604162 l 3.17708,0.104166 z"
         id="path7021" />
      <path
         d="m 329.29647,7.1389385 -0.0521,12.7343675 -0.026,9.010411 0.0781,12.630201 v 1.171874 h -13.30729 v -3.385414 q -2.13541,2.135415 -4.14062,3.046873 -1.97917,0.911458 -4.50521,0.911458 -4.94791,0 -8.80207,-3.645831 -4.76563,-4.505206 -4.76563,-11.432285 0,-6.718746 4.60938,-10.911452 4.08853,-3.723956 9.1927,-3.723956 2.26562,0 4.375,0.859374 2.13541,0.859375 4.11458,2.578124 L 315.96314,7.1389385 Z M 316.06731,19.118098 q -2.03125,-1.848957 -3.67188,-2.760415 -1.61458,-0.911458 -2.86458,-0.911458 -0.98958,0 -1.35416,0.729166 -0.33855,0.703125 -0.33855,2.682291 l 0.026,1.145832 v 17.49999 q 0.026,2.109374 0.18229,2.630207 0.3125,1.119791 1.51041,1.119791 1.30209,0 2.76042,-0.963542 1.45833,-0.989582 3.75,-3.411456 z"
         id="path7023" />
    </g>
    <g
       aria-label="Description:"
       id="text733"
       style="font-size:7.05556px;font-family:Broadway;-inkscape-font-specification:Broadway;stroke-width:0.264583">
      <path
         d="m 4.7016462,116.51791 h 1.8121214 q 0.7096901,0 1.0679802,0.0689 0.8853902,0.16881 1.4297156,0.94396 0.4271921,0.60978 0.4271921,1.34359 0,0.74758 -0.4409725,1.36081 -0.530545,0.74069 -1.3849293,0.91984 -0.2204862,0.0448 -0.3927411,0.0551 -0.1722549,0.0103 -0.7579215,0.0103 H 4.7119815 l 0.010335,-2.27377 z m 2.1049547,0.22048 -0.017226,2.76986 0.020671,1.49173 q 0.4616431,-0.003 0.6614587,-0.0344 0.2032608,-0.0345 0.4650882,-0.14814 0.6166725,-0.26527 0.9680725,-0.85438 0.3066137,-0.50643 0.3066137,-1.09555 0,-0.64078 -0.3617353,-1.17822 -0.6442333,-0.95429 -1.9085841,-0.95429 z"
         id="path6960" />
      <path
         d="m 11.3748,119.44969 v 1.06798 q 0,0.31006 0.0379,0.39274 0.07235,0.15847 0.341065,0.15847 0.399631,0 0.788927,-0.21704 0.392742,-0.22049 0.678685,-0.60634 0.09302,-0.12746 0.134358,-0.16192 0.04134,-0.0344 0.08957,-0.0344 0.05857,0 0.09646,0.0448 0.0379,0.0413 0.0379,0.1068 0,0.14469 -0.230822,0.38929 -0.303168,0.31351 -0.754476,0.50988 -0.447863,0.19637 -0.875055,0.19637 -0.733806,0 -1.295357,-0.49265 -0.327284,-0.28939 -0.5029839,-0.71314 -0.1550294,-0.37207 -0.1550294,-0.74414 0,-0.35829 0.1378039,-0.71658 0.1378034,-0.36173 0.3789604,-0.62356 0.279053,-0.30661 0.661459,-0.47542 0.375516,-0.16537 0.785482,-0.16537 0.637343,0 1.154108,0.37552 0.806153,0.58566 0.799263,1.69843 h -0.802708 l -1.033529,0.003 z m 0.881945,-0.22738 v -1.00597 q -0.0069,-0.32384 -0.01378,-0.38585 -0.0069,-0.0655 -0.04823,-0.12058 -0.09646,-0.13436 -0.392742,-0.13436 -0.303168,0 -0.37896,0.15503 -0.04823,0.093 -0.04823,0.48576 v 1.00597 l 0.420302,0.0138 z"
         id="path6962" />
      <path
         d="m 14.161884,120.58312 q 0.0689,0 0.1757,0.10336 0.172254,0.16192 0.489203,0.27905 0.316949,0.11369 0.592557,0.11369 0.127469,0 0.189481,-0.0413 0.06546,-0.0448 0.06546,-0.12747 0,-0.0827 -0.08957,-0.19637 -0.08613,-0.11714 -0.389296,-0.44442 -0.740696,-0.79237 -0.961182,-1.11277 -0.217041,-0.32384 -0.217041,-0.62011 0,-0.25839 0.148139,-0.49265 0.151584,-0.23772 0.420302,-0.40308 0.444417,-0.27561 1.019749,-0.27561 0.423747,0 0.895725,0.17915 0.368625,0.14125 0.368625,0.30661 0,0.0517 -0.04479,0.093 -0.04134,0.0413 -0.09646,0.0413 -0.06546,0 -0.244602,-0.12747 -0.36518,-0.26183 -0.795817,-0.26183 -0.151584,0 -0.230822,0.0482 -0.07579,0.0482 -0.07579,0.14813 0,0.11714 0.141249,0.29628 0.144694,0.17915 0.582222,0.60634 0.427192,0.41686 0.54088,0.54777 0.117133,0.12747 0.223931,0.29628 0.182591,0.28939 0.182591,0.62701 0,0.53054 -0.51332,0.85783 -0.420302,0.27216 -1.033529,0.27216 -0.68213,0 -1.20923,-0.30317 -0.155029,-0.093 -0.213596,-0.15158 -0.05512,-0.0586 -0.05512,-0.12747 0,-0.12747 0.134359,-0.13092 z"
         id="path6964" />
      <path
         d="m 19.236512,118.20601 v 2.30132 l -0.0034,0.22049 q 0,0.21359 0.05168,0.28594 0.05512,0.0689 0.217041,0.0689 0.406522,0 0.799263,-0.24804 0.392741,-0.2515 0.640788,-0.6718 0.07579,-0.12747 0.148139,-0.12747 0.05168,0 0.09302,0.0482 0.04479,0.0448 0.04479,0.0965 0,0.12402 -0.199816,0.3514 -0.199815,0.22393 -0.465088,0.40307 -0.54088,0.36174 -1.157553,0.36174 -0.844049,0 -1.395264,-0.52366 -0.627008,-0.58911 -0.627008,-1.44349 0,-0.88195 0.661459,-1.46761 0.55466,-0.4961 1.367703,-0.4961 0.647679,0 1.133438,0.30662 0.206705,0.13091 0.337619,0.28249 0.130914,0.14814 0.130914,0.2515 0,0.0517 -0.0379,0.0896 -0.0379,0.0344 -0.09302,0.0344 -0.07235,0 -0.18259,-0.16537 -0.158474,-0.23082 -0.499539,-0.39963 -0.341065,-0.17225 -0.644233,-0.17225 -0.203261,0 -0.261828,0.11369 -0.05857,0.11369 -0.05857,0.49954 z"
         id="path6966" />
      <path
         d="m 23.353405,118.5264 -0.0069,1.32292 0.01378,1.37115 H 21.59296 l 0.0034,-0.18948 0.0034,-0.7028 0.01034,-1.26435 -0.01378,-1.4056 -0.0034,-0.19982 h 1.76389 v 0.70969 q 0.396186,-0.4203 0.551215,-0.53055 0.358291,-0.25149 0.67524,-0.25149 0.192925,0 0.316949,0.0827 0.127468,0.0827 0.127468,0.21015 0,0.0999 -0.07579,0.16536 -0.07579,0.0655 -0.18948,0.0655 -0.07235,0 -0.16192,-0.0413 -0.151584,-0.0724 -0.251492,-0.0724 -0.248047,0 -0.478869,0.16881 -0.230821,0.16881 -0.516764,0.56155 z"
         id="path6968" />
      <path
         d="m 26.202501,116.25264 q 0.909506,0 0.909506,0.47542 0,0.23082 -0.241157,0.36173 -0.237712,0.12747 -0.671794,0.12747 -0.86472,0 -0.86472,-0.4892 0,-0.46853 0.868165,-0.47542 z m 0.89228,1.20578 v 0.0999 l -0.0069,0.53743 -0.0069,0.83372 -0.01034,1.26779 0.01378,0.71314 0.0069,0.31006 h -1.77078 l 0.01722,-1.2678 0.01034,-1.11966 -0.0069,-0.58911 -0.01034,-0.65457 0.0034,-0.13091 z"
         id="path6970" />
      <path
         d="m 27.911269,117.45842 h 1.760445 l -0.01034,0.45131 q 0.347955,-0.29973 0.637343,-0.4203 0.289388,-0.12403 0.637343,-0.12403 0.713136,0 1.157553,0.53055 0.399631,0.47542 0.399631,1.20923 0,0.78203 -0.458198,1.28502 -0.423747,0.46509 -1.057645,0.46509 -0.334174,0 -0.664903,-0.13781 -0.33073,-0.14125 -0.658014,-0.4203 l 0.0034,0.12747 0.0034,0.45131 0.0069,0.37551 0.0034,0.12747 h -1.760445 l 0.0034,-0.98185 0.0069,-0.91295 -0.01034,-1.90514 z m 1.75011,0.76137 v 1.79834 q 0.251492,0.23426 0.451308,0.35484 0.199816,0.11714 0.347955,0.11714 0.137804,0 0.161919,-0.13436 0.0069,-0.0448 0.01034,-0.46509 v -1.68465 q 0,-0.29973 -0.01034,-0.35829 -0.02412,-0.1447 -0.144694,-0.1447 -0.155029,0 -0.375515,0.14125 -0.220487,0.1378 -0.440973,0.37552 z"
         id="path6972" />
      <path
         d="m 34.84625,116.24575 -0.0379,1.11276 -0.0034,0.1068 q 0.299723,0 0.544325,-0.0241 0.04134,-0.003 0.07235,-0.003 0.151585,0 0.151585,0.1378 0,0.12747 -0.158475,0.12747 -0.04823,0 -0.120578,-0.007 -0.272163,-0.0207 -0.389296,-0.0207 h -0.09991 l -0.0034,0.66835 0.01378,1.34014 0.01033,0.71658 q 0,0.2515 0.0379,0.3514 0.0379,0.0999 0.130913,0.0999 0.124024,0 0.265273,-0.14469 0.137804,-0.1447 0.217041,-0.35485 0.07235,-0.19981 0.172255,-0.19981 0.117133,0 0.117133,0.13091 0,0.13091 -0.117133,0.32728 -0.117133,0.19293 -0.282498,0.33762 -0.406522,0.35485 -1.0542,0.35485 -0.609782,0 -0.943957,-0.36863 -0.172255,-0.18603 -0.237712,-0.41341 -0.06546,-0.23082 -0.06546,-0.63734 v -0.25838 l 0.0034,-0.72692 v -1.23334 q -0.04823,-0.003 -0.0689,-0.003 -0.03445,0 -0.137804,0.007 -0.08613,0.007 -0.144694,0.007 -0.16881,0 -0.16881,-0.12747 0,-0.12402 0.161919,-0.12402 0.07579,0 0.106799,0.003 l 0.251492,0.0172 v -0.3893 q 1.019749,-0.36862 1.77767,-0.80959 z"
         id="path6974" />
      <path
         d="m 36.882303,116.25264 q 0.909506,0 0.909506,0.47542 0,0.23082 -0.241157,0.36173 -0.237712,0.12747 -0.671794,0.12747 -0.86472,0 -0.86472,-0.4892 0,-0.46853 0.868165,-0.47542 z m 0.89228,1.20578 v 0.0999 l -0.0069,0.53743 -0.0069,0.83372 -0.01034,1.26779 0.01378,0.71314 0.0069,0.31006 h -1.77078 l 0.01723,-1.2678 0.01034,-1.11966 -0.0069,-0.58911 -0.01034,-0.65457 0.0034,-0.13091 z"
         id="path6976" />
      <path
         d="m 40.313622,117.3654 q 0.554661,0 1.050755,0.30662 0.458198,0.28249 0.699355,0.7717 0.213596,0.43064 0.213596,0.91295 0,0.33073 -0.127469,0.6649 -0.124023,0.33418 -0.341064,0.59256 -0.303169,0.35484 -0.740696,0.53399 -0.358291,0.14814 -0.747587,0.14814 -0.651123,0 -1.171333,-0.38585 -0.406521,-0.29628 -0.616672,-0.76137 -0.1757,-0.39274 -0.1757,-0.83027 0,-0.85438 0.620117,-1.41938 0.582222,-0.52365 1.336698,-0.53399 z m -0.09991,0.22393 -0.01034,3.47266 q 0.106798,0.007 0.148139,0.007 0.478869,0 0.916396,-0.26872 0.420302,-0.26182 0.630453,-0.69591 0.165365,-0.3445 0.165365,-0.75792 0,-0.83027 -0.613228,-1.34703 -0.496094,-0.41686 -1.078315,-0.41686 -0.04823,0 -0.158475,0.007 z"
         id="path6978" />
      <path
         d="m 44.582098,117.45842 v 0.47887 q 0.403077,-0.28594 0.788927,-0.42719 0.385851,-0.1447 0.751032,-0.1447 0.489204,0 0.826823,0.22393 0.254937,0.16881 0.341065,0.42031 0.08957,0.24804 0.08957,0.81304 l -0.0069,1.59508 0.01034,0.80271 h -1.753555 l 0.01378,-0.95774 0.01033,-0.7028 -0.0034,-1.06109 q -0.0034,-0.36863 -0.01033,-0.43753 -0.0034,-0.0724 -0.03101,-0.12747 -0.05512,-0.11024 -0.237712,-0.11024 -0.168809,0 -0.36518,0.0965 -0.19637,0.0965 -0.423747,0.28939 l -0.0034,0.14125 -0.0069,0.96807 -0.0069,0.7407 0.01034,1.01286 0.0034,0.14814 h -1.760445 l 0.01034,-1.35048 0.01034,-0.89228 -0.01034,-0.7717 -0.01034,-0.74759 z"
         id="path6980" />
      <path
         d="m 49.067614,119.7942 q 0.458198,0 0.73725,0.20326 0.279053,0.20326 0.279053,0.54432 0,0.34796 -0.282498,0.56844 -0.282498,0.21704 -0.733805,0.21704 -0.568442,0 -0.85094,-0.31694 -0.165364,-0.18604 -0.165364,-0.43409 0,-0.3514 0.275608,-0.56155 0.275607,-0.21359 0.740696,-0.22048 z m 0,-1.97404 q 0.458198,0 0.73725,0.20326 0.279053,0.20326 0.279053,0.54432 0,0.34796 -0.282498,0.56844 -0.282498,0.21704 -0.733805,0.21704 -0.568442,0 -0.85094,-0.31695 -0.165364,-0.18603 -0.165364,-0.43408 0,-0.3514 0.275608,-0.56155 0.275607,-0.21359 0.740696,-0.22048 z"
         id="path6982" />
    </g>
    <g
       aria-label="Promote any pawn to a bishop, and discard this card."
       transform="matrix(0.27431353,0,0,0.27431353,-0.8676689,-4.702566)"
       id="text855"
       style="font-size:23.1487px;font-family:Broadway;-inkscape-font-specification:Broadway;white-space:pre;stroke-width:0.999999">
      <path
         d="M 21.772305,473.58602 H 28.0003 q 2.837072,0 3.910865,0.36169 1.345066,0.42952 2.215403,1.4694 0.88164,1.03989 0.88164,2.64492 0,1.36768 -0.666882,2.36235 -0.802518,1.19812 -1.955432,1.70676 -1.141611,0.49734 -3.605682,0.49734 h -2.882284 v 4.0465 q 0,0.90425 0.101728,1.14161 0.135636,0.32779 0.373001,0.46343 0.237365,0.12433 0.960762,0.12433 h 0.542547 v 0.94946 h -6.103661 v -0.94946 h 0.373001 q 0.779913,0 1.06249,-0.12433 0.282577,-0.13564 0.40691,-0.40691 0.135637,-0.28258 0.135637,-1.05119 v -10.78314 q 0,-0.746 -0.124334,-0.99467 -0.11303,-0.25997 -0.395607,-0.373 -0.271274,-0.12433 -1.085096,-0.12433 h -0.373001 z m 4.125623,1.23203 v 6.6123 h 2.430161 q 1.842402,0 2.577102,-0.32779 0.746003,-0.32779 1.232035,-1.13031 0.486032,-0.81382 0.486032,-1.89891 0,-1.18683 -0.565153,-1.97804 -0.565154,-0.80252 -1.537219,-1.0851 -0.678184,-0.19215 -2.64492,-0.19215 z"
         style="-inkscape-font-specification:'Bookman Old Style'"
         id="path6787" />
      <path
         d="m 35.90115,480.06268 v -0.92685 q 0.825125,-0.0678 1.4694,-0.27128 0.644276,-0.21476 1.4694,-0.68948 h 0.847731 v 2.13628 q 0.802518,-0.98337 1.865008,-1.55983 1.062489,-0.57645 1.91022,-0.57645 0.836427,0 1.32246,0.3956 0.486032,0.39561 0.486032,0.96076 0,0.40692 -0.327789,0.7234 -0.316487,0.30518 -0.76861,0.30518 -0.203455,0 -0.350395,-0.0565 -0.14694,-0.0565 -0.429517,-0.24867 -0.621669,-0.40691 -1.039883,-0.40691 -0.565154,0 -1.243338,0.47473 -0.859034,0.61037 -1.345066,1.19813 v 5.21071 q 0,0.67819 0.06782,0.92686 0.07912,0.23736 0.248668,0.41821 0.169546,0.16955 0.418214,0.24867 0.248667,0.0791 0.870336,0.0791 h 0.373002 v 0.94946 H 35.90115 v -0.94946 h 0.486033 q 0.689487,0 0.904246,-0.12433 0.29388,-0.16955 0.429517,-0.46343 0.14694,-0.30518 0.14694,-1.0851 v -6.66881 z"
         style="-inkscape-font-specification:'Bookman Old Style'"
         id="path6789" />
      <path
         d="m 51.815882,478.17507 q 1.661552,0 2.870981,0.68948 1.220732,0.68949 1.921523,2.01195 0.700791,1.32246 0.700791,3.01792 0,1.69546 -0.723397,3.01792 -0.712094,1.32246 -1.955432,2.02325 -1.232036,0.68949 -2.950103,0.68949 -2.735345,0 -4.11432,-1.70676 -1.367672,-1.70677 -1.367672,-4.01259 0,-1.68416 0.712094,-2.98402 0.712093,-1.31115 1.989341,-2.02325 1.288551,-0.72339 2.916194,-0.72339 z m -0.09043,1.09639 q -1.288551,0 -2.181494,1.01728 -1.130307,1.26595 -1.130307,3.6848 0,2.32844 0.960761,3.54917 0.870337,1.0851 2.362343,1.0851 0.960762,0 1.706765,-0.50864 0.757306,-0.50864 1.220732,-1.61634 0.463426,-1.11901 0.463426,-2.62232 0,-1.4694 -0.497335,-2.63361 -0.384305,-0.92686 -1.164217,-1.43549 -0.768609,-0.51995 -1.740674,-0.51995 z"
         style="-inkscape-font-specification:'Bookman Old Style'"
         id="path6791" />
      <path
         d="m 59.049852,480.07398 v -0.96076 q 0.847731,-0.0791 1.480703,-0.27127 0.632972,-0.20346 1.446794,-0.66688 h 0.836428 v 1.89891 q 1.28855,-1.01727 2.011947,-1.36767 1.107702,-0.53124 2.113675,-0.53124 0.689488,0 1.345067,0.25997 0.666881,0.24866 1.062489,0.62167 0.406911,0.373 0.689487,1.01727 1.186824,-1.05118 2.192797,-1.4694 1.017277,-0.42951 2.05716,-0.42951 0.994671,0 1.751977,0.41821 0.768609,0.40691 1.107702,1.02858 0.350395,0.62167 0.350395,1.81979 v 5.24463 q 0,0.82513 0.03391,0.96076 0.05652,0.21476 0.237365,0.40691 0.192152,0.19216 0.429517,0.27128 0.237364,0.0791 0.88164,0.0791 h 0.361698 v 0.94946 h -5.685447 v -0.94946 q 0.972064,-0.0113 1.254641,-0.13564 0.29388,-0.13563 0.429517,-0.42951 0.14694,-0.29388 0.14694,-1.15292 v -4.98465 q 0,-0.94946 -0.169546,-1.31116 -0.169546,-0.3617 -0.610366,-0.59906 -0.429517,-0.24867 -1.073793,-0.24867 -0.802518,0 -1.684158,0.42951 -1.17552,0.58776 -1.853704,1.32246 v 5.39157 q 0,0.77991 0.06782,1.02858 0.07912,0.23737 0.248668,0.40691 0.180849,0.15825 0.40691,0.22606 0.237365,0.0565 1.130308,0.0565 v 0.94946 h -5.572417 v -0.94946 h 0.316487 q 0.666881,0 0.938155,-0.15824 0.282577,-0.15825 0.44082,-0.48604 0.113031,-0.25997 0.113031,-1.07379 v -4.81511 q 0,-1.06249 -0.169547,-1.43549 -0.158243,-0.373 -0.621669,-0.63297 -0.463426,-0.25997 -1.085095,-0.25997 -0.7347,0 -1.480703,0.3617 -1.107702,0.53124 -2.034554,1.39027 v 5.80979 q 0,0.51994 0.135637,0.76861 0.14694,0.23736 0.452123,0.3843 0.305183,0.14694 0.836428,0.14694 H 64.7353 v 0.94946 h -5.685448 v -0.94946 h 0.305183 q 0.779912,0 1.02858,-0.12433 0.361699,-0.16955 0.519942,-0.54255 0.09042,-0.20346 0.09042,-1.05119 v -6.6123 z"
         style="-inkscape-font-specification:'Bookman Old Style'"
         id="path6793" />
      <path
         d="m 86.538935,478.17507 q 1.661552,0 2.870981,0.68948 1.220732,0.68949 1.921523,2.01195 0.700791,1.32246 0.700791,3.01792 0,1.69546 -0.723397,3.01792 -0.712094,1.32246 -1.955432,2.02325 -1.232036,0.68949 -2.950103,0.68949 -2.735345,0 -4.11432,-1.70676 -1.367672,-1.70677 -1.367672,-4.01259 0,-1.68416 0.712094,-2.98402 0.712093,-1.31115 1.989341,-2.02325 1.288551,-0.72339 2.916194,-0.72339 z m -0.09042,1.09639 q -1.288551,0 -2.181494,1.01728 -1.130307,1.26595 -1.130307,3.6848 0,2.32844 0.960761,3.54917 0.870337,1.0851 2.362343,1.0851 0.960762,0 1.706765,-0.50864 0.757306,-0.50864 1.220732,-1.61634 0.463426,-1.11901 0.463426,-2.62232 0,-1.4694 -0.497335,-2.63361 -0.384305,-0.92686 -1.164217,-1.43549 -0.768609,-0.51995 -1.740674,-0.51995 z"
         style="-inkscape-font-specification:'Bookman Old Style'"
         id="path6795" />
      <path
         d="m 96.76822,474.60329 h 0.802519 v 3.84305 h 3.357011 v 1.13031 h -3.357011 v 6.81575 q 0,0.87034 0.14694,1.24334 0.158243,0.373 0.519941,0.61037 0.373002,0.23736 0.825125,0.23736 1.073795,0 2.373645,-0.96076 v 1.0964 q -1.480702,1.00597 -2.995314,1.00597 -0.859034,0 -1.559825,-0.3843 -0.689488,-0.38431 -0.949458,-0.90425 -0.248668,-0.51994 -0.248668,-1.80849 v -6.95139 h -1.978038 v -0.94946 q 0.949458,-0.21476 1.525915,-0.66688 0.58776,-0.45213 0.949458,-1.17552 0.361699,-0.7234 0.58776,-2.1815 z"
         style="-inkscape-font-specification:'Bookman Old Style'"
         id="path6797" />
      <path
         d="m 112.26474,486.43761 0.72339,0.58776 q -0.82512,0.98337 -1.60503,1.55983 -0.76861,0.57646 -1.4581,0.80252 -0.68949,0.23736 -1.61634,0.23736 -1.66155,0 -2.82577,-0.67818 -1.33376,-0.77991 -2.04586,-2.03456 -0.71209,-1.25464 -0.71209,-2.9614 0,-1.78589 0.68949,-3.05183 0.68949,-1.26595 1.92152,-1.98934 1.24334,-0.7347 2.87098,-0.7347 1.20943,0 2.10238,0.3843 0.89294,0.373 1.51461,1.14161 0.62167,0.75731 0.90424,1.74067 0.15825,0.57646 0.18085,1.49201 h -7.99127 q -0.0339,0.55385 -0.0339,0.82513 0,1.42418 0.49733,2.54319 0.49734,1.1077 1.31116,1.63894 0.82513,0.51995 1.86501,0.51995 0.88164,0 1.70676,-0.40692 0.82513,-0.41821 2.00065,-1.61634 z m -1.4468,-4.56644 q -0.16954,-1.03988 -0.48603,-1.53722 -0.30518,-0.49733 -0.88164,-0.79121 -0.56515,-0.29388 -1.27725,-0.29388 -0.71209,0 -1.33376,0.29388 -0.62167,0.29388 -1.03988,0.81382 -0.40691,0.51994 -0.7121,1.51461 z"
         style="-inkscape-font-specification:'Bookman Old Style'"
         id="path6799" />
      <path
         d="m 130.15751,482.80933 v -1.23204 q 0,-1.25464 -0.70079,-1.78588 -0.70079,-0.54255 -1.97804,-0.54255 -0.63297,0 -1.1077,0.15824 -0.47473,0.14694 -0.76861,0.41821 -0.28258,0.25998 -0.41822,0.59907 -0.0565,0.12433 -0.27127,0.96076 -0.25997,1.01728 -1.05119,1.01728 -0.45212,0 -0.7347,-0.29388 -0.27127,-0.30519 -0.27127,-0.81383 0,-0.746 0.55385,-1.45809 0.55385,-0.7234 1.68416,-1.18683 1.14161,-0.47472 2.69013,-0.47472 1.4468,0 2.47538,0.45212 1.02858,0.44082 1.51461,1.27725 0.33909,0.57645 0.33909,2.10237 v 4.35168 q 0,0.92686 0.0565,1.20943 0.12433,0.48603 0.42951,0.7347 0.31649,0.23737 0.81382,0.23737 0.51995,0 1.24334,-0.24867 v 0.98337 q -0.93815,0.27127 -1.68416,0.27127 -0.80251,0 -1.35637,-0.22606 -0.54254,-0.22606 -0.89294,-0.65558 -0.35039,-0.44082 -0.45212,-1.03988 -1.35637,1.06249 -2.45277,1.492 -1.0964,0.42952 -2.2154,0.42952 -1.55983,0 -2.53189,-0.84773 -0.97207,-0.84773 -0.97207,-1.98934 0,-0.68949 0.3504,-1.31116 0.3617,-0.62167 1.08509,-1.0964 0.7347,-0.47473 2.29453,-0.83642 1.55982,-0.3617 4.32908,-0.65558 z m 0,0.98336 q -2.62232,0.38431 -3.24399,0.53125 -1.23203,0.28258 -1.76328,0.62167 -0.53124,0.33909 -0.7573,0.7347 -0.22606,0.3843 -0.22606,0.82512 0,0.44082 0.24866,0.85904 0.25998,0.40691 0.7234,0.64427 0.46343,0.23737 0.98337,0.23737 0.7347,0 1.66155,-0.3504 0.92685,-0.35039 2.37365,-1.36767 z"
         style="-inkscape-font-specification:'Bookman Old Style'"
         id="path6801" />
      <path
         d="m 135.46995,480.07398 v -0.94946 q 1.00598,-0.11303 1.50331,-0.27127 0.49734,-0.15824 1.43549,-0.67818 h 0.81383 v 2.14758 q 1.492,-1.25464 2.54319,-1.69546 1.06249,-0.45212 2.14758,-0.45212 0.92685,0 1.63895,0.31648 0.71209,0.30518 1.15291,0.83643 0.45212,0.53124 0.59906,1.20943 0.0904,0.41821 0.0904,1.26594 v 4.97336 q 0,0.89294 0.12433,1.15291 0.13564,0.24867 0.41822,0.3617 0.28257,0.11303 1.39028,0.11303 v 0.94946 h -5.82109 v -0.94946 h 0.31649 q 0.81382,0 1.1077,-0.14694 0.29388,-0.14694 0.41821,-0.42952 0.13564,-0.28257 0.13564,-1.15291 v -4.15953 q 0,-1.28855 -0.21476,-1.78589 -0.20345,-0.49733 -0.71209,-0.80252 -0.49734,-0.31648 -1.26595,-0.31648 -0.91555,0 -1.95543,0.47473 -1.03988,0.46342 -2.01195,1.37897 v 5.21072 q 0,0.88164 0.12434,1.17552 0.13563,0.29388 0.42951,0.44082 0.20346,0.11303 1.0851,0.11303 h 0.32779 v 0.94946 h -5.82109 v -0.94946 h 0.28258 q 0.83643,0 1.14161,-0.13564 0.30518,-0.14694 0.42952,-0.50864 0.0678,-0.18084 0.0678,-1.24333 v -6.44276 z"
         style="-inkscape-font-specification:'Bookman Old Style'"
         id="path6803" />
      <path
         d="m 149.77964,478.44634 h 5.4933 v 0.94946 h -0.45213 q -0.64427,0 -0.7686,0.0339 -0.14694,0.0452 -0.24867,0.19215 -0.10173,0.13564 -0.10173,0.35039 0,0.30519 0.30518,1.02858 l 2.62232,6.16018 2.43016,-5.8889 q 0.42952,-1.03988 0.42952,-1.37898 0,-0.25997 -0.19216,-0.373 -0.19215,-0.12433 -0.87033,-0.12433 h -0.53125 v -0.94946 h 4.62296 v 0.94946 h -0.27127 q -0.67819,0 -0.88164,0.0904 -0.20346,0.0904 -0.39561,0.373 -0.19215,0.27128 -0.61037,1.25465 l -4.14823,9.66413 q -0.45212,1.03988 -1.00597,1.92152 -0.55385,0.89294 -1.39028,1.37897 -0.83643,0.48604 -1.8424,0.48604 -1.16422,0 -1.86501,-0.53125 -0.59906,-0.45212 -0.59906,-1.13031 0,-0.41821 0.25997,-0.70079 0.25997,-0.27127 0.61037,-0.27127 0.27127,0 0.50863,0.11303 0.14694,0.0565 0.61037,0.47473 0.56515,0.49733 0.79122,0.61037 0.23736,0.11303 0.46342,0.11303 0.46343,0 0.91555,-0.31649 0.45212,-0.31649 0.76861,-0.89294 0.45212,-0.82513 0.746,-1.54852 l 0.46343,-1.13031 -3.73002,-8.35298 q -0.3956,-0.88164 -0.66688,-1.18682 -0.27127,-0.30518 -0.54255,-0.373 -0.14694,-0.0452 -0.92685,-0.0452 z"
         style="-inkscape-font-specification:'Bookman Old Style'"
         id="path6805" />
      <path
         d="m 170.5321,480.06268 v -0.92685 q 0.84773,0 1.50331,-0.21476 0.65558,-0.21476 1.43549,-0.746 h 0.89294 v 1.88761 q 1.41288,-1.11901 2.35104,-1.50331 0.93816,-0.3843 1.87631,-0.3843 1.93283,0 3.2892,1.51461 1.36767,1.51461 1.36767,3.94477 0,2.69013 -1.54852,4.4082 -1.41289,1.58243 -3.63959,1.58243 -1.10771,0 -2.07977,-0.41821 -0.70079,-0.29388 -1.61634,-1.05119 v 3.71871 q 0,0.83643 0.0452,0.98337 0.0565,0.21476 0.22606,0.3617 0.16955,0.14694 0.42952,0.19215 0.19215,0.0339 1.28855,0.0339 v 0.94946 h -5.82108 v -0.94946 h 0.50864 q 0.77991,0 1.00597,-0.12433 0.23736,-0.11303 0.3504,-0.3617 0.0678,-0.19215 0.0678,-1.17552 v -11.72129 z m 3.83174,1.16422 v 3.88825 q 0,0.76861 0.0904,1.14162 0.13563,0.57645 0.51994,1.03988 0.3956,0.46342 1.06249,0.79121 0.67818,0.32779 1.41288,0.32779 1.4694,0 2.54319,-1.1077 1.0851,-1.1077 1.0851,-3.35701 0,-2.10237 -0.89295,-3.24399 -0.89294,-1.15291 -2.11367,-1.15291 -0.79122,0 -1.71807,0.41821 -0.92685,0.41822 -1.98934,1.25465 z"
         style="-inkscape-font-specification:'Bookman Old Style'"
         id="path6807" />
      <path
         d="m 193.12694,482.80933 v -1.23204 q 0,-1.25464 -0.70079,-1.78588 -0.70079,-0.54255 -1.97803,-0.54255 -0.63298,0 -1.10771,0.15824 -0.47473,0.14694 -0.76861,0.41821 -0.28257,0.25998 -0.41821,0.59907 -0.0565,0.12433 -0.27127,0.96076 -0.25997,1.01728 -1.05119,1.01728 -0.45212,0 -0.7347,-0.29388 -0.27127,-0.30519 -0.27127,-0.81383 0,-0.746 0.55385,-1.45809 0.55385,-0.7234 1.68416,-1.18683 1.14161,-0.47472 2.69013,-0.47472 1.44679,0 2.47537,0.45212 1.02858,0.44082 1.51461,1.27725 0.3391,0.57645 0.3391,2.10237 v 4.35168 q 0,0.92686 0.0565,1.20943 0.12434,0.48603 0.42952,0.7347 0.31649,0.23737 0.81382,0.23737 0.51994,0 1.24334,-0.24867 v 0.98337 q -0.93816,0.27127 -1.68416,0.27127 -0.80252,0 -1.35637,-0.22606 -0.54255,-0.22606 -0.89294,-0.65558 -0.3504,-0.44082 -0.45212,-1.03988 -1.35637,1.06249 -2.45277,1.492 -1.0964,0.42952 -2.21541,0.42952 -1.55982,0 -2.53188,-0.84773 -0.97207,-0.84773 -0.97207,-1.98934 0,-0.68949 0.3504,-1.31116 0.36169,-0.62167 1.08509,-1.0964 0.7347,-0.47473 2.29453,-0.83642 1.55982,-0.3617 4.32907,-0.65558 z m 0,0.98336 q -2.62231,0.38431 -3.24398,0.53125 -1.23203,0.28258 -1.76328,0.62167 -0.53124,0.33909 -0.7573,0.7347 -0.22607,0.3843 -0.22607,0.82512 0,0.44082 0.24867,0.85904 0.25997,0.40691 0.7234,0.64427 0.46342,0.23737 0.98337,0.23737 0.7347,0 1.66155,-0.3504 0.92685,-0.35039 2.37364,-1.36767 z"
         style="-inkscape-font-specification:'Bookman Old Style'"
         id="path6809" />
      <path
         d="m 197.58036,478.44634 h 5.19941 v 0.94946 h -0.3617 q -0.66688,0 -0.88164,0.10173 -0.33909,0.15824 -0.33909,0.49733 0,0.31649 0.25997,1.01728 l 2.33974,6.18278 2.28322,-5.74196 -0.20346,-0.53125 q -0.35039,-0.91555 -0.81382,-1.26594 -0.30518,-0.22606 -0.90424,-0.25997 v -0.94946 h 5.17681 v 0.94946 h -0.44082 q -0.62167,0 -0.80252,0.10173 -0.31649,0.18084 -0.31649,0.57645 0,0.33909 0.23737,0.93816 l 2.33973,6.18278 2.28322,-6.27321 q 0.18085,-0.50864 0.19216,-0.57645 0.0339,-0.12434 0.0339,-0.25997 0,-0.31649 -0.24867,-0.49734 -0.24867,-0.19215 -0.91555,-0.19215 h -0.41821 v -0.94946 h 4.38559 v 0.94946 q -0.48603,0.0226 -0.79122,0.16954 -0.30518,0.14694 -0.48603,0.38431 -0.18085,0.23736 -0.50864,1.06249 l -3.3005,8.34167 h -1.35636 l -2.61102,-6.51057 -2.5771,6.51057 h -1.34506 l -3.33441,-8.34167 q -0.31649,-0.80252 -0.51994,-1.06249 -0.20346,-0.25997 -0.50864,-0.40691 -0.29388,-0.14694 -0.746,-0.14694 z"
         style="-inkscape-font-specification:'Bookman Old Style'"
         id="path6811" />
      <path
         d="m 216.4904,480.07398 v -0.94946 q 1.00597,-0.11303 1.50331,-0.27127 0.49733,-0.15824 1.43549,-0.67818 h 0.81382 v 2.14758 q 1.49201,-1.25464 2.54319,-1.69546 1.06249,-0.45212 2.14759,-0.45212 0.92685,0 1.63894,0.31648 0.7121,0.30518 1.15292,0.83643 0.45212,0.53124 0.59906,1.20943 0.0904,0.41821 0.0904,1.26594 v 4.97336 q 0,0.89294 0.12433,1.15291 0.13564,0.24867 0.41821,0.3617 0.28258,0.11303 1.39028,0.11303 v 0.94946 h -5.82108 v -0.94946 h 0.31648 q 0.81383,0 1.10771,-0.14694 0.29388,-0.14694 0.41821,-0.42952 0.13564,-0.28257 0.13564,-1.15291 v -4.15953 q 0,-1.28855 -0.21476,-1.78589 -0.20346,-0.49733 -0.7121,-0.80252 -0.49733,-0.31648 -1.26594,-0.31648 -0.91555,0 -1.95543,0.47473 -1.03989,0.46342 -2.01195,1.37897 v 5.21072 q 0,0.88164 0.12433,1.17552 0.13564,0.29388 0.42952,0.44082 0.20346,0.11303 1.0851,0.11303 h 0.32778 v 0.94946 h -5.82108 v -0.94946 h 0.28258 q 0.83642,0 1.14161,-0.13564 0.30518,-0.14694 0.42951,-0.50864 0.0678,-0.18084 0.0678,-1.24333 v -6.44276 z"
         style="-inkscape-font-specification:'Bookman Old Style'"
         id="path6813" />
      <path
         d="m 242.13709,474.60329 h 0.80252 v 3.84305 h 3.35702 v 1.13031 h -3.35702 v 6.81575 q 0,0.87034 0.14694,1.24334 0.15825,0.373 0.51994,0.61037 0.37301,0.23736 0.82513,0.23736 1.07379,0 2.37364,-0.96076 v 1.0964 q -1.4807,1.00597 -2.99531,1.00597 -0.85903,0 -1.55983,-0.3843 -0.68948,-0.38431 -0.94945,-0.90425 -0.24867,-0.51994 -0.24867,-1.80849 v -6.95139 h -1.97804 v -0.94946 q 0.94946,-0.21476 1.52592,-0.66688 0.58776,-0.45213 0.94945,-1.17552 0.3617,-0.7234 0.58776,-2.1815 z"
         style="-inkscape-font-specification:'Bookman Old Style'"
         id="path6815" />
      <path
         d="m 253.66623,478.17507 q 1.66155,0 2.87098,0.68948 1.22073,0.68949 1.92153,2.01195 0.70079,1.32246 0.70079,3.01792 0,1.69546 -0.7234,3.01792 -0.71209,1.32246 -1.95543,2.02325 -1.23204,0.68949 -2.95011,0.68949 -2.73534,0 -4.11432,-1.70676 -1.36767,-1.70677 -1.36767,-4.01259 0,-1.68416 0.7121,-2.98402 0.71209,-1.31115 1.98934,-2.02325 1.28855,-0.72339 2.91619,-0.72339 z m -0.0904,1.09639 q -1.28855,0 -2.1815,1.01728 -1.1303,1.26595 -1.1303,3.6848 0,2.32844 0.96076,3.54917 0.87033,1.0851 2.36234,1.0851 0.96076,0 1.70676,-0.50864 0.75731,-0.50864 1.22074,-1.61634 0.46342,-1.11901 0.46342,-2.62232 0,-1.4694 -0.49733,-2.63361 -0.38431,-0.92686 -1.16422,-1.43549 -0.76861,-0.51995 -1.74067,-0.51995 z"
         style="-inkscape-font-specification:'Bookman Old Style'"
         id="path6817" />
      <path
         d="m 276.45322,482.80933 v -1.23204 q 0,-1.25464 -0.70079,-1.78588 -0.70079,-0.54255 -1.97804,-0.54255 -0.63297,0 -1.1077,0.15824 -0.47473,0.14694 -0.76861,0.41821 -0.28257,0.25998 -0.41821,0.59907 -0.0565,0.12433 -0.27127,0.96076 -0.25998,1.01728 -1.05119,1.01728 -0.45212,0 -0.7347,-0.29388 -0.27127,-0.30519 -0.27127,-0.81383 0,-0.746 0.55385,-1.45809 0.55385,-0.7234 1.68415,-1.18683 1.14162,-0.47472 2.69014,-0.47472 1.44679,0 2.47537,0.45212 1.02858,0.44082 1.51461,1.27725 0.3391,0.57645 0.3391,2.10237 v 4.35168 q 0,0.92686 0.0565,1.20943 0.12433,0.48603 0.42952,0.7347 0.31648,0.23737 0.81382,0.23737 0.51994,0 1.24334,-0.24867 v 0.98337 q -0.93816,0.27127 -1.68416,0.27127 -0.80252,0 -1.35637,-0.22606 -0.54255,-0.22606 -0.89294,-0.65558 -0.3504,-0.44082 -0.45213,-1.03988 -1.35637,1.06249 -2.45276,1.492 -1.0964,0.42952 -2.21541,0.42952 -1.55982,0 -2.53189,-0.84773 -0.97206,-0.84773 -0.97206,-1.98934 0,-0.68949 0.35039,-1.31116 0.3617,-0.62167 1.0851,-1.0964 0.7347,-0.47473 2.29452,-0.83642 1.55983,-0.3617 4.32908,-0.65558 z m 0,0.98336 q -2.62231,0.38431 -3.24398,0.53125 -1.23204,0.28258 -1.76328,0.62167 -0.53124,0.33909 -0.75731,0.7347 -0.22606,0.3843 -0.22606,0.82512 0,0.44082 0.24867,0.85904 0.25997,0.40691 0.7234,0.64427 0.46342,0.23737 0.98336,0.23737 0.7347,0 1.66156,-0.3504 0.92685,-0.35039 2.37364,-1.36767 z"
         style="-inkscape-font-specification:'Bookman Old Style'"
         id="path6819" />
      <path
         d="m 288.96575,474.65981 v -0.93816 q 0.746,-0.0565 1.43549,-0.27127 0.70079,-0.21476 1.55982,-0.67819 h 0.82513 v 6.89488 q 0.99467,-0.746 2.04585,-1.119 1.05119,-0.373 2.14759,-0.373 1.26594,0 2.33974,0.67818 1.07379,0.67818 1.68415,1.92152 0.62167,1.23204 0.62167,2.9162 0,2.64492 -1.54852,4.35168 -1.43549,1.58243 -3.63959,1.58243 -1.32246,0 -2.36234,-0.55385 -0.76861,-0.40691 -1.49201,-1.25464 l -0.62167,1.53722 h -1.05118 v -14.694 z m 3.82044,6.12627 v 4.35168 q 0,1.02858 0.14694,1.44679 0.14694,0.40692 0.59906,0.84774 0.46343,0.42951 1.07379,0.68948 0.62167,0.24867 1.27725,0.24867 1.00597,0 1.8311,-0.53124 0.82512,-0.53125 1.29985,-1.57113 0.47473,-1.03988 0.47473,-2.49798 0,-2.04586 -1.00597,-3.27789 -0.80252,-1.01728 -2.24931,-1.01728 -0.74601,0 -1.51462,0.28258 -0.76861,0.27127 -1.93282,1.02858 z"
         style="-inkscape-font-specification:'Bookman Old Style'"
         id="path6821" />
      <path
         d="m 306.30465,473.07738 q 0.54255,0 0.92685,0.3843 0.38431,0.373 0.38431,0.91555 0,0.54255 -0.38431,0.92685 -0.3843,0.38431 -0.92685,0.38431 -0.54255,0 -0.92685,-0.38431 -0.38431,-0.3843 -0.38431,-0.92685 0,-0.54255 0.38431,-0.91555 0.3843,-0.3843 0.92685,-0.3843 z m -2.88229,6.9966 v -0.93815 q 0.93816,-0.11303 1.57113,-0.31649 0.64428,-0.20345 1.4581,-0.64427 h 0.82512 v 9.06506 q 0,0.47473 0.13564,0.7121 0.13564,0.23736 0.373,0.35039 0.24867,0.10173 0.89294,0.10173 h 0.53125 v 0.94946 h -5.78718 v -0.94946 h 0.46343 q 0.75731,0 1.01728,-0.13564 0.25997,-0.13563 0.3617,-0.3843 0.11303,-0.24867 0.11303,-1.16422 v -6.64621 z"
         style="-inkscape-font-specification:'Bookman Old Style'"
         id="path6823" />
      <path
         d="m 318.10507,478.44634 h 0.79121 l 1.01728,3.45874 -1.01728,0.33909 q -0.61037,-1.39028 -1.71807,-2.18149 -1.0964,-0.80252 -2.2267,-0.80252 -0.87034,0 -1.41289,0.42952 -0.54255,0.41821 -0.54255,0.97206 0,0.51994 0.39561,0.89295 0.38431,0.3843 1.72937,0.87033 l 2.2041,0.77991 q 1.86501,0.66689 2.5432,1.42419 0.66688,0.76861 0.66688,1.74068 0,0.82512 -0.49734,1.59373 -0.49733,0.75731 -1.44679,1.20943 -0.93816,0.45212 -2.15889,0.45212 -1.89892,0 -3.25529,-1.08509 l -0.23736,0.81382 h -0.80252 l -1.41288,-3.69611 1.02858,-0.40691 q 1.02858,1.62764 1.94413,2.30583 1.27724,0.96076 2.75795,0.96076 0.98336,0 1.61634,-0.51994 0.63297,-0.53125 0.63297,-1.17552 0,-0.53125 -0.39561,-0.97207 -0.40691,-0.42951 -1.55982,-0.83642 l -2.61101,-0.94946 q -1.68416,-0.61037 -2.33974,-1.33376 -0.65558,-0.7234 -0.65558,-1.66156 0,-1.14161 1.06249,-2.01194 1.07379,-0.88164 2.72404,-0.88164 0.85903,0 1.53722,0.22606 0.67818,0.21476 1.33376,0.72339 z"
         style="-inkscape-font-specification:'Bookman Old Style'"
         id="path6825" />
      <path
         d="m 322.49066,474.69372 v -0.97207 q 1.0964,-0.14694 1.70677,-0.33909 0.61036,-0.20345 1.27725,-0.61037 h 0.88164 v 7.47134 q 1.27724,-1.07379 2.41885,-1.57113 1.14161,-0.49733 2.1815,-0.49733 1.51461,0 2.49798,0.90424 0.97206,0.90425 0.97206,2.2041 v 5.54981 q 0,0.82513 0.12434,1.0851 0.13563,0.24867 0.44082,0.373 0.30518,0.11303 1.36767,0.11303 v 0.94946 h -5.83239 v -0.94946 h 0.42952 q 0.82512,0 1.08509,-0.12433 0.25997,-0.13564 0.373,-0.42952 0.12434,-0.30518 0.12434,-1.24334 v -3.85435 q 0,-1.27725 -0.0904,-1.66155 -0.16954,-0.65558 -0.70079,-1.05119 -0.53124,-0.3956 -1.35637,-0.3956 -0.92685,0 -1.94413,0.46342 -1.00597,0.45212 -2.09106,1.36767 v 5.66285 q 0,0.63297 0.11303,0.84773 0.11303,0.21475 0.373,0.31648 0.25997,0.10173 1.03988,0.10173 h 0.46343 v 0.94946 h -5.855 v -0.94946 h 0.3504 q 0.82512,0 1.19812,-0.20346 0.20346,-0.10172 0.29388,-0.3956 0.0904,-0.29388 0.0904,-1.62765 v -11.48392 z"
         style="-inkscape-font-specification:'Bookman Old Style'"
         id="path6827" />
      <path
         d="m 343.48049,478.17507 q 1.66155,0 2.87098,0.68948 1.22073,0.68949 1.92152,2.01195 0.70079,1.32246 0.70079,3.01792 0,1.69546 -0.7234,3.01792 -0.71209,1.32246 -1.95543,2.02325 -1.23203,0.68949 -2.9501,0.68949 -2.73535,0 -4.11432,-1.70676 -1.36767,-1.70677 -1.36767,-4.01259 0,-1.68416 0.71209,-2.98402 0.71209,-1.31115 1.98934,-2.02325 1.28855,-0.72339 2.9162,-0.72339 z m -0.0904,1.09639 q -1.28855,0 -2.18149,1.01728 -1.13031,1.26595 -1.13031,3.6848 0,2.32844 0.96076,3.54917 0.87034,1.0851 2.36234,1.0851 0.96077,0 1.70677,-0.50864 0.75731,-0.50864 1.22073,-1.61634 0.46343,-1.11901 0.46343,-2.62232 0,-1.4694 -0.49734,-2.63361 -0.3843,-0.92686 -1.16421,-1.43549 -0.76861,-0.51995 -1.74068,-0.51995 z"
         style="-inkscape-font-specification:'Bookman Old Style'"
         id="path6829" />
      <path
         d="m 350.62403,480.06268 v -0.92685 q 0.84773,0 1.50331,-0.21476 0.65558,-0.21476 1.43549,-0.746 h 0.89294 v 1.88761 q 1.41289,-1.11901 2.35104,-1.50331 0.93816,-0.3843 1.87632,-0.3843 1.93282,0 3.28919,1.51461 1.36767,1.51461 1.36767,3.94477 0,2.69013 -1.54852,4.4082 -1.41288,1.58243 -3.63959,1.58243 -1.1077,0 -2.07977,-0.41821 -0.70079,-0.29388 -1.61634,-1.05119 v 3.71871 q 0,0.83643 0.0452,0.98337 0.0565,0.21476 0.22606,0.3617 0.16954,0.14694 0.42952,0.19215 0.19215,0.0339 1.28855,0.0339 v 0.94946 h -5.82109 v -0.94946 h 0.50864 q 0.77991,0 1.00597,-0.12433 0.23737,-0.11303 0.3504,-0.3617 0.0678,-0.19215 0.0678,-1.17552 v -11.72129 z m 3.83174,1.16422 v 3.88825 q 0,0.76861 0.0904,1.14162 0.13564,0.57645 0.51994,1.03988 0.39561,0.46342 1.06249,0.79121 0.67818,0.32779 1.41288,0.32779 1.4694,0 2.5432,-1.1077 1.08509,-1.1077 1.08509,-3.35701 0,-2.10237 -0.89294,-3.24399 -0.89294,-1.15291 -2.11368,-1.15291 -0.79121,0 -1.71806,0.41821 -0.92686,0.41822 -1.98935,1.25465 z"
         style="-inkscape-font-specification:'Bookman Old Style'"
         id="path6831" />
      <path
         d="m 366.7535,493.44552 -0.61036,-0.746 q 2.31713,-1.88761 2.31713,-3.15356 0,-0.14694 -0.0226,-0.3617 -0.19215,0.0791 -0.373,0.12434 -0.18085,0.0452 -0.33909,0.0452 -0.54255,0 -0.87034,-0.3504 -0.32779,-0.35039 -0.32779,-0.89294 0,-0.53124 0.39561,-0.92685 0.39561,-0.39561 0.94946,-0.39561 0.76861,0 1.31116,0.62167 0.55385,0.61037 0.55385,1.58243 0,0.63297 -0.25997,1.32246 -0.25998,0.70079 -0.75731,1.28855 -0.49734,0.59906 -1.96674,1.8424 z"
         style="-inkscape-font-specification:'Bookman Old Style'"
         id="path6833" />
      <path
         d="m 29.695762,510.73334 v -1.23204 q 0,-1.25464 -0.700791,-1.78588 -0.700791,-0.54255 -1.978039,-0.54255 -0.632972,0 -1.107701,0.15824 -0.474729,0.14694 -0.768609,0.41822 -0.282577,0.25997 -0.418214,0.59906 -0.05652,0.12433 -0.271274,0.96076 -0.259971,1.01728 -1.051186,1.01728 -0.452123,0 -0.7347,-0.29388 -0.271274,-0.30519 -0.271274,-0.81382 0,-0.74601 0.553851,-1.4581 0.553851,-0.7234 1.684158,-1.18682 1.141611,-0.47473 2.690132,-0.47473 1.446794,0 2.475374,0.45212 1.02858,0.44082 1.514612,1.27725 0.339093,0.57645 0.339093,2.10237 v 4.35168 q 0,0.92686 0.05652,1.20943 0.124334,0.48604 0.429517,0.7347 0.316486,0.23737 0.813822,0.23737 0.519941,0 1.243338,-0.24867 v 0.98337 q -0.938155,0.27127 -1.684158,0.27127 -0.802519,0 -1.35637,-0.22606 -0.542547,-0.22606 -0.892943,-0.65558 -0.350395,-0.44082 -0.452123,-1.03988 -1.356369,1.06249 -2.452767,1.492 -1.096399,0.42952 -2.215403,0.42952 -1.559825,0 -2.531889,-0.84773 -0.972065,-0.84773 -0.972065,-1.98934 0,-0.68949 0.350395,-1.31116 0.361699,-0.62167 1.085096,-1.0964 0.7347,-0.47473 2.294524,-0.83642 1.559825,-0.3617 4.329079,-0.65558 z m 0,0.98337 q -2.622314,0.3843 -3.243983,0.53124 -1.232036,0.28258 -1.76328,0.62167 -0.531245,0.33909 -0.757306,0.7347 -0.226062,0.3843 -0.226062,0.82512 0,0.44082 0.248668,0.85904 0.25997,0.40691 0.723397,0.64427 0.463426,0.23737 0.983367,0.23737 0.7347,0 1.661552,-0.3504 0.926853,-0.35039 2.373647,-1.36767 z"
         style="-inkscape-font-specification:'Bookman Old Style'"
         id="path6835" />
      <path
         d="m 35.008207,507.99799 v -0.94945 q 1.005974,-0.11304 1.50331,-0.27128 0.497335,-0.15824 1.43549,-0.67818 h 0.813822 v 2.14758 q 1.492006,-1.25464 2.543192,-1.69546 1.062489,-0.45212 2.147585,-0.45212 0.926852,0 1.638946,0.31648 0.712094,0.30519 1.152913,0.83643 0.452124,0.53125 0.599064,1.20943 0.09042,0.41821 0.09042,1.26594 v 4.97336 q 0,0.89294 0.124334,1.15291 0.135637,0.24867 0.418214,0.3617 0.282577,0.11303 1.390278,0.11303 v 0.94946 h -5.821084 v -0.94946 h 0.316486 q 0.813821,0 1.107701,-0.14694 0.29388,-0.14694 0.418214,-0.42952 0.135637,-0.28257 0.135637,-1.15291 v -4.15953 q 0,-1.28855 -0.214758,-1.78589 -0.203456,-0.49733 -0.712094,-0.80252 -0.497335,-0.31648 -1.265945,-0.31648 -0.915549,0 -1.955432,0.47473 -1.039883,0.46342 -2.011947,1.37897 v 5.21072 q 0,0.88164 0.124333,1.17552 0.135637,0.29388 0.429517,0.44082 0.203456,0.11303 1.085096,0.11303 h 0.327789 v 0.94946 h -5.821085 v -0.94946 h 0.282577 q 0.836428,0 1.141611,-0.13564 0.305183,-0.14694 0.429517,-0.50863 0.06782,-0.18085 0.06782,-1.24334 v -6.44276 z"
         style="-inkscape-font-specification:'Bookman Old Style'"
         id="path6837" />
      <path
         d="m 57.32048,502.60643 v -0.96077 q 0.768609,-0.0678 1.401582,-0.25997 0.644275,-0.20345 1.605037,-0.68948 h 0.84773 v 13.71063 q 0,0.94946 0.04521,1.15291 0.11303,0.42952 0.384304,0.59906 0.271274,0.16955 1.051186,0.16955 h 0.486033 v 0.94946 l -3.922168,0.18085 v -1.79719 q -1.130308,1.02858 -2.124978,1.4581 -0.983368,0.42951 -1.978039,0.42951 -2.045856,0 -3.402226,-1.63894 -1.345066,-1.65025 -1.345066,-3.96738 0,-1.65025 0.712094,-3.01792 0.723397,-1.37898 1.898917,-2.10238 1.17552,-0.72339 2.577101,-0.72339 1.073793,0 1.989342,0.373 0.915549,0.373 1.672855,1.119 v -4.98465 z m 1.898917,11.93604 v -4.27256 q 0,-0.91555 -0.350395,-1.492 -0.339093,-0.58776 -1.130308,-1.01728 -0.779912,-0.42952 -1.605037,-0.42952 -0.983367,0 -1.819795,0.54255 -0.825125,0.53124 -1.299854,1.54852 -0.463426,1.00597 -0.463426,2.44147 0,1.35636 0.429517,2.35104 0.44082,0.98336 1.17552,1.5033 0.7347,0.50864 1.503309,0.50864 0.757306,0 1.718068,-0.42951 0.960761,-0.44082 1.842401,-1.25465 z"
         style="-inkscape-font-specification:'Bookman Old Style'"
         id="path6839" />
      <path
         d="m 79.078901,502.60643 v -0.96077 q 0.768609,-0.0678 1.401582,-0.25997 0.644275,-0.20345 1.605037,-0.68948 h 0.84773 v 13.71063 q 0,0.94946 0.04521,1.15291 0.11303,0.42952 0.384304,0.59906 0.271274,0.16955 1.051186,0.16955 h 0.486033 v 0.94946 l -3.922168,0.18085 v -1.79719 q -1.130308,1.02858 -2.124978,1.4581 -0.983368,0.42951 -1.978039,0.42951 -2.045857,0 -3.402226,-1.63894 -1.345066,-1.65025 -1.345066,-3.96738 0,-1.65025 0.712094,-3.01792 0.723397,-1.37898 1.898917,-2.10238 1.17552,-0.72339 2.577101,-0.72339 1.073793,0 1.989342,0.373 0.915549,0.373 1.672855,1.119 v -4.98465 z m 1.898917,11.93604 v -4.27256 q 0,-0.91555 -0.350395,-1.492 -0.339093,-0.58776 -1.130308,-1.01728 -0.779912,-0.42952 -1.605037,-0.42952 -0.983367,0 -1.819795,0.54255 -0.825125,0.53124 -1.299854,1.54852 -0.463426,1.00597 -0.463426,2.44147 0,1.35636 0.429517,2.35104 0.44082,0.98336 1.17552,1.5033 0.7347,0.50864 1.503309,0.50864 0.757306,0 1.718068,-0.42951 0.960761,-0.44082 1.842401,-1.25465 z"
         style="-inkscape-font-specification:'Bookman Old Style'"
         id="path6841" />
      <path
         d="m 89.183852,501.00139 q 0.542548,0 0.926853,0.3843 0.384304,0.37301 0.384304,0.91555 0,0.54255 -0.384304,0.92686 -0.384305,0.3843 -0.926853,0.3843 -0.542547,0 -0.926852,-0.3843 -0.384304,-0.38431 -0.384304,-0.92686 0,-0.54254 0.384304,-0.91555 0.384305,-0.3843 0.926852,-0.3843 z m -2.882284,6.9966 v -0.93815 q 0.938155,-0.11303 1.571128,-0.31649 0.644275,-0.20345 1.458096,-0.64427 h 0.825125 v 9.06506 q 0,0.47473 0.135637,0.7121 0.135637,0.23736 0.373001,0.35039 0.248668,0.10173 0.892944,0.10173 h 0.531244 v 0.94946 h -5.787175 v -0.94946 h 0.463426 q 0.757306,0 1.017277,-0.13564 0.259971,-0.13563 0.361698,-0.3843 Q 88.257,515.55975 88.257,514.6442 v -6.64621 z"
         style="-inkscape-font-specification:'Bookman Old Style'"
         id="path6843" />
      <path
         d="m 100.98426,506.37035 h 0.79122 l 1.01727,3.45874 -1.01727,0.33909 q -0.61037,-1.39027 -1.71807,-2.18149 -1.096399,-0.80252 -2.226707,-0.80252 -0.870337,0 -1.412884,0.42952 -0.542548,0.41821 -0.542548,0.97206 0,0.51995 0.395608,0.89295 0.384304,0.3843 1.729371,0.87033 l 2.2041,0.77992 q 1.86501,0.66688 2.54319,1.42418 0.66688,0.76861 0.66688,1.74068 0,0.82512 -0.49733,1.59373 -0.49734,0.75731 -1.4468,1.20943 -0.93815,0.45212 -2.158884,0.45212 -1.898916,0 -3.255286,-1.08509 l -0.237364,0.81382 h -0.802519 l -1.412884,-3.69611 1.02858,-0.40691 q 1.02858,1.62765 1.944129,2.30583 1.277248,0.96076 2.757951,0.96076 0.983367,0 1.616337,-0.51994 0.63297,-0.53124 0.63297,-1.17552 0,-0.53124 -0.3956,-0.97206 -0.40691,-0.42952 -1.559827,-0.83643 l -2.611011,-0.94946 q -1.684159,-0.61037 -2.339737,-1.33376 -0.655578,-0.7234 -0.655578,-1.66156 0,-1.14161 1.062489,-2.01194 1.073792,-0.88164 2.724041,-0.88164 0.859034,0 1.537219,0.22606 0.678184,0.21476 1.333764,0.7234 z"
         style="-inkscape-font-specification:'Bookman Old Style'"
         id="path6845" />
      <path
         d="m 115.36178,514.12426 0.7234,0.58776 q -2.12498,2.83707 -5.09769,2.83707 -2.31713,0 -3.91087,-1.65025 -1.59373,-1.65025 -1.59373,-4.10301 0,-1.63895 0.7347,-2.9388 0.746,-1.31116 2.05716,-2.03456 1.32246,-0.72339 3.02922,-0.72339 1.94413,0 3.24399,0.96076 1.29985,0.94946 1.29985,1.92152 0,0.51994 -0.30518,0.80252 -0.30518,0.28258 -0.68949,0.28258 -0.20345,0 -0.39561,-0.10173 -0.19215,-0.10173 -0.3956,-0.32779 -0.0904,-0.10173 -0.32779,-0.63297 -0.30519,-0.65558 -0.47473,-0.88164 -0.3504,-0.45213 -0.87034,-0.7121 -0.50864,-0.25997 -1.14161,-0.25997 -0.96076,0 -1.78589,0.53125 -0.81382,0.53124 -1.29985,1.57113 -0.47473,1.02858 -0.47473,2.46407 0,2.2267 1.18682,3.53786 1.02858,1.13031 2.45277,1.13031 0.65558,0 1.32246,-0.21476 0.67819,-0.22606 1.27725,-0.65558 0.44082,-0.30518 1.43549,-1.39028 z"
         style="-inkscape-font-specification:'Bookman Old Style'"
         id="path6847" />
      <path
         d="m 125.53454,510.73334 v -1.23204 q 0,-1.25464 -0.70079,-1.78588 -0.70079,-0.54255 -1.97803,-0.54255 -0.63298,0 -1.10771,0.15824 -0.47473,0.14694 -0.76861,0.41822 -0.28257,0.25997 -0.41821,0.59906 -0.0565,0.12433 -0.27127,0.96076 -0.25997,1.01728 -1.05119,1.01728 -0.45212,0 -0.7347,-0.29388 -0.27127,-0.30519 -0.27127,-0.81382 0,-0.74601 0.55385,-1.4581 0.55385,-0.7234 1.68416,-1.18682 1.14161,-0.47473 2.69013,-0.47473 1.44679,0 2.47537,0.45212 1.02858,0.44082 1.51461,1.27725 0.3391,0.57645 0.3391,2.10237 v 4.35168 q 0,0.92686 0.0565,1.20943 0.12434,0.48604 0.42952,0.7347 0.31649,0.23737 0.81382,0.23737 0.51994,0 1.24334,-0.24867 v 0.98337 q -0.93816,0.27127 -1.68416,0.27127 -0.80252,0 -1.35637,-0.22606 -0.54255,-0.22606 -0.89294,-0.65558 -0.3504,-0.44082 -0.45212,-1.03988 -1.35637,1.06249 -2.45277,1.492 -1.0964,0.42952 -2.21541,0.42952 -1.55982,0 -2.53188,-0.84773 -0.97207,-0.84773 -0.97207,-1.98934 0,-0.68949 0.3504,-1.31116 0.3617,-0.62167 1.08509,-1.0964 0.7347,-0.47473 2.29453,-0.83642 1.55982,-0.3617 4.32907,-0.65558 z m 0,0.98337 q -2.62231,0.3843 -3.24398,0.53124 -1.23203,0.28258 -1.76328,0.62167 -0.53124,0.33909 -0.7573,0.7347 -0.22607,0.3843 -0.22607,0.82512 0,0.44082 0.24867,0.85904 0.25997,0.40691 0.7234,0.64427 0.46342,0.23737 0.98337,0.23737 0.7347,0 1.66155,-0.3504 0.92685,-0.35039 2.37364,-1.36767 z"
         style="-inkscape-font-specification:'Bookman Old Style'"
         id="path6849" />
      <path
         d="m 130.81308,507.98669 v -0.92685 q 0.82513,-0.0678 1.4694,-0.27128 0.64428,-0.21475 1.4694,-0.68948 h 0.84773 v 2.13628 q 0.80252,-0.98337 1.86501,-1.55983 1.06249,-0.57645 1.91022,-0.57645 0.83643,0 1.32246,0.3956 0.48603,0.39561 0.48603,0.96077 0,0.40691 -0.32779,0.72339 -0.31648,0.30519 -0.76861,0.30519 -0.20345,0 -0.35039,-0.0565 -0.14694,-0.0565 -0.42952,-0.24867 -0.62167,-0.40691 -1.03988,-0.40691 -0.56516,0 -1.24334,0.47473 -0.85903,0.61037 -1.34507,1.19813 v 5.21072 q 0,0.67818 0.0678,0.92685 0.0791,0.23736 0.24867,0.41821 0.16955,0.16955 0.41821,0.24867 0.24867,0.0791 0.87034,0.0791 h 0.373 v 0.94946 h -5.84369 v -0.94946 h 0.48603 q 0.68949,0 0.90425,-0.12433 0.29388,-0.16955 0.42952,-0.46343 0.14694,-0.30518 0.14694,-1.08509 v -6.66882 z"
         style="-inkscape-font-specification:'Bookman Old Style'"
         id="path6851" />
      <path
         d="m 148.06158,502.60643 v -0.96077 q 0.76861,-0.0678 1.40158,-0.25997 0.64428,-0.20345 1.60504,-0.68948 h 0.84773 v 13.71063 q 0,0.94946 0.0452,1.15291 0.11303,0.42952 0.3843,0.59906 0.27128,0.16955 1.05119,0.16955 h 0.48603 v 0.94946 l -3.92216,0.18085 v -1.79719 q -1.13031,1.02858 -2.12498,1.4581 -0.98337,0.42951 -1.97804,0.42951 -2.04586,0 -3.40223,-1.63894 -1.34506,-1.65025 -1.34506,-3.96738 0,-1.65025 0.71209,-3.01792 0.7234,-1.37898 1.89892,-2.10238 1.17552,-0.72339 2.5771,-0.72339 1.07379,0 1.98934,0.373 0.91555,0.373 1.67286,1.119 v -4.98465 z m 1.89892,11.93604 v -4.27256 q 0,-0.91555 -0.3504,-1.492 -0.33909,-0.58776 -1.13031,-1.01728 -0.77991,-0.42952 -1.60503,-0.42952 -0.98337,0 -1.8198,0.54255 -0.82512,0.53124 -1.29985,1.54852 -0.46343,1.00597 -0.46343,2.44147 0,1.35636 0.42952,2.35104 0.44082,0.98336 1.17552,1.5033 0.7347,0.50864 1.50331,0.50864 0.7573,0 1.71806,-0.42951 0.96077,-0.44082 1.84241,-1.25465 z"
         style="-inkscape-font-specification:'Bookman Old Style'"
         id="path6853" />
      <path
         d="m 165.75089,502.5273 h 0.80252 v 3.84305 h 3.35702 v 1.13031 h -3.35702 v 6.81575 q 0,0.87034 0.14694,1.24334 0.15825,0.373 0.51994,0.61037 0.37301,0.23736 0.82513,0.23736 1.07379,0 2.37364,-0.96076 v 1.0964 q -1.4807,1.00597 -2.99531,1.00597 -0.85903,0 -1.55983,-0.3843 -0.68948,-0.38431 -0.94945,-0.90425 -0.24867,-0.51994 -0.24867,-1.80849 v -6.95139 h -1.97804 v -0.94946 q 0.94946,-0.21476 1.52592,-0.66688 0.58776,-0.45212 0.94945,-1.17552 0.3617,-0.7234 0.58776,-2.1815 z"
         style="-inkscape-font-specification:'Bookman Old Style'"
         id="path6855" />
      <path
         d="m 171.57198,502.61773 v -0.97207 q 1.0964,-0.14694 1.70676,-0.33909 0.61037,-0.20345 1.27725,-0.61036 h 0.88164 v 7.47133 q 1.27725,-1.07379 2.41886,-1.57113 1.14161,-0.49733 2.18149,-0.49733 1.51461,0 2.49798,0.90424 0.97207,0.90425 0.97207,2.2041 v 5.54981 q 0,0.82513 0.12433,1.0851 0.13564,0.24867 0.44082,0.373 0.30518,0.11303 1.36767,0.11303 v 0.94946 h -5.83239 v -0.94946 h 0.42952 q 0.82513,0 1.0851,-0.12433 0.25997,-0.13564 0.373,-0.42952 0.12433,-0.30518 0.12433,-1.24334 v -3.85435 q 0,-1.27724 -0.0904,-1.66155 -0.16955,-0.65558 -0.70079,-1.05119 -0.53125,-0.3956 -1.35637,-0.3956 -0.92685,0 -1.94413,0.46342 -1.00597,0.45213 -2.09107,1.36768 v 5.66284 q 0,0.63297 0.11303,0.84773 0.11303,0.21476 0.373,0.31648 0.25997,0.10173 1.03989,0.10173 h 0.46342 v 0.94946 h -5.85499 v -0.94946 h 0.35039 q 0.82513,0 1.19813,-0.20345 0.20345,-0.10173 0.29388,-0.39561 0.0904,-0.29388 0.0904,-1.62765 v -11.48392 z"
         style="-inkscape-font-specification:'Bookman Old Style'"
         id="path6857" />
      <path
         d="m 189.64559,501.00139 q 0.54255,0 0.92685,0.3843 0.38431,0.37301 0.38431,0.91555 0,0.54255 -0.38431,0.92686 -0.3843,0.3843 -0.92685,0.3843 -0.54255,0 -0.92685,-0.3843 -0.38431,-0.38431 -0.38431,-0.92686 0,-0.54254 0.38431,-0.91555 0.3843,-0.3843 0.92685,-0.3843 z m -2.88228,6.9966 v -0.93815 q 0.93815,-0.11303 1.57112,-0.31649 0.64428,-0.20345 1.4581,-0.64427 h 0.82513 v 9.06506 q 0,0.47473 0.13563,0.7121 0.13564,0.23736 0.373,0.35039 0.24867,0.10173 0.89295,0.10173 h 0.53124 v 0.94946 h -5.78717 v -0.94946 h 0.46342 q 0.75731,0 1.01728,-0.13564 0.25997,-0.13563 0.3617,-0.3843 0.11303,-0.24867 0.11303,-1.16422 v -6.64621 z"
         style="-inkscape-font-specification:'Bookman Old Style'"
         id="path6859" />
      <path
         d="m 201.44601,506.37035 h 0.79121 l 1.01728,3.45874 -1.01728,0.33909 q -0.61036,-1.39027 -1.71806,-2.18149 -1.0964,-0.80252 -2.22671,-0.80252 -0.87034,0 -1.41288,0.42952 -0.54255,0.41821 -0.54255,0.97206 0,0.51995 0.39561,0.89295 0.3843,0.3843 1.72937,0.87033 l 2.2041,0.77992 q 1.865,0.66688 2.54319,1.42418 0.66688,0.76861 0.66688,1.74068 0,0.82512 -0.49734,1.59373 -0.49733,0.75731 -1.44679,1.20943 -0.93816,0.45212 -2.15889,0.45212 -1.89891,0 -3.25528,-1.08509 l -0.23737,0.81382 h -0.80252 l -1.41288,-3.69611 1.02858,-0.40691 q 1.02858,1.62765 1.94413,2.30583 1.27725,0.96076 2.75795,0.96076 0.98337,0 1.61634,-0.51994 0.63297,-0.53124 0.63297,-1.17552 0,-0.53124 -0.39561,-0.97206 -0.40691,-0.42952 -1.55982,-0.83643 l -2.61101,-0.94946 q -1.68416,-0.61037 -2.33974,-1.33376 -0.65558,-0.7234 -0.65558,-1.66156 0,-1.14161 1.06249,-2.01194 1.07379,-0.88164 2.72404,-0.88164 0.85904,0 1.53722,0.22606 0.67819,0.21476 1.33376,0.7234 z"
         style="-inkscape-font-specification:'Bookman Old Style'"
         id="path6861" />
      <path
         d="m 223.22704,514.12426 0.7234,0.58776 q -2.12498,2.83707 -5.09769,2.83707 -2.31713,0 -3.91086,-1.65025 -1.59373,-1.65025 -1.59373,-4.10301 0,-1.63895 0.7347,-2.9388 0.746,-1.31116 2.05716,-2.03456 1.32246,-0.72339 3.02922,-0.72339 1.94413,0 3.24398,0.96076 1.29986,0.94946 1.29986,1.92152 0,0.51994 -0.30519,0.80252 -0.30518,0.28258 -0.68948,0.28258 -0.20346,0 -0.39561,-0.10173 -0.19215,-0.10173 -0.39561,-0.32779 -0.0904,-0.10173 -0.32779,-0.63297 -0.30518,-0.65558 -0.47473,-0.88164 -0.35039,-0.45213 -0.87033,-0.7121 -0.50864,-0.25997 -1.14162,-0.25997 -0.96076,0 -1.78588,0.53125 -0.81382,0.53124 -1.29986,1.57113 -0.47472,1.02858 -0.47472,2.46407 0,2.2267 1.18682,3.53786 1.02858,1.13031 2.45277,1.13031 0.65557,0 1.32246,-0.21476 0.67818,-0.22606 1.27724,-0.65558 0.44082,-0.30518 1.43549,-1.39028 z"
         style="-inkscape-font-specification:'Bookman Old Style'"
         id="path6863" />
      <path
         d="m 233.3998,510.73334 v -1.23204 q 0,-1.25464 -0.70079,-1.78588 -0.70079,-0.54255 -1.97804,-0.54255 -0.63297,0 -1.1077,0.15824 -0.47473,0.14694 -0.76861,0.41822 -0.28257,0.25997 -0.41821,0.59906 -0.0565,0.12433 -0.27128,0.96076 -0.25997,1.01728 -1.05118,1.01728 -0.45212,0 -0.7347,-0.29388 -0.27128,-0.30519 -0.27128,-0.81382 0,-0.74601 0.55386,-1.4581 0.55385,-0.7234 1.68415,-1.18682 1.14161,-0.47473 2.69014,-0.47473 1.44679,0 2.47537,0.45212 1.02858,0.44082 1.51461,1.27725 0.33909,0.57645 0.33909,2.10237 v 4.35168 q 0,0.92686 0.0565,1.20943 0.12433,0.48604 0.42952,0.7347 0.31648,0.23737 0.81382,0.23737 0.51994,0 1.24334,-0.24867 v 0.98337 q -0.93816,0.27127 -1.68416,0.27127 -0.80252,0 -1.35637,-0.22606 -0.54255,-0.22606 -0.89294,-0.65558 -0.3504,-0.44082 -0.45213,-1.03988 -1.35637,1.06249 -2.45276,1.492 -1.0964,0.42952 -2.21541,0.42952 -1.55982,0 -2.53189,-0.84773 -0.97206,-0.84773 -0.97206,-1.98934 0,-0.68949 0.35039,-1.31116 0.3617,-0.62167 1.0851,-1.0964 0.7347,-0.47473 2.29452,-0.83642 1.55983,-0.3617 4.32908,-0.65558 z m 0,0.98337 q -2.62231,0.3843 -3.24398,0.53124 -1.23204,0.28258 -1.76328,0.62167 -0.53125,0.33909 -0.75731,0.7347 -0.22606,0.3843 -0.22606,0.82512 0,0.44082 0.24867,0.85904 0.25997,0.40691 0.7234,0.64427 0.46342,0.23737 0.98336,0.23737 0.7347,0 1.66156,-0.3504 0.92685,-0.35039 2.37364,-1.36767 z"
         style="-inkscape-font-specification:'Bookman Old Style'"
         id="path6865" />
      <path
         d="m 238.67834,507.98669 v -0.92685 q 0.82512,-0.0678 1.4694,-0.27128 0.64427,-0.21475 1.4694,-0.68948 h 0.84773 v 2.13628 q 0.80252,-0.98337 1.86501,-1.55983 1.06249,-0.57645 1.91022,-0.57645 0.83642,0 1.32246,0.3956 0.48603,0.39561 0.48603,0.96077 0,0.40691 -0.32779,0.72339 -0.31649,0.30519 -0.76861,0.30519 -0.20345,0 -0.35039,-0.0565 -0.14694,-0.0565 -0.42952,-0.24867 -0.62167,-0.40691 -1.03988,-0.40691 -0.56516,0 -1.24334,0.47473 -0.85904,0.61037 -1.34507,1.19813 v 5.21072 q 0,0.67818 0.0678,0.92685 0.0791,0.23736 0.24867,0.41821 0.16954,0.16955 0.41821,0.24867 0.24867,0.0791 0.87034,0.0791 h 0.373 v 0.94946 h -5.84369 v -0.94946 h 0.48603 q 0.68949,0 0.90425,-0.12433 0.29388,-0.16955 0.42951,-0.46343 0.14694,-0.30518 0.14694,-1.08509 v -6.66882 z"
         style="-inkscape-font-specification:'Bookman Old Style'"
         id="path6867" />
      <path
         d="m 255.92684,502.60643 v -0.96077 q 0.76861,-0.0678 1.40159,-0.25997 0.64427,-0.20345 1.60503,-0.68948 h 0.84773 v 13.71063 q 0,0.94946 0.0452,1.15291 0.11304,0.42952 0.38431,0.59906 0.27127,0.16955 1.05119,0.16955 h 0.48603 v 0.94946 l -3.92217,0.18085 v -1.79719 q -1.13031,1.02858 -2.12498,1.4581 -0.98337,0.42951 -1.97804,0.42951 -2.04585,0 -3.40222,-1.63894 -1.34507,-1.65025 -1.34507,-3.96738 0,-1.65025 0.7121,-3.01792 0.72339,-1.37898 1.89891,-2.10238 1.17552,-0.72339 2.5771,-0.72339 1.0738,0 1.98935,0.373 0.91554,0.373 1.67285,1.119 v -4.98465 z m 1.89892,11.93604 v -4.27256 q 0,-0.91555 -0.35039,-1.492 -0.3391,-0.58776 -1.13031,-1.01728 -0.77991,-0.42952 -1.60504,-0.42952 -0.98337,0 -1.81979,0.54255 -0.82513,0.53124 -1.29986,1.54852 -0.46342,1.00597 -0.46342,2.44147 0,1.35636 0.42951,2.35104 0.44082,0.98336 1.17552,1.5033 0.7347,0.50864 1.50331,0.50864 0.75731,0 1.71807,-0.42951 0.96076,-0.44082 1.8424,-1.25465 z"
         style="-inkscape-font-specification:'Bookman Old Style'"
         id="path6869" />
      <path
         d="m 266.09961,514.6442 q 0.59906,0 1.00597,0.41822 0.41822,0.40691 0.41822,0.99467 0,0.58776 -0.41822,1.00597 -0.41821,0.40691 -1.00597,0.40691 -0.57646,0 -0.99467,-0.40691 -0.41822,-0.41821 -0.41822,-1.00597 0,-0.58776 0.40692,-0.99467 0.41821,-0.41822 1.00597,-0.41822 z"
         style="-inkscape-font-specification:'Bookman Old Style'"
         id="path6871" />
    </g>
    <g
       id="g37174"
       clip-path="url(#clipPath37184)">
      <g
         id="g37152">
        <path
           id="rect37147"
           style="fill:#941913;stroke-linejoin:round;paint-order:markers fill stroke"
           d="M -3.6137106,26.201277 H 115.25133 V 114.85644 H -3.6137106 Z" />
        <path
           id="rect37125"
           style="mix-blend-mode:overlay;fill:url(#pattern37145);stroke-linejoin:round;paint-order:markers fill stroke"
           d="M 1.5199959,27.385979 H 109.32783 V 114.26408 H 1.5199959 Z" />
      </g>
      <g
         id="g37162">
        <path
           id="path37003"
           style="mix-blend-mode:lighten;fill:url(#radialGradient37067);stroke-width:0.883284;stroke-linejoin:round;paint-order:markers fill stroke"
           d="M 83.461845,59.570362 A 56.766945,55.680969 0 0 1 26.694901,115.25133 56.766945,55.680969 0 0 1 -30.072044,59.570362 56.766945,55.680969 0 0 1 26.694901,3.8893929 56.766945,55.680969 0 0 1 83.461845,59.570362 Z" />
        <g
           id="rect36868"
           transform="matrix(0.91514212,0.40313136,-0.41259437,0.91091486,0,0)">
          <path
             style="color:#000000;fill:#d08600;stroke-width:1.21303;stroke-linejoin:round;-inkscape-stroke:none;paint-order:markers fill stroke"
             d="M 55.750267,39.294781 H 155.9043 v 6.871284 H 55.750267 Z"
             id="path6771" />
          <path
             style="color:#000000;fill:#331f14;stroke-linejoin:round;-inkscape-stroke:none;paint-order:markers fill stroke"
             d="m 55.75,38.6875 a 0.60657564,0.60657564 0 0 0 -0.605469,0.607422 v 6.871094 A 0.60657564,0.60657564 0 0 0 55.75,46.773437 h 100.1543 a 0.60657564,0.60657564 0 0 0 0.60742,-0.607421 V 39.294922 A 0.60657564,0.60657564 0 0 0 155.9043,38.6875 Z m 0.607422,1.212891 h 98.939448 v 5.658203 H 56.357422 Z"
             id="path6773" />
        </g>
        <g
           id="circle36924">
          <path
             style="color:#000000;fill:#d08600;stroke-width:0.892664;stroke-linejoin:round;-inkscape-stroke:none;paint-order:markers fill stroke"
             d="M 42.659113,59.712536 A 12.690483,12.690483 0 0 1 29.96863,72.403019 12.690483,12.690483 0 0 1 17.278147,59.712536 12.690483,12.690483 0 0 1 29.96863,47.022053 12.690483,12.690483 0 0 1 42.659113,59.712536 Z"
             id="path6777" />
          <path
             style="color:#000000;fill:#331f14;stroke-linejoin:round;-inkscape-stroke:none;paint-order:markers fill stroke"
             d="m 29.96875,46.576172 c -7.249969,0 -13.136719,5.88675 -13.136719,13.136719 0,7.249968 5.88675,13.136718 13.136719,13.136718 7.249969,0 13.136719,-5.88675 13.136719,-13.136718 0,-7.249969 -5.88675,-13.136719 -13.136719,-13.136719 z m 0,0.892578 c 6.767538,0 12.244141,5.476603 12.244141,12.244141 0,6.767537 -5.476603,12.24414 -12.244141,12.24414 -6.767538,0 -12.244141,-5.476603 -12.244141,-12.24414 0,-6.767538 5.476603,-12.244141 12.244141,-12.244141 z"
             id="path6779" />
        </g>
        <g
           id="path36922">
          <path
             style="color:#000000;fill:#941913;stroke-width:1.04025;stroke-linejoin:round;-inkscape-stroke:none;paint-order:markers fill stroke"
             d="M 40.397568,57.137787 A 14.788643,14.788643 0 0 1 25.608925,71.92643 14.788643,14.788643 0 0 1 10.820282,57.137787 14.788643,14.788643 0 0 1 25.608925,42.349144 14.788643,14.788643 0 0 1 40.397568,57.137787 Z"
             id="path6783" />
          <path
             style="color:#000000;fill:#0d0b0b;stroke-linejoin:round;-inkscape-stroke:none;paint-order:markers fill stroke"
             d="m 25.609375,41.828125 c -8.44863,0 -15.308594,6.861917 -15.308594,15.310547 0,8.44863 6.859964,15.308594 15.308594,15.308594 8.44863,0 15.308594,-6.859964 15.308594,-15.308594 0,-8.44863 -6.859964,-15.310547 -15.308594,-15.310547 z m 0,1.041016 c 7.886438,0 14.267578,6.383093 14.267578,14.269531 0,7.886438 -6.38114,14.267578 -14.267578,14.267578 -7.886438,0 -14.269531,-6.38114 -14.269531,-14.267578 0,-7.886438 6.383093,-14.269531 14.269531,-14.269531 z"
             id="path6785" />
        </g>
      </g>
    </g>
    <path
       style="color:#000000;fill:#331f14;-inkscape-stroke:none"
       d="m 4.2011719,31.212891 v 0.5 80.996089 H 101.63086 V 31.212891 Z m 1,1 H 100.63086 V 111.70898 H 5.2011719 Z"
       id="rect33301" />
  </g>
</svg>
