<?xml version="1.0" encoding="UTF-8" standalone="no"?>
<!-- Created with Inkscape (http://www.inkscape.org/) -->

<svg
   width="400"
   height="600"
   viewBox="0 0 105.83333 158.75"
   version="1.1"
   id="svg5"
   inkscape:export-filename="CardTemplate.svg"
   inkscape:export-xdpi="26.281288"
   inkscape:export-ydpi="26.281288"
   inkscape:version="1.2.2 (732a01da63, 2022-12-09)"
   sodipodi:docname="BishopCard.svg"
   xml:space="preserve"
   xmlns:inkscape="http://www.inkscape.org/namespaces/inkscape"
   xmlns:sodipodi="http://sodipodi.sourceforge.net/DTD/sodipodi-0.dtd"
   xmlns="http://www.w3.org/2000/svg"
   xmlns:svg="http://www.w3.org/2000/svg"><sodipodi:namedview
     id="namedview7"
     pagecolor="#505050"
     bordercolor="#ffffff"
     borderopacity="1"
     inkscape:showpageshadow="0"
     inkscape:pageopacity="0"
     inkscape:pagecheckerboard="1"
     inkscape:deskcolor="#505050"
     inkscape:document-units="mm"
     showgrid="false"
     showguides="true"
     inkscape:zoom="1.0129245"
     inkscape:cx="-31.591693"
     inkscape:cy="326.28296"
     inkscape:window-width="1920"
     inkscape:window-height="991"
     inkscape:window-x="-9"
     inkscape:window-y="-9"
     inkscape:window-maximized="1"
     inkscape:current-layer="layer1" /><defs
     id="defs2"><linearGradient
       id="linearGradient3910"
       inkscape:swatch="solid"><stop
         style="stop-color:#000000;stop-opacity:1;"
         offset="0"
         id="stop3908" /></linearGradient><linearGradient
       id="linearGradient3902"
       inkscape:swatch="solid"><stop
         style="stop-color:#000000;stop-opacity:1;"
         offset="0"
         id="stop3900" /></linearGradient><linearGradient
       id="linearGradient1908"
       inkscape:swatch="gradient"><stop
         style="stop-color:#412a2a;stop-opacity:1;"
         offset="0.83033931"
         id="stop1904" /><stop
         style="stop-color:#412a2a;stop-opacity:0;"
         offset="0.84431136"
         id="stop1906" /></linearGradient><rect
       x="20.732048"
       y="466.96471"
       width="356.39378"
       height="115.50713"
       id="rect857" /><rect
       x="13.821366"
       y="17.770327"
       width="368.24067"
       height="96.749559"
       id="rect721" /><rect
       x="18.757568"
       y="19.744808"
       width="363.22514"
       height="30.382957"
       id="rect495" /></defs><g
     inkscape:label="Layer 1"
     inkscape:groupmode="layer"
     id="layer1"><g
       id="rect386"><path
         style="color:#000000;fill:#c87137;stroke-width:2.64597;stroke-linejoin:round;-inkscape-stroke:none;paint-order:markers fill stroke"
         d="M 1.6582794,1.6582794 H 104.84566 V 157.76231 H 1.6582794 Z"
         id="path10168" /><path
         style="color:#000000;fill:#331f14;stroke-linejoin:round;-inkscape-stroke:none;paint-order:markers fill stroke"
         d="M 1.6582031,0.3359375 A 1.3231174,1.3231174 0 0 0 0.3359375,1.6582031 V 157.76172 a 1.3231174,1.3231174 0 0 0 1.3222656,1.32422 H 104.8457 a 1.3231174,1.3231174 0 0 0 1.32227,-1.32422 V 1.6582031 A 1.3231174,1.3231174 0 0 0 104.8457,0.3359375 Z M 2.9804688,2.9804688 H 103.52344 V 156.43945 H 2.9804688 Z"
         id="path10170" /></g><g
       aria-label="Bishop"
       transform="matrix(0.26458333,0,0,0.26458333,0,9.5250005)"
       id="text719"
       style="font-size:53.3333px;font-family:Broadway;-inkscape-font-specification:Broadway;text-align:center;letter-spacing:0px;word-spacing:0px;white-space:pre;stroke-width:0.999999"><path
         d="m 132.47367,27.217052 q 1.875,1.354165 2.78646,2.968748 0.9375,1.588541 0.9375,3.437498 0,2.99479 -2.31771,5.52083 -2.83854,3.124998 -8.54166,3.385414 -3.15104,0.15625 -8.85416,0.15625 h -12.89062 l 0.026,-1.223957 0.0521,-5.052081 0.0781,-9.94791 -0.10417,-10.833327 -0.0521,-8.4895785 h 13.95833 q 5.23437,0 7.18749,0.1822916 1.97917,0.1562499 4.0625,0.8072912 2.21354,0.7031246 4.14062,2.0572907 1.92708,1.354166 2.99479,2.968748 1.66667,2.52604 1.66667,5.651038 0,2.812499 -1.38021,5.078122 -1.38021,2.265624 -3.75,3.333332 z m -2.10937,0.677083 q -1.11979,0.234374 -2.08333,0.234374 -2.05729,0 -3.33334,-0.677083 -1.24999,-0.677082 -1.24999,-1.770832 0,-0.598958 0.41666,-0.598958 0.3125,0 0.85938,0.260417 1.79687,0.911457 3.90624,0.911457 3.82813,0 5.78125,-3.020831 1.25,-1.901041 1.25,-4.348956 0,-3.723956 -2.89062,-6.380204 -2.05729,-1.927083 -4.92188,-2.786457 -2.83854,-0.8593745 -7.13541,-0.8593745 h -1.43229 l -0.15625,15.6249905 0.15625,16.484365 2.34375,0.02604 q 3.88021,0 6.04166,-0.416666 2.16146,-0.442708 3.59375,-1.484375 2.96875,-2.187498 2.96875,-5.52083 0,-1.692707 -1.04167,-3.098956 -1.01562,-1.432291 -3.07291,-2.578123 z"
         id="path10141" /><path
         d="m 148.46325,5.1337314 q 6.87499,0 6.87499,3.5937479 0,1.7447907 -1.82291,2.7343737 -1.79688,0.963541 -5.07813,0.963541 -6.53645,0 -6.53645,-3.6979147 0,-3.5416646 6.5625,-3.5937479 z m 6.74478,9.1145776 v 0.755208 l -0.0521,4.062498 -0.0521,6.302079 -0.0781,9.583328 0.10417,5.390622 0.0521,2.343748 h -13.38541 l 0.13021,-9.583327 0.0781,-8.463537 -0.0521,-4.453122 -0.0781,-4.947914 0.026,-0.989583 z"
         id="path10143" /><path
         d="m 160.91115,37.868087 q 0.52084,0 1.32813,0.781249 1.30208,1.223958 3.69791,2.109374 2.39583,0.859375 4.47917,0.859375 0.96354,0 1.43229,-0.3125 0.49479,-0.338542 0.49479,-0.963541 0,-0.625 -0.67708,-1.484374 -0.65105,-0.885417 -2.94271,-3.359373 -5.59896,-5.98958 -7.26562,-8.411454 -1.64063,-2.447915 -1.64063,-4.687497 0,-1.953124 1.1198,-3.723956 1.14583,-1.796874 3.17708,-3.046873 3.35937,-2.083332 7.70833,-2.083332 3.20312,0 6.77082,1.354166 2.78646,1.067707 2.78646,2.317707 0,0.390624 -0.33854,0.703124 -0.3125,0.3125 -0.72917,0.3125 -0.49479,0 -1.84895,-0.963541 -2.76042,-1.979166 -6.01562,-1.979166 -1.14584,0 -1.7448,0.364583 -0.57291,0.364584 -0.57291,1.119791 0,0.885417 1.06771,2.239582 1.09375,1.354166 4.40103,4.583331 3.22917,3.15104 4.08854,4.140623 0.88542,0.963541 1.69271,2.239582 1.38021,2.187498 1.38021,4.73958 0,4.010414 -3.88021,6.484371 -3.17708,2.057291 -7.81249,2.057291 -5.15625,0 -9.14062,-2.291666 -1.17188,-0.703124 -1.61458,-1.145832 -0.41667,-0.442708 -0.41667,-0.963541 0,-0.963541 1.01562,-0.989583 z"
         id="path10145" /><path
         d="m 200.33822,17.920182 q 2.5,-1.692707 4.08854,-2.473957 3.90625,-1.90104 7.73437,-1.90104 2.76041,0 4.97395,0.989582 2.21354,0.989583 3.28125,2.708332 1.27604,2.057291 1.27604,7.552079 l -0.0521,3.880206 -0.0521,5.130205 0.18229,8.880203 h -13.35937 l 0.10417,-16.09374 -0.13021,-8.229162 q -0.26042,-1.354166 -1.92708,-1.354166 -1.22396,0 -2.76042,0.755208 -1.51041,0.729166 -3.35937,2.239582 l -0.0521,6.536455 0.10416,11.328118 0.0781,4.817705 h -13.41145 l 0.0521,-10.989576 V 19.170181 l -0.0781,-10.8333265 0.026,-1.197916 h 13.28124 v 0.7291663 l 0.026,4.4531222 -0.026,2.760415 z"
         id="path10147" /><path
         d="m 240.49444,13.545185 q 4.19271,0 7.9427,2.317707 3.46354,2.135415 5.28646,5.83333 1.61458,3.255206 1.61458,6.901037 0,2.499999 -0.96354,5.026039 -0.9375,2.52604 -2.57812,4.479164 -2.29167,2.68229 -5.59896,4.036456 -2.70833,1.119791 -5.65104,1.119791 -4.92187,0 -8.85416,-2.916665 -3.07291,-2.239582 -4.66145,-5.755205 -1.32813,-2.968748 -1.32813,-6.276038 0,-6.45833 4.6875,-10.72916 4.40104,-3.958331 10.10416,-4.036456 z m -0.75521,1.692707 -0.0781,26.249984 q 0.80729,0.05208 1.11979,0.05208 3.61979,0 6.92708,-2.031249 3.17708,-1.979166 4.76562,-5.260414 1.25,-2.604165 1.25,-5.729163 0,-6.276038 -4.63541,-10.182285 -3.75,-3.15104 -8.15104,-3.15104 -0.36458,0 -1.19792,0.05208 z"
         id="path10149" /><path
         d="M 259.42672,14.248309 H 272.734 l -0.0781,3.411457 q 2.6302,-2.265624 4.8177,-3.177082 2.1875,-0.937499 4.81771,-0.937499 5.39062,0 8.74999,4.010414 3.02083,3.593748 3.02083,9.14062 0,5.911454 -3.46354,9.713535 -3.20312,3.515623 -7.99478,3.515623 -2.52604,0 -5.02604,-1.041666 -2.5,-1.067707 -4.97396,-3.177081 l 0.026,0.963541 0.026,3.411456 0.0521,2.83854 0.026,0.963541 h -13.30728 l 0.026,-7.42187 0.0521,-6.901038 -0.0781,-14.401033 z m 13.22916,5.755205 v 13.593742 q 1.90104,1.770832 3.41145,2.68229 1.51042,0.885416 2.63021,0.885416 1.04167,0 1.22396,-1.015624 0.0521,-0.338542 0.0781,-3.515623 V 19.899348 q 0,-2.265624 -0.0781,-2.708332 -0.18229,-1.093749 -1.09375,-1.093749 -1.17188,0 -2.83854,1.067707 -1.66667,1.041666 -3.33333,2.83854 z"
         id="path10151" /></g><g
       aria-label="Description:"
       id="text733"
       style="font-size:7.05556px;font-family:Broadway;-inkscape-font-specification:Broadway;stroke-width:0.264583"><path
         d="m 4.7016462,116.51791 h 1.8121214 q 0.7096901,0 1.0679802,0.0689 0.8853902,0.16881 1.4297156,0.94396 0.4271921,0.60978 0.4271921,1.34359 0,0.74758 -0.4409725,1.36081 -0.530545,0.74069 -1.3849293,0.91984 -0.2204862,0.0448 -0.3927411,0.0551 -0.1722549,0.0103 -0.7579215,0.0103 H 4.7119815 l 0.010335,-2.27377 z m 2.1049547,0.22048 -0.017226,2.76986 0.020671,1.49173 q 0.4616431,-0.003 0.6614587,-0.0344 0.2032608,-0.0345 0.4650882,-0.14814 0.6166725,-0.26527 0.9680725,-0.85438 0.3066137,-0.50643 0.3066137,-1.09555 0,-0.64078 -0.3617353,-1.17822 -0.6442333,-0.95429 -1.9085841,-0.95429 z"
         id="path10092" /><path
         d="m 11.3748,119.44969 v 1.06798 q 0,0.31006 0.0379,0.39274 0.07235,0.15847 0.341065,0.15847 0.399631,0 0.788927,-0.21704 0.392742,-0.22049 0.678685,-0.60634 0.09302,-0.12746 0.134358,-0.16192 0.04134,-0.0344 0.08957,-0.0344 0.05857,0 0.09646,0.0448 0.0379,0.0413 0.0379,0.1068 0,0.14469 -0.230822,0.38929 -0.303168,0.31351 -0.754476,0.50988 -0.447863,0.19637 -0.875055,0.19637 -0.733806,0 -1.295357,-0.49265 -0.327284,-0.28939 -0.5029839,-0.71314 -0.1550294,-0.37207 -0.1550294,-0.74414 0,-0.35829 0.1378039,-0.71658 0.1378034,-0.36173 0.3789604,-0.62356 0.279053,-0.30661 0.661459,-0.47542 0.375516,-0.16537 0.785482,-0.16537 0.637343,0 1.154108,0.37552 0.806153,0.58566 0.799263,1.69843 h -0.802708 l -1.033529,0.003 z m 0.881945,-0.22738 v -1.00597 q -0.0069,-0.32384 -0.01378,-0.38585 -0.0069,-0.0655 -0.04823,-0.12058 -0.09646,-0.13436 -0.392742,-0.13436 -0.303168,0 -0.37896,0.15503 -0.04823,0.093 -0.04823,0.48576 v 1.00597 l 0.420302,0.0138 z"
         id="path10094" /><path
         d="m 14.161884,120.58312 q 0.0689,0 0.1757,0.10336 0.172254,0.16192 0.489203,0.27905 0.316949,0.11369 0.592557,0.11369 0.127469,0 0.189481,-0.0413 0.06546,-0.0448 0.06546,-0.12747 0,-0.0827 -0.08957,-0.19637 -0.08613,-0.11714 -0.389296,-0.44442 -0.740696,-0.79237 -0.961182,-1.11277 -0.217041,-0.32384 -0.217041,-0.62011 0,-0.25839 0.148139,-0.49265 0.151584,-0.23772 0.420302,-0.40308 0.444417,-0.27561 1.019749,-0.27561 0.423747,0 0.895725,0.17915 0.368625,0.14125 0.368625,0.30661 0,0.0517 -0.04479,0.093 -0.04134,0.0413 -0.09646,0.0413 -0.06546,0 -0.244602,-0.12747 -0.36518,-0.26183 -0.795817,-0.26183 -0.151584,0 -0.230822,0.0482 -0.07579,0.0482 -0.07579,0.14813 0,0.11714 0.141249,0.29628 0.144694,0.17915 0.582222,0.60634 0.427192,0.41686 0.54088,0.54777 0.117133,0.12747 0.223931,0.29628 0.182591,0.28939 0.182591,0.62701 0,0.53054 -0.51332,0.85783 -0.420302,0.27216 -1.033529,0.27216 -0.68213,0 -1.20923,-0.30317 -0.155029,-0.093 -0.213596,-0.15158 -0.05512,-0.0586 -0.05512,-0.12747 0,-0.12747 0.134359,-0.13092 z"
         id="path10096" /><path
         d="m 19.236512,118.20601 v 2.30132 l -0.0034,0.22049 q 0,0.21359 0.05168,0.28594 0.05512,0.0689 0.217041,0.0689 0.406522,0 0.799263,-0.24804 0.392741,-0.2515 0.640788,-0.6718 0.07579,-0.12747 0.148139,-0.12747 0.05168,0 0.09302,0.0482 0.04479,0.0448 0.04479,0.0965 0,0.12402 -0.199816,0.3514 -0.199815,0.22393 -0.465088,0.40307 -0.54088,0.36174 -1.157553,0.36174 -0.844049,0 -1.395264,-0.52366 -0.627008,-0.58911 -0.627008,-1.44349 0,-0.88195 0.661459,-1.46761 0.55466,-0.4961 1.367703,-0.4961 0.647679,0 1.133438,0.30662 0.206705,0.13091 0.337619,0.28249 0.130914,0.14814 0.130914,0.2515 0,0.0517 -0.0379,0.0896 -0.0379,0.0344 -0.09302,0.0344 -0.07235,0 -0.18259,-0.16537 -0.158474,-0.23082 -0.499539,-0.39963 -0.341065,-0.17225 -0.644233,-0.17225 -0.203261,0 -0.261828,0.11369 -0.05857,0.11369 -0.05857,0.49954 z"
         id="path10098" /><path
         d="m 23.353405,118.5264 -0.0069,1.32292 0.01378,1.37115 H 21.59296 l 0.0034,-0.18948 0.0034,-0.7028 0.01034,-1.26435 -0.01378,-1.4056 -0.0034,-0.19982 h 1.76389 v 0.70969 q 0.396186,-0.4203 0.551215,-0.53055 0.358291,-0.25149 0.67524,-0.25149 0.192925,0 0.316949,0.0827 0.127468,0.0827 0.127468,0.21015 0,0.0999 -0.07579,0.16536 -0.07579,0.0655 -0.18948,0.0655 -0.07235,0 -0.16192,-0.0413 -0.151584,-0.0724 -0.251492,-0.0724 -0.248047,0 -0.478869,0.16881 -0.230821,0.16881 -0.516764,0.56155 z"
         id="path10100" /><path
         d="m 26.202501,116.25264 q 0.909506,0 0.909506,0.47542 0,0.23082 -0.241157,0.36173 -0.237712,0.12747 -0.671794,0.12747 -0.86472,0 -0.86472,-0.4892 0,-0.46853 0.868165,-0.47542 z m 0.89228,1.20578 v 0.0999 l -0.0069,0.53743 -0.0069,0.83372 -0.01034,1.26779 0.01378,0.71314 0.0069,0.31006 h -1.77078 l 0.01722,-1.2678 0.01034,-1.11966 -0.0069,-0.58911 -0.01034,-0.65457 0.0034,-0.13091 z"
         id="path10102" /><path
         d="m 27.911269,117.45842 h 1.760445 l -0.01034,0.45131 q 0.347955,-0.29973 0.637343,-0.4203 0.289388,-0.12403 0.637343,-0.12403 0.713136,0 1.157553,0.53055 0.399631,0.47542 0.399631,1.20923 0,0.78203 -0.458198,1.28502 -0.423747,0.46509 -1.057645,0.46509 -0.334174,0 -0.664903,-0.13781 -0.33073,-0.14125 -0.658014,-0.4203 l 0.0034,0.12747 0.0034,0.45131 0.0069,0.37551 0.0034,0.12747 h -1.760445 l 0.0034,-0.98185 0.0069,-0.91295 -0.01034,-1.90514 z m 1.75011,0.76137 v 1.79834 q 0.251492,0.23426 0.451308,0.35484 0.199816,0.11714 0.347955,0.11714 0.137804,0 0.161919,-0.13436 0.0069,-0.0448 0.01034,-0.46509 v -1.68465 q 0,-0.29973 -0.01034,-0.35829 -0.02412,-0.1447 -0.144694,-0.1447 -0.155029,0 -0.375515,0.14125 -0.220487,0.1378 -0.440973,0.37552 z"
         id="path10104" /><path
         d="m 34.84625,116.24575 -0.0379,1.11276 -0.0034,0.1068 q 0.299723,0 0.544325,-0.0241 0.04134,-0.003 0.07235,-0.003 0.151585,0 0.151585,0.1378 0,0.12747 -0.158475,0.12747 -0.04823,0 -0.120578,-0.007 -0.272163,-0.0207 -0.389296,-0.0207 h -0.09991 l -0.0034,0.66835 0.01378,1.34014 0.01033,0.71658 q 0,0.2515 0.0379,0.3514 0.0379,0.0999 0.130913,0.0999 0.124024,0 0.265273,-0.14469 0.137804,-0.1447 0.217041,-0.35485 0.07235,-0.19981 0.172255,-0.19981 0.117133,0 0.117133,0.13091 0,0.13091 -0.117133,0.32728 -0.117133,0.19293 -0.282498,0.33762 -0.406522,0.35485 -1.0542,0.35485 -0.609782,0 -0.943957,-0.36863 -0.172255,-0.18603 -0.237712,-0.41341 -0.06546,-0.23082 -0.06546,-0.63734 v -0.25838 l 0.0034,-0.72692 v -1.23334 q -0.04823,-0.003 -0.0689,-0.003 -0.03445,0 -0.137804,0.007 -0.08613,0.007 -0.144694,0.007 -0.16881,0 -0.16881,-0.12747 0,-0.12402 0.161919,-0.12402 0.07579,0 0.106799,0.003 l 0.251492,0.0172 v -0.3893 q 1.019749,-0.36862 1.77767,-0.80959 z"
         id="path10106" /><path
         d="m 36.882303,116.25264 q 0.909506,0 0.909506,0.47542 0,0.23082 -0.241157,0.36173 -0.237712,0.12747 -0.671794,0.12747 -0.86472,0 -0.86472,-0.4892 0,-0.46853 0.868165,-0.47542 z m 0.89228,1.20578 v 0.0999 l -0.0069,0.53743 -0.0069,0.83372 -0.01034,1.26779 0.01378,0.71314 0.0069,0.31006 h -1.77078 l 0.01723,-1.2678 0.01034,-1.11966 -0.0069,-0.58911 -0.01034,-0.65457 0.0034,-0.13091 z"
         id="path10108" /><path
         d="m 40.313622,117.3654 q 0.554661,0 1.050755,0.30662 0.458198,0.28249 0.699355,0.7717 0.213596,0.43064 0.213596,0.91295 0,0.33073 -0.127469,0.6649 -0.124023,0.33418 -0.341064,0.59256 -0.303169,0.35484 -0.740696,0.53399 -0.358291,0.14814 -0.747587,0.14814 -0.651123,0 -1.171333,-0.38585 -0.406521,-0.29628 -0.616672,-0.76137 -0.1757,-0.39274 -0.1757,-0.83027 0,-0.85438 0.620117,-1.41938 0.582222,-0.52365 1.336698,-0.53399 z m -0.09991,0.22393 -0.01034,3.47266 q 0.106798,0.007 0.148139,0.007 0.478869,0 0.916396,-0.26872 0.420302,-0.26182 0.630453,-0.69591 0.165365,-0.3445 0.165365,-0.75792 0,-0.83027 -0.613228,-1.34703 -0.496094,-0.41686 -1.078315,-0.41686 -0.04823,0 -0.158475,0.007 z"
         id="path10110" /><path
         d="m 44.582098,117.45842 v 0.47887 q 0.403077,-0.28594 0.788927,-0.42719 0.385851,-0.1447 0.751032,-0.1447 0.489204,0 0.826823,0.22393 0.254937,0.16881 0.341065,0.42031 0.08957,0.24804 0.08957,0.81304 l -0.0069,1.59508 0.01034,0.80271 h -1.753555 l 0.01378,-0.95774 0.01033,-0.7028 -0.0034,-1.06109 q -0.0034,-0.36863 -0.01033,-0.43753 -0.0034,-0.0724 -0.03101,-0.12747 -0.05512,-0.11024 -0.237712,-0.11024 -0.168809,0 -0.36518,0.0965 -0.19637,0.0965 -0.423747,0.28939 l -0.0034,0.14125 -0.0069,0.96807 -0.0069,0.7407 0.01034,1.01286 0.0034,0.14814 h -1.760445 l 0.01034,-1.35048 0.01034,-0.89228 -0.01034,-0.7717 -0.01034,-0.74759 z"
         id="path10112" /><path
         d="m 49.067614,119.7942 q 0.458198,0 0.73725,0.20326 0.279053,0.20326 0.279053,0.54432 0,0.34796 -0.282498,0.56844 -0.282498,0.21704 -0.733805,0.21704 -0.568442,0 -0.85094,-0.31694 -0.165364,-0.18604 -0.165364,-0.43409 0,-0.3514 0.275608,-0.56155 0.275607,-0.21359 0.740696,-0.22048 z m 0,-1.97404 q 0.458198,0 0.73725,0.20326 0.279053,0.20326 0.279053,0.54432 0,0.34796 -0.282498,0.56844 -0.282498,0.21704 -0.733805,0.21704 -0.568442,0 -0.85094,-0.31695 -0.165364,-0.18603 -0.165364,-0.43408 0,-0.3514 0.275608,-0.56155 0.275607,-0.21359 0.740696,-0.22048 z"
         id="path10114" /></g><g
       aria-label="Move any bishop, and discard this card."
       transform="matrix(0.27431353,0,0,0.27431353,-0.8676689,-4.702566)"
       id="text855"
       style="font-size:23.1487px;font-family:'Bookman Old Style';-inkscape-font-specification:'Bookman Old Style';white-space:pre;stroke-width:0.999999"><path
         d="m 21.817517,468.81072 h 4.984657 l 4.656867,12.4899 4.532534,-12.4899 h 4.815111 v 0.96076 h -0.406911 q -0.7347,0 -0.994671,0.12433 -0.248667,0.12434 -0.395607,0.44082 -0.14694,0.30518 -0.14694,1.01728 v 10.39883 q 0,0.98337 0.11303,1.27725 0.124334,0.29388 0.395608,0.45212 0.282577,0.14694 1.02858,0.14694 h 0.406911 v 0.94946 h -6.02454 v -0.94946 h 0.429517 q 0.576457,0 0.836428,-0.0904 0.271273,-0.0904 0.44082,-0.29388 0.180849,-0.21475 0.203455,-0.44082 0.05651,-0.46342 0.05651,-0.72339 v -11.60826 l -5.1429,14.10624 h -1.119004 l -5.188112,-13.90279 v 11.17875 q 0,0.84773 0.14694,1.15291 0.14694,0.29388 0.452123,0.46343 0.316486,0.15824 1.119004,0.15824 h 0.361699 v 0.94946 h -5.561114 v -0.94946 h 0.316486 q 0.802519,0 1.141611,-0.16955 0.350395,-0.16954 0.497335,-0.47473 0.14694,-0.31648 0.14694,-1.23203 v -10.2971 q 0,-0.85904 -0.124333,-1.13031 -0.124334,-0.28258 -0.418214,-0.41822 -0.282577,-0.13563 -1.017277,-0.13563 h -0.542548 z"
         id="path9959" /><path
         d="m 48.571899,473.39976 q 1.661553,0 2.870982,0.68949 1.220732,0.68949 1.921523,2.01195 0.700791,1.32246 0.700791,3.01792 0,1.69546 -0.723397,3.01792 -0.712094,1.32246 -1.955433,2.02325 -1.232035,0.68949 -2.950102,0.68949 -2.735345,0 -4.11432,-1.70676 -1.367673,-1.70677 -1.367673,-4.0126 0,-1.68415 0.712094,-2.98401 0.712094,-1.31115 1.989342,-2.02325 1.28855,-0.7234 2.916193,-0.7234 z m -0.09042,1.0964 q -1.288551,0 -2.181494,1.01728 -1.130308,1.26594 -1.130308,3.6848 0,2.32844 0.960762,3.54917 0.870337,1.08509 2.362343,1.08509 0.960761,0 1.706764,-0.50863 0.757307,-0.50864 1.220733,-1.61634 0.463426,-1.11901 0.463426,-2.62232 0,-1.4694 -0.497336,-2.63361 -0.384304,-0.92686 -1.164216,-1.4355 -0.76861,-0.51994 -1.740674,-0.51994 z"
         id="path9961" /><path
         d="m 54.992046,473.67104 h 5.176809 v 0.94946 h -0.316486 q -0.644275,0 -0.802518,0.0452 -0.226062,0.0678 -0.339092,0.21476 -0.113031,0.14694 -0.113031,0.35039 0,0.28258 0.248667,0.91555 l 2.577102,6.43145 2.49798,-6.43145 q 0.237364,-0.62167 0.237364,-0.90424 0,-0.29388 -0.226061,-0.45213 -0.226062,-0.16954 -0.813822,-0.16954 h -0.542547 v -0.94946 h 4.464715 v 0.94946 q -0.463426,0.0113 -0.779912,0.14694 -0.305183,0.13563 -0.486033,0.35039 -0.169546,0.21476 -0.519941,1.02858 l -3.605682,8.4321 h -1.356369 l -3.628287,-8.62425 q -0.226062,-0.53124 -0.497336,-0.87034 -0.180849,-0.21476 -0.486032,-0.33909 -0.29388,-0.12433 -0.689488,-0.12433 z"
         id="path9963" /><path
         d="m 77.541684,481.66231 0.723397,0.58776 q -0.825124,0.98337 -1.605037,1.55983 -0.768609,0.57646 -1.458096,0.80252 -0.689488,0.23736 -1.61634,0.23736 -1.661553,0 -2.825769,-0.67818 -1.333763,-0.77992 -2.045857,-2.03456 -0.712094,-1.25464 -0.712094,-2.9614 0,-1.78589 0.689488,-3.05183 0.689487,-1.26595 1.921523,-1.98935 1.243338,-0.7347 2.870981,-0.7347 1.209429,0 2.102372,0.38431 0.892943,0.373 1.514612,1.14161 0.62167,0.75731 0.904247,1.74067 0.158243,0.57646 0.180849,1.49201 h -7.991275 q -0.03391,0.55385 -0.03391,0.82512 0,1.42419 0.497336,2.5432 0.497335,1.1077 1.311157,1.63894 0.825124,0.51994 1.865007,0.51994 0.88164,0 1.706765,-0.40691 0.825125,-0.41821 2.000644,-1.61634 z m -1.446793,-4.56644 q -0.169546,-1.03988 -0.486033,-1.53722 -0.305183,-0.49733 -0.88164,-0.79121 -0.565153,-0.29388 -1.277247,-0.29388 -0.712094,0 -1.333763,0.29388 -0.621669,0.29388 -1.039883,0.81382 -0.406911,0.51994 -0.712094,1.51461 z"
         id="path9965" /><path
         d="m 95.434455,478.03403 v -1.23204 q 0,-1.25464 -0.700791,-1.78589 -0.700791,-0.54254 -1.978038,-0.54254 -0.632973,0 -1.107702,0.15824 -0.474729,0.14694 -0.768609,0.41821 -0.282577,0.25997 -0.418214,0.59907 -0.05652,0.12433 -0.271274,0.96076 -0.25997,1.01728 -1.051186,1.01728 -0.452123,0 -0.7347,-0.29388 -0.271274,-0.30519 -0.271274,-0.81383 0,-0.746 0.553851,-1.45809 0.553851,-0.7234 1.684159,-1.18683 1.14161,-0.47473 2.690132,-0.47473 1.446794,0 2.475373,0.45213 1.02858,0.44082 1.514613,1.27725 0.339092,0.57645 0.339092,2.10237 v 4.35168 q 0,0.92685 0.05652,1.20943 0.124334,0.48603 0.429517,0.7347 0.316486,0.23737 0.813822,0.23737 0.519941,0 1.243338,-0.24867 v 0.98337 q -0.938155,0.27127 -1.684158,0.27127 -0.802519,0 -1.356369,-0.22606 -0.542548,-0.22606 -0.892943,-0.65558 -0.350396,-0.44082 -0.452123,-1.03988 -1.35637,1.06249 -2.452768,1.492 -1.096398,0.42952 -2.215403,0.42952 -1.559825,0 -2.531889,-0.84773 -0.972065,-0.84773 -0.972065,-1.98934 0,-0.68949 0.350396,-1.31116 0.361698,-0.62167 1.085095,-1.0964 0.7347,-0.47473 2.294524,-0.83643 1.559825,-0.36169 4.329079,-0.65557 z m 0,0.98336 q -2.622314,0.38431 -3.243983,0.53125 -1.232036,0.28258 -1.76328,0.62167 -0.531245,0.33909 -0.757306,0.7347 -0.226062,0.3843 -0.226062,0.82512 0,0.44082 0.248668,0.85904 0.259971,0.40691 0.723397,0.64427 0.463426,0.23737 0.983367,0.23737 0.7347,0 1.661553,-0.3504 0.926852,-0.35039 2.373646,-1.36767 z"
         id="path9967" /><path
         d="m 100.7469,475.29868 v -0.94946 q 1.00597,-0.11303 1.50331,-0.27127 0.49734,-0.15824 1.43549,-0.67819 h 0.81382 v 2.14759 q 1.49201,-1.25464 2.54319,-1.69546 1.06249,-0.45213 2.14759,-0.45213 0.92685,0 1.63894,0.31649 0.7121,0.30518 1.15292,0.83643 0.45212,0.53124 0.59906,1.20943 0.0904,0.41821 0.0904,1.26594 v 4.97336 q 0,0.89294 0.12433,1.15291 0.13564,0.24867 0.41821,0.3617 0.28258,0.11303 1.39028,0.11303 v 0.94946 h -5.82108 v -0.94946 h 0.31648 q 0.81383,0 1.10771,-0.14694 0.29388,-0.14694 0.41821,-0.42952 0.13564,-0.28257 0.13564,-1.15291 v -4.15953 q 0,-1.28855 -0.21476,-1.78589 -0.20346,-0.49734 -0.7121,-0.80252 -0.49733,-0.31648 -1.26594,-0.31648 -0.91555,0 -1.95543,0.47472 -1.03989,0.46343 -2.01195,1.37898 v 5.21072 q 0,0.88164 0.12433,1.17552 0.13564,0.29388 0.42952,0.44082 0.20346,0.11303 1.0851,0.11303 h 0.32779 v 0.94946 h -5.82109 v -0.94946 h 0.28258 q 0.83643,0 1.14161,-0.13564 0.30518,-0.14694 0.42952,-0.50864 0.0678,-0.18085 0.0678,-1.24333 v -6.44276 z"
         id="path9969" /><path
         d="m 115.0566,473.67104 h 5.49329 v 0.94946 h -0.45212 q -0.64428,0 -0.76861,0.0339 -0.14694,0.0452 -0.24867,0.19215 -0.10173,0.13564 -0.10173,0.35039 0,0.30519 0.30519,1.02858 l 2.62231,6.16018 2.43016,-5.8889 q 0.42952,-1.03989 0.42952,-1.37898 0,-0.25997 -0.19215,-0.373 -0.19215,-0.12433 -0.87034,-0.12433 h -0.53124 v -0.94946 h 4.62295 v 0.94946 h -0.27127 q -0.67818,0 -0.88164,0.0904 -0.20345,0.0904 -0.39561,0.373 -0.19215,0.27128 -0.61036,1.25464 l -4.14823,9.66414 q -0.45213,1.03988 -1.00598,1.92152 -0.55385,0.89294 -1.39027,1.37897 -0.83643,0.48604 -1.84241,0.48604 -1.16421,0 -1.865,-0.53125 -0.59907,-0.45212 -0.59907,-1.13031 0,-0.41821 0.25997,-0.70079 0.25997,-0.27127 0.61037,-0.27127 0.27127,0 0.50864,0.11303 0.14694,0.0565 0.61036,0.47473 0.56516,0.49733 0.79122,0.61037 0.23736,0.11303 0.46343,0.11303 0.46342,0 0.91555,-0.31649 0.45212,-0.31649 0.7686,-0.89294 0.45213,-0.82513 0.74601,-1.54852 l 0.46342,-1.13031 -3.73001,-8.35298 q -0.39561,-0.88164 -0.66688,-1.18682 -0.27128,-0.30518 -0.54255,-0.373 -0.14694,-0.0452 -0.92685,-0.0452 z"
         id="path9971" /><path
         d="m 135.72992,469.88451 v -0.93816 q 0.74601,-0.0565 1.43549,-0.27127 0.70079,-0.21476 1.55983,-0.67819 h 0.82512 v 6.89488 q 0.99467,-0.746 2.04586,-1.119 1.05119,-0.37301 2.14758,-0.37301 1.26595,0 2.33974,0.67819 1.07379,0.67818 1.68416,1.92152 0.62167,1.23204 0.62167,2.9162 0,2.64492 -1.54852,4.35168 -1.43549,1.58243 -3.63959,1.58243 -1.32246,0 -2.36235,-0.55385 -0.76861,-0.40691 -1.492,-1.25464 l -0.62167,1.53722 h -1.05119 v -14.694 z m 3.82044,6.12627 v 4.35168 q 0,1.02858 0.14694,1.44679 0.14694,0.40691 0.59907,0.84773 0.46342,0.42952 1.07379,0.68949 0.62167,0.24867 1.27725,0.24867 1.00597,0 1.83109,-0.53124 0.82513,-0.53125 1.29986,-1.57113 0.47473,-1.03989 0.47473,-2.49798 0,-2.04586 -1.00598,-3.27789 -0.80252,-1.01728 -2.24931,-1.01728 -0.746,0 -1.51461,0.28258 -0.76861,0.27127 -1.93283,1.02858 z"
         id="path9973" /><path
         d="m 153.06884,468.30208 q 0.54255,0 0.92685,0.3843 0.38431,0.373 0.38431,0.91555 0,0.54255 -0.38431,0.92685 -0.3843,0.38431 -0.92685,0.38431 -0.54255,0 -0.92685,-0.38431 -0.38431,-0.3843 -0.38431,-0.92685 0,-0.54255 0.38431,-0.91555 0.3843,-0.3843 0.92685,-0.3843 z m -2.88229,6.9966 v -0.93815 q 0.93816,-0.11303 1.57113,-0.31649 0.64428,-0.20346 1.4581,-0.64428 h 0.82512 v 9.06507 q 0,0.47473 0.13564,0.7121 0.13564,0.23736 0.373,0.35039 0.24867,0.10173 0.89295,0.10173 h 0.53124 v 0.94946 h -5.78718 v -0.94946 h 0.46343 q 0.75731,0 1.01728,-0.13564 0.25997,-0.13563 0.3617,-0.3843 0.11303,-0.24867 0.11303,-1.16422 v -6.64621 z"
         id="path9975" /><path
         d="m 164.86926,473.67104 h 0.79121 l 1.01728,3.45874 -1.01728,0.33909 q -0.61036,-1.39028 -1.71807,-2.18149 -1.09639,-0.80252 -2.2267,-0.80252 -0.87034,0 -1.41289,0.42952 -0.54254,0.41821 -0.54254,0.97206 0,0.51994 0.3956,0.89294 0.38431,0.38431 1.72937,0.87034 l 2.2041,0.77991 q 1.86501,0.66689 2.5432,1.42419 0.66688,0.76861 0.66688,1.74068 0,0.82512 -0.49734,1.59373 -0.49733,0.75731 -1.44679,1.20943 -0.93816,0.45212 -2.15889,0.45212 -1.89892,0 -3.25529,-1.08509 l -0.23736,0.81382 h -0.80252 l -1.41288,-3.69611 1.02858,-0.40691 q 1.02858,1.62764 1.94413,2.30583 1.27724,0.96076 2.75795,0.96076 0.98336,0 1.61634,-0.51994 0.63297,-0.53125 0.63297,-1.17552 0,-0.53125 -0.39561,-0.97207 -0.40691,-0.42951 -1.55982,-0.83642 l -2.61101,-0.94946 q -1.68416,-0.61037 -2.33974,-1.33377 -0.65558,-0.72339 -0.65558,-1.66155 0,-1.14161 1.06249,-2.01195 1.07379,-0.88164 2.72404,-0.88164 0.85904,0 1.53722,0.22607 0.67818,0.21475 1.33376,0.72339 z"
         id="path9977" /><path
         d="m 169.25485,469.91842 v -0.97207 q 1.0964,-0.14694 1.70677,-0.33909 0.61036,-0.20345 1.27725,-0.61037 h 0.88164 v 7.47134 q 1.27724,-1.07379 2.41885,-1.57113 1.14162,-0.49734 2.1815,-0.49734 1.51461,0 2.49798,0.90425 0.97206,0.90425 0.97206,2.2041 v 5.54981 q 0,0.82513 0.12434,1.0851 0.13563,0.24866 0.44082,0.373 0.30518,0.11303 1.36767,0.11303 v 0.94946 h -5.83239 v -0.94946 h 0.42952 q 0.82512,0 1.08509,-0.12433 0.25997,-0.13564 0.37301,-0.42952 0.12433,-0.30518 0.12433,-1.24334 v -3.85435 q 0,-1.27725 -0.0904,-1.66155 -0.16954,-0.65558 -0.70079,-1.05119 -0.53124,-0.39561 -1.35637,-0.39561 -0.92685,0 -1.94412,0.46343 -1.00598,0.45212 -2.09107,1.36767 v 5.66284 q 0,0.63298 0.11303,0.84774 0.11303,0.21475 0.373,0.31648 0.25997,0.10173 1.03988,0.10173 h 0.46343 v 0.94946 h -5.855 v -0.94946 h 0.3504 q 0.82512,0 1.19813,-0.20346 0.20345,-0.10172 0.29388,-0.3956 0.0904,-0.29388 0.0904,-1.62765 v -11.48392 z"
         id="path9979" /><path
         d="m 190.24466,473.39976 q 1.66155,0 2.87098,0.68949 1.22074,0.68949 1.92153,2.01195 0.70079,1.32246 0.70079,3.01792 0,1.69546 -0.7234,3.01792 -0.71209,1.32246 -1.95543,2.02325 -1.23204,0.68949 -2.95011,0.68949 -2.73534,0 -4.11432,-1.70676 -1.36767,-1.70677 -1.36767,-4.0126 0,-1.68415 0.7121,-2.98401 0.71209,-1.31115 1.98934,-2.02325 1.28855,-0.7234 2.91619,-0.7234 z m -0.0904,1.0964 q -1.28855,0 -2.1815,1.01728 -1.1303,1.26594 -1.1303,3.6848 0,2.32844 0.96076,3.54917 0.87033,1.08509 2.36234,1.08509 0.96076,0 1.70676,-0.50863 0.75731,-0.50864 1.22074,-1.61634 0.46342,-1.11901 0.46342,-2.62232 0,-1.4694 -0.49733,-2.63361 -0.38431,-0.92686 -1.16422,-1.4355 -0.76861,-0.51994 -1.74067,-0.51994 z"
         id="path9981" /><path
         d="m 197.38821,475.28738 v -0.92685 q 0.84773,0 1.50331,-0.21476 0.65557,-0.21476 1.43549,-0.74601 h 0.89294 v 1.88762 q 1.41288,-1.11901 2.35104,-1.50331 0.93816,-0.38431 1.87631,-0.38431 1.93283,0 3.2892,1.51462 1.36767,1.51461 1.36767,3.94477 0,2.69013 -1.54852,4.4082 -1.41289,1.58243 -3.63959,1.58243 -1.10771,0 -2.07977,-0.41821 -0.70079,-0.29388 -1.61634,-1.05119 v 3.71871 q 0,0.83643 0.0452,0.98337 0.0565,0.21476 0.22606,0.3617 0.16955,0.14694 0.42952,0.19215 0.19215,0.0339 1.28855,0.0339 v 0.94946 h -5.82108 v -0.94946 h 0.50864 q 0.77991,0 1.00597,-0.12433 0.23736,-0.11303 0.35039,-0.3617 0.0678,-0.19215 0.0678,-1.17552 v -11.72129 z m 3.83174,1.16422 v 3.88825 q 0,0.76861 0.0904,1.14161 0.13564,0.57646 0.51995,1.03989 0.3956,0.46342 1.06249,0.79121 0.67818,0.32779 1.41288,0.32779 1.4694,0 2.54319,-1.1077 1.0851,-1.1077 1.0851,-3.35701 0,-2.10238 -0.89295,-3.24399 -0.89294,-1.15291 -2.11367,-1.15291 -0.79122,0 -1.71807,0.41821 -0.92685,0.41822 -1.98934,1.25465 z"
         id="path9983" /><path
         d="m 213.51769,488.67022 -0.61036,-0.746 q 2.31713,-1.88762 2.31713,-3.15356 0,-0.14694 -0.0226,-0.3617 -0.19215,0.0791 -0.373,0.12434 -0.18085,0.0452 -0.33909,0.0452 -0.54255,0 -0.87034,-0.3504 -0.32779,-0.35039 -0.32779,-0.89294 0,-0.53125 0.39561,-0.92685 0.39561,-0.39561 0.94946,-0.39561 0.76861,0 1.31116,0.62167 0.55385,0.61036 0.55385,1.58243 0,0.63297 -0.25997,1.32246 -0.25998,0.70079 -0.75731,1.28855 -0.49734,0.59906 -1.96674,1.8424 z"
         id="path9985" /><path
         d="m 234.79009,478.03403 v -1.23204 q 0,-1.25464 -0.70079,-1.78589 -0.70079,-0.54254 -1.97804,-0.54254 -0.63297,0 -1.1077,0.15824 -0.47473,0.14694 -0.76861,0.41821 -0.28258,0.25997 -0.41821,0.59907 -0.0565,0.12433 -0.27128,0.96076 -0.25997,1.01728 -1.05118,1.01728 -0.45213,0 -0.7347,-0.29388 -0.27128,-0.30519 -0.27128,-0.81383 0,-0.746 0.55385,-1.45809 0.55386,-0.7234 1.68416,-1.18683 1.14161,-0.47473 2.69014,-0.47473 1.44679,0 2.47537,0.45213 1.02858,0.44082 1.51461,1.27725 0.33909,0.57645 0.33909,2.10237 v 4.35168 q 0,0.92685 0.0565,1.20943 0.12433,0.48603 0.42952,0.7347 0.31648,0.23737 0.81382,0.23737 0.51994,0 1.24334,-0.24867 v 0.98337 q -0.93816,0.27127 -1.68416,0.27127 -0.80252,0 -1.35637,-0.22606 -0.54255,-0.22606 -0.89294,-0.65558 -0.3504,-0.44082 -0.45213,-1.03988 -1.35637,1.06249 -2.45277,1.492 -1.09639,0.42952 -2.2154,0.42952 -1.55982,0 -2.53189,-0.84773 -0.97206,-0.84773 -0.97206,-1.98934 0,-0.68949 0.35039,-1.31116 0.3617,-0.62167 1.0851,-1.0964 0.7347,-0.47473 2.29452,-0.83643 1.55983,-0.36169 4.32908,-0.65557 z m 0,0.98336 q -2.62231,0.38431 -3.24398,0.53125 -1.23204,0.28258 -1.76328,0.62167 -0.53125,0.33909 -0.75731,0.7347 -0.22606,0.3843 -0.22606,0.82512 0,0.44082 0.24867,0.85904 0.25997,0.40691 0.7234,0.64427 0.46342,0.23737 0.98336,0.23737 0.7347,0 1.66156,-0.3504 0.92685,-0.35039 2.37364,-1.36767 z"
         id="path9987" /><path
         d="m 240.10254,475.29868 v -0.94946 q 1.00597,-0.11303 1.50331,-0.27127 0.49733,-0.15824 1.43549,-0.67819 h 0.81382 v 2.14759 q 1.492,-1.25464 2.54319,-1.69546 1.06249,-0.45213 2.14759,-0.45213 0.92685,0 1.63894,0.31649 0.7121,0.30518 1.15292,0.83643 0.45212,0.53124 0.59906,1.20943 0.0904,0.41821 0.0904,1.26594 v 4.97336 q 0,0.89294 0.12434,1.15291 0.13563,0.24867 0.41821,0.3617 0.28258,0.11303 1.39028,0.11303 v 0.94946 h -5.82109 v -0.94946 h 0.31649 q 0.81382,0 1.1077,-0.14694 0.29388,-0.14694 0.41822,-0.42952 0.13563,-0.28257 0.13563,-1.15291 v -4.15953 q 0,-1.28855 -0.21476,-1.78589 -0.20345,-0.49734 -0.71209,-0.80252 -0.49733,-0.31648 -1.26594,-0.31648 -0.91555,0 -1.95544,0.47472 -1.03988,0.46343 -2.01194,1.37898 v 5.21072 q 0,0.88164 0.12433,1.17552 0.13564,0.29388 0.42952,0.44082 0.20345,0.11303 1.08509,0.11303 h 0.32779 v 0.94946 h -5.82108 v -0.94946 h 0.28257 q 0.83643,0 1.14161,-0.13564 0.30519,-0.14694 0.42952,-0.50864 0.0678,-0.18085 0.0678,-1.24333 v -6.44276 z"
         id="path9989" /><path
         d="m 262.4148,469.90711 v -0.96076 q 0.76861,-0.0678 1.40159,-0.25997 0.64427,-0.20345 1.60503,-0.68949 h 0.84773 v 13.71064 q 0,0.94945 0.0452,1.15291 0.11303,0.42952 0.3843,0.59906 0.27127,0.16955 1.05119,0.16955 h 0.48603 v 0.94946 l -3.92217,0.18085 v -1.79719 q -1.13031,1.02858 -2.12498,1.45809 -0.98336,0.42952 -1.97804,0.42952 -2.04585,0 -3.40222,-1.63894 -1.34507,-1.65025 -1.34507,-3.96738 0,-1.65025 0.7121,-3.01793 0.72339,-1.37897 1.89891,-2.10237 1.17552,-0.7234 2.5771,-0.7234 1.0738,0 1.98935,0.37301 0.91555,0.373 1.67285,1.119 v -4.98466 z m 1.89892,11.93605 v -4.27256 q 0,-0.91555 -0.35039,-1.49201 -0.3391,-0.58776 -1.13031,-1.01727 -0.77991,-0.42952 -1.60504,-0.42952 -0.98337,0 -1.81979,0.54255 -0.82513,0.53124 -1.29986,1.54852 -0.46342,1.00597 -0.46342,2.44146 0,1.35637 0.42951,2.35104 0.44082,0.98337 1.17552,1.50331 0.7347,0.50864 1.50331,0.50864 0.75731,0 1.71807,-0.42952 0.96076,-0.44082 1.8424,-1.25464 z"
         id="path9991" /><path
         d="m 284.17323,469.90711 v -0.96076 q 0.76861,-0.0678 1.40158,-0.25997 0.64427,-0.20345 1.60504,-0.68949 h 0.84773 v 13.71064 q 0,0.94945 0.0452,1.15291 0.11303,0.42952 0.3843,0.59906 0.27128,0.16955 1.05119,0.16955 h 0.48603 v 0.94946 l -3.92217,0.18085 v -1.79719 q -1.1303,1.02858 -2.12497,1.45809 -0.98337,0.42952 -1.97804,0.42952 -2.04586,0 -3.40223,-1.63894 -1.34506,-1.65025 -1.34506,-3.96738 0,-1.65025 0.71209,-3.01793 0.7234,-1.37897 1.89892,-2.10237 1.17552,-0.7234 2.5771,-0.7234 1.07379,0 1.98934,0.37301 0.91555,0.373 1.67285,1.119 v -4.98466 z m 1.89891,11.93605 v -4.27256 q 0,-0.91555 -0.35039,-1.49201 -0.33909,-0.58776 -1.13031,-1.01727 -0.77991,-0.42952 -1.60504,-0.42952 -0.98336,0 -1.81979,0.54255 -0.82513,0.53124 -1.29985,1.54852 -0.46343,1.00597 -0.46343,2.44146 0,1.35637 0.42952,2.35104 0.44082,0.98337 1.17552,1.50331 0.7347,0.50864 1.5033,0.50864 0.75731,0 1.71807,-0.42952 0.96076,-0.44082 1.8424,-1.25464 z"
         id="path9993" /><path
         d="m 294.27819,468.30208 q 0.54255,0 0.92685,0.3843 0.38431,0.373 0.38431,0.91555 0,0.54255 -0.38431,0.92685 -0.3843,0.38431 -0.92685,0.38431 -0.54255,0 -0.92685,-0.38431 -0.38431,-0.3843 -0.38431,-0.92685 0,-0.54255 0.38431,-0.91555 0.3843,-0.3843 0.92685,-0.3843 z m -2.88228,6.9966 v -0.93815 q 0.93815,-0.11303 1.57112,-0.31649 0.64428,-0.20346 1.4581,-0.64428 h 0.82512 v 9.06507 q 0,0.47473 0.13564,0.7121 0.13564,0.23736 0.373,0.35039 0.24867,0.10173 0.89295,0.10173 h 0.53124 v 0.94946 h -5.78717 v -0.94946 h 0.46342 q 0.75731,0 1.01728,-0.13564 0.25997,-0.13563 0.3617,-0.3843 0.11303,-0.24867 0.11303,-1.16422 v -6.64621 z"
         id="path9995" /><path
         d="m 306.07858,473.67104 h 0.79121 l 1.01728,3.45874 -1.01728,0.33909 q -0.61036,-1.39028 -1.71807,-2.18149 -1.09639,-0.80252 -2.2267,-0.80252 -0.87034,0 -1.41289,0.42952 -0.54254,0.41821 -0.54254,0.97206 0,0.51994 0.3956,0.89294 0.38431,0.38431 1.72937,0.87034 l 2.2041,0.77991 q 1.86501,0.66689 2.5432,1.42419 0.66688,0.76861 0.66688,1.74068 0,0.82512 -0.49734,1.59373 -0.49733,0.75731 -1.44679,1.20943 -0.93816,0.45212 -2.15889,0.45212 -1.89892,0 -3.25529,-1.08509 l -0.23736,0.81382 h -0.80252 l -1.41288,-3.69611 1.02858,-0.40691 q 1.02858,1.62764 1.94413,2.30583 1.27724,0.96076 2.75795,0.96076 0.98336,0 1.61634,-0.51994 0.63297,-0.53125 0.63297,-1.17552 0,-0.53125 -0.39561,-0.97207 -0.40691,-0.42951 -1.55982,-0.83642 l -2.61101,-0.94946 q -1.68416,-0.61037 -2.33974,-1.33377 -0.65558,-0.72339 -0.65558,-1.66155 0,-1.14161 1.06249,-2.01195 1.07379,-0.88164 2.72404,-0.88164 0.85904,0 1.53722,0.22607 0.67818,0.21475 1.33376,0.72339 z"
         id="path9997" /><path
         d="m 320.45609,481.42495 0.7234,0.58776 q -2.12498,2.83707 -5.09769,2.83707 -2.31713,0 -3.91086,-1.65025 -1.59373,-1.65025 -1.59373,-4.10301 0,-1.63895 0.73469,-2.9388 0.74601,-1.31116 2.05716,-2.03456 1.32246,-0.7234 3.02923,-0.7234 1.94413,0 3.24398,0.96077 1.29986,0.94945 1.29986,1.92152 0,0.51994 -0.30519,0.80252 -0.30518,0.28257 -0.68948,0.28257 -0.20346,0 -0.39561,-0.10172 -0.19215,-0.10173 -0.39561,-0.32779 -0.0904,-0.10173 -0.32779,-0.63297 -0.30518,-0.65558 -0.47473,-0.88164 -0.35039,-0.45213 -0.87034,-0.7121 -0.50863,-0.25997 -1.14161,-0.25997 -0.96076,0 -1.78588,0.53125 -0.81382,0.53124 -1.29986,1.57112 -0.47473,1.02858 -0.47473,2.46407 0,2.22671 1.18683,3.53787 1.02858,1.1303 2.45277,1.1303 0.65557,0 1.32246,-0.21475 0.67818,-0.22607 1.27724,-0.65558 0.44082,-0.30519 1.43549,-1.39028 z"
         id="path9999" /><path
         d="m 330.62887,478.03403 v -1.23204 q 0,-1.25464 -0.70079,-1.78589 -0.70079,-0.54254 -1.97804,-0.54254 -0.63297,0 -1.1077,0.15824 -0.47473,0.14694 -0.76861,0.41821 -0.28258,0.25997 -0.41822,0.59907 -0.0565,0.12433 -0.27127,0.96076 -0.25997,1.01728 -1.05119,1.01728 -0.45212,0 -0.7347,-0.29388 -0.27127,-0.30519 -0.27127,-0.81383 0,-0.746 0.55385,-1.45809 0.55385,-0.7234 1.68416,-1.18683 1.14161,-0.47473 2.69013,-0.47473 1.44679,0 2.47537,0.45213 1.02858,0.44082 1.51462,1.27725 0.33909,0.57645 0.33909,2.10237 v 4.35168 q 0,0.92685 0.0565,1.20943 0.12434,0.48603 0.42952,0.7347 0.31649,0.23737 0.81382,0.23737 0.51994,0 1.24334,-0.24867 v 0.98337 q -0.93815,0.27127 -1.68416,0.27127 -0.80252,0 -1.35637,-0.22606 -0.54254,-0.22606 -0.89294,-0.65558 -0.35039,-0.44082 -0.45212,-1.03988 -1.35637,1.06249 -2.45277,1.492 -1.0964,0.42952 -2.2154,0.42952 -1.55983,0 -2.53189,-0.84773 -0.97207,-0.84773 -0.97207,-1.98934 0,-0.68949 0.3504,-1.31116 0.3617,-0.62167 1.08509,-1.0964 0.7347,-0.47473 2.29453,-0.83643 1.55982,-0.36169 4.32908,-0.65557 z m 0,0.98336 q -2.62232,0.38431 -3.24399,0.53125 -1.23203,0.28258 -1.76328,0.62167 -0.53124,0.33909 -0.7573,0.7347 -0.22606,0.3843 -0.22606,0.82512 0,0.44082 0.24866,0.85904 0.25997,0.40691 0.7234,0.64427 0.46343,0.23737 0.98337,0.23737 0.7347,0 1.66155,-0.3504 0.92685,-0.35039 2.37365,-1.36767 z"
         id="path10001" /><path
         d="m 335.90742,475.28738 v -0.92685 q 0.82512,-0.0678 1.4694,-0.27128 0.64427,-0.21476 1.4694,-0.68949 h 0.84773 v 2.13629 q 0.80252,-0.98337 1.86501,-1.55983 1.06249,-0.57646 1.91022,-0.57646 0.83642,0 1.32246,0.39561 0.48603,0.39561 0.48603,0.96076 0,0.40691 -0.32779,0.7234 -0.31649,0.30518 -0.76861,0.30518 -0.20345,0 -0.35039,-0.0565 -0.14694,-0.0565 -0.42952,-0.24867 -0.62167,-0.40691 -1.03988,-0.40691 -0.56516,0 -1.24334,0.47473 -0.85904,0.61037 -1.34507,1.19813 v 5.21071 q 0,0.67819 0.0678,0.92686 0.0791,0.23736 0.24867,0.41821 0.16954,0.16955 0.41821,0.24867 0.24867,0.0791 0.87034,0.0791 h 0.373 v 0.94946 h -5.84369 v -0.94946 h 0.48603 q 0.68949,0 0.90425,-0.12433 0.29388,-0.16955 0.42951,-0.46343 0.14694,-0.30518 0.14694,-1.0851 v -6.66881 z"
         id="path10003" /><path
         d="m 353.15589,469.90711 v -0.96076 q 0.76861,-0.0678 1.40158,-0.25997 0.64428,-0.20345 1.60504,-0.68949 h 0.84773 v 13.71064 q 0,0.94945 0.0452,1.15291 0.11304,0.42952 0.38431,0.59906 0.27127,0.16955 1.05119,0.16955 h 0.48603 v 0.94946 l -3.92217,0.18085 v -1.79719 q -1.13031,1.02858 -2.12498,1.45809 -0.98337,0.42952 -1.97804,0.42952 -2.04585,0 -3.40222,-1.63894 -1.34507,-1.65025 -1.34507,-3.96738 0,-1.65025 0.7121,-3.01793 0.72339,-1.37897 1.89891,-2.10237 1.17552,-0.7234 2.5771,-0.7234 1.0738,0 1.98934,0.37301 0.91555,0.373 1.67286,1.119 v -4.98466 z m 1.89892,11.93605 v -4.27256 q 0,-0.91555 -0.3504,-1.49201 -0.33909,-0.58776 -1.1303,-1.01727 -0.77992,-0.42952 -1.60504,-0.42952 -0.98337,0 -1.8198,0.54255 -0.82512,0.53124 -1.29985,1.54852 -0.46343,1.00597 -0.46343,2.44146 0,1.35637 0.42952,2.35104 0.44082,0.98337 1.17552,1.50331 0.7347,0.50864 1.50331,0.50864 0.75731,0 1.71807,-0.42952 0.96076,-0.44082 1.8424,-1.25464 z"
         id="path10005" /><path
         d="m 24.541559,492.9767 h 0.802518 v 3.84305 h 3.357014 v 1.13031 h -3.357014 v 6.81575 q 0,0.87034 0.14694,1.24334 0.158243,0.373 0.519942,0.61037 0.373001,0.23736 0.825124,0.23736 1.073792,0 2.373646,-0.96076 v 1.0964 q -1.480703,1.00597 -2.995315,1.00597 -0.859034,0 -1.559825,-0.3843 -0.689487,-0.38431 -0.949458,-0.90425 -0.248668,-0.51994 -0.248668,-1.80849 v -6.95139 h -1.978038 v -0.94946 q 0.949458,-0.21476 1.525915,-0.66688 0.58776,-0.45212 0.949459,-1.17552 0.361698,-0.7234 0.58776,-2.1815 z"
         id="path10007" /><path
         d="m 30.362643,493.06713 v -0.97207 q 1.096399,-0.14694 1.706765,-0.33909 0.610366,-0.20345 1.277247,-0.61036 h 0.88164 v 7.47133 q 1.277248,-1.07379 2.418859,-1.57113 1.14161,-0.49733 2.181494,-0.49733 1.514612,0 2.497979,0.90424 0.972065,0.90425 0.972065,2.2041 v 5.54981 q 0,0.82513 0.124334,1.0851 0.135637,0.24867 0.44082,0.373 0.305183,0.11303 1.367672,0.11303 v 0.94946 h -5.832387 v -0.94946 h 0.429517 q 0.825124,0 1.085095,-0.12433 0.259971,-0.13564 0.373001,-0.42952 0.124334,-0.30518 0.124334,-1.24334 v -3.85435 q 0,-1.27724 -0.09042,-1.66155 -0.169547,-0.65558 -0.700791,-1.05119 -0.531245,-0.3956 -1.356369,-0.3956 -0.926853,0 -1.944129,0.46342 -1.005974,0.45213 -2.09107,1.36768 v 5.66284 q 0,0.63297 0.113031,0.84773 0.113031,0.21476 0.373002,0.31648 0.25997,0.10173 1.039883,0.10173 h 0.463426 v 0.94946 h -5.854994 v -0.94946 h 0.350396 q 0.825124,0 1.198126,-0.20345 0.203455,-0.10173 0.29388,-0.39561 0.09042,-0.29388 0.09042,-1.62764 v -11.48393 z"
         id="path10009" /><path
         d="m 48.436263,491.45079 q 0.542548,0 0.926853,0.3843 0.384304,0.37301 0.384304,0.91555 0,0.54255 -0.384304,0.92686 -0.384305,0.3843 -0.926853,0.3843 -0.542547,0 -0.926852,-0.3843 -0.384305,-0.38431 -0.384305,-0.92686 0,-0.54254 0.384305,-0.91555 0.384305,-0.3843 0.926852,-0.3843 z m -2.882284,6.9966 v -0.93815 q 0.938155,-0.11303 1.571127,-0.31649 0.644276,-0.20345 1.458097,-0.64427 h 0.825125 v 9.06506 q 0,0.47473 0.135637,0.7121 0.135637,0.23736 0.373001,0.35039 0.248668,0.10173 0.892943,0.10173 h 0.531245 v 0.94946 h -5.787175 v -0.94946 h 0.463426 q 0.757306,0 1.017277,-0.13564 0.259971,-0.13563 0.361698,-0.3843 0.113031,-0.24867 0.113031,-1.16422 v -6.64621 z"
         id="path10011" /><path
         d="m 60.236675,496.81975 h 0.791215 l 1.017277,3.45874 -1.017277,0.33909 q -0.610366,-1.39027 -1.718068,-2.18149 -1.096398,-0.80252 -2.226706,-0.80252 -0.870337,0 -1.412884,0.42952 -0.542548,0.41821 -0.542548,0.97206 0,0.51995 0.395608,0.89295 0.384304,0.3843 1.72937,0.87033 l 2.2041,0.77992 q 1.865008,0.66688 2.543192,1.42418 0.666882,0.76861 0.666882,1.74068 0,0.82512 -0.497335,1.59373 -0.497336,0.75731 -1.446794,1.20943 -0.938156,0.45212 -2.158888,0.45212 -1.898917,0 -3.255286,-1.08509 l -0.237364,0.81382 H 54.26865 l -1.412884,-3.69611 1.02858,-0.40691 q 1.028579,1.62765 1.944129,2.30583 1.277247,0.96076 2.75795,0.96076 0.983368,0 1.61634,-0.51994 0.632973,-0.53124 0.632973,-1.17552 0,-0.53124 -0.395608,-0.97206 -0.406911,-0.42952 -1.559825,-0.83643 l -2.61101,-0.94946 q -1.684159,-0.61037 -2.339737,-1.33376 -0.655579,-0.7234 -0.655579,-1.66156 0,-1.14161 1.06249,-2.01194 1.073792,-0.88164 2.724041,-0.88164 0.859034,0 1.537218,0.22606 0.678185,0.21476 1.333763,0.7234 z"
         id="path10013" /><path
         d="m 82.017701,504.57366 0.723397,0.58776 q -2.124978,2.83707 -5.097687,2.83707 -2.317131,0 -3.910865,-1.65025 -1.593734,-1.65024 -1.593734,-4.10301 0,-1.63895 0.7347,-2.9388 0.746003,-1.31116 2.05716,-2.03456 1.32246,-0.72339 3.029225,-0.72339 1.944129,0 3.243983,0.96076 1.299854,0.94946 1.299854,1.92152 0,0.51994 -0.305184,0.80252 -0.305183,0.28258 -0.689487,0.28258 -0.203456,0 -0.395608,-0.10173 -0.192152,-0.10173 -0.395608,-0.32779 -0.09042,-0.10173 -0.327789,-0.63297 -0.305183,-0.65558 -0.474729,-0.88164 -0.350395,-0.45213 -0.870337,-0.7121 -0.508638,-0.25997 -1.141611,-0.25997 -0.960761,0 -1.785886,0.53125 -0.813821,0.53124 -1.299853,1.57113 -0.47473,1.02858 -0.47473,2.46407 0,2.2267 1.186823,3.53786 1.02858,1.13031 2.452768,1.13031 0.655578,0 1.32246,-0.21476 0.678184,-0.22606 1.277248,-0.65558 0.44082,-0.30518 1.43549,-1.39028 z"
         id="path10015" /><path
         d="m 92.190474,501.18274 v -1.23204 q 0,-1.25464 -0.70079,-1.78588 -0.700791,-0.54255 -1.978039,-0.54255 -0.632972,0 -1.107701,0.15824 -0.474729,0.14694 -0.768609,0.41822 -0.282577,0.25997 -0.418214,0.59906 -0.05652,0.12433 -0.271274,0.96076 -0.259971,1.01728 -1.051186,1.01728 -0.452123,0 -0.7347,-0.29388 -0.271274,-0.30519 -0.271274,-0.81382 0,-0.74601 0.553851,-1.4581 0.55385,-0.7234 1.684158,-1.18682 1.141611,-0.47473 2.690132,-0.47473 1.446794,0 2.475374,0.45212 1.02858,0.44082 1.514612,1.27725 0.339093,0.57645 0.339093,2.10237 v 4.35168 q 0,0.92686 0.05652,1.20943 0.124334,0.48604 0.429517,0.7347 0.316486,0.23737 0.813821,0.23737 0.519942,0 1.243339,-0.24867 v 0.98337 q -0.938156,0.27127 -1.684159,0.27127 -0.802518,0 -1.356369,-0.22606 -0.542547,-0.22606 -0.892943,-0.65558 -0.350395,-0.44082 -0.452123,-1.03988 -1.356369,1.06249 -2.452767,1.49201 -1.096399,0.42951 -2.215403,0.42951 -1.559825,0 -2.53189,-0.84773 -0.972064,-0.84773 -0.972064,-1.98934 0,-0.68949 0.350395,-1.31116 0.361699,-0.62167 1.085096,-1.0964 0.7347,-0.47472 2.294524,-0.83642 1.559825,-0.3617 4.329078,-0.65558 z m 0,0.98337 q -2.622313,0.3843 -3.243983,0.53124 -1.232035,0.28258 -1.76328,0.62167 -0.531244,0.33909 -0.757306,0.7347 -0.226061,0.3843 -0.226061,0.82512 0,0.44082 0.248668,0.85904 0.25997,0.40691 0.723396,0.64427 0.463427,0.23737 0.983368,0.23737 0.7347,0 1.661552,-0.3504 0.926853,-0.35039 2.373646,-1.36767 z"
         id="path10017" /><path
         d="m 97.469011,498.43609 v -0.92685 q 0.825125,-0.0678 1.4694,-0.27128 0.644275,-0.21475 1.469399,-0.68948 h 0.84773 v 2.13628 q 0.80252,-0.98337 1.86501,-1.55983 1.06249,-0.57645 1.91022,-0.57645 0.83643,0 1.32246,0.3956 0.48603,0.39561 0.48603,0.96077 0,0.40691 -0.32779,0.72339 -0.31648,0.30519 -0.76861,0.30519 -0.20345,0 -0.35039,-0.0565 -0.14694,-0.0565 -0.42952,-0.24867 -0.62167,-0.40691 -1.03988,-0.40691 -0.56516,0 -1.24334,0.47473 -0.85903,0.61037 -1.34507,1.19813 v 5.21072 q 0,0.67818 0.0678,0.92685 0.0791,0.23736 0.24867,0.41821 0.16955,0.16955 0.41821,0.24867 0.24867,0.0791 0.87034,0.0791 h 0.373 v 0.94946 h -5.843689 v -0.94946 h 0.486032 q 0.689488,0 0.904246,-0.12433 0.29388,-0.16955 0.429517,-0.46343 0.14694,-0.30518 0.14694,-1.08509 v -6.66882 z"
         id="path10019" /><path
         d="m 114.7175,493.05583 v -0.96077 q 0.76861,-0.0678 1.40158,-0.25997 0.64428,-0.20345 1.60504,-0.68948 h 0.84773 v 13.71063 q 0,0.94946 0.0452,1.15291 0.11303,0.42952 0.38431,0.59907 0.27127,0.16954 1.05118,0.16954 h 0.48604 v 0.94946 l -3.92217,0.18085 v -1.79719 q -1.13031,1.02858 -2.12498,1.4581 -0.98337,0.42951 -1.97804,0.42951 -2.04586,0 -3.40223,-1.63894 -1.34506,-1.65025 -1.34506,-3.96738 0,-1.65025 0.71209,-3.01792 0.7234,-1.37898 1.89892,-2.10238 1.17552,-0.72339 2.5771,-0.72339 1.07379,0 1.98934,0.373 0.91555,0.373 1.67286,1.119 v -4.98465 z m 1.89892,11.93605 v -4.27257 q 0,-0.91555 -0.3504,-1.492 -0.33909,-0.58776 -1.13031,-1.01728 -0.77991,-0.42952 -1.60503,-0.42952 -0.98337,0 -1.8198,0.54255 -0.82512,0.53124 -1.29985,1.54852 -0.46343,1.00598 -0.46343,2.44147 0,1.35637 0.42952,2.35104 0.44082,0.98336 1.17552,1.50331 0.7347,0.50863 1.50331,0.50863 0.7573,0 1.71807,-0.42951 0.96076,-0.44082 1.8424,-1.25464 z"
         id="path10021" /><path
         d="m 124.89027,505.0936 q 0.59907,0 1.00598,0.41822 0.41821,0.40691 0.41821,0.99467 0,0.58776 -0.41821,1.00597 -0.41822,0.40691 -1.00598,0.40691 -0.57645,0 -0.99467,-0.40691 -0.41821,-0.41821 -0.41821,-1.00597 0,-0.58776 0.40691,-0.99467 0.41821,-0.41822 1.00597,-0.41822 z"
         id="path10023" /></g><g
       style="fill:none;fill-rule:evenodd;stroke:#000000;stroke-width:1.5;stroke-linecap:round;stroke-linejoin:round"
       transform="matrix(2.2650855,0,0,2.2650855,1.9522432,21.569726)"
       id="g4456"><g
         style="fill:#ffffff;stroke-linecap:butt"
         id="g4452"><g
           id="path4446"><path
             style="color:#000000;fill-rule:nonzero;stroke:none;stroke-linejoin:miter;-inkscape-stroke:none"
             d="m 9,36 c 3.39,-0.97 10.11,0.43 13.5,-2 3.39,2.43 10.11,1.03 13.5,2 0,0 1.65,0.54 3,2 -0.68,0.97 -1.65,0.99 -3,0.5 -3.39,-0.97 -10.11,0.46 -13.5,-1 C 19.11,38.96 12.39,37.53 9,38.5 7.65,38.99 6.68,38.97 6,38 7.35,36.54 9,36 9,36 Z"
             id="path9939" /><path
             style="color:#000000;fill:#000000;fill-rule:nonzero;stroke:none;stroke-linejoin:miter;-inkscape-stroke:none"
             d="m 22.0625,33.390625 c -1.448844,1.038552 -3.842542,1.33232 -6.333984,1.40625 -2.491443,0.07393 -5.022786,-0.06489 -6.9355472,0.482422 a 0.750075,0.750075 0 0 0 -0.025391,0.0078 c 0,0 -1.8241355,0.58715 -3.3183594,2.203125 a 0.750075,0.750075 0 0 0 -0.0625,0.939453 c 0.4348291,0.620271 1.0774019,1.021439 1.7636719,1.111329 0.6862701,0.08989 1.3732407,-0.07017 2.1054688,-0.335938 l -0.048828,0.01563 c 1.4752697,-0.422127 3.9877377,-0.341117 6.5273437,-0.287109 2.425664,0.05158 4.857253,0.04397 6.765625,-0.681641 1.908372,0.725614 4.339961,0.733225 6.765625,0.681641 2.539606,-0.05401 5.052074,-0.135018 6.527344,0.287109 l -0.04883,-0.01563 c 0.732228,0.265772 1.419198,0.425827 2.105468,0.335938 0.68627,-0.08989 1.328843,-0.491058 1.763672,-1.111329 a 0.750075,0.750075 0 0 0 -0.0625,-0.939453 c -1.494224,-1.615975 -3.318359,-2.203125 -3.318359,-2.203125 a 0.750075,0.750075 0 0 0 -0.02539,-0.0078 c -1.912761,-0.547309 -4.444104,-0.408492 -6.935547,-0.482422 -2.491442,-0.07393 -4.88514,-0.367698 -6.333984,-1.40625 a 0.750075,0.750075 0 0 0 -0.875,0 z M 22.5,34.783203 c 1.898928,1.161824 4.332258,1.442566 6.728516,1.513672 2.559754,0.07596 5.076542,0.0032 6.554687,0.423828 0.02099,0.0071 0.985365,0.454342 1.982422,1.259766 -0.0415,0.0093 -0.06467,0.06811 -0.111328,0.07422 -0.306229,0.04011 -0.780667,-0.03554 -1.398438,-0.259765 a 0.750075,0.750075 0 0 0 -0.04883,-0.01563 c -1.914727,-0.547872 -4.457267,-0.399196 -6.972656,-0.345703 -2.515389,0.05349 -4.989559,5.5e-4 -6.4375,-0.623047 a 0.750075,0.750075 0 0 0 -0.59375,0 c -1.447941,0.623597 -3.922111,0.676539 -6.4375,0.623047 -2.515389,-0.05349 -5.057929,-0.202169 -6.9726562,0.345703 a 0.750075,0.750075 0 0 0 -0.048828,0.01563 C 8.12637,38.01915 7.6519321,38.094798 7.3457031,38.054687 7.2990421,38.048576 7.2758764,37.989818 7.234375,37.980469 8.2314325,37.175045 9.1958028,36.72776 9.2167969,36.720703 10.694942,36.30011 13.21173,36.372832 15.771484,36.296875 18.167742,36.225769 20.601072,35.945027 22.5,34.783203 Z"
             id="path9941" /></g><g
           id="path4448"><path
             style="color:#000000;fill-rule:nonzero;stroke:none;stroke-linejoin:miter;-inkscape-stroke:none"
             d="m 15,32 c 2.5,2.5 12.5,2.5 15,0 0.5,-1.5 0,-2 0,-2 0,-2.5 -2.5,-4 -2.5,-4 5.5,-1.5 6,-11.5 -5,-15.5 -11,4 -10.5,14 -5,15.5 0,0 -2.5,1.5 -2.5,4 0,0 -0.5,0.5 0,2 z"
             id="path9945" /><path
             style="color:#000000;fill:#000000;fill-rule:nonzero;stroke:none;stroke-linejoin:miter;-inkscape-stroke:none"
             d="m 22.244141,9.7949219 c -5.692069,2.0698431 -8.554354,5.7735001 -9.169922,9.2617191 -0.531978,3.014539 0.731484,5.802317 3.099609,7.085937 -0.795814,0.6602 -1.705393,1.706807 -1.849609,3.525391 -0.02282,0.03261 -0.03105,0.0348 -0.05078,0.07031 -0.07572,0.136287 -0.15093,0.321056 -0.197266,0.552735 -0.09267,0.463358 -0.06873,1.100445 0.212891,1.945312 a 0.750075,0.750075 0 0 0 0.179687,0.294922 c 0.801776,0.801776 2.004721,1.275697 3.40625,1.605469 1.401529,0.329771 3.012502,0.488281 4.625,0.488281 1.612498,0 3.223471,-0.15851 4.625,-0.488281 1.401529,-0.329772 2.604474,-0.803693 3.40625,-1.605469 a 0.750075,0.750075 0 0 0 0.179687,-0.294922 c 0.281623,-0.844867 0.305563,-1.481954 0.212891,-1.945312 -0.04634,-0.231679 -0.121551,-0.416448 -0.197266,-0.552735 -0.01973,-0.03551 -0.02796,-0.0377 -0.05078,-0.07031 -0.144216,-1.818584 -1.053795,-2.865191 -1.849609,-3.525391 2.368125,-1.28362 3.631587,-4.071398 3.099609,-7.085937 -0.615568,-3.488219 -3.477853,-7.191876 -9.169922,-9.2617191 a 0.750075,0.750075 0 0 0 -0.511718,0 z M 22.5,11.330078 c 5.103328,1.943493 7.449245,5.155098 7.949219,7.988281 0.509431,2.886775 -0.79909,5.318786 -3.146485,5.958985 a 0.750075,0.750075 0 0 0 -0.189453,1.365234 c 0,0 2.136719,1.357424 2.136719,3.357422 a 0.750075,0.750075 0 0 0 0.21875,0.53125 c 0,0 -0.0571,-0.07074 -0.05469,-0.06641 0.0024,0.0043 0.02095,0.03832 0.03711,0.11914 0.02607,0.130333 -0.02302,0.511821 -0.13086,0.951172 -0.478736,0.424505 -1.353599,0.861693 -2.539062,1.140625 C 25.526531,32.971009 24.012498,33.125 22.5,33.125 c -1.512498,0 -3.026531,-0.153991 -4.28125,-0.449219 -1.185463,-0.278932 -2.060326,-0.71612 -2.539062,-1.140625 -0.107838,-0.439351 -0.156926,-0.820839 -0.13086,-0.951172 0.01616,-0.08082 0.0347,-0.114802 0.03711,-0.11914 0.0024,-0.0043 -0.05469,0.06641 -0.05469,0.06641 A 0.750075,0.750075 0 0 0 15.75,30 c 0,-1.999998 2.136719,-3.357422 2.136719,-3.357422 A 0.750075,0.750075 0 0 0 17.697266,25.277344 C 15.349871,24.637145 14.04135,22.205134 14.550781,19.318359 15.050755,16.485176 17.396672,13.273571 22.5,11.330078 Z"
             id="path9947" /></g><g
           id="path4450"><path
             style="color:#000000;fill-rule:nonzero;stroke:none;stroke-linejoin:miter;-inkscape-stroke:none"
             d="m 25,8 a 2.5,2.5 0 1 1 -5,0 2.5,2.5 0 1 1 5,0 z"
             id="path9951" /><path
             style="color:#000000;fill:#000000;fill-rule:nonzero;stroke:none;stroke-linejoin:miter;-inkscape-stroke:none"
             d="m 22.5,4.75 c -0.791666,0 -1.593411,0.2603326 -2.216797,0.8144531 C 19.659817,6.1185736 19.25,6.979168 19.25,8 c 0,1.020832 0.409817,1.8814264 1.033203,2.435547 C 20.906589,10.989667 21.708334,11.25 22.5,11.25 c 0.791666,0 1.593411,-0.260333 2.216797,-0.814453 C 25.340183,9.8814264 25.75,9.020832 25.75,8 25.75,6.979168 25.340183,6.1185736 24.716797,5.5644531 24.093411,5.0103326 23.291666,4.75 22.5,4.75 Z m 0,1.5 c 0.458333,0 0.90659,0.1563352 1.220703,0.4355469 C 24.034816,6.9647585 24.25,7.3541678 24.25,8 24.25,8.6458322 24.034816,9.0352415 23.720703,9.3144531 23.40659,9.5936648 22.958333,9.75 22.5,9.75 22.041667,9.75 21.59341,9.5936648 21.279297,9.3144531 20.965184,9.0352415 20.75,8.6458322 20.75,8 20.75,7.3541678 20.965184,6.9647585 21.279297,6.6855469 21.59341,6.4063352 22.041667,6.25 22.5,6.25 Z"
             id="path9953" /></g></g><path
         style="color:#000000;fill:#000000;fill-rule:nonzero;stroke:none;stroke-linecap:butt;stroke-linejoin:miter;-inkscape-stroke:none"
         d="m 22.5,14.75 a 0.75,0.75 0 0 0 -0.75,0.75 v 1.75 H 20 A 0.75,0.75 0 0 0 19.25,18 0.75,0.75 0 0 0 20,18.75 h 1.75 v 1.75 a 0.75,0.75 0 0 0 0.75,0.75 0.75,0.75 0 0 0 0.75,-0.75 V 18.75 H 25 A 0.75,0.75 0 0 0 25.75,18 0.75,0.75 0 0 0 25,17.25 H 23.25 V 15.5 A 0.75,0.75 0 0 0 22.5,14.75 Z m -5,10.5 A 0.75,0.75 0 0 0 16.75,26 0.75,0.75 0 0 0 17.5,26.75 h 10 A 0.75,0.75 0 0 0 28.25,26 0.75,0.75 0 0 0 27.5,25.25 Z m -2.5,4 A 0.75,0.75 0 0 0 14.25,30 0.75,0.75 0 0 0 15,30.75 H 30 A 0.75,0.75 0 0 0 30.75,30 0.75,0.75 0 0 0 30,29.25 Z"
         id="path4454" /></g></g></svg>
