<?xml version="1.0" encoding="UTF-8" standalone="no"?>
<!-- Created with Inkscape (http://www.inkscape.org/) -->

<svg
   width="400.00006"
   height="600"
   viewBox="0 0 105.83335 158.75"
   version="1.1"
   id="svg5"
   inkscape:export-filename="CardTemplate.svg"
   inkscape:export-xdpi="26.281288"
   inkscape:export-ydpi="26.281288"
   sodipodi:docname="ButterFingersCard.svg"
   inkscape:version="1.2.2 (732a01da63, 2022-12-09)"
   xml:space="preserve"
   xmlns:inkscape="http://www.inkscape.org/namespaces/inkscape"
   xmlns:sodipodi="http://sodipodi.sourceforge.net/DTD/sodipodi-0.dtd"
   xmlns="http://www.w3.org/2000/svg"
   xmlns:svg="http://www.w3.org/2000/svg"><sodipodi:namedview
     id="namedview7"
     pagecolor="#505050"
     bordercolor="#ffffff"
     borderopacity="1"
     inkscape:showpageshadow="0"
     inkscape:pageopacity="0"
     inkscape:pagecheckerboard="1"
     inkscape:deskcolor="#505050"
     inkscape:document-units="mm"
     showgrid="false"
     showguides="true"
     inkscape:zoom="0.9475231"
     inkscape:cx="-101.31679"
     inkscape:cy="312.92113"
     inkscape:window-width="1920"
     inkscape:window-height="991"
     inkscape:window-x="-9"
     inkscape:window-y="-9"
     inkscape:window-maximized="1"
     inkscape:current-layer="layer1" /><defs
     id="defs2"><linearGradient
       id="linearGradient3910"
       inkscape:swatch="solid"><stop
         style="stop-color:#000000;stop-opacity:1;"
         offset="0"
         id="stop3908" /></linearGradient><linearGradient
       id="linearGradient3902"
       inkscape:swatch="solid"><stop
         style="stop-color:#000000;stop-opacity:1;"
         offset="0"
         id="stop3900" /></linearGradient><linearGradient
       id="linearGradient1908"
       inkscape:swatch="gradient"><stop
         style="stop-color:#412a2a;stop-opacity:1;"
         offset="0.83033931"
         id="stop1904" /><stop
         style="stop-color:#412a2a;stop-opacity:0;"
         offset="0.84431136"
         id="stop1906" /></linearGradient><rect
       x="20.732048"
       y="466.96472"
       width="356.39377"
       height="115.50713"
       id="rect857" /><rect
       x="13.821366"
       y="17.770327"
       width="368.24066"
       height="96.749557"
       id="rect721" /></defs><g
     inkscape:label="Layer 1"
     inkscape:groupmode="layer"
     id="layer1"
     transform="translate(-0.33529438,-0.33529437)"><path
       style="color:#000000;fill:#331f14;-inkscape-stroke:none"
       d="m 4.2011719,31.212891 v 0.5 80.996089 H 101.63086 V 31.212891 Z m 1,1 H 100.63086 V 111.70898 H 5.2011719 Z"
       id="rect33301" /><g
       id="rect386"><path
         style="color:#000000;fill:#c87137;stroke-width:2.64597;stroke-linejoin:round;-inkscape-stroke:none;paint-order:markers fill stroke"
         d="M 1.6582794,1.6582794 H 104.84566 V 157.76231 H 1.6582794 Z"
         id="path1312" /><path
         style="color:#000000;fill:#331f14;stroke-linejoin:round;-inkscape-stroke:none;paint-order:markers fill stroke"
         d="M 1.6582031,0.3359375 A 1.3231174,1.3231174 0 0 0 0.3359375,1.6582031 V 157.76172 a 1.3231174,1.3231174 0 0 0 1.3222656,1.32422 H 104.8457 a 1.3231174,1.3231174 0 0 0 1.32227,-1.32422 V 1.6582031 A 1.3231174,1.3231174 0 0 0 104.8457,0.3359375 Z M 2.9804688,2.9804688 H 103.52344 V 156.43945 H 2.9804688 Z"
         id="path1314" /></g><path
       id="rect711"
       style="opacity:1;vector-effect:none;fill:#a99069;stroke-width:0.289246;stop-color:#000000;stop-opacity:1"
       d="M 4.7017326,31.71199 H 101.13161 v 80.49623 H 4.7017326 Z" /><g
       aria-label="Butter Fingers"
       transform="matrix(0.26458333,0,0,0.26458333,0,9.5250005)"
       id="text719"
       style="font-size:48px;line-height:0;font-family:Broadway;-inkscape-font-specification:Broadway;text-align:center;letter-spacing:0px;word-spacing:0px;baseline-shift:baseline;white-space:pre;shape-inside:url(#rect721);display:inline;opacity:1;vector-effect:none;stroke-width:0.999999;stop-color:#000000;stop-opacity:1"><path
         d="m 43.149414,26.272305 q 1.6875,1.21875 2.507813,2.671875 0.84375,1.429687 0.84375,3.09375 0,2.695312 -2.085938,4.96875 -2.554687,2.8125 -7.6875,3.046875 -2.835937,0.140625 -7.96875,0.140625 H 17.157227 l 0.02344,-1.101563 0.04687,-4.546875 0.07031,-8.953125 -0.09375,-9.75 -0.04687,-7.6406249 h 12.5625 q 4.710937,0 6.46875,0.1640625 1.78125,0.140625 3.65625,0.7265625 1.992187,0.6328125 3.726562,1.8515629 1.734375,1.21875 2.695313,2.671875 1.5,2.273437 1.5,5.085937 0,2.53125 -1.242188,4.570313 -1.242187,2.039062 -3.375,3 z m -1.898437,0.609375 q -1.007813,0.210937 -1.875,0.210937 -1.851563,0 -3,-0.609375 -1.125,-0.609375 -1.125,-1.59375 0,-0.539062 0.375,-0.539062 0.28125,0 0.773437,0.234375 1.617188,0.820312 3.515625,0.820312 3.445313,0 5.203125,-2.71875 1.125,-1.710937 1.125,-3.914062 0,-3.351563 -2.601562,-5.742188 -1.851563,-1.734375 -4.429688,-2.507812 -2.554687,-0.7734379 -6.421875,-0.7734379 h -1.289062 l -0.140625,14.0624999 0.140625,14.835938 2.109375,0.02344 q 3.492187,0 5.4375,-0.375 1.945312,-0.398437 3.234375,-1.335937 2.671875,-1.96875 2.671875,-4.96875 0,-1.523438 -0.9375,-2.789063 -0.914063,-1.289062 -2.765625,-2.320312 z"
         id="path1099" /><path
         d="m 82.336914,14.60043 -0.07031,18.421875 0.07031,7.171875 H 70.360352 v -3.304688 q -2.976563,2.039063 -5.4375,2.929688 -2.4375,0.890625 -5.109375,0.890625 -4.898438,0 -7.101563,-2.90625 -0.820312,-1.078125 -1.148437,-2.4375 -0.304688,-1.382813 -0.304688,-3.914063 l 0.04687,-5.484375 0.02344,-3.65625 -0.117188,-7.710937 h 11.976563 l -0.117188,11.765625 0.02344,4.453125 0.02344,3 q 0,2.695312 0.328125,3.234375 0.398438,0.609375 1.5,0.609375 1.125,0 2.320313,-0.585938 1.21875,-0.585937 3.140625,-2.085937 l 0.02344,-3.070313 0.04687,-8.367187 -0.140625,-8.226563 V 14.60043 Z"
         id="path1101" /><path
         d="m 100.68848,6.3504296 -0.25782,7.5703124 -0.0234,0.726563 q 2.03906,0 3.70312,-0.164063 0.28125,-0.02344 0.49219,-0.02344 1.03125,0 1.03125,0.9375 0,0.867187 -1.07813,0.867187 -0.32812,0 -0.82031,-0.04687 -1.85156,-0.140625 -2.64844,-0.140625 h -0.67968 l -0.0234,4.546875 0.0937,9.117188 0.0703,4.875 q 0,1.710937 0.25781,2.390625 0.25782,0.679687 0.89063,0.679687 0.84375,0 1.80469,-0.984375 0.9375,-0.984375 1.47656,-2.414062 0.49219,-1.359375 1.17187,-1.359375 0.79688,0 0.79688,0.890625 0,0.890625 -0.79688,2.226562 -0.79687,1.3125 -1.92187,2.296875 -2.76563,2.414063 -7.171876,2.414063 -4.148437,0 -6.421875,-2.507813 -1.171875,-1.265625 -1.617187,-2.8125 -0.445313,-1.570312 -0.445313,-4.335937 v -1.757813 l 0.02344,-4.945312 V 16.00668 q -0.328125,-0.02344 -0.46875,-0.02344 -0.234375,0 -0.9375,0.04687 -0.585938,0.04687 -0.984375,0.04687 -1.148438,0 -1.148438,-0.867187 0,-0.84375 1.101563,-0.84375 0.515625,0 0.726562,0.02344 l 1.710938,0.117188 v -2.648438 q 6.9375,-2.5078124 12.093753,-5.5078124 z"
         id="path1103" /><path
         d="m 121.4541,6.3504296 -0.25781,7.5703124 -0.0234,0.726563 q 2.03906,0 3.70313,-0.164063 0.28125,-0.02344 0.49218,-0.02344 1.03125,0 1.03125,0.9375 0,0.867187 -1.07812,0.867187 -0.32813,0 -0.82031,-0.04687 -1.85157,-0.140625 -2.64844,-0.140625 h -0.67969 l -0.0234,4.546875 0.0937,9.117188 0.0703,4.875 q 0,1.710937 0.25781,2.390625 0.25781,0.679687 0.89062,0.679687 0.84375,0 1.80469,-0.984375 0.9375,-0.984375 1.47656,-2.414062 0.49219,-1.359375 1.17188,-1.359375 0.79687,0 0.79687,0.890625 0,0.890625 -0.79687,2.226562 -0.79688,1.3125 -1.92188,2.296875 -2.76562,2.414063 -7.17187,2.414063 -4.14844,0 -6.42188,-2.507813 -1.17187,-1.265625 -1.61718,-2.8125 -0.44532,-1.570312 -0.44532,-4.335937 v -1.757813 l 0.0234,-4.945312 V 16.00668 q -0.32812,-0.02344 -0.46875,-0.02344 -0.23437,0 -0.9375,0.04687 -0.58594,0.04687 -0.98437,0.04687 -1.14844,0 -1.14844,-0.867187 0,-0.84375 1.10156,-0.84375 0.51563,0 0.72656,0.02344 l 1.71094,0.117188 v -2.648438 q 6.9375,-2.5078124 12.09375,-5.5078124 z"
         id="path1105" /><path
         d="m 138.98535,28.147305 v 7.265625 q 0,2.109375 0.25781,2.671875 0.49219,1.078125 2.32032,1.078125 2.71875,0 5.36718,-1.476563 2.67188,-1.5 4.61719,-4.125 0.63281,-0.867187 0.91406,-1.101562 0.28125,-0.234375 0.60938,-0.234375 0.39844,0 0.65625,0.304687 0.25781,0.28125 0.25781,0.726563 0,0.984375 -1.57031,2.648437 -2.0625,2.132813 -5.13281,3.46875 -3.04688,1.335938 -5.95313,1.335938 -4.99219,0 -8.8125,-3.351563 -2.22656,-1.96875 -3.42187,-4.851562 -1.05469,-2.53125 -1.05469,-5.0625 0,-2.4375 0.9375,-4.875 0.9375,-2.460938 2.57812,-4.242188 1.89844,-2.085937 4.5,-3.234375 2.55469,-1.125 5.34375,-1.125 4.33594,0 7.85157,2.554688 5.48437,3.984375 5.4375,11.554687 h -5.46094 l -7.03125,0.02344 z m 6,-1.546875 v -6.84375 q -0.0469,-2.203125 -0.0937,-2.625 -0.0469,-0.445313 -0.32812,-0.820313 -0.65625,-0.914062 -2.67188,-0.914062 -2.0625,0 -2.57812,1.054687 -0.32813,0.632813 -0.32813,3.304688 v 6.84375 l 2.85938,0.09375 z"
         id="path1107" /><path
         d="m 170.34473,21.866055 -0.0469,9 0.0937,9.328125 h -12.02344 l 0.0234,-1.289063 0.0234,-4.78125 0.0703,-8.601562 -0.0937,-9.5625 -0.0234,-1.359375 h 12 v 4.828125 q 2.69532,-2.859375 3.75,-3.609375 2.4375,-1.710938 4.59375,-1.710938 1.3125,0 2.15625,0.5625 0.86719,0.5625 0.86719,1.429688 0,0.679687 -0.51562,1.125 -0.51563,0.445312 -1.28907,0.445312 -0.49218,0 -1.10156,-0.28125 -1.03125,-0.492187 -1.71094,-0.492187 -1.6875,0 -3.25781,1.148437 -1.57031,1.148438 -3.51562,3.820313 z"
         id="path1109" /><path
         d="m 210.07129,18.467617 -0.0469,5.671875 0.14063,14.976563 v 1.078125 h -14.32031 l 0.16406,-17.414063 -0.1875,-14.5781249 h 24.84375 q 1.6875,0 1.89844,0.070312 0.53906,0.140625 0.53906,0.796875 0,0.8203125 -1.03125,0.8203125 h -0.16406 l -11.74219,-0.1640625 -0.0937,7.2656254 2.55469,0.02344 8.20312,-0.140625 1.80469,-0.02344 q 0.98437,0 1.28906,0.164062 0.32813,0.164063 0.32813,0.65625 0,0.914063 -1.54688,0.914063 l -1.85156,-0.04687 z"
         id="path1111" /><path
         d="m 232.71191,6.3973046 q 6.1875,0 6.1875,3.234375 0,1.5703124 -1.64062,2.4609374 -1.61719,0.867188 -4.57031,0.867188 -5.88282,0 -5.88282,-3.3281254 0,-3.1875 5.90625,-3.234375 z m 6.07032,8.2031254 v 0.679687 l -0.0469,3.65625 -0.0469,5.671875 -0.0703,8.625 0.0937,4.851563 0.0469,2.109375 h -12.04688 l 0.11719,-8.625 0.0703,-7.617188 -0.0469,-4.007812 -0.0703,-4.453125 0.0234,-0.890625 z"
         id="path1113" /><path
         d="m 256.33691,14.60043 v 3.257812 q 2.74219,-1.945312 5.36719,-2.90625 2.625,-0.984375 5.10938,-0.984375 3.32812,0 5.625,1.523438 1.73437,1.148437 2.32031,2.859375 0.60937,1.6875 0.60937,5.53125 l -0.0469,10.851562 0.0703,5.460938 h -11.92969 l 0.0937,-6.515625 0.0703,-4.78125 -0.0234,-7.21875 q -0.0234,-2.507813 -0.0703,-2.976563 -0.0234,-0.492187 -0.21094,-0.867187 -0.375,-0.75 -1.61719,-0.75 -1.14844,0 -2.48437,0.65625 -1.33594,0.65625 -2.88282,1.96875 l -0.0234,0.960937 -0.0469,6.585938 -0.0469,5.039062 0.0703,6.890625 0.0234,1.007813 h -11.97657 l 0.0703,-9.1875 0.0703,-6.070313 -0.0703,-5.25 -0.0703,-5.085937 z"
         id="path1115" /><path
         d="m 298.73535,15.608242 q 2.01563,0.984375 3.375,2.601563 1.80469,2.179687 1.80469,5.039062 0,2.039063 -1.03125,3.867188 -1.03125,1.828125 -2.88281,3.070312 -3.42188,2.320313 -8.25,2.320313 -2.22657,0 -4.10157,-0.398438 -1.875,-0.398437 -3.42187,-1.195312 -1.10156,0.75 -1.10156,1.523437 0,0.914063 1.24218,1.078125 2.69532,0.351563 3.70313,0.210938 l 0.14062,-0.02344 h 7.00782 l 0.35156,-0.02344 q 3.51562,-0.210938 5.0625,1.171875 1.19531,1.101562 1.19531,2.578125 0,1.242187 -0.84375,2.25 -1.40625,1.664062 -3.79687,1.664062 -0.44532,0 -1.125,-0.04687 0.375,-0.585937 0.375,-0.914062 0,-0.726563 -1.3125,-0.726563 -1.125,0 -4.71094,0.492188 -2.50781,0.351562 -4.14844,0.351562 -2.57812,0 -4.47656,-1.101562 -1.10156,-0.632813 -1.73438,-1.734375 -0.63281,-1.101563 -0.63281,-2.390625 0,-1.453125 0.75,-2.648438 0.77344,-1.21875 2.55469,-2.554687 -1.66406,-1.054688 -2.57813,-2.742188 -0.91406,-1.710937 -0.91406,-3.703125 0,-4.734375 4.75781,-7.546875 3.5625,-2.109375 8.64844,-2.109375 1.125,0 2.34375,0.117188 1.66406,0.140625 2.41406,0.140625 1.85157,0 2.69532,-1.640625 0.49218,-0.984375 1.05468,-0.984375 0.44532,0 0.77344,0.304687 0.32813,0.28125 0.32813,0.703125 0,0.84375 -0.9375,1.664063 -0.9375,0.796875 -2.57813,1.335937 z m -9.21094,2.578125 v 9.914063 q 0,1.78125 0.28125,2.203125 0.46875,0.679687 1.94532,0.679687 1.35937,0 1.80468,-0.632812 0.46875,-0.65625 0.46875,-2.554688 v -9.5625 q 0,-1.59375 -0.46875,-2.132812 -0.44531,-0.539063 -1.78125,-0.539063 -1.33593,0 -1.80468,0.539063 -0.44532,0.539062 -0.44532,2.085937 z"
         id="path1117" /><path
         d="m 316.66504,28.147305 v 7.265625 q 0,2.109375 0.25781,2.671875 0.49219,1.078125 2.32031,1.078125 2.71875,0 5.36719,-1.476563 2.67188,-1.5 4.61719,-4.125 0.63281,-0.867187 0.91406,-1.101562 0.28125,-0.234375 0.60938,-0.234375 0.39843,0 0.65625,0.304687 0.25781,0.28125 0.25781,0.726563 0,0.984375 -1.57031,2.648437 -2.0625,2.132813 -5.13282,3.46875 -3.04687,1.335938 -5.95312,1.335938 -4.99219,0 -8.8125,-3.351563 -2.22656,-1.96875 -3.42188,-4.851562 -1.05468,-2.53125 -1.05468,-5.0625 0,-2.4375 0.9375,-4.875 0.9375,-2.460938 2.57812,-4.242188 1.89844,-2.085937 4.5,-3.234375 2.55469,-1.125 5.34375,-1.125 4.33594,0 7.85156,2.554688 5.48438,3.984375 5.4375,11.554687 h -5.46093 l -7.03125,0.02344 z m 6,-1.546875 v -6.84375 q -0.0469,-2.203125 -0.0937,-2.625 -0.0469,-0.445313 -0.32813,-0.820313 -0.65625,-0.914062 -2.67187,-0.914062 -2.0625,0 -2.57813,1.054687 -0.32812,0.632813 -0.32812,3.304688 v 6.84375 l 2.85937,0.09375 z"
         id="path1119" /><path
         d="m 348.02441,21.866055 -0.0469,9 0.0937,9.328125 h -12.02344 l 0.0234,-1.289063 0.0234,-4.78125 0.0703,-8.601562 -0.0937,-9.5625 -0.0234,-1.359375 h 12 v 4.828125 q 2.69531,-2.859375 3.75,-3.609375 2.4375,-1.710938 4.59375,-1.710938 1.3125,0 2.15625,0.5625 0.86719,0.5625 0.86719,1.429688 0,0.679687 -0.51563,1.125 -0.51562,0.445312 -1.28906,0.445312 -0.49219,0 -1.10156,-0.28125 -1.03125,-0.492187 -1.71094,-0.492187 -1.6875,0 -3.25781,1.148437 -1.57031,1.148438 -3.51563,3.820313 z"
         id="path1121" /><path
         d="m 360.65723,35.858242 q 0.46875,0 1.19531,0.703125 1.17187,1.101563 3.32812,1.898438 2.15625,0.773437 4.03125,0.773437 0.86719,0 1.28907,-0.28125 0.44531,-0.304687 0.44531,-0.867187 0,-0.5625 -0.60938,-1.335938 -0.58593,-0.796875 -2.64843,-3.023437 -5.03907,-5.390625 -6.53907,-7.570313 -1.47656,-2.203125 -1.47656,-4.21875 0,-1.757812 1.00781,-3.351562 1.03125,-1.617188 2.85938,-2.742188 3.02344,-1.875 6.9375,-1.875 2.88281,0 6.09375,1.21875 2.50781,0.960938 2.50781,2.085938 0,0.351562 -0.30469,0.632812 -0.28125,0.28125 -0.65625,0.28125 -0.44531,0 -1.66406,-0.867187 -2.48437,-1.78125 -5.41406,-1.78125 -1.03125,0 -1.57031,0.328125 -0.51563,0.328125 -0.51563,1.007812 0,0.796875 0.96094,2.015625 0.98437,1.21875 3.96094,4.125 2.90625,2.835938 3.67968,3.726563 0.79688,0.867187 1.52344,2.015625 1.24219,1.96875 1.24219,4.265625 0,3.609375 -3.49219,5.835937 -2.85937,1.851563 -7.03125,1.851563 -4.64062,0 -8.22656,-2.0625 -1.05469,-0.632813 -1.45313,-1.03125 -0.375,-0.398438 -0.375,-0.867188 0,-0.867187 0.91407,-0.890625 z"
         id="path1123" /></g><g
       aria-label="Description:"
       id="text733"
       style="font-size:7.05556px;line-height:0px;font-family:Broadway;-inkscape-font-specification:Broadway;opacity:1;vector-effect:none;stroke-width:0.264583;stop-color:#000000;stop-opacity:1"><path
         d="m 4.7016462,116.51791 h 1.8121214 q 0.7096901,0 1.0679802,0.0689 0.8853902,0.16881 1.4297156,0.94396 0.4271921,0.60978 0.4271921,1.34359 0,0.74758 -0.4409725,1.36081 -0.530545,0.74069 -1.3849293,0.91984 -0.2204862,0.0448 -0.3927411,0.0551 -0.1722549,0.0103 -0.7579215,0.0103 H 4.7119815 l 0.010335,-2.27377 z m 2.1049547,0.22048 -0.017226,2.76986 0.020671,1.49173 q 0.4616431,-0.003 0.6614587,-0.0344 0.2032608,-0.0345 0.4650882,-0.14814 0.6166725,-0.26527 0.9680725,-0.85438 0.3066137,-0.50643 0.3066137,-1.09555 0,-0.64078 -0.3617353,-1.17822 -0.6442333,-0.95429 -1.9085841,-0.95429 z"
         id="path1074" /><path
         d="m 11.3748,119.44969 v 1.06798 q 0,0.31006 0.0379,0.39274 0.07235,0.15847 0.341065,0.15847 0.399631,0 0.788927,-0.21704 0.392742,-0.22049 0.678685,-0.60634 0.09302,-0.12746 0.134358,-0.16192 0.04134,-0.0344 0.08957,-0.0344 0.05857,0 0.09646,0.0448 0.0379,0.0413 0.0379,0.1068 0,0.14469 -0.230822,0.38929 -0.303168,0.31351 -0.754476,0.50988 -0.447863,0.19637 -0.875055,0.19637 -0.733806,0 -1.295357,-0.49265 -0.327284,-0.28939 -0.5029839,-0.71314 -0.1550294,-0.37207 -0.1550294,-0.74414 0,-0.35829 0.1378039,-0.71658 0.1378034,-0.36173 0.3789604,-0.62356 0.279053,-0.30661 0.661459,-0.47542 0.375516,-0.16537 0.785482,-0.16537 0.637343,0 1.154108,0.37552 0.806153,0.58566 0.799263,1.69843 h -0.802708 l -1.033529,0.003 z m 0.881945,-0.22738 v -1.00597 q -0.0069,-0.32384 -0.01378,-0.38585 -0.0069,-0.0655 -0.04823,-0.12058 -0.09646,-0.13436 -0.392742,-0.13436 -0.303168,0 -0.37896,0.15503 -0.04823,0.093 -0.04823,0.48576 v 1.00597 l 0.420302,0.0138 z"
         id="path1076" /><path
         d="m 14.161884,120.58312 q 0.0689,0 0.1757,0.10336 0.172254,0.16192 0.489203,0.27905 0.316949,0.11369 0.592557,0.11369 0.127469,0 0.189481,-0.0413 0.06546,-0.0448 0.06546,-0.12747 0,-0.0827 -0.08957,-0.19637 -0.08613,-0.11714 -0.389296,-0.44442 -0.740696,-0.79237 -0.961182,-1.11277 -0.217041,-0.32384 -0.217041,-0.62011 0,-0.25839 0.148139,-0.49265 0.151584,-0.23772 0.420302,-0.40308 0.444417,-0.27561 1.019749,-0.27561 0.423747,0 0.895725,0.17915 0.368625,0.14125 0.368625,0.30661 0,0.0517 -0.04479,0.093 -0.04134,0.0413 -0.09646,0.0413 -0.06546,0 -0.244602,-0.12747 -0.36518,-0.26183 -0.795817,-0.26183 -0.151584,0 -0.230822,0.0482 -0.07579,0.0482 -0.07579,0.14813 0,0.11714 0.141249,0.29628 0.144694,0.17915 0.582222,0.60634 0.427192,0.41686 0.54088,0.54777 0.117133,0.12747 0.223931,0.29628 0.182591,0.28939 0.182591,0.62701 0,0.53054 -0.51332,0.85783 -0.420302,0.27216 -1.033529,0.27216 -0.68213,0 -1.20923,-0.30317 -0.155029,-0.093 -0.213596,-0.15158 -0.05512,-0.0586 -0.05512,-0.12747 0,-0.12747 0.134359,-0.13092 z"
         id="path1078" /><path
         d="m 19.236512,118.20601 v 2.30132 l -0.0034,0.22049 q 0,0.21359 0.05168,0.28594 0.05512,0.0689 0.217041,0.0689 0.406522,0 0.799263,-0.24804 0.392741,-0.2515 0.640788,-0.6718 0.07579,-0.12747 0.148139,-0.12747 0.05168,0 0.09302,0.0482 0.04479,0.0448 0.04479,0.0965 0,0.12402 -0.199816,0.3514 -0.199815,0.22393 -0.465088,0.40307 -0.54088,0.36174 -1.157553,0.36174 -0.844049,0 -1.395264,-0.52366 -0.627008,-0.58911 -0.627008,-1.44349 0,-0.88195 0.661459,-1.46761 0.55466,-0.4961 1.367703,-0.4961 0.647679,0 1.133438,0.30662 0.206705,0.13091 0.337619,0.28249 0.130914,0.14814 0.130914,0.2515 0,0.0517 -0.0379,0.0896 -0.0379,0.0344 -0.09302,0.0344 -0.07235,0 -0.18259,-0.16537 -0.158474,-0.23082 -0.499539,-0.39963 -0.341065,-0.17225 -0.644233,-0.17225 -0.203261,0 -0.261828,0.11369 -0.05857,0.11369 -0.05857,0.49954 z"
         id="path1080" /><path
         d="m 23.353405,118.5264 -0.0069,1.32292 0.01378,1.37115 H 21.59296 l 0.0034,-0.18948 0.0034,-0.7028 0.01034,-1.26435 -0.01378,-1.4056 -0.0034,-0.19982 h 1.76389 v 0.70969 q 0.396186,-0.4203 0.551215,-0.53055 0.358291,-0.25149 0.67524,-0.25149 0.192925,0 0.316949,0.0827 0.127468,0.0827 0.127468,0.21015 0,0.0999 -0.07579,0.16536 -0.07579,0.0655 -0.18948,0.0655 -0.07235,0 -0.16192,-0.0413 -0.151584,-0.0724 -0.251492,-0.0724 -0.248047,0 -0.478869,0.16881 -0.230821,0.16881 -0.516764,0.56155 z"
         id="path1082" /><path
         d="m 26.202501,116.25264 q 0.909506,0 0.909506,0.47542 0,0.23082 -0.241157,0.36173 -0.237712,0.12747 -0.671794,0.12747 -0.86472,0 -0.86472,-0.4892 0,-0.46853 0.868165,-0.47542 z m 0.89228,1.20578 v 0.0999 l -0.0069,0.53743 -0.0069,0.83372 -0.01034,1.26779 0.01378,0.71314 0.0069,0.31006 h -1.77078 l 0.01722,-1.2678 0.01034,-1.11966 -0.0069,-0.58911 -0.01034,-0.65457 0.0034,-0.13091 z"
         id="path1084" /><path
         d="m 27.911269,117.45842 h 1.760445 l -0.01034,0.45131 q 0.347955,-0.29973 0.637343,-0.4203 0.289388,-0.12403 0.637343,-0.12403 0.713136,0 1.157553,0.53055 0.399631,0.47542 0.399631,1.20923 0,0.78203 -0.458198,1.28502 -0.423747,0.46509 -1.057645,0.46509 -0.334174,0 -0.664903,-0.13781 -0.33073,-0.14125 -0.658014,-0.4203 l 0.0034,0.12747 0.0034,0.45131 0.0069,0.37551 0.0034,0.12747 h -1.760445 l 0.0034,-0.98185 0.0069,-0.91295 -0.01034,-1.90514 z m 1.75011,0.76137 v 1.79834 q 0.251492,0.23426 0.451308,0.35484 0.199816,0.11714 0.347955,0.11714 0.137804,0 0.161919,-0.13436 0.0069,-0.0448 0.01034,-0.46509 v -1.68465 q 0,-0.29973 -0.01034,-0.35829 -0.02412,-0.1447 -0.144694,-0.1447 -0.155029,0 -0.375515,0.14125 -0.220487,0.1378 -0.440973,0.37552 z"
         id="path1086" /><path
         d="m 34.84625,116.24575 -0.0379,1.11276 -0.0034,0.1068 q 0.299723,0 0.544325,-0.0241 0.04134,-0.003 0.07235,-0.003 0.151585,0 0.151585,0.1378 0,0.12747 -0.158475,0.12747 -0.04823,0 -0.120578,-0.007 -0.272163,-0.0207 -0.389296,-0.0207 h -0.09991 l -0.0034,0.66835 0.01378,1.34014 0.01033,0.71658 q 0,0.2515 0.0379,0.3514 0.0379,0.0999 0.130913,0.0999 0.124024,0 0.265273,-0.14469 0.137804,-0.1447 0.217041,-0.35485 0.07235,-0.19981 0.172255,-0.19981 0.117133,0 0.117133,0.13091 0,0.13091 -0.117133,0.32728 -0.117133,0.19293 -0.282498,0.33762 -0.406522,0.35485 -1.0542,0.35485 -0.609782,0 -0.943957,-0.36863 -0.172255,-0.18603 -0.237712,-0.41341 -0.06546,-0.23082 -0.06546,-0.63734 v -0.25838 l 0.0034,-0.72692 v -1.23334 q -0.04823,-0.003 -0.0689,-0.003 -0.03445,0 -0.137804,0.007 -0.08613,0.007 -0.144694,0.007 -0.16881,0 -0.16881,-0.12747 0,-0.12402 0.161919,-0.12402 0.07579,0 0.106799,0.003 l 0.251492,0.0172 v -0.3893 q 1.019749,-0.36862 1.77767,-0.80959 z"
         id="path1088" /><path
         d="m 36.882303,116.25264 q 0.909506,0 0.909506,0.47542 0,0.23082 -0.241157,0.36173 -0.237712,0.12747 -0.671794,0.12747 -0.86472,0 -0.86472,-0.4892 0,-0.46853 0.868165,-0.47542 z m 0.89228,1.20578 v 0.0999 l -0.0069,0.53743 -0.0069,0.83372 -0.01034,1.26779 0.01378,0.71314 0.0069,0.31006 h -1.77078 l 0.01723,-1.2678 0.01034,-1.11966 -0.0069,-0.58911 -0.01034,-0.65457 0.0034,-0.13091 z"
         id="path1090" /><path
         d="m 40.313622,117.3654 q 0.554661,0 1.050755,0.30662 0.458198,0.28249 0.699355,0.7717 0.213596,0.43064 0.213596,0.91295 0,0.33073 -0.127469,0.6649 -0.124023,0.33418 -0.341064,0.59256 -0.303169,0.35484 -0.740696,0.53399 -0.358291,0.14814 -0.747587,0.14814 -0.651123,0 -1.171333,-0.38585 -0.406521,-0.29628 -0.616672,-0.76137 -0.1757,-0.39274 -0.1757,-0.83027 0,-0.85438 0.620117,-1.41938 0.582222,-0.52365 1.336698,-0.53399 z m -0.09991,0.22393 -0.01034,3.47266 q 0.106798,0.007 0.148139,0.007 0.478869,0 0.916396,-0.26872 0.420302,-0.26182 0.630453,-0.69591 0.165365,-0.3445 0.165365,-0.75792 0,-0.83027 -0.613228,-1.34703 -0.496094,-0.41686 -1.078315,-0.41686 -0.04823,0 -0.158475,0.007 z"
         id="path1092" /><path
         d="m 44.582098,117.45842 v 0.47887 q 0.403077,-0.28594 0.788927,-0.42719 0.385851,-0.1447 0.751032,-0.1447 0.489204,0 0.826823,0.22393 0.254937,0.16881 0.341065,0.42031 0.08957,0.24804 0.08957,0.81304 l -0.0069,1.59508 0.01034,0.80271 h -1.753555 l 0.01378,-0.95774 0.01033,-0.7028 -0.0034,-1.06109 q -0.0034,-0.36863 -0.01033,-0.43753 -0.0034,-0.0724 -0.03101,-0.12747 -0.05512,-0.11024 -0.237712,-0.11024 -0.168809,0 -0.36518,0.0965 -0.19637,0.0965 -0.423747,0.28939 l -0.0034,0.14125 -0.0069,0.96807 -0.0069,0.7407 0.01034,1.01286 0.0034,0.14814 h -1.760445 l 0.01034,-1.35048 0.01034,-0.89228 -0.01034,-0.7717 -0.01034,-0.74759 z"
         id="path1094" /><path
         d="m 49.067614,119.7942 q 0.458198,0 0.73725,0.20326 0.279053,0.20326 0.279053,0.54432 0,0.34796 -0.282498,0.56844 -0.282498,0.21704 -0.733805,0.21704 -0.568442,0 -0.85094,-0.31694 -0.165364,-0.18604 -0.165364,-0.43409 0,-0.3514 0.275608,-0.56155 0.275607,-0.21359 0.740696,-0.22048 z m 0,-1.97404 q 0.458198,0 0.73725,0.20326 0.279053,0.20326 0.279053,0.54432 0,0.34796 -0.282498,0.56844 -0.282498,0.21704 -0.733805,0.21704 -0.568442,0 -0.85094,-0.31695 -0.165364,-0.18603 -0.165364,-0.43408 0,-0.3514 0.275608,-0.56155 0.275607,-0.21359 0.740696,-0.22048 z"
         id="path1096" /></g><g
       aria-label="Force the opposing player to discard their entire hand. Discard this card."
       transform="matrix(0.27431353,0,0,0.27431353,-0.8676689,-4.702566)"
       id="text855"
       style="font-size:23.1487px;line-height:23.1487px;font-family:Broadway;-inkscape-font-specification:Broadway;white-space:pre;shape-inside:url(#rect857);display:inline;opacity:1;vector-effect:none;stroke-width:0.999999;stop-color:#000000;stop-opacity:1"><path
         d="M 21.964457,473.58602 H 34.02484 l 1.458097,4.13692 -0.983368,0.373 q -0.621669,-1.44679 -1.220732,-2.07976 -0.599063,-0.63297 -1.390279,-0.90425 -0.791215,-0.27127 -2.486676,-0.27127 h -3.402226 v 6.05845 h 1.548521 q 1.220732,0 1.751977,-0.23737 0.531244,-0.23736 0.813821,-0.746 0.282577,-0.51994 0.282577,-1.4694 v -0.41821 h 1.107702 v 6.91748 h -1.107702 v -0.61037 q 0,-0.89294 -0.271274,-1.39028 -0.271273,-0.49733 -0.746003,-0.71209 -0.463426,-0.22606 -1.661552,-0.22606 h -1.718067 v 4.90553 q 0,0.67819 0.135636,0.94946 0.14694,0.25997 0.418214,0.40691 0.282577,0.13564 0.994671,0.13564 h 0.418214 v 0.94946 h -6.001934 v -0.94946 h 0.384305 q 0.723397,0 0.994671,-0.13564 0.282576,-0.13563 0.40691,-0.41821 0.135637,-0.29388 0.135637,-1.05119 v -10.72662 q 0,-0.70079 -0.124334,-0.98336 -0.124333,-0.28258 -0.384304,-0.40692 -0.248668,-0.13563 -0.88164,-0.13563 h -0.531245 z"
         style="font-family:'Bookman Old Style';-inkscape-font-specification:'Bookman Old Style'"
         id="path947" /><path
         d="m 42.095237,478.17507 q 1.661552,0 2.870981,0.68948 1.220733,0.68949 1.921523,2.01195 0.700791,1.32246 0.700791,3.01792 0,1.69546 -0.723397,3.01792 -0.712094,1.32246 -1.955432,2.02325 -1.232035,0.68949 -2.950103,0.68949 -2.735345,0 -4.11432,-1.70676 -1.367672,-1.70677 -1.367672,-4.01259 0,-1.68416 0.712094,-2.98402 0.712093,-1.31115 1.989341,-2.02325 1.288551,-0.72339 2.916194,-0.72339 z m -0.09042,1.09639 q -1.288551,0 -2.181494,1.01728 -1.130307,1.26595 -1.130307,3.6848 0,2.32844 0.960761,3.54917 0.870337,1.0851 2.362343,1.0851 0.960762,0 1.706765,-0.50864 0.757306,-0.50864 1.220732,-1.61634 0.463426,-1.11901 0.463426,-2.62232 0,-1.4694 -0.497335,-2.63361 -0.384305,-0.92686 -1.164217,-1.43549 -0.768609,-0.51995 -1.740674,-0.51995 z"
         style="font-family:'Bookman Old Style';-inkscape-font-specification:'Bookman Old Style'"
         id="path949" /><path
         d="m 49.329206,480.06268 v -0.92685 q 0.825125,-0.0678 1.4694,-0.27128 0.644275,-0.21476 1.4694,-0.68948 h 0.847731 v 2.13628 q 0.802518,-0.98337 1.865007,-1.55983 1.06249,-0.57645 1.91022,-0.57645 0.836428,0 1.32246,0.3956 0.486033,0.39561 0.486033,0.96076 0,0.40692 -0.32779,0.7234 -0.316486,0.30518 -0.768609,0.30518 -0.203455,0 -0.350395,-0.0565 -0.14694,-0.0565 -0.429517,-0.24867 -0.621669,-0.40691 -1.039883,-0.40691 -0.565154,0 -1.243339,0.47473 -0.859033,0.61037 -1.345066,1.19813 v 5.21071 q 0,0.67819 0.06782,0.92686 0.07912,0.23736 0.248667,0.41821 0.169547,0.16955 0.418214,0.24867 0.248668,0.0791 0.870337,0.0791 h 0.373002 v 0.94946 h -5.843691 v -0.94946 h 0.486032 q 0.689488,0 0.904247,-0.12433 0.29388,-0.16955 0.429517,-0.46343 0.146939,-0.30518 0.146939,-1.0851 v -6.66881 z"
         style="font-family:'Bookman Old Style';-inkscape-font-specification:'Bookman Old Style'"
         id="path951" /><path
         d="m 69.527803,486.20025 0.723396,0.58776 q -2.124978,2.83707 -5.097687,2.83707 -2.317131,0 -3.910865,-1.65025 -1.593733,-1.65025 -1.593733,-4.10301 0,-1.63895 0.7347,-2.9388 0.746003,-1.31116 2.05716,-2.03456 1.32246,-0.72339 3.029224,-0.72339 1.944129,0 3.243983,0.96076 1.299854,0.94946 1.299854,1.92152 0,0.51994 -0.305183,0.80252 -0.305183,0.28258 -0.689488,0.28258 -0.203455,0 -0.395608,-0.10173 -0.192152,-0.10173 -0.395607,-0.32779 -0.09042,-0.10173 -0.327789,-0.63297 -0.305184,-0.65558 -0.47473,-0.88164 -0.350395,-0.45213 -0.870337,-0.7121 -0.508638,-0.25997 -1.14161,-0.25997 -0.960762,0 -1.785886,0.53125 -0.813822,0.53124 -1.299854,1.57112 -0.474729,1.02858 -0.474729,2.46407 0,2.22671 1.186823,3.53787 1.02858,1.13031 2.452767,1.13031 0.655579,0 1.32246,-0.21476 0.678185,-0.22606 1.277248,-0.65558 0.44082,-0.30518 1.435491,-1.39028 z"
         style="font-family:'Bookman Old Style';-inkscape-font-specification:'Bookman Old Style'"
         id="path953" /><path
         d="m 81.249093,486.43761 0.723397,0.58776 q -0.825124,0.98337 -1.605037,1.55983 -0.768609,0.57646 -1.458096,0.80252 -0.689488,0.23736 -1.61634,0.23736 -1.661553,0 -2.82577,-0.67818 -1.333763,-0.77991 -2.045856,-2.03456 -0.712094,-1.25464 -0.712094,-2.9614 0,-1.78589 0.689487,-3.05183 0.689488,-1.26595 1.921523,-1.98934 1.243339,-0.7347 2.870982,-0.7347 1.209429,0 2.102372,0.3843 0.892943,0.373 1.514612,1.14161 0.62167,0.75731 0.904247,1.74067 0.158243,0.57646 0.180849,1.49201 h -7.991275 q -0.03391,0.55385 -0.03391,0.82513 0,1.42418 0.497336,2.54319 0.497335,1.1077 1.311157,1.63894 0.825124,0.51995 1.865007,0.51995 0.88164,0 1.706765,-0.40692 0.825124,-0.41821 2.000644,-1.61634 z M 79.8023,481.87117 q -0.169547,-1.03988 -0.486033,-1.53722 -0.305183,-0.49733 -0.88164,-0.79121 -0.565154,-0.29388 -1.277247,-0.29388 -0.712094,0 -1.333763,0.29388 -0.62167,0.29388 -1.039883,0.81382 -0.406911,0.51994 -0.712094,1.51461 z"
         style="font-family:'Bookman Old Style';-inkscape-font-specification:'Bookman Old Style'"
         id="path955" /><path
         d="m 93.987665,474.60329 h 0.802518 v 3.84305 h 3.357014 v 1.13031 h -3.357014 v 6.81575 q 0,0.87034 0.14694,1.24334 0.158243,0.373 0.519942,0.61037 0.373001,0.23736 0.825124,0.23736 1.073792,0 2.373646,-0.96076 v 1.0964 q -1.480703,1.00597 -2.995315,1.00597 -0.859034,0 -1.559825,-0.3843 -0.689487,-0.38431 -0.949458,-0.90425 -0.248668,-0.51994 -0.248668,-1.80849 v -6.95139 h -1.978038 v -0.94946 q 0.949458,-0.21476 1.525915,-0.66688 0.58776,-0.45213 0.949459,-1.17552 0.361698,-0.7234 0.58776,-2.1815 z"
         style="font-family:'Bookman Old Style';-inkscape-font-specification:'Bookman Old Style'"
         id="path957" /><path
         d="m 99.808748,474.69372 v -0.97207 q 1.096402,-0.14694 1.706762,-0.33909 0.61037,-0.20345 1.27725,-0.61037 h 0.88164 v 7.47134 q 1.27725,-1.07379 2.41886,-1.57113 1.14161,-0.49733 2.18149,-0.49733 1.51461,0 2.49798,0.90424 0.97207,0.90425 0.97207,2.2041 v 5.54981 q 0,0.82513 0.12433,1.0851 0.13564,0.24867 0.44082,0.373 0.30518,0.11303 1.36767,0.11303 v 0.94946 h -5.83238 v -0.94946 h 0.42951 q 0.82513,0 1.0851,-0.12433 0.25997,-0.13564 0.373,-0.42952 0.12433,-0.30518 0.12433,-1.24334 v -3.85435 q 0,-1.27725 -0.0904,-1.66155 -0.16955,-0.65558 -0.70079,-1.05119 -0.53125,-0.3956 -1.35637,-0.3956 -0.92685,0 -1.94413,0.46342 -1.00597,0.45212 -2.09107,1.36767 v 5.66285 q 0,0.63297 0.11303,0.84773 0.11303,0.21475 0.373,0.31648 0.25997,0.10173 1.03989,0.10173 h 0.46342 v 0.94946 h -5.854992 v -0.94946 h 0.350392 q 0.82513,0 1.19813,-0.20346 0.20346,-0.10172 0.29388,-0.3956 0.0904,-0.29388 0.0904,-1.62765 v -11.48392 z"
         style="font-family:'Bookman Old Style';-inkscape-font-specification:'Bookman Old Style'"
         id="path959" /><path
         d="m 124.76594,486.43761 0.7234,0.58776 q -0.82512,0.98337 -1.60504,1.55983 -0.76861,0.57646 -1.45809,0.80252 -0.68949,0.23736 -1.61634,0.23736 -1.66156,0 -2.82577,-0.67818 -1.33377,-0.77991 -2.04586,-2.03456 -0.71209,-1.25464 -0.71209,-2.9614 0,-1.78589 0.68948,-3.05183 0.68949,-1.26595 1.92153,-1.98934 1.24334,-0.7347 2.87098,-0.7347 1.20943,0 2.10237,0.3843 0.89294,0.373 1.51461,1.14161 0.62167,0.75731 0.90425,1.74067 0.15824,0.57646 0.18085,1.49201 h -7.99128 q -0.0339,0.55385 -0.0339,0.82513 0,1.42418 0.49734,2.54319 0.49733,1.1077 1.31116,1.63894 0.82512,0.51995 1.865,0.51995 0.88164,0 1.70677,-0.40692 0.82512,-0.41821 2.00064,-1.61634 z m -1.44679,-4.56644 q -0.16955,-1.03988 -0.48603,-1.53722 -0.30519,-0.49733 -0.88164,-0.79121 -0.56516,-0.29388 -1.27725,-0.29388 -0.71209,0 -1.33376,0.29388 -0.62167,0.29388 -1.03989,0.81382 -0.40691,0.51994 -0.71209,1.51461 z"
         style="font-family:'Bookman Old Style';-inkscape-font-specification:'Bookman Old Style'"
         id="path961" /><path
         d="m 140.23985,478.17507 q 1.66156,0 2.87099,0.68948 1.22073,0.68949 1.92152,2.01195 0.70079,1.32246 0.70079,3.01792 0,1.69546 -0.7234,3.01792 -0.71209,1.32246 -1.95543,2.02325 -1.23203,0.68949 -2.9501,0.68949 -2.73535,0 -4.11432,-1.70676 -1.36767,-1.70677 -1.36767,-4.01259 0,-1.68416 0.71209,-2.98402 0.71209,-1.31115 1.98934,-2.02325 1.28855,-0.72339 2.91619,-0.72339 z m -0.0904,1.09639 q -1.28855,0 -2.18149,1.01728 -1.13031,1.26595 -1.13031,3.6848 0,2.32844 0.96076,3.54917 0.87034,1.0851 2.36234,1.0851 0.96076,0 1.70677,-0.50864 0.7573,-0.50864 1.22073,-1.61634 0.46343,-1.11901 0.46343,-2.62232 0,-1.4694 -0.49734,-2.63361 -0.3843,-0.92686 -1.16422,-1.43549 -0.76861,-0.51995 -1.74067,-0.51995 z"
         style="font-family:'Bookman Old Style';-inkscape-font-specification:'Bookman Old Style'"
         id="path963" /><path
         d="m 147.3834,480.06268 v -0.92685 q 0.84773,0 1.50331,-0.21476 0.65558,-0.21476 1.43549,-0.746 h 0.89294 v 1.88761 q 1.41289,-1.11901 2.35104,-1.50331 0.93816,-0.3843 1.87631,-0.3843 1.93283,0 3.2892,1.51461 1.36767,1.51461 1.36767,3.94477 0,2.69013 -1.54852,4.4082 -1.41288,1.58243 -3.63959,1.58243 -1.1077,0 -2.07977,-0.41821 -0.70079,-0.29388 -1.61634,-1.05119 v 3.71871 q 0,0.83643 0.0452,0.98337 0.0565,0.21476 0.22606,0.3617 0.16954,0.14694 0.42951,0.19215 0.19216,0.0339 1.28855,0.0339 v 0.94946 h -5.82108 v -0.94946 h 0.50864 q 0.77991,0 1.00597,-0.12433 0.23737,-0.11303 0.3504,-0.3617 0.0678,-0.19215 0.0678,-1.17552 v -11.72129 z m 3.83174,1.16422 v 3.88825 q 0,0.76861 0.0904,1.14162 0.13564,0.57645 0.51994,1.03988 0.39561,0.46342 1.06249,0.79121 0.67818,0.32779 1.41288,0.32779 1.4694,0 2.5432,-1.1077 1.08509,-1.1077 1.08509,-3.35701 0,-2.10237 -0.89294,-3.24399 -0.89295,-1.15291 -2.11368,-1.15291 -0.79121,0 -1.71807,0.41821 -0.92685,0.41822 -1.98934,1.25465 z"
         style="font-family:'Bookman Old Style';-inkscape-font-specification:'Bookman Old Style'"
         id="path965" /><path
         d="m 161.7383,480.06268 v -0.92685 q 0.84774,0 1.50331,-0.21476 0.65558,-0.21476 1.43549,-0.746 h 0.89295 v 1.88761 q 1.41288,-1.11901 2.35104,-1.50331 0.93815,-0.3843 1.87631,-0.3843 1.93282,0 3.28919,1.51461 1.36768,1.51461 1.36768,3.94477 0,2.69013 -1.54853,4.4082 -1.41288,1.58243 -3.63959,1.58243 -1.1077,0 -2.07976,-0.41821 -0.70079,-0.29388 -1.61634,-1.05119 v 3.71871 q 0,0.83643 0.0452,0.98337 0.0565,0.21476 0.22606,0.3617 0.16955,0.14694 0.42952,0.19215 0.19215,0.0339 1.28855,0.0339 v 0.94946 h -5.82109 v -0.94946 h 0.50864 q 0.77992,0 1.00598,-0.12433 0.23736,-0.11303 0.35039,-0.3617 0.0678,-0.19215 0.0678,-1.17552 v -11.72129 z m 3.83175,1.16422 v 3.88825 q 0,0.76861 0.0904,1.14162 0.13564,0.57645 0.51994,1.03988 0.39561,0.46342 1.06249,0.79121 0.67819,0.32779 1.41289,0.32779 1.4694,0 2.54319,-1.1077 1.0851,-1.1077 1.0851,-3.35701 0,-2.10237 -0.89295,-3.24399 -0.89294,-1.15291 -2.11367,-1.15291 -0.79122,0 -1.71807,0.41821 -0.92685,0.41822 -1.98934,1.25465 z"
         style="font-family:'Bookman Old Style';-inkscape-font-specification:'Bookman Old Style'"
         id="path967" /><path
         d="m 181.91429,478.17507 q 1.66156,0 2.87098,0.68948 1.22074,0.68949 1.92153,2.01195 0.70079,1.32246 0.70079,3.01792 0,1.69546 -0.7234,3.01792 -0.71209,1.32246 -1.95543,2.02325 -1.23204,0.68949 -2.9501,0.68949 -2.73535,0 -4.11432,-1.70676 -1.36768,-1.70677 -1.36768,-4.01259 0,-1.68416 0.7121,-2.98402 0.71209,-1.31115 1.98934,-2.02325 1.28855,-0.72339 2.91619,-0.72339 z m -0.0904,1.09639 q -1.28855,0 -2.1815,1.01728 -1.1303,1.26595 -1.1303,3.6848 0,2.32844 0.96076,3.54917 0.87034,1.0851 2.36234,1.0851 0.96076,0 1.70677,-0.50864 0.7573,-0.50864 1.22073,-1.61634 0.46342,-1.11901 0.46342,-2.62232 0,-1.4694 -0.49733,-2.63361 -0.38431,-0.92686 -1.16422,-1.43549 -0.76861,-0.51995 -1.74067,-0.51995 z"
         style="font-family:'Bookman Old Style';-inkscape-font-specification:'Bookman Old Style'"
         id="path969" /><path
         d="m 196.82305,478.44634 h 0.79122 l 1.01727,3.45874 -1.01727,0.33909 q -0.61037,-1.39028 -1.71807,-2.18149 -1.0964,-0.80252 -2.22671,-0.80252 -0.87033,0 -1.41288,0.42952 -0.54255,0.41821 -0.54255,0.97206 0,0.51994 0.39561,0.89295 0.3843,0.3843 1.72937,0.87033 l 2.2041,0.77991 q 1.86501,0.66689 2.54319,1.42419 0.66688,0.76861 0.66688,1.74068 0,0.82512 -0.49733,1.59373 -0.49734,0.75731 -1.4468,1.20943 -0.93815,0.45212 -2.15888,0.45212 -1.89892,0 -3.25529,-1.08509 l -0.23736,0.81382 h -0.80252 l -1.41289,-3.69611 1.02858,-0.40691 q 1.02858,1.62764 1.94413,2.30583 1.27725,0.96076 2.75795,0.96076 0.98337,0 1.61634,-0.51994 0.63298,-0.53125 0.63298,-1.17552 0,-0.53125 -0.39561,-0.97207 -0.40691,-0.42951 -1.55983,-0.83642 l -2.61101,-0.94946 q -1.68416,-0.61037 -2.33973,-1.33376 -0.65558,-0.7234 -0.65558,-1.66156 0,-1.14161 1.06249,-2.01194 1.07379,-0.88164 2.72404,-0.88164 0.85903,0 1.53722,0.22606 0.67818,0.21476 1.33376,0.72339 z"
         style="font-family:'Bookman Old Style';-inkscape-font-specification:'Bookman Old Style'"
         id="path971" /><path
         d="m 204.00051,473.07738 q 0.54255,0 0.92685,0.3843 0.38431,0.373 0.38431,0.91555 0,0.54255 -0.38431,0.92685 -0.3843,0.38431 -0.92685,0.38431 -0.54255,0 -0.92685,-0.38431 -0.38431,-0.3843 -0.38431,-0.92685 0,-0.54255 0.38431,-0.91555 0.3843,-0.3843 0.92685,-0.3843 z m -2.88228,6.9966 v -0.93815 q 0.93815,-0.11303 1.57112,-0.31649 0.64428,-0.20345 1.4581,-0.64427 h 0.82513 v 9.06506 q 0,0.47473 0.13563,0.7121 0.13564,0.23736 0.373,0.35039 0.24867,0.10173 0.89295,0.10173 h 0.53124 v 0.94946 h -5.78717 v -0.94946 h 0.46342 q 0.75731,0 1.01728,-0.13564 0.25997,-0.13563 0.3617,-0.3843 0.11303,-0.24867 0.11303,-1.16422 v -6.64621 z"
         style="font-family:'Bookman Old Style';-inkscape-font-specification:'Bookman Old Style'"
         id="path973" /><path
         d="m 208.16003,480.07398 v -0.94946 q 1.00598,-0.11303 1.50331,-0.27127 0.49734,-0.15824 1.43549,-0.67818 h 0.81382 v 2.14758 q 1.49201,-1.25464 2.5432,-1.69546 1.06249,-0.45212 2.14758,-0.45212 0.92685,0 1.63895,0.31648 0.71209,0.30518 1.15291,0.83643 0.45212,0.53124 0.59906,1.20943 0.0904,0.41821 0.0904,1.26594 v 4.97336 q 0,0.89294 0.12433,1.15291 0.13564,0.24867 0.41822,0.3617 0.28257,0.11303 1.39027,0.11303 v 0.94946 h -5.82108 v -0.94946 h 0.31649 q 0.81382,0 1.1077,-0.14694 0.29388,-0.14694 0.41821,-0.42952 0.13564,-0.28257 0.13564,-1.15291 v -4.15953 q 0,-1.28855 -0.21476,-1.78589 -0.20346,-0.49733 -0.71209,-0.80252 -0.49734,-0.31648 -1.26595,-0.31648 -0.91555,0 -1.95543,0.47473 -1.03988,0.46342 -2.01195,1.37897 v 5.21072 q 0,0.88164 0.12434,1.17552 0.13563,0.29388 0.42951,0.44082 0.20346,0.11303 1.0851,0.11303 h 0.32779 v 0.94946 h -5.82109 v -0.94946 h 0.28258 q 0.83643,0 1.14161,-0.13564 0.30518,-0.14694 0.42952,-0.50864 0.0678,-0.18084 0.0678,-1.24333 v -6.44276 z"
         style="font-family:'Bookman Old Style';-inkscape-font-specification:'Bookman Old Style'"
         id="path975" /><path
         d="m 232.16778,479.33928 q 0.50863,-0.59906 1.02858,-0.88164 0.53124,-0.28257 0.97206,-0.28257 0.40691,0 0.67819,0.24866 0.28257,0.23737 0.28257,0.58776 0,0.3617 -0.24867,0.61037 -0.24866,0.24867 -0.63297,0.24867 -0.15824,0 -0.42951,-0.0565 -0.31649,-0.0791 -0.53125,-0.0791 -0.28258,0 -0.58776,0.25997 0.70079,0.84773 0.70079,1.98934 0,1.55983 -1.31116,2.70144 -1.31115,1.14161 -3.3118,1.14161 -1.1077,0 -2.2267,-0.46343 -0.74601,0.53125 -0.84773,0.65558 -0.15825,0.19215 -0.15825,0.40691 0,0.32779 0.3391,0.54255 0.42951,0.28258 1.69546,0.47473 l 3.26659,0.48603 q 1.08509,0.16955 2.18149,0.56515 1.0964,0.39561 1.58243,1.02858 0.49734,0.63298 0.49734,1.51462 0,1.492 -1.37898,2.38495 -1.75198,1.14161 -5.19941,1.14161 -1.8085,0 -2.9388,-0.38431 -1.13031,-0.3843 -1.75198,-1.08509 -0.45212,-0.50864 -0.45212,-1.05119 0,-0.70079 0.45212,-1.36767 0.46342,-0.66688 2.12498,-1.89892 -1.0738,-0.27127 -1.53722,-0.63297 -0.58776,-0.46343 -0.58776,-1.05119 0,-0.29388 0.10173,-0.54254 0.11303,-0.25998 0.35039,-0.50864 0.24867,-0.25997 0.89294,-0.7121 0.40692,-0.28257 0.57646,-0.41821 -0.82512,-0.58776 -1.24334,-1.31116 -0.41821,-0.7347 -0.41821,-1.60503 0,-1.4355 1.1077,-2.50929 1.34507,-1.31115 3.62829,-1.31115 1.01728,0 1.77458,0.25997 0.75731,0.24866 1.55983,0.90424 z m -3.43614,-0.11303 q -1.1077,0 -1.87631,0.80252 -0.76861,0.80252 -0.76861,1.98934 0,0.79122 0.3504,1.43549 0.35039,0.63297 0.98336,1.00598 0.63298,0.36169 1.33377,0.36169 0.70079,0 1.33376,-0.373 0.64428,-0.373 0.98337,-1.00597 0.35039,-0.63297 0.35039,-1.42419 0,-1.24334 -0.7573,-2.01195 -0.74601,-0.77991 -1.93283,-0.77991 z m -1.79719,9.81107 q -1.08509,0.92685 -1.44679,1.50331 -0.3504,0.57646 -0.3504,1.1077 0,0.45213 0.3504,0.87034 0.3617,0.42952 1.22073,0.70079 0.85903,0.27127 2.15889,0.27127 1.53722,0 2.63361,-0.33909 1.10771,-0.32779 1.58244,-0.84773 0.35039,-0.40691 0.35039,-0.96076 0,-0.47473 -0.29388,-0.80252 -0.28258,-0.32779 -1.08509,-0.57646 -0.79122,-0.23736 -1.48071,-0.35039 z"
         style="font-family:'Bookman Old Style';-inkscape-font-specification:'Bookman Old Style'"
         id="path977" /><path
         d="m 243.22218,480.06268 v -0.92685 q 0.84773,0 1.50331,-0.21476 0.65557,-0.21476 1.43549,-0.746 h 0.89294 v 1.88761 q 1.41288,-1.11901 2.35104,-1.50331 0.93815,-0.3843 1.87631,-0.3843 1.93283,0 3.2892,1.51461 1.36767,1.51461 1.36767,3.94477 0,2.69013 -1.54852,4.4082 -1.41289,1.58243 -3.63959,1.58243 -1.10771,0 -2.07977,-0.41821 -0.70079,-0.29388 -1.61634,-1.05119 v 3.71871 q 0,0.83643 0.0452,0.98337 0.0565,0.21476 0.22606,0.3617 0.16955,0.14694 0.42952,0.19215 0.19215,0.0339 1.28855,0.0339 v 0.94946 h -5.82108 v -0.94946 h 0.50863 q 0.77992,0 1.00598,-0.12433 0.23736,-0.11303 0.35039,-0.3617 0.0678,-0.19215 0.0678,-1.17552 v -11.72129 z m 3.83174,1.16422 v 3.88825 q 0,0.76861 0.0904,1.14162 0.13564,0.57645 0.51995,1.03988 0.3956,0.46342 1.06248,0.79121 0.67819,0.32779 1.41289,0.32779 1.4694,0 2.54319,-1.1077 1.0851,-1.1077 1.0851,-3.35701 0,-2.10237 -0.89295,-3.24399 -0.89294,-1.15291 -2.11367,-1.15291 -0.79122,0 -1.71807,0.41821 -0.92685,0.41822 -1.98934,1.25465 z"
         style="font-family:'Bookman Old Style';-inkscape-font-specification:'Bookman Old Style'"
         id="path979" /><path
         d="m 257.56579,474.64851 v -0.92686 q 1.53722,-0.11303 2.99532,-0.94946 h 0.83643 v 13.91409 q 0,0.88164 0.11303,1.1077 0.14694,0.31649 0.42951,0.46343 0.28258,0.14694 1.0851,0.14694 h 0.3617 v 0.94946 h -5.82109 v -0.94946 h 0.58776 q 0.55385,0 0.82513,-0.16955 0.28257,-0.16954 0.3956,-0.46342 0.12434,-0.29388 0.12434,-1.17552 v -11.94735 z"
         style="font-family:'Bookman Old Style';-inkscape-font-specification:'Bookman Old Style'"
         id="path981" /><path
         d="m 272.75712,482.80933 v -1.23204 q 0,-1.25464 -0.70079,-1.78588 -0.70079,-0.54255 -1.97804,-0.54255 -0.63297,0 -1.1077,0.15824 -0.47473,0.14694 -0.76861,0.41821 -0.28258,0.25998 -0.41822,0.59907 -0.0565,0.12433 -0.27127,0.96076 -0.25997,1.01728 -1.05119,1.01728 -0.45212,0 -0.7347,-0.29388 -0.27127,-0.30519 -0.27127,-0.81383 0,-0.746 0.55385,-1.45809 0.55385,-0.7234 1.68416,-1.18683 1.14161,-0.47472 2.69013,-0.47472 1.44679,0 2.47537,0.45212 1.02858,0.44082 1.51462,1.27725 0.33909,0.57645 0.33909,2.10237 v 4.35168 q 0,0.92686 0.0565,1.20943 0.12434,0.48603 0.42952,0.7347 0.31649,0.23737 0.81382,0.23737 0.51994,0 1.24334,-0.24867 v 0.98337 q -0.93815,0.27127 -1.68416,0.27127 -0.80252,0 -1.35637,-0.22606 -0.54254,-0.22606 -0.89294,-0.65558 -0.35039,-0.44082 -0.45212,-1.03988 -1.35637,1.06249 -2.45277,1.492 -1.0964,0.42952 -2.2154,0.42952 -1.55983,0 -2.53189,-0.84773 -0.97207,-0.84773 -0.97207,-1.98934 0,-0.68949 0.3504,-1.31116 0.3617,-0.62167 1.08509,-1.0964 0.7347,-0.47473 2.29453,-0.83642 1.55982,-0.3617 4.32908,-0.65558 z m 0,0.98336 q -2.62232,0.38431 -3.24399,0.53125 -1.23203,0.28258 -1.76328,0.62167 -0.53124,0.33909 -0.7573,0.7347 -0.22606,0.3843 -0.22606,0.82512 0,0.44082 0.24866,0.85904 0.25998,0.40691 0.7234,0.64427 0.46343,0.23737 0.98337,0.23737 0.7347,0 1.66155,-0.3504 0.92685,-0.35039 2.37365,-1.36767 z"
         style="font-family:'Bookman Old Style';-inkscape-font-specification:'Bookman Old Style'"
         id="path983" /><path
         d="m 277.0975,478.44634 h 5.49329 v 0.94946 h -0.45212 q -0.64427,0 -0.76861,0.0339 -0.14694,0.0452 -0.24867,0.19215 -0.10172,0.13564 -0.10172,0.35039 0,0.30519 0.30518,1.02858 l 2.62231,6.16018 2.43016,-5.8889 q 0.42952,-1.03988 0.42952,-1.37898 0,-0.25997 -0.19215,-0.373 -0.19215,-0.12433 -0.87034,-0.12433 h -0.53124 v -0.94946 h 4.62296 v 0.94946 h -0.27128 q -0.67818,0 -0.88164,0.0904 -0.20345,0.0904 -0.39561,0.373 -0.19215,0.27128 -0.61036,1.25465 l -4.14823,9.66413 q -0.45212,1.03988 -1.00597,1.92152 -0.55386,0.89294 -1.39028,1.37897 -0.83643,0.48604 -1.8424,0.48604 -1.16422,0 -1.86501,-0.53125 -0.59907,-0.45212 -0.59907,-1.13031 0,-0.41821 0.25998,-0.70079 0.25997,-0.27127 0.61036,-0.27127 0.27128,0 0.50864,0.11303 0.14694,0.0565 0.61037,0.47473 0.56515,0.49733 0.79121,0.61037 0.23737,0.11303 0.46343,0.11303 0.46342,0 0.91555,-0.31649 0.45212,-0.31649 0.76861,-0.89294 0.45212,-0.82513 0.746,-1.54852 l 0.46343,-1.13031 -3.73002,-8.35298 q -0.39561,-0.88164 -0.66688,-1.18682 -0.27128,-0.30518 -0.54255,-0.373 -0.14694,-0.0452 -0.92685,-0.0452 z"
         style="font-family:'Bookman Old Style';-inkscape-font-specification:'Bookman Old Style'"
         id="path985" /><path
         d="m 300.23491,486.43761 0.7234,0.58776 q -0.82512,0.98337 -1.60504,1.55983 -0.76861,0.57646 -1.45809,0.80252 -0.68949,0.23736 -1.61634,0.23736 -1.66155,0 -2.82577,-0.67818 -1.33376,-0.77991 -2.04586,-2.03456 -0.71209,-1.25464 -0.71209,-2.9614 0,-1.78589 0.68949,-3.05183 0.68948,-1.26595 1.92152,-1.98934 1.24334,-0.7347 2.87098,-0.7347 1.20943,0 2.10237,0.3843 0.89294,0.373 1.51461,1.14161 0.62167,0.75731 0.90425,1.74067 0.15824,0.57646 0.18085,1.49201 h -7.99128 q -0.0339,0.55385 -0.0339,0.82513 0,1.42418 0.49733,2.54319 0.49734,1.1077 1.31116,1.63894 0.82512,0.51995 1.86501,0.51995 0.88164,0 1.70676,-0.40692 0.82512,-0.41821 2.00064,-1.61634 z m -1.44679,-4.56644 q -0.16955,-1.03988 -0.48603,-1.53722 -0.30519,-0.49733 -0.88164,-0.79121 -0.56516,-0.29388 -1.27725,-0.29388 -0.71209,0 -1.33376,0.29388 -0.62167,0.29388 -1.03989,0.81382 -0.40691,0.51994 -0.71209,1.51461 z"
         style="font-family:'Bookman Old Style';-inkscape-font-specification:'Bookman Old Style'"
         id="path987" /><path
         d="m 302.57462,480.06268 v -0.92685 q 0.82513,-0.0678 1.4694,-0.27128 0.64428,-0.21476 1.4694,-0.68948 h 0.84774 v 2.13628 q 0.80251,-0.98337 1.865,-1.55983 1.06249,-0.57645 1.91022,-0.57645 0.83643,0 1.32246,0.3956 0.48604,0.39561 0.48604,0.96076 0,0.40692 -0.32779,0.7234 -0.31649,0.30518 -0.76861,0.30518 -0.20346,0 -0.3504,-0.0565 -0.14694,-0.0565 -0.42952,-0.24867 -0.62166,-0.40691 -1.03988,-0.40691 -0.56515,0 -1.24334,0.47473 -0.85903,0.61037 -1.34506,1.19813 v 5.21071 q 0,0.67819 0.0678,0.92686 0.0791,0.23736 0.24866,0.41821 0.16955,0.16955 0.41822,0.24867 0.24866,0.0791 0.87033,0.0791 h 0.37301 v 0.94946 h -5.8437 v -0.94946 h 0.48604 q 0.68948,0 0.90424,-0.12433 0.29388,-0.16955 0.42952,-0.46343 0.14694,-0.30518 0.14694,-1.0851 v -6.66881 z"
         style="font-family:'Bookman Old Style';-inkscape-font-specification:'Bookman Old Style'"
         id="path989" /><path
         d="m 323.15753,474.60329 h 0.80251 v 3.84305 h 3.35702 v 1.13031 h -3.35702 v 6.81575 q 0,0.87034 0.14694,1.24334 0.15825,0.373 0.51995,0.61037 0.373,0.23736 0.82512,0.23736 1.07379,0 2.37365,-0.96076 v 1.0964 q -1.48071,1.00597 -2.99532,1.00597 -0.85903,0 -1.55982,-0.3843 -0.68949,-0.38431 -0.94946,-0.90425 -0.24867,-0.51994 -0.24867,-1.80849 v -6.95139 h -1.97804 v -0.94946 q 0.94946,-0.21476 1.52592,-0.66688 0.58776,-0.45213 0.94946,-1.17552 0.36169,-0.7234 0.58776,-2.1815 z"
         style="font-family:'Bookman Old Style';-inkscape-font-specification:'Bookman Old Style'"
         id="path991" /><path
         d="m 334.68669,478.17507 q 1.66156,0 2.87098,0.68948 1.22074,0.68949 1.92153,2.01195 0.70079,1.32246 0.70079,3.01792 0,1.69546 -0.7234,3.01792 -0.71209,1.32246 -1.95543,2.02325 -1.23204,0.68949 -2.9501,0.68949 -2.73535,0 -4.11432,-1.70676 -1.36768,-1.70677 -1.36768,-4.01259 0,-1.68416 0.7121,-2.98402 0.71209,-1.31115 1.98934,-2.02325 1.28855,-0.72339 2.91619,-0.72339 z m -0.0904,1.09639 q -1.28855,0 -2.1815,1.01728 -1.1303,1.26595 -1.1303,3.6848 0,2.32844 0.96076,3.54917 0.87034,1.0851 2.36234,1.0851 0.96076,0 1.70677,-0.50864 0.7573,-0.50864 1.22073,-1.61634 0.46342,-1.11901 0.46342,-2.62232 0,-1.4694 -0.49733,-2.63361 -0.38431,-0.92686 -1.16422,-1.43549 -0.76861,-0.51995 -1.74067,-0.51995 z"
         style="font-family:'Bookman Old Style';-inkscape-font-specification:'Bookman Old Style'"
         id="path993" /><path
         d="m 28.610666,502.60643 v -0.96077 q 0.768609,-0.0678 1.401582,-0.25997 0.644275,-0.20345 1.605037,-0.68948 h 0.84773 v 13.71063 q 0,0.94946 0.04521,1.15291 0.11303,0.42952 0.384304,0.59906 0.271274,0.16955 1.051186,0.16955 h 0.486033 v 0.94946 l -3.922168,0.18085 v -1.79719 q -1.130308,1.02858 -2.124978,1.4581 -0.983368,0.42951 -1.978039,0.42951 -2.045857,0 -3.402226,-1.63894 -1.345066,-1.65025 -1.345066,-3.96738 0,-1.65025 0.712094,-3.01792 0.723397,-1.37898 1.898917,-2.10238 1.17552,-0.72339 2.577101,-0.72339 1.073793,0 1.989342,0.373 0.915549,0.373 1.672855,1.119 v -4.98465 z m 1.898917,11.93604 v -4.27256 q 0,-0.91555 -0.350395,-1.492 -0.339093,-0.58776 -1.130308,-1.01728 -0.779912,-0.42952 -1.605037,-0.42952 -0.983367,0 -1.819795,0.54255 -0.825125,0.53124 -1.299854,1.54852 -0.463426,1.00597 -0.463426,2.44147 0,1.35636 0.429517,2.35104 0.44082,0.98336 1.17552,1.5033 0.7347,0.50864 1.503309,0.50864 0.757306,0 1.718068,-0.42951 0.960761,-0.44082 1.842401,-1.25465 z"
         style="font-family:'Bookman Old Style';-inkscape-font-specification:'Bookman Old Style'"
         id="path995" /><path
         d="m 38.715616,501.00139 q 0.542548,0 0.926853,0.3843 0.384304,0.37301 0.384304,0.91555 0,0.54255 -0.384304,0.92686 -0.384305,0.3843 -0.926853,0.3843 -0.542547,0 -0.926852,-0.3843 -0.384304,-0.38431 -0.384304,-0.92686 0,-0.54254 0.384304,-0.91555 0.384305,-0.3843 0.926852,-0.3843 z m -2.882284,6.9966 v -0.93815 q 0.938155,-0.11303 1.571128,-0.31649 0.644275,-0.20345 1.458096,-0.64427 h 0.825125 v 9.06506 q 0,0.47473 0.135637,0.7121 0.135637,0.23736 0.373001,0.35039 0.248668,0.10173 0.892944,0.10173 h 0.531244 v 0.94946 h -5.787175 v -0.94946 h 0.463426 q 0.757306,0 1.017277,-0.13564 0.259971,-0.13563 0.361698,-0.3843 0.113031,-0.24867 0.113031,-1.16422 v -6.64621 z"
         style="font-family:'Bookman Old Style';-inkscape-font-specification:'Bookman Old Style'"
         id="path997" /><path
         d="m 50.516029,506.37035 h 0.791215 l 1.017277,3.45874 -1.017277,0.33909 q -0.610366,-1.39027 -1.718068,-2.18149 -1.096398,-0.80252 -2.226706,-0.80252 -0.870337,0 -1.412884,0.42952 -0.542548,0.41821 -0.542548,0.97206 0,0.51995 0.395608,0.89295 0.384304,0.3843 1.72937,0.87033 l 2.2041,0.77992 q 1.865008,0.66688 2.543193,1.42418 0.666881,0.76861 0.666881,1.74068 0,0.82512 -0.497335,1.59373 -0.497336,0.75731 -1.446794,1.20943 -0.938155,0.45212 -2.158888,0.45212 -1.898917,0 -3.255286,-1.08509 l -0.237364,0.81382 h -0.802519 l -1.412884,-3.69611 1.02858,-0.40691 q 1.02858,1.62765 1.944129,2.30583 1.277247,0.96076 2.75795,0.96076 0.983368,0 1.61634,-0.51994 0.632973,-0.53124 0.632973,-1.17552 0,-0.53124 -0.395608,-0.97206 -0.406911,-0.42952 -1.559825,-0.83643 l -2.61101,-0.94946 q -1.684159,-0.61037 -2.339737,-1.33376 -0.655579,-0.7234 -0.655579,-1.66156 0,-1.14161 1.06249,-2.01194 1.073792,-0.88164 2.724041,-0.88164 0.859034,0 1.537219,0.22606 0.678184,0.21476 1.333763,0.7234 z"
         style="font-family:'Bookman Old Style';-inkscape-font-specification:'Bookman Old Style'"
         id="path999" /><path
         d="m 64.89354,514.12426 0.723397,0.58776 q -2.124978,2.83707 -5.097687,2.83707 -2.317131,0 -3.910865,-1.65025 -1.593733,-1.65025 -1.593733,-4.10301 0,-1.63895 0.7347,-2.9388 0.746003,-1.31116 2.05716,-2.03456 1.322459,-0.72339 3.029224,-0.72339 1.944129,0 3.243983,0.96076 1.299854,0.94946 1.299854,1.92152 0,0.51994 -0.305183,0.80252 -0.305183,0.28258 -0.689488,0.28258 -0.203455,0 -0.395608,-0.10173 -0.192152,-0.10173 -0.395607,-0.32779 -0.09043,-0.10173 -0.32779,-0.63297 -0.305183,-0.65558 -0.474729,-0.88164 -0.350395,-0.45213 -0.870337,-0.7121 -0.508638,-0.25997 -1.14161,-0.25997 -0.960762,0 -1.785886,0.53125 -0.813822,0.53124 -1.299854,1.57113 -0.474729,1.02858 -0.474729,2.46407 0,2.2267 1.186823,3.53786 1.02858,1.13031 2.452767,1.13031 0.655579,0 1.32246,-0.21476 0.678185,-0.22606 1.277248,-0.65558 0.44082,-0.30518 1.43549,-1.39028 z"
         style="font-family:'Bookman Old Style';-inkscape-font-specification:'Bookman Old Style'"
         id="path1001" /><path
         d="m 75.06631,510.73334 v -1.23204 q 0,-1.25464 -0.700791,-1.78588 -0.700791,-0.54255 -1.978038,-0.54255 -0.632973,0 -1.107702,0.15824 -0.474729,0.14694 -0.768609,0.41822 -0.282577,0.25997 -0.418214,0.59906 -0.05652,0.12433 -0.271274,0.96076 -0.25997,1.01728 -1.051186,1.01728 -0.452123,0 -0.7347,-0.29388 -0.271274,-0.30519 -0.271274,-0.81382 0,-0.74601 0.553851,-1.4581 0.553851,-0.7234 1.684159,-1.18682 1.14161,-0.47473 2.690132,-0.47473 1.446794,0 2.475373,0.45212 1.02858,0.44082 1.514613,1.27725 0.339092,0.57645 0.339092,2.10237 v 4.35168 q 0,0.92686 0.05651,1.20943 0.124334,0.48604 0.429517,0.7347 0.316486,0.23737 0.813822,0.23737 0.519941,0 1.243338,-0.24867 v 0.98337 q -0.938155,0.27127 -1.684158,0.27127 -0.802519,0 -1.356369,-0.22606 -0.542548,-0.22606 -0.892943,-0.65558 -0.350396,-0.44082 -0.452123,-1.03988 -1.35637,1.06249 -2.452768,1.492 -1.096398,0.42952 -2.215403,0.42952 -1.559825,0 -2.531889,-0.84773 -0.972065,-0.84773 -0.972065,-1.98934 0,-0.68949 0.350396,-1.31116 0.361698,-0.62167 1.085095,-1.0964 0.7347,-0.47473 2.294524,-0.83642 1.559825,-0.3617 4.329079,-0.65558 z m 0,0.98337 q -2.622314,0.3843 -3.243983,0.53124 -1.232035,0.28258 -1.76328,0.62167 -0.531245,0.33909 -0.757306,0.7347 -0.226062,0.3843 -0.226062,0.82512 0,0.44082 0.248668,0.85904 0.259971,0.40691 0.723397,0.64427 0.463426,0.23737 0.983367,0.23737 0.7347,0 1.661553,-0.3504 0.926852,-0.35039 2.373646,-1.36767 z"
         style="font-family:'Bookman Old Style';-inkscape-font-specification:'Bookman Old Style'"
         id="path1003" /><path
         d="m 80.344846,507.98669 v -0.92685 q 0.825125,-0.0678 1.4694,-0.27128 0.644276,-0.21475 1.4694,-0.68948 h 0.847731 v 2.13628 q 0.802519,-0.98337 1.865008,-1.55983 1.062489,-0.57645 1.91022,-0.57645 0.836427,0 1.32246,0.3956 0.486032,0.39561 0.486032,0.96077 0,0.40691 -0.327789,0.72339 -0.316486,0.30519 -0.76861,0.30519 -0.203455,0 -0.350395,-0.0565 -0.14694,-0.0565 -0.429517,-0.24867 -0.621669,-0.40691 -1.039883,-0.40691 -0.565154,0 -1.243338,0.47473 -0.859034,0.61037 -1.345066,1.19813 v 5.21072 q 0,0.67818 0.06782,0.92685 0.07912,0.23736 0.248668,0.41821 0.169546,0.16955 0.418214,0.24867 0.248667,0.0791 0.870336,0.0791 h 0.373002 v 0.94946 h -5.843691 v -0.94946 h 0.486033 q 0.689487,0 0.904246,-0.12433 0.29388,-0.16955 0.429517,-0.46343 0.14694,-0.30518 0.14694,-1.08509 v -6.66882 z"
         style="font-family:'Bookman Old Style';-inkscape-font-specification:'Bookman Old Style'"
         id="path1005" /><path
         d="m 97.59334,502.60643 v -0.96077 q 0.768609,-0.0678 1.401581,-0.25997 0.644276,-0.20345 1.605039,-0.68948 h 0.84773 v 13.71063 q 0,0.94946 0.0452,1.15291 0.11303,0.42952 0.38431,0.59906 0.27127,0.16955 1.05118,0.16955 h 0.48603 v 0.94946 l -3.922163,0.18085 v -1.79719 q -1.130308,1.02858 -2.124979,1.4581 -0.983367,0.42951 -1.978038,0.42951 -2.045857,0 -3.402226,-1.63894 -1.345066,-1.65025 -1.345066,-3.96738 0,-1.65025 0.712094,-3.01792 0.723397,-1.37898 1.898916,-2.10238 1.17552,-0.72339 2.577102,-0.72339 1.073792,0 1.989341,0.373 0.91555,0.373 1.672856,1.119 v -4.98465 z m 1.898917,11.93604 v -4.27256 q 0,-0.91555 -0.350396,-1.492 -0.339092,-0.58776 -1.130307,-1.01728 -0.779913,-0.42952 -1.605037,-0.42952 -0.983368,0 -1.819795,0.54255 -0.825125,0.53124 -1.299854,1.54852 -0.463426,1.00597 -0.463426,2.44147 0,1.35636 0.429516,2.35104 0.44082,0.98336 1.17552,1.5033 0.7347,0.50864 1.50331,0.50864 0.757306,0 1.718067,-0.42951 0.960762,-0.44082 1.842402,-1.25465 z"
         style="font-family:'Bookman Old Style';-inkscape-font-specification:'Bookman Old Style'"
         id="path1007" /><path
         d="m 115.28266,502.5273 h 0.80251 v 3.84305 h 3.35702 v 1.13031 h -3.35702 v 6.81575 q 0,0.87034 0.14694,1.24334 0.15825,0.373 0.51995,0.61037 0.373,0.23736 0.82512,0.23736 1.07379,0 2.37365,-0.96076 v 1.0964 q -1.48071,1.00597 -2.99532,1.00597 -0.85903,0 -1.55982,-0.3843 -0.68949,-0.38431 -0.94946,-0.90425 -0.24867,-0.51994 -0.24867,-1.80849 v -6.95139 h -1.97804 v -0.94946 q 0.94946,-0.21476 1.52592,-0.66688 0.58776,-0.45212 0.94946,-1.17552 0.36169,-0.7234 0.58776,-2.1815 z"
         style="font-family:'Bookman Old Style';-inkscape-font-specification:'Bookman Old Style'"
         id="path1009" /><path
         d="m 121.10374,502.61773 v -0.97207 q 1.0964,-0.14694 1.70676,-0.33909 0.61037,-0.20345 1.27725,-0.61036 h 0.88164 v 7.47133 q 1.27725,-1.07379 2.41886,-1.57113 1.14161,-0.49733 2.18149,-0.49733 1.51462,0 2.49798,0.90424 0.97207,0.90425 0.97207,2.2041 v 5.54981 q 0,0.82513 0.12433,1.0851 0.13564,0.24867 0.44082,0.373 0.30518,0.11303 1.36767,0.11303 v 0.94946 h -5.83238 v -0.94946 h 0.42951 q 0.82513,0 1.0851,-0.12433 0.25997,-0.13564 0.373,-0.42952 0.12433,-0.30518 0.12433,-1.24334 v -3.85435 q 0,-1.27724 -0.0904,-1.66155 -0.16955,-0.65558 -0.70079,-1.05119 -0.53125,-0.3956 -1.35637,-0.3956 -0.92685,0 -1.94413,0.46342 -1.00597,0.45213 -2.09107,1.36768 v 5.66284 q 0,0.63297 0.11303,0.84773 0.11303,0.21476 0.373,0.31648 0.25997,0.10173 1.03989,0.10173 h 0.46342 v 0.94946 h -5.85499 v -0.94946 h 0.35039 q 0.82513,0 1.19813,-0.20345 0.20346,-0.10173 0.29388,-0.39561 0.0904,-0.29388 0.0904,-1.62765 v -11.48392 z"
         style="font-family:'Bookman Old Style';-inkscape-font-specification:'Bookman Old Style'"
         id="path1011" /><path
         d="m 146.06093,514.36163 0.7234,0.58776 q -0.82512,0.98336 -1.60504,1.55982 -0.76861,0.57646 -1.45809,0.80252 -0.68949,0.23736 -1.61634,0.23736 -1.66156,0 -2.82577,-0.67818 -1.33377,-0.77991 -2.04586,-2.03456 -0.71209,-1.25464 -0.71209,-2.9614 0,-1.78589 0.68948,-3.05183 0.68949,-1.26595 1.92153,-1.98934 1.24334,-0.7347 2.87098,-0.7347 1.20943,0 2.10237,0.3843 0.89294,0.373 1.51461,1.14161 0.62167,0.75731 0.90425,1.74068 0.15824,0.57645 0.18085,1.492 h -7.99128 q -0.0339,0.55385 -0.0339,0.82513 0,1.42418 0.49734,2.54319 0.49734,1.1077 1.31116,1.63894 0.82512,0.51995 1.865,0.51995 0.88164,0 1.70677,-0.40691 0.82512,-0.41822 2.00064,-1.61634 z m -1.44679,-4.56645 q -0.16955,-1.03988 -0.48603,-1.53722 -0.30519,-0.49733 -0.88164,-0.79121 -0.56516,-0.29388 -1.27725,-0.29388 -0.71209,0 -1.33376,0.29388 -0.62167,0.29388 -1.03989,0.81382 -0.40691,0.51994 -0.71209,1.51461 z"
         style="font-family:'Bookman Old Style';-inkscape-font-specification:'Bookman Old Style'"
         id="path1013" /><path
         d="m 151.21514,501.00139 q 0.54255,0 0.92685,0.3843 0.38431,0.37301 0.38431,0.91555 0,0.54255 -0.38431,0.92686 -0.3843,0.3843 -0.92685,0.3843 -0.54255,0 -0.92685,-0.3843 -0.38431,-0.38431 -0.38431,-0.92686 0,-0.54254 0.38431,-0.91555 0.3843,-0.3843 0.92685,-0.3843 z m -2.88228,6.9966 v -0.93815 q 0.93815,-0.11303 1.57112,-0.31649 0.64428,-0.20345 1.4581,-0.64427 h 0.82513 v 9.06506 q 0,0.47473 0.13563,0.7121 0.13564,0.23736 0.373,0.35039 0.24867,0.10173 0.89295,0.10173 h 0.53124 v 0.94946 h -5.78717 v -0.94946 h 0.46342 q 0.75731,0 1.01728,-0.13564 0.25997,-0.13563 0.3617,-0.3843 0.11303,-0.24867 0.11303,-1.16422 v -6.64621 z"
         style="font-family:'Bookman Old Style';-inkscape-font-specification:'Bookman Old Style'"
         id="path1015" /><path
         d="m 155.34075,507.98669 v -0.92685 q 0.82513,-0.0678 1.4694,-0.27128 0.64428,-0.21475 1.4694,-0.68948 h 0.84773 v 2.13628 q 0.80252,-0.98337 1.86501,-1.55983 1.06249,-0.57645 1.91022,-0.57645 0.83643,0 1.32246,0.3956 0.48603,0.39561 0.48603,0.96077 0,0.40691 -0.32779,0.72339 -0.31648,0.30519 -0.7686,0.30519 -0.20346,0 -0.3504,-0.0565 -0.14694,-0.0565 -0.42952,-0.24867 -0.62167,-0.40691 -1.03988,-0.40691 -0.56515,0 -1.24334,0.47473 -0.85903,0.61037 -1.34506,1.19813 v 5.21072 q 0,0.67818 0.0678,0.92685 0.0791,0.23736 0.24867,0.41821 0.16955,0.16955 0.41822,0.24867 0.24866,0.0791 0.87033,0.0791 h 0.373 v 0.94946 h -5.84369 v -0.94946 h 0.48604 q 0.68948,0 0.90424,-0.12433 0.29388,-0.16955 0.42952,-0.46343 0.14694,-0.30518 0.14694,-1.08509 v -6.66882 z"
         style="font-family:'Bookman Old Style';-inkscape-font-specification:'Bookman Old Style'"
         id="path1017" /><path
         d="m 182.62639,514.36163 0.7234,0.58776 q -0.82512,0.98336 -1.60504,1.55982 -0.76861,0.57646 -1.45809,0.80252 -0.68949,0.23736 -1.61634,0.23736 -1.66156,0 -2.82577,-0.67818 -1.33377,-0.77991 -2.04586,-2.03456 -0.71209,-1.25464 -0.71209,-2.9614 0,-1.78589 0.68948,-3.05183 0.68949,-1.26595 1.92153,-1.98934 1.24334,-0.7347 2.87098,-0.7347 1.20943,0 2.10237,0.3843 0.89294,0.373 1.51461,1.14161 0.62167,0.75731 0.90425,1.74068 0.15824,0.57645 0.18085,1.492 h -7.99128 q -0.0339,0.55385 -0.0339,0.82513 0,1.42418 0.49734,2.54319 0.49734,1.1077 1.31116,1.63894 0.82512,0.51995 1.865,0.51995 0.88164,0 1.70677,-0.40691 0.82512,-0.41822 2.00064,-1.61634 z m -1.44679,-4.56645 q -0.16955,-1.03988 -0.48603,-1.53722 -0.30519,-0.49733 -0.88164,-0.79121 -0.56516,-0.29388 -1.27725,-0.29388 -0.71209,0 -1.33376,0.29388 -0.62167,0.29388 -1.03989,0.81382 -0.40691,0.51994 -0.71209,1.51461 z"
         style="font-family:'Bookman Old Style';-inkscape-font-specification:'Bookman Old Style'"
         id="path1019" /><path
         d="m 185.00003,507.99799 v -0.94945 q 1.00597,-0.11304 1.50331,-0.27128 0.49733,-0.15824 1.43549,-0.67818 h 0.81382 v 2.14758 q 1.49201,-1.25464 2.54319,-1.69546 1.06249,-0.45212 2.14759,-0.45212 0.92685,0 1.63894,0.31648 0.7121,0.30519 1.15292,0.83643 0.45212,0.53125 0.59906,1.20943 0.0904,0.41821 0.0904,1.26594 v 4.97336 q 0,0.89294 0.12434,1.15291 0.13564,0.24867 0.41821,0.3617 0.28258,0.11303 1.39028,0.11303 v 0.94946 h -5.82108 v -0.94946 h 0.31648 q 0.81382,0 1.1077,-0.14694 0.29388,-0.14694 0.41822,-0.42952 0.13563,-0.28257 0.13563,-1.15291 v -4.15953 q 0,-1.28855 -0.21475,-1.78589 -0.20346,-0.49733 -0.7121,-0.80252 -0.49733,-0.31648 -1.26594,-0.31648 -0.91555,0 -1.95543,0.47473 -1.03989,0.46342 -2.01195,1.37897 v 5.21072 q 0,0.88164 0.12433,1.17552 0.13564,0.29388 0.42952,0.44082 0.20345,0.11303 1.08509,0.11303 h 0.32779 v 0.94946 h -5.82108 v -0.94946 h 0.28258 q 0.83642,0 1.14161,-0.13564 0.30518,-0.14694 0.42951,-0.50863 0.0678,-0.18085 0.0678,-1.24334 v -6.44276 z"
         style="font-family:'Bookman Old Style';-inkscape-font-specification:'Bookman Old Style'"
         id="path1021" /><path
         d="m 203.2432,502.5273 h 0.80252 v 3.84305 h 3.35702 v 1.13031 h -3.35702 v 6.81575 q 0,0.87034 0.14694,1.24334 0.15825,0.373 0.51994,0.61037 0.37301,0.23736 0.82513,0.23736 1.07379,0 2.37364,-0.96076 v 1.0964 q -1.4807,1.00597 -2.99531,1.00597 -0.85903,0 -1.55983,-0.3843 -0.68948,-0.38431 -0.94945,-0.90425 -0.24867,-0.51994 -0.24867,-1.80849 v -6.95139 h -1.97804 v -0.94946 q 0.94946,-0.21476 1.52592,-0.66688 0.58776,-0.45212 0.94945,-1.17552 0.3617,-0.7234 0.58776,-2.1815 z"
         style="font-family:'Bookman Old Style';-inkscape-font-specification:'Bookman Old Style'"
         id="path1023" /><path
         d="m 211.85615,501.00139 q 0.54254,0 0.92685,0.3843 0.3843,0.37301 0.3843,0.91555 0,0.54255 -0.3843,0.92686 -0.38431,0.3843 -0.92685,0.3843 -0.54255,0 -0.92686,-0.3843 -0.3843,-0.38431 -0.3843,-0.92686 0,-0.54254 0.3843,-0.91555 0.38431,-0.3843 0.92686,-0.3843 z m -2.88229,6.9966 v -0.93815 q 0.93816,-0.11303 1.57113,-0.31649 0.64428,-0.20345 1.4581,-0.64427 h 0.82512 v 9.06506 q 0,0.47473 0.13564,0.7121 0.13564,0.23736 0.373,0.35039 0.24867,0.10173 0.89294,0.10173 h 0.53125 v 0.94946 h -5.78718 v -0.94946 h 0.46343 q 0.7573,0 1.01728,-0.13564 0.25997,-0.13563 0.36169,-0.3843 0.11303,-0.24867 0.11303,-1.16422 v -6.64621 z"
         style="font-family:'Bookman Old Style';-inkscape-font-specification:'Bookman Old Style'"
         id="path1025" /><path
         d="m 215.98176,507.98669 v -0.92685 q 0.82512,-0.0678 1.4694,-0.27128 0.64428,-0.21475 1.4694,-0.68948 h 0.84773 v 2.13628 q 0.80252,-0.98337 1.86501,-1.55983 1.06249,-0.57645 1.91022,-0.57645 0.83643,0 1.32246,0.3956 0.48603,0.39561 0.48603,0.96077 0,0.40691 -0.32779,0.72339 -0.31649,0.30519 -0.76861,0.30519 -0.20345,0 -0.35039,-0.0565 -0.14694,-0.0565 -0.42952,-0.24867 -0.62167,-0.40691 -1.03988,-0.40691 -0.56516,0 -1.24334,0.47473 -0.85904,0.61037 -1.34507,1.19813 v 5.21072 q 0,0.67818 0.0678,0.92685 0.0791,0.23736 0.24867,0.41821 0.16954,0.16955 0.41821,0.24867 0.24867,0.0791 0.87034,0.0791 h 0.373 v 0.94946 h -5.84369 v -0.94946 h 0.48603 q 0.68949,0 0.90425,-0.12433 0.29388,-0.16955 0.42952,-0.46343 0.14694,-0.30518 0.14694,-1.08509 v -6.66882 z"
         style="font-family:'Bookman Old Style';-inkscape-font-specification:'Bookman Old Style'"
         id="path1027" /><path
         d="m 235.86388,514.36163 0.7234,0.58776 q -0.82513,0.98336 -1.60504,1.55982 -0.76861,0.57646 -1.4581,0.80252 -0.68948,0.23736 -1.61634,0.23736 -1.66155,0 -2.82576,-0.67818 -1.33377,-0.77991 -2.04586,-2.03456 -0.7121,-1.25464 -0.7121,-2.9614 0,-1.78589 0.68949,-3.05183 0.68949,-1.26595 1.92153,-1.98934 1.24333,-0.7347 2.87098,-0.7347 1.20943,0 2.10237,0.3843 0.89294,0.373 1.51461,1.14161 0.62167,0.75731 0.90425,1.74068 0.15824,0.57645 0.18085,1.492 h -7.99128 q -0.0339,0.55385 -0.0339,0.82513 0,1.42418 0.49734,2.54319 0.49733,1.1077 1.31115,1.63894 0.82513,0.51995 1.86501,0.51995 0.88164,0 1.70677,-0.40691 0.82512,-0.41822 2.00064,-1.61634 z m -1.44679,-4.56645 q -0.16955,-1.03988 -0.48603,-1.53722 -0.30519,-0.49733 -0.88164,-0.79121 -0.56516,-0.29388 -1.27725,-0.29388 -0.7121,0 -1.33377,0.29388 -0.62166,0.29388 -1.03988,0.81382 -0.40691,0.51994 -0.71209,1.51461 z"
         style="font-family:'Bookman Old Style';-inkscape-font-specification:'Bookman Old Style'"
         id="path1029" /><path
         d="m 245.62973,502.61773 v -0.97207 q 1.0964,-0.14694 1.70677,-0.33909 0.61036,-0.20345 1.27724,-0.61036 h 0.88164 v 7.47133 q 1.27725,-1.07379 2.41886,-1.57113 1.14161,-0.49733 2.1815,-0.49733 1.51461,0 2.49798,0.90424 0.97206,0.90425 0.97206,2.2041 v 5.54981 q 0,0.82513 0.12433,1.0851 0.13564,0.24867 0.44082,0.373 0.30519,0.11303 1.36768,0.11303 v 0.94946 h -5.83239 v -0.94946 h 0.42952 q 0.82512,0 1.08509,-0.12433 0.25997,-0.13564 0.373,-0.42952 0.12434,-0.30518 0.12434,-1.24334 v -3.85435 q 0,-1.27724 -0.0904,-1.66155 -0.16954,-0.65558 -0.70079,-1.05119 -0.53124,-0.3956 -1.35637,-0.3956 -0.92685,0 -1.94413,0.46342 -1.00597,0.45213 -2.09107,1.36768 v 5.66284 q 0,0.63297 0.11304,0.84773 0.11303,0.21476 0.373,0.31648 0.25997,0.10173 1.03988,0.10173 h 0.46343 v 0.94946 h -5.855 v -0.94946 h 0.3504 q 0.82512,0 1.19812,-0.20345 0.20346,-0.10173 0.29388,-0.39561 0.0904,-0.29388 0.0904,-1.62765 v -11.48392 z"
         style="font-family:'Bookman Old Style';-inkscape-font-specification:'Bookman Old Style'"
         id="path1031" /><path
         d="m 269.03841,510.73334 v -1.23204 q 0,-1.25464 -0.70079,-1.78588 -0.70079,-0.54255 -1.97804,-0.54255 -0.63297,0 -1.1077,0.15824 -0.47473,0.14694 -0.76861,0.41822 -0.28257,0.25997 -0.41821,0.59906 -0.0565,0.12433 -0.27127,0.96076 -0.25998,1.01728 -1.05119,1.01728 -0.45212,0 -0.7347,-0.29388 -0.27127,-0.30519 -0.27127,-0.81382 0,-0.74601 0.55385,-1.4581 0.55385,-0.7234 1.68415,-1.18682 1.14162,-0.47473 2.69014,-0.47473 1.44679,0 2.47537,0.45212 1.02858,0.44082 1.51461,1.27725 0.3391,0.57645 0.3391,2.10237 v 4.35168 q 0,0.92686 0.0565,1.20943 0.12433,0.48604 0.42952,0.7347 0.31648,0.23737 0.81382,0.23737 0.51994,0 1.24334,-0.24867 v 0.98337 q -0.93816,0.27127 -1.68416,0.27127 -0.80252,0 -1.35637,-0.22606 -0.54255,-0.22606 -0.89294,-0.65558 -0.3504,-0.44082 -0.45213,-1.03988 -1.35637,1.06249 -2.45276,1.492 -1.0964,0.42952 -2.21541,0.42952 -1.55982,0 -2.53189,-0.84773 -0.97206,-0.84773 -0.97206,-1.98934 0,-0.68949 0.35039,-1.31116 0.3617,-0.62167 1.0851,-1.0964 0.7347,-0.47473 2.29452,-0.83642 1.55983,-0.3617 4.32908,-0.65558 z m 0,0.98337 q -2.62231,0.3843 -3.24398,0.53124 -1.23204,0.28258 -1.76328,0.62167 -0.53124,0.33909 -0.75731,0.7347 -0.22606,0.3843 -0.22606,0.82512 0,0.44082 0.24867,0.85904 0.25997,0.40691 0.7234,0.64427 0.46342,0.23737 0.98336,0.23737 0.7347,0 1.66156,-0.3504 0.92685,-0.35039 2.37364,-1.36767 z"
         style="font-family:'Bookman Old Style';-inkscape-font-specification:'Bookman Old Style'"
         id="path1033" /><path
         d="m 274.35086,507.99799 v -0.94945 q 1.00597,-0.11304 1.50331,-0.27128 0.49733,-0.15824 1.43549,-0.67818 h 0.81382 v 2.14758 q 1.49201,-1.25464 2.54319,-1.69546 1.06249,-0.45212 2.14759,-0.45212 0.92685,0 1.63894,0.31648 0.7121,0.30519 1.15292,0.83643 0.45212,0.53125 0.59906,1.20943 0.0904,0.41821 0.0904,1.26594 v 4.97336 q 0,0.89294 0.12434,1.15291 0.13564,0.24867 0.41821,0.3617 0.28258,0.11303 1.39028,0.11303 v 0.94946 h -5.82108 v -0.94946 h 0.31648 q 0.81382,0 1.1077,-0.14694 0.29388,-0.14694 0.41822,-0.42952 0.13563,-0.28257 0.13563,-1.15291 v -4.15953 q 0,-1.28855 -0.21475,-1.78589 -0.20346,-0.49733 -0.7121,-0.80252 -0.49733,-0.31648 -1.26594,-0.31648 -0.91555,0 -1.95543,0.47473 -1.03989,0.46342 -2.01195,1.37897 v 5.21072 q 0,0.88164 0.12433,1.17552 0.13564,0.29388 0.42952,0.44082 0.20345,0.11303 1.08509,0.11303 h 0.32779 v 0.94946 h -5.82108 v -0.94946 h 0.28258 q 0.83642,0 1.14161,-0.13564 0.30518,-0.14694 0.42951,-0.50863 0.0678,-0.18085 0.0678,-1.24334 v -6.44276 z"
         style="font-family:'Bookman Old Style';-inkscape-font-specification:'Bookman Old Style'"
         id="path1035" /><path
         d="m 296.66313,502.60643 v -0.96077 q 0.76861,-0.0678 1.40158,-0.25997 0.64427,-0.20345 1.60503,-0.68948 h 0.84774 v 13.71063 q 0,0.94946 0.0452,1.15291 0.11303,0.42952 0.3843,0.59906 0.27128,0.16955 1.05119,0.16955 h 0.48603 v 0.94946 l -3.92217,0.18085 v -1.79719 q -1.1303,1.02858 -2.12498,1.4581 -0.98336,0.42951 -1.97803,0.42951 -2.04586,0 -3.40223,-1.63894 -1.34507,-1.65025 -1.34507,-3.96738 0,-1.65025 0.7121,-3.01792 0.72339,-1.37898 1.89891,-2.10238 1.17552,-0.72339 2.57711,-0.72339 1.07379,0 1.98934,0.373 0.91555,0.373 1.67285,1.119 v -4.98465 z m 1.89891,11.93604 v -4.27256 q 0,-0.91555 -0.35039,-1.492 -0.33909,-0.58776 -1.13031,-1.01728 -0.77991,-0.42952 -1.60504,-0.42952 -0.98336,0 -1.81979,0.54255 -0.82513,0.53124 -1.29986,1.54852 -0.46342,1.00597 -0.46342,2.44147 0,1.35636 0.42951,2.35104 0.44082,0.98336 1.17552,1.5033 0.7347,0.50864 1.50331,0.50864 0.75731,0 1.71807,-0.42951 0.96076,-0.44082 1.8424,-1.25465 z"
         style="font-family:'Bookman Old Style';-inkscape-font-specification:'Bookman Old Style'"
         id="path1037" /><path
         d="m 306.83591,514.6442 q 0.59906,0 1.00597,0.41822 0.41821,0.40691 0.41821,0.99467 0,0.58776 -0.41821,1.00597 -0.41821,0.40691 -1.00597,0.40691 -0.57646,0 -0.99467,-0.40691 -0.41822,-0.41821 -0.41822,-1.00597 0,-0.58776 0.40691,-0.99467 0.41822,-0.41822 1.00598,-0.41822 z"
         style="font-family:'Bookman Old Style';-inkscape-font-specification:'Bookman Old Style'"
         id="path1039" /><path
         d="m 21.82882,530.3948 v -0.96076 h 5.628932 q 3.865653,0 5.391568,0.48603 2.249312,0.71209 3.650894,2.65622 1.548521,2.14759 1.548521,4.93945 0,1.89892 -0.768609,3.53786 -0.757306,1.62764 -2.000645,2.62232 -1.02858,0.83642 -2.475373,1.18682 -1.446794,0.33909 -2.916194,0.33909 H 21.82882 v -0.94946 h 0.655579 l 0.214758,0.0113 q 0.418214,0 0.678185,-0.16955 0.271274,-0.16955 0.384304,-0.45212 0.07912,-0.21476 0.07912,-0.99467 v -10.54578 q 0,-0.89294 -0.113031,-1.15291 -0.158243,-0.35039 -0.508638,-0.48603 -0.203456,-0.0678 -1.390279,-0.0678 z m 4.11432,13.5863 h 3.413529 q 0.508639,0 1.684159,-0.18085 1.186823,-0.18085 1.695461,-0.44082 0.746003,-0.38431 1.446794,-1.23204 0.700791,-0.85903 1.073792,-2.04585 0.384305,-1.19813 0.384305,-2.73535 0,-1.52591 -0.384305,-2.64492 -0.373001,-1.119 -1.141611,-2.01195 -0.757306,-0.89294 -1.695461,-1.35636 -0.926852,-0.47473 -2.079766,-0.59907 -0.621669,-0.0565 -2.079766,-0.0565 H 25.94314 Z"
         style="font-family:'Bookman Old Style';-inkscape-font-specification:'Bookman Old Style'"
         id="path1041" /><path
         d="m 42.875148,528.9254 q 0.542548,0 0.926852,0.38431 0.384305,0.373 0.384305,0.91554 0,0.54255 -0.384305,0.92686 -0.384304,0.3843 -0.926852,0.3843 -0.542548,0 -0.926852,-0.3843 -0.384305,-0.38431 -0.384305,-0.92686 0,-0.54254 0.384305,-0.91554 0.384304,-0.38431 0.926852,-0.38431 z m -2.882284,6.9966 v -0.93815 q 0.938155,-0.11303 1.571127,-0.31649 0.644276,-0.20345 1.458097,-0.64427 h 0.825125 v 9.06507 q 0,0.47472 0.135637,0.71209 0.135636,0.23736 0.373001,0.35039 0.248668,0.10173 0.892943,0.10173 h 0.531245 v 0.94946 h -5.787175 v -0.94946 h 0.463426 q 0.757306,0 1.017277,-0.13563 0.25997,-0.13564 0.361698,-0.38431 0.113031,-0.24867 0.113031,-1.16422 V 535.922 Z"
         style="font-family:'Bookman Old Style';-inkscape-font-specification:'Bookman Old Style'"
         id="path1043" /><path
         d="m 54.675559,534.29436 h 0.791216 l 1.017276,3.45874 -1.017276,0.3391 q -0.610367,-1.39028 -1.718068,-2.1815 -1.096398,-0.80252 -2.226706,-0.80252 -0.870337,0 -1.412885,0.42952 -0.542547,0.41821 -0.542547,0.97206 0,0.51995 0.395607,0.89295 0.384305,0.3843 1.729371,0.87033 l 2.2041,0.77992 q 1.865008,0.66688 2.543192,1.42418 0.666882,0.76861 0.666882,1.74068 0,0.82512 -0.497336,1.59373 -0.497335,0.75731 -1.446793,1.20943 -0.938156,0.45212 -2.158888,0.45212 -1.898917,0 -3.255286,-1.08509 l -0.237365,0.81382 h -0.802518 l -1.412885,-3.69611 1.02858,-0.40691 q 1.02858,1.62765 1.944129,2.30583 1.277248,0.96076 2.757951,0.96076 0.983368,0 1.61634,-0.51994 0.632972,-0.53124 0.632972,-1.17552 0,-0.53124 -0.395607,-0.97206 -0.406911,-0.42952 -1.559825,-0.83643 l -2.611011,-0.94946 q -1.684158,-0.61037 -2.339736,-1.33376 -0.655579,-0.7234 -0.655579,-1.66155 0,-1.14162 1.062489,-2.01195 1.073793,-0.88164 2.724042,-0.88164 0.859034,0 1.537218,0.22606 0.678185,0.21476 1.333763,0.7234 z"
         style="font-family:'Bookman Old Style';-inkscape-font-specification:'Bookman Old Style'"
         id="path1045" /><path
         d="m 69.053075,542.04827 0.723397,0.58776 q -2.124979,2.83707 -5.097688,2.83707 -2.31713,0 -3.910864,-1.65024 -1.593734,-1.65025 -1.593734,-4.10302 0,-1.63895 0.7347,-2.9388 0.746003,-1.31116 2.05716,-2.03456 1.32246,-0.72339 3.029224,-0.72339 1.94413,0 3.243983,0.96076 1.299854,0.94946 1.299854,1.92152 0,0.51994 -0.305183,0.80252 -0.305183,0.28258 -0.689488,0.28258 -0.203455,0 -0.395607,-0.10173 -0.192152,-0.10173 -0.395608,-0.32779 -0.09042,-0.10173 -0.327789,-0.63297 -0.305183,-0.65558 -0.474729,-0.88164 -0.350396,-0.45212 -0.870337,-0.7121 -0.508639,-0.25997 -1.141611,-0.25997 -0.960761,0 -1.785886,0.53125 -0.813822,0.53124 -1.299854,1.57113 -0.474729,1.02858 -0.474729,2.46407 0,2.2267 1.186823,3.53786 1.02858,1.13031 2.452768,1.13031 0.655578,0 1.32246,-0.21476 0.678184,-0.22606 1.277247,-0.65558 0.44082,-0.30518 1.435491,-1.39028 z"
         style="font-family:'Bookman Old Style';-inkscape-font-specification:'Bookman Old Style'"
         id="path1047" /><path
         d="m 79.225844,538.65735 v -1.23204 q 0,-1.25464 -0.70079,-1.78588 -0.700791,-0.54255 -1.978039,-0.54255 -0.632972,0 -1.107701,0.15824 -0.47473,0.14694 -0.76861,0.41822 -0.282576,0.25997 -0.418213,0.59906 -0.05652,0.12433 -0.271274,0.96076 -0.259971,1.01728 -1.051186,1.01728 -0.452123,0 -0.7347,-0.29388 -0.271274,-0.30518 -0.271274,-0.81382 0,-0.74601 0.553851,-1.4581 0.55385,-0.7234 1.684158,-1.18682 1.141611,-0.47473 2.690132,-0.47473 1.446794,0 2.475374,0.45212 1.02858,0.44082 1.514612,1.27725 0.339092,0.57646 0.339092,2.10237 v 4.35169 q 0,0.92685 0.05652,1.20942 0.124334,0.48604 0.429517,0.7347 0.316486,0.23737 0.813821,0.23737 0.519942,0 1.243339,-0.24867 v 0.98337 q -0.938156,0.27127 -1.684159,0.27127 -0.802518,0 -1.356369,-0.22606 -0.542548,-0.22606 -0.892943,-0.65558 -0.350395,-0.44082 -0.452123,-1.03988 -1.356369,1.06249 -2.452768,1.49201 -1.096398,0.42951 -2.215403,0.42951 -1.559824,0 -2.531889,-0.84773 -0.972064,-0.84773 -0.972064,-1.98934 0,-0.68949 0.350395,-1.31116 0.361699,-0.62167 1.085095,-1.09639 0.7347,-0.47473 2.294525,-0.83643 1.559825,-0.3617 4.329078,-0.65558 z m 0,0.98337 q -2.622313,0.3843 -3.243983,0.53124 -1.232035,0.28258 -1.76328,0.62167 -0.531244,0.33909 -0.757306,0.7347 -0.226061,0.38431 -0.226061,0.82513 0,0.44082 0.248667,0.85903 0.259971,0.40691 0.723397,0.64427 0.463426,0.23737 0.983368,0.23737 0.7347,0 1.661552,-0.3504 0.926852,-0.35039 2.373646,-1.36767 z"
         style="font-family:'Bookman Old Style';-inkscape-font-specification:'Bookman Old Style'"
         id="path1049" /><path
         d="m 84.504381,535.9107 v -0.92685 q 0.825124,-0.0678 1.4694,-0.27127 0.644275,-0.21476 1.4694,-0.68949 h 0.847731 v 2.13628 q 0.802518,-0.98337 1.865007,-1.55983 1.062489,-0.57645 1.91022,-0.57645 0.836428,0 1.32246,0.39561 0.486032,0.3956 0.486032,0.96076 0,0.40691 -0.327789,0.72339 -0.316486,0.30519 -0.768609,0.30519 -0.203455,0 -0.350395,-0.0565 -0.14694,-0.0565 -0.429517,-0.24867 -0.62167,-0.40691 -1.039883,-0.40691 -0.565154,0 -1.243339,0.47473 -0.859034,0.61037 -1.345066,1.19813 v 5.21072 q 0,0.67818 0.06782,0.92685 0.07912,0.23736 0.248667,0.41821 0.169546,0.16955 0.418214,0.24867 0.248668,0.0791 0.870337,0.0791 h 0.373001 v 0.94946 h -5.84369 v -0.94946 h 0.486032 q 0.689488,0 0.904246,-0.12433 0.29388,-0.16955 0.429517,-0.46343 0.14694,-0.30518 0.14694,-1.08509 v -6.66882 z"
         style="font-family:'Bookman Old Style';-inkscape-font-specification:'Bookman Old Style'"
         id="path1051" /><path
         d="m 101.75287,530.53044 v -0.96076 q 0.76861,-0.0678 1.40158,-0.25997 0.64428,-0.20346 1.60504,-0.68949 h 0.84773 v 13.71063 q 0,0.94946 0.0452,1.15291 0.11303,0.42952 0.38431,0.59907 0.27127,0.16954 1.05118,0.16954 h 0.48603 v 0.94946 l -3.92216,0.18085 v -1.79719 q -1.13031,1.02858 -2.12498,1.4581 -0.98337,0.42951 -1.978039,0.42951 -2.045857,0 -3.402226,-1.63894 -1.345067,-1.65025 -1.345067,-3.96738 0,-1.65025 0.712094,-3.01792 0.723397,-1.37898 1.898917,-2.10238 1.17552,-0.72339 2.577102,-0.72339 1.073789,0 1.989339,0.373 0.91555,0.373 1.67286,1.119 v -4.98465 z m 1.89892,11.93605 v -4.27257 q 0,-0.91555 -0.3504,-1.492 -0.33909,-0.58776 -1.13031,-1.01728 -0.77991,-0.42952 -1.60503,-0.42952 -0.98337,0 -1.819798,0.54255 -0.825124,0.53125 -1.299854,1.54852 -0.463426,1.00598 -0.463426,2.44147 0,1.35637 0.429517,2.35104 0.44082,0.98336 1.17552,1.50331 0.7347,0.50863 1.503311,0.50863 0.7573,0 1.71807,-0.42951 0.96076,-0.44082 1.8424,-1.25464 z"
         style="font-family:'Bookman Old Style';-inkscape-font-specification:'Bookman Old Style'"
         id="path1053" /><path
         d="m 119.44219,530.45132 h 0.80251 v 3.84304 h 3.35702 v 1.13031 h -3.35702 v 6.81575 q 0,0.87034 0.14694,1.24334 0.15825,0.373 0.51995,0.61037 0.373,0.23736 0.82512,0.23736 1.07379,0 2.37365,-0.96076 v 1.0964 q -1.48071,1.00597 -2.99532,1.00597 -0.85903,0 -1.55982,-0.3843 -0.68949,-0.3843 -0.94946,-0.90425 -0.24867,-0.51994 -0.24867,-1.80849 v -6.95139 h -1.97804 v -0.94946 q 0.94946,-0.21476 1.52592,-0.66688 0.58776,-0.45212 0.94946,-1.17552 0.36169,-0.7234 0.58776,-2.18149 z"
         style="font-family:'Bookman Old Style';-inkscape-font-specification:'Bookman Old Style'"
         id="path1055" /><path
         d="m 125.26328,530.54174 v -0.97206 q 1.0964,-0.14694 1.70676,-0.3391 0.61037,-0.20345 1.27725,-0.61036 h 0.88164 v 7.47133 q 1.27725,-1.07379 2.41886,-1.57113 1.14161,-0.49733 2.18149,-0.49733 1.51461,0 2.49798,0.90424 0.97207,0.90425 0.97207,2.2041 v 5.54981 q 0,0.82513 0.12433,1.0851 0.13564,0.24867 0.44082,0.373 0.30518,0.11303 1.36767,0.11303 v 0.94946 h -5.83239 v -0.94946 h 0.42952 q 0.82513,0 1.0851,-0.12433 0.25997,-0.13564 0.373,-0.42952 0.12433,-0.30518 0.12433,-1.24334 v -3.85435 q 0,-1.27724 -0.0904,-1.66155 -0.16955,-0.65558 -0.70079,-1.05118 -0.53125,-0.39561 -1.35637,-0.39561 -0.92685,0 -1.94413,0.46342 -1.00598,0.45213 -2.09107,1.36768 v 5.66284 q 0,0.63297 0.11303,0.84773 0.11303,0.21476 0.373,0.31648 0.25997,0.10173 1.03988,0.10173 h 0.46343 v 0.94946 h -5.85499 v -0.94946 h 0.35039 q 0.82513,0 1.19813,-0.20345 0.20345,-0.10173 0.29388,-0.39561 0.0904,-0.29388 0.0904,-1.62764 v -11.48393 z"
         style="font-family:'Bookman Old Style';-inkscape-font-specification:'Bookman Old Style'"
         id="path1057" /><path
         d="m 143.33689,528.9254 q 0.54255,0 0.92685,0.38431 0.38431,0.373 0.38431,0.91554 0,0.54255 -0.38431,0.92686 -0.3843,0.3843 -0.92685,0.3843 -0.54255,0 -0.92685,-0.3843 -0.38431,-0.38431 -0.38431,-0.92686 0,-0.54254 0.38431,-0.91554 0.3843,-0.38431 0.92685,-0.38431 z m -2.88228,6.9966 v -0.93815 q 0.93815,-0.11303 1.57112,-0.31649 0.64428,-0.20345 1.4581,-0.64427 h 0.82513 v 9.06507 q 0,0.47472 0.13563,0.71209 0.13564,0.23736 0.373,0.35039 0.24867,0.10173 0.89295,0.10173 h 0.53124 v 0.94946 h -5.78717 v -0.94946 h 0.46342 q 0.75731,0 1.01728,-0.13563 0.25997,-0.13564 0.3617,-0.38431 0.11303,-0.24867 0.11303,-1.16422 V 535.922 Z"
         style="font-family:'Bookman Old Style';-inkscape-font-specification:'Bookman Old Style'"
         id="path1059" /><path
         d="m 155.13731,534.29436 h 0.79121 l 1.01728,3.45874 -1.01728,0.3391 q -0.61036,-1.39028 -1.71806,-2.1815 -1.0964,-0.80252 -2.22671,-0.80252 -0.87034,0 -1.41289,0.42952 -0.54254,0.41821 -0.54254,0.97206 0,0.51995 0.3956,0.89295 0.38431,0.3843 1.72938,0.87033 l 2.2041,0.77992 q 1.865,0.66688 2.54319,1.42418 0.66688,0.76861 0.66688,1.74068 0,0.82512 -0.49734,1.59373 -0.49733,0.75731 -1.44679,1.20943 -0.93816,0.45212 -2.15889,0.45212 -1.89891,0 -3.25528,-1.08509 l -0.23737,0.81382 h -0.80252 l -1.41288,-3.69611 1.02858,-0.40691 q 1.02858,1.62765 1.94413,2.30583 1.27725,0.96076 2.75795,0.96076 0.98337,0 1.61634,-0.51994 0.63297,-0.53124 0.63297,-1.17552 0,-0.53124 -0.39561,-0.97206 -0.40691,-0.42952 -1.55982,-0.83643 l -2.61101,-0.94946 q -1.68416,-0.61037 -2.33974,-1.33376 -0.65558,-0.7234 -0.65558,-1.66155 0,-1.14162 1.06249,-2.01195 1.07379,-0.88164 2.72404,-0.88164 0.85904,0 1.53722,0.22606 0.67819,0.21476 1.33376,0.7234 z"
         style="font-family:'Bookman Old Style';-inkscape-font-specification:'Bookman Old Style'"
         id="path1061" /><path
         d="m 176.91833,542.04827 0.7234,0.58776 q -2.12498,2.83707 -5.09769,2.83707 -2.31713,0 -3.91087,-1.65024 -1.59373,-1.65025 -1.59373,-4.10302 0,-1.63895 0.7347,-2.9388 0.746,-1.31116 2.05716,-2.03456 1.32246,-0.72339 3.02922,-0.72339 1.94413,0 3.24399,0.96076 1.29985,0.94946 1.29985,1.92152 0,0.51994 -0.30518,0.80252 -0.30519,0.28258 -0.68949,0.28258 -0.20346,0 -0.39561,-0.10173 -0.19215,-0.10173 -0.39561,-0.32779 -0.0904,-0.10173 -0.32778,-0.63297 -0.30519,-0.65558 -0.47473,-0.88164 -0.3504,-0.45212 -0.87034,-0.7121 -0.50864,-0.25997 -1.14161,-0.25997 -0.96076,0 -1.78589,0.53125 -0.81382,0.53124 -1.29985,1.57113 -0.47473,1.02858 -0.47473,2.46407 0,2.2267 1.18682,3.53786 1.02858,1.13031 2.45277,1.13031 0.65558,0 1.32246,-0.21476 0.67818,-0.22606 1.27725,-0.65558 0.44082,-0.30518 1.43549,-1.39028 z"
         style="font-family:'Bookman Old Style';-inkscape-font-specification:'Bookman Old Style'"
         id="path1063" /><path
         d="m 187.0911,538.65735 v -1.23204 q 0,-1.25464 -0.70079,-1.78588 -0.70079,-0.54255 -1.97804,-0.54255 -0.63297,0 -1.1077,0.15824 -0.47473,0.14694 -0.76861,0.41822 -0.28258,0.25997 -0.41821,0.59906 -0.0565,0.12433 -0.27128,0.96076 -0.25997,1.01728 -1.05118,1.01728 -0.45213,0 -0.7347,-0.29388 -0.27128,-0.30518 -0.27128,-0.81382 0,-0.74601 0.55385,-1.4581 0.55386,-0.7234 1.68416,-1.18682 1.14161,-0.47473 2.69014,-0.47473 1.44679,0 2.47537,0.45212 1.02858,0.44082 1.51461,1.27725 0.33909,0.57646 0.33909,2.10237 v 4.35169 q 0,0.92685 0.0565,1.20942 0.12433,0.48604 0.42952,0.7347 0.31648,0.23737 0.81382,0.23737 0.51994,0 1.24334,-0.24867 v 0.98337 q -0.93816,0.27127 -1.68416,0.27127 -0.80252,0 -1.35637,-0.22606 -0.54255,-0.22606 -0.89294,-0.65558 -0.3504,-0.44082 -0.45213,-1.03988 -1.35637,1.06249 -2.45277,1.49201 -1.09639,0.42951 -2.2154,0.42951 -1.55982,0 -2.53189,-0.84773 -0.97206,-0.84773 -0.97206,-1.98934 0,-0.68949 0.35039,-1.31116 0.3617,-0.62167 1.0851,-1.09639 0.7347,-0.47473 2.29452,-0.83643 1.55983,-0.3617 4.32908,-0.65558 z m 0,0.98337 q -2.62231,0.3843 -3.24398,0.53124 -1.23204,0.28258 -1.76328,0.62167 -0.53125,0.33909 -0.75731,0.7347 -0.22606,0.38431 -0.22606,0.82513 0,0.44082 0.24867,0.85903 0.25997,0.40691 0.7234,0.64427 0.46342,0.23737 0.98336,0.23737 0.7347,0 1.66156,-0.3504 0.92685,-0.35039 2.37364,-1.36767 z"
         style="font-family:'Bookman Old Style';-inkscape-font-specification:'Bookman Old Style'"
         id="path1065" /><path
         d="m 192.36964,535.9107 v -0.92685 q 0.82512,-0.0678 1.4694,-0.27127 0.64427,-0.21476 1.4694,-0.68949 h 0.84773 v 2.13628 q 0.80252,-0.98337 1.86501,-1.55983 1.06249,-0.57645 1.91022,-0.57645 0.83642,0 1.32246,0.39561 0.48603,0.3956 0.48603,0.96076 0,0.40691 -0.32779,0.72339 -0.31649,0.30519 -0.76861,0.30519 -0.20346,0 -0.3504,-0.0565 -0.14694,-0.0565 -0.42951,-0.24867 -0.62167,-0.40691 -1.03989,-0.40691 -0.56515,0 -1.24333,0.47473 -0.85904,0.61037 -1.34507,1.19813 v 5.21072 q 0,0.67818 0.0678,0.92685 0.0791,0.23736 0.24867,0.41821 0.16954,0.16955 0.41821,0.24867 0.24867,0.0791 0.87034,0.0791 h 0.373 v 0.94946 h -5.84369 v -0.94946 h 0.48603 q 0.68949,0 0.90425,-0.12433 0.29388,-0.16955 0.42951,-0.46343 0.14694,-0.30518 0.14694,-1.08509 v -6.66882 z"
         style="font-family:'Bookman Old Style';-inkscape-font-specification:'Bookman Old Style'"
         id="path1067" /><path
         d="m 209.61813,530.53044 v -0.96076 q 0.76861,-0.0678 1.40158,-0.25997 0.64427,-0.20346 1.60504,-0.68949 h 0.84773 v 13.71063 q 0,0.94946 0.0452,1.15291 0.11303,0.42952 0.3843,0.59907 0.27128,0.16954 1.05119,0.16954 h 0.48603 v 0.94946 l -3.92217,0.18085 v -1.79719 q -1.1303,1.02858 -2.12497,1.4581 -0.98337,0.42951 -1.97804,0.42951 -2.04586,0 -3.40223,-1.63894 -1.34506,-1.65025 -1.34506,-3.96738 0,-1.65025 0.71209,-3.01792 0.7234,-1.37898 1.89892,-2.10238 1.17552,-0.72339 2.5771,-0.72339 1.07379,0 1.98934,0.373 0.91555,0.373 1.67285,1.119 v -4.98465 z m 1.89891,11.93605 v -4.27257 q 0,-0.91555 -0.35039,-1.492 -0.33909,-0.58776 -1.13031,-1.01728 -0.77991,-0.42952 -1.60504,-0.42952 -0.98336,0 -1.81979,0.54255 -0.82513,0.53125 -1.29985,1.54852 -0.46343,1.00598 -0.46343,2.44147 0,1.35637 0.42952,2.35104 0.44082,0.98336 1.17552,1.50331 0.7347,0.50863 1.50331,0.50863 0.7573,0 1.71806,-0.42951 0.96076,-0.44082 1.8424,-1.25464 z"
         style="font-family:'Bookman Old Style';-inkscape-font-specification:'Bookman Old Style'"
         id="path1069" /><path
         d="m 219.79091,542.56821 q 0.59906,0 1.00597,0.41822 0.41822,0.40691 0.41822,0.99467 0,0.58776 -0.41822,1.00597 -0.41821,0.40691 -1.00597,0.40691 -0.57646,0 -0.99467,-0.40691 -0.41822,-0.41821 -0.41822,-1.00597 0,-0.58776 0.40692,-0.99467 0.41821,-0.41822 1.00597,-0.41822 z"
         style="font-family:'Bookman Old Style';-inkscape-font-specification:'Bookman Old Style'"
         id="path1071" /></g><g
       id="g10292"
       transform="matrix(1.3273314,-0.35018289,0.33292339,1.2619111,-39.705417,-0.23167477)"
       sodipodi:insensitive="true"><path
         style="fill:#ffffff;fill-opacity:1;fill-rule:evenodd;stroke:#000000;stroke-width:0.901;stroke-linecap:round;stroke-dasharray:none;stroke-opacity:1"
         d="m 39.627893,85.480149 c 0,0 -1.855432,8.471238 9.015371,8.935579 11.145256,0.476064 8.5577,-7.399776 8.5577,-7.399776 1.166935,-1.43729 4.253787,-0.875513 5.544365,-4.244772 3.461709,-9.037341 10.776364,-10.370036 6.040865,-14.47378 -4.564047,-3.955165 -10.140285,5.332829 -10.140285,5.332829 1.757608,-14.773658 -1.54748,-8.784762 -16.005869,-9.996894 -8.957985,-1.109464 -5.73241,4.931087 -4.789196,8.771299 0,0 -3.246489,2.11243 -2.458382,7.128573 0.820516,4.515057 4.235431,5.946942 4.235431,5.946942 z"
         id="path6268"
         sodipodi:nodetypes="cscssccccc" /><path
         style="fill:none;fill-opacity:1;fill-rule:evenodd;stroke:#000000;stroke-width:0.900999;stroke-linecap:round;stroke-dasharray:none;stroke-opacity:1"
         d="m 58.647879,86.10189 c 0,0 -2.423737,0.741248 -3.668149,0.964475 -0.766407,0.137481 -2.32474,0.228272 -2.32474,0.228272"
         id="path9505"
         sodipodi:nodetypes="cac" /><path
         style="fill:none;fill-opacity:1;fill-rule:evenodd;stroke:#000000;stroke-width:0.900999;stroke-linecap:round;stroke-dasharray:none;stroke-opacity:1"
         d="m 39.568068,85.420737 c 0,0 1.800184,0.59905 2.721809,0.818599 1.271217,0.302829 3.8601,0.684777 3.8601,0.684777"
         id="path9507"
         sodipodi:nodetypes="cac" /><g
         id="g9551"
         style="display:inline"><g
           id="g6197"
           transform="matrix(0.10956336,-0.31745213,0.26137714,0.13306872,13.558755,68.502098)"><rect
             style="fill:#d4aa00;fill-rule:evenodd;stroke-width:0.601001"
             id="rect3569"
             width="63.480251"
             height="23.891479"
             x="-31.055803"
             y="74.16758"
             ry="3.4553792"
             transform="matrix(-0.8409155,0.54116645,0.54116645,0.8409155,0,0)" /><rect
             style="fill:#ffff00;fill-rule:evenodd;stroke-width:0.601001"
             id="rect3623"
             width="63.480251"
             height="23.891479"
             x="-33.425217"
             y="75.845909"
             ry="3.4553792"
             transform="matrix(-0.8409155,0.54116645,0.54116645,0.8409155,0,0)" /><rect
             style="fill:#ffff00;fill-rule:evenodd;stroke-width:0.601001"
             id="rect9509"
             width="63.480251"
             height="23.891479"
             x="-33.425217"
             y="75.845909"
             ry="3.4553792"
             transform="matrix(-0.8409155,0.54116645,0.54116645,0.8409155,0,0)" /></g><g
           id="g9529"
           transform="matrix(0.17171601,-0.36042594,0.31623854,0.19570956,14.706829,63.658989)"><rect
             style="fill:#d4aa00;fill-rule:evenodd;stroke-width:0.601001"
             id="rect9523"
             width="63.480251"
             height="23.891479"
             x="-31.055803"
             y="74.16758"
             ry="3.4553792"
             transform="matrix(-0.8409155,0.54116645,0.54116645,0.8409155,0,0)" /><rect
             style="fill:#ffff00;fill-rule:evenodd;stroke-width:0.601001"
             id="rect9525"
             width="63.480251"
             height="23.891479"
             x="-33.425217"
             y="75.845909"
             ry="3.4553792"
             transform="matrix(-0.8409155,0.54116645,0.54116645,0.8409155,0,0)" /><rect
             style="fill:#ffff00;fill-rule:evenodd;stroke-width:0.601001"
             id="rect9527"
             width="63.480251"
             height="23.891479"
             x="-33.425217"
             y="75.845909"
             ry="3.4553792"
             transform="matrix(-0.8409155,0.54116645,0.54116645,0.8409155,0,0)" /></g><g
           id="g9537"
           transform="matrix(0.22339189,-0.36766477,0.28362824,0.24203306,24.205398,59.838246)"><rect
             style="fill:#d4aa00;fill-rule:evenodd;stroke-width:0.601001"
             id="rect9531"
             width="63.480251"
             height="23.891479"
             x="-31.055803"
             y="74.16758"
             ry="3.4553792"
             transform="matrix(-0.8409155,0.54116645,0.54116645,0.8409155,0,0)" /><rect
             style="fill:#ffff00;fill-rule:evenodd;stroke-width:0.601001"
             id="rect9533"
             width="63.480251"
             height="23.891479"
             x="-33.425217"
             y="75.845909"
             ry="3.4553792"
             transform="matrix(-0.8409155,0.54116645,0.54116645,0.8409155,0,0)" /><rect
             style="fill:#ffff00;fill-rule:evenodd;stroke-width:0.601001"
             id="rect9535"
             width="63.480251"
             height="23.891479"
             x="-33.44046"
             y="77.316818"
             ry="3.4553792"
             transform="matrix(-0.8409155,0.54116645,0.54116645,0.8409155,0,0)" /></g><path
           style="fill:#d4aa00;fill-opacity:1;fill-rule:evenodd;stroke:none;stroke-width:0.900999;stroke-linecap:round;stroke-dasharray:none;stroke-opacity:1"
           d="m 36.147415,73.70477 c -2.554498,2.242295 -1.461834,2.599362 0.977331,3.560269 2.029737,0.662897 3.560269,-2.164086 3.560269,-2.164086 0,0 1.663925,2.556112 2.44332,1.884849 3.977126,-3.425346 4.110231,0.751889 5.445119,-0.488666 2.423167,-2.251927 6.631875,-0.767902 6.631875,-0.767902 l 2.303703,0.139621 1.88485,-2.652752 z"
           id="path9609"
           sodipodi:nodetypes="cccsscccc" /><path
           style="fill:#ffff00;fill-opacity:1;fill-rule:evenodd;stroke:none;stroke-width:0.900999;stroke-linecap:round;stroke-dasharray:none;stroke-opacity:1"
           d="m 35.937988,73.006678 c -2.554498,2.242295 -1.461834,2.599362 0.977331,3.560269 2.029737,0.662897 3.560269,-2.164086 3.560269,-2.164086 0,0 1.663925,2.556112 2.44332,1.884849 3.977126,-3.425346 4.110231,0.751889 5.445119,-0.488666 2.423167,-2.251927 6.631875,-0.767902 6.631875,-0.767902 l 2.303703,0.139621 1.88485,-2.652752 z"
           id="path9607"
           sodipodi:nodetypes="cccsscccc" /></g><path
         style="fill:none;fill-opacity:1;fill-rule:evenodd;stroke:#000000;stroke-width:0.900999;stroke-linecap:round;stroke-dasharray:none;stroke-opacity:1"
         d="m 60.964586,70.528448 c 0,0 -2.387105,3.008998 -3.250578,4.709972 -0.189972,0.374229 -0.414404,1.188908 -0.414404,1.188908 0,0 -1.144472,-0.508061 -3.884462,0.299621 -1.044689,0.307948 -2.81722,1.655036 -2.81722,1.655036"
         id="path9503"
         sodipodi:nodetypes="cacsc" /></g></g></svg>
