<?xml version="1.0" encoding="UTF-8" standalone="no"?>
<!-- Created with Inkscape (http://www.inkscape.org/) -->

<svg
   width="400.00006"
   height="600"
   viewBox="0 0 105.83335 158.75"
   version="1.1"
   id="svg5"
   inkscape:export-filename="CardTemplate.svg"
   inkscape:export-xdpi="26.281288"
   inkscape:export-ydpi="26.281288"
   sodipodi:docname="CastleCard.svg"
   inkscape:version="1.2.2 (732a01da63, 2022-12-09)"
   xmlns:inkscape="http://www.inkscape.org/namespaces/inkscape"
   xmlns:sodipodi="http://sodipodi.sourceforge.net/DTD/sodipodi-0.dtd"
   xmlns="http://www.w3.org/2000/svg"
   xmlns:svg="http://www.w3.org/2000/svg">
  <sodipodi:namedview
     id="namedview7"
     pagecolor="#505050"
     bordercolor="#ffffff"
     borderopacity="1"
     inkscape:showpageshadow="0"
     inkscape:pageopacity="0"
     inkscape:pagecheckerboard="1"
     inkscape:deskcolor="#505050"
     inkscape:document-units="mm"
     showgrid="false"
     showguides="true"
     inkscape:zoom="0.94752309"
     inkscape:cx="-15.830749"
     inkscape:cy="324.53035"
     inkscape:window-width="1920"
     inkscape:window-height="991"
     inkscape:window-x="-9"
     inkscape:window-y="-9"
     inkscape:window-maximized="1"
     inkscape:current-layer="layer1" />
  <defs
     id="defs2">
    <linearGradient
       id="linearGradient3910"
       inkscape:swatch="solid">
      <stop
         style="stop-color:#000000;stop-opacity:1;"
         offset="0"
         id="stop3908" />
    </linearGradient>
    <linearGradient
       id="linearGradient3902"
       inkscape:swatch="solid">
      <stop
         style="stop-color:#000000;stop-opacity:1;"
         offset="0"
         id="stop3900" />
    </linearGradient>
    <linearGradient
       id="linearGradient1908"
       inkscape:swatch="gradient">
      <stop
         style="stop-color:#412a2a;stop-opacity:1;"
         offset="0.83033931"
         id="stop1904" />
      <stop
         style="stop-color:#412a2a;stop-opacity:0;"
         offset="0.84431136"
         id="stop1906" />
    </linearGradient>
    <rect
       x="20.732048"
       y="466.96472"
       width="356.39377"
       height="115.50713"
       id="rect857" />
    <rect
       x="13.821366"
       y="17.770327"
       width="368.24066"
       height="96.749557"
       id="rect721" />
  </defs>
  <g
     inkscape:label="Layer 1"
     inkscape:groupmode="layer"
     id="layer1"
     transform="translate(-0.33529438,-0.33529437)">
    <g
       id="rect386">
      <path
         style="color:#000000;fill:#c87137;stroke-width:2.64597;stroke-linejoin:round;-inkscape-stroke:none;paint-order:markers fill stroke"
         d="M 1.6582794,1.6582794 H 104.84566 V 157.76231 H 1.6582794 Z"
         id="path3659" />
      <path
         style="color:#000000;fill:#331f14;stroke-linejoin:round;-inkscape-stroke:none;paint-order:markers fill stroke"
         d="M 1.6582031,0.3359375 A 1.3231174,1.3231174 0 0 0 0.3359375,1.6582031 V 157.76172 a 1.3231174,1.3231174 0 0 0 1.3222656,1.32422 H 104.8457 a 1.3231174,1.3231174 0 0 0 1.32227,-1.32422 V 1.6582031 A 1.3231174,1.3231174 0 0 0 104.8457,0.3359375 Z M 2.9804688,2.9804688 H 103.52344 V 156.43945 H 2.9804688 Z"
         id="path3661" />
    </g>
    <path
       id="rect711"
       style="opacity:1;vector-effect:none;fill:#6aaf4d;stroke-width:0.289246;stop-color:#000000;stop-opacity:1"
       d="M 4.6319232,31.432753 H 101.0618 V 111.92898 H 4.6319232 Z" />
    <g
       aria-label="Castle"
       transform="matrix(0.26458333,0,0,0.26458333,0,9.5250005)"
       id="text719"
       style="font-size:53.3333px;line-height:0;font-family:Broadway;-inkscape-font-specification:Broadway;text-align:center;letter-spacing:0px;word-spacing:0px;baseline-shift:baseline;white-space:pre;shape-inside:url(#rect721);display:inline;opacity:1;vector-effect:none;stroke-width:0.999999;stop-color:#000000;stop-opacity:1">
      <path
         d="m 128.91899,7.8420631 -0.13021,18.4635309 0.13021,15.677074 q 1.35416,0.182291 2.23958,0.182291 2.55208,0 5.23437,-0.911457 2.68229,-0.911458 4.73958,-2.473957 1.32813,-1.015625 2.73437,-2.708332 1.4323,-1.692707 2.29167,-3.30729 0.49479,-0.937499 1.06771,-0.937499 0.85937,0 0.85937,0.729166 0,0.78125 -1.30208,2.656248 -1.27604,1.848958 -2.8125,3.333332 -3.33333,3.203123 -7.83854,4.453122 -2.70833,0.755208 -5.20833,0.755208 -3.64583,0 -7.3177,-1.562499 -5.88541,-2.473957 -8.95833,-7.838537 -2.55208,-4.453122 -2.55208,-9.453119 0,-5.104164 2.65625,-9.635411 2.83854,-4.817706 8.02083,-7.3697876 3.77604,-1.8229156 8.15103,-1.8229156 7.5,0 12.96875,5.0781222 2.60416,2.421873 2.60416,3.489581 0,0.286458 -0.26042,0.520833 -0.26041,0.234375 -0.57291,0.234375 -0.52083,0 -1.25,-1.015624 -2.23958,-3.098957 -5.91146,-4.8958309 -3.67187,-1.8229155 -7.76041,-1.8229155 -0.96354,0 -1.82291,0.1822915 z"
         id="path3496" />
      <path
         d="m 169.80438,25.342053 v -3.177082 q -0.026,-3.307289 -0.10417,-4.062497 -0.0781,-0.755208 -0.46875,-1.354166 -0.9375,-1.458333 -4.375,-1.458333 -5.31249,0 -8.20312,3.333332 -1.17187,1.354166 -1.97916,1.354166 -0.59896,0 -1.04167,-0.416667 -0.44271,-0.416666 -0.44271,-0.963541 0,-1.640624 3.88021,-3.385415 3.69792,-1.666665 9.55729,-1.666665 9.63541,0 13.59374,2.916665 1.71875,1.276041 2.23958,2.864581 0.52083,1.588541 0.52083,5.598955 v 10.338536 q -0.10416,2.864581 0.15625,4.322914 0.28646,1.432291 1.25,3.098956 h -14.58332 v -2.734373 q -2.39583,1.640624 -4.76562,2.473957 -2.34375,0.833333 -4.63542,0.833333 -3.8802,0 -6.90104,-2.265624 -3.93228,-2.968748 -3.93228,-7.708329 0,-4.192706 3.17708,-6.770829 3.69791,-3.046873 9.16666,-3.046873 2.23958,0 3.95833,0.416666 1.71875,0.390625 3.93229,1.458333 z m 0.026,1.874999 q -3.28125,-1.640624 -5.07812,-1.640624 -1.51042,0 -1.97917,1.197916 -0.26041,0.651041 -0.26041,3.776039 v 6.223955 q 0.026,2.05729 0.1302,2.499998 0.26042,1.197916 1.77084,1.197916 1.19791,0 2.65624,-0.703125 1.48438,-0.729166 2.70834,-1.90104 z"
         id="path3498" />
      <path
         d="m 188.42415,37.868087 q 0.52084,0 1.32813,0.781249 1.30208,1.223958 3.69791,2.109374 2.39583,0.859375 4.47917,0.859375 0.96354,0 1.43229,-0.3125 0.49479,-0.338542 0.49479,-0.963541 0,-0.625 -0.67708,-1.484374 -0.65105,-0.885417 -2.94271,-3.359373 -5.59896,-5.98958 -7.26562,-8.411454 -1.64063,-2.447915 -1.64063,-4.687497 0,-1.953124 1.11979,-3.723956 1.14584,-1.796874 3.17709,-3.046873 3.35937,-2.083332 7.70833,-2.083332 3.20312,0 6.77082,1.354166 2.78646,1.067707 2.78646,2.317707 0,0.390624 -0.33854,0.703124 -0.3125,0.3125 -0.72917,0.3125 -0.49479,0 -1.84895,-0.963541 -2.76042,-1.979166 -6.01563,-1.979166 -1.14583,0 -1.74479,0.364583 -0.57291,0.364584 -0.57291,1.119791 0,0.885417 1.06771,2.239582 1.09374,1.354166 4.40103,4.583331 3.22917,3.15104 4.08854,4.140623 0.88542,0.963541 1.69271,2.239582 1.38021,2.187498 1.38021,4.73958 0,4.010414 -3.88021,6.484371 -3.17708,2.057291 -7.81249,2.057291 -5.15625,0 -9.14062,-2.291666 -1.17188,-0.703124 -1.61458,-1.145832 -0.41667,-0.442708 -0.41667,-0.963541 0,-0.963541 1.01562,-0.989583 z"
         id="path3500" />
      <path
         d="m 228.24184,5.0816481 -0.28646,8.4114529 -0.026,0.807292 q 2.26562,0 4.11458,-0.182292 0.3125,-0.02604 0.54687,-0.02604 1.14584,0 1.14584,1.041666 0,0.963542 -1.19792,0.963542 -0.36458,0 -0.91146,-0.05208 -2.05729,-0.15625 -2.9427,-0.15625 h -0.75521 l -0.026,5.052081 0.10416,10.130202 0.0781,5.416663 q 0,1.901041 0.28646,2.656249 0.28645,0.755208 0.98958,0.755208 0.9375,0 2.00521,-1.09375 1.04166,-1.093749 1.64062,-2.68229 0.54687,-1.510416 1.30208,-1.510416 0.88542,0 0.88542,0.989583 0,0.989583 -0.88542,2.473957 -0.88541,1.458333 -2.13541,2.552082 -3.07292,2.68229 -7.96875,2.68229 -4.60937,0 -7.13541,-2.786457 -1.30208,-1.406249 -1.79687,-3.124998 -0.4948,-1.74479 -0.4948,-4.817705 v -1.953124 l 0.026,-5.494789 v -9.322911 q -0.36459,-0.02604 -0.52084,-0.02604 -0.26041,0 -1.04166,0.05208 -0.65104,0.05208 -1.09375,0.05208 -1.27604,0 -1.27604,-0.963541 0,-0.937499 1.22395,-0.937499 0.57292,0 0.8073,0.02604 l 1.90104,0.130209 v -2.942707 q 7.70832,-2.7864566 13.43749,-6.1197879 z"
         id="path3502" />
      <path
         d="m 250.24704,7.1389385 0.026,1.3281242 -0.0521,9.1666613 -0.026,3.958331 -0.0521,7.213537 0.10417,12.864576 v 1.015624 h -13.28125 v -1.223957 l 0.0521,-4.140623 0.026,-7.499995 0.0521,-9.817703 -0.026,-5.286455 -0.0781,-5.8072882 0.026,-1.7708323 z"
         id="path3504" />
      <path
         d="m 266.70537,29.300384 v 8.072912 q 0,2.343748 0.28645,2.968748 0.54688,1.197916 2.57813,1.197916 3.02083,0 5.96354,-1.640624 2.96874,-1.666666 5.1302,-4.583331 0.70313,-0.963541 1.01563,-1.223958 0.3125,-0.260416 0.67708,-0.260416 0.44271,0 0.72916,0.338541 0.28646,0.3125 0.28646,0.807292 0,1.093749 -1.74479,2.942706 -2.29166,2.36979 -5.70312,3.854165 -3.38541,1.484374 -6.61458,1.484374 -5.54687,0 -9.79166,-3.723956 -2.47396,-2.187499 -3.80208,-5.390622 -1.17187,-2.812499 -1.17187,-5.624997 0,-2.708332 1.04166,-5.416663 1.04167,-2.734374 2.86458,-4.713539 2.10938,-2.317707 5,-3.593748 2.83854,-1.249999 5.9375,-1.249999 4.8177,0 8.72395,2.83854 6.09375,4.42708 6.04166,12.838534 h -6.0677 l -7.8125,0.02604 z m 6.66666,-1.718749 v -7.604162 q -0.0521,-2.447916 -0.10417,-2.916665 -0.0521,-0.494792 -0.36458,-0.911458 -0.72917,-1.015625 -2.96875,-1.015625 -2.29166,0 -2.86458,1.171875 -0.36458,0.703124 -0.36458,3.671873 v 7.604162 l 3.17708,0.104166 z"
         id="path3506" />
    </g>
    <g
       aria-label="Description:"
       id="text733"
       style="font-size:7.05556px;line-height:0px;font-family:Broadway;-inkscape-font-specification:Broadway;opacity:1;vector-effect:none;stroke-width:0.264583;stop-color:#000000;stop-opacity:1">
      <path
         d="m 4.7016462,116.51791 h 1.8121214 q 0.7096901,0 1.0679802,0.0689 0.8853902,0.16881 1.4297156,0.94396 0.4271921,0.60978 0.4271921,1.34359 0,0.74758 -0.4409725,1.36081 -0.530545,0.74069 -1.3849293,0.91984 -0.2204862,0.0448 -0.3927411,0.0551 -0.1722549,0.0103 -0.7579215,0.0103 H 4.7119815 l 0.010335,-2.27377 z m 2.1049547,0.22048 -0.017226,2.76986 0.020671,1.49173 q 0.4616431,-0.003 0.6614587,-0.0344 0.2032608,-0.0345 0.4650882,-0.14814 0.6166725,-0.26527 0.9680725,-0.85438 0.3066137,-0.50643 0.3066137,-1.09555 0,-0.64078 -0.3617353,-1.17822 -0.6442333,-0.95429 -1.9085841,-0.95429 z"
         id="path3471" />
      <path
         d="m 11.3748,119.44969 v 1.06798 q 0,0.31006 0.0379,0.39274 0.07235,0.15847 0.341065,0.15847 0.399631,0 0.788927,-0.21704 0.392742,-0.22049 0.678685,-0.60634 0.09302,-0.12746 0.134358,-0.16192 0.04134,-0.0344 0.08957,-0.0344 0.05857,0 0.09646,0.0448 0.0379,0.0413 0.0379,0.1068 0,0.14469 -0.230822,0.38929 -0.303168,0.31351 -0.754476,0.50988 -0.447863,0.19637 -0.875055,0.19637 -0.733806,0 -1.295357,-0.49265 -0.327284,-0.28939 -0.5029839,-0.71314 -0.1550294,-0.37207 -0.1550294,-0.74414 0,-0.35829 0.1378039,-0.71658 0.1378034,-0.36173 0.3789604,-0.62356 0.279053,-0.30661 0.661459,-0.47542 0.375516,-0.16537 0.785482,-0.16537 0.637343,0 1.154108,0.37552 0.806153,0.58566 0.799263,1.69843 h -0.802708 l -1.033529,0.003 z m 0.881945,-0.22738 v -1.00597 q -0.0069,-0.32384 -0.01378,-0.38585 -0.0069,-0.0655 -0.04823,-0.12058 -0.09646,-0.13436 -0.392742,-0.13436 -0.303168,0 -0.37896,0.15503 -0.04823,0.093 -0.04823,0.48576 v 1.00597 l 0.420302,0.0138 z"
         id="path3473" />
      <path
         d="m 14.161884,120.58312 q 0.0689,0 0.1757,0.10336 0.172254,0.16192 0.489203,0.27905 0.316949,0.11369 0.592557,0.11369 0.127469,0 0.189481,-0.0413 0.06546,-0.0448 0.06546,-0.12747 0,-0.0827 -0.08957,-0.19637 -0.08613,-0.11714 -0.389296,-0.44442 -0.740696,-0.79237 -0.961182,-1.11277 -0.217041,-0.32384 -0.217041,-0.62011 0,-0.25839 0.148139,-0.49265 0.151584,-0.23772 0.420302,-0.40308 0.444417,-0.27561 1.019749,-0.27561 0.423747,0 0.895725,0.17915 0.368625,0.14125 0.368625,0.30661 0,0.0517 -0.04479,0.093 -0.04134,0.0413 -0.09646,0.0413 -0.06546,0 -0.244602,-0.12747 -0.36518,-0.26183 -0.795817,-0.26183 -0.151584,0 -0.230822,0.0482 -0.07579,0.0482 -0.07579,0.14813 0,0.11714 0.141249,0.29628 0.144694,0.17915 0.582222,0.60634 0.427192,0.41686 0.54088,0.54777 0.117133,0.12747 0.223931,0.29628 0.182591,0.28939 0.182591,0.62701 0,0.53054 -0.51332,0.85783 -0.420302,0.27216 -1.033529,0.27216 -0.68213,0 -1.20923,-0.30317 -0.155029,-0.093 -0.213596,-0.15158 -0.05512,-0.0586 -0.05512,-0.12747 0,-0.12747 0.134359,-0.13092 z"
         id="path3475" />
      <path
         d="m 19.236512,118.20601 v 2.30132 l -0.0034,0.22049 q 0,0.21359 0.05168,0.28594 0.05512,0.0689 0.217041,0.0689 0.406522,0 0.799263,-0.24804 0.392741,-0.2515 0.640788,-0.6718 0.07579,-0.12747 0.148139,-0.12747 0.05168,0 0.09302,0.0482 0.04479,0.0448 0.04479,0.0965 0,0.12402 -0.199816,0.3514 -0.199815,0.22393 -0.465088,0.40307 -0.54088,0.36174 -1.157553,0.36174 -0.844049,0 -1.395264,-0.52366 -0.627008,-0.58911 -0.627008,-1.44349 0,-0.88195 0.661459,-1.46761 0.55466,-0.4961 1.367703,-0.4961 0.647679,0 1.133438,0.30662 0.206705,0.13091 0.337619,0.28249 0.130914,0.14814 0.130914,0.2515 0,0.0517 -0.0379,0.0896 -0.0379,0.0344 -0.09302,0.0344 -0.07235,0 -0.18259,-0.16537 -0.158474,-0.23082 -0.499539,-0.39963 -0.341065,-0.17225 -0.644233,-0.17225 -0.203261,0 -0.261828,0.11369 -0.05857,0.11369 -0.05857,0.49954 z"
         id="path3477" />
      <path
         d="m 23.353405,118.5264 -0.0069,1.32292 0.01378,1.37115 H 21.59296 l 0.0034,-0.18948 0.0034,-0.7028 0.01034,-1.26435 -0.01378,-1.4056 -0.0034,-0.19982 h 1.76389 v 0.70969 q 0.396186,-0.4203 0.551215,-0.53055 0.358291,-0.25149 0.67524,-0.25149 0.192925,0 0.316949,0.0827 0.127468,0.0827 0.127468,0.21015 0,0.0999 -0.07579,0.16536 -0.07579,0.0655 -0.18948,0.0655 -0.07235,0 -0.16192,-0.0413 -0.151584,-0.0724 -0.251492,-0.0724 -0.248047,0 -0.478869,0.16881 -0.230821,0.16881 -0.516764,0.56155 z"
         id="path3479" />
      <path
         d="m 26.202501,116.25264 q 0.909506,0 0.909506,0.47542 0,0.23082 -0.241157,0.36173 -0.237712,0.12747 -0.671794,0.12747 -0.86472,0 -0.86472,-0.4892 0,-0.46853 0.868165,-0.47542 z m 0.89228,1.20578 v 0.0999 l -0.0069,0.53743 -0.0069,0.83372 -0.01034,1.26779 0.01378,0.71314 0.0069,0.31006 h -1.77078 l 0.01722,-1.2678 0.01034,-1.11966 -0.0069,-0.58911 -0.01034,-0.65457 0.0034,-0.13091 z"
         id="path3481" />
      <path
         d="m 27.911269,117.45842 h 1.760445 l -0.01034,0.45131 q 0.347955,-0.29973 0.637343,-0.4203 0.289388,-0.12403 0.637343,-0.12403 0.713136,0 1.157553,0.53055 0.399631,0.47542 0.399631,1.20923 0,0.78203 -0.458198,1.28502 -0.423747,0.46509 -1.057645,0.46509 -0.334174,0 -0.664903,-0.13781 -0.33073,-0.14125 -0.658014,-0.4203 l 0.0034,0.12747 0.0034,0.45131 0.0069,0.37551 0.0034,0.12747 h -1.760445 l 0.0034,-0.98185 0.0069,-0.91295 -0.01034,-1.90514 z m 1.75011,0.76137 v 1.79834 q 0.251492,0.23426 0.451308,0.35484 0.199816,0.11714 0.347955,0.11714 0.137804,0 0.161919,-0.13436 0.0069,-0.0448 0.01034,-0.46509 v -1.68465 q 0,-0.29973 -0.01034,-0.35829 -0.02412,-0.1447 -0.144694,-0.1447 -0.155029,0 -0.375515,0.14125 -0.220487,0.1378 -0.440973,0.37552 z"
         id="path3483" />
      <path
         d="m 34.84625,116.24575 -0.0379,1.11276 -0.0034,0.1068 q 0.299723,0 0.544325,-0.0241 0.04134,-0.003 0.07235,-0.003 0.151585,0 0.151585,0.1378 0,0.12747 -0.158475,0.12747 -0.04823,0 -0.120578,-0.007 -0.272163,-0.0207 -0.389296,-0.0207 h -0.09991 l -0.0034,0.66835 0.01378,1.34014 0.01033,0.71658 q 0,0.2515 0.0379,0.3514 0.0379,0.0999 0.130913,0.0999 0.124024,0 0.265273,-0.14469 0.137804,-0.1447 0.217041,-0.35485 0.07235,-0.19981 0.172255,-0.19981 0.117133,0 0.117133,0.13091 0,0.13091 -0.117133,0.32728 -0.117133,0.19293 -0.282498,0.33762 -0.406522,0.35485 -1.0542,0.35485 -0.609782,0 -0.943957,-0.36863 -0.172255,-0.18603 -0.237712,-0.41341 -0.06546,-0.23082 -0.06546,-0.63734 v -0.25838 l 0.0034,-0.72692 v -1.23334 q -0.04823,-0.003 -0.0689,-0.003 -0.03445,0 -0.137804,0.007 -0.08613,0.007 -0.144694,0.007 -0.16881,0 -0.16881,-0.12747 0,-0.12402 0.161919,-0.12402 0.07579,0 0.106799,0.003 l 0.251492,0.0172 v -0.3893 q 1.019749,-0.36862 1.77767,-0.80959 z"
         id="path3485" />
      <path
         d="m 36.882303,116.25264 q 0.909506,0 0.909506,0.47542 0,0.23082 -0.241157,0.36173 -0.237712,0.12747 -0.671794,0.12747 -0.86472,0 -0.86472,-0.4892 0,-0.46853 0.868165,-0.47542 z m 0.89228,1.20578 v 0.0999 l -0.0069,0.53743 -0.0069,0.83372 -0.01034,1.26779 0.01378,0.71314 0.0069,0.31006 h -1.77078 l 0.01723,-1.2678 0.01034,-1.11966 -0.0069,-0.58911 -0.01034,-0.65457 0.0034,-0.13091 z"
         id="path3487" />
      <path
         d="m 40.313622,117.3654 q 0.554661,0 1.050755,0.30662 0.458198,0.28249 0.699355,0.7717 0.213596,0.43064 0.213596,0.91295 0,0.33073 -0.127469,0.6649 -0.124023,0.33418 -0.341064,0.59256 -0.303169,0.35484 -0.740696,0.53399 -0.358291,0.14814 -0.747587,0.14814 -0.651123,0 -1.171333,-0.38585 -0.406521,-0.29628 -0.616672,-0.76137 -0.1757,-0.39274 -0.1757,-0.83027 0,-0.85438 0.620117,-1.41938 0.582222,-0.52365 1.336698,-0.53399 z m -0.09991,0.22393 -0.01034,3.47266 q 0.106798,0.007 0.148139,0.007 0.478869,0 0.916396,-0.26872 0.420302,-0.26182 0.630453,-0.69591 0.165365,-0.3445 0.165365,-0.75792 0,-0.83027 -0.613228,-1.34703 -0.496094,-0.41686 -1.078315,-0.41686 -0.04823,0 -0.158475,0.007 z"
         id="path3489" />
      <path
         d="m 44.582098,117.45842 v 0.47887 q 0.403077,-0.28594 0.788927,-0.42719 0.385851,-0.1447 0.751032,-0.1447 0.489204,0 0.826823,0.22393 0.254937,0.16881 0.341065,0.42031 0.08957,0.24804 0.08957,0.81304 l -0.0069,1.59508 0.01034,0.80271 h -1.753555 l 0.01378,-0.95774 0.01033,-0.7028 -0.0034,-1.06109 q -0.0034,-0.36863 -0.01033,-0.43753 -0.0034,-0.0724 -0.03101,-0.12747 -0.05512,-0.11024 -0.237712,-0.11024 -0.168809,0 -0.36518,0.0965 -0.19637,0.0965 -0.423747,0.28939 l -0.0034,0.14125 -0.0069,0.96807 -0.0069,0.7407 0.01034,1.01286 0.0034,0.14814 h -1.760445 l 0.01034,-1.35048 0.01034,-0.89228 -0.01034,-0.7717 -0.01034,-0.74759 z"
         id="path3491" />
      <path
         d="m 49.067614,119.7942 q 0.458198,0 0.73725,0.20326 0.279053,0.20326 0.279053,0.54432 0,0.34796 -0.282498,0.56844 -0.282498,0.21704 -0.733805,0.21704 -0.568442,0 -0.85094,-0.31694 -0.165364,-0.18604 -0.165364,-0.43409 0,-0.3514 0.275608,-0.56155 0.275607,-0.21359 0.740696,-0.22048 z m 0,-1.97404 q 0.458198,0 0.73725,0.20326 0.279053,0.20326 0.279053,0.54432 0,0.34796 -0.282498,0.56844 -0.282498,0.21704 -0.733805,0.21704 -0.568442,0 -0.85094,-0.31695 -0.165364,-0.18603 -0.165364,-0.43408 0,-0.3514 0.275608,-0.56155 0.275607,-0.21359 0.740696,-0.22048 z"
         id="path3493" />
    </g>
    <g
       aria-label="Castle using the normal rules of chess, and discard this card."
       transform="matrix(0.27431353,0,0,0.27431353,-0.8676689,-4.702566)"
       id="text855"
       style="font-size:23.1487px;line-height:23.1487px;font-family:Broadway;-inkscape-font-specification:Broadway;white-space:pre;shape-inside:url(#rect857);display:inline;opacity:1;vector-effect:none;stroke-width:0.999999;stop-color:#000000;stop-opacity:1">
      <path
         d="m 34.386538,473.58602 h 0.813822 l 1.435491,5.25593 -1.051187,0.29388 q -0.84773,-1.8198 -1.28855,-2.44147 -0.723397,-1.00597 -1.808493,-1.59373 -1.073792,-0.58776 -2.373646,-0.58776 -1.525915,0 -2.814466,0.82512 -1.277247,0.81382 -2.079766,2.39626 -0.791215,1.58243 -0.791215,3.56046 0,2.03456 0.802518,3.62829 0.813822,1.59374 2.192797,2.45277 1.378976,0.85903 2.972709,0.85903 1.503309,0 3.074437,-0.85903 1.571128,-0.85903 2.724042,-2.40756 l 0.904246,0.62167 q -0.700791,1.03989 -1.514613,1.76328 -1.28855,1.16422 -2.678829,1.71807 -1.390278,0.55385 -3.05183,0.55385 -3.6735,0 -5.968025,-2.72404 -1.898917,-2.26061 -1.898917,-5.38026 0,-2.29453 1.051186,-4.14823 1.051187,-1.86501 2.893588,-2.96141 1.853705,-1.0964 3.989986,-1.0964 1.141611,0 2.113675,0.31649 0.983368,0.30518 1.989342,0.99467 z"
         style="font-family:'Bookman Old Style';-inkscape-font-specification:'Bookman Old Style'"
         id="path3366" />
      <path
         d="m 46.819922,482.80933 v -1.23204 q 0,-1.25464 -0.70079,-1.78588 -0.700791,-0.54255 -1.978039,-0.54255 -0.632972,0 -1.107701,0.15824 -0.47473,0.14694 -0.76861,0.41821 -0.282576,0.25998 -0.418213,0.59907 -0.05652,0.12433 -0.271274,0.96076 -0.259971,1.01728 -1.051186,1.01728 -0.452123,0 -0.7347,-0.29388 -0.271274,-0.30519 -0.271274,-0.81383 0,-0.746 0.553851,-1.45809 0.55385,-0.7234 1.684158,-1.18683 1.141611,-0.47472 2.690132,-0.47472 1.446794,0 2.475374,0.45212 1.02858,0.44082 1.514612,1.27725 0.339093,0.57645 0.339093,2.10237 v 4.35168 q 0,0.92686 0.05652,1.20943 0.124334,0.48603 0.429517,0.7347 0.316486,0.23737 0.813821,0.23737 0.519942,0 1.243339,-0.24867 v 0.98337 q -0.938156,0.27127 -1.684159,0.27127 -0.802518,0 -1.356369,-0.22606 -0.542547,-0.22606 -0.892943,-0.65558 -0.350395,-0.44082 -0.452123,-1.03988 -1.356369,1.06249 -2.452768,1.492 -1.096398,0.42952 -2.215403,0.42952 -1.559824,0 -2.531889,-0.84773 -0.972064,-0.84773 -0.972064,-1.98934 0,-0.68949 0.350395,-1.31116 0.361699,-0.62167 1.085095,-1.0964 0.7347,-0.47473 2.294525,-0.83642 1.559825,-0.3617 4.329078,-0.65558 z m 0,0.98336 q -2.622313,0.38431 -3.243983,0.53125 -1.232035,0.28258 -1.76328,0.62167 -0.531244,0.33909 -0.757306,0.7347 -0.226061,0.3843 -0.226061,0.82512 0,0.44082 0.248667,0.85904 0.259971,0.40691 0.723397,0.64427 0.463426,0.23737 0.983368,0.23737 0.7347,0 1.661552,-0.3504 0.926853,-0.35039 2.373646,-1.36767 z"
         style="font-family:'Bookman Old Style';-inkscape-font-specification:'Bookman Old Style'"
         id="path3368" />
      <path
         d="m 59.773248,478.44634 h 0.791215 l 1.017277,3.45874 -1.017277,0.33909 q -0.610366,-1.39028 -1.718067,-2.18149 -1.096399,-0.80252 -2.226706,-0.80252 -0.870337,0 -1.412885,0.42952 -0.542548,0.41821 -0.542548,0.97206 0,0.51994 0.395608,0.89295 0.384305,0.3843 1.729371,0.87033 l 2.2041,0.77991 q 1.865007,0.66689 2.543192,1.42419 0.666881,0.76861 0.666881,1.74068 0,0.82512 -0.497335,1.59373 -0.497335,0.75731 -1.446794,1.20943 -0.938155,0.45212 -2.158887,0.45212 -1.898917,0 -3.255286,-1.08509 l -0.237365,0.81382 h -0.802518 l -1.412885,-3.69611 1.02858,-0.40691 q 1.02858,1.62764 1.944129,2.30583 1.277248,0.96076 2.757951,0.96076 0.983367,0 1.61634,-0.51994 0.632972,-0.53125 0.632972,-1.17552 0,-0.53125 -0.395608,-0.97207 -0.40691,-0.42951 -1.559824,-0.83642 l -2.611011,-0.94946 q -1.684158,-0.61037 -2.339737,-1.33376 -0.655578,-0.7234 -0.655578,-1.66156 0,-1.14161 1.062489,-2.01194 1.073792,-0.88164 2.724041,-0.88164 0.859034,0 1.537219,0.22606 0.678184,0.21476 1.333763,0.72339 z"
         style="font-family:'Bookman Old Style';-inkscape-font-specification:'Bookman Old Style'"
         id="path3370" />
      <path
         d="m 67.131551,474.60329 h 0.802519 v 3.84305 h 3.357013 v 1.13031 H 67.93407 v 6.81575 q 0,0.87034 0.14694,1.24334 0.158243,0.373 0.519941,0.61037 0.373002,0.23736 0.825125,0.23736 1.073792,0 2.373646,-0.96076 v 1.0964 q -1.480703,1.00597 -2.995315,1.00597 -0.859034,0 -1.559825,-0.3843 -0.689488,-0.38431 -0.949458,-0.90425 -0.248668,-0.51994 -0.248668,-1.80849 v -6.95139 h -1.978039 v -0.94946 q 0.949459,-0.21476 1.525916,-0.66688 0.58776,-0.45213 0.949458,-1.17552 0.361699,-0.7234 0.58776,-2.1815 z"
         style="font-family:'Bookman Old Style';-inkscape-font-specification:'Bookman Old Style'"
         id="path3372" />
      <path
         d="m 72.828301,474.64851 v -0.92686 q 1.537218,-0.11303 2.995315,-0.94946 h 0.836428 v 13.91409 q 0,0.88164 0.113031,1.1077 0.14694,0.31649 0.429517,0.46343 0.282576,0.14694 1.085095,0.14694 h 0.361698 v 0.94946 h -5.821084 v -0.94946 h 0.58776 q 0.553851,0 0.825125,-0.16955 0.282576,-0.16954 0.395607,-0.46342 0.124334,-0.29388 0.124334,-1.17552 v -11.94735 z"
         style="font-family:'Bookman Old Style';-inkscape-font-specification:'Bookman Old Style'"
         id="path3374" />
      <path
         d="m 89.568158,486.43761 0.723397,0.58776 q -0.825124,0.98337 -1.605037,1.55983 -0.768609,0.57646 -1.458096,0.80252 -0.689488,0.23736 -1.61634,0.23736 -1.661553,0 -2.825769,-0.67818 -1.333763,-0.77991 -2.045857,-2.03456 -0.712094,-1.25464 -0.712094,-2.9614 0,-1.78589 0.689488,-3.05183 0.689487,-1.26595 1.921523,-1.98934 1.243338,-0.7347 2.870981,-0.7347 1.209429,0 2.102372,0.3843 0.892943,0.373 1.514612,1.14161 0.62167,0.75731 0.904247,1.74067 0.158243,0.57646 0.180849,1.49201 h -7.991275 q -0.03391,0.55385 -0.03391,0.82513 0,1.42418 0.497336,2.54319 0.497335,1.1077 1.311157,1.63894 0.825124,0.51995 1.865007,0.51995 0.88164,0 1.706765,-0.40692 0.825125,-0.41821 2.000644,-1.61634 z m -1.446793,-4.56644 q -0.169546,-1.03988 -0.486033,-1.53722 -0.305183,-0.49733 -0.88164,-0.79121 -0.565153,-0.29388 -1.277247,-0.29388 -0.712094,0 -1.333763,0.29388 -0.621669,0.29388 -1.039883,0.81382 -0.406911,0.51994 -0.712094,1.51461 z"
         style="font-family:'Bookman Old Style';-inkscape-font-specification:'Bookman Old Style'"
         id="path3376" />
      <path
         d="m 98.723651,478.44634 4.283869,-0.16955 v 7.27918 q 0,0.96077 0.25997,1.52592 0.27127,0.56515 0.81382,0.88164 0.55385,0.30518 1.28855,0.30518 0.90425,0 2.04586,-0.48603 1.15291,-0.48603 2.29452,-1.44679 v -5.26724 q 0,-0.83642 -0.12433,-1.0964 -0.12434,-0.25997 -0.44082,-0.41821 -0.31649,-0.15824 -0.99467,-0.15824 h -0.82513 v -0.94946 l 4.28387,-0.16955 v 8.4321 q 0,0.81382 0.13563,1.13031 0.13564,0.30518 0.39561,0.44082 0.27128,0.12433 1.07379,0.12433 h 0.3504 v 0.94946 l -3.75262,0.19215 v -2.09107 q -1.54852,1.23204 -2.70144,1.70677 -1.15291,0.46342 -2.33973,0.46342 -0.88164,0 -1.53722,-0.23736 -0.64428,-0.23737 -1.14161,-0.7121 -0.48603,-0.47473 -0.74601,-1.14161 -0.25997,-0.66688 -0.25997,-1.42418 v -5.1429 q 0,-0.68949 -0.12433,-0.96077 -0.12433,-0.28257 -0.41821,-0.44082 -0.28258,-0.16954 -0.779916,-0.16954 h -1.039883 z"
         style="font-family:'Bookman Old Style';-inkscape-font-specification:'Bookman Old Style'"
         id="path3378" />
      <path
         d="m 122.73139,478.44634 h 0.79121 l 1.01728,3.45874 -1.01728,0.33909 q -0.61037,-1.39028 -1.71807,-2.18149 -1.0964,-0.80252 -2.2267,-0.80252 -0.87034,0 -1.41289,0.42952 -0.54255,0.41821 -0.54255,0.97206 0,0.51994 0.39561,0.89295 0.38431,0.3843 1.72937,0.87033 l 2.2041,0.77991 q 1.86501,0.66689 2.5432,1.42419 0.66688,0.76861 0.66688,1.74068 0,0.82512 -0.49734,1.59373 -0.49733,0.75731 -1.44679,1.20943 -0.93816,0.45212 -2.15889,0.45212 -1.89892,0 -3.25529,-1.08509 l -0.23736,0.81382 h -0.80252 l -1.41288,-3.69611 1.02858,-0.40691 q 1.02858,1.62764 1.94413,2.30583 1.27724,0.96076 2.75795,0.96076 0.98336,0 1.61634,-0.51994 0.63297,-0.53125 0.63297,-1.17552 0,-0.53125 -0.39561,-0.97207 -0.40691,-0.42951 -1.55982,-0.83642 l -2.61101,-0.94946 q -1.68416,-0.61037 -2.33974,-1.33376 -0.65558,-0.7234 -0.65558,-1.66156 0,-1.14161 1.06249,-2.01194 1.07379,-0.88164 2.72404,-0.88164 0.85903,0 1.53722,0.22606 0.67818,0.21476 1.33376,0.72339 z"
         style="font-family:'Bookman Old Style';-inkscape-font-specification:'Bookman Old Style'"
         id="path3380" />
      <path
         d="m 129.90884,473.07738 q 0.54254,0 0.92685,0.3843 0.3843,0.373 0.3843,0.91555 0,0.54255 -0.3843,0.92685 -0.38431,0.38431 -0.92685,0.38431 -0.54255,0 -0.92686,-0.38431 -0.3843,-0.3843 -0.3843,-0.92685 0,-0.54255 0.3843,-0.91555 0.38431,-0.3843 0.92686,-0.3843 z m -2.88229,6.9966 v -0.93815 q 0.93816,-0.11303 1.57113,-0.31649 0.64427,-0.20345 1.4581,-0.64427 h 0.82512 v 9.06506 q 0,0.47473 0.13564,0.7121 0.13563,0.23736 0.373,0.35039 0.24867,0.10173 0.89294,0.10173 h 0.53125 v 0.94946 h -5.78718 v -0.94946 h 0.46343 q 0.7573,0 1.01727,-0.13564 0.25997,-0.13563 0.3617,-0.3843 0.11303,-0.24867 0.11303,-1.16422 v -6.64621 z"
         style="font-family:'Bookman Old Style';-inkscape-font-specification:'Bookman Old Style'"
         id="path3382" />
      <path
         d="m 134.06837,480.07398 v -0.94946 q 1.00598,-0.11303 1.50331,-0.27127 0.49734,-0.15824 1.43549,-0.67818 h 0.81382 v 2.14758 q 1.49201,-1.25464 2.5432,-1.69546 1.06249,-0.45212 2.14758,-0.45212 0.92685,0 1.63895,0.31648 0.71209,0.30518 1.15291,0.83643 0.45212,0.53124 0.59906,1.20943 0.0904,0.41821 0.0904,1.26594 v 4.97336 q 0,0.89294 0.12433,1.15291 0.13564,0.24867 0.41822,0.3617 0.28257,0.11303 1.39027,0.11303 v 0.94946 h -5.82108 v -0.94946 h 0.31649 q 0.81382,0 1.1077,-0.14694 0.29388,-0.14694 0.41821,-0.42952 0.13564,-0.28257 0.13564,-1.15291 v -4.15953 q 0,-1.28855 -0.21476,-1.78589 -0.20346,-0.49733 -0.71209,-0.80252 -0.49734,-0.31648 -1.26595,-0.31648 -0.91555,0 -1.95543,0.47473 -1.03988,0.46342 -2.01195,1.37897 v 5.21072 q 0,0.88164 0.12434,1.17552 0.13563,0.29388 0.42951,0.44082 0.20346,0.11303 1.0851,0.11303 h 0.32779 v 0.94946 h -5.82109 v -0.94946 h 0.28258 q 0.83643,0 1.14161,-0.13564 0.30518,-0.14694 0.42952,-0.50864 0.0678,-0.18084 0.0678,-1.24333 v -6.44276 z"
         style="font-family:'Bookman Old Style';-inkscape-font-specification:'Bookman Old Style'"
         id="path3384" />
      <path
         d="m 158.07611,479.33928 q 0.50864,-0.59906 1.02858,-0.88164 0.53124,-0.28257 0.97206,-0.28257 0.40691,0 0.67819,0.24866 0.28258,0.23737 0.28258,0.58776 0,0.3617 -0.24867,0.61037 -0.24867,0.24867 -0.63297,0.24867 -0.15825,0 -0.42952,-0.0565 -0.31649,-0.0791 -0.53125,-0.0791 -0.28257,0 -0.58776,0.25997 0.70079,0.84773 0.70079,1.98934 0,1.55983 -1.31115,2.70144 -1.31116,1.14161 -3.3118,1.14161 -1.10771,0 -2.22671,-0.46343 -0.746,0.53125 -0.84773,0.65558 -0.15824,0.19215 -0.15824,0.40691 0,0.32779 0.33909,0.54255 0.42952,0.28258 1.69546,0.47473 l 3.26659,0.48603 q 1.08509,0.16955 2.18149,0.56515 1.0964,0.39561 1.58243,1.02858 0.49734,0.63298 0.49734,1.51462 0,1.492 -1.37898,2.38495 -1.75197,1.14161 -5.19941,1.14161 -1.80849,0 -2.9388,-0.38431 -1.13031,-0.3843 -1.75198,-1.08509 -0.45212,-0.50864 -0.45212,-1.05119 0,-0.70079 0.45212,-1.36767 0.46343,-0.66688 2.12498,-1.89892 -1.07379,-0.27127 -1.53722,-0.63297 -0.58776,-0.46343 -0.58776,-1.05119 0,-0.29388 0.10173,-0.54254 0.11303,-0.25998 0.35039,-0.50864 0.24867,-0.25997 0.89295,-0.7121 0.40691,-0.28257 0.57645,-0.41821 -0.82512,-0.58776 -1.24333,-1.31116 -0.41822,-0.7347 -0.41822,-1.60503 0,-1.4355 1.1077,-2.50929 1.34507,-1.31115 3.62829,-1.31115 1.01728,0 1.77458,0.25997 0.75731,0.24866 1.55983,0.90424 z m -3.43614,-0.11303 q -1.1077,0 -1.87631,0.80252 -0.76861,0.80252 -0.76861,1.98934 0,0.79122 0.3504,1.43549 0.35039,0.63297 0.98337,1.00598 0.63297,0.36169 1.33376,0.36169 0.70079,0 1.33376,-0.373 0.64428,-0.373 0.98337,-1.00597 0.3504,-0.63297 0.3504,-1.42419 0,-1.24334 -0.75731,-2.01195 -0.746,-0.77991 -1.93283,-0.77991 z m -1.79719,9.81107 q -1.08509,0.92685 -1.44679,1.50331 -0.35039,0.57646 -0.35039,1.1077 0,0.45213 0.35039,0.87034 0.3617,0.42952 1.22073,0.70079 0.85904,0.27127 2.15889,0.27127 1.53722,0 2.63362,-0.33909 1.1077,-0.32779 1.58243,-0.84773 0.35039,-0.40691 0.35039,-0.96076 0,-0.47473 -0.29388,-0.80252 -0.28257,-0.32779 -1.08509,-0.57646 -0.79122,-0.23736 -1.4807,-0.35039 z"
         style="font-family:'Bookman Old Style';-inkscape-font-specification:'Bookman Old Style'"
         id="path3386" />
      <path
         d="m 172.21626,474.60329 h 0.80251 v 3.84305 h 3.35702 v 1.13031 h -3.35702 v 6.81575 q 0,0.87034 0.14694,1.24334 0.15825,0.373 0.51995,0.61037 0.373,0.23736 0.82512,0.23736 1.07379,0 2.37365,-0.96076 v 1.0964 q -1.48071,1.00597 -2.99532,1.00597 -0.85903,0 -1.55982,-0.3843 -0.68949,-0.38431 -0.94946,-0.90425 -0.24867,-0.51994 -0.24867,-1.80849 v -6.95139 h -1.97804 v -0.94946 q 0.94946,-0.21476 1.52592,-0.66688 0.58776,-0.45213 0.94946,-1.17552 0.3617,-0.7234 0.58776,-2.1815 z"
         style="font-family:'Bookman Old Style';-inkscape-font-specification:'Bookman Old Style'"
         id="path3388" />
      <path
         d="m 178.03734,474.69372 v -0.97207 q 1.0964,-0.14694 1.70676,-0.33909 0.61037,-0.20345 1.27725,-0.61037 h 0.88164 v 7.47134 q 1.27725,-1.07379 2.41886,-1.57113 1.14161,-0.49733 2.18149,-0.49733 1.51462,0 2.49798,0.90424 0.97207,0.90425 0.97207,2.2041 v 5.54981 q 0,0.82513 0.12433,1.0851 0.13564,0.24867 0.44082,0.373 0.30519,0.11303 1.36768,0.11303 v 0.94946 h -5.83239 v -0.94946 h 0.42951 q 0.82513,0 1.0851,-0.12433 0.25997,-0.13564 0.373,-0.42952 0.12434,-0.30518 0.12434,-1.24334 v -3.85435 q 0,-1.27725 -0.0904,-1.66155 -0.16955,-0.65558 -0.70079,-1.05119 -0.53124,-0.3956 -1.35637,-0.3956 -0.92685,0 -1.94413,0.46342 -1.00597,0.45212 -2.09107,1.36767 v 5.66285 q 0,0.63297 0.11303,0.84773 0.11303,0.21475 0.373,0.31648 0.25998,0.10173 1.03989,0.10173 h 0.46342 v 0.94946 h -5.85499 v -0.94946 h 0.3504 q 0.82512,0 1.19812,-0.20346 0.20346,-0.10172 0.29388,-0.3956 0.0904,-0.29388 0.0904,-1.62765 v -11.48392 z"
         style="font-family:'Bookman Old Style';-inkscape-font-specification:'Bookman Old Style'"
         id="path3390" />
      <path
         d="m 202.99453,486.43761 0.72339,0.58776 q -0.82512,0.98337 -1.60503,1.55983 -0.76861,0.57646 -1.4581,0.80252 -0.68949,0.23736 -1.61634,0.23736 -1.66155,0 -2.82577,-0.67818 -1.33376,-0.77991 -2.04586,-2.03456 -0.71209,-1.25464 -0.71209,-2.9614 0,-1.78589 0.68949,-3.05183 0.68949,-1.26595 1.92152,-1.98934 1.24334,-0.7347 2.87098,-0.7347 1.20943,0 2.10237,0.3843 0.89295,0.373 1.51462,1.14161 0.62167,0.75731 0.90424,1.74067 0.15825,0.57646 0.18085,1.49201 h -7.99127 q -0.0339,0.55385 -0.0339,0.82513 0,1.42418 0.49733,2.54319 0.49734,1.1077 1.31116,1.63894 0.82513,0.51995 1.86501,0.51995 0.88164,0 1.70676,-0.40692 0.82513,-0.41821 2.00065,-1.61634 z m -1.4468,-4.56644 q -0.16954,-1.03988 -0.48603,-1.53722 -0.30518,-0.49733 -0.88164,-0.79121 -0.56515,-0.29388 -1.27725,-0.29388 -0.71209,0 -1.33376,0.29388 -0.62167,0.29388 -1.03988,0.81382 -0.40691,0.51994 -0.7121,1.51461 z"
         style="font-family:'Bookman Old Style';-inkscape-font-specification:'Bookman Old Style'"
         id="path3392" />
      <path
         d="m 212.7717,480.07398 v -0.94946 q 1.00597,-0.11303 1.50331,-0.27127 0.49733,-0.15824 1.43549,-0.67818 h 0.81382 v 2.14758 q 1.492,-1.25464 2.54319,-1.69546 1.06249,-0.45212 2.14758,-0.45212 0.92686,0 1.63895,0.31648 0.71209,0.30518 1.15291,0.83643 0.45213,0.53124 0.59907,1.20943 0.0904,0.41821 0.0904,1.26594 v 4.97336 q 0,0.89294 0.12434,1.15291 0.13563,0.24867 0.41821,0.3617 0.28258,0.11303 1.39028,0.11303 v 0.94946 h -5.82109 v -0.94946 h 0.31649 q 0.81382,0 1.1077,-0.14694 0.29388,-0.14694 0.41822,-0.42952 0.13563,-0.28257 0.13563,-1.15291 v -4.15953 q 0,-1.28855 -0.21476,-1.78589 -0.20345,-0.49733 -0.71209,-0.80252 -0.49734,-0.31648 -1.26594,-0.31648 -0.91555,0 -1.95544,0.47473 -1.03988,0.46342 -2.01194,1.37897 v 5.21072 q 0,0.88164 0.12433,1.17552 0.13564,0.29388 0.42952,0.44082 0.20345,0.11303 1.08509,0.11303 h 0.32779 v 0.94946 h -5.82108 v -0.94946 h 0.28257 q 0.83643,0 1.14161,-0.13564 0.30519,-0.14694 0.42952,-0.50864 0.0678,-0.18084 0.0678,-1.24333 v -6.44276 z"
         style="font-family:'Bookman Old Style';-inkscape-font-specification:'Bookman Old Style'"
         id="path3394" />
      <path
         d="m 233.7502,478.17507 q 1.66155,0 2.87098,0.68948 1.22073,0.68949 1.92152,2.01195 0.7008,1.32246 0.7008,3.01792 0,1.69546 -0.7234,3.01792 -0.7121,1.32246 -1.95543,2.02325 -1.23204,0.68949 -2.95011,0.68949 -2.73534,0 -4.11432,-1.70676 -1.36767,-1.70677 -1.36767,-4.01259 0,-1.68416 0.7121,-2.98402 0.71209,-1.31115 1.98934,-2.02325 1.28855,-0.72339 2.91619,-0.72339 z m -0.0904,1.09639 q -1.28856,0 -2.1815,1.01728 -1.13031,1.26595 -1.13031,3.6848 0,2.32844 0.96077,3.54917 0.87033,1.0851 2.36234,1.0851 0.96076,0 1.70676,-0.50864 0.75731,-0.50864 1.22074,-1.61634 0.46342,-1.11901 0.46342,-2.62232 0,-1.4694 -0.49733,-2.63361 -0.38431,-0.92686 -1.16422,-1.43549 -0.76861,-0.51995 -1.74067,-0.51995 z"
         style="font-family:'Bookman Old Style';-inkscape-font-specification:'Bookman Old Style'"
         id="path3396" />
      <path
         d="m 240.98417,480.06268 v -0.92685 q 0.82513,-0.0678 1.4694,-0.27128 0.64428,-0.21476 1.4694,-0.68948 h 0.84773 v 2.13628 q 0.80252,-0.98337 1.86501,-1.55983 1.06249,-0.57645 1.91022,-0.57645 0.83643,0 1.32246,0.3956 0.48603,0.39561 0.48603,0.96076 0,0.40692 -0.32779,0.7234 -0.31648,0.30518 -0.76861,0.30518 -0.20345,0 -0.35039,-0.0565 -0.14694,-0.0565 -0.42952,-0.24867 -0.62167,-0.40691 -1.03988,-0.40691 -0.56516,0 -1.24334,0.47473 -0.85903,0.61037 -1.34507,1.19813 v 5.21071 q 0,0.67819 0.0678,0.92686 0.0791,0.23736 0.24867,0.41821 0.16955,0.16955 0.41821,0.24867 0.24867,0.0791 0.87034,0.0791 h 0.373 v 0.94946 h -5.84369 v -0.94946 h 0.48603 q 0.68949,0 0.90425,-0.12433 0.29388,-0.16955 0.42952,-0.46343 0.14694,-0.30518 0.14694,-1.0851 v -6.66881 z"
         style="font-family:'Bookman Old Style';-inkscape-font-specification:'Bookman Old Style'"
         id="path3398" />
      <path
         d="m 251.16824,480.07398 v -0.96076 q 0.84773,-0.0791 1.4807,-0.27127 0.63297,-0.20346 1.44679,-0.66688 h 0.83643 v 1.89891 q 1.28855,-1.01727 2.01195,-1.36767 1.1077,-0.53124 2.11367,-0.53124 0.68949,0 1.34507,0.25997 0.66688,0.24866 1.06249,0.62167 0.40691,0.373 0.68949,1.01727 1.18682,-1.05118 2.19279,-1.4694 1.01728,-0.42951 2.05716,-0.42951 0.99468,0 1.75198,0.41821 0.76861,0.40691 1.1077,1.02858 0.3504,0.62167 0.3504,1.81979 v 5.24463 q 0,0.82513 0.0339,0.96076 0.0565,0.21476 0.23736,0.40691 0.19215,0.19216 0.42952,0.27128 0.23736,0.0791 0.88164,0.0791 h 0.3617 v 0.94946 h -5.68545 v -0.94946 q 0.97206,-0.0113 1.25464,-0.13564 0.29388,-0.13563 0.42952,-0.42951 0.14694,-0.29388 0.14694,-1.15292 v -4.98465 q 0,-0.94946 -0.16955,-1.31116 -0.16954,-0.3617 -0.61036,-0.59906 -0.42952,-0.24867 -1.0738,-0.24867 -0.80251,0 -1.68415,0.42951 -1.17552,0.58776 -1.85371,1.32246 v 5.39157 q 0,0.77991 0.0678,1.02858 0.0791,0.23737 0.24867,0.40691 0.18085,0.15825 0.40691,0.22606 0.23736,0.0565 1.13031,0.0565 v 0.94946 h -5.57242 v -0.94946 h 0.31648 q 0.66689,0 0.93816,-0.15824 0.28258,-0.15825 0.44082,-0.48604 0.11303,-0.25997 0.11303,-1.07379 v -4.81511 q 0,-1.06249 -0.16955,-1.43549 -0.15824,-0.373 -0.62166,-0.63297 -0.46343,-0.25997 -1.0851,-0.25997 -0.7347,0 -1.4807,0.3617 -1.1077,0.53124 -2.03456,1.39027 v 5.80979 q 0,0.51994 0.13564,0.76861 0.14694,0.23736 0.45212,0.3843 0.30519,0.14694 0.83643,0.14694 h 0.41821 v 0.94946 h -5.68544 v -0.94946 h 0.30518 q 0.77991,0 1.02858,-0.12433 0.3617,-0.16955 0.51994,-0.54255 0.0904,-0.20346 0.0904,-1.05119 v -6.6123 z"
         style="font-family:'Bookman Old Style';-inkscape-font-specification:'Bookman Old Style'"
         id="path3400" />
      <path
         d="m 281.07618,482.80933 v -1.23204 q 0,-1.25464 -0.70079,-1.78588 -0.70079,-0.54255 -1.97804,-0.54255 -0.63297,0 -1.1077,0.15824 -0.47473,0.14694 -0.76861,0.41821 -0.28258,0.25998 -0.41822,0.59907 -0.0565,0.12433 -0.27127,0.96076 -0.25997,1.01728 -1.05119,1.01728 -0.45212,0 -0.7347,-0.29388 -0.27127,-0.30519 -0.27127,-0.81383 0,-0.746 0.55385,-1.45809 0.55385,-0.7234 1.68416,-1.18683 1.14161,-0.47472 2.69013,-0.47472 1.4468,0 2.47538,0.45212 1.02858,0.44082 1.51461,1.27725 0.33909,0.57645 0.33909,2.10237 v 4.35168 q 0,0.92686 0.0565,1.20943 0.12433,0.48603 0.42951,0.7347 0.31649,0.23737 0.81382,0.23737 0.51995,0 1.24334,-0.24867 v 0.98337 q -0.93815,0.27127 -1.68416,0.27127 -0.80251,0 -1.35636,-0.22606 -0.54255,-0.22606 -0.89295,-0.65558 -0.35039,-0.44082 -0.45212,-1.03988 -1.35637,1.06249 -2.45277,1.492 -1.0964,0.42952 -2.2154,0.42952 -1.55983,0 -2.53189,-0.84773 -0.97207,-0.84773 -0.97207,-1.98934 0,-0.68949 0.3504,-1.31116 0.3617,-0.62167 1.0851,-1.0964 0.7347,-0.47473 2.29452,-0.83642 1.55982,-0.3617 4.32908,-0.65558 z m 0,0.98336 q -2.62232,0.38431 -3.24398,0.53125 -1.23204,0.28258 -1.76328,0.62167 -0.53125,0.33909 -0.75731,0.7347 -0.22606,0.3843 -0.22606,0.82512 0,0.44082 0.24867,0.85904 0.25997,0.40691 0.72339,0.64427 0.46343,0.23737 0.98337,0.23737 0.7347,0 1.66155,-0.3504 0.92685,-0.35039 2.37365,-1.36767 z"
         style="font-family:'Bookman Old Style';-inkscape-font-specification:'Bookman Old Style'"
         id="path3402" />
      <path
         d="m 286.25299,474.64851 v -0.92686 q 1.53722,-0.11303 2.99531,-0.94946 h 0.83643 v 13.91409 q 0,0.88164 0.11303,1.1077 0.14694,0.31649 0.42952,0.46343 0.28257,0.14694 1.08509,0.14694 h 0.3617 v 0.94946 h -5.82108 v -0.94946 h 0.58776 q 0.55385,0 0.82512,-0.16955 0.28258,-0.16954 0.39561,-0.46342 0.12433,-0.29388 0.12433,-1.17552 v -11.94735 z"
         style="font-family:'Bookman Old Style';-inkscape-font-specification:'Bookman Old Style'"
         id="path3404" />
      <path
         d="m 300.69831,480.06268 v -0.92685 q 0.82513,-0.0678 1.4694,-0.27128 0.64428,-0.21476 1.4694,-0.68948 h 0.84773 v 2.13628 q 0.80252,-0.98337 1.86501,-1.55983 1.06249,-0.57645 1.91022,-0.57645 0.83643,0 1.32246,0.3956 0.48603,0.39561 0.48603,0.96076 0,0.40692 -0.32779,0.7234 -0.31648,0.30518 -0.76861,0.30518 -0.20345,0 -0.35039,-0.0565 -0.14694,-0.0565 -0.42952,-0.24867 -0.62167,-0.40691 -1.03988,-0.40691 -0.56515,0 -1.24334,0.47473 -0.85903,0.61037 -1.34507,1.19813 v 5.21071 q 0,0.67819 0.0678,0.92686 0.0791,0.23736 0.24867,0.41821 0.16955,0.16955 0.41821,0.24867 0.24867,0.0791 0.87034,0.0791 h 0.373 v 0.94946 h -5.84369 v -0.94946 h 0.48603 q 0.68949,0 0.90425,-0.12433 0.29388,-0.16955 0.42952,-0.46343 0.14694,-0.30518 0.14694,-1.0851 v -6.66881 z"
         style="font-family:'Bookman Old Style';-inkscape-font-specification:'Bookman Old Style'"
         id="path3406" />
      <path
         d="m 310.29463,478.44634 4.28387,-0.16955 v 7.27918 q 0,0.96077 0.25997,1.52592 0.27128,0.56515 0.81382,0.88164 0.55385,0.30518 1.28855,0.30518 0.90425,0 2.04586,-0.48603 1.15291,-0.48603 2.29452,-1.44679 v -5.26724 q 0,-0.83642 -0.12433,-1.0964 -0.12433,-0.25997 -0.44082,-0.41821 -0.31649,-0.15824 -0.99467,-0.15824 h -0.82512 v -0.94946 l 4.28386,-0.16955 v 8.4321 q 0,0.81382 0.13564,1.13031 0.13564,0.30518 0.39561,0.44082 0.27127,0.12433 1.07379,0.12433 h 0.35039 v 0.94946 l -3.75262,0.19215 v -2.09107 q -1.54852,1.23204 -2.70143,1.70677 -1.15292,0.46342 -2.33974,0.46342 -0.88164,0 -1.53722,-0.23736 -0.64427,-0.23737 -1.14161,-0.7121 -0.48603,-0.47473 -0.746,-1.14161 -0.25997,-0.66688 -0.25997,-1.42418 v -5.1429 q 0,-0.68949 -0.12434,-0.96077 -0.12433,-0.28257 -0.41821,-0.44082 -0.28258,-0.16954 -0.77991,-0.16954 h -1.03989 z"
         style="font-family:'Bookman Old Style';-inkscape-font-specification:'Bookman Old Style'"
         id="path3408" />
      <path
         d="m 326.52585,474.64851 v -0.92686 q 1.53721,-0.11303 2.99531,-0.94946 h 0.83643 v 13.91409 q 0,0.88164 0.11303,1.1077 0.14694,0.31649 0.42952,0.46343 0.28257,0.14694 1.08509,0.14694 h 0.3617 v 0.94946 h -5.82108 v -0.94946 h 0.58776 q 0.55385,0 0.82512,-0.16955 0.28258,-0.16954 0.39561,-0.46342 0.12433,-0.29388 0.12433,-1.17552 v -11.94735 z"
         style="font-family:'Bookman Old Style';-inkscape-font-specification:'Bookman Old Style'"
         id="path3410" />
      <path
         d="m 343.26571,486.43761 0.72339,0.58776 q -0.82512,0.98337 -1.60503,1.55983 -0.76861,0.57646 -1.4581,0.80252 -0.68949,0.23736 -1.61634,0.23736 -1.66155,0 -2.82577,-0.67818 -1.33376,-0.77991 -2.04586,-2.03456 -0.71209,-1.25464 -0.71209,-2.9614 0,-1.78589 0.68949,-3.05183 0.68949,-1.26595 1.92152,-1.98934 1.24334,-0.7347 2.87098,-0.7347 1.20943,0 2.10237,0.3843 0.89295,0.373 1.51462,1.14161 0.62167,0.75731 0.90424,1.74067 0.15825,0.57646 0.18085,1.49201 h -7.99127 q -0.0339,0.55385 -0.0339,0.82513 0,1.42418 0.49733,2.54319 0.49734,1.1077 1.31116,1.63894 0.82512,0.51995 1.86501,0.51995 0.88164,0 1.70676,-0.40692 0.82513,-0.41821 2.00065,-1.61634 z m -1.4468,-4.56644 q -0.16954,-1.03988 -0.48603,-1.53722 -0.30518,-0.49733 -0.88164,-0.79121 -0.56515,-0.29388 -1.27725,-0.29388 -0.71209,0 -1.33376,0.29388 -0.62167,0.29388 -1.03988,0.81382 -0.40691,0.51994 -0.7121,1.51461 z"
         style="font-family:'Bookman Old Style';-inkscape-font-specification:'Bookman Old Style'"
         id="path3412" />
      <path
         d="m 353.28024,478.44634 h 0.79121 l 1.01728,3.45874 -1.01728,0.33909 q -0.61036,-1.39028 -1.71807,-2.18149 -1.09639,-0.80252 -2.2267,-0.80252 -0.87034,0 -1.41289,0.42952 -0.54254,0.41821 -0.54254,0.97206 0,0.51994 0.3956,0.89295 0.38431,0.3843 1.72937,0.87033 l 2.2041,0.77991 q 1.86501,0.66689 2.5432,1.42419 0.66688,0.76861 0.66688,1.74068 0,0.82512 -0.49734,1.59373 -0.49733,0.75731 -1.44679,1.20943 -0.93816,0.45212 -2.15889,0.45212 -1.89892,0 -3.25528,-1.08509 l -0.23737,0.81382 h -0.80252 l -1.41288,-3.69611 1.02858,-0.40691 q 1.02858,1.62764 1.94413,2.30583 1.27724,0.96076 2.75795,0.96076 0.98336,0 1.61634,-0.51994 0.63297,-0.53125 0.63297,-1.17552 0,-0.53125 -0.39561,-0.97207 -0.40691,-0.42951 -1.55982,-0.83642 l -2.61101,-0.94946 q -1.68416,-0.61037 -2.33974,-1.33376 -0.65558,-0.7234 -0.65558,-1.66156 0,-1.14161 1.06249,-2.01194 1.07379,-0.88164 2.72404,-0.88164 0.85904,0 1.53722,0.22606 0.67818,0.21476 1.33376,0.72339 z"
         style="font-family:'Bookman Old Style';-inkscape-font-specification:'Bookman Old Style'"
         id="path3414" />
      <path
         d="m 27.276903,506.09908 q 1.661552,0 2.870982,0.68948 1.220732,0.68949 1.921523,2.01195 0.70079,1.32246 0.70079,3.01792 0,1.69546 -0.723397,3.01792 -0.712093,1.32246 -1.955432,2.02326 -1.232035,0.68948 -2.950103,0.68948 -2.735344,0 -4.11432,-1.70676 -1.367672,-1.70677 -1.367672,-4.01259 0,-1.68416 0.712094,-2.98402 0.712094,-1.31115 1.989341,-2.02325 1.288551,-0.72339 2.916194,-0.72339 z m -0.09042,1.0964 q -1.288551,0 -2.181494,1.01727 -1.130308,1.26595 -1.130308,3.6848 0,2.32844 0.960762,3.54917 0.870337,1.0851 2.362343,1.0851 0.960761,0 1.706764,-0.50864 0.757306,-0.50864 1.220732,-1.61634 0.463427,-1.11901 0.463427,-2.62232 0,-1.4694 -0.497336,-2.63361 -0.384304,-0.92685 -1.164217,-1.43549 -0.768609,-0.51994 -1.740673,-0.51994 z"
         style="font-family:'Bookman Old Style';-inkscape-font-specification:'Bookman Old Style'"
         id="path3416" />
      <path
         d="m 34.46566,506.37035 h 1.932826 v -1.69546 q 0,-1.75198 1.152914,-2.85968 1.164217,-1.119 3.029225,-1.119 1.243338,0 1.932826,0.51994 0.70079,0.51994 0.70079,1.13031 0,0.40691 -0.282576,0.68948 -0.271274,0.27128 -0.689488,0.27128 -0.373002,0 -0.644275,-0.13564 -0.271274,-0.13564 -0.836428,-0.67818 -0.599063,-0.56516 -1.141611,-0.56516 -0.373001,0 -0.678184,0.23737 -0.29388,0.22606 -0.463427,0.67818 -0.158243,0.44082 -0.158243,1.36767 v 2.15889 h 2.124979 v 1.15291 h -2.124979 v 7.3357 q 0,0.75731 0.113031,1.01728 0.113031,0.24867 0.339092,0.35039 0.226062,0.10173 1.051187,0.10173 h 0.463426 v 0.94946 H 34.46566 v -0.94946 h 0.350396 q 0.892943,0 1.130307,-0.11303 0.248668,-0.11303 0.350396,-0.3617 0.11303,-0.25997 0.101727,-1.16422 v -7.16615 H 34.46566 Z"
         style="font-family:'Bookman Old Style';-inkscape-font-specification:'Bookman Old Style'"
         id="path3418" />
      <path
         d="m 59.332429,514.12426 0.723397,0.58776 q -2.124978,2.83707 -5.097688,2.83707 -2.31713,0 -3.910864,-1.65025 -1.593734,-1.65025 -1.593734,-4.10301 0,-1.63895 0.7347,-2.9388 0.746003,-1.31116 2.05716,-2.03456 1.32246,-0.72339 3.029225,-0.72339 1.944129,0 3.243983,0.96076 1.299853,0.94946 1.299853,1.92152 0,0.51994 -0.305183,0.80252 -0.305183,0.28258 -0.689487,0.28258 -0.203456,0 -0.395608,-0.10173 -0.192152,-0.10173 -0.395608,-0.32779 -0.09042,-0.10173 -0.327789,-0.63297 -0.305183,-0.65558 -0.474729,-0.88164 -0.350396,-0.45213 -0.870337,-0.7121 -0.508639,-0.25997 -1.141611,-0.25997 -0.960761,0 -1.785886,0.53125 -0.813821,0.53124 -1.299854,1.57113 -0.474729,1.02858 -0.474729,2.46407 0,2.2267 1.186823,3.53786 1.02858,1.13031 2.452768,1.13031 0.655578,0 1.32246,-0.21476 0.678184,-0.22606 1.277247,-0.65558 0.44082,-0.30518 1.435491,-1.39028 z"
         style="font-family:'Bookman Old Style';-inkscape-font-specification:'Bookman Old Style'"
         id="path3420" />
      <path
         d="m 61.378286,502.61773 v -0.97207 q 1.096399,-0.14694 1.706765,-0.33909 0.610366,-0.20345 1.277248,-0.61036 h 0.88164 v 7.47133 q 1.277247,-1.07379 2.418858,-1.57113 1.141611,-0.49733 2.181494,-0.49733 1.514612,0 2.49798,0.90424 0.972064,0.90425 0.972064,2.2041 v 5.54981 q 0,0.82513 0.124334,1.0851 0.135637,0.24867 0.44082,0.373 0.305183,0.11303 1.367672,0.11303 v 0.94946 h -5.832387 v -0.94946 h 0.429517 q 0.825124,0 1.085095,-0.12433 0.259971,-0.13564 0.373002,-0.42952 0.124333,-0.30518 0.124333,-1.24334 v -3.85435 q 0,-1.27724 -0.09042,-1.66155 -0.169546,-0.65558 -0.700791,-1.05119 -0.531245,-0.3956 -1.356369,-0.3956 -0.926852,0 -1.944129,0.46342 -1.005974,0.45213 -2.091069,1.36768 v 5.66284 q 0,0.63297 0.11303,0.84773 0.113031,0.21476 0.373002,0.31648 0.259971,0.10173 1.039883,0.10173 h 0.463426 v 0.94946 h -5.854994 v -0.94946 h 0.350396 q 0.825124,0 1.198126,-0.20345 0.203455,-0.10173 0.29388,-0.39561 0.09042,-0.29388 0.09042,-1.62765 v -11.48392 z"
         style="font-family:'Bookman Old Style';-inkscape-font-specification:'Bookman Old Style'"
         id="path3422" />
      <path
         d="m 86.335477,514.36163 0.723397,0.58776 q -0.825124,0.98336 -1.605037,1.55982 -0.768609,0.57646 -1.458097,0.80252 -0.689487,0.23736 -1.61634,0.23736 -1.661552,0 -2.825769,-0.67818 -1.333763,-0.77991 -2.045857,-2.03456 -0.712093,-1.25464 -0.712093,-2.9614 0,-1.78589 0.689487,-3.05183 0.689488,-1.26595 1.921523,-1.98934 1.243339,-0.7347 2.870982,-0.7347 1.209429,0 2.102372,0.3843 0.892943,0.373 1.514612,1.14161 0.621669,0.75731 0.904246,1.74068 0.158243,0.57645 0.18085,1.492 h -7.991276 q -0.03391,0.55385 -0.03391,0.82513 0,1.42418 0.497336,2.54319 0.497335,1.1077 1.311156,1.63894 0.825125,0.51995 1.865008,0.51995 0.88164,0 1.706765,-0.40691 0.825124,-0.41822 2.000644,-1.61634 z m -1.446794,-4.56645 q -0.169546,-1.03988 -0.486032,-1.53722 -0.305183,-0.49733 -0.88164,-0.79121 -0.565154,-0.29388 -1.277248,-0.29388 -0.712093,0 -1.333763,0.29388 -0.621669,0.29388 -1.039883,0.81382 -0.40691,0.51994 -0.712093,1.51461 z"
         style="font-family:'Bookman Old Style';-inkscape-font-specification:'Bookman Old Style'"
         id="path3424" />
      <path
         d="m 96.350007,506.37035 h 0.791216 l 1.017276,3.45874 -1.017276,0.33909 q -0.610367,-1.39027 -1.718068,-2.18149 -1.096398,-0.80252 -2.226706,-0.80252 -0.870337,0 -1.412885,0.42952 -0.542547,0.41821 -0.542547,0.97206 0,0.51995 0.395607,0.89295 0.384305,0.3843 1.729371,0.87033 l 2.2041,0.77992 q 1.865008,0.66688 2.543192,1.42418 0.666882,0.76861 0.666882,1.74068 0,0.82512 -0.497336,1.59373 -0.497335,0.75731 -1.446793,1.20943 -0.938156,0.45212 -2.158888,0.45212 -1.898917,0 -3.255286,-1.08509 l -0.237365,0.81382 h -0.802518 l -1.412885,-3.69611 1.02858,-0.40691 q 1.02858,1.62765 1.944129,2.30583 1.277248,0.96076 2.757951,0.96076 0.983368,0 1.61634,-0.51994 0.632972,-0.53124 0.632972,-1.17552 0,-0.53124 -0.395607,-0.97206 -0.406911,-0.42952 -1.559825,-0.83643 l -2.611011,-0.94946 q -1.684158,-0.61037 -2.339736,-1.33376 -0.655579,-0.7234 -0.655579,-1.66156 0,-1.14161 1.062489,-2.01194 1.073793,-0.88164 2.724042,-0.88164 0.859034,0 1.537218,0.22606 0.678185,0.21476 1.333763,0.7234 z"
         style="font-family:'Bookman Old Style';-inkscape-font-specification:'Bookman Old Style'"
         id="path3426" />
      <path
         d="m 108.38778,506.37035 h 0.79122 l 1.01727,3.45874 -1.01727,0.33909 q -0.61037,-1.39027 -1.71807,-2.18149 -1.0964,-0.80252 -2.22671,-0.80252 -0.87033,0 -1.41288,0.42952 -0.54255,0.41821 -0.54255,0.97206 0,0.51995 0.39561,0.89295 0.3843,0.3843 1.72937,0.87033 l 2.2041,0.77992 q 1.86501,0.66688 2.54319,1.42418 0.66688,0.76861 0.66688,1.74068 0,0.82512 -0.49733,1.59373 -0.49734,0.75731 -1.4468,1.20943 -0.93815,0.45212 -2.15888,0.45212 -1.89892,0 -3.25529,-1.08509 l -0.23737,0.81382 h -0.80251 l -1.41289,-3.69611 1.02858,-0.40691 q 1.02858,1.62765 1.94413,2.30583 1.27725,0.96076 2.75795,0.96076 0.98337,0 1.61634,-0.51994 0.63297,-0.53124 0.63297,-1.17552 0,-0.53124 -0.3956,-0.97206 -0.40691,-0.42952 -1.55983,-0.83643 l -2.61101,-0.94946 q -1.68416,-0.61037 -2.33974,-1.33376 -0.65557,-0.7234 -0.65557,-1.66156 0,-1.14161 1.06248,-2.01194 1.0738,-0.88164 2.72405,-0.88164 0.85903,0 1.53721,0.22606 0.67819,0.21476 1.33377,0.7234 z"
         style="font-family:'Bookman Old Style';-inkscape-font-specification:'Bookman Old Style'"
         id="path3428" />
      <path
         d="m 114.43493,521.36953 -0.61037,-0.746 q 2.31714,-1.88761 2.31714,-3.15356 0,-0.14694 -0.0226,-0.3617 -0.19215,0.0791 -0.373,0.12434 -0.18085,0.0452 -0.33909,0.0452 -0.54255,0 -0.87034,-0.3504 -0.32779,-0.35039 -0.32779,-0.89294 0,-0.53124 0.39561,-0.92685 0.3956,-0.39561 0.94946,-0.39561 0.7686,0 1.31115,0.62167 0.55385,0.61037 0.55385,1.58243 0,0.63297 -0.25997,1.32246 -0.25997,0.70079 -0.7573,1.28855 -0.49734,0.59906 -1.96674,1.8424 z"
         style="font-family:'Bookman Old Style';-inkscape-font-specification:'Bookman Old Style'"
         id="path3430" />
      <path
         d="m 135.70732,510.73334 v -1.23204 q 0,-1.25464 -0.70079,-1.78588 -0.70079,-0.54255 -1.97804,-0.54255 -0.63297,0 -1.1077,0.15824 -0.47473,0.14694 -0.76861,0.41822 -0.28258,0.25997 -0.41821,0.59906 -0.0565,0.12433 -0.27128,0.96076 -0.25997,1.01728 -1.05118,1.01728 -0.45213,0 -0.7347,-0.29388 -0.27128,-0.30519 -0.27128,-0.81382 0,-0.74601 0.55385,-1.4581 0.55385,-0.7234 1.68416,-1.18682 1.14161,-0.47473 2.69013,-0.47473 1.4468,0 2.47538,0.45212 1.02858,0.44082 1.51461,1.27725 0.33909,0.57645 0.33909,2.10237 v 4.35168 q 0,0.92686 0.0565,1.20943 0.12433,0.48604 0.42951,0.7347 0.31649,0.23737 0.81383,0.23737 0.51994,0 1.24333,-0.24867 v 0.98337 q -0.93815,0.27127 -1.68415,0.27127 -0.80252,0 -1.35637,-0.22606 -0.54255,-0.22606 -0.89295,-0.65558 -0.35039,-0.44082 -0.45212,-1.03988 -1.35637,1.06249 -2.45277,1.492 -1.0964,0.42952 -2.2154,0.42952 -1.55982,0 -2.53189,-0.84773 -0.97206,-0.84773 -0.97206,-1.98934 0,-0.68949 0.35039,-1.31116 0.3617,-0.62167 1.0851,-1.0964 0.7347,-0.47473 2.29452,-0.83642 1.55983,-0.3617 4.32908,-0.65558 z m 0,0.98337 q -2.62231,0.3843 -3.24398,0.53124 -1.23204,0.28258 -1.76328,0.62167 -0.53125,0.33909 -0.75731,0.7347 -0.22606,0.3843 -0.22606,0.82512 0,0.44082 0.24867,0.85904 0.25997,0.40691 0.72339,0.64427 0.46343,0.23737 0.98337,0.23737 0.7347,0 1.66155,-0.3504 0.92686,-0.35039 2.37365,-1.36767 z"
         style="font-family:'Bookman Old Style';-inkscape-font-specification:'Bookman Old Style'"
         id="path3432" />
      <path
         d="m 141.01977,507.99799 v -0.94945 q 1.00597,-0.11304 1.50331,-0.27128 0.49733,-0.15824 1.43549,-0.67818 h 0.81382 v 2.14758 q 1.492,-1.25464 2.54319,-1.69546 1.06249,-0.45212 2.14758,-0.45212 0.92686,0 1.63895,0.31648 0.71209,0.30519 1.15291,0.83643 0.45213,0.53125 0.59907,1.20943 0.0904,0.41821 0.0904,1.26594 v 4.97336 q 0,0.89294 0.12434,1.15291 0.13563,0.24867 0.41821,0.3617 0.28258,0.11303 1.39028,0.11303 v 0.94946 h -5.82109 v -0.94946 h 0.31649 q 0.81382,0 1.1077,-0.14694 0.29388,-0.14694 0.41821,-0.42952 0.13564,-0.28257 0.13564,-1.15291 v -4.15953 q 0,-1.28855 -0.21476,-1.78589 -0.20345,-0.49733 -0.71209,-0.80252 -0.49734,-0.31648 -1.26595,-0.31648 -0.91554,0 -1.95543,0.47473 -1.03988,0.46342 -2.01194,1.37897 v 5.21072 q 0,0.88164 0.12433,1.17552 0.13564,0.29388 0.42952,0.44082 0.20345,0.11303 1.08509,0.11303 h 0.32779 v 0.94946 h -5.82108 v -0.94946 h 0.28257 q 0.83643,0 1.14161,-0.13564 0.30519,-0.14694 0.42952,-0.50863 0.0678,-0.18085 0.0678,-1.24334 v -6.44276 z"
         style="font-family:'Bookman Old Style';-inkscape-font-specification:'Bookman Old Style'"
         id="path3434" />
      <path
         d="m 163.33204,502.60643 v -0.96077 q 0.76861,-0.0678 1.40158,-0.25997 0.64428,-0.20345 1.60504,-0.68948 h 0.84773 v 13.71063 q 0,0.94946 0.0452,1.15291 0.11303,0.42952 0.38431,0.59906 0.27127,0.16955 1.05118,0.16955 h 0.48604 v 0.94946 l -3.92217,0.18085 v -1.79719 q -1.13031,1.02858 -2.12498,1.4581 -0.98337,0.42951 -1.97804,0.42951 -2.04586,0 -3.40223,-1.63894 -1.34506,-1.65025 -1.34506,-3.96738 0,-1.65025 0.71209,-3.01792 0.7234,-1.37898 1.89892,-2.10238 1.17552,-0.72339 2.5771,-0.72339 1.07379,0 1.98934,0.373 0.91555,0.373 1.67286,1.119 v -4.98465 z m 1.89892,11.93604 v -4.27256 q 0,-0.91555 -0.3504,-1.492 -0.33909,-0.58776 -1.13031,-1.01728 -0.77991,-0.42952 -1.60503,-0.42952 -0.98337,0 -1.8198,0.54255 -0.82512,0.53124 -1.29985,1.54852 -0.46343,1.00597 -0.46343,2.44147 0,1.35636 0.42952,2.35104 0.44082,0.98336 1.17552,1.5033 0.7347,0.50864 1.50331,0.50864 0.7573,0 1.71807,-0.42951 0.96076,-0.44082 1.8424,-1.25465 z"
         style="font-family:'Bookman Old Style';-inkscape-font-specification:'Bookman Old Style'"
         id="path3436" />
      <path
         d="m 185.09046,502.60643 v -0.96077 q 0.76861,-0.0678 1.40159,-0.25997 0.64427,-0.20345 1.60503,-0.68948 h 0.84773 v 13.71063 q 0,0.94946 0.0452,1.15291 0.11304,0.42952 0.38431,0.59906 0.27127,0.16955 1.05119,0.16955 h 0.48603 v 0.94946 l -3.92217,0.18085 v -1.79719 q -1.13031,1.02858 -2.12498,1.4581 -0.98337,0.42951 -1.97804,0.42951 -2.04585,0 -3.40222,-1.63894 -1.34507,-1.65025 -1.34507,-3.96738 0,-1.65025 0.7121,-3.01792 0.72339,-1.37898 1.89891,-2.10238 1.17552,-0.72339 2.5771,-0.72339 1.0738,0 1.98935,0.373 0.91554,0.373 1.67285,1.119 v -4.98465 z m 1.89892,11.93604 v -4.27256 q 0,-0.91555 -0.35039,-1.492 -0.3391,-0.58776 -1.13031,-1.01728 -0.77991,-0.42952 -1.60504,-0.42952 -0.98337,0 -1.81979,0.54255 -0.82513,0.53124 -1.29986,1.54852 -0.46342,1.00597 -0.46342,2.44147 0,1.35636 0.42951,2.35104 0.44082,0.98336 1.17552,1.5033 0.7347,0.50864 1.50331,0.50864 0.75731,0 1.71807,-0.42951 0.96076,-0.44082 1.8424,-1.25465 z"
         style="font-family:'Bookman Old Style';-inkscape-font-specification:'Bookman Old Style'"
         id="path3438" />
      <path
         d="m 195.19541,501.00139 q 0.54255,0 0.92685,0.3843 0.38431,0.37301 0.38431,0.91555 0,0.54255 -0.38431,0.92686 -0.3843,0.3843 -0.92685,0.3843 -0.54255,0 -0.92685,-0.3843 -0.38431,-0.38431 -0.38431,-0.92686 0,-0.54254 0.38431,-0.91555 0.3843,-0.3843 0.92685,-0.3843 z m -2.88228,6.9966 v -0.93815 q 0.93815,-0.11303 1.57112,-0.31649 0.64428,-0.20345 1.4581,-0.64427 h 0.82513 v 9.06506 q 0,0.47473 0.13563,0.7121 0.13564,0.23736 0.373,0.35039 0.24867,0.10173 0.89295,0.10173 h 0.53124 v 0.94946 h -5.78717 v -0.94946 h 0.46342 q 0.75731,0 1.01728,-0.13564 0.25997,-0.13563 0.3617,-0.3843 0.11303,-0.24867 0.11303,-1.16422 v -6.64621 z"
         style="font-family:'Bookman Old Style';-inkscape-font-specification:'Bookman Old Style'"
         id="path3440" />
      <path
         d="m 206.99583,506.37035 h 0.79121 l 1.01728,3.45874 -1.01728,0.33909 q -0.61036,-1.39027 -1.71806,-2.18149 -1.0964,-0.80252 -2.22671,-0.80252 -0.87034,0 -1.41289,0.42952 -0.54254,0.41821 -0.54254,0.97206 0,0.51995 0.3956,0.89295 0.38431,0.3843 1.72938,0.87033 l 2.2041,0.77992 q 1.865,0.66688 2.54319,1.42418 0.66688,0.76861 0.66688,1.74068 0,0.82512 -0.49734,1.59373 -0.49733,0.75731 -1.44679,1.20943 -0.93816,0.45212 -2.15889,0.45212 -1.89891,0 -3.25528,-1.08509 l -0.23737,0.81382 h -0.80252 l -1.41288,-3.69611 1.02858,-0.40691 q 1.02858,1.62765 1.94413,2.30583 1.27725,0.96076 2.75795,0.96076 0.98337,0 1.61634,-0.51994 0.63297,-0.53124 0.63297,-1.17552 0,-0.53124 -0.39561,-0.97206 -0.40691,-0.42952 -1.55982,-0.83643 l -2.61101,-0.94946 q -1.68416,-0.61037 -2.33974,-1.33376 -0.65558,-0.7234 -0.65558,-1.66156 0,-1.14161 1.06249,-2.01194 1.07379,-0.88164 2.72404,-0.88164 0.85904,0 1.53722,0.22606 0.67819,0.21476 1.33376,0.7234 z"
         style="font-family:'Bookman Old Style';-inkscape-font-specification:'Bookman Old Style'"
         id="path3442" />
      <path
         d="m 221.37333,514.12426 0.7234,0.58776 q -2.12498,2.83707 -5.09769,2.83707 -2.31713,0 -3.91086,-1.65025 -1.59374,-1.65025 -1.59374,-4.10301 0,-1.63895 0.7347,-2.9388 0.746,-1.31116 2.05716,-2.03456 1.32246,-0.72339 3.02923,-0.72339 1.94412,0 3.24398,0.96076 1.29985,0.94946 1.29985,1.92152 0,0.51994 -0.30518,0.80252 -0.30518,0.28258 -0.68949,0.28258 -0.20345,0 -0.39561,-0.10173 -0.19215,-0.10173 -0.3956,-0.32779 -0.0904,-0.10173 -0.32779,-0.63297 -0.30519,-0.65558 -0.47473,-0.88164 -0.3504,-0.45213 -0.87034,-0.7121 -0.50864,-0.25997 -1.14161,-0.25997 -0.96076,0 -1.78589,0.53125 -0.81382,0.53124 -1.29985,1.57113 -0.47473,1.02858 -0.47473,2.46407 0,2.2267 1.18682,3.53786 1.02858,1.13031 2.45277,1.13031 0.65558,0 1.32246,-0.21476 0.67819,-0.22606 1.27725,-0.65558 0.44082,-0.30518 1.43549,-1.39028 z"
         style="font-family:'Bookman Old Style';-inkscape-font-specification:'Bookman Old Style'"
         id="path3444" />
      <path
         d="m 231.5461,510.73334 v -1.23204 q 0,-1.25464 -0.70079,-1.78588 -0.70079,-0.54255 -1.97804,-0.54255 -0.63297,0 -1.1077,0.15824 -0.47473,0.14694 -0.76861,0.41822 -0.28257,0.25997 -0.41821,0.59906 -0.0565,0.12433 -0.27127,0.96076 -0.25997,1.01728 -1.05119,1.01728 -0.45212,0 -0.7347,-0.29388 -0.27127,-0.30519 -0.27127,-0.81382 0,-0.74601 0.55385,-1.4581 0.55385,-0.7234 1.68416,-1.18682 1.14161,-0.47473 2.69013,-0.47473 1.44679,0 2.47537,0.45212 1.02858,0.44082 1.51461,1.27725 0.3391,0.57645 0.3391,2.10237 v 4.35168 q 0,0.92686 0.0565,1.20943 0.12433,0.48604 0.42952,0.7347 0.31648,0.23737 0.81382,0.23737 0.51994,0 1.24334,-0.24867 v 0.98337 q -0.93816,0.27127 -1.68416,0.27127 -0.80252,0 -1.35637,-0.22606 -0.54255,-0.22606 -0.89294,-0.65558 -0.3504,-0.44082 -0.45213,-1.03988 -1.35637,1.06249 -2.45276,1.492 -1.0964,0.42952 -2.21541,0.42952 -1.55982,0 -2.53189,-0.84773 -0.97206,-0.84773 -0.97206,-1.98934 0,-0.68949 0.3504,-1.31116 0.36169,-0.62167 1.08509,-1.0964 0.7347,-0.47473 2.29453,-0.83642 1.55982,-0.3617 4.32907,-0.65558 z m 0,0.98337 q -2.62231,0.3843 -3.24398,0.53124 -1.23203,0.28258 -1.76328,0.62167 -0.53124,0.33909 -0.75731,0.7347 -0.22606,0.3843 -0.22606,0.82512 0,0.44082 0.24867,0.85904 0.25997,0.40691 0.7234,0.64427 0.46342,0.23737 0.98337,0.23737 0.7347,0 1.66155,-0.3504 0.92685,-0.35039 2.37364,-1.36767 z"
         style="font-family:'Bookman Old Style';-inkscape-font-specification:'Bookman Old Style'"
         id="path3446" />
      <path
         d="m 236.82464,507.98669 v -0.92685 q 0.82512,-0.0678 1.4694,-0.27128 0.64428,-0.21475 1.4694,-0.68948 h 0.84773 v 2.13628 q 0.80252,-0.98337 1.86501,-1.55983 1.06249,-0.57645 1.91022,-0.57645 0.83643,0 1.32246,0.3956 0.48603,0.39561 0.48603,0.96077 0,0.40691 -0.32779,0.72339 -0.31648,0.30519 -0.76861,0.30519 -0.20345,0 -0.35039,-0.0565 -0.14694,-0.0565 -0.42952,-0.24867 -0.62167,-0.40691 -1.03988,-0.40691 -0.56516,0 -1.24334,0.47473 -0.85904,0.61037 -1.34507,1.19813 v 5.21072 q 0,0.67818 0.0678,0.92685 0.0791,0.23736 0.24867,0.41821 0.16954,0.16955 0.41821,0.24867 0.24867,0.0791 0.87034,0.0791 h 0.373 v 0.94946 h -5.84369 v -0.94946 h 0.48603 q 0.68949,0 0.90425,-0.12433 0.29388,-0.16955 0.42952,-0.46343 0.14694,-0.30518 0.14694,-1.08509 v -6.66882 z"
         style="font-family:'Bookman Old Style';-inkscape-font-specification:'Bookman Old Style'"
         id="path3448" />
      <path
         d="m 254.07313,502.60643 v -0.96077 q 0.76861,-0.0678 1.40158,-0.25997 0.64428,-0.20345 1.60504,-0.68948 h 0.84773 v 13.71063 q 0,0.94946 0.0452,1.15291 0.11303,0.42952 0.38431,0.59906 0.27127,0.16955 1.05118,0.16955 h 0.48603 v 0.94946 l -3.92216,0.18085 v -1.79719 q -1.13031,1.02858 -2.12498,1.4581 -0.98337,0.42951 -1.97804,0.42951 -2.04586,0 -3.40223,-1.63894 -1.34506,-1.65025 -1.34506,-3.96738 0,-1.65025 0.71209,-3.01792 0.7234,-1.37898 1.89892,-2.10238 1.17552,-0.72339 2.5771,-0.72339 1.07379,0 1.98934,0.373 0.91555,0.373 1.67286,1.119 v -4.98465 z m 1.89892,11.93604 v -4.27256 q 0,-0.91555 -0.3504,-1.492 -0.33909,-0.58776 -1.13031,-1.01728 -0.77991,-0.42952 -1.60503,-0.42952 -0.98337,0 -1.8198,0.54255 -0.82512,0.53124 -1.29985,1.54852 -0.46343,1.00597 -0.46343,2.44147 0,1.35636 0.42952,2.35104 0.44082,0.98336 1.17552,1.5033 0.7347,0.50864 1.50331,0.50864 0.7573,0 1.71806,-0.42951 0.96077,-0.44082 1.84241,-1.25465 z"
         style="font-family:'Bookman Old Style';-inkscape-font-specification:'Bookman Old Style'"
         id="path3450" />
      <path
         d="m 271.76244,502.5273 h 0.80252 v 3.84305 h 3.35702 v 1.13031 h -3.35702 v 6.81575 q 0,0.87034 0.14694,1.24334 0.15825,0.373 0.51994,0.61037 0.37301,0.23736 0.82513,0.23736 1.07379,0 2.37365,-0.96076 v 1.0964 q -1.48071,1.00597 -2.99532,1.00597 -0.85903,0 -1.55982,-0.3843 -0.68949,-0.38431 -0.94946,-0.90425 -0.24867,-0.51994 -0.24867,-1.80849 v -6.95139 h -1.97804 v -0.94946 q 0.94946,-0.21476 1.52592,-0.66688 0.58776,-0.45212 0.94945,-1.17552 0.3617,-0.7234 0.58776,-2.1815 z"
         style="font-family:'Bookman Old Style';-inkscape-font-specification:'Bookman Old Style'"
         id="path3452" />
      <path
         d="m 277.58353,502.61773 v -0.97207 q 1.0964,-0.14694 1.70676,-0.33909 0.61037,-0.20345 1.27725,-0.61036 h 0.88164 v 7.47133 q 1.27725,-1.07379 2.41886,-1.57113 1.14161,-0.49733 2.18149,-0.49733 1.51462,0 2.49798,0.90424 0.97207,0.90425 0.97207,2.2041 v 5.54981 q 0,0.82513 0.12433,1.0851 0.13564,0.24867 0.44082,0.373 0.30518,0.11303 1.36767,0.11303 v 0.94946 h -5.83238 v -0.94946 h 0.42951 q 0.82513,0 1.0851,-0.12433 0.25997,-0.13564 0.373,-0.42952 0.12433,-0.30518 0.12433,-1.24334 v -3.85435 q 0,-1.27724 -0.0904,-1.66155 -0.16955,-0.65558 -0.70079,-1.05119 -0.53125,-0.3956 -1.35637,-0.3956 -0.92685,0 -1.94413,0.46342 -1.00597,0.45213 -2.09107,1.36768 v 5.66284 q 0,0.63297 0.11303,0.84773 0.11303,0.21476 0.373,0.31648 0.25997,0.10173 1.03989,0.10173 h 0.46342 v 0.94946 h -5.85499 v -0.94946 h 0.35039 q 0.82513,0 1.19813,-0.20345 0.20346,-0.10173 0.29388,-0.39561 0.0904,-0.29388 0.0904,-1.62765 v -11.48392 z"
         style="font-family:'Bookman Old Style';-inkscape-font-specification:'Bookman Old Style'"
         id="path3454" />
      <path
         d="m 295.65716,501.00139 q 0.54254,0 0.92685,0.3843 0.3843,0.37301 0.3843,0.91555 0,0.54255 -0.3843,0.92686 -0.38431,0.3843 -0.92685,0.3843 -0.54255,0 -0.92686,-0.3843 -0.3843,-0.38431 -0.3843,-0.92686 0,-0.54254 0.3843,-0.91555 0.38431,-0.3843 0.92686,-0.3843 z m -2.88229,6.9966 v -0.93815 q 0.93816,-0.11303 1.57113,-0.31649 0.64428,-0.20345 1.4581,-0.64427 h 0.82512 v 9.06506 q 0,0.47473 0.13564,0.7121 0.13564,0.23736 0.373,0.35039 0.24867,0.10173 0.89294,0.10173 h 0.53125 v 0.94946 h -5.78718 v -0.94946 h 0.46343 q 0.7573,0 1.01728,-0.13564 0.25997,-0.13563 0.36169,-0.3843 0.11303,-0.24867 0.11303,-1.16422 v -6.64621 z"
         style="font-family:'Bookman Old Style';-inkscape-font-specification:'Bookman Old Style'"
         id="path3456" />
      <path
         d="m 307.45757,506.37035 h 0.79122 l 1.01728,3.45874 -1.01728,0.33909 q -0.61037,-1.39027 -1.71807,-2.18149 -1.0964,-0.80252 -2.2267,-0.80252 -0.87034,0 -1.41289,0.42952 -0.54255,0.41821 -0.54255,0.97206 0,0.51995 0.39561,0.89295 0.38431,0.3843 1.72937,0.87033 l 2.2041,0.77992 q 1.86501,0.66688 2.54319,1.42418 0.66689,0.76861 0.66689,1.74068 0,0.82512 -0.49734,1.59373 -0.49734,0.75731 -1.44679,1.20943 -0.93816,0.45212 -2.15889,0.45212 -1.89892,0 -3.25529,-1.08509 l -0.23736,0.81382 h -0.80252 l -1.41288,-3.69611 1.02858,-0.40691 q 1.02858,1.62765 1.94412,2.30583 1.27725,0.96076 2.75795,0.96076 0.98337,0 1.61634,-0.51994 0.63298,-0.53124 0.63298,-1.17552 0,-0.53124 -0.39561,-0.97206 -0.40691,-0.42952 -1.55983,-0.83643 l -2.61101,-0.94946 q -1.68415,-0.61037 -2.33973,-1.33376 -0.65558,-0.7234 -0.65558,-1.66156 0,-1.14161 1.06249,-2.01194 1.07379,-0.88164 2.72404,-0.88164 0.85903,0 1.53722,0.22606 0.67818,0.21476 1.33376,0.7234 z"
         style="font-family:'Bookman Old Style';-inkscape-font-specification:'Bookman Old Style'"
         id="path3458" />
      <path
         d="m 329.2386,514.12426 0.72339,0.58776 q -2.12498,2.83707 -5.09769,2.83707 -2.31713,0 -3.91086,-1.65025 -1.59373,-1.65025 -1.59373,-4.10301 0,-1.63895 0.7347,-2.9388 0.746,-1.31116 2.05716,-2.03456 1.32246,-0.72339 3.02922,-0.72339 1.94413,0 3.24398,0.96076 1.29986,0.94946 1.29986,1.92152 0,0.51994 -0.30519,0.80252 -0.30518,0.28258 -0.68948,0.28258 -0.20346,0 -0.39561,-0.10173 -0.19215,-0.10173 -0.39561,-0.32779 -0.0904,-0.10173 -0.32779,-0.63297 -0.30518,-0.65558 -0.47473,-0.88164 -0.35039,-0.45213 -0.87033,-0.7121 -0.50864,-0.25997 -1.14161,-0.25997 -0.96077,0 -1.78589,0.53125 -0.81382,0.53124 -1.29985,1.57113 -0.47473,1.02858 -0.47473,2.46407 0,2.2267 1.18682,3.53786 1.02858,1.13031 2.45277,1.13031 0.65558,0 1.32246,-0.21476 0.67818,-0.22606 1.27724,-0.65558 0.44082,-0.30518 1.4355,-1.39028 z"
         style="font-family:'Bookman Old Style';-inkscape-font-specification:'Bookman Old Style'"
         id="path3460" />
      <path
         d="m 339.41137,510.73334 v -1.23204 q 0,-1.25464 -0.70079,-1.78588 -0.70079,-0.54255 -1.97804,-0.54255 -0.63297,0 -1.1077,0.15824 -0.47473,0.14694 -0.76861,0.41822 -0.28258,0.25997 -0.41822,0.59906 -0.0565,0.12433 -0.27127,0.96076 -0.25997,1.01728 -1.05119,1.01728 -0.45212,0 -0.7347,-0.29388 -0.27127,-0.30519 -0.27127,-0.81382 0,-0.74601 0.55385,-1.4581 0.55385,-0.7234 1.68416,-1.18682 1.14161,-0.47473 2.69013,-0.47473 1.4468,0 2.47538,0.45212 1.02858,0.44082 1.51461,1.27725 0.33909,0.57645 0.33909,2.10237 v 4.35168 q 0,0.92686 0.0565,1.20943 0.12433,0.48604 0.42951,0.7347 0.31649,0.23737 0.81382,0.23737 0.51995,0 1.24334,-0.24867 v 0.98337 q -0.93815,0.27127 -1.68416,0.27127 -0.80251,0 -1.35636,-0.22606 -0.54255,-0.22606 -0.89295,-0.65558 -0.35039,-0.44082 -0.45212,-1.03988 -1.35637,1.06249 -2.45277,1.492 -1.0964,0.42952 -2.2154,0.42952 -1.55983,0 -2.53189,-0.84773 -0.97207,-0.84773 -0.97207,-1.98934 0,-0.68949 0.3504,-1.31116 0.3617,-0.62167 1.0851,-1.0964 0.7347,-0.47473 2.29452,-0.83642 1.55982,-0.3617 4.32908,-0.65558 z m 0,0.98337 q -2.62232,0.3843 -3.24398,0.53124 -1.23204,0.28258 -1.76328,0.62167 -0.53125,0.33909 -0.75731,0.7347 -0.22606,0.3843 -0.22606,0.82512 0,0.44082 0.24867,0.85904 0.25997,0.40691 0.72339,0.64427 0.46343,0.23737 0.98337,0.23737 0.7347,0 1.66155,-0.3504 0.92685,-0.35039 2.37365,-1.36767 z"
         style="font-family:'Bookman Old Style';-inkscape-font-specification:'Bookman Old Style'"
         id="path3462" />
      <path
         d="m 344.68989,507.98669 v -0.92685 q 0.82512,-0.0678 1.4694,-0.27128 0.64427,-0.21475 1.4694,-0.68948 h 0.84773 v 2.13628 q 0.80252,-0.98337 1.86501,-1.55983 1.06249,-0.57645 1.91022,-0.57645 0.83643,0 1.32246,0.3956 0.48603,0.39561 0.48603,0.96077 0,0.40691 -0.32779,0.72339 -0.31649,0.30519 -0.76861,0.30519 -0.20345,0 -0.35039,-0.0565 -0.14694,-0.0565 -0.42952,-0.24867 -0.62167,-0.40691 -1.03988,-0.40691 -0.56516,0 -1.24334,0.47473 -0.85904,0.61037 -1.34507,1.19813 v 5.21072 q 0,0.67818 0.0678,0.92685 0.0791,0.23736 0.24867,0.41821 0.16954,0.16955 0.41821,0.24867 0.24867,0.0791 0.87034,0.0791 h 0.373 v 0.94946 h -5.84369 v -0.94946 h 0.48603 q 0.68949,0 0.90425,-0.12433 0.29388,-0.16955 0.42951,-0.46343 0.14694,-0.30518 0.14694,-1.08509 v -6.66882 z"
         style="font-family:'Bookman Old Style';-inkscape-font-specification:'Bookman Old Style'"
         id="path3464" />
      <path
         d="m 361.93839,502.60643 v -0.96077 q 0.76861,-0.0678 1.40159,-0.25997 0.64427,-0.20345 1.60503,-0.68948 h 0.84773 v 13.71063 q 0,0.94946 0.0452,1.15291 0.11303,0.42952 0.3843,0.59906 0.27127,0.16955 1.05119,0.16955 h 0.48603 v 0.94946 l -3.92217,0.18085 v -1.79719 q -1.13031,1.02858 -2.12498,1.4581 -0.98336,0.42951 -1.97804,0.42951 -2.04585,0 -3.40222,-1.63894 -1.34507,-1.65025 -1.34507,-3.96738 0,-1.65025 0.7121,-3.01792 0.72339,-1.37898 1.89891,-2.10238 1.17552,-0.72339 2.5771,-0.72339 1.0738,0 1.98935,0.373 0.91555,0.373 1.67285,1.119 v -4.98465 z m 1.89892,11.93604 v -4.27256 q 0,-0.91555 -0.35039,-1.492 -0.3391,-0.58776 -1.13031,-1.01728 -0.77991,-0.42952 -1.60504,-0.42952 -0.98337,0 -1.81979,0.54255 -0.82513,0.53124 -1.29986,1.54852 -0.46342,1.00597 -0.46342,2.44147 0,1.35636 0.42951,2.35104 0.44082,0.98336 1.17552,1.5033 0.7347,0.50864 1.50331,0.50864 0.75731,0 1.71807,-0.42951 0.96076,-0.44082 1.8424,-1.25465 z"
         style="font-family:'Bookman Old Style';-inkscape-font-specification:'Bookman Old Style'"
         id="path3466" />
      <path
         d="m 372.11118,514.6442 q 0.59906,0 1.00597,0.41822 0.41821,0.40691 0.41821,0.99467 0,0.58776 -0.41821,1.00597 -0.41821,0.40691 -1.00597,0.40691 -0.57646,0 -0.99468,-0.40691 -0.41821,-0.41821 -0.41821,-1.00597 0,-0.58776 0.40691,-0.99467 0.41822,-0.41822 1.00598,-0.41822 z"
         style="font-family:'Bookman Old Style';-inkscape-font-specification:'Bookman Old Style'"
         id="path3468" />
    </g>
    <g
       id="g3317"
       transform="matrix(0.91482131,0.04283951,-0.04283951,0.91482131,7.374831,-1.1469705)">
      <g
         id="rect488">
        <path
           style="color:#000000;fill:#545454;fill-rule:evenodd;stroke-linecap:round;stroke-linejoin:round;-inkscape-stroke:none;paint-order:stroke fill markers"
           d="m 10.613281,50.421875 a 1.5054055,1.5054055 0 0 0 -1.5058591,1.503906 v 3.060547 a 1.5054055,1.5054055 0 0 0 1.5058591,1.505859 h 0.175782 v 48.164063 a 1.5054055,1.5054055 0 0 0 1.505859,1.50391 h 21.822265 a 1.5054055,1.5054055 0 0 0 0.234375,-0.23438 h 38.378907 a 1.5054055,1.5054055 0 0 0 0.234375,0.23438 h 21.820312 a 1.5054055,1.5054055 0 0 0 1.50586,-1.50391 V 56.246094 a 1.5054055,1.5054055 0 0 0 1.259765,-1.259766 v -3.060547 a 1.5054055,1.5054055 0 0 0 -1.505859,-1.503906 h -1.97461 a 1.5054055,1.5054055 0 0 0 -1.503906,1.503906 V 54.375 h -2.273437 v -2.449219 a 1.5054055,1.5054055 0 0 0 -1.50586,-1.503906 H 86.8125 a 1.5054055,1.5054055 0 0 0 -1.505859,1.503906 V 54.375 h -2.951172 v -2.449219 a 1.5054055,1.5054055 0 0 0 -1.50586,-1.503906 H 78.875 a 1.5054055,1.5054055 0 0 0 -1.505859,1.503906 V 54.375 h -2.421875 v -2.449219 a 1.5054055,1.5054055 0 0 0 -1.50586,-1.503906 h -1.974609 a 1.5054055,1.5054055 0 0 0 -1.50586,1.503906 v 3.060547 a 1.5054055,1.5054055 0 0 0 1.498047,1.498047 v 10.888672 h -2.175781 v -1.345703 a 1.5054055,1.5054055 0 0 0 -1.505859,-1.503907 h -1.97461 a 1.5054055,1.5054055 0 0 0 -1.505859,1.503907 v 1.345703 h -3.480469 v -1.345703 a 1.5054055,1.5054055 0 0 0 -1.505859,-1.503907 h -1.97461 a 1.5054055,1.5054055 0 0 0 -1.503906,1.503907 v 1.345703 h -4.541015 v -1.345703 a 1.5054055,1.5054055 0 0 0 -1.50586,-1.503907 h -1.974609 a 1.5054055,1.5054055 0 0 0 -1.503906,1.503907 v 1.345703 h -3.482422 v -1.345703 a 1.5054055,1.5054055 0 0 0 -1.50586,-1.503907 H 39.34375 a 1.5054055,1.5054055 0 0 0 -1.503906,1.503907 v 1.345703 h -2.21875 V 56.212891 a 1.5054055,1.5054055 0 0 0 1.224609,-1.226563 v -3.060547 a 1.5054055,1.5054055 0 0 0 -1.503906,-1.503906 h -1.97461 a 1.5054055,1.5054055 0 0 0 -1.505859,1.503906 V 54.375 H 29.4375 v -2.449219 a 1.5054055,1.5054055 0 0 0 -1.503906,-1.503906 h -1.97461 a 1.5054055,1.5054055 0 0 0 -1.505859,1.503906 V 54.375 H 21.5 v -2.449219 a 1.5054055,1.5054055 0 0 0 -1.503906,-1.503906 h -1.97461 a 1.5054055,1.5054055 0 0 0 -1.505859,1.503906 V 54.375 h -2.423828 v -2.449219 a 1.5054055,1.5054055 0 0 0 -1.503906,-1.503906 z m 3.1875,6.962891 h 18.810547 v 11.49414 a 1.5054055,1.5054055 0 0 0 1.505859,1.50586 h 5.226563 a 1.5054055,1.5054055 0 0 0 0.988281,-0.988282 1.5054055,1.5054055 0 0 0 0.986328,0.988282 h 6.492188 a 1.5054055,1.5054055 0 0 0 0.988281,-0.988282 1.5054055,1.5054055 0 0 0 0.986328,0.988282 h 7.550781 a 1.5054055,1.5054055 0 0 0 0.988282,-0.986329 1.5054055,1.5054055 0 0 0 0.986328,0.986329 h 6.492187 a 1.5054055,1.5054055 0 0 0 0.986328,-0.986329 1.5054055,1.5054055 0 0 0 0.988282,0.986329 h 5.1875 a 1.5054055,1.5054055 0 0 0 1.503906,-1.50586 V 57.384766 H 93.279297 V 103.15039 H 73.201172 a 1.5054055,1.5054055 0 0 0 -0.236328,-0.23633 H 34.117187 a 1.5054055,1.5054055 0 0 0 -0.236328,0.23633 H 13.800781 Z"
           id="path3665" />
        <path
           style="color:#000000;fill:#545454;fill-rule:evenodd;stroke-width:3.01051;stroke-linecap:round;stroke-linejoin:round;-inkscape-stroke:none;paint-order:stroke fill markers"
           d="m 10.612576,51.926283 v 3.060795 h 1.974556 v -3.060795 z m 7.408333,0 v 3.060795 h 1.974556 v -3.060795 z m 7.9375,0 v 3.060795 h 1.974556 v -3.060795 z m 7.408333,0 v 3.060795 h 1.974557 v -3.060795 z m 38.1,0 v 3.060795 h 1.974557 v -3.060795 z m 7.408334,0 v 3.060795 h 1.974556 v -3.060795 z m 7.9375,0 v 3.060795 h 1.974556 v -3.060795 z m 7.258471,0 v 3.060279 h 1.974557 V 51.926283 Z M 12.29516,55.87953 v 48.77584 h 21.821407 v -0.23513 h 38.847758 v 0.23513 H 94.785216 V 55.880047 H 72.964325 v 12.999207 h -5.186763 v -2.851506 h -1.974557 v 2.851506 h -6.49211 v -2.851506 h -1.974556 v 2.851506 h -7.550444 v -2.851506 h -1.974556 v 2.851506 h -6.492111 v -2.851506 h -1.974556 v 2.851506 H 34.116567 V 55.87953 Z"
           id="path3667" />
      </g>
      <path
         id="rect2092"
         style="fill:#803a0f;fill-rule:evenodd;stroke-width:3.39701;stroke-linecap:round;stroke-linejoin:round;paint-order:stroke fill markers"
         d="m 44.757904,88.024132 c 0,0 0.241549,-10.647742 9.086408,-10.563588 7.626902,0.07257 7.528182,10.563588 7.528182,10.563588 v 17.871158 h -16.61459 z"
         sodipodi:nodetypes="cscccc" />
      <path
         style="color:#000000;fill:#404040;fill-rule:evenodd;stroke-linecap:round;stroke-linejoin:round;-inkscape-stroke:none;paint-order:stroke fill markers"
         d="m 45.919922,83.378906 a 0.0985,0.0985 0 0 0 -0.09766,0.09961 l 0.208984,22.060544 a 0.0985,0.0985 0 0 0 0.09961,0.0977 0.0985,0.0985 0 0 0 0.09766,-0.0996 L 46.019531,83.476562 a 0.0985,0.0985 0 0 0 -0.09961,-0.09766 z"
         id="path2259" />
      <path
         style="color:#000000;fill:#404040;fill-rule:evenodd;stroke-linecap:round;stroke-linejoin:round;-inkscape-stroke:none;paint-order:stroke fill markers"
         d="m 47.873047,79.958984 a 0.0985,0.0985 0 0 0 -0.0957,0.09961 L 48.125,105.46875 a 0.0985,0.0985 0 0 0 0.101562,0.0977 0.0985,0.0985 0 0 0 0.0957,-0.0996 L 47.974609,80.056641 a 0.0985,0.0985 0 0 0 -0.101562,-0.09766 z"
         id="path2261" />
      <path
         style="color:#000000;fill:#404040;fill-rule:evenodd;stroke-linecap:round;stroke-linejoin:round;-inkscape-stroke:none;paint-order:stroke fill markers"
         d="m 50.359375,78.212891 a 0.0985,0.0985 0 0 0 -0.09961,0.09961 l 0.210937,27.36523 a 0.0985,0.0985 0 0 0 0.09961,0.0977 0.0985,0.0985 0 0 0 0.09766,-0.0996 L 50.457031,78.310547 a 0.0985,0.0985 0 0 0 -0.09766,-0.09766 z"
         id="path2263" />
      <path
         style="color:#000000;fill:#404040;fill-rule:evenodd;stroke-linecap:round;stroke-linejoin:round;-inkscape-stroke:none;paint-order:stroke fill markers"
         d="m 52.691406,77.724609 a 0.0985,0.0985 0 0 0 -0.09766,0.09961 c 0,0 0.08657,7.01713 0.173828,13.998047 0.04363,3.490458 0.08837,6.970828 0.121094,9.562504 0.01636,1.29583 0.02952,2.37068 0.03906,3.11132 0.0048,0.37033 0.0092,0.65742 0.01172,0.84766 0.0013,0.0951 0.0013,0.16594 0.002,0.21094 3.31e-4,0.0225 0.0018,0.0373 0.002,0.0469 3.5e-5,0.002 -2.6e-5,0.003 0,0.004 0,0 0,0.002 0,0.002 2.8e-5,0.001 -4.2e-5,0.003 0,0.004 5.4e-5,0.002 0.195302,0.002 0.195313,0.002 1e-5,-2.3e-4 0.002,-0.004 0.002,-0.006 a 0.0985,0.0985 0 0 0 -0.002,-0.008 0.0985,0.0985 0 0 0 0,-0.002 c -1.63e-4,-0.009 3.29e-4,-0.0245 0,-0.0469 -6.59e-4,-0.0448 -6.75e-4,-0.11585 -0.002,-0.21094 -0.0026,-0.19016 -0.0069,-0.47735 -0.01172,-0.84765 -0.0095,-0.74062 -0.0227,-1.81355 -0.03906,-3.10938 -0.03272,-2.591653 -0.07746,-6.073996 -0.121093,-9.564451 -0.08726,-6.980909 -0.173828,-13.996093 -0.173828,-13.996093 a 0.0985,0.0985 0 0 0 -0.09961,-0.09766 z"
         id="path2265" />
      <path
         style="color:#000000;fill:#404040;fill-rule:evenodd;stroke-linecap:round;stroke-linejoin:round;-inkscape-stroke:none;paint-order:stroke fill markers"
         d="m 55.064453,77.794922 a 0.0985,0.0985 0 0 0 -0.09766,0.09961 l 0.349609,27.644529 a 0.0985,0.0985 0 0 0 0.09961,0.0977 0.0985,0.0985 0 0 0 0.09766,-0.0996 l -0.34961,-27.644532 a 0.0985,0.0985 0 0 0 -0.09961,-0.09766 z"
         id="path2267" />
      <path
         style="color:#000000;fill:#404040;fill-rule:evenodd;stroke-linecap:round;stroke-linejoin:round;-inkscape-stroke:none;paint-order:stroke fill markers"
         d="m 57.511719,79.400391 a 0.0985,0.0985 0 0 0 -0.101563,0.09766 l -0.488281,26.316403 a 0.0985,0.0985 0 0 0 0.0957,0.10157 0.0985,0.0985 0 0 0 0.101563,-0.0977 L 57.607422,79.5 a 0.0985,0.0985 0 0 0 -0.0957,-0.09961 z"
         id="path2269" />
      <path
         style="color:#000000;fill:#404040;fill-rule:evenodd;stroke-linecap:round;stroke-linejoin:round;-inkscape-stroke:none;paint-order:stroke fill markers"
         d="m 59.603516,81.84375 a 0.0985,0.0985 0 0 0 -0.09961,0.09766 l -0.06836,23.595704 a 0.0985,0.0985 0 0 0 0.09766,0.0996 0.0985,0.0985 0 0 0 0.09961,-0.0996 l 0.06836,-23.593751 a 0.0985,0.0985 0 0 0 -0.09766,-0.09961 z"
         id="path2271" />
      <path
         id="path2316"
         style="fill:#000000;fill-rule:evenodd;stroke-width:1.40259;stroke-linecap:round;stroke-linejoin:round;paint-order:stroke fill markers"
         d="m 20.076622,66.670204 c 0,0 0.07505,-5.841876 2.823347,-5.795705 2.369847,0.03982 2.339172,5.795705 2.339172,5.795705 v 9.804999 h -5.162519 z"
         sodipodi:nodetypes="cscccc" />
      <path
         id="path2578"
         style="fill:#000000;fill-rule:evenodd;stroke-width:1.40259;stroke-linecap:round;stroke-linejoin:round;paint-order:stroke fill markers"
         d="m 81.779825,65.682953 c 0,0 0.07505,-5.841876 2.823347,-5.795705 2.369847,0.03982 2.339172,5.795705 2.339172,5.795705 v 9.804999 h -5.162519 z"
         sodipodi:nodetypes="cscccc" />
    </g>
    <path
       style="color:#000000;fill:#331f14;-inkscape-stroke:none"
       d="m 4.2011719,31.212891 v 0.5 80.996089 H 101.63086 V 31.212891 Z m 1,1 H 100.63086 V 111.70898 H 5.2011719 Z"
       id="rect33301" />
  </g>
</svg>
