<?xml version="1.0" encoding="UTF-8" standalone="no"?>
<!-- Created with Inkscape (http://www.inkscape.org/) -->

<svg
   width="400.00006"
   height="600"
   viewBox="0 0 105.83335 158.75"
   version="1.1"
   id="svg5"
   inkscape:export-filename="CardTemplate.svg"
   inkscape:export-xdpi="26.281288"
   inkscape:export-ydpi="26.281288"
   sodipodi:docname="FalseProphetCard.svg"
   inkscape:version="1.2.2 (732a01da63, 2022-12-09)"
   xml:space="preserve"
   xmlns:inkscape="http://www.inkscape.org/namespaces/inkscape"
   xmlns:sodipodi="http://sodipodi.sourceforge.net/DTD/sodipodi-0.dtd"
   xmlns="http://www.w3.org/2000/svg"
   xmlns:svg="http://www.w3.org/2000/svg"><sodipodi:namedview
     id="namedview7"
     pagecolor="#505050"
     bordercolor="#ffffff"
     borderopacity="1"
     inkscape:showpageshadow="0"
     inkscape:pageopacity="0"
     inkscape:pagecheckerboard="1"
     inkscape:deskcolor="#505050"
     inkscape:document-units="mm"
     showgrid="false"
     showguides="true"
     inkscape:zoom="1.34"
     inkscape:cx="124.62687"
     inkscape:cy="305.59701"
     inkscape:window-width="1920"
     inkscape:window-height="991"
     inkscape:window-x="-9"
     inkscape:window-y="-9"
     inkscape:window-maximized="1"
     inkscape:current-layer="layer1" /><defs
     id="defs2"><inkscape:path-effect
       effect="spiro"
       id="path-effect3272"
       is_visible="true"
       lpeversion="1" /><linearGradient
       id="linearGradient3910"
       inkscape:swatch="solid"><stop
         style="stop-color:#000000;stop-opacity:1;"
         offset="0"
         id="stop3908" /></linearGradient><linearGradient
       id="linearGradient3902"
       inkscape:swatch="solid"><stop
         style="stop-color:#000000;stop-opacity:1;"
         offset="0"
         id="stop3900" /></linearGradient><linearGradient
       id="linearGradient1908"
       inkscape:swatch="gradient"><stop
         style="stop-color:#412a2a;stop-opacity:1;"
         offset="0.83033931"
         id="stop1904" /><stop
         style="stop-color:#412a2a;stop-opacity:0;"
         offset="0.84431136"
         id="stop1906" /></linearGradient><rect
       x="20.732048"
       y="466.96472"
       width="356.39377"
       height="115.50713"
       id="rect857" /><rect
       x="13.821366"
       y="17.770327"
       width="368.24066"
       height="96.749557"
       id="rect721" /></defs><g
     inkscape:label="Layer 1"
     inkscape:groupmode="layer"
     id="layer1"
     transform="translate(-0.33529438,-0.33529437)"><g
       id="rect386"><path
         style="color:#000000;fill:#c87137;stroke-width:2.64597;stroke-linejoin:round;-inkscape-stroke:none;paint-order:markers fill stroke"
         d="M 1.6582794,1.6582794 H 104.84566 V 157.76231 H 1.6582794 Z"
         id="path6478" /><path
         style="color:#000000;fill:#331f14;stroke-linejoin:round;-inkscape-stroke:none;paint-order:markers fill stroke"
         d="M 1.6582031,0.3359375 A 1.3231174,1.3231174 0 0 0 0.3359375,1.6582031 V 157.76172 a 1.3231174,1.3231174 0 0 0 1.3222656,1.32422 H 104.8457 a 1.3231174,1.3231174 0 0 0 1.32227,-1.32422 V 1.6582031 A 1.3231174,1.3231174 0 0 0 104.8457,0.3359375 Z M 2.9804688,2.9804688 H 103.52344 V 156.43945 H 2.9804688 Z"
         id="path6480" /></g><path
       id="rect711"
       style="opacity:1;vector-effect:none;fill:#642d2d;stroke-width:0.289246;stop-color:#000000;stop-opacity:1"
       d="M 4.7017326,31.71199 H 101.13161 v 80.49623 H 4.7017326 Z" /><g
       aria-label="False Prophet"
       transform="matrix(0.26458333,0,0,0.26458333,0,9.5250005)"
       id="text719"
       style="font-size:48px;line-height:0;font-family:Broadway;-inkscape-font-specification:Broadway;text-align:center;letter-spacing:0px;word-spacing:0px;baseline-shift:baseline;white-space:pre;shape-inside:url(#rect721);display:inline;opacity:1;vector-effect:none;stroke-width:0.999999;stop-color:#000000;stop-opacity:1"><path
         d="m 37.676758,18.467617 -0.04687,5.671875 0.140625,14.976563 V 40.19418 H 23.450195 l 0.164063,-17.414063 -0.1875,-14.5781249 h 24.84375 q 1.6875,0 1.898437,0.070312 0.539063,0.140625 0.539063,0.796875 0,0.8203125 -1.03125,0.8203125 h -0.164063 l -11.742187,-0.1640625 -0.09375,7.2656254 2.554687,0.02344 8.203125,-0.140625 1.804688,-0.02344 q 0.984375,0 1.289062,0.164062 0.328125,0.164063 0.328125,0.65625 0,0.914063 -1.546875,0.914063 l -1.851562,-0.04687 z"
         id="path6309" /><path
         d="M 70.114258,24.584805 V 21.72543 q -0.02344,-2.976563 -0.09375,-3.65625 -0.07031,-0.679688 -0.421875,-1.21875 -0.84375,-1.3125 -3.9375,-1.3125 -4.78125,0 -7.382813,3 -1.054687,1.21875 -1.78125,1.21875 -0.539062,0 -0.9375,-0.375 -0.398437,-0.375 -0.398437,-0.867188 0,-1.476562 3.492187,-3.046875 3.328125,-1.5 8.601563,-1.5 8.671875,0 12.234375,2.625 1.546875,1.148438 2.015625,2.578125 0.46875,1.429688 0.46875,5.039063 v 9.304687 q -0.09375,2.578125 0.140625,3.890625 0.257812,1.289063 1.125,2.789063 h -13.125 v -2.460938 q -2.15625,1.476563 -4.289063,2.226563 -2.109375,0.75 -4.171875,0.75 -3.492187,0 -6.210937,-2.039063 -3.539063,-2.671875 -3.539063,-6.9375 0,-3.773437 2.859375,-6.09375 3.328125,-2.742187 8.25,-2.742187 2.015625,0 3.5625,0.375 1.546875,0.351562 3.539063,1.3125 z m 0.02344,1.6875 q -2.953125,-1.476563 -4.570312,-1.476563 -1.359375,0 -1.78125,1.078125 -0.234375,0.585938 -0.234375,3.398438 v 5.601562 q 0.02344,1.851563 0.117187,2.25 0.234375,1.078125 1.59375,1.078125 1.078125,0 2.390625,-0.632812 1.335938,-0.65625 2.4375,-1.710938 z"
         id="path6311" /><path
         d="m 99.24707,8.2019921 0.02344,1.1953125 -0.04687,8.2500004 -0.02344,3.5625 -0.04687,6.492187 0.09375,11.578125 V 40.19418 H 87.293945 v -1.101563 l 0.04687,-3.726562 0.02344,-6.75 0.04687,-8.835938 -0.02344,-4.757812 -0.07031,-5.2265629 0.02344,-1.59375 z"
         id="path6313" /><path
         d="m 104.28613,35.858242 q 0.46875,0 1.19532,0.703125 1.17187,1.101563 3.32812,1.898438 2.15625,0.773437 4.03125,0.773437 0.86719,0 1.28906,-0.28125 0.44532,-0.304687 0.44532,-0.867187 0,-0.5625 -0.60938,-1.335938 -0.58594,-0.796875 -2.64844,-3.023437 -5.03906,-5.390625 -6.53906,-7.570313 -1.47656,-2.203125 -1.47656,-4.21875 0,-1.757812 1.00781,-3.351562 1.03125,-1.617188 2.85938,-2.742188 3.02343,-1.875 6.9375,-1.875 2.88281,0 6.09375,1.21875 2.50781,0.960938 2.50781,2.085938 0,0.351562 -0.30469,0.632812 -0.28125,0.28125 -0.65625,0.28125 -0.44531,0 -1.66406,-0.867187 -2.48438,-1.78125 -5.41406,-1.78125 -1.03125,0 -1.57032,0.328125 -0.51562,0.328125 -0.51562,1.007812 0,0.796875 0.96094,2.015625 0.98437,1.21875 3.96093,4.125 2.90625,2.835938 3.67969,3.726563 0.79688,0.867187 1.52344,2.015625 1.24219,1.96875 1.24219,4.265625 0,3.609375 -3.49219,5.835937 -2.85938,1.851563 -7.03125,1.851563 -4.64063,0 -8.22656,-2.0625 -1.05469,-0.632813 -1.45313,-1.03125 -0.375,-0.398438 -0.375,-0.867188 0,-0.867187 0.91406,-0.890625 z"
         id="path6315" /><path
         d="m 137.14551,28.147305 v 7.265625 q 0,2.109375 0.25781,2.671875 0.49219,1.078125 2.32031,1.078125 2.71875,0 5.36719,-1.476563 2.67188,-1.5 4.61719,-4.125 0.63281,-0.867187 0.91406,-1.101562 0.28125,-0.234375 0.60938,-0.234375 0.39843,0 0.65625,0.304687 0.25781,0.28125 0.25781,0.726563 0,0.984375 -1.57031,2.648437 -2.0625,2.132813 -5.13282,3.46875 -3.04687,1.335938 -5.95312,1.335938 -4.99219,0 -8.8125,-3.351563 -2.22656,-1.96875 -3.42188,-4.851562 -1.05468,-2.53125 -1.05468,-5.0625 0,-2.4375 0.9375,-4.875 0.9375,-2.460938 2.57812,-4.242188 1.89844,-2.085937 4.5,-3.234375 2.55469,-1.125 5.34375,-1.125 4.33594,0 7.85156,2.554688 5.48438,3.984375 5.4375,11.554687 h -5.46093 l -7.03125,0.02344 z m 6,-1.546875 v -6.84375 q -0.0469,-2.203125 -0.0937,-2.625 -0.0469,-0.445313 -0.32813,-0.820313 -0.65625,-0.914062 -2.67187,-0.914062 -2.0625,0 -2.57813,1.054687 -0.32812,0.632813 -0.32812,3.304688 v 6.84375 l 2.85937,0.09375 z"
         id="path6317" /><path
         d="m 182.80176,34.451992 v 0.65625 l 0.0234,4.5 v 0.585938 h -14.29688 l 0.0234,-1.429688 0.11719,-16.476562 -0.0937,-7.828125 -0.0234,-5.3203129 -0.0234,-0.9375 h 10.71094 q 6.5625,0 9.9375,0.5625 3.39844,0.5625 5.69531,2.0156249 3.09375,1.945313 4.78125,5.414063 1.28906,2.648437 1.28906,5.554687 0,3.140625 -1.45312,6 -1.73438,3.421875 -4.92188,5.273438 -3.16406,1.828125 -7.33593,1.828125 -1.54688,0 -4.42969,-0.398438 z m 0.0234,-24.6562499 v 1.5703129 l -0.0937,15.65625 0.0469,5.835937 q 1.85156,0.492188 4.80469,0.492188 2.64844,0 5.01562,-1.054688 2.36719,-1.054687 4.00782,-2.976562 2.78906,-3.257813 2.78906,-7.570313 0,-4.101562 -2.76563,-7.429687 -1.96875,-2.367188 -5.08593,-3.445313 -3.11719,-1.0781249 -8.01563,-1.0781249 z"
         id="path6319" /><path
         d="m 217.06738,21.866055 -0.0469,9 0.0937,9.328125 h -12.02344 l 0.0234,-1.289063 0.0234,-4.78125 0.0703,-8.601562 -0.0937,-9.5625 -0.0234,-1.359375 h 12 v 4.828125 q 2.69531,-2.859375 3.75,-3.609375 2.4375,-1.710938 4.59375,-1.710938 1.3125,0 2.15625,0.5625 0.86719,0.5625 0.86719,1.429688 0,0.679687 -0.51563,1.125 -0.51562,0.445312 -1.28906,0.445312 -0.49219,0 -1.10156,-0.28125 -1.03125,-0.492187 -1.71094,-0.492187 -1.6875,0 -3.25781,1.148437 -1.57031,1.148438 -3.51563,3.820313 z"
         id="path6321" /><path
         d="m 240.5752,13.967617 q 3.77343,0 7.14843,2.085938 3.11719,1.921875 4.75782,5.25 1.45312,2.929687 1.45312,6.210937 0,2.25 -0.86719,4.523438 -0.84375,2.273437 -2.32031,4.03125 -2.0625,2.414062 -5.03906,3.632812 -2.4375,1.007813 -5.08594,1.007813 -4.42969,0 -7.96875,-2.625 -2.76562,-2.015625 -4.19531,-5.179688 -1.19531,-2.671875 -1.19531,-5.648437 0,-5.8125 4.21875,-9.65625 3.96093,-3.5625 9.09375,-3.632813 z m -0.67969,1.523438 -0.0703,23.625 q 0.72656,0.04687 1.00781,0.04687 3.25781,0 6.23437,-1.828125 2.85938,-1.78125 4.28907,-4.734375 1.125,-2.34375 1.125,-5.15625 0,-5.648438 -4.17188,-9.164063 -3.375,-2.835937 -7.33594,-2.835937 -0.32812,0 -1.07812,0.04687 z"
         id="path6323" /><path
         d="m 257.61426,14.60043 h 11.97656 l -0.0703,3.070312 q 2.36719,-2.039062 4.33594,-2.859375 1.96875,-0.84375 4.33593,-0.84375 4.85157,0 7.875,3.609375 2.71875,3.234375 2.71875,8.226563 0,5.320312 -3.11718,8.742187 -2.88282,3.164063 -7.19532,3.164063 -2.27343,0 -4.52343,-0.9375 -2.25,-0.960938 -4.47657,-2.859375 l 0.0234,0.867187 0.0234,3.070313 0.0469,2.554687 0.0234,0.867188 h -11.97656 l 0.0234,-6.679688 0.0469,-6.210937 -0.0703,-12.960938 z m 11.90625,5.179687 v 12.234375 q 1.71094,1.59375 3.07031,2.414063 1.35938,0.796875 2.36719,0.796875 0.9375,0 1.10156,-0.914063 0.0469,-0.304687 0.0703,-3.164062 V 19.686367 q 0,-2.039062 -0.0703,-2.4375 -0.16406,-0.984375 -0.98437,-0.984375 -1.05469,0 -2.55469,0.960938 -1.5,0.9375 -3,2.554687 z"
         id="path6325" /><path
         d="m 304.60645,17.905117 q 2.25,-1.523437 3.67968,-2.226562 3.51563,-1.710938 6.96094,-1.710938 2.48438,0 4.47656,0.890625 1.99219,0.890625 2.95313,2.4375 1.14844,1.851563 1.14844,6.796875 l -0.0469,3.492188 -0.0469,4.617187 0.16406,7.992188 h -12.02344 l 0.0937,-14.484375 -0.11719,-7.40625 q -0.23437,-1.21875 -1.73437,-1.21875 -1.10156,0 -2.48438,0.679687 -1.35937,0.65625 -3.02343,2.015625 l -0.0469,5.882813 0.0937,10.195312 0.0703,4.335938 h -12.07031 l 0.0469,-9.890625 V 19.030117 l -0.0703,-9.7499999 0.0234,-1.078125 h 11.95313 v 0.65625 l 0.0234,4.0078129 -0.0234,2.484375 z"
         id="path6327" /><path
         d="m 338.37988,28.147305 v 7.265625 q 0,2.109375 0.25782,2.671875 0.49218,1.078125 2.32031,1.078125 2.71875,0 5.36719,-1.476563 2.67187,-1.5 4.61718,-4.125 0.63282,-0.867187 0.91407,-1.101562 0.28125,-0.234375 0.60937,-0.234375 0.39844,0 0.65625,0.304687 0.25781,0.28125 0.25781,0.726563 0,0.984375 -1.57031,2.648437 -2.0625,2.132813 -5.13281,3.46875 -3.04688,1.335938 -5.95313,1.335938 -4.99218,0 -8.8125,-3.351563 -2.22656,-1.96875 -3.42187,-4.851562 -1.05469,-2.53125 -1.05469,-5.0625 0,-2.4375 0.9375,-4.875 0.9375,-2.460938 2.57813,-4.242188 1.89843,-2.085937 4.5,-3.234375 2.55468,-1.125 5.34375,-1.125 4.33593,0 7.85156,2.554688 5.48437,3.984375 5.4375,11.554687 h -5.46094 l -7.03125,0.02344 z m 6,-1.546875 v -6.84375 q -0.0469,-2.203125 -0.0937,-2.625 -0.0469,-0.445313 -0.32812,-0.820313 -0.65625,-0.914062 -2.67188,-0.914062 -2.0625,0 -2.57812,1.054687 -0.32813,0.632813 -0.32813,3.304688 v 6.84375 l 2.85938,0.09375 z"
         id="path6329" /><path
         d="m 370.04395,6.3504296 -0.25782,7.5703124 -0.0234,0.726563 q 2.03906,0 3.70312,-0.164063 0.28125,-0.02344 0.49219,-0.02344 1.03125,0 1.03125,0.9375 0,0.867187 -1.07813,0.867187 -0.32812,0 -0.82031,-0.04687 -1.85156,-0.140625 -2.64844,-0.140625 h -0.67968 l -0.0234,4.546875 0.0937,9.117188 0.0703,4.875 q 0,1.710937 0.25781,2.390625 0.25782,0.679687 0.89063,0.679687 0.84375,0 1.80469,-0.984375 0.9375,-0.984375 1.47656,-2.414062 0.49219,-1.359375 1.17187,-1.359375 0.79688,0 0.79688,0.890625 0,0.890625 -0.79688,2.226562 -0.79687,1.3125 -1.92187,2.296875 -2.76563,2.414063 -7.17188,2.414063 -4.14843,0 -6.42187,-2.507813 -1.17188,-1.265625 -1.61719,-2.8125 -0.44531,-1.570312 -0.44531,-4.335937 v -1.757813 l 0.0234,-4.945312 V 16.00668 q -0.32813,-0.02344 -0.46875,-0.02344 -0.23438,0 -0.9375,0.04687 -0.58594,0.04687 -0.98438,0.04687 -1.14844,0 -1.14844,-0.867187 0,-0.84375 1.10157,-0.84375 0.51562,0 0.72656,0.02344 l 1.71094,0.117188 v -2.648438 q 6.9375,-2.5078124 12.09375,-5.5078124 z"
         id="path6331" /></g><g
       aria-label="Description:"
       id="text733"
       style="font-size:7.05556px;line-height:0px;font-family:Broadway;-inkscape-font-specification:Broadway;opacity:1;vector-effect:none;stroke-width:0.264583;stop-color:#000000;stop-opacity:1"><path
         d="m 4.7016462,116.51791 h 1.8121214 q 0.7096901,0 1.0679802,0.0689 0.8853902,0.16881 1.4297156,0.94396 0.4271921,0.60978 0.4271921,1.34359 0,0.74758 -0.4409725,1.36081 -0.530545,0.74069 -1.3849293,0.91984 -0.2204862,0.0448 -0.3927411,0.0551 -0.1722549,0.0103 -0.7579215,0.0103 H 4.7119815 l 0.010335,-2.27377 z m 2.1049547,0.22048 -0.017226,2.76986 0.020671,1.49173 q 0.4616431,-0.003 0.6614587,-0.0344 0.2032608,-0.0345 0.4650882,-0.14814 0.6166725,-0.26527 0.9680725,-0.85438 0.3066137,-0.50643 0.3066137,-1.09555 0,-0.64078 -0.3617353,-1.17822 -0.6442333,-0.95429 -1.9085841,-0.95429 z"
         id="path6284" /><path
         d="m 11.3748,119.44969 v 1.06798 q 0,0.31006 0.0379,0.39274 0.07235,0.15847 0.341065,0.15847 0.399631,0 0.788927,-0.21704 0.392742,-0.22049 0.678685,-0.60634 0.09302,-0.12746 0.134358,-0.16192 0.04134,-0.0344 0.08957,-0.0344 0.05857,0 0.09646,0.0448 0.0379,0.0413 0.0379,0.1068 0,0.14469 -0.230822,0.38929 -0.303168,0.31351 -0.754476,0.50988 -0.447863,0.19637 -0.875055,0.19637 -0.733806,0 -1.295357,-0.49265 -0.327284,-0.28939 -0.5029839,-0.71314 -0.1550294,-0.37207 -0.1550294,-0.74414 0,-0.35829 0.1378039,-0.71658 0.1378034,-0.36173 0.3789604,-0.62356 0.279053,-0.30661 0.661459,-0.47542 0.375516,-0.16537 0.785482,-0.16537 0.637343,0 1.154108,0.37552 0.806153,0.58566 0.799263,1.69843 h -0.802708 l -1.033529,0.003 z m 0.881945,-0.22738 v -1.00597 q -0.0069,-0.32384 -0.01378,-0.38585 -0.0069,-0.0655 -0.04823,-0.12058 -0.09646,-0.13436 -0.392742,-0.13436 -0.303168,0 -0.37896,0.15503 -0.04823,0.093 -0.04823,0.48576 v 1.00597 l 0.420302,0.0138 z"
         id="path6286" /><path
         d="m 14.161884,120.58312 q 0.0689,0 0.1757,0.10336 0.172254,0.16192 0.489203,0.27905 0.316949,0.11369 0.592557,0.11369 0.127469,0 0.189481,-0.0413 0.06546,-0.0448 0.06546,-0.12747 0,-0.0827 -0.08957,-0.19637 -0.08613,-0.11714 -0.389296,-0.44442 -0.740696,-0.79237 -0.961182,-1.11277 -0.217041,-0.32384 -0.217041,-0.62011 0,-0.25839 0.148139,-0.49265 0.151584,-0.23772 0.420302,-0.40308 0.444417,-0.27561 1.019749,-0.27561 0.423747,0 0.895725,0.17915 0.368625,0.14125 0.368625,0.30661 0,0.0517 -0.04479,0.093 -0.04134,0.0413 -0.09646,0.0413 -0.06546,0 -0.244602,-0.12747 -0.36518,-0.26183 -0.795817,-0.26183 -0.151584,0 -0.230822,0.0482 -0.07579,0.0482 -0.07579,0.14813 0,0.11714 0.141249,0.29628 0.144694,0.17915 0.582222,0.60634 0.427192,0.41686 0.54088,0.54777 0.117133,0.12747 0.223931,0.29628 0.182591,0.28939 0.182591,0.62701 0,0.53054 -0.51332,0.85783 -0.420302,0.27216 -1.033529,0.27216 -0.68213,0 -1.20923,-0.30317 -0.155029,-0.093 -0.213596,-0.15158 -0.05512,-0.0586 -0.05512,-0.12747 0,-0.12747 0.134359,-0.13092 z"
         id="path6288" /><path
         d="m 19.236512,118.20601 v 2.30132 l -0.0034,0.22049 q 0,0.21359 0.05168,0.28594 0.05512,0.0689 0.217041,0.0689 0.406522,0 0.799263,-0.24804 0.392741,-0.2515 0.640788,-0.6718 0.07579,-0.12747 0.148139,-0.12747 0.05168,0 0.09302,0.0482 0.04479,0.0448 0.04479,0.0965 0,0.12402 -0.199816,0.3514 -0.199815,0.22393 -0.465088,0.40307 -0.54088,0.36174 -1.157553,0.36174 -0.844049,0 -1.395264,-0.52366 -0.627008,-0.58911 -0.627008,-1.44349 0,-0.88195 0.661459,-1.46761 0.55466,-0.4961 1.367703,-0.4961 0.647679,0 1.133438,0.30662 0.206705,0.13091 0.337619,0.28249 0.130914,0.14814 0.130914,0.2515 0,0.0517 -0.0379,0.0896 -0.0379,0.0344 -0.09302,0.0344 -0.07235,0 -0.18259,-0.16537 -0.158474,-0.23082 -0.499539,-0.39963 -0.341065,-0.17225 -0.644233,-0.17225 -0.203261,0 -0.261828,0.11369 -0.05857,0.11369 -0.05857,0.49954 z"
         id="path6290" /><path
         d="m 23.353405,118.5264 -0.0069,1.32292 0.01378,1.37115 H 21.59296 l 0.0034,-0.18948 0.0034,-0.7028 0.01034,-1.26435 -0.01378,-1.4056 -0.0034,-0.19982 h 1.76389 v 0.70969 q 0.396186,-0.4203 0.551215,-0.53055 0.358291,-0.25149 0.67524,-0.25149 0.192925,0 0.316949,0.0827 0.127468,0.0827 0.127468,0.21015 0,0.0999 -0.07579,0.16536 -0.07579,0.0655 -0.18948,0.0655 -0.07235,0 -0.16192,-0.0413 -0.151584,-0.0724 -0.251492,-0.0724 -0.248047,0 -0.478869,0.16881 -0.230821,0.16881 -0.516764,0.56155 z"
         id="path6292" /><path
         d="m 26.202501,116.25264 q 0.909506,0 0.909506,0.47542 0,0.23082 -0.241157,0.36173 -0.237712,0.12747 -0.671794,0.12747 -0.86472,0 -0.86472,-0.4892 0,-0.46853 0.868165,-0.47542 z m 0.89228,1.20578 v 0.0999 l -0.0069,0.53743 -0.0069,0.83372 -0.01034,1.26779 0.01378,0.71314 0.0069,0.31006 h -1.77078 l 0.01722,-1.2678 0.01034,-1.11966 -0.0069,-0.58911 -0.01034,-0.65457 0.0034,-0.13091 z"
         id="path6294" /><path
         d="m 27.911269,117.45842 h 1.760445 l -0.01034,0.45131 q 0.347955,-0.29973 0.637343,-0.4203 0.289388,-0.12403 0.637343,-0.12403 0.713136,0 1.157553,0.53055 0.399631,0.47542 0.399631,1.20923 0,0.78203 -0.458198,1.28502 -0.423747,0.46509 -1.057645,0.46509 -0.334174,0 -0.664903,-0.13781 -0.33073,-0.14125 -0.658014,-0.4203 l 0.0034,0.12747 0.0034,0.45131 0.0069,0.37551 0.0034,0.12747 h -1.760445 l 0.0034,-0.98185 0.0069,-0.91295 -0.01034,-1.90514 z m 1.75011,0.76137 v 1.79834 q 0.251492,0.23426 0.451308,0.35484 0.199816,0.11714 0.347955,0.11714 0.137804,0 0.161919,-0.13436 0.0069,-0.0448 0.01034,-0.46509 v -1.68465 q 0,-0.29973 -0.01034,-0.35829 -0.02412,-0.1447 -0.144694,-0.1447 -0.155029,0 -0.375515,0.14125 -0.220487,0.1378 -0.440973,0.37552 z"
         id="path6296" /><path
         d="m 34.84625,116.24575 -0.0379,1.11276 -0.0034,0.1068 q 0.299723,0 0.544325,-0.0241 0.04134,-0.003 0.07235,-0.003 0.151585,0 0.151585,0.1378 0,0.12747 -0.158475,0.12747 -0.04823,0 -0.120578,-0.007 -0.272163,-0.0207 -0.389296,-0.0207 h -0.09991 l -0.0034,0.66835 0.01378,1.34014 0.01033,0.71658 q 0,0.2515 0.0379,0.3514 0.0379,0.0999 0.130913,0.0999 0.124024,0 0.265273,-0.14469 0.137804,-0.1447 0.217041,-0.35485 0.07235,-0.19981 0.172255,-0.19981 0.117133,0 0.117133,0.13091 0,0.13091 -0.117133,0.32728 -0.117133,0.19293 -0.282498,0.33762 -0.406522,0.35485 -1.0542,0.35485 -0.609782,0 -0.943957,-0.36863 -0.172255,-0.18603 -0.237712,-0.41341 -0.06546,-0.23082 -0.06546,-0.63734 v -0.25838 l 0.0034,-0.72692 v -1.23334 q -0.04823,-0.003 -0.0689,-0.003 -0.03445,0 -0.137804,0.007 -0.08613,0.007 -0.144694,0.007 -0.16881,0 -0.16881,-0.12747 0,-0.12402 0.161919,-0.12402 0.07579,0 0.106799,0.003 l 0.251492,0.0172 v -0.3893 q 1.019749,-0.36862 1.77767,-0.80959 z"
         id="path6298" /><path
         d="m 36.882303,116.25264 q 0.909506,0 0.909506,0.47542 0,0.23082 -0.241157,0.36173 -0.237712,0.12747 -0.671794,0.12747 -0.86472,0 -0.86472,-0.4892 0,-0.46853 0.868165,-0.47542 z m 0.89228,1.20578 v 0.0999 l -0.0069,0.53743 -0.0069,0.83372 -0.01034,1.26779 0.01378,0.71314 0.0069,0.31006 h -1.77078 l 0.01723,-1.2678 0.01034,-1.11966 -0.0069,-0.58911 -0.01034,-0.65457 0.0034,-0.13091 z"
         id="path6300" /><path
         d="m 40.313622,117.3654 q 0.554661,0 1.050755,0.30662 0.458198,0.28249 0.699355,0.7717 0.213596,0.43064 0.213596,0.91295 0,0.33073 -0.127469,0.6649 -0.124023,0.33418 -0.341064,0.59256 -0.303169,0.35484 -0.740696,0.53399 -0.358291,0.14814 -0.747587,0.14814 -0.651123,0 -1.171333,-0.38585 -0.406521,-0.29628 -0.616672,-0.76137 -0.1757,-0.39274 -0.1757,-0.83027 0,-0.85438 0.620117,-1.41938 0.582222,-0.52365 1.336698,-0.53399 z m -0.09991,0.22393 -0.01034,3.47266 q 0.106798,0.007 0.148139,0.007 0.478869,0 0.916396,-0.26872 0.420302,-0.26182 0.630453,-0.69591 0.165365,-0.3445 0.165365,-0.75792 0,-0.83027 -0.613228,-1.34703 -0.496094,-0.41686 -1.078315,-0.41686 -0.04823,0 -0.158475,0.007 z"
         id="path6302" /><path
         d="m 44.582098,117.45842 v 0.47887 q 0.403077,-0.28594 0.788927,-0.42719 0.385851,-0.1447 0.751032,-0.1447 0.489204,0 0.826823,0.22393 0.254937,0.16881 0.341065,0.42031 0.08957,0.24804 0.08957,0.81304 l -0.0069,1.59508 0.01034,0.80271 h -1.753555 l 0.01378,-0.95774 0.01033,-0.7028 -0.0034,-1.06109 q -0.0034,-0.36863 -0.01033,-0.43753 -0.0034,-0.0724 -0.03101,-0.12747 -0.05512,-0.11024 -0.237712,-0.11024 -0.168809,0 -0.36518,0.0965 -0.19637,0.0965 -0.423747,0.28939 l -0.0034,0.14125 -0.0069,0.96807 -0.0069,0.7407 0.01034,1.01286 0.0034,0.14814 h -1.760445 l 0.01034,-1.35048 0.01034,-0.89228 -0.01034,-0.7717 -0.01034,-0.74759 z"
         id="path6304" /><path
         d="m 49.067614,119.7942 q 0.458198,0 0.73725,0.20326 0.279053,0.20326 0.279053,0.54432 0,0.34796 -0.282498,0.56844 -0.282498,0.21704 -0.733805,0.21704 -0.568442,0 -0.85094,-0.31694 -0.165364,-0.18604 -0.165364,-0.43409 0,-0.3514 0.275608,-0.56155 0.275607,-0.21359 0.740696,-0.22048 z m 0,-1.97404 q 0.458198,0 0.73725,0.20326 0.279053,0.20326 0.279053,0.54432 0,0.34796 -0.282498,0.56844 -0.282498,0.21704 -0.733805,0.21704 -0.568442,0 -0.85094,-0.31695 -0.165364,-0.18603 -0.165364,-0.43408 0,-0.3514 0.275608,-0.56155 0.275607,-0.21359 0.740696,-0.22048 z"
         id="path6306" /></g><g
       aria-label="Demote enemy bishop to pawn, and discard this card."
       transform="matrix(0.27431353,0,0,0.27431353,-0.8676689,-4.702566)"
       id="text855"
       style="font-size:23.1487px;line-height:23.1487px;font-family:Broadway;-inkscape-font-specification:Broadway;white-space:pre;shape-inside:url(#rect857);display:inline;opacity:1;vector-effect:none;stroke-width:0.999999;stop-color:#000000;stop-opacity:1"><path
         d="m 21.82882,474.54678 v -0.96076 h 5.628932 q 3.865653,0 5.391568,0.48603 2.249312,0.71209 3.650894,2.65622 1.548521,2.14759 1.548521,4.93945 0,1.89891 -0.768609,3.53786 -0.757306,1.62764 -2.000645,2.62231 -1.02858,0.83643 -2.475373,1.18683 -1.446794,0.33909 -2.916194,0.33909 H 21.82882 v -0.94946 h 0.655579 l 0.214758,0.0113 q 0.418214,0 0.678185,-0.16954 0.271274,-0.16955 0.384304,-0.45213 0.07912,-0.21475 0.07912,-0.99467 v -10.54577 q 0,-0.89294 -0.113031,-1.15291 -0.158243,-0.3504 -0.508638,-0.48603 -0.203456,-0.0678 -1.390279,-0.0678 z m 4.11432,13.5863 h 3.413529 q 0.508639,0 1.684159,-0.18085 1.186823,-0.18085 1.695461,-0.44082 0.746003,-0.38431 1.446794,-1.23204 0.700791,-0.85903 1.073792,-2.04586 0.384305,-1.19812 0.384305,-2.73534 0,-1.52592 -0.384305,-2.64492 -0.373001,-1.119 -1.141611,-2.01195 -0.757306,-0.89294 -1.695461,-1.35637 -0.926852,-0.47473 -2.079766,-0.59906 -0.621669,-0.0565 -2.079766,-0.0565 H 25.94314 Z"
         style="font-family:'Bookman Old Style';-inkscape-font-specification:'Bookman Old Style'"
         id="path6197" /><path
         d="m 49.758722,486.43761 0.723397,0.58776 q -0.825125,0.98337 -1.605037,1.55983 -0.76861,0.57646 -1.458097,0.80252 -0.689488,0.23736 -1.61634,0.23736 -1.661552,0 -2.825769,-0.67818 -1.333763,-0.77991 -2.045857,-2.03456 -0.712094,-1.25464 -0.712094,-2.9614 0,-1.78589 0.689488,-3.05183 0.689487,-1.26595 1.921523,-1.98934 1.243338,-0.7347 2.870981,-0.7347 1.209429,0 2.102372,0.3843 0.892943,0.373 1.514613,1.14161 0.621669,0.75731 0.904246,1.74067 0.158243,0.57646 0.180849,1.49201 h -7.991275 q -0.03391,0.55385 -0.03391,0.82513 0,1.42418 0.497335,2.54319 0.497335,1.1077 1.311157,1.63894 0.825125,0.51995 1.865008,0.51995 0.88164,0 1.706764,-0.40692 0.825125,-0.41821 2.000645,-1.61634 z m -1.446794,-4.56644 q -0.169546,-1.03988 -0.486032,-1.53722 -0.305183,-0.49733 -0.88164,-0.79121 -0.565154,-0.29388 -1.277248,-0.29388 -0.712094,0 -1.333763,0.29388 -0.621669,0.29388 -1.039883,0.81382 -0.406911,0.51994 -0.712094,1.51461 z"
         style="font-family:'Bookman Old Style';-inkscape-font-specification:'Bookman Old Style'"
         id="path6199" /><path
         d="m 52.098459,480.07398 v -0.96076 q 0.847731,-0.0791 1.480703,-0.27127 0.632972,-0.20346 1.446794,-0.66688 h 0.836427 v 1.89891 q 1.288551,-1.01727 2.011948,-1.36767 1.107702,-0.53124 2.113675,-0.53124 0.689488,0 1.345066,0.25997 0.666882,0.24866 1.06249,0.62167 0.40691,0.373 0.689487,1.01727 1.186823,-1.05118 2.192797,-1.4694 1.017277,-0.42951 2.05716,-0.42951 0.994671,0 1.751977,0.41821 0.768609,0.40691 1.107701,1.02858 0.350396,0.62167 0.350396,1.81979 v 5.24463 q 0,0.82513 0.03391,0.96076 0.05651,0.21476 0.237365,0.40691 0.192152,0.19216 0.429517,0.27128 0.237364,0.0791 0.88164,0.0791 h 0.361698 v 0.94946 h -5.685447 v -0.94946 q 0.972064,-0.0113 1.254641,-0.13564 0.29388,-0.13563 0.429517,-0.42951 0.14694,-0.29388 0.14694,-1.15292 v -4.98465 q 0,-0.94946 -0.169546,-1.31116 -0.169546,-0.3617 -0.610366,-0.59906 -0.429517,-0.24867 -1.073793,-0.24867 -0.802518,0 -1.684158,0.42951 -1.17552,0.58776 -1.853705,1.32246 v 5.39157 q 0,0.77991 0.06782,1.02858 0.07912,0.23737 0.248668,0.40691 0.180849,0.15825 0.40691,0.22606 0.237365,0.0565 1.130308,0.0565 v 0.94946 H 59.52458 v -0.94946 h 0.316486 q 0.666882,0 0.938156,-0.15824 0.282577,-0.15825 0.44082,-0.48604 0.11303,-0.25997 0.11303,-1.07379 v -4.81511 q 0,-1.06249 -0.169546,-1.43549 -0.158243,-0.373 -0.621669,-0.63297 -0.463426,-0.25997 -1.085095,-0.25997 -0.7347,0 -1.480703,0.3617 -1.107702,0.53124 -2.034554,1.39027 v 5.80979 q 0,0.51994 0.135637,0.76861 0.14694,0.23736 0.452123,0.3843 0.305183,0.14694 0.836428,0.14694 h 0.418213 v 0.94946 h -5.685447 v -0.94946 h 0.305183 q 0.779912,0 1.02858,-0.12433 0.361698,-0.16955 0.519942,-0.54255 0.09042,-0.20346 0.09042,-1.05119 v -6.6123 z"
         style="font-family:'Bookman Old Style';-inkscape-font-specification:'Bookman Old Style'"
         id="path6201" /><path
         d="m 79.587542,478.17507 q 1.661552,0 2.870981,0.68948 1.220732,0.68949 1.921523,2.01195 0.700791,1.32246 0.700791,3.01792 0,1.69546 -0.723397,3.01792 -0.712094,1.32246 -1.955432,2.02325 -1.232036,0.68949 -2.950103,0.68949 -2.735345,0 -4.11432,-1.70676 -1.367672,-1.70677 -1.367672,-4.01259 0,-1.68416 0.712093,-2.98402 0.712094,-1.31115 1.989342,-2.02325 1.288551,-0.72339 2.916194,-0.72339 z m -0.09042,1.09639 q -1.288551,0 -2.181494,1.01728 -1.130307,1.26595 -1.130307,3.6848 0,2.32844 0.960761,3.54917 0.870337,1.0851 2.362343,1.0851 0.960762,0 1.706765,-0.50864 0.757306,-0.50864 1.220732,-1.61634 0.463426,-1.11901 0.463426,-2.62232 0,-1.4694 -0.497335,-2.63361 -0.384305,-0.92686 -1.164217,-1.43549 -0.768609,-0.51995 -1.740674,-0.51995 z"
         style="font-family:'Bookman Old Style';-inkscape-font-specification:'Bookman Old Style'"
         id="path6203" /><path
         d="m 89.816827,474.60329 h 0.802519 v 3.84305 h 3.357013 v 1.13031 h -3.357013 v 6.81575 q 0,0.87034 0.14694,1.24334 0.158243,0.373 0.519941,0.61037 0.373002,0.23736 0.825125,0.23736 1.073792,0 2.373646,-0.96076 v 1.0964 q -1.480703,1.00597 -2.995315,1.00597 -0.859034,0 -1.559825,-0.3843 -0.689488,-0.38431 -0.949458,-0.90425 -0.248668,-0.51994 -0.248668,-1.80849 v -6.95139 h -1.978039 v -0.94946 q 0.949459,-0.21476 1.525916,-0.66688 0.58776,-0.45213 0.949458,-1.17552 0.361699,-0.7234 0.58776,-2.1815 z"
         style="font-family:'Bookman Old Style';-inkscape-font-specification:'Bookman Old Style'"
         id="path6205" /><path
         d="m 105.31334,486.43761 0.7234,0.58776 q -0.82512,0.98337 -1.60504,1.55983 -0.7686,0.57646 -1.45809,0.80252 -0.68949,0.23736 -1.61634,0.23736 -1.661555,0 -2.825772,-0.67818 -1.333763,-0.77991 -2.045856,-2.03456 -0.712094,-1.25464 -0.712094,-2.9614 0,-1.78589 0.689487,-3.05183 0.689488,-1.26595 1.921523,-1.98934 1.243339,-0.7347 2.870982,-0.7347 1.20943,0 2.10237,0.3843 0.89295,0.373 1.51461,1.14161 0.62167,0.75731 0.90425,1.74067 0.15824,0.57646 0.18085,1.49201 h -7.991275 q -0.03391,0.55385 -0.03391,0.82513 0,1.42418 0.497336,2.54319 0.497335,1.1077 1.311157,1.63894 0.825122,0.51995 1.865012,0.51995 0.88164,0 1.70676,-0.40692 0.82512,-0.41821 2.00064,-1.61634 z m -1.44679,-4.56644 q -0.16955,-1.03988 -0.48603,-1.53722 -0.30518,-0.49733 -0.88164,-0.79121 -0.56516,-0.29388 -1.27725,-0.29388 -0.71209,0 -1.333762,0.29388 -0.62167,0.29388 -1.039883,0.81382 -0.406911,0.51994 -0.712094,1.51461 z"
         style="font-family:'Bookman Old Style';-inkscape-font-specification:'Bookman Old Style'"
         id="path6207" /><path
         d="m 124.75464,486.43761 0.72339,0.58776 q -0.82512,0.98337 -1.60503,1.55983 -0.76861,0.57646 -1.4581,0.80252 -0.68949,0.23736 -1.61634,0.23736 -1.66155,0 -2.82577,-0.67818 -1.33376,-0.77991 -2.04586,-2.03456 -0.71209,-1.25464 -0.71209,-2.9614 0,-1.78589 0.68949,-3.05183 0.68948,-1.26595 1.92152,-1.98934 1.24334,-0.7347 2.87098,-0.7347 1.20943,0 2.10237,0.3843 0.89295,0.373 1.51462,1.14161 0.62167,0.75731 0.90424,1.74067 0.15825,0.57646 0.18085,1.49201 h -7.99127 q -0.0339,0.55385 -0.0339,0.82513 0,1.42418 0.49733,2.54319 0.49734,1.1077 1.31116,1.63894 0.82512,0.51995 1.86501,0.51995 0.88164,0 1.70676,-0.40692 0.82513,-0.41821 2.00065,-1.61634 z m -1.4468,-4.56644 q -0.16954,-1.03988 -0.48603,-1.53722 -0.30518,-0.49733 -0.88164,-0.79121 -0.56515,-0.29388 -1.27725,-0.29388 -0.71209,0 -1.33376,0.29388 -0.62167,0.29388 -1.03988,0.81382 -0.40691,0.51994 -0.7121,1.51461 z"
         style="font-family:'Bookman Old Style';-inkscape-font-specification:'Bookman Old Style'"
         id="path6209" /><path
         d="m 127.12829,480.07398 v -0.94946 q 1.00597,-0.11303 1.50331,-0.27127 0.49733,-0.15824 1.43549,-0.67818 h 0.81382 v 2.14758 q 1.492,-1.25464 2.54319,-1.69546 1.06249,-0.45212 2.14758,-0.45212 0.92686,0 1.63895,0.31648 0.71209,0.30518 1.15291,0.83643 0.45213,0.53124 0.59907,1.20943 0.0904,0.41821 0.0904,1.26594 v 4.97336 q 0,0.89294 0.12434,1.15291 0.13563,0.24867 0.41821,0.3617 0.28258,0.11303 1.39028,0.11303 v 0.94946 h -5.82109 v -0.94946 h 0.31649 q 0.81382,0 1.1077,-0.14694 0.29388,-0.14694 0.41822,-0.42952 0.13563,-0.28257 0.13563,-1.15291 v -4.15953 q 0,-1.28855 -0.21476,-1.78589 -0.20345,-0.49733 -0.71209,-0.80252 -0.49734,-0.31648 -1.26594,-0.31648 -0.91555,0 -1.95544,0.47473 -1.03988,0.46342 -2.01194,1.37897 v 5.21072 q 0,0.88164 0.12433,1.17552 0.13564,0.29388 0.42952,0.44082 0.20345,0.11303 1.08509,0.11303 h 0.32779 v 0.94946 h -5.82108 v -0.94946 h 0.28257 q 0.83643,0 1.14161,-0.13564 0.30519,-0.14694 0.42952,-0.50864 0.0678,-0.18084 0.0678,-1.24333 v -6.44276 z"
         style="font-family:'Bookman Old Style';-inkscape-font-specification:'Bookman Old Style'"
         id="path6211" /><path
         d="m 152.07417,486.43761 0.7234,0.58776 q -0.82513,0.98337 -1.60504,1.55983 -0.76861,0.57646 -1.4581,0.80252 -0.68948,0.23736 -1.61634,0.23736 -1.66155,0 -2.82577,-0.67818 -1.33376,-0.77991 -2.04585,-2.03456 -0.7121,-1.25464 -0.7121,-2.9614 0,-1.78589 0.68949,-3.05183 0.68949,-1.26595 1.92152,-1.98934 1.24334,-0.7347 2.87099,-0.7347 1.20943,0 2.10237,0.3843 0.89294,0.373 1.51461,1.14161 0.62167,0.75731 0.90425,1.74067 0.15824,0.57646 0.18085,1.49201 h -7.99128 q -0.0339,0.55385 -0.0339,0.82513 0,1.42418 0.49734,2.54319 0.49733,1.1077 1.31115,1.63894 0.82513,0.51995 1.86501,0.51995 0.88164,0 1.70677,-0.40692 0.82512,-0.41821 2.00064,-1.61634 z m -1.44679,-4.56644 q -0.16955,-1.03988 -0.48604,-1.53722 -0.30518,-0.49733 -0.88164,-0.79121 -0.56515,-0.29388 -1.27724,-0.29388 -0.7121,0 -1.33377,0.29388 -0.62167,0.29388 -1.03988,0.81382 -0.40691,0.51994 -0.71209,1.51461 z"
         style="font-family:'Bookman Old Style';-inkscape-font-specification:'Bookman Old Style'"
         id="path6213" /><path
         d="m 154.4139,480.07398 v -0.96076 q 0.84773,-0.0791 1.48071,-0.27127 0.63297,-0.20346 1.44679,-0.66688 h 0.83643 v 1.89891 q 1.28855,-1.01727 2.01195,-1.36767 1.1077,-0.53124 2.11367,-0.53124 0.68949,0 1.34507,0.25997 0.66688,0.24866 1.06249,0.62167 0.40691,0.373 0.68948,1.01727 1.18683,-1.05118 2.1928,-1.4694 1.01728,-0.42951 2.05716,-0.42951 0.99467,0 1.75198,0.41821 0.76861,0.40691 1.1077,1.02858 0.35039,0.62167 0.35039,1.81979 v 5.24463 q 0,0.82513 0.0339,0.96076 0.0565,0.21476 0.23737,0.40691 0.19215,0.19216 0.42952,0.27128 0.23736,0.0791 0.88164,0.0791 h 0.36169 v 0.94946 h -5.68544 v -0.94946 q 0.97206,-0.0113 1.25464,-0.13564 0.29388,-0.13563 0.42951,-0.42951 0.14694,-0.29388 0.14694,-1.15292 v -4.98465 q 0,-0.94946 -0.16954,-1.31116 -0.16955,-0.3617 -0.61037,-0.59906 -0.42951,-0.24867 -1.07379,-0.24867 -0.80252,0 -1.68416,0.42951 -1.17552,0.58776 -1.8537,1.32246 v 5.39157 q 0,0.77991 0.0678,1.02858 0.0791,0.23737 0.24866,0.40691 0.18085,0.15825 0.40691,0.22606 0.23737,0.0565 1.13031,0.0565 v 0.94946 h -5.57241 v -0.94946 h 0.31648 q 0.66688,0 0.93816,-0.15824 0.28257,-0.15825 0.44082,-0.48604 0.11303,-0.25997 0.11303,-1.07379 v -4.81511 q 0,-1.06249 -0.16955,-1.43549 -0.15824,-0.373 -0.62167,-0.63297 -0.46342,-0.25997 -1.08509,-0.25997 -0.7347,0 -1.48071,0.3617 -1.1077,0.53124 -2.03455,1.39027 v 5.80979 q 0,0.51994 0.13564,0.76861 0.14694,0.23736 0.45212,0.3843 0.30518,0.14694 0.83643,0.14694 h 0.41821 v 0.94946 h -5.68545 v -0.94946 h 0.30519 q 0.77991,0 1.02858,-0.12433 0.3617,-0.16955 0.51994,-0.54255 0.0904,-0.20346 0.0904,-1.05119 v -6.6123 z"
         style="font-family:'Bookman Old Style';-inkscape-font-specification:'Bookman Old Style'"
         id="path6215" /><path
         d="m 175.23417,478.44634 h 5.4933 v 0.94946 h -0.45213 q -0.64427,0 -0.76861,0.0339 -0.14694,0.0452 -0.24866,0.19215 -0.10173,0.13564 -0.10173,0.35039 0,0.30519 0.30518,1.02858 l 2.62232,6.16018 2.43016,-5.8889 q 0.42951,-1.03988 0.42951,-1.37898 0,-0.25997 -0.19215,-0.373 -0.19215,-0.12433 -0.87034,-0.12433 h -0.53124 v -0.94946 h 4.62296 v 0.94946 h -0.27128 q -0.67818,0 -0.88164,0.0904 -0.20345,0.0904 -0.3956,0.373 -0.19216,0.27128 -0.61037,1.25465 l -4.14823,9.66413 q -0.45212,1.03988 -1.00597,1.92152 -0.55385,0.89294 -1.39028,1.37897 -0.83643,0.48604 -1.8424,0.48604 -1.16422,0 -1.86501,-0.53125 -0.59906,-0.45212 -0.59906,-1.13031 0,-0.41821 0.25997,-0.70079 0.25997,-0.27127 0.61036,-0.27127 0.27128,0 0.50864,0.11303 0.14694,0.0565 0.61037,0.47473 0.56515,0.49733 0.79121,0.61037 0.23737,0.11303 0.46343,0.11303 0.46343,0 0.91555,-0.31649 0.45212,-0.31649 0.76861,-0.89294 0.45212,-0.82513 0.746,-1.54852 l 0.46343,-1.13031 -3.73002,-8.35298 q -0.3956,-0.88164 -0.66688,-1.18682 -0.27127,-0.30518 -0.54255,-0.373 -0.14694,-0.0452 -0.92685,-0.0452 z"
         style="font-family:'Bookman Old Style';-inkscape-font-specification:'Bookman Old Style'"
         id="path6217" /><path
         d="m 195.9075,474.65981 v -0.93816 q 0.74601,-0.0565 1.4355,-0.27127 0.70079,-0.21476 1.55982,-0.67819 h 0.82512 v 6.89488 q 0.99468,-0.746 2.04586,-1.119 1.05119,-0.373 2.14759,-0.373 1.26594,0 2.33973,0.67818 1.0738,0.67818 1.68416,1.92152 0.62167,1.23204 0.62167,2.9162 0,2.64492 -1.54852,4.35168 -1.43549,1.58243 -3.63959,1.58243 -1.32246,0 -2.36234,-0.55385 -0.76861,-0.40691 -1.49201,-1.25464 l -0.62167,1.53722 h -1.05119 v -14.694 z m 3.82044,6.12627 v 4.35168 q 0,1.02858 0.14694,1.44679 0.14694,0.40692 0.59907,0.84774 0.46342,0.42951 1.07379,0.68948 0.62167,0.24867 1.27725,0.24867 1.00597,0 1.8311,-0.53124 0.82512,-0.53125 1.29985,-1.57113 0.47473,-1.03988 0.47473,-2.49798 0,-2.04586 -1.00597,-3.27789 -0.80252,-1.01728 -2.24932,-1.01728 -0.746,0 -1.51461,0.28258 -0.76861,0.27127 -1.93283,1.02858 z"
         style="font-family:'Bookman Old Style';-inkscape-font-specification:'Bookman Old Style'"
         id="path6219" /><path
         d="m 213.24642,473.07738 q 0.54255,0 0.92685,0.3843 0.38431,0.373 0.38431,0.91555 0,0.54255 -0.38431,0.92685 -0.3843,0.38431 -0.92685,0.38431 -0.54255,0 -0.92685,-0.38431 -0.38431,-0.3843 -0.38431,-0.92685 0,-0.54255 0.38431,-0.91555 0.3843,-0.3843 0.92685,-0.3843 z m -2.88228,6.9966 v -0.93815 q 0.93815,-0.11303 1.57112,-0.31649 0.64428,-0.20345 1.4581,-0.64427 h 0.82513 v 9.06506 q 0,0.47473 0.13563,0.7121 0.13564,0.23736 0.373,0.35039 0.24867,0.10173 0.89295,0.10173 h 0.53124 v 0.94946 h -5.78717 v -0.94946 h 0.46342 q 0.75731,0 1.01728,-0.13564 0.25997,-0.13563 0.3617,-0.3843 0.11303,-0.24867 0.11303,-1.16422 v -6.64621 z"
         style="font-family:'Bookman Old Style';-inkscape-font-specification:'Bookman Old Style'"
         id="path6221" /><path
         d="m 225.04684,478.44634 h 0.79121 l 1.01728,3.45874 -1.01728,0.33909 q -0.61036,-1.39028 -1.71806,-2.18149 -1.0964,-0.80252 -2.22671,-0.80252 -0.87034,0 -1.41288,0.42952 -0.54255,0.41821 -0.54255,0.97206 0,0.51994 0.39561,0.89295 0.3843,0.3843 1.72937,0.87033 l 2.2041,0.77991 q 1.865,0.66689 2.54319,1.42419 0.66688,0.76861 0.66688,1.74068 0,0.82512 -0.49734,1.59373 -0.49733,0.75731 -1.44679,1.20943 -0.93816,0.45212 -2.15889,0.45212 -1.89891,0 -3.25528,-1.08509 l -0.23737,0.81382 h -0.80252 l -1.41288,-3.69611 1.02858,-0.40691 q 1.02858,1.62764 1.94413,2.30583 1.27725,0.96076 2.75795,0.96076 0.98337,0 1.61634,-0.51994 0.63297,-0.53125 0.63297,-1.17552 0,-0.53125 -0.39561,-0.97207 -0.40691,-0.42951 -1.55982,-0.83642 l -2.61101,-0.94946 q -1.68416,-0.61037 -2.33974,-1.33376 -0.65558,-0.7234 -0.65558,-1.66156 0,-1.14161 1.06249,-2.01194 1.07379,-0.88164 2.72404,-0.88164 0.85904,0 1.53722,0.22606 0.67819,0.21476 1.33376,0.72339 z"
         style="font-family:'Bookman Old Style';-inkscape-font-specification:'Bookman Old Style'"
         id="path6223" /><path
         d="m 229.43244,474.69372 v -0.97207 q 1.09639,-0.14694 1.70676,-0.33909 0.61037,-0.20345 1.27725,-0.61037 h 0.88164 v 7.47134 q 1.27725,-1.07379 2.41886,-1.57113 1.14161,-0.49733 2.18149,-0.49733 1.51461,0 2.49798,0.90424 0.97206,0.90425 0.97206,2.2041 v 5.54981 q 0,0.82513 0.12434,1.0851 0.13564,0.24867 0.44082,0.373 0.30518,0.11303 1.36767,0.11303 v 0.94946 h -5.83239 v -0.94946 h 0.42952 q 0.82512,0 1.0851,-0.12433 0.25997,-0.13564 0.373,-0.42952 0.12433,-0.30518 0.12433,-1.24334 v -3.85435 q 0,-1.27725 -0.0904,-1.66155 -0.16955,-0.65558 -0.70079,-1.05119 -0.53125,-0.3956 -1.35637,-0.3956 -0.92686,0 -1.94413,0.46342 -1.00598,0.45212 -2.09107,1.36767 v 5.66285 q 0,0.63297 0.11303,0.84773 0.11303,0.21475 0.373,0.31648 0.25997,0.10173 1.03988,0.10173 h 0.46343 v 0.94946 h -5.85499 v -0.94946 h 0.35039 q 0.82513,0 1.19813,-0.20346 0.20345,-0.10172 0.29388,-0.3956 0.0904,-0.29388 0.0904,-1.62765 v -11.48392 z"
         style="font-family:'Bookman Old Style';-inkscape-font-specification:'Bookman Old Style'"
         id="path6225" /><path
         d="m 250.42224,478.17507 q 1.66156,0 2.87098,0.68948 1.22074,0.68949 1.92153,2.01195 0.70079,1.32246 0.70079,3.01792 0,1.69546 -0.7234,3.01792 -0.71209,1.32246 -1.95543,2.02325 -1.23204,0.68949 -2.9501,0.68949 -2.73535,0 -4.11432,-1.70676 -1.36768,-1.70677 -1.36768,-4.01259 0,-1.68416 0.7121,-2.98402 0.71209,-1.31115 1.98934,-2.02325 1.28855,-0.72339 2.91619,-0.72339 z m -0.0904,1.09639 q -1.28855,0 -2.1815,1.01728 -1.1303,1.26595 -1.1303,3.6848 0,2.32844 0.96076,3.54917 0.87034,1.0851 2.36234,1.0851 0.96076,0 1.70677,-0.50864 0.7573,-0.50864 1.22073,-1.61634 0.46342,-1.11901 0.46342,-2.62232 0,-1.4694 -0.49733,-2.63361 -0.38431,-0.92686 -1.16422,-1.43549 -0.76861,-0.51995 -1.74067,-0.51995 z"
         style="font-family:'Bookman Old Style';-inkscape-font-specification:'Bookman Old Style'"
         id="path6227" /><path
         d="m 257.56579,480.06268 v -0.92685 q 0.84773,0 1.50331,-0.21476 0.65558,-0.21476 1.43549,-0.746 h 0.89294 v 1.88761 q 1.41289,-1.11901 2.35104,-1.50331 0.93816,-0.3843 1.87631,-0.3843 1.93283,0 3.2892,1.51461 1.36767,1.51461 1.36767,3.94477 0,2.69013 -1.54852,4.4082 -1.41289,1.58243 -3.63959,1.58243 -1.1077,0 -2.07977,-0.41821 -0.70079,-0.29388 -1.61634,-1.05119 v 3.71871 q 0,0.83643 0.0452,0.98337 0.0565,0.21476 0.22607,0.3617 0.16954,0.14694 0.42951,0.19215 0.19215,0.0339 1.28855,0.0339 v 0.94946 h -5.82108 v -0.94946 h 0.50864 q 0.77991,0 1.00597,-0.12433 0.23737,-0.11303 0.3504,-0.3617 0.0678,-0.19215 0.0678,-1.17552 v -11.72129 z m 3.83174,1.16422 v 3.88825 q 0,0.76861 0.0904,1.14162 0.13563,0.57645 0.51994,1.03988 0.39561,0.46342 1.06249,0.79121 0.67818,0.32779 1.41288,0.32779 1.4694,0 2.54319,-1.1077 1.0851,-1.1077 1.0851,-3.35701 0,-2.10237 -0.89294,-3.24399 -0.89295,-1.15291 -2.11368,-1.15291 -0.79121,0 -1.71807,0.41821 -0.92685,0.41822 -1.98934,1.25465 z"
         style="font-family:'Bookman Old Style';-inkscape-font-specification:'Bookman Old Style'"
         id="path6229" /><path
         d="m 282.40994,474.60329 h 0.80251 v 3.84305 h 3.35702 v 1.13031 h -3.35702 v 6.81575 q 0,0.87034 0.14694,1.24334 0.15825,0.373 0.51995,0.61037 0.373,0.23736 0.82512,0.23736 1.07379,0 2.37365,-0.96076 v 1.0964 q -1.48071,1.00597 -2.99532,1.00597 -0.85903,0 -1.55982,-0.3843 -0.68949,-0.38431 -0.94946,-0.90425 -0.24867,-0.51994 -0.24867,-1.80849 v -6.95139 h -1.97804 v -0.94946 q 0.94946,-0.21476 1.52592,-0.66688 0.58776,-0.45213 0.94946,-1.17552 0.36169,-0.7234 0.58776,-2.1815 z"
         style="font-family:'Bookman Old Style';-inkscape-font-specification:'Bookman Old Style'"
         id="path6231" /><path
         d="m 293.93907,478.17507 q 1.66156,0 2.87099,0.68948 1.22073,0.68949 1.92152,2.01195 0.70079,1.32246 0.70079,3.01792 0,1.69546 -0.7234,3.01792 -0.71209,1.32246 -1.95543,2.02325 -1.23204,0.68949 -2.9501,0.68949 -2.73535,0 -4.11432,-1.70676 -1.36768,-1.70677 -1.36768,-4.01259 0,-1.68416 0.7121,-2.98402 0.71209,-1.31115 1.98934,-2.02325 1.28855,-0.72339 2.91619,-0.72339 z m -0.0904,1.09639 q -1.28855,0 -2.18149,1.01728 -1.13031,1.26595 -1.13031,3.6848 0,2.32844 0.96076,3.54917 0.87034,1.0851 2.36234,1.0851 0.96076,0 1.70677,-0.50864 0.7573,-0.50864 1.22073,-1.61634 0.46343,-1.11901 0.46343,-2.62232 0,-1.4694 -0.49734,-2.63361 -0.3843,-0.92686 -1.16422,-1.43549 -0.76861,-0.51995 -1.74067,-0.51995 z"
         style="font-family:'Bookman Old Style';-inkscape-font-specification:'Bookman Old Style'"
         id="path6233" /><path
         d="m 308.48615,480.06268 v -0.92685 q 0.84773,0 1.50331,-0.21476 0.65558,-0.21476 1.43549,-0.746 h 0.89295 v 1.88761 q 1.41288,-1.11901 2.35104,-1.50331 0.93815,-0.3843 1.87631,-0.3843 1.93282,0 3.28919,1.51461 1.36767,1.51461 1.36767,3.94477 0,2.69013 -1.54852,4.4082 -1.41288,1.58243 -3.63959,1.58243 -1.1077,0 -2.07976,-0.41821 -0.70079,-0.29388 -1.61634,-1.05119 v 3.71871 q 0,0.83643 0.0452,0.98337 0.0565,0.21476 0.22606,0.3617 0.16955,0.14694 0.42952,0.19215 0.19215,0.0339 1.28855,0.0339 v 0.94946 h -5.82109 v -0.94946 h 0.50864 q 0.77991,0 1.00598,-0.12433 0.23736,-0.11303 0.35039,-0.3617 0.0678,-0.19215 0.0678,-1.17552 v -11.72129 z m 3.83175,1.16422 v 3.88825 q 0,0.76861 0.0904,1.14162 0.13564,0.57645 0.51994,1.03988 0.39561,0.46342 1.06249,0.79121 0.67819,0.32779 1.41289,0.32779 1.4694,0 2.54319,-1.1077 1.08509,-1.1077 1.08509,-3.35701 0,-2.10237 -0.89294,-3.24399 -0.89294,-1.15291 -2.11367,-1.15291 -0.79122,0 -1.71807,0.41821 -0.92685,0.41822 -1.98934,1.25465 z"
         style="font-family:'Bookman Old Style';-inkscape-font-specification:'Bookman Old Style'"
         id="path6235" /><path
         d="m 331.08098,482.80933 v -1.23204 q 0,-1.25464 -0.70079,-1.78588 -0.70079,-0.54255 -1.97803,-0.54255 -0.63298,0 -1.10771,0.15824 -0.47472,0.14694 -0.7686,0.41821 -0.28258,0.25998 -0.41822,0.59907 -0.0565,0.12433 -0.27127,0.96076 -0.25997,1.01728 -1.05119,1.01728 -0.45212,0 -0.7347,-0.29388 -0.27127,-0.30519 -0.27127,-0.81383 0,-0.746 0.55385,-1.45809 0.55385,-0.7234 1.68416,-1.18683 1.14161,-0.47472 2.69013,-0.47472 1.44679,0 2.47537,0.45212 1.02858,0.44082 1.51461,1.27725 0.3391,0.57645 0.3391,2.10237 v 4.35168 q 0,0.92686 0.0565,1.20943 0.12434,0.48603 0.42952,0.7347 0.31649,0.23737 0.81382,0.23737 0.51994,0 1.24334,-0.24867 v 0.98337 q -0.93816,0.27127 -1.68416,0.27127 -0.80252,0 -1.35637,-0.22606 -0.54255,-0.22606 -0.89294,-0.65558 -0.3504,-0.44082 -0.45212,-1.03988 -1.35637,1.06249 -2.45277,1.492 -1.0964,0.42952 -2.2154,0.42952 -1.55983,0 -2.53189,-0.84773 -0.97207,-0.84773 -0.97207,-1.98934 0,-0.68949 0.3504,-1.31116 0.3617,-0.62167 1.08509,-1.0964 0.7347,-0.47473 2.29453,-0.83642 1.55982,-0.3617 4.32907,-0.65558 z m 0,0.98336 q -2.62231,0.38431 -3.24398,0.53125 -1.23203,0.28258 -1.76328,0.62167 -0.53124,0.33909 -0.7573,0.7347 -0.22607,0.3843 -0.22607,0.82512 0,0.44082 0.24867,0.85904 0.25997,0.40691 0.7234,0.64427 0.46343,0.23737 0.98337,0.23737 0.7347,0 1.66155,-0.3504 0.92685,-0.35039 2.37364,-1.36767 z"
         style="font-family:'Bookman Old Style';-inkscape-font-specification:'Bookman Old Style'"
         id="path6237" /><path
         d="m 335.53441,478.44634 h 5.19942 v 0.94946 h -0.3617 q -0.66688,0 -0.88164,0.10173 -0.33909,0.15824 -0.33909,0.49733 0,0.31649 0.25997,1.01728 l 2.33973,6.18278 2.28323,-5.74196 -0.20346,-0.53125 q -0.35039,-0.91555 -0.81382,-1.26594 -0.30518,-0.22606 -0.90425,-0.25997 v -0.94946 h 5.17681 v 0.94946 h -0.44082 q -0.62167,0 -0.80252,0.10173 -0.31648,0.18084 -0.31648,0.57645 0,0.33909 0.23736,0.93816 l 2.33974,6.18278 2.28322,-6.27321 q 0.18085,-0.50864 0.19215,-0.57645 0.0339,-0.12434 0.0339,-0.25997 0,-0.31649 -0.24867,-0.49734 -0.24866,-0.19215 -0.91555,-0.19215 h -0.41821 v -0.94946 h 4.38559 v 0.94946 q -0.48603,0.0226 -0.79121,0.16954 -0.30518,0.14694 -0.48603,0.38431 -0.18085,0.23736 -0.50864,1.06249 l -3.3005,8.34167 h -1.35637 l -2.61101,-6.51057 -2.5771,6.51057 h -1.34507 l -3.3344,-8.34167 q -0.31649,-0.80252 -0.51995,-1.06249 -0.20345,-0.25997 -0.50863,-0.40691 -0.29388,-0.14694 -0.74601,-0.14694 z"
         style="font-family:'Bookman Old Style';-inkscape-font-specification:'Bookman Old Style'"
         id="path6239" /><path
         d="m 354.44447,480.07398 v -0.94946 q 1.00598,-0.11303 1.50331,-0.27127 0.49734,-0.15824 1.43549,-0.67818 h 0.81382 v 2.14758 q 1.49201,-1.25464 2.5432,-1.69546 1.06248,-0.45212 2.14758,-0.45212 0.92685,0 1.63895,0.31648 0.71209,0.30518 1.15291,0.83643 0.45212,0.53124 0.59906,1.20943 0.0904,0.41821 0.0904,1.26594 v 4.97336 q 0,0.89294 0.12433,1.15291 0.13564,0.24867 0.41821,0.3617 0.28258,0.11303 1.39028,0.11303 v 0.94946 h -5.82108 v -0.94946 h 0.31649 q 0.81382,0 1.1077,-0.14694 0.29388,-0.14694 0.41821,-0.42952 0.13564,-0.28257 0.13564,-1.15291 v -4.15953 q 0,-1.28855 -0.21476,-1.78589 -0.20346,-0.49733 -0.7121,-0.80252 -0.49733,-0.31648 -1.26594,-0.31648 -0.91555,0 -1.95543,0.47473 -1.03988,0.46342 -2.01195,1.37897 v 5.21072 q 0,0.88164 0.12433,1.17552 0.13564,0.29388 0.42952,0.44082 0.20346,0.11303 1.0851,0.11303 h 0.32779 v 0.94946 h -5.82109 v -0.94946 h 0.28258 q 0.83643,0 1.14161,-0.13564 0.30518,-0.14694 0.42952,-0.50864 0.0678,-0.18084 0.0678,-1.24333 v -6.44276 z"
         style="font-family:'Bookman Old Style';-inkscape-font-specification:'Bookman Old Style'"
         id="path6241" /><path
         d="m 371.37646,493.44552 -0.61037,-0.746 q 2.31713,-1.88761 2.31713,-3.15356 0,-0.14694 -0.0226,-0.3617 -0.19215,0.0791 -0.373,0.12434 -0.18085,0.0452 -0.3391,0.0452 -0.54254,0 -0.87033,-0.3504 -0.32779,-0.35039 -0.32779,-0.89294 0,-0.53124 0.39561,-0.92685 0.3956,-0.39561 0.94945,-0.39561 0.76861,0 1.31116,0.62167 0.55385,0.61037 0.55385,1.58243 0,0.63297 -0.25997,1.32246 -0.25997,0.70079 -0.75731,1.28855 -0.49733,0.59906 -1.96673,1.8424 z"
         style="font-family:'Bookman Old Style';-inkscape-font-specification:'Bookman Old Style'"
         id="path6243" /><path
         d="m 29.695762,510.73334 v -1.23204 q 0,-1.25464 -0.700791,-1.78588 -0.700791,-0.54255 -1.978039,-0.54255 -0.632972,0 -1.107701,0.15824 -0.474729,0.14694 -0.768609,0.41822 -0.282577,0.25997 -0.418214,0.59906 -0.05652,0.12433 -0.271274,0.96076 -0.259971,1.01728 -1.051186,1.01728 -0.452123,0 -0.7347,-0.29388 -0.271274,-0.30519 -0.271274,-0.81382 0,-0.74601 0.553851,-1.4581 0.553851,-0.7234 1.684158,-1.18682 1.141611,-0.47473 2.690132,-0.47473 1.446794,0 2.475374,0.45212 1.02858,0.44082 1.514612,1.27725 0.339093,0.57645 0.339093,2.10237 v 4.35168 q 0,0.92686 0.05652,1.20943 0.124334,0.48604 0.429517,0.7347 0.316486,0.23737 0.813822,0.23737 0.519941,0 1.243338,-0.24867 v 0.98337 q -0.938155,0.27127 -1.684158,0.27127 -0.802519,0 -1.35637,-0.22606 -0.542547,-0.22606 -0.892943,-0.65558 -0.350395,-0.44082 -0.452123,-1.03988 -1.356369,1.06249 -2.452767,1.492 -1.096399,0.42952 -2.215403,0.42952 -1.559825,0 -2.531889,-0.84773 -0.972065,-0.84773 -0.972065,-1.98934 0,-0.68949 0.350395,-1.31116 0.361699,-0.62167 1.085096,-1.0964 0.7347,-0.47473 2.294524,-0.83642 1.559825,-0.3617 4.329079,-0.65558 z m 0,0.98337 q -2.622314,0.3843 -3.243983,0.53124 -1.232036,0.28258 -1.76328,0.62167 -0.531245,0.33909 -0.757306,0.7347 -0.226062,0.3843 -0.226062,0.82512 0,0.44082 0.248668,0.85904 0.25997,0.40691 0.723397,0.64427 0.463426,0.23737 0.983367,0.23737 0.7347,0 1.661552,-0.3504 0.926853,-0.35039 2.373647,-1.36767 z"
         style="font-family:'Bookman Old Style';-inkscape-font-specification:'Bookman Old Style'"
         id="path6245" /><path
         d="m 35.008207,507.99799 v -0.94945 q 1.005974,-0.11304 1.50331,-0.27128 0.497335,-0.15824 1.43549,-0.67818 h 0.813822 v 2.14758 q 1.492006,-1.25464 2.543192,-1.69546 1.062489,-0.45212 2.147585,-0.45212 0.926852,0 1.638946,0.31648 0.712094,0.30519 1.152913,0.83643 0.452124,0.53125 0.599064,1.20943 0.09042,0.41821 0.09042,1.26594 v 4.97336 q 0,0.89294 0.124334,1.15291 0.135637,0.24867 0.418214,0.3617 0.282577,0.11303 1.390278,0.11303 v 0.94946 h -5.821084 v -0.94946 h 0.316486 q 0.813821,0 1.107701,-0.14694 0.29388,-0.14694 0.418214,-0.42952 0.135637,-0.28257 0.135637,-1.15291 v -4.15953 q 0,-1.28855 -0.214758,-1.78589 -0.203456,-0.49733 -0.712094,-0.80252 -0.497335,-0.31648 -1.265945,-0.31648 -0.915549,0 -1.955432,0.47473 -1.039883,0.46342 -2.011947,1.37897 v 5.21072 q 0,0.88164 0.124333,1.17552 0.135637,0.29388 0.429517,0.44082 0.203456,0.11303 1.085096,0.11303 h 0.327789 v 0.94946 h -5.821085 v -0.94946 h 0.282577 q 0.836428,0 1.141611,-0.13564 0.305183,-0.14694 0.429517,-0.50863 0.06782,-0.18085 0.06782,-1.24334 v -6.44276 z"
         style="font-family:'Bookman Old Style';-inkscape-font-specification:'Bookman Old Style'"
         id="path6247" /><path
         d="m 57.32048,502.60643 v -0.96077 q 0.768609,-0.0678 1.401582,-0.25997 0.644275,-0.20345 1.605037,-0.68948 h 0.84773 v 13.71063 q 0,0.94946 0.04521,1.15291 0.11303,0.42952 0.384304,0.59906 0.271274,0.16955 1.051186,0.16955 h 0.486033 v 0.94946 l -3.922168,0.18085 v -1.79719 q -1.130308,1.02858 -2.124978,1.4581 -0.983368,0.42951 -1.978039,0.42951 -2.045856,0 -3.402226,-1.63894 -1.345066,-1.65025 -1.345066,-3.96738 0,-1.65025 0.712094,-3.01792 0.723397,-1.37898 1.898917,-2.10238 1.17552,-0.72339 2.577101,-0.72339 1.073793,0 1.989342,0.373 0.915549,0.373 1.672855,1.119 v -4.98465 z m 1.898917,11.93604 v -4.27256 q 0,-0.91555 -0.350395,-1.492 -0.339093,-0.58776 -1.130308,-1.01728 -0.779912,-0.42952 -1.605037,-0.42952 -0.983367,0 -1.819795,0.54255 -0.825125,0.53124 -1.299854,1.54852 -0.463426,1.00597 -0.463426,2.44147 0,1.35636 0.429517,2.35104 0.44082,0.98336 1.17552,1.5033 0.7347,0.50864 1.503309,0.50864 0.757306,0 1.718068,-0.42951 0.960761,-0.44082 1.842401,-1.25465 z"
         style="font-family:'Bookman Old Style';-inkscape-font-specification:'Bookman Old Style'"
         id="path6249" /><path
         d="m 79.078901,502.60643 v -0.96077 q 0.768609,-0.0678 1.401582,-0.25997 0.644275,-0.20345 1.605037,-0.68948 h 0.84773 v 13.71063 q 0,0.94946 0.04521,1.15291 0.11303,0.42952 0.384304,0.59906 0.271274,0.16955 1.051186,0.16955 h 0.486033 v 0.94946 l -3.922168,0.18085 v -1.79719 q -1.130308,1.02858 -2.124978,1.4581 -0.983368,0.42951 -1.978039,0.42951 -2.045857,0 -3.402226,-1.63894 -1.345066,-1.65025 -1.345066,-3.96738 0,-1.65025 0.712094,-3.01792 0.723397,-1.37898 1.898917,-2.10238 1.17552,-0.72339 2.577101,-0.72339 1.073793,0 1.989342,0.373 0.915549,0.373 1.672855,1.119 v -4.98465 z m 1.898917,11.93604 v -4.27256 q 0,-0.91555 -0.350395,-1.492 -0.339093,-0.58776 -1.130308,-1.01728 -0.779912,-0.42952 -1.605037,-0.42952 -0.983367,0 -1.819795,0.54255 -0.825125,0.53124 -1.299854,1.54852 -0.463426,1.00597 -0.463426,2.44147 0,1.35636 0.429517,2.35104 0.44082,0.98336 1.17552,1.5033 0.7347,0.50864 1.503309,0.50864 0.757306,0 1.718068,-0.42951 0.960761,-0.44082 1.842401,-1.25465 z"
         style="font-family:'Bookman Old Style';-inkscape-font-specification:'Bookman Old Style'"
         id="path6251" /><path
         d="m 89.183852,501.00139 q 0.542548,0 0.926853,0.3843 0.384304,0.37301 0.384304,0.91555 0,0.54255 -0.384304,0.92686 -0.384305,0.3843 -0.926853,0.3843 -0.542547,0 -0.926852,-0.3843 -0.384304,-0.38431 -0.384304,-0.92686 0,-0.54254 0.384304,-0.91555 0.384305,-0.3843 0.926852,-0.3843 z m -2.882284,6.9966 v -0.93815 q 0.938155,-0.11303 1.571128,-0.31649 0.644275,-0.20345 1.458096,-0.64427 h 0.825125 v 9.06506 q 0,0.47473 0.135637,0.7121 0.135637,0.23736 0.373001,0.35039 0.248668,0.10173 0.892944,0.10173 h 0.531244 v 0.94946 h -5.787175 v -0.94946 h 0.463426 q 0.757306,0 1.017277,-0.13564 0.259971,-0.13563 0.361698,-0.3843 Q 88.257,515.55975 88.257,514.6442 v -6.64621 z"
         style="font-family:'Bookman Old Style';-inkscape-font-specification:'Bookman Old Style'"
         id="path6253" /><path
         d="m 100.98426,506.37035 h 0.79122 l 1.01727,3.45874 -1.01727,0.33909 q -0.61037,-1.39027 -1.71807,-2.18149 -1.096399,-0.80252 -2.226707,-0.80252 -0.870337,0 -1.412884,0.42952 -0.542548,0.41821 -0.542548,0.97206 0,0.51995 0.395608,0.89295 0.384304,0.3843 1.729371,0.87033 l 2.2041,0.77992 q 1.86501,0.66688 2.54319,1.42418 0.66688,0.76861 0.66688,1.74068 0,0.82512 -0.49733,1.59373 -0.49734,0.75731 -1.4468,1.20943 -0.93815,0.45212 -2.158884,0.45212 -1.898916,0 -3.255286,-1.08509 l -0.237364,0.81382 h -0.802519 l -1.412884,-3.69611 1.02858,-0.40691 q 1.02858,1.62765 1.944129,2.30583 1.277248,0.96076 2.757951,0.96076 0.983367,0 1.616337,-0.51994 0.63297,-0.53124 0.63297,-1.17552 0,-0.53124 -0.3956,-0.97206 -0.40691,-0.42952 -1.559827,-0.83643 l -2.611011,-0.94946 q -1.684159,-0.61037 -2.339737,-1.33376 -0.655578,-0.7234 -0.655578,-1.66156 0,-1.14161 1.062489,-2.01194 1.073792,-0.88164 2.724041,-0.88164 0.859034,0 1.537219,0.22606 0.678184,0.21476 1.333764,0.7234 z"
         style="font-family:'Bookman Old Style';-inkscape-font-specification:'Bookman Old Style'"
         id="path6255" /><path
         d="m 115.36178,514.12426 0.7234,0.58776 q -2.12498,2.83707 -5.09769,2.83707 -2.31713,0 -3.91087,-1.65025 -1.59373,-1.65025 -1.59373,-4.10301 0,-1.63895 0.7347,-2.9388 0.746,-1.31116 2.05716,-2.03456 1.32246,-0.72339 3.02922,-0.72339 1.94413,0 3.24399,0.96076 1.29985,0.94946 1.29985,1.92152 0,0.51994 -0.30518,0.80252 -0.30518,0.28258 -0.68949,0.28258 -0.20345,0 -0.39561,-0.10173 -0.19215,-0.10173 -0.3956,-0.32779 -0.0904,-0.10173 -0.32779,-0.63297 -0.30519,-0.65558 -0.47473,-0.88164 -0.3504,-0.45213 -0.87034,-0.7121 -0.50864,-0.25997 -1.14161,-0.25997 -0.96076,0 -1.78589,0.53125 -0.81382,0.53124 -1.29985,1.57113 -0.47473,1.02858 -0.47473,2.46407 0,2.2267 1.18682,3.53786 1.02858,1.13031 2.45277,1.13031 0.65558,0 1.32246,-0.21476 0.67819,-0.22606 1.27725,-0.65558 0.44082,-0.30518 1.43549,-1.39028 z"
         style="font-family:'Bookman Old Style';-inkscape-font-specification:'Bookman Old Style'"
         id="path6257" /><path
         d="m 125.53454,510.73334 v -1.23204 q 0,-1.25464 -0.70079,-1.78588 -0.70079,-0.54255 -1.97803,-0.54255 -0.63298,0 -1.10771,0.15824 -0.47473,0.14694 -0.76861,0.41822 -0.28257,0.25997 -0.41821,0.59906 -0.0565,0.12433 -0.27127,0.96076 -0.25997,1.01728 -1.05119,1.01728 -0.45212,0 -0.7347,-0.29388 -0.27127,-0.30519 -0.27127,-0.81382 0,-0.74601 0.55385,-1.4581 0.55385,-0.7234 1.68416,-1.18682 1.14161,-0.47473 2.69013,-0.47473 1.44679,0 2.47537,0.45212 1.02858,0.44082 1.51461,1.27725 0.3391,0.57645 0.3391,2.10237 v 4.35168 q 0,0.92686 0.0565,1.20943 0.12434,0.48604 0.42952,0.7347 0.31649,0.23737 0.81382,0.23737 0.51994,0 1.24334,-0.24867 v 0.98337 q -0.93816,0.27127 -1.68416,0.27127 -0.80252,0 -1.35637,-0.22606 -0.54255,-0.22606 -0.89294,-0.65558 -0.3504,-0.44082 -0.45212,-1.03988 -1.35637,1.06249 -2.45277,1.492 -1.0964,0.42952 -2.21541,0.42952 -1.55982,0 -2.53188,-0.84773 -0.97207,-0.84773 -0.97207,-1.98934 0,-0.68949 0.3504,-1.31116 0.3617,-0.62167 1.08509,-1.0964 0.7347,-0.47473 2.29453,-0.83642 1.55982,-0.3617 4.32907,-0.65558 z m 0,0.98337 q -2.62231,0.3843 -3.24398,0.53124 -1.23203,0.28258 -1.76328,0.62167 -0.53124,0.33909 -0.7573,0.7347 -0.22607,0.3843 -0.22607,0.82512 0,0.44082 0.24867,0.85904 0.25997,0.40691 0.7234,0.64427 0.46342,0.23737 0.98337,0.23737 0.7347,0 1.66155,-0.3504 0.92685,-0.35039 2.37364,-1.36767 z"
         style="font-family:'Bookman Old Style';-inkscape-font-specification:'Bookman Old Style'"
         id="path6259" /><path
         d="m 130.81308,507.98669 v -0.92685 q 0.82513,-0.0678 1.4694,-0.27128 0.64428,-0.21475 1.4694,-0.68948 h 0.84773 v 2.13628 q 0.80252,-0.98337 1.86501,-1.55983 1.06249,-0.57645 1.91022,-0.57645 0.83643,0 1.32246,0.3956 0.48603,0.39561 0.48603,0.96077 0,0.40691 -0.32779,0.72339 -0.31648,0.30519 -0.76861,0.30519 -0.20345,0 -0.35039,-0.0565 -0.14694,-0.0565 -0.42952,-0.24867 -0.62167,-0.40691 -1.03988,-0.40691 -0.56516,0 -1.24334,0.47473 -0.85903,0.61037 -1.34507,1.19813 v 5.21072 q 0,0.67818 0.0678,0.92685 0.0791,0.23736 0.24867,0.41821 0.16955,0.16955 0.41821,0.24867 0.24867,0.0791 0.87034,0.0791 h 0.373 v 0.94946 h -5.84369 v -0.94946 h 0.48603 q 0.68949,0 0.90425,-0.12433 0.29388,-0.16955 0.42952,-0.46343 0.14694,-0.30518 0.14694,-1.08509 v -6.66882 z"
         style="font-family:'Bookman Old Style';-inkscape-font-specification:'Bookman Old Style'"
         id="path6261" /><path
         d="m 148.06158,502.60643 v -0.96077 q 0.76861,-0.0678 1.40158,-0.25997 0.64428,-0.20345 1.60504,-0.68948 h 0.84773 v 13.71063 q 0,0.94946 0.0452,1.15291 0.11303,0.42952 0.3843,0.59906 0.27128,0.16955 1.05119,0.16955 h 0.48603 v 0.94946 l -3.92216,0.18085 v -1.79719 q -1.13031,1.02858 -2.12498,1.4581 -0.98337,0.42951 -1.97804,0.42951 -2.04586,0 -3.40223,-1.63894 -1.34506,-1.65025 -1.34506,-3.96738 0,-1.65025 0.71209,-3.01792 0.7234,-1.37898 1.89892,-2.10238 1.17552,-0.72339 2.5771,-0.72339 1.07379,0 1.98934,0.373 0.91555,0.373 1.67286,1.119 v -4.98465 z m 1.89892,11.93604 v -4.27256 q 0,-0.91555 -0.3504,-1.492 -0.33909,-0.58776 -1.13031,-1.01728 -0.77991,-0.42952 -1.60503,-0.42952 -0.98337,0 -1.8198,0.54255 -0.82512,0.53124 -1.29985,1.54852 -0.46343,1.00597 -0.46343,2.44147 0,1.35636 0.42952,2.35104 0.44082,0.98336 1.17552,1.5033 0.7347,0.50864 1.50331,0.50864 0.7573,0 1.71806,-0.42951 0.96077,-0.44082 1.84241,-1.25465 z"
         style="font-family:'Bookman Old Style';-inkscape-font-specification:'Bookman Old Style'"
         id="path6263" /><path
         d="m 165.75089,502.5273 h 0.80252 v 3.84305 h 3.35702 v 1.13031 h -3.35702 v 6.81575 q 0,0.87034 0.14694,1.24334 0.15825,0.373 0.51994,0.61037 0.37301,0.23736 0.82513,0.23736 1.07379,0 2.37364,-0.96076 v 1.0964 q -1.4807,1.00597 -2.99531,1.00597 -0.85903,0 -1.55983,-0.3843 -0.68948,-0.38431 -0.94945,-0.90425 -0.24867,-0.51994 -0.24867,-1.80849 v -6.95139 h -1.97804 v -0.94946 q 0.94946,-0.21476 1.52592,-0.66688 0.58776,-0.45212 0.94945,-1.17552 0.3617,-0.7234 0.58776,-2.1815 z"
         style="font-family:'Bookman Old Style';-inkscape-font-specification:'Bookman Old Style'"
         id="path6265" /><path
         d="m 171.57198,502.61773 v -0.97207 q 1.0964,-0.14694 1.70676,-0.33909 0.61037,-0.20345 1.27725,-0.61036 h 0.88164 v 7.47133 q 1.27725,-1.07379 2.41886,-1.57113 1.14161,-0.49733 2.18149,-0.49733 1.51461,0 2.49798,0.90424 0.97207,0.90425 0.97207,2.2041 v 5.54981 q 0,0.82513 0.12433,1.0851 0.13564,0.24867 0.44082,0.373 0.30518,0.11303 1.36767,0.11303 v 0.94946 h -5.83239 v -0.94946 h 0.42952 q 0.82513,0 1.0851,-0.12433 0.25997,-0.13564 0.373,-0.42952 0.12433,-0.30518 0.12433,-1.24334 v -3.85435 q 0,-1.27724 -0.0904,-1.66155 -0.16955,-0.65558 -0.70079,-1.05119 -0.53125,-0.3956 -1.35637,-0.3956 -0.92685,0 -1.94413,0.46342 -1.00597,0.45213 -2.09107,1.36768 v 5.66284 q 0,0.63297 0.11303,0.84773 0.11303,0.21476 0.373,0.31648 0.25997,0.10173 1.03989,0.10173 h 0.46342 v 0.94946 h -5.85499 v -0.94946 h 0.35039 q 0.82513,0 1.19813,-0.20345 0.20345,-0.10173 0.29388,-0.39561 0.0904,-0.29388 0.0904,-1.62765 v -11.48392 z"
         style="font-family:'Bookman Old Style';-inkscape-font-specification:'Bookman Old Style'"
         id="path6267" /><path
         d="m 189.64559,501.00139 q 0.54255,0 0.92685,0.3843 0.38431,0.37301 0.38431,0.91555 0,0.54255 -0.38431,0.92686 -0.3843,0.3843 -0.92685,0.3843 -0.54255,0 -0.92685,-0.3843 -0.38431,-0.38431 -0.38431,-0.92686 0,-0.54254 0.38431,-0.91555 0.3843,-0.3843 0.92685,-0.3843 z m -2.88228,6.9966 v -0.93815 q 0.93815,-0.11303 1.57112,-0.31649 0.64428,-0.20345 1.4581,-0.64427 h 0.82513 v 9.06506 q 0,0.47473 0.13563,0.7121 0.13564,0.23736 0.373,0.35039 0.24867,0.10173 0.89295,0.10173 h 0.53124 v 0.94946 h -5.78717 v -0.94946 h 0.46342 q 0.75731,0 1.01728,-0.13564 0.25997,-0.13563 0.3617,-0.3843 0.11303,-0.24867 0.11303,-1.16422 v -6.64621 z"
         style="font-family:'Bookman Old Style';-inkscape-font-specification:'Bookman Old Style'"
         id="path6269" /><path
         d="m 201.44601,506.37035 h 0.79121 l 1.01728,3.45874 -1.01728,0.33909 q -0.61036,-1.39027 -1.71806,-2.18149 -1.0964,-0.80252 -2.22671,-0.80252 -0.87034,0 -1.41288,0.42952 -0.54255,0.41821 -0.54255,0.97206 0,0.51995 0.39561,0.89295 0.3843,0.3843 1.72937,0.87033 l 2.2041,0.77992 q 1.865,0.66688 2.54319,1.42418 0.66688,0.76861 0.66688,1.74068 0,0.82512 -0.49734,1.59373 -0.49733,0.75731 -1.44679,1.20943 -0.93816,0.45212 -2.15889,0.45212 -1.89891,0 -3.25528,-1.08509 l -0.23737,0.81382 h -0.80252 l -1.41288,-3.69611 1.02858,-0.40691 q 1.02858,1.62765 1.94413,2.30583 1.27725,0.96076 2.75795,0.96076 0.98337,0 1.61634,-0.51994 0.63297,-0.53124 0.63297,-1.17552 0,-0.53124 -0.39561,-0.97206 -0.40691,-0.42952 -1.55982,-0.83643 l -2.61101,-0.94946 q -1.68416,-0.61037 -2.33974,-1.33376 -0.65558,-0.7234 -0.65558,-1.66156 0,-1.14161 1.06249,-2.01194 1.07379,-0.88164 2.72404,-0.88164 0.85904,0 1.53722,0.22606 0.67819,0.21476 1.33376,0.7234 z"
         style="font-family:'Bookman Old Style';-inkscape-font-specification:'Bookman Old Style'"
         id="path6271" /><path
         d="m 223.22704,514.12426 0.7234,0.58776 q -2.12498,2.83707 -5.09769,2.83707 -2.31713,0 -3.91086,-1.65025 -1.59373,-1.65025 -1.59373,-4.10301 0,-1.63895 0.7347,-2.9388 0.746,-1.31116 2.05716,-2.03456 1.32246,-0.72339 3.02922,-0.72339 1.94413,0 3.24398,0.96076 1.29986,0.94946 1.29986,1.92152 0,0.51994 -0.30519,0.80252 -0.30518,0.28258 -0.68948,0.28258 -0.20346,0 -0.39561,-0.10173 -0.19215,-0.10173 -0.39561,-0.32779 -0.0904,-0.10173 -0.32779,-0.63297 -0.30518,-0.65558 -0.47473,-0.88164 -0.35039,-0.45213 -0.87033,-0.7121 -0.50864,-0.25997 -1.14162,-0.25997 -0.96076,0 -1.78588,0.53125 -0.81382,0.53124 -1.29986,1.57113 -0.47472,1.02858 -0.47472,2.46407 0,2.2267 1.18682,3.53786 1.02858,1.13031 2.45277,1.13031 0.65557,0 1.32246,-0.21476 0.67818,-0.22606 1.27724,-0.65558 0.44082,-0.30518 1.43549,-1.39028 z"
         style="font-family:'Bookman Old Style';-inkscape-font-specification:'Bookman Old Style'"
         id="path6273" /><path
         d="m 233.3998,510.73334 v -1.23204 q 0,-1.25464 -0.70079,-1.78588 -0.70079,-0.54255 -1.97804,-0.54255 -0.63297,0 -1.1077,0.15824 -0.47473,0.14694 -0.76861,0.41822 -0.28257,0.25997 -0.41821,0.59906 -0.0565,0.12433 -0.27128,0.96076 -0.25997,1.01728 -1.05118,1.01728 -0.45212,0 -0.7347,-0.29388 -0.27128,-0.30519 -0.27128,-0.81382 0,-0.74601 0.55386,-1.4581 0.55385,-0.7234 1.68415,-1.18682 1.14161,-0.47473 2.69014,-0.47473 1.44679,0 2.47537,0.45212 1.02858,0.44082 1.51461,1.27725 0.33909,0.57645 0.33909,2.10237 v 4.35168 q 0,0.92686 0.0565,1.20943 0.12433,0.48604 0.42952,0.7347 0.31648,0.23737 0.81382,0.23737 0.51994,0 1.24334,-0.24867 v 0.98337 q -0.93816,0.27127 -1.68416,0.27127 -0.80252,0 -1.35637,-0.22606 -0.54255,-0.22606 -0.89294,-0.65558 -0.3504,-0.44082 -0.45213,-1.03988 -1.35637,1.06249 -2.45276,1.492 -1.0964,0.42952 -2.21541,0.42952 -1.55982,0 -2.53189,-0.84773 -0.97206,-0.84773 -0.97206,-1.98934 0,-0.68949 0.35039,-1.31116 0.3617,-0.62167 1.0851,-1.0964 0.7347,-0.47473 2.29452,-0.83642 1.55983,-0.3617 4.32908,-0.65558 z m 0,0.98337 q -2.62231,0.3843 -3.24398,0.53124 -1.23204,0.28258 -1.76328,0.62167 -0.53125,0.33909 -0.75731,0.7347 -0.22606,0.3843 -0.22606,0.82512 0,0.44082 0.24867,0.85904 0.25997,0.40691 0.7234,0.64427 0.46342,0.23737 0.98336,0.23737 0.7347,0 1.66156,-0.3504 0.92685,-0.35039 2.37364,-1.36767 z"
         style="font-family:'Bookman Old Style';-inkscape-font-specification:'Bookman Old Style'"
         id="path6275" /><path
         d="m 238.67834,507.98669 v -0.92685 q 0.82512,-0.0678 1.4694,-0.27128 0.64427,-0.21475 1.4694,-0.68948 h 0.84773 v 2.13628 q 0.80252,-0.98337 1.86501,-1.55983 1.06249,-0.57645 1.91022,-0.57645 0.83642,0 1.32246,0.3956 0.48603,0.39561 0.48603,0.96077 0,0.40691 -0.32779,0.72339 -0.31649,0.30519 -0.76861,0.30519 -0.20345,0 -0.35039,-0.0565 -0.14694,-0.0565 -0.42952,-0.24867 -0.62167,-0.40691 -1.03988,-0.40691 -0.56516,0 -1.24334,0.47473 -0.85904,0.61037 -1.34507,1.19813 v 5.21072 q 0,0.67818 0.0678,0.92685 0.0791,0.23736 0.24867,0.41821 0.16954,0.16955 0.41821,0.24867 0.24867,0.0791 0.87034,0.0791 h 0.373 v 0.94946 h -5.84369 v -0.94946 h 0.48603 q 0.68949,0 0.90425,-0.12433 0.29388,-0.16955 0.42951,-0.46343 0.14694,-0.30518 0.14694,-1.08509 v -6.66882 z"
         style="font-family:'Bookman Old Style';-inkscape-font-specification:'Bookman Old Style'"
         id="path6277" /><path
         d="m 255.92684,502.60643 v -0.96077 q 0.76861,-0.0678 1.40159,-0.25997 0.64427,-0.20345 1.60503,-0.68948 h 0.84773 v 13.71063 q 0,0.94946 0.0452,1.15291 0.11304,0.42952 0.38431,0.59906 0.27127,0.16955 1.05119,0.16955 h 0.48603 v 0.94946 l -3.92217,0.18085 v -1.79719 q -1.13031,1.02858 -2.12498,1.4581 -0.98337,0.42951 -1.97804,0.42951 -2.04585,0 -3.40222,-1.63894 -1.34507,-1.65025 -1.34507,-3.96738 0,-1.65025 0.7121,-3.01792 0.72339,-1.37898 1.89891,-2.10238 1.17552,-0.72339 2.5771,-0.72339 1.0738,0 1.98935,0.373 0.91554,0.373 1.67285,1.119 v -4.98465 z m 1.89892,11.93604 v -4.27256 q 0,-0.91555 -0.35039,-1.492 -0.3391,-0.58776 -1.13031,-1.01728 -0.77991,-0.42952 -1.60504,-0.42952 -0.98337,0 -1.81979,0.54255 -0.82513,0.53124 -1.29986,1.54852 -0.46342,1.00597 -0.46342,2.44147 0,1.35636 0.42951,2.35104 0.44082,0.98336 1.17552,1.5033 0.7347,0.50864 1.50331,0.50864 0.75731,0 1.71807,-0.42951 0.96076,-0.44082 1.8424,-1.25465 z"
         style="font-family:'Bookman Old Style';-inkscape-font-specification:'Bookman Old Style'"
         id="path6279" /><path
         d="m 266.09961,514.6442 q 0.59906,0 1.00597,0.41822 0.41822,0.40691 0.41822,0.99467 0,0.58776 -0.41822,1.00597 -0.41821,0.40691 -1.00597,0.40691 -0.57646,0 -0.99467,-0.40691 -0.41822,-0.41821 -0.41822,-1.00597 0,-0.58776 0.40692,-0.99467 0.41821,-0.41822 1.00597,-0.41822 z"
         style="font-family:'Bookman Old Style';-inkscape-font-specification:'Bookman Old Style'"
         id="path6281" /></g><path
       style="color:#000000;fill:#331f14;-inkscape-stroke:none"
       d="m 4.2011719,31.212891 v 0.5 80.996089 H 101.63086 V 31.212891 Z m 1,1 H 100.63086 V 111.70898 H 5.2011719 Z"
       id="rect33301" /><g
       id="g3289"
       transform="matrix(0.68576377,-0.09214839,0.09214839,0.68576377,9.1548191,26.490632)"><path
         id="path251"
         style="fill:#616161;fill-opacity:1;stroke:none;stroke-width:0.264583;stroke-opacity:1"
         d="m 46.834782,48.611934 -11.155909,10.366292 3.060279,2.566769 c 0,0 -1.479501,0.802285 -1.95802,1.461409 -0.402009,0.553738 -0.657841,1.944585 -0.657841,1.944585 0,0 -0.197426,3.69233 0.28112,5.507157 0.51109,1.938254 2.631364,5.697843 2.631364,5.697843 0,0 2.680985,-0.274981 3.641638,0.11989 1.825548,0.858497 -0.262888,9.966001 0.109554,12.220959 l 3.751709,7.305497 c 1.076728,5.243205 1.828827,11.141055 3.489192,16.136995 0.883031,0.80131 1.333859,1.10522 2.472201,1.10433 0.09414,-7e-5 0.205895,-5.05291 0.3514,-5.04775 0.119711,0.004 0.273555,5.06728 0.362768,5.06067 1.093495,-0.081 2.333773,-0.43106 2.984831,-1.11725 1.660365,-4.99594 2.412465,-10.89379 3.489193,-16.136995 l 3.751709,-7.305497 c 0.37244,-2.254958 -1.186828,-11.362462 0.63872,-12.220959 0.960653,-0.394871 3.642155,-0.11989 3.642155,-0.11989 0,0 2.169365,-3.710496 2.680457,-5.64875 0.478544,-1.814828 0.232027,-5.55625 0.232027,-5.55625 0,0 -0.255832,-1.390847 -0.657841,-1.944585 -0.478519,-0.659124 -1.958537,-1.461409 -1.958537,-1.461409 L 71.07723,58.978226 59.392155,48.611934 c 0,0 -2.114134,2.128541 -3.479891,2.623613 -1.296488,0.153287 -4.41349,0.392208 -5.597591,0 -1.365759,-0.495072 -3.479891,-2.623613 -3.479891,-2.623613 z m 9.396325,50.386589 c 0.589424,4.43e-4 -0.02844,4.489487 -0.28267,6.479187 -0.1821,1.42521 -0.918468,5.63077 -0.98702,4.19561 -0.120766,-2.5283 -0.561133,-4.63505 -0.197404,-6.91069 0.207013,-1.29513 0.524887,-3.0311 1.332736,-3.702096 0.05049,-0.04194 0.09506,-0.06204 0.134358,-0.06201 z m -6.519498,0.0987 c 0.03929,-3e-5 0.08387,0.02007 0.134358,0.06201 0.807849,0.670996 1.125723,2.406957 1.332736,3.702107 0.363729,2.27562 -0.07664,4.38237 -0.197404,6.91069 -0.06855,1.43514 -0.80492,-2.77042 -0.98702,-4.19561 -0.254226,-1.98971 -0.872094,-6.478755 -0.28267,-6.479197 z" /><path
         id="path1755"
         style="fill:#a7a7a7;fill-opacity:1;stroke:none;stroke-width:0.264583;stroke-opacity:1"
         d="m 46.834782,48.611934 -11.155909,10.366292 3.060279,2.566769 c 0,0 -1.479501,0.802285 -1.95802,1.461409 -0.402009,0.553738 -0.657841,1.944585 -0.657841,1.944585 0,0 1.896503,3.063944 2.375049,4.878772 0.51109,1.938254 0.537435,6.326228 0.537435,6.326228 0,0 2.680985,-0.274981 3.641638,0.11989 1.825548,0.858497 -0.262888,9.966001 0.109554,12.220959 l 3.751709,7.305497 c 1.076728,5.243205 1.828827,11.141055 3.489192,16.136995 0.883031,0.80131 1.333859,1.10522 2.472201,1.10433 0.09414,-7e-5 0.205895,-5.05291 0.3514,-5.04775 0.119711,0.004 0.273555,5.06728 0.362768,5.06067 1.093495,-0.081 2.333773,-0.43106 2.984831,-1.11725 1.660365,-4.99594 2.412465,-10.89379 3.489193,-16.136995 l 3.751709,-7.305497 c 0.37244,-2.254958 -1.186828,-11.362462 0.63872,-12.220959 0.960653,-0.394871 3.642155,-0.11989 3.642155,-0.11989 0,0 0.214446,-3.850023 0.725537,-5.788277 0.478545,-1.814827 2.186947,-5.416723 2.186947,-5.416723 0,0 -0.255832,-1.390847 -0.657841,-1.944585 -0.478519,-0.659124 -1.958537,-1.461409 -1.958537,-1.461409 L 71.07723,58.978226 59.392155,48.611934 c 0,0 -2.114134,2.128541 -3.479891,2.623613 -1.296488,0.153287 -4.41349,0.392208 -5.597591,0 -1.365759,-0.495072 -3.479891,-2.623613 -3.479891,-2.623613 z m 9.396325,50.386589 c 0.589424,4.43e-4 -0.02844,4.489487 -0.28267,6.479187 -0.1821,1.42521 -0.918468,5.63077 -0.98702,4.19561 -0.120766,-2.5283 -0.561133,-4.63505 -0.197404,-6.91069 0.207013,-1.29513 0.524887,-3.0311 1.332736,-3.702096 0.05049,-0.04194 0.09506,-0.06204 0.134358,-0.06201 z m -6.519498,0.0987 c 0.03929,-3e-5 0.08387,0.02007 0.134358,0.06201 0.807849,0.670996 1.125723,2.406957 1.332736,3.702107 0.363729,2.27562 -0.07664,4.38237 -0.197404,6.91069 -0.06855,1.43514 -0.80492,-2.77042 -0.98702,-4.19561 -0.254226,-1.98971 -0.872094,-6.478755 -0.28267,-6.479197 z" /><path
         style="fill:#616161;fill-opacity:1;stroke:none;stroke-width:0.264583;stroke-opacity:1"
         d="m 43.267956,75.868853 c 0.473061,-1.166209 3.4311,-2.21553 4.083837,-0.977327 1.432116,2.716638 1.488738,9.702021 -0.453759,14.171266 1.552244,-4.294729 2.437446,-17.642201 -3.630078,-13.193939 z"
         id="path1849"
         sodipodi:nodetypes="cscc" /><path
         style="fill:#616161;fill-opacity:1;stroke:none;stroke-width:0.264583;stroke-opacity:1"
         d="m 63.822625,75.764139 c -0.473061,-1.166209 -3.4311,-2.21553 -4.083837,-0.977327 -1.432116,2.716638 -1.488738,9.702021 0.453759,14.171266 -1.552244,-4.294729 -2.437446,-17.642201 3.630078,-13.193939 z"
         id="path2334"
         sodipodi:nodetypes="cscc" /><path
         style="fill:#616161;fill-opacity:1;stroke:none;stroke-width:0.264583;stroke-opacity:1"
         d="m 46.956479,48.964858 c 0,0 1.209234,3.0048 3.705701,3.293686 0.284018,0.03287 1.322078,0.627455 2.518819,0.630913 0.890802,0.0026 1.853959,-0.540289 2.742528,-0.723653 2.230528,-0.460288 3.623914,-3.172031 3.623914,-3.172031 -0.730496,4.237202 -5.738825,4.047604 -6.29611,4.451003 -1.245113,-0.430119 -5.876341,-0.360754 -6.294852,-4.47992 z"
         id="path3074"
         sodipodi:nodetypes="cssscccc" /><path
         style="fill:#616161;fill-opacity:1;stroke:none;stroke-width:0.291902;stroke-opacity:1"
         d="m 65.076048,61.618249 c 0,0 -2.157388,-2.049972 -6.611323,-2.24706 -0.506715,-0.02242 -2.358713,-0.42807 -4.493813,-0.430429 -1.589275,-0.0018 -3.307639,0.368603 -4.892931,0.4937 -3.979474,0.314023 -6.465407,2.164063 -6.465407,2.164063 1.303274,-2.890758 10.23861,-2.761408 11.232859,-3.03662 2.2214,0.293441 10.483952,0.246118 11.230615,3.056348 z"
         id="path3076"
         sodipodi:nodetypes="cssscccc" /><path
         style="fill:#616161;fill-opacity:1;stroke:none;stroke-width:0.264583;stroke-opacity:1"
         d="m 52.607553,97.971931 c 0,0 1.321431,-12.730785 1.395806,-19.120968 0.03557,-3.056419 -0.45457,-9.158602 -0.45457,-9.158602 0.232032,9.941643 0.02076,18.298848 -0.941236,28.27957 z"
         id="path3225"
         sodipodi:nodetypes="cacc" /><path
         style="color:#000000;fill:#101010;stroke-width:1.136;-inkscape-stroke:none;fill-opacity:1"
         d="M 13.055676,34.055274 C -28.137443,55.966531 35.176674,89.373638 -10.267642,87.997028 1.4304658,92.713694 23.073519,95.795056 16.879945,78.592215 4.7257119,44.833454 21.903595,45.384483 34.719858,60.204476 L 47.463159,48.462554 C 42.894153,37.702404 23.44337,29.108033 13.055676,34.055274 Z"
         id="path3270"
         sodipodi:nodetypes="ccsccc" /><path
         style="color:#000000;fill:#101010;stroke-width:1.15573;-inkscape-stroke:none;fill-opacity:1"
         d="M 92.788748,33.846374 C 134.6974,56.138237 70.2835,90.125636 116.5172,88.725114 104.61589,93.523711 82.596892,96.658597 88.89805,79.156936 101.26341,44.811774 83.787138,45.372375 70.748252,60.449797 L 57.783595,48.503913 C 62.431966,37.556856 82.220616,28.813197 92.788748,33.846374 Z"
         id="path3278"
         sodipodi:nodetypes="ccsccc" /></g></g></svg>
