<?xml version="1.0" encoding="UTF-8" standalone="no"?>
<!-- Created with Inkscape (http://www.inkscape.org/) -->

<svg
   width="400.00006"
   height="600"
   viewBox="0 0 105.83335 158.75"
   version="1.1"
   id="svg5"
   inkscape:export-filename="CardTemplate.svg"
   inkscape:export-xdpi="26.281288"
   inkscape:export-ydpi="26.281288"
   sodipodi:docname="HighHeelsCard.svg"
   inkscape:version="1.2.2 (732a01da63, 2022-12-09)"
   xmlns:inkscape="http://www.inkscape.org/namespaces/inkscape"
   xmlns:sodipodi="http://sodipodi.sourceforge.net/DTD/sodipodi-0.dtd"
   xmlns="http://www.w3.org/2000/svg"
   xmlns:svg="http://www.w3.org/2000/svg">
  <sodipodi:namedview
     id="namedview7"
     pagecolor="#505050"
     bordercolor="#ffffff"
     borderopacity="1"
     inkscape:showpageshadow="0"
     inkscape:pageopacity="0"
     inkscape:pagecheckerboard="1"
     inkscape:deskcolor="#505050"
     inkscape:document-units="mm"
     showgrid="false"
     showguides="true"
     inkscape:zoom="1.34"
     inkscape:cx="47.014925"
     inkscape:cy="277.98507"
     inkscape:window-width="1920"
     inkscape:window-height="991"
     inkscape:window-x="-9"
     inkscape:window-y="-9"
     inkscape:window-maximized="1"
     inkscape:current-layer="layer1" />
  <defs
     id="defs2">
    <inkscape:perspective
       sodipodi:type="inkscape:persp3d"
       inkscape:vp_x="0 : 79.375 : 1"
       inkscape:vp_y="0 : 1000 : 0"
       inkscape:vp_z="105.83335 : 79.375 : 1"
       inkscape:persp3d-origin="52.916675 : 52.916667 : 1"
       id="perspective1793" />
    <linearGradient
       id="linearGradient3910"
       inkscape:swatch="solid">
      <stop
         style="stop-color:#000000;stop-opacity:1;"
         offset="0"
         id="stop3908" />
    </linearGradient>
    <linearGradient
       id="linearGradient3902"
       inkscape:swatch="solid">
      <stop
         style="stop-color:#000000;stop-opacity:1;"
         offset="0"
         id="stop3900" />
    </linearGradient>
    <linearGradient
       id="linearGradient1908"
       inkscape:swatch="gradient">
      <stop
         style="stop-color:#412a2a;stop-opacity:1;"
         offset="0.83033931"
         id="stop1904" />
      <stop
         style="stop-color:#412a2a;stop-opacity:0;"
         offset="0.84431136"
         id="stop1906" />
    </linearGradient>
    <rect
       x="20.732048"
       y="466.96472"
       width="356.39377"
       height="115.50713"
       id="rect857" />
    <rect
       x="13.821366"
       y="17.770327"
       width="368.24066"
       height="96.749557"
       id="rect721" />
  </defs>
  <g
     inkscape:label="Layer 1"
     inkscape:groupmode="layer"
     id="layer1"
     transform="translate(-0.33529438,-0.33529437)">
    <g
       id="rect386">
      <path
         style="color:#000000;fill:#c87137;stroke-width:2.64597;stroke-linejoin:round;-inkscape-stroke:none;paint-order:markers fill stroke"
         d="M 1.6582794,1.6582794 H 104.84566 V 157.76231 H 1.6582794 Z"
         id="path9557" />
      <path
         style="color:#000000;fill:#331f14;stroke-linejoin:round;-inkscape-stroke:none;paint-order:markers fill stroke"
         d="M 1.6582031,0.3359375 A 1.3231174,1.3231174 0 0 0 0.3359375,1.6582031 V 157.76172 a 1.3231174,1.3231174 0 0 0 1.3222656,1.32422 H 104.8457 a 1.3231174,1.3231174 0 0 0 1.32227,-1.32422 V 1.6582031 A 1.3231174,1.3231174 0 0 0 104.8457,0.3359375 Z M 2.9804688,2.9804688 H 103.52344 V 156.43945 H 2.9804688 Z"
         id="path9559" />
    </g>
    <path
       id="rect711"
       style="opacity:1;vector-effect:none;fill:#a6c78b;stroke-width:0.289246;stop-color:#000000;stop-opacity:1"
       d="M 4.7017326,31.71199 H 101.13161 v 80.49623 H 4.7017326 Z" />
    <g
       aria-label="High Heels"
       transform="matrix(0.26458333,0,0,0.26458333,0,9.5250005)"
       id="text719"
       style="font-size:53.3333px;line-height:0;font-family:Broadway;-inkscape-font-specification:Broadway;text-align:center;letter-spacing:0px;word-spacing:0px;baseline-shift:baseline;white-space:pre;shape-inside:url(#rect721);display:inline;opacity:1;vector-effect:none;stroke-width:0.999999;stop-color:#000000;stop-opacity:1">
      <path
         d="m 87.447657,19.378515 -0.05208,-7.317704 -0.05208,-3.2552068 q 0,-1.2760409 0.208334,-1.718749 0.208333,-0.442708 0.859374,-0.442708 0.989583,0 0.989583,1.5885407 l -0.02604,1.7708321 -0.05208,5.781247 -0.07813,9.296869 0.07813,9.687494 0.05208,6.796871 q 0,0.9375 -0.208333,1.276041 -0.182292,0.338542 -0.755208,0.338542 -0.598958,0 -0.833333,-0.364583 -0.208333,-0.364584 -0.208333,-1.328125 l 0.02604,-2.21354 0.07813,-13.072909 V 21.35768 l -0.989583,-0.02604 -5.078122,-0.104166 -11.171868,0.130208 0.02604,7.187496 0.15625,14.140616 H 54.452885 l 0.130208,-22.578111 -0.05208,-5.963538 -0.02604,-5.4947887 -0.05208,-1.5104158 h 15.963532 l -0.02604,1.3541659 -0.130209,10.8854106 q 2.656249,0.182291 8.437495,0.182291 5.312497,0 8.749995,-0.182291 z"
         id="path9374" />
      <path
         d="m 101.56223,5.1337314 q 6.875,0 6.875,3.5937479 0,1.7447907 -1.82292,2.7343737 -1.79687,0.963541 -5.07812,0.963541 -6.536453,0 -6.536453,-3.6979147 0,-3.5416646 6.562493,-3.5937479 z m 6.74479,9.1145776 v 0.755208 l -0.0521,4.062498 -0.0521,6.302079 -0.0781,9.583328 0.10417,5.390622 0.0521,2.343748 H 94.89557 l 0.130209,-9.583327 0.07813,-8.463537 -0.05208,-4.453122 -0.07813,-4.947914 0.02604,-0.989583 z"
         id="path9376" />
      <path
         d="m 134.71325,15.3681 q 2.23959,1.09375 3.75,2.890624 2.00521,2.421873 2.00521,5.598955 0,2.265623 -1.14583,4.296872 -1.14584,2.031249 -3.20313,3.411456 -3.80208,2.578124 -9.16666,2.578124 -2.47395,0 -4.55729,-0.442708 -2.08333,-0.442708 -3.80208,-1.328125 -1.22396,0.833333 -1.22396,1.692708 0,1.015624 1.38021,1.197916 2.99479,0.390625 4.11458,0.234375 l 0.15625,-0.02604 h 7.78646 l 0.39062,-0.02604 q 3.90625,-0.234375 5.625,1.302083 1.32812,1.223957 1.32812,2.864582 0,1.380207 -0.9375,2.499998 -1.5625,1.848957 -4.21874,1.848957 -0.4948,0 -1.25,-0.05208 0.41666,-0.651041 0.41666,-1.015624 0,-0.807292 -1.45833,-0.807292 -1.25,0 -5.23437,0.546875 -2.78646,0.390625 -4.60937,0.390625 -2.86459,0 -4.97396,-1.223958 -1.22396,-0.703124 -1.92708,-1.927082 -0.70313,-1.223958 -0.70313,-2.656248 0,-1.614583 0.83334,-2.942707 0.85937,-1.354166 2.83854,-2.83854 -1.84896,-1.171874 -2.86459,-3.046873 -1.01562,-1.901041 -1.01562,-4.114581 0,-5.260414 5.28646,-8.385412 3.95833,-2.343748 9.60936,-2.343748 1.25,0 2.60417,0.130208 1.84896,0.15625 2.68229,0.15625 2.05729,0 2.99479,-1.822916 0.54687,-1.093749 1.17187,-1.093749 0.4948,0 0.85938,0.338541 0.36458,0.3125 0.36458,0.78125 0,0.937499 -1.04166,1.848957 -1.04167,0.885416 -2.86459,1.484374 z m -10.23436,2.864582 V 29.2483 q 0,1.979166 0.31249,2.447916 0.52084,0.755207 2.16146,0.755207 1.51042,0 2.00521,-0.703124 0.52083,-0.729166 0.52083,-2.83854 V 18.284765 q 0,-1.770832 -0.52083,-2.36979 -0.49479,-0.598958 -1.97917,-0.598958 -1.48437,0 -2.0052,0.598958 -0.49479,0.598958 -0.49479,2.317707 z"
         id="path9378" />
      <path
         d="m 157.70803,17.920182 q 2.5,-1.692707 4.08854,-2.473957 3.90625,-1.90104 7.73437,-1.90104 2.76042,0 4.97396,0.989582 2.21354,0.989583 3.28125,2.708332 1.27604,2.057291 1.27604,7.552079 l -0.0521,3.880206 -0.0521,5.130205 0.18229,8.880203 h -13.35936 l 0.10416,-16.09374 -0.13021,-8.229162 q -0.26041,-1.354166 -1.92708,-1.354166 -1.22396,0 -2.76041,0.755208 -1.51042,0.729166 -3.35938,2.239582 l -0.0521,6.536455 0.10417,11.328118 0.0781,4.817705 h -13.41145 l 0.0521,-10.989576 V 19.170181 l -0.0781,-10.8333265 0.026,-1.197916 h 13.28124 v 0.7291663 l 0.026,4.4531222 -0.026,2.760415 z"
         id="path9380" />
      <path
         d="m 231.19758,19.378515 -0.0521,-7.317704 -0.0521,-3.2552068 q 0,-1.2760409 0.20834,-1.718749 0.20833,-0.442708 0.85937,-0.442708 0.98958,0 0.98958,1.5885407 l -0.026,1.7708321 -0.0521,5.781247 -0.0781,9.296869 0.0781,9.687494 0.0521,6.796871 q 0,0.9375 -0.20833,1.276041 -0.18229,0.338542 -0.75521,0.338542 -0.59896,0 -0.83333,-0.364583 -0.20833,-0.364584 -0.20833,-1.328125 l 0.026,-2.21354 0.0781,-13.072909 V 21.35768 l -0.98958,-0.02604 -5.07812,-0.104166 -11.17187,0.130208 0.026,7.187496 0.15625,14.140616 h -15.96353 l 0.13021,-22.578111 -0.0521,-5.963538 -0.026,-5.4947887 -0.0521,-1.5104158 h 15.96353 l -0.026,1.3541659 -0.13021,10.8854106 q 2.65625,0.182291 8.4375,0.182291 5.31249,0 8.74999,-0.182291 z"
         id="path9382" />
      <path
         d="m 249.03611,29.300384 v 8.072912 q 0,2.343748 0.28645,2.968748 0.54688,1.197916 2.57813,1.197916 3.02083,0 5.96354,-1.640624 2.96874,-1.666666 5.1302,-4.583331 0.70312,-0.963541 1.01562,-1.223958 0.3125,-0.260416 0.67709,-0.260416 0.44271,0 0.72916,0.338541 0.28646,0.3125 0.28646,0.807292 0,1.093749 -1.74479,2.942706 -2.29166,2.36979 -5.70312,3.854165 -3.38541,1.484374 -6.61458,1.484374 -5.54687,0 -9.79166,-3.723956 -2.47396,-2.187499 -3.80208,-5.390622 -1.17188,-2.812499 -1.17188,-5.624997 0,-2.708332 1.04167,-5.416663 1.04167,-2.734374 2.86458,-4.713539 2.10938,-2.317707 5,-3.593748 2.83854,-1.249999 5.9375,-1.249999 4.8177,0 8.72395,2.83854 6.09374,4.42708 6.04166,12.838534 h -6.0677 l -7.8125,0.02604 z m 6.66666,-1.718749 v -7.604162 q -0.0521,-2.447916 -0.10417,-2.916665 -0.0521,-0.494792 -0.36458,-0.911458 -0.72917,-1.015625 -2.96875,-1.015625 -2.29167,0 -2.86458,1.171875 -0.36458,0.703124 -0.36458,3.671873 v 7.604162 l 3.17708,0.104166 z"
         id="path9384" />
      <path
         d="m 280.96317,29.300384 v 8.072912 q 0,2.343748 0.28646,2.968748 0.54687,1.197916 2.57812,1.197916 3.02083,0 5.96354,-1.640624 2.96875,-1.666666 5.1302,-4.583331 0.70313,-0.963541 1.01563,-1.223958 0.3125,-0.260416 0.67708,-0.260416 0.44271,0 0.72917,0.338541 0.28646,0.3125 0.28646,0.807292 0,1.093749 -1.7448,2.942706 -2.29166,2.36979 -5.70312,3.854165 -3.38541,1.484374 -6.61458,1.484374 -5.54687,0 -9.79166,-3.723956 -2.47395,-2.187499 -3.80208,-5.390622 -1.17187,-2.812499 -1.17187,-5.624997 0,-2.708332 1.04166,-5.416663 1.04167,-2.734374 2.86458,-4.713539 2.10938,-2.317707 5,-3.593748 2.83854,-1.249999 5.9375,-1.249999 4.8177,0 8.72395,2.83854 6.09375,4.42708 6.04166,12.838534 h -6.0677 l -7.8125,0.02604 z m 6.66666,-1.718749 v -7.604162 q -0.0521,-2.447916 -0.10417,-2.916665 -0.0521,-0.494792 -0.36458,-0.911458 -0.72916,-1.015625 -2.96875,-1.015625 -2.29166,0 -2.86458,1.171875 -0.36458,0.703124 -0.36458,3.671873 v 7.604162 l 3.17708,0.104166 z"
         id="path9386" />
      <path
         d="m 315.78085,7.1389385 0.026,1.3281242 -0.0521,9.1666613 -0.026,3.958331 -0.0521,7.213537 0.10416,12.864576 v 1.015624 h -13.28124 v -1.223957 l 0.0521,-4.140623 0.026,-7.499995 0.0521,-9.817703 -0.026,-5.286455 -0.0781,-5.8072882 0.026,-1.7708323 z"
         id="path9388" />
      <path
         d="m 321.37982,37.868087 q 0.52083,0 1.32812,0.781249 1.30208,1.223958 3.69791,2.109374 2.39584,0.859375 4.47917,0.859375 0.96354,0 1.43229,-0.3125 0.49479,-0.338542 0.49479,-0.963541 0,-0.625 -0.67708,-1.484374 -0.65104,-0.885417 -2.94271,-3.359373 -5.59895,-5.98958 -7.26562,-8.411454 -1.64062,-2.447915 -1.64062,-4.687497 0,-1.953124 1.11979,-3.723956 1.14583,-1.796874 3.17708,-3.046873 3.35937,-2.083332 7.70833,-2.083332 3.20312,0 6.77083,1.354166 2.78645,1.067707 2.78645,2.317707 0,0.390624 -0.33854,0.703124 -0.3125,0.3125 -0.72916,0.3125 -0.4948,0 -1.84896,-0.963541 -2.76042,-1.979166 -6.01562,-1.979166 -1.14584,0 -1.74479,0.364583 -0.57292,0.364584 -0.57292,1.119791 0,0.885417 1.06771,2.239582 1.09375,1.354166 4.40104,4.583331 3.22916,3.15104 4.08854,4.140623 0.88541,0.963541 1.6927,2.239582 1.38021,2.187498 1.38021,4.73958 0,4.010414 -3.8802,6.484371 -3.17709,2.057291 -7.8125,2.057291 -5.15625,0 -9.14062,-2.291666 -1.17187,-0.703124 -1.61458,-1.145832 -0.41667,-0.442708 -0.41667,-0.963541 0,-0.963541 1.01563,-0.989583 z"
         id="path9390" />
    </g>
    <g
       aria-label="Description:"
       id="text733"
       style="font-size:7.05556px;line-height:0px;font-family:Broadway;-inkscape-font-specification:Broadway;opacity:1;vector-effect:none;stroke-width:0.264583;stop-color:#000000;stop-opacity:1">
      <path
         d="m 4.7016462,116.51791 h 1.8121214 q 0.7096901,0 1.0679802,0.0689 0.8853902,0.16881 1.4297156,0.94396 0.4271921,0.60978 0.4271921,1.34359 0,0.74758 -0.4409725,1.36081 -0.530545,0.74069 -1.3849293,0.91984 -0.2204862,0.0448 -0.3927411,0.0551 -0.1722549,0.0103 -0.7579215,0.0103 H 4.7119815 l 0.010335,-2.27377 z m 2.1049547,0.22048 -0.017226,2.76986 0.020671,1.49173 q 0.4616431,-0.003 0.6614587,-0.0344 0.2032608,-0.0345 0.4650882,-0.14814 0.6166725,-0.26527 0.9680725,-0.85438 0.3066137,-0.50643 0.3066137,-1.09555 0,-0.64078 -0.3617353,-1.17822 -0.6442333,-0.95429 -1.9085841,-0.95429 z"
         id="path9349" />
      <path
         d="m 11.3748,119.44969 v 1.06798 q 0,0.31006 0.0379,0.39274 0.07235,0.15847 0.341065,0.15847 0.399631,0 0.788927,-0.21704 0.392742,-0.22049 0.678685,-0.60634 0.09302,-0.12746 0.134358,-0.16192 0.04134,-0.0344 0.08957,-0.0344 0.05857,0 0.09646,0.0448 0.0379,0.0413 0.0379,0.1068 0,0.14469 -0.230822,0.38929 -0.303168,0.31351 -0.754476,0.50988 -0.447863,0.19637 -0.875055,0.19637 -0.733806,0 -1.295357,-0.49265 -0.327284,-0.28939 -0.5029839,-0.71314 -0.1550294,-0.37207 -0.1550294,-0.74414 0,-0.35829 0.1378039,-0.71658 0.1378034,-0.36173 0.3789604,-0.62356 0.279053,-0.30661 0.661459,-0.47542 0.375516,-0.16537 0.785482,-0.16537 0.637343,0 1.154108,0.37552 0.806153,0.58566 0.799263,1.69843 h -0.802708 l -1.033529,0.003 z m 0.881945,-0.22738 v -1.00597 q -0.0069,-0.32384 -0.01378,-0.38585 -0.0069,-0.0655 -0.04823,-0.12058 -0.09646,-0.13436 -0.392742,-0.13436 -0.303168,0 -0.37896,0.15503 -0.04823,0.093 -0.04823,0.48576 v 1.00597 l 0.420302,0.0138 z"
         id="path9351" />
      <path
         d="m 14.161884,120.58312 q 0.0689,0 0.1757,0.10336 0.172254,0.16192 0.489203,0.27905 0.316949,0.11369 0.592557,0.11369 0.127469,0 0.189481,-0.0413 0.06546,-0.0448 0.06546,-0.12747 0,-0.0827 -0.08957,-0.19637 -0.08613,-0.11714 -0.389296,-0.44442 -0.740696,-0.79237 -0.961182,-1.11277 -0.217041,-0.32384 -0.217041,-0.62011 0,-0.25839 0.148139,-0.49265 0.151584,-0.23772 0.420302,-0.40308 0.444417,-0.27561 1.019749,-0.27561 0.423747,0 0.895725,0.17915 0.368625,0.14125 0.368625,0.30661 0,0.0517 -0.04479,0.093 -0.04134,0.0413 -0.09646,0.0413 -0.06546,0 -0.244602,-0.12747 -0.36518,-0.26183 -0.795817,-0.26183 -0.151584,0 -0.230822,0.0482 -0.07579,0.0482 -0.07579,0.14813 0,0.11714 0.141249,0.29628 0.144694,0.17915 0.582222,0.60634 0.427192,0.41686 0.54088,0.54777 0.117133,0.12747 0.223931,0.29628 0.182591,0.28939 0.182591,0.62701 0,0.53054 -0.51332,0.85783 -0.420302,0.27216 -1.033529,0.27216 -0.68213,0 -1.20923,-0.30317 -0.155029,-0.093 -0.213596,-0.15158 -0.05512,-0.0586 -0.05512,-0.12747 0,-0.12747 0.134359,-0.13092 z"
         id="path9353" />
      <path
         d="m 19.236512,118.20601 v 2.30132 l -0.0034,0.22049 q 0,0.21359 0.05168,0.28594 0.05512,0.0689 0.217041,0.0689 0.406522,0 0.799263,-0.24804 0.392741,-0.2515 0.640788,-0.6718 0.07579,-0.12747 0.148139,-0.12747 0.05168,0 0.09302,0.0482 0.04479,0.0448 0.04479,0.0965 0,0.12402 -0.199816,0.3514 -0.199815,0.22393 -0.465088,0.40307 -0.54088,0.36174 -1.157553,0.36174 -0.844049,0 -1.395264,-0.52366 -0.627008,-0.58911 -0.627008,-1.44349 0,-0.88195 0.661459,-1.46761 0.55466,-0.4961 1.367703,-0.4961 0.647679,0 1.133438,0.30662 0.206705,0.13091 0.337619,0.28249 0.130914,0.14814 0.130914,0.2515 0,0.0517 -0.0379,0.0896 -0.0379,0.0344 -0.09302,0.0344 -0.07235,0 -0.18259,-0.16537 -0.158474,-0.23082 -0.499539,-0.39963 -0.341065,-0.17225 -0.644233,-0.17225 -0.203261,0 -0.261828,0.11369 -0.05857,0.11369 -0.05857,0.49954 z"
         id="path9355" />
      <path
         d="m 23.353405,118.5264 -0.0069,1.32292 0.01378,1.37115 H 21.59296 l 0.0034,-0.18948 0.0034,-0.7028 0.01034,-1.26435 -0.01378,-1.4056 -0.0034,-0.19982 h 1.76389 v 0.70969 q 0.396186,-0.4203 0.551215,-0.53055 0.358291,-0.25149 0.67524,-0.25149 0.192925,0 0.316949,0.0827 0.127468,0.0827 0.127468,0.21015 0,0.0999 -0.07579,0.16536 -0.07579,0.0655 -0.18948,0.0655 -0.07235,0 -0.16192,-0.0413 -0.151584,-0.0724 -0.251492,-0.0724 -0.248047,0 -0.478869,0.16881 -0.230821,0.16881 -0.516764,0.56155 z"
         id="path9357" />
      <path
         d="m 26.202501,116.25264 q 0.909506,0 0.909506,0.47542 0,0.23082 -0.241157,0.36173 -0.237712,0.12747 -0.671794,0.12747 -0.86472,0 -0.86472,-0.4892 0,-0.46853 0.868165,-0.47542 z m 0.89228,1.20578 v 0.0999 l -0.0069,0.53743 -0.0069,0.83372 -0.01034,1.26779 0.01378,0.71314 0.0069,0.31006 h -1.77078 l 0.01722,-1.2678 0.01034,-1.11966 -0.0069,-0.58911 -0.01034,-0.65457 0.0034,-0.13091 z"
         id="path9359" />
      <path
         d="m 27.911269,117.45842 h 1.760445 l -0.01034,0.45131 q 0.347955,-0.29973 0.637343,-0.4203 0.289388,-0.12403 0.637343,-0.12403 0.713136,0 1.157553,0.53055 0.399631,0.47542 0.399631,1.20923 0,0.78203 -0.458198,1.28502 -0.423747,0.46509 -1.057645,0.46509 -0.334174,0 -0.664903,-0.13781 -0.33073,-0.14125 -0.658014,-0.4203 l 0.0034,0.12747 0.0034,0.45131 0.0069,0.37551 0.0034,0.12747 h -1.760445 l 0.0034,-0.98185 0.0069,-0.91295 -0.01034,-1.90514 z m 1.75011,0.76137 v 1.79834 q 0.251492,0.23426 0.451308,0.35484 0.199816,0.11714 0.347955,0.11714 0.137804,0 0.161919,-0.13436 0.0069,-0.0448 0.01034,-0.46509 v -1.68465 q 0,-0.29973 -0.01034,-0.35829 -0.02412,-0.1447 -0.144694,-0.1447 -0.155029,0 -0.375515,0.14125 -0.220487,0.1378 -0.440973,0.37552 z"
         id="path9361" />
      <path
         d="m 34.84625,116.24575 -0.0379,1.11276 -0.0034,0.1068 q 0.299723,0 0.544325,-0.0241 0.04134,-0.003 0.07235,-0.003 0.151585,0 0.151585,0.1378 0,0.12747 -0.158475,0.12747 -0.04823,0 -0.120578,-0.007 -0.272163,-0.0207 -0.389296,-0.0207 h -0.09991 l -0.0034,0.66835 0.01378,1.34014 0.01033,0.71658 q 0,0.2515 0.0379,0.3514 0.0379,0.0999 0.130913,0.0999 0.124024,0 0.265273,-0.14469 0.137804,-0.1447 0.217041,-0.35485 0.07235,-0.19981 0.172255,-0.19981 0.117133,0 0.117133,0.13091 0,0.13091 -0.117133,0.32728 -0.117133,0.19293 -0.282498,0.33762 -0.406522,0.35485 -1.0542,0.35485 -0.609782,0 -0.943957,-0.36863 -0.172255,-0.18603 -0.237712,-0.41341 -0.06546,-0.23082 -0.06546,-0.63734 v -0.25838 l 0.0034,-0.72692 v -1.23334 q -0.04823,-0.003 -0.0689,-0.003 -0.03445,0 -0.137804,0.007 -0.08613,0.007 -0.144694,0.007 -0.16881,0 -0.16881,-0.12747 0,-0.12402 0.161919,-0.12402 0.07579,0 0.106799,0.003 l 0.251492,0.0172 v -0.3893 q 1.019749,-0.36862 1.77767,-0.80959 z"
         id="path9363" />
      <path
         d="m 36.882303,116.25264 q 0.909506,0 0.909506,0.47542 0,0.23082 -0.241157,0.36173 -0.237712,0.12747 -0.671794,0.12747 -0.86472,0 -0.86472,-0.4892 0,-0.46853 0.868165,-0.47542 z m 0.89228,1.20578 v 0.0999 l -0.0069,0.53743 -0.0069,0.83372 -0.01034,1.26779 0.01378,0.71314 0.0069,0.31006 h -1.77078 l 0.01723,-1.2678 0.01034,-1.11966 -0.0069,-0.58911 -0.01034,-0.65457 0.0034,-0.13091 z"
         id="path9365" />
      <path
         d="m 40.313622,117.3654 q 0.554661,0 1.050755,0.30662 0.458198,0.28249 0.699355,0.7717 0.213596,0.43064 0.213596,0.91295 0,0.33073 -0.127469,0.6649 -0.124023,0.33418 -0.341064,0.59256 -0.303169,0.35484 -0.740696,0.53399 -0.358291,0.14814 -0.747587,0.14814 -0.651123,0 -1.171333,-0.38585 -0.406521,-0.29628 -0.616672,-0.76137 -0.1757,-0.39274 -0.1757,-0.83027 0,-0.85438 0.620117,-1.41938 0.582222,-0.52365 1.336698,-0.53399 z m -0.09991,0.22393 -0.01034,3.47266 q 0.106798,0.007 0.148139,0.007 0.478869,0 0.916396,-0.26872 0.420302,-0.26182 0.630453,-0.69591 0.165365,-0.3445 0.165365,-0.75792 0,-0.83027 -0.613228,-1.34703 -0.496094,-0.41686 -1.078315,-0.41686 -0.04823,0 -0.158475,0.007 z"
         id="path9367" />
      <path
         d="m 44.582098,117.45842 v 0.47887 q 0.403077,-0.28594 0.788927,-0.42719 0.385851,-0.1447 0.751032,-0.1447 0.489204,0 0.826823,0.22393 0.254937,0.16881 0.341065,0.42031 0.08957,0.24804 0.08957,0.81304 l -0.0069,1.59508 0.01034,0.80271 h -1.753555 l 0.01378,-0.95774 0.01033,-0.7028 -0.0034,-1.06109 q -0.0034,-0.36863 -0.01033,-0.43753 -0.0034,-0.0724 -0.03101,-0.12747 -0.05512,-0.11024 -0.237712,-0.11024 -0.168809,0 -0.36518,0.0965 -0.19637,0.0965 -0.423747,0.28939 l -0.0034,0.14125 -0.0069,0.96807 -0.0069,0.7407 0.01034,1.01286 0.0034,0.14814 h -1.760445 l 0.01034,-1.35048 0.01034,-0.89228 -0.01034,-0.7717 -0.01034,-0.74759 z"
         id="path9369" />
      <path
         d="m 49.067614,119.7942 q 0.458198,0 0.73725,0.20326 0.279053,0.20326 0.279053,0.54432 0,0.34796 -0.282498,0.56844 -0.282498,0.21704 -0.733805,0.21704 -0.568442,0 -0.85094,-0.31694 -0.165364,-0.18604 -0.165364,-0.43409 0,-0.3514 0.275608,-0.56155 0.275607,-0.21359 0.740696,-0.22048 z m 0,-1.97404 q 0.458198,0 0.73725,0.20326 0.279053,0.20326 0.279053,0.54432 0,0.34796 -0.282498,0.56844 -0.282498,0.21704 -0.733805,0.21704 -0.568442,0 -0.85094,-0.31695 -0.165364,-0.18603 -0.165364,-0.43408 0,-0.3514 0.275608,-0.56155 0.275607,-0.21359 0.740696,-0.22048 z"
         id="path9371" />
    </g>
    <g
       aria-label="Limit an enemy queen's next move to 4 spaces, and discard this card."
       transform="matrix(0.27431353,0,0,0.27431353,-0.8676689,-4.702566)"
       id="text855"
       style="font-size:23.1487px;line-height:23.1487px;font-family:Broadway;-inkscape-font-specification:Broadway;white-space:pre;shape-inside:url(#rect857);display:inline;opacity:1;vector-effect:none;stroke-width:0.999999;stop-color:#000000;stop-opacity:1">
      <path
         d="m 21.794911,473.58602 h 6.114964 v 0.96076 h -0.565153 q -0.655579,0 -0.926853,0.12433 -0.271273,0.12434 -0.395607,0.3617 -0.124334,0.23736 -0.124334,0.84773 v 10.99789 q 0,0.75731 0.05652,0.90425 0.06782,0.20346 0.29388,0.29388 0.158243,0.0678 0.915549,0.0678 h 0.847731 q 1.458097,0 2.531889,-0.41821 1.073793,-0.42952 1.853705,-1.23204 0.779912,-0.81382 1.503309,-2.41886 l 1.005974,0.33909 -1.76328,4.93945 H 21.794911 v -0.94946 h 0.497335 q 0.723397,0 0.972065,-0.12433 0.248668,-0.12434 0.384305,-0.40691 0.135637,-0.29388 0.135637,-0.99468 v -10.72662 q 0,-0.81382 -0.124334,-1.08509 -0.124334,-0.28258 -0.361699,-0.39561 -0.237364,-0.12433 -1.005974,-0.12433 h -0.497335 z"
         style="font-family:'Bookman Old Style';-inkscape-font-specification:'Bookman Old Style'"
         id="path9236" />
      <path
         d="m 38.252191,473.07738 q 0.542548,0 0.926852,0.3843 0.384305,0.373 0.384305,0.91555 0,0.54255 -0.384305,0.92685 -0.384304,0.38431 -0.926852,0.38431 -0.542548,0 -0.926852,-0.38431 -0.384305,-0.3843 -0.384305,-0.92685 0,-0.54255 0.384305,-0.91555 0.384304,-0.3843 0.926852,-0.3843 z m -2.882285,6.9966 v -0.93815 q 0.938156,-0.11303 1.571128,-0.31649 0.644275,-0.20345 1.458097,-0.64427 h 0.825124 v 9.06506 q 0,0.47473 0.135637,0.7121 0.135637,0.23736 0.373002,0.35039 0.248668,0.10173 0.892943,0.10173 h 0.531245 v 0.94946 h -5.787176 v -0.94946 h 0.463426 q 0.757307,0 1.017277,-0.13564 0.259971,-0.13563 0.361699,-0.3843 0.113031,-0.24867 0.113031,-1.16422 v -6.64621 z"
         style="font-family:'Bookman Old Style';-inkscape-font-specification:'Bookman Old Style'"
         id="path9238" />
      <path
         d="m 42.377813,480.07398 v -0.96076 q 0.847731,-0.0791 1.480703,-0.27127 0.632972,-0.20346 1.446794,-0.66688 h 0.836428 v 1.89891 q 1.28855,-1.01727 2.011947,-1.36767 1.107702,-0.53124 2.113675,-0.53124 0.689488,0 1.345067,0.25997 0.666881,0.24866 1.062489,0.62167 0.406911,0.373 0.689487,1.01727 1.186823,-1.05118 2.192797,-1.4694 1.017277,-0.42951 2.05716,-0.42951 0.994671,0 1.751977,0.41821 0.768609,0.40691 1.107702,1.02858 0.350395,0.62167 0.350395,1.81979 v 5.24463 q 0,0.82513 0.03391,0.96076 0.05652,0.21476 0.237365,0.40691 0.192152,0.19216 0.429517,0.27128 0.237364,0.0791 0.88164,0.0791 h 0.361698 v 0.94946 h -5.685447 v -0.94946 q 0.972064,-0.0113 1.254641,-0.13564 0.29388,-0.13563 0.429517,-0.42951 0.14694,-0.29388 0.14694,-1.15292 v -4.98465 q 0,-0.94946 -0.169546,-1.31116 -0.169546,-0.3617 -0.610366,-0.59906 -0.429517,-0.24867 -1.073793,-0.24867 -0.802518,0 -1.684158,0.42951 -1.17552,0.58776 -1.853704,1.32246 v 5.39157 q 0,0.77991 0.06782,1.02858 0.07912,0.23737 0.248668,0.40691 0.180849,0.15825 0.40691,0.22606 0.237365,0.0565 1.130308,0.0565 v 0.94946 h -5.572417 v -0.94946 h 0.316486 q 0.666882,0 0.938156,-0.15824 0.282577,-0.15825 0.44082,-0.48604 0.113031,-0.25997 0.113031,-1.07379 v -4.81511 q 0,-1.06249 -0.169547,-1.43549 -0.158243,-0.373 -0.621669,-0.63297 -0.463426,-0.25997 -1.085095,-0.25997 -0.7347,0 -1.480703,0.3617 -1.107702,0.53124 -2.034554,1.39027 v 5.80979 q 0,0.51994 0.135637,0.76861 0.14694,0.23736 0.452123,0.3843 0.305183,0.14694 0.836428,0.14694 h 0.418214 v 0.94946 h -5.685448 v -0.94946 h 0.305183 q 0.779912,0 1.02858,-0.12433 0.361699,-0.16955 0.519942,-0.54255 0.09042,-0.20346 0.09042,-1.05119 v -6.6123 z"
         style="font-family:'Bookman Old Style';-inkscape-font-specification:'Bookman Old Style'"
         id="path9240" />
      <path
         d="m 66.950702,473.07738 q 0.542548,0 0.926852,0.3843 0.384305,0.373 0.384305,0.91555 0,0.54255 -0.384305,0.92685 -0.384304,0.38431 -0.926852,0.38431 -0.542548,0 -0.926852,-0.38431 -0.384305,-0.3843 -0.384305,-0.92685 0,-0.54255 0.384305,-0.91555 0.384304,-0.3843 0.926852,-0.3843 z m -2.882285,6.9966 v -0.93815 q 0.938156,-0.11303 1.571128,-0.31649 0.644275,-0.20345 1.458097,-0.64427 h 0.825125 v 9.06506 q 0,0.47473 0.135636,0.7121 0.135637,0.23736 0.373002,0.35039 0.248668,0.10173 0.892943,0.10173 h 0.531245 v 0.94946 h -5.787176 v -0.94946 h 0.463427 q 0.757306,0 1.017276,-0.13564 0.259971,-0.13563 0.361699,-0.3843 0.113031,-0.24867 0.113031,-1.16422 v -6.64621 z"
         style="font-family:'Bookman Old Style';-inkscape-font-specification:'Bookman Old Style'"
         id="path9242" />
      <path
         d="m 74.071641,474.60329 h 0.802519 v 3.84305 h 3.357014 v 1.13031 H 74.87416 v 6.81575 q 0,0.87034 0.14694,1.24334 0.158243,0.373 0.519941,0.61037 0.373002,0.23736 0.825125,0.23736 1.073792,0 2.373646,-0.96076 v 1.0964 q -1.480703,1.00597 -2.995315,1.00597 -0.859034,0 -1.559825,-0.3843 -0.689488,-0.38431 -0.949458,-0.90425 -0.248668,-0.51994 -0.248668,-1.80849 v -6.95139 h -1.978038 v -0.94946 q 0.949458,-0.21476 1.525915,-0.66688 0.58776,-0.45213 0.949458,-1.17552 0.361699,-0.7234 0.58776,-2.1815 z"
         style="font-family:'Bookman Old Style';-inkscape-font-specification:'Bookman Old Style'"
         id="path9244" />
      <path
         d="m 95.423156,482.80933 v -1.23204 q 0,-1.25464 -0.700791,-1.78588 -0.700791,-0.54255 -1.978038,-0.54255 -0.632973,0 -1.107702,0.15824 -0.474729,0.14694 -0.768609,0.41821 -0.282577,0.25998 -0.418214,0.59907 -0.05652,0.12433 -0.271274,0.96076 -0.259971,1.01728 -1.051186,1.01728 -0.452123,0 -0.7347,-0.29388 -0.271274,-0.30519 -0.271274,-0.81383 0,-0.746 0.553851,-1.45809 0.553851,-0.7234 1.684158,-1.18683 1.141611,-0.47472 2.690133,-0.47472 1.446793,0 2.475373,0.45212 1.02858,0.44082 1.514613,1.27725 0.339092,0.57645 0.339092,2.10237 v 4.35168 q 0,0.92686 0.05652,1.20943 0.124334,0.48603 0.429517,0.7347 0.316486,0.23737 0.813822,0.23737 0.519941,0 1.243338,-0.24867 v 0.98337 q -0.938155,0.27127 -1.684158,0.27127 -0.802519,0 -1.356369,-0.22606 -0.542548,-0.22606 -0.892944,-0.65558 -0.350395,-0.44082 -0.452123,-1.03988 -1.356369,1.06249 -2.452767,1.492 -1.096399,0.42952 -2.215403,0.42952 -1.559825,0 -2.531889,-0.84773 -0.972065,-0.84773 -0.972065,-1.98934 0,-0.68949 0.350395,-1.31116 0.361699,-0.62167 1.085096,-1.0964 0.7347,-0.47473 2.294524,-0.83642 1.559825,-0.3617 4.329079,-0.65558 z m 0,0.98336 q -2.622314,0.38431 -3.243983,0.53125 -1.232036,0.28258 -1.76328,0.62167 -0.531245,0.33909 -0.757306,0.7347 -0.226062,0.3843 -0.226062,0.82512 0,0.44082 0.248668,0.85904 0.259971,0.40691 0.723397,0.64427 0.463426,0.23737 0.983367,0.23737 0.7347,0 1.661553,-0.3504 0.926852,-0.35039 2.373646,-1.36767 z"
         style="font-family:'Bookman Old Style';-inkscape-font-specification:'Bookman Old Style'"
         id="path9246" />
      <path
         d="m 100.7356,480.07398 v -0.94946 q 1.00598,-0.11303 1.50331,-0.27127 0.49734,-0.15824 1.43549,-0.67818 h 0.81382 v 2.14758 q 1.49201,-1.25464 2.5432,-1.69546 1.06248,-0.45212 2.14758,-0.45212 0.92685,0 1.63895,0.31648 0.71209,0.30518 1.15291,0.83643 0.45212,0.53124 0.59906,1.20943 0.0904,0.41821 0.0904,1.26594 v 4.97336 q 0,0.89294 0.12433,1.15291 0.13564,0.24867 0.41821,0.3617 0.28258,0.11303 1.39028,0.11303 v 0.94946 h -5.82108 v -0.94946 h 0.31649 q 0.81382,0 1.1077,-0.14694 0.29388,-0.14694 0.41821,-0.42952 0.13564,-0.28257 0.13564,-1.15291 v -4.15953 q 0,-1.28855 -0.21476,-1.78589 -0.20346,-0.49733 -0.71209,-0.80252 -0.49734,-0.31648 -1.26595,-0.31648 -0.91555,0 -1.95543,0.47473 -1.03988,0.46342 -2.01195,1.37897 v 5.21072 q 0,0.88164 0.12433,1.17552 0.13564,0.29388 0.42952,0.44082 0.20346,0.11303 1.0851,0.11303 h 0.32779 v 0.94946 h -5.82109 v -0.94946 h 0.28258 q 0.83643,0 1.14161,-0.13564 0.30518,-0.14694 0.42952,-0.50864 0.0678,-0.18084 0.0678,-1.24333 v -6.44276 z"
         style="font-family:'Bookman Old Style';-inkscape-font-specification:'Bookman Old Style'"
         id="path9248" />
      <path
         d="m 133.085,486.43761 0.7234,0.58776 q -0.82512,0.98337 -1.60504,1.55983 -0.76861,0.57646 -1.45809,0.80252 -0.68949,0.23736 -1.61634,0.23736 -1.66155,0 -2.82577,-0.67818 -1.33376,-0.77991 -2.04586,-2.03456 -0.71209,-1.25464 -0.71209,-2.9614 0,-1.78589 0.68949,-3.05183 0.68948,-1.26595 1.92152,-1.98934 1.24334,-0.7347 2.87098,-0.7347 1.20943,0 2.10237,0.3843 0.89294,0.373 1.51461,1.14161 0.62167,0.75731 0.90425,1.74067 0.15824,0.57646 0.18085,1.49201 H 125.738 q -0.0339,0.55385 -0.0339,0.82513 0,1.42418 0.49733,2.54319 0.49734,1.1077 1.31116,1.63894 0.82512,0.51995 1.86501,0.51995 0.88164,0 1.70676,-0.40692 0.82512,-0.41821 2.00064,-1.61634 z m -1.44679,-4.56644 q -0.16955,-1.03988 -0.48603,-1.53722 -0.30518,-0.49733 -0.88164,-0.79121 -0.56516,-0.29388 -1.27725,-0.29388 -0.71209,0 -1.33376,0.29388 -0.62167,0.29388 -1.03989,0.81382 -0.40691,0.51994 -0.71209,1.51461 z"
         style="font-family:'Bookman Old Style';-inkscape-font-specification:'Bookman Old Style'"
         id="path9250" />
      <path
         d="m 135.45865,480.07398 v -0.94946 q 1.00597,-0.11303 1.50331,-0.27127 0.49733,-0.15824 1.43549,-0.67818 h 0.81382 v 2.14758 q 1.492,-1.25464 2.54319,-1.69546 1.06249,-0.45212 2.14759,-0.45212 0.92685,0 1.63894,0.31648 0.71209,0.30518 1.15291,0.83643 0.45213,0.53124 0.59907,1.20943 0.0904,0.41821 0.0904,1.26594 v 4.97336 q 0,0.89294 0.12434,1.15291 0.13563,0.24867 0.41821,0.3617 0.28258,0.11303 1.39028,0.11303 v 0.94946 h -5.82109 v -0.94946 h 0.31649 q 0.81382,0 1.1077,-0.14694 0.29388,-0.14694 0.41822,-0.42952 0.13563,-0.28257 0.13563,-1.15291 v -4.15953 q 0,-1.28855 -0.21476,-1.78589 -0.20345,-0.49733 -0.71209,-0.80252 -0.49733,-0.31648 -1.26594,-0.31648 -0.91555,0 -1.95544,0.47473 -1.03988,0.46342 -2.01194,1.37897 v 5.21072 q 0,0.88164 0.12433,1.17552 0.13564,0.29388 0.42952,0.44082 0.20345,0.11303 1.08509,0.11303 h 0.32779 v 0.94946 h -5.82108 v -0.94946 h 0.28257 q 0.83643,0 1.14161,-0.13564 0.30519,-0.14694 0.42952,-0.50864 0.0678,-0.18084 0.0678,-1.24333 v -6.44276 z"
         style="font-family:'Bookman Old Style';-inkscape-font-specification:'Bookman Old Style'"
         id="path9252" />
      <path
         d="m 160.40455,486.43761 0.72339,0.58776 q -0.82512,0.98337 -1.60503,1.55983 -0.76861,0.57646 -1.4581,0.80252 -0.68949,0.23736 -1.61634,0.23736 -1.66155,0 -2.82577,-0.67818 -1.33376,-0.77991 -2.04586,-2.03456 -0.71209,-1.25464 -0.71209,-2.9614 0,-1.78589 0.68949,-3.05183 0.68948,-1.26595 1.92152,-1.98934 1.24334,-0.7347 2.87098,-0.7347 1.20943,0 2.10237,0.3843 0.89295,0.373 1.51462,1.14161 0.62167,0.75731 0.90424,1.74067 0.15825,0.57646 0.18085,1.49201 h -7.99127 q -0.0339,0.55385 -0.0339,0.82513 0,1.42418 0.49733,2.54319 0.49734,1.1077 1.31116,1.63894 0.82512,0.51995 1.86501,0.51995 0.88164,0 1.70676,-0.40692 0.82513,-0.41821 2.00065,-1.61634 z m -1.4468,-4.56644 q -0.16954,-1.03988 -0.48603,-1.53722 -0.30518,-0.49733 -0.88164,-0.79121 -0.56515,-0.29388 -1.27725,-0.29388 -0.71209,0 -1.33376,0.29388 -0.62167,0.29388 -1.03988,0.81382 -0.40691,0.51994 -0.7121,1.51461 z"
         style="font-family:'Bookman Old Style';-inkscape-font-specification:'Bookman Old Style'"
         id="path9254" />
      <path
         d="m 162.74427,480.07398 v -0.96076 q 0.84773,-0.0791 1.4807,-0.27127 0.63298,-0.20346 1.4468,-0.66688 h 0.83643 v 1.89891 q 1.28855,-1.01727 2.01194,-1.36767 1.10771,-0.53124 2.11368,-0.53124 0.68949,0 1.34507,0.25997 0.66688,0.24866 1.06248,0.62167 0.40692,0.373 0.68949,1.01727 1.18683,-1.05118 2.1928,-1.4694 1.01728,-0.42951 2.05716,-0.42951 0.99467,0 1.75198,0.41821 0.76861,0.40691 1.1077,1.02858 0.35039,0.62167 0.35039,1.81979 v 5.24463 q 0,0.82513 0.0339,0.96076 0.0565,0.21476 0.23737,0.40691 0.19215,0.19216 0.42951,0.27128 0.23737,0.0791 0.88164,0.0791 h 0.3617 v 0.94946 h -5.68545 v -0.94946 q 0.97207,-0.0113 1.25465,-0.13564 0.29388,-0.13563 0.42951,-0.42951 0.14694,-0.29388 0.14694,-1.15292 v -4.98465 q 0,-0.94946 -0.16954,-1.31116 -0.16955,-0.3617 -0.61037,-0.59906 -0.42952,-0.24867 -1.07379,-0.24867 -0.80252,0 -1.68416,0.42951 -1.17552,0.58776 -1.8537,1.32246 v 5.39157 q 0,0.77991 0.0678,1.02858 0.0791,0.23737 0.24867,0.40691 0.18085,0.15825 0.40691,0.22606 0.23737,0.0565 1.13031,0.0565 v 0.94946 h -5.57242 v -0.94946 h 0.31649 q 0.66688,0 0.93815,-0.15824 0.28258,-0.15825 0.44082,-0.48604 0.11304,-0.25997 0.11304,-1.07379 v -4.81511 q 0,-1.06249 -0.16955,-1.43549 -0.15824,-0.373 -0.62167,-0.63297 -0.46343,-0.25997 -1.0851,-0.25997 -0.7347,0 -1.4807,0.3617 -1.1077,0.53124 -2.03455,1.39027 v 5.80979 q 0,0.51994 0.13563,0.76861 0.14694,0.23736 0.45213,0.3843 0.30518,0.14694 0.83643,0.14694 h 0.41821 v 0.94946 h -5.68545 v -0.94946 h 0.30519 q 0.77991,0 1.02857,-0.12433 0.3617,-0.16955 0.51995,-0.54255 0.0904,-0.20346 0.0904,-1.05119 v -6.6123 z"
         style="font-family:'Bookman Old Style';-inkscape-font-specification:'Bookman Old Style'"
         id="path9256" />
      <path
         d="m 183.56454,478.44634 h 5.49329 v 0.94946 h -0.45212 q -0.64427,0 -0.76861,0.0339 -0.14694,0.0452 -0.24867,0.19215 -0.10172,0.13564 -0.10172,0.35039 0,0.30519 0.30518,1.02858 l 2.62231,6.16018 2.43017,-5.8889 q 0.42951,-1.03988 0.42951,-1.37898 0,-0.25997 -0.19215,-0.373 -0.19215,-0.12433 -0.87034,-0.12433 h -0.53124 v -0.94946 h 4.62296 v 0.94946 h -0.27128 q -0.67818,0 -0.88164,0.0904 -0.20345,0.0904 -0.3956,0.373 -0.19216,0.27128 -0.61037,1.25465 l -4.14823,9.66413 q -0.45212,1.03988 -1.00597,1.92152 -0.55385,0.89294 -1.39028,1.37897 -0.83643,0.48604 -1.8424,0.48604 -1.16422,0 -1.86501,-0.53125 -0.59906,-0.45212 -0.59906,-1.13031 0,-0.41821 0.25997,-0.70079 0.25997,-0.27127 0.61036,-0.27127 0.27128,0 0.50864,0.11303 0.14694,0.0565 0.61037,0.47473 0.56515,0.49733 0.79121,0.61037 0.23737,0.11303 0.46343,0.11303 0.46342,0 0.91555,-0.31649 0.45212,-0.31649 0.76861,-0.89294 0.45212,-0.82513 0.746,-1.54852 l 0.46343,-1.13031 -3.73002,-8.35298 q -0.39561,-0.88164 -0.66688,-1.18682 -0.27127,-0.30518 -0.54255,-0.373 -0.14694,-0.0452 -0.92685,-0.0452 z"
         style="font-family:'Bookman Old Style';-inkscape-font-specification:'Bookman Old Style'"
         id="path9258" />
      <path
         d="m 213.94722,478.44634 h 1.23203 v 13.33763 q 0,0.83643 0.10173,1.07379 0.14694,0.31649 0.41821,0.45212 0.27128,0.13564 0.98337,0.13564 h 0.49734 v 0.94946 h -5.8437 v -0.94946 h 0.49734 q 0.65558,0 0.90425,-0.12433 0.24866,-0.12434 0.373,-0.38431 0.13563,-0.24866 0.13563,-0.90424 v -4.0239 q -0.47472,0.45213 -1.19812,0.83643 -0.7234,0.3843 -1.50331,0.61037 -0.58776,0.16954 -1.25464,0.16954 -1.32246,0 -2.44147,-0.68949 -1.1077,-0.68948 -1.78588,-2.01194 -0.66688,-1.33377 -0.66688,-2.96141 0,-2.28322 1.34506,-3.93347 1.51461,-1.8537 3.94478,-1.8537 1.05118,0 1.87631,0.36169 0.83642,0.3504 1.91022,1.35637 z m -0.7008,8.4547 v -4.24996 q 0,-1.17552 -0.32778,-1.76328 -0.31649,-0.59906 -1.11901,-1.02858 -0.79121,-0.44082 -1.65025,-0.44082 -0.96076,0 -1.79719,0.54255 -0.82512,0.53125 -1.31115,1.54852 -0.47473,1.01728 -0.47473,2.41886 0,1.98934 0.98336,3.19877 0.98337,1.20943 2.30583,1.20943 0.7121,0 1.52592,-0.31648 0.82512,-0.32779 1.865,-1.11901 z"
         style="font-family:'Bookman Old Style';-inkscape-font-specification:'Bookman Old Style'"
         id="path9260" />
      <path
         d="m 217.24771,478.44634 4.28387,-0.16955 v 7.27918 q 0,0.96077 0.25997,1.52592 0.27127,0.56515 0.81382,0.88164 0.55385,0.30518 1.28855,0.30518 0.90425,0 2.04586,-0.48603 1.15291,-0.48603 2.29452,-1.44679 v -5.26724 q 0,-0.83642 -0.12433,-1.0964 -0.12433,-0.25997 -0.44082,-0.41821 -0.31649,-0.15824 -0.99467,-0.15824 h -0.82513 v -0.94946 l 4.28387,-0.16955 v 8.4321 q 0,0.81382 0.13564,1.13031 0.13563,0.30518 0.39561,0.44082 0.27127,0.12433 1.07379,0.12433 h 0.35039 v 0.94946 l -3.75262,0.19215 v -2.09107 q -1.54852,1.23204 -2.70143,1.70677 -1.15292,0.46342 -2.33974,0.46342 -0.88164,0 -1.53722,-0.23736 -0.64427,-0.23737 -1.14161,-0.7121 -0.48603,-0.47473 -0.746,-1.14161 -0.25997,-0.66688 -0.25997,-1.42418 v -5.1429 q 0,-0.68949 -0.12434,-0.96077 -0.12433,-0.28257 -0.41821,-0.44082 -0.28258,-0.16954 -0.77991,-0.16954 h -1.03989 z"
         style="font-family:'Bookman Old Style';-inkscape-font-specification:'Bookman Old Style'"
         id="path9262" />
      <path
         d="m 243.27869,486.43761 0.7234,0.58776 q -0.82513,0.98337 -1.60504,1.55983 -0.76861,0.57646 -1.4581,0.80252 -0.68948,0.23736 -1.61634,0.23736 -1.66155,0 -2.82576,-0.67818 -1.33377,-0.77991 -2.04586,-2.03456 -0.71209,-1.25464 -0.71209,-2.9614 0,-1.78589 0.68948,-3.05183 0.68949,-1.26595 1.92153,-1.98934 1.24333,-0.7347 2.87098,-0.7347 1.20943,0 2.10237,0.3843 0.89294,0.373 1.51461,1.14161 0.62167,0.75731 0.90425,1.74067 0.15824,0.57646 0.18085,1.49201 h -7.99128 q -0.0339,0.55385 -0.0339,0.82513 0,1.42418 0.49734,2.54319 0.49733,1.1077 1.31115,1.63894 0.82513,0.51995 1.86501,0.51995 0.88164,0 1.70677,-0.40692 0.82512,-0.41821 2.00064,-1.61634 z m -1.44679,-4.56644 q -0.16955,-1.03988 -0.48603,-1.53722 -0.30519,-0.49733 -0.88164,-0.79121 -0.56516,-0.29388 -1.27725,-0.29388 -0.7121,0 -1.33377,0.29388 -0.62166,0.29388 -1.03988,0.81382 -0.40691,0.51994 -0.71209,1.51461 z"
         style="font-family:'Bookman Old Style';-inkscape-font-specification:'Bookman Old Style'"
         id="path9264" />
      <path
         d="m 255.31647,486.43761 0.7234,0.58776 q -0.82513,0.98337 -1.60504,1.55983 -0.76861,0.57646 -1.45809,0.80252 -0.68949,0.23736 -1.61634,0.23736 -1.66156,0 -2.82577,-0.67818 -1.33377,-0.77991 -2.04586,-2.03456 -0.71209,-1.25464 -0.71209,-2.9614 0,-1.78589 0.68948,-3.05183 0.68949,-1.26595 1.92153,-1.98934 1.24333,-0.7347 2.87098,-0.7347 1.20943,0 2.10237,0.3843 0.89294,0.373 1.51461,1.14161 0.62167,0.75731 0.90425,1.74067 0.15824,0.57646 0.18085,1.49201 h -7.99128 q -0.0339,0.55385 -0.0339,0.82513 0,1.42418 0.49734,2.54319 0.49733,1.1077 1.31116,1.63894 0.82512,0.51995 1.865,0.51995 0.88164,0 1.70677,-0.40692 0.82512,-0.41821 2.00064,-1.61634 z m -1.44679,-4.56644 q -0.16955,-1.03988 -0.48603,-1.53722 -0.30519,-0.49733 -0.88164,-0.79121 -0.56516,-0.29388 -1.27725,-0.29388 -0.7121,0 -1.33376,0.29388 -0.62167,0.29388 -1.03989,0.81382 -0.40691,0.51994 -0.71209,1.51461 z"
         style="font-family:'Bookman Old Style';-inkscape-font-specification:'Bookman Old Style'"
         id="path9266" />
      <path
         d="m 257.69012,480.07398 v -0.94946 q 1.00598,-0.11303 1.50331,-0.27127 0.49734,-0.15824 1.43549,-0.67818 h 0.81382 v 2.14758 q 1.49201,-1.25464 2.5432,-1.69546 1.06249,-0.45212 2.14758,-0.45212 0.92685,0 1.63895,0.31648 0.71209,0.30518 1.15291,0.83643 0.45212,0.53124 0.59906,1.20943 0.0904,0.41821 0.0904,1.26594 v 4.97336 q 0,0.89294 0.12433,1.15291 0.13564,0.24867 0.41822,0.3617 0.28257,0.11303 1.39027,0.11303 v 0.94946 h -5.82108 v -0.94946 h 0.31649 q 0.81382,0 1.1077,-0.14694 0.29388,-0.14694 0.41821,-0.42952 0.13564,-0.28257 0.13564,-1.15291 v -4.15953 q 0,-1.28855 -0.21476,-1.78589 -0.20346,-0.49733 -0.71209,-0.80252 -0.49734,-0.31648 -1.26595,-0.31648 -0.91555,0 -1.95543,0.47473 -1.03988,0.46342 -2.01195,1.37897 v 5.21072 q 0,0.88164 0.12434,1.17552 0.13563,0.29388 0.42951,0.44082 0.20346,0.11303 1.0851,0.11303 h 0.32779 v 0.94946 h -5.82109 v -0.94946 h 0.28258 q 0.83643,0 1.14161,-0.13564 0.30518,-0.14694 0.42952,-0.50864 0.0678,-0.18084 0.0678,-1.24333 v -6.44276 z"
         style="font-family:'Bookman Old Style';-inkscape-font-specification:'Bookman Old Style'"
         id="path9268" />
      <path
         d="m 274.38476,479.12452 -0.54255,-3.95607 q -0.0339,-0.29388 -0.0339,-0.62167 0,-0.63297 0.23737,-0.92685 0.24867,-0.30519 0.65558,-0.30519 0.373,0 0.59906,0.27128 0.23736,0.27127 0.23736,0.80251 0,0.30519 -0.0791,0.74601 l -0.61036,3.98998 z"
         style="font-family:'Bookman Old Style';-inkscape-font-specification:'Bookman Old Style'"
         id="path9270" />
      <path
         d="m 285.71044,478.44634 h 0.79122 l 1.01727,3.45874 -1.01727,0.33909 q -0.61037,-1.39028 -1.71807,-2.18149 -1.0964,-0.80252 -2.22671,-0.80252 -0.87033,0 -1.41288,0.42952 -0.54255,0.41821 -0.54255,0.97206 0,0.51994 0.39561,0.89295 0.3843,0.3843 1.72937,0.87033 l 2.2041,0.77991 q 1.86501,0.66689 2.54319,1.42419 0.66688,0.76861 0.66688,1.74068 0,0.82512 -0.49733,1.59373 -0.49734,0.75731 -1.44679,1.20943 -0.93816,0.45212 -2.15889,0.45212 -1.89892,0 -3.25529,-1.08509 l -0.23736,0.81382 h -0.80252 l -1.41289,-3.69611 1.02858,-0.40691 q 1.02858,1.62764 1.94413,2.30583 1.27725,0.96076 2.75795,0.96076 0.98337,0 1.61634,-0.51994 0.63298,-0.53125 0.63298,-1.17552 0,-0.53125 -0.39561,-0.97207 -0.40691,-0.42951 -1.55983,-0.83642 l -2.61101,-0.94946 q -1.68416,-0.61037 -2.33973,-1.33376 -0.65558,-0.7234 -0.65558,-1.66156 0,-1.14161 1.06249,-2.01194 1.07379,-0.88164 2.72404,-0.88164 0.85903,0 1.53722,0.22606 0.67818,0.21476 1.33376,0.72339 z"
         style="font-family:'Bookman Old Style';-inkscape-font-specification:'Bookman Old Style'"
         id="path9272" />
      <path
         d="m 297.51085,480.07398 v -0.94946 q 1.00597,-0.11303 1.50331,-0.27127 0.49733,-0.15824 1.43549,-0.67818 h 0.81382 v 2.14758 q 1.492,-1.25464 2.54319,-1.69546 1.06249,-0.45212 2.14759,-0.45212 0.92685,0 1.63894,0.31648 0.7121,0.30518 1.15292,0.83643 0.45212,0.53124 0.59906,1.20943 0.0904,0.41821 0.0904,1.26594 v 4.97336 q 0,0.89294 0.12434,1.15291 0.13563,0.24867 0.41821,0.3617 0.28258,0.11303 1.39028,0.11303 v 0.94946 h -5.82109 v -0.94946 h 0.31649 q 0.81382,0 1.1077,-0.14694 0.29388,-0.14694 0.41822,-0.42952 0.13563,-0.28257 0.13563,-1.15291 v -4.15953 q 0,-1.28855 -0.21476,-1.78589 -0.20345,-0.49733 -0.71209,-0.80252 -0.49733,-0.31648 -1.26594,-0.31648 -0.91555,0 -1.95544,0.47473 -1.03988,0.46342 -2.01194,1.37897 v 5.21072 q 0,0.88164 0.12433,1.17552 0.13564,0.29388 0.42952,0.44082 0.20345,0.11303 1.08509,0.11303 h 0.32779 v 0.94946 h -5.82108 v -0.94946 h 0.28257 q 0.83643,0 1.14161,-0.13564 0.30519,-0.14694 0.42952,-0.50864 0.0678,-0.18084 0.0678,-1.24333 v -6.44276 z"
         style="font-family:'Bookman Old Style';-inkscape-font-specification:'Bookman Old Style'"
         id="path9274" />
      <path
         d="m 322.45675,486.43761 0.72339,0.58776 q -0.82512,0.98337 -1.60503,1.55983 -0.76861,0.57646 -1.4581,0.80252 -0.68949,0.23736 -1.61634,0.23736 -1.66155,0 -2.82577,-0.67818 -1.33376,-0.77991 -2.04586,-2.03456 -0.71209,-1.25464 -0.71209,-2.9614 0,-1.78589 0.68949,-3.05183 0.68949,-1.26595 1.92152,-1.98934 1.24334,-0.7347 2.87098,-0.7347 1.20943,0 2.10237,0.3843 0.89295,0.373 1.51462,1.14161 0.62167,0.75731 0.90424,1.74067 0.15825,0.57646 0.18085,1.49201 h -7.99127 q -0.0339,0.55385 -0.0339,0.82513 0,1.42418 0.49733,2.54319 0.49734,1.1077 1.31116,1.63894 0.82512,0.51995 1.86501,0.51995 0.88164,0 1.70676,-0.40692 0.82513,-0.41821 2.00065,-1.61634 z m -1.4468,-4.56644 q -0.16954,-1.03988 -0.48603,-1.53722 -0.30518,-0.49733 -0.88164,-0.79121 -0.56515,-0.29388 -1.27725,-0.29388 -0.71209,0 -1.33376,0.29388 -0.62167,0.29388 -1.03988,0.81382 -0.40691,0.51994 -0.7121,1.51461 z"
         style="font-family:'Bookman Old Style';-inkscape-font-specification:'Bookman Old Style'"
         id="path9276" />
      <path
         d="m 324.40088,478.44634 h 5.68545 v 0.94946 h -0.39561 q -0.33909,0 -0.62167,0.0791 -0.16955,0.0452 -0.28258,0.18085 -0.10172,0.12433 -0.10172,0.23736 0,0.25997 0.42951,0.77992 l 1.61634,2.03455 1.88762,-2.03455 q 0.51994,-0.56516 0.51994,-0.84774 0,-0.20345 -0.18085,-0.31648 -0.18085,-0.11303 -0.77991,-0.11303 h -0.42952 v -0.94946 h 4.82641 v 0.94946 q -0.71209,0.0339 -1.23203,0.29388 -0.50864,0.25997 -1.20943,0.98337 l -2.58841,2.69013 3.22138,3.6735 0.12433,0.15824 q 0.47473,0.61037 1.06249,0.98337 0.32779,0.21476 1.01728,0.22606 v 0.94946 h -5.54981 v -0.94946 h 0.47473 q 0.54255,0 0.68949,-0.0678 0.24866,-0.11303 0.24866,-0.3843 0,-0.24867 -0.54254,-0.91555 l -2.05716,-2.52059 -2.29453,2.52059 -0.22606,0.27127 -0.12433,0.13564 q -0.28258,0.30518 -0.28258,0.54255 0,0.21475 0.16955,0.31648 0.18085,0.10173 0.79121,0.10173 h 0.45213 v 0.94946 h -4.7586 v -0.94946 q 0.55385,-0.0113 0.87034,-0.11303 0.31648,-0.11303 0.61036,-0.33909 0.50864,-0.40691 0.7347,-0.64428 l 3.3118,-3.40222 -2.81446,-3.23268 q -0.53125,-0.59907 -0.84773,-0.83643 -0.30519,-0.24867 -0.59907,-0.33909 -0.29388,-0.10173 -0.82512,-0.10173 z"
         style="font-family:'Bookman Old Style';-inkscape-font-specification:'Bookman Old Style'"
         id="path9278" />
      <path
         d="m 340.75643,474.60329 h 0.80252 v 3.84305 h 3.35702 v 1.13031 h -3.35702 v 6.81575 q 0,0.87034 0.14694,1.24334 0.15824,0.373 0.51994,0.61037 0.373,0.23736 0.82513,0.23736 1.07379,0 2.37364,-0.96076 v 1.0964 q -1.4807,1.00597 -2.99531,1.00597 -0.85904,0 -1.55983,-0.3843 -0.68948,-0.38431 -0.94945,-0.90425 -0.24867,-0.51994 -0.24867,-1.80849 v -6.95139 h -1.97804 v -0.94946 q 0.94946,-0.21476 1.52591,-0.66688 0.58776,-0.45213 0.94946,-1.17552 0.3617,-0.7234 0.58776,-2.1815 z"
         style="font-family:'Bookman Old Style';-inkscape-font-specification:'Bookman Old Style'"
         id="path9280" />
      <path
         d="m 21.546243,507.99799 v -0.96076 q 0.847731,-0.0791 1.480703,-0.27127 0.632973,-0.20346 1.446794,-0.66688 h 0.836428 v 1.89891 q 1.288551,-1.01727 2.011947,-1.36767 1.107702,-0.53124 2.113676,-0.53124 0.689487,0 1.345066,0.25997 0.666881,0.24867 1.062489,0.62167 0.406911,0.373 0.689488,1.01727 1.186823,-1.05118 2.192797,-1.4694 1.017276,-0.42951 2.05716,-0.42951 0.99467,0 1.751976,0.41821 0.76861,0.40691 1.107702,1.02858 0.350395,0.62167 0.350395,1.8198 v 5.24462 q 0,0.82513 0.03391,0.96076 0.05652,0.21476 0.237365,0.40692 0.192152,0.19215 0.429517,0.27127 0.237365,0.0791 0.88164,0.0791 h 0.361698 v 0.94946 h -5.685447 v -0.94946 q 0.972065,-0.0113 1.254641,-0.13564 0.29388,-0.13563 0.429517,-0.42951 0.14694,-0.29388 0.14694,-1.15292 v -4.98465 q 0,-0.94946 -0.169546,-1.31116 -0.169546,-0.3617 -0.610366,-0.59906 -0.429517,-0.24867 -1.073792,-0.24867 -0.802519,0 -1.684159,0.42952 -1.17552,0.58776 -1.853704,1.32246 v 5.39156 q 0,0.77992 0.06782,1.02858 0.07912,0.23737 0.248668,0.40691 0.180849,0.15825 0.406911,0.22607 0.237364,0.0565 1.130307,0.0565 v 0.94946 h -5.572416 v -0.94946 h 0.316486 q 0.666881,0 0.938155,-0.15824 0.282577,-0.15825 0.44082,-0.48603 0.113031,-0.25998 0.113031,-1.0738 v -4.81511 q 0,-1.06249 -0.169546,-1.43549 -0.158243,-0.373 -0.621669,-0.63297 -0.463427,-0.25997 -1.085096,-0.25997 -0.7347,0 -1.480703,0.3617 -1.107701,0.53124 -2.034554,1.39028 v 5.80978 q 0,0.51994 0.135637,0.76861 0.14694,0.23736 0.452123,0.3843 0.305183,0.14694 0.836428,0.14694 h 0.418214 v 0.94946 h -5.685448 v -0.94946 h 0.305183 q 0.779913,0 1.02858,-0.12433 0.361699,-0.16955 0.519942,-0.54255 0.09043,-0.20346 0.09043,-1.05119 v -6.6123 z"
         style="font-family:'Bookman Old Style';-inkscape-font-specification:'Bookman Old Style'"
         id="path9282" />
      <path
         d="m 49.035326,506.09908 q 1.661552,0 2.870981,0.68948 1.220733,0.68949 1.921523,2.01195 0.700791,1.32246 0.700791,3.01792 0,1.69546 -0.723397,3.01792 -0.712093,1.32246 -1.955432,2.02326 -1.232035,0.68948 -2.950103,0.68948 -2.735344,0 -4.11432,-1.70676 -1.367672,-1.70677 -1.367672,-4.01259 0,-1.68416 0.712094,-2.98402 0.712094,-1.31115 1.989341,-2.02325 1.288551,-0.72339 2.916194,-0.72339 z m -0.09042,1.0964 q -1.28855,0 -2.181493,1.01727 -1.130308,1.26595 -1.130308,3.6848 0,2.32844 0.960762,3.54917 0.870336,1.0851 2.362342,1.0851 0.960762,0 1.706765,-0.50864 0.757306,-0.50864 1.220732,-1.61634 0.463426,-1.11901 0.463426,-2.62232 0,-1.4694 -0.497335,-2.63361 -0.384305,-0.92685 -1.164217,-1.43549 -0.768609,-0.51994 -1.740674,-0.51994 z"
         style="font-family:'Bookman Old Style';-inkscape-font-specification:'Bookman Old Style'"
         id="path9284" />
      <path
         d="m 55.455475,506.37035 h 5.176809 v 0.94946 h -0.316486 q -0.644276,0 -0.802519,0.0452 -0.226061,0.0678 -0.339092,0.21476 -0.113031,0.14694 -0.113031,0.3504 0,0.28257 0.248668,0.91554 l 2.577101,6.43145 2.49798,-6.43145 q 0.237365,-0.62166 0.237365,-0.90424 0,-0.29388 -0.226062,-0.45212 -0.226061,-0.16955 -0.813821,-0.16955 h -0.542548 v -0.94946 h 4.464715 v 0.94946 q -0.463426,0.0113 -0.779912,0.14694 -0.305183,0.13564 -0.486032,0.35039 -0.169546,0.21476 -0.519942,1.02858 l -3.605681,8.4321 h -1.356369 l -3.628288,-8.62425 q -0.226061,-0.53124 -0.497335,-0.87033 -0.180849,-0.21476 -0.486032,-0.3391 -0.29388,-0.12433 -0.689488,-0.12433 z"
         style="font-family:'Bookman Old Style';-inkscape-font-specification:'Bookman Old Style'"
         id="path9286" />
      <path
         d="m 78.005113,514.36163 0.723397,0.58776 q -0.825125,0.98336 -1.605037,1.55982 -0.768609,0.57646 -1.458097,0.80252 -0.689488,0.23736 -1.61634,0.23736 -1.661552,0 -2.825769,-0.67818 -1.333763,-0.77991 -2.045857,-2.03456 -0.712094,-1.25464 -0.712094,-2.9614 0,-1.78589 0.689488,-3.05183 0.689488,-1.26595 1.921523,-1.98934 1.243338,-0.7347 2.870981,-0.7347 1.20943,0 2.102373,0.3843 0.892943,0.373 1.514612,1.14161 0.621669,0.75731 0.904246,1.74068 0.158243,0.57645 0.180849,1.492 h -7.991275 q -0.03391,0.55385 -0.03391,0.82513 0,1.42418 0.497335,2.54319 0.497336,1.1077 1.311157,1.63894 0.825125,0.51995 1.865008,0.51995 0.88164,0 1.706764,-0.40691 0.825125,-0.41822 2.000645,-1.61634 z m -1.446794,-4.56645 q -0.169546,-1.03988 -0.486032,-1.53722 -0.305183,-0.49733 -0.88164,-0.79121 -0.565154,-0.29388 -1.277248,-0.29388 -0.712094,0 -1.333763,0.29388 -0.621669,0.29388 -1.039883,0.81382 -0.406911,0.51994 -0.712094,1.51461 z"
         style="font-family:'Bookman Old Style';-inkscape-font-specification:'Bookman Old Style'"
         id="path9288" />
      <path
         d="m 90.743677,502.5273 h 0.802518 v 3.84305 h 3.357014 v 1.13031 h -3.357014 v 6.81575 q 0,0.87034 0.14694,1.24334 0.158243,0.373 0.519942,0.61037 0.373001,0.23736 0.825124,0.23736 1.073792,0 2.373646,-0.96076 v 1.0964 q -1.480703,1.00597 -2.995315,1.00597 -0.859034,0 -1.559825,-0.3843 -0.689487,-0.38431 -0.949458,-0.90425 -0.248668,-0.51994 -0.248668,-1.80849 v -6.95139 h -1.978038 v -0.94946 q 0.949458,-0.21476 1.525915,-0.66688 0.58776,-0.45212 0.949459,-1.17552 0.361698,-0.7234 0.58776,-2.1815 z"
         style="font-family:'Bookman Old Style';-inkscape-font-specification:'Bookman Old Style'"
         id="path9290" />
      <path
         d="m 102.27282,506.09908 q 1.66155,0 2.87098,0.68948 1.22074,0.68949 1.92153,2.01195 0.70079,1.32246 0.70079,3.01792 0,1.69546 -0.7234,3.01792 -0.71209,1.32246 -1.95543,2.02326 -1.23204,0.68948 -2.95011,0.68948 -2.73534,0 -4.114315,-1.70676 -1.367673,-1.70677 -1.367673,-4.01259 0,-1.68416 0.712094,-2.98402 0.712094,-1.31115 1.989342,-2.02325 1.288552,-0.72339 2.916192,-0.72339 z m -0.0904,1.0964 q -1.28855,0 -2.1815,1.01727 -1.130305,1.26595 -1.130305,3.6848 0,2.32844 0.960762,3.54917 0.870333,1.0851 2.362343,1.0851 0.96076,0 1.70676,-0.50864 0.75731,-0.50864 1.22074,-1.61634 0.46342,-1.11901 0.46342,-2.62232 0,-1.4694 -0.49733,-2.63361 -0.38431,-0.92685 -1.16422,-1.43549 -0.76861,-0.51994 -1.74067,-0.51994 z"
         style="font-family:'Bookman Old Style';-inkscape-font-specification:'Bookman Old Style'"
         id="path9292" />
      <path
         d="m 124.48336,501.51003 h 1.91022 v 9.16679 h 2.96141 v 1.41289 h -2.96141 v 5.18811 h -1.91022 v -5.18811 h -7.42612 v -1.98934 z m 0,9.16679 V 503.262 l -6.39754,7.41482 z"
         style="font-family:'Bookman Old Style';-inkscape-font-specification:'Bookman Old Style'"
         id="path9294" />
      <path
         d="m 146.34351,506.37035 h 0.79122 l 1.01728,3.45874 -1.01728,0.33909 q -0.61037,-1.39027 -1.71807,-2.18149 -1.0964,-0.80252 -2.2267,-0.80252 -0.87034,0 -1.41289,0.42952 -0.54255,0.41821 -0.54255,0.97206 0,0.51995 0.39561,0.89295 0.38431,0.3843 1.72937,0.87033 l 2.2041,0.77992 q 1.86501,0.66688 2.54319,1.42418 0.66689,0.76861 0.66689,1.74068 0,0.82512 -0.49734,1.59373 -0.49733,0.75731 -1.44679,1.20943 -0.93816,0.45212 -2.15889,0.45212 -1.89892,0 -3.25529,-1.08509 l -0.23736,0.81382 h -0.80252 l -1.41288,-3.69611 1.02858,-0.40691 q 1.02858,1.62765 1.94412,2.30583 1.27725,0.96076 2.75796,0.96076 0.98336,0 1.61634,-0.51994 0.63297,-0.53124 0.63297,-1.17552 0,-0.53124 -0.39561,-0.97206 -0.40691,-0.42952 -1.55982,-0.83643 l -2.61102,-0.94946 q -1.68415,-0.61037 -2.33973,-1.33376 -0.65558,-0.7234 -0.65558,-1.66156 0,-1.14161 1.06249,-2.01194 1.07379,-0.88164 2.72404,-0.88164 0.85903,0 1.53722,0.22606 0.67818,0.21476 1.33376,0.7234 z"
         style="font-family:'Bookman Old Style';-inkscape-font-specification:'Bookman Old Style'"
         id="path9296" />
      <path
         d="m 150.61608,507.98669 v -0.92685 q 0.84773,0 1.50331,-0.21476 0.65558,-0.21476 1.43549,-0.746 h 0.89294 v 1.88761 q 1.41289,-1.119 2.35104,-1.50331 0.93816,-0.3843 1.87632,-0.3843 1.93282,0 3.28919,1.51461 1.36767,1.51461 1.36767,3.94477 0,2.69013 -1.54852,4.4082 -1.41288,1.58243 -3.63959,1.58243 -1.1077,0 -2.07977,-0.41821 -0.70079,-0.29388 -1.61634,-1.05119 v 3.71872 q 0,0.83642 0.0452,0.98336 0.0565,0.21476 0.22606,0.3617 0.16954,0.14694 0.42952,0.19215 0.19215,0.0339 1.28855,0.0339 v 0.94946 h -5.82109 v -0.94946 h 0.50864 q 0.77991,0 1.00597,-0.12433 0.23737,-0.11303 0.3504,-0.3617 0.0678,-0.19215 0.0678,-1.17552 v -11.72129 z m 3.83174,1.16422 v 3.88826 q 0,0.7686 0.0904,1.14161 0.13564,0.57645 0.51994,1.03988 0.39561,0.46343 1.06249,0.79121 0.67818,0.32779 1.41288,0.32779 1.4694,0 2.5432,-1.1077 1.08509,-1.1077 1.08509,-3.35701 0,-2.10237 -0.89294,-3.24398 -0.89294,-1.15292 -2.11368,-1.15292 -0.79121,0 -1.71806,0.41822 -0.92686,0.41821 -1.98935,1.25464 z"
         style="font-family:'Bookman Old Style';-inkscape-font-specification:'Bookman Old Style'"
         id="path9298" />
      <path
         d="m 173.21093,510.73334 v -1.23204 q 0,-1.25464 -0.70079,-1.78588 -0.70079,-0.54255 -1.97804,-0.54255 -0.63297,0 -1.1077,0.15824 -0.47473,0.14694 -0.76861,0.41822 -0.28258,0.25997 -0.41821,0.59906 -0.0565,0.12433 -0.27128,0.96076 -0.25997,1.01728 -1.05118,1.01728 -0.45213,0 -0.7347,-0.29388 -0.27128,-0.30519 -0.27128,-0.81382 0,-0.74601 0.55385,-1.4581 0.55385,-0.7234 1.68416,-1.18682 1.14161,-0.47473 2.69013,-0.47473 1.4468,0 2.47538,0.45212 1.02858,0.44082 1.51461,1.27725 0.33909,0.57645 0.33909,2.10237 v 4.35168 q 0,0.92686 0.0565,1.20943 0.12433,0.48604 0.42951,0.7347 0.31649,0.23737 0.81382,0.23737 0.51995,0 1.24334,-0.24867 v 0.98337 q -0.93815,0.27127 -1.68416,0.27127 -0.80251,0 -1.35636,-0.22606 -0.54255,-0.22606 -0.89295,-0.65558 -0.35039,-0.44082 -0.45212,-1.03988 -1.35637,1.06249 -2.45277,1.492 -1.0964,0.42952 -2.2154,0.42952 -1.55983,0 -2.53189,-0.84773 -0.97206,-0.84773 -0.97206,-1.98934 0,-0.68949 0.35039,-1.31116 0.3617,-0.62167 1.0851,-1.0964 0.7347,-0.47473 2.29452,-0.83642 1.55983,-0.3617 4.32908,-0.65558 z m 0,0.98337 q -2.62231,0.3843 -3.24398,0.53124 -1.23204,0.28258 -1.76328,0.62167 -0.53125,0.33909 -0.75731,0.7347 -0.22606,0.3843 -0.22606,0.82512 0,0.44082 0.24867,0.85904 0.25997,0.40691 0.72339,0.64427 0.46343,0.23737 0.98337,0.23737 0.7347,0 1.66155,-0.3504 0.92685,-0.35039 2.37365,-1.36767 z"
         style="font-family:'Bookman Old Style';-inkscape-font-specification:'Bookman Old Style'"
         id="path9300" />
      <path
         d="m 188.50399,514.12426 0.7234,0.58776 q -2.12498,2.83707 -5.09769,2.83707 -2.31713,0 -3.91086,-1.65025 -1.59374,-1.65025 -1.59374,-4.10301 0,-1.63895 0.7347,-2.9388 0.74601,-1.31116 2.05716,-2.03456 1.32246,-0.72339 3.02923,-0.72339 1.94413,0 3.24398,0.96076 1.29985,0.94946 1.29985,1.92152 0,0.51994 -0.30518,0.80252 -0.30518,0.28258 -0.68949,0.28258 -0.20345,0 -0.3956,-0.10173 -0.19216,-0.10173 -0.39561,-0.32779 -0.0904,-0.10173 -0.32779,-0.63297 -0.30518,-0.65558 -0.47473,-0.88164 -0.3504,-0.45213 -0.87034,-0.7121 -0.50864,-0.25997 -1.14161,-0.25997 -0.96076,0 -1.78588,0.53125 -0.81383,0.53124 -1.29986,1.57113 -0.47473,1.02858 -0.47473,2.46407 0,2.2267 1.18683,3.53786 1.02858,1.13031 2.45276,1.13031 0.65558,0 1.32246,-0.21476 0.67819,-0.22606 1.27725,-0.65558 0.44082,-0.30518 1.43549,-1.39028 z"
         style="font-family:'Bookman Old Style';-inkscape-font-specification:'Bookman Old Style'"
         id="path9302" />
      <path
         d="m 200.22529,514.36163 0.72339,0.58776 q -0.82512,0.98336 -1.60503,1.55982 -0.76861,0.57646 -1.4581,0.80252 -0.68949,0.23736 -1.61634,0.23736 -1.66155,0 -2.82577,-0.67818 -1.33376,-0.77991 -2.04586,-2.03456 -0.71209,-1.25464 -0.71209,-2.9614 0,-1.78589 0.68949,-3.05183 0.68948,-1.26595 1.92152,-1.98934 1.24334,-0.7347 2.87098,-0.7347 1.20943,0 2.10237,0.3843 0.89295,0.373 1.51462,1.14161 0.62167,0.75731 0.90424,1.74068 0.15825,0.57645 0.18085,1.492 h -7.99127 q -0.0339,0.55385 -0.0339,0.82513 0,1.42418 0.49733,2.54319 0.49734,1.1077 1.31116,1.63894 0.82512,0.51995 1.86501,0.51995 0.88164,0 1.70676,-0.40691 0.82513,-0.41822 2.00065,-1.61634 z m -1.4468,-4.56645 q -0.16954,-1.03988 -0.48603,-1.53722 -0.30518,-0.49733 -0.88164,-0.79121 -0.56515,-0.29388 -1.27725,-0.29388 -0.71209,0 -1.33376,0.29388 -0.62167,0.29388 -1.03988,0.81382 -0.40691,0.51994 -0.7121,1.51461 z"
         style="font-family:'Bookman Old Style';-inkscape-font-specification:'Bookman Old Style'"
         id="path9304" />
      <path
         d="m 210.2398,506.37035 h 0.79122 l 1.01727,3.45874 -1.01727,0.33909 q -0.61037,-1.39027 -1.71807,-2.18149 -1.0964,-0.80252 -2.22671,-0.80252 -0.87033,0 -1.41288,0.42952 -0.54255,0.41821 -0.54255,0.97206 0,0.51995 0.39561,0.89295 0.3843,0.3843 1.72937,0.87033 l 2.2041,0.77992 q 1.86501,0.66688 2.54319,1.42418 0.66688,0.76861 0.66688,1.74068 0,0.82512 -0.49733,1.59373 -0.49734,0.75731 -1.4468,1.20943 -0.93815,0.45212 -2.15888,0.45212 -1.89892,0 -3.25529,-1.08509 l -0.23737,0.81382 h -0.80251 l -1.41289,-3.69611 1.02858,-0.40691 q 1.02858,1.62765 1.94413,2.30583 1.27725,0.96076 2.75795,0.96076 0.98337,0 1.61634,-0.51994 0.63297,-0.53124 0.63297,-1.17552 0,-0.53124 -0.3956,-0.97206 -0.40691,-0.42952 -1.55983,-0.83643 l -2.61101,-0.94946 q -1.68416,-0.61037 -2.33974,-1.33376 -0.65557,-0.7234 -0.65557,-1.66156 0,-1.14161 1.06248,-2.01194 1.0738,-0.88164 2.72405,-0.88164 0.85903,0 1.53721,0.22606 0.67819,0.21476 1.33377,0.7234 z"
         style="font-family:'Bookman Old Style';-inkscape-font-specification:'Bookman Old Style'"
         id="path9306" />
      <path
         d="m 216.28695,521.36953 -0.61037,-0.746 q 2.31714,-1.88761 2.31714,-3.15356 0,-0.14694 -0.0226,-0.3617 -0.19215,0.0791 -0.373,0.12434 -0.18085,0.0452 -0.33909,0.0452 -0.54255,0 -0.87034,-0.3504 -0.32779,-0.35039 -0.32779,-0.89294 0,-0.53124 0.39561,-0.92685 0.3956,-0.39561 0.94946,-0.39561 0.7686,0 1.31115,0.62167 0.55385,0.61037 0.55385,1.58243 0,0.63297 -0.25997,1.32246 -0.25997,0.70079 -0.7573,1.28855 -0.49734,0.59906 -1.96674,1.8424 z"
         style="font-family:'Bookman Old Style';-inkscape-font-specification:'Bookman Old Style'"
         id="path9308" />
      <path
         d="m 237.55935,510.73334 v -1.23204 q 0,-1.25464 -0.70079,-1.78588 -0.70079,-0.54255 -1.97804,-0.54255 -0.63297,0 -1.1077,0.15824 -0.47473,0.14694 -0.76861,0.41822 -0.28258,0.25997 -0.41822,0.59906 -0.0565,0.12433 -0.27127,0.96076 -0.25997,1.01728 -1.05119,1.01728 -0.45212,0 -0.7347,-0.29388 -0.27127,-0.30519 -0.27127,-0.81382 0,-0.74601 0.55385,-1.4581 0.55385,-0.7234 1.68416,-1.18682 1.14161,-0.47473 2.69013,-0.47473 1.4468,0 2.47538,0.45212 1.02858,0.44082 1.51461,1.27725 0.33909,0.57645 0.33909,2.10237 v 4.35168 q 0,0.92686 0.0565,1.20943 0.12433,0.48604 0.42951,0.7347 0.31649,0.23737 0.81382,0.23737 0.51995,0 1.24334,-0.24867 v 0.98337 q -0.93815,0.27127 -1.68416,0.27127 -0.80251,0 -1.35637,-0.22606 -0.54254,-0.22606 -0.89294,-0.65558 -0.35039,-0.44082 -0.45212,-1.03988 -1.35637,1.06249 -2.45277,1.492 -1.0964,0.42952 -2.2154,0.42952 -1.55983,0 -2.53189,-0.84773 -0.97207,-0.84773 -0.97207,-1.98934 0,-0.68949 0.3504,-1.31116 0.3617,-0.62167 1.0851,-1.0964 0.7347,-0.47473 2.29452,-0.83642 1.55982,-0.3617 4.32908,-0.65558 z m 0,0.98337 q -2.62232,0.3843 -3.24398,0.53124 -1.23204,0.28258 -1.76328,0.62167 -0.53125,0.33909 -0.75731,0.7347 -0.22606,0.3843 -0.22606,0.82512 0,0.44082 0.24867,0.85904 0.25997,0.40691 0.72339,0.64427 0.46343,0.23737 0.98337,0.23737 0.7347,0 1.66155,-0.3504 0.92685,-0.35039 2.37365,-1.36767 z"
         style="font-family:'Bookman Old Style';-inkscape-font-specification:'Bookman Old Style'"
         id="path9310" />
      <path
         d="m 242.87179,507.99799 v -0.94945 q 1.00598,-0.11304 1.50331,-0.27128 0.49734,-0.15824 1.43549,-0.67818 h 0.81383 v 2.14758 q 1.492,-1.25464 2.54319,-1.69546 1.06249,-0.45212 2.14758,-0.45212 0.92685,0 1.63895,0.31648 0.71209,0.30519 1.15291,0.83643 0.45212,0.53125 0.59906,1.20943 0.0904,0.41821 0.0904,1.26594 v 4.97336 q 0,0.89294 0.12433,1.15291 0.13564,0.24867 0.41822,0.3617 0.28257,0.11303 1.39028,0.11303 v 0.94946 h -5.82109 v -0.94946 h 0.31649 q 0.81382,0 1.1077,-0.14694 0.29388,-0.14694 0.41821,-0.42952 0.13564,-0.28257 0.13564,-1.15291 v -4.15953 q 0,-1.28855 -0.21476,-1.78589 -0.20345,-0.49733 -0.71209,-0.80252 -0.49734,-0.31648 -1.26595,-0.31648 -0.91555,0 -1.95543,0.47473 -1.03988,0.46342 -2.01195,1.37897 v 5.21072 q 0,0.88164 0.12434,1.17552 0.13563,0.29388 0.42951,0.44082 0.20346,0.11303 1.0851,0.11303 h 0.32779 v 0.94946 h -5.82109 v -0.94946 h 0.28258 q 0.83643,0 1.14161,-0.13564 0.30518,-0.14694 0.42952,-0.50863 0.0678,-0.18085 0.0678,-1.24334 v -6.44276 z"
         style="font-family:'Bookman Old Style';-inkscape-font-specification:'Bookman Old Style'"
         id="path9312" />
      <path
         d="m 265.18406,502.60643 v -0.96077 q 0.76861,-0.0678 1.40158,-0.25997 0.64428,-0.20345 1.60504,-0.68948 h 0.84773 v 13.71063 q 0,0.94946 0.0452,1.15291 0.11303,0.42952 0.38431,0.59906 0.27127,0.16955 1.05118,0.16955 h 0.48604 v 0.94946 l -3.92217,0.18085 v -1.79719 q -1.13031,1.02858 -2.12498,1.4581 -0.98337,0.42951 -1.97804,0.42951 -2.04586,0 -3.40222,-1.63894 -1.34507,-1.65025 -1.34507,-3.96738 0,-1.65025 0.71209,-3.01792 0.7234,-1.37898 1.89892,-2.10238 1.17552,-0.72339 2.5771,-0.72339 1.07379,0 1.98934,0.373 0.91555,0.373 1.67286,1.119 v -4.98465 z m 1.89892,11.93604 v -4.27256 q 0,-0.91555 -0.3504,-1.492 -0.33909,-0.58776 -1.13031,-1.01728 -0.77991,-0.42952 -1.60503,-0.42952 -0.98337,0 -1.8198,0.54255 -0.82512,0.53124 -1.29985,1.54852 -0.46343,1.00597 -0.46343,2.44147 0,1.35636 0.42952,2.35104 0.44082,0.98336 1.17552,1.5033 0.7347,0.50864 1.50331,0.50864 0.7573,0 1.71807,-0.42951 0.96076,-0.44082 1.8424,-1.25465 z"
         style="font-family:'Bookman Old Style';-inkscape-font-specification:'Bookman Old Style'"
         id="path9314" />
      <path
         d="m 286.94248,502.60643 v -0.96077 q 0.76861,-0.0678 1.40159,-0.25997 0.64427,-0.20345 1.60503,-0.68948 h 0.84773 v 13.71063 q 0,0.94946 0.0452,1.15291 0.11303,0.42952 0.3843,0.59906 0.27127,0.16955 1.05119,0.16955 h 0.48603 v 0.94946 l -3.92217,0.18085 v -1.79719 q -1.13031,1.02858 -2.12498,1.4581 -0.98337,0.42951 -1.97804,0.42951 -2.04585,0 -3.40222,-1.63894 -1.34507,-1.65025 -1.34507,-3.96738 0,-1.65025 0.7121,-3.01792 0.72339,-1.37898 1.89891,-2.10238 1.17552,-0.72339 2.5771,-0.72339 1.0738,0 1.98935,0.373 0.91554,0.373 1.67285,1.119 v -4.98465 z m 1.89892,11.93604 v -4.27256 q 0,-0.91555 -0.35039,-1.492 -0.3391,-0.58776 -1.13031,-1.01728 -0.77991,-0.42952 -1.60504,-0.42952 -0.98337,0 -1.81979,0.54255 -0.82513,0.53124 -1.29986,1.54852 -0.46342,1.00597 -0.46342,2.44147 0,1.35636 0.42951,2.35104 0.44082,0.98336 1.17552,1.5033 0.7347,0.50864 1.50331,0.50864 0.75731,0 1.71807,-0.42951 0.96076,-0.44082 1.8424,-1.25465 z"
         style="font-family:'Bookman Old Style';-inkscape-font-specification:'Bookman Old Style'"
         id="path9316" />
      <path
         d="m 297.04745,501.00139 q 0.54254,0 0.92685,0.3843 0.3843,0.37301 0.3843,0.91555 0,0.54255 -0.3843,0.92686 -0.38431,0.3843 -0.92685,0.3843 -0.54255,0 -0.92686,-0.3843 -0.3843,-0.38431 -0.3843,-0.92686 0,-0.54254 0.3843,-0.91555 0.38431,-0.3843 0.92686,-0.3843 z m -2.88229,6.9966 v -0.93815 q 0.93816,-0.11303 1.57113,-0.31649 0.64427,-0.20345 1.4581,-0.64427 h 0.82512 v 9.06506 q 0,0.47473 0.13564,0.7121 0.13563,0.23736 0.373,0.35039 0.24867,0.10173 0.89294,0.10173 h 0.53125 v 0.94946 h -5.78718 v -0.94946 h 0.46343 q 0.7573,0 1.01728,-0.13564 0.25997,-0.13563 0.36169,-0.3843 0.11303,-0.24867 0.11303,-1.16422 v -6.64621 z"
         style="font-family:'Bookman Old Style';-inkscape-font-specification:'Bookman Old Style'"
         id="path9318" />
      <path
         d="m 308.84783,506.37035 h 0.79122 l 1.01728,3.45874 -1.01728,0.33909 q -0.61037,-1.39027 -1.71807,-2.18149 -1.0964,-0.80252 -2.22671,-0.80252 -0.87033,0 -1.41288,0.42952 -0.54255,0.41821 -0.54255,0.97206 0,0.51995 0.39561,0.89295 0.3843,0.3843 1.72937,0.87033 l 2.2041,0.77992 q 1.86501,0.66688 2.54319,1.42418 0.66688,0.76861 0.66688,1.74068 0,0.82512 -0.49733,1.59373 -0.49734,0.75731 -1.44679,1.20943 -0.93816,0.45212 -2.15889,0.45212 -1.89892,0 -3.25529,-1.08509 l -0.23736,0.81382 h -0.80252 l -1.41289,-3.69611 1.02858,-0.40691 q 1.02858,1.62765 1.94413,2.30583 1.27725,0.96076 2.75795,0.96076 0.98337,0 1.61634,-0.51994 0.63298,-0.53124 0.63298,-1.17552 0,-0.53124 -0.39561,-0.97206 -0.40691,-0.42952 -1.55983,-0.83643 l -2.61101,-0.94946 q -1.68416,-0.61037 -2.33973,-1.33376 -0.65558,-0.7234 -0.65558,-1.66156 0,-1.14161 1.06249,-2.01194 1.07379,-0.88164 2.72404,-0.88164 0.85903,0 1.53722,0.22606 0.67818,0.21476 1.33376,0.7234 z"
         style="font-family:'Bookman Old Style';-inkscape-font-specification:'Bookman Old Style'"
         id="path9320" />
      <path
         d="m 323.22535,514.12426 0.7234,0.58776 q -2.12498,2.83707 -5.09769,2.83707 -2.31713,0 -3.91086,-1.65025 -1.59374,-1.65025 -1.59374,-4.10301 0,-1.63895 0.7347,-2.9388 0.746,-1.31116 2.05716,-2.03456 1.32246,-0.72339 3.02923,-0.72339 1.94413,0 3.24398,0.96076 1.29985,0.94946 1.29985,1.92152 0,0.51994 -0.30518,0.80252 -0.30518,0.28258 -0.68949,0.28258 -0.20345,0 -0.39561,-0.10173 -0.19215,-0.10173 -0.3956,-0.32779 -0.0904,-0.10173 -0.32779,-0.63297 -0.30519,-0.65558 -0.47473,-0.88164 -0.3504,-0.45213 -0.87034,-0.7121 -0.50864,-0.25997 -1.14161,-0.25997 -0.96076,0 -1.78589,0.53125 -0.81382,0.53124 -1.29985,1.57113 -0.47473,1.02858 -0.47473,2.46407 0,2.2267 1.18682,3.53786 1.02858,1.13031 2.45277,1.13031 0.65558,0 1.32246,-0.21476 0.67819,-0.22606 1.27725,-0.65558 0.44082,-0.30518 1.43549,-1.39028 z"
         style="font-family:'Bookman Old Style';-inkscape-font-specification:'Bookman Old Style'"
         id="path9322" />
      <path
         d="m 333.39812,510.73334 v -1.23204 q 0,-1.25464 -0.70079,-1.78588 -0.70079,-0.54255 -1.97804,-0.54255 -0.63297,0 -1.1077,0.15824 -0.47473,0.14694 -0.76861,0.41822 -0.28257,0.25997 -0.41821,0.59906 -0.0565,0.12433 -0.27127,0.96076 -0.25997,1.01728 -1.05119,1.01728 -0.45212,0 -0.7347,-0.29388 -0.27127,-0.30519 -0.27127,-0.81382 0,-0.74601 0.55385,-1.4581 0.55385,-0.7234 1.68416,-1.18682 1.14161,-0.47473 2.69013,-0.47473 1.44679,0 2.47537,0.45212 1.02858,0.44082 1.51461,1.27725 0.3391,0.57645 0.3391,2.10237 v 4.35168 q 0,0.92686 0.0565,1.20943 0.12434,0.48604 0.42952,0.7347 0.31648,0.23737 0.81382,0.23737 0.51994,0 1.24334,-0.24867 v 0.98337 q -0.93816,0.27127 -1.68416,0.27127 -0.80252,0 -1.35637,-0.22606 -0.54255,-0.22606 -0.89294,-0.65558 -0.3504,-0.44082 -0.45213,-1.03988 -1.35636,1.06249 -2.45276,1.492 -1.0964,0.42952 -2.21541,0.42952 -1.55982,0 -2.53189,-0.84773 -0.97206,-0.84773 -0.97206,-1.98934 0,-0.68949 0.3504,-1.31116 0.36169,-0.62167 1.08509,-1.0964 0.7347,-0.47473 2.29453,-0.83642 1.55982,-0.3617 4.32907,-0.65558 z m 0,0.98337 q -2.62231,0.3843 -3.24398,0.53124 -1.23203,0.28258 -1.76328,0.62167 -0.53124,0.33909 -0.75731,0.7347 -0.22606,0.3843 -0.22606,0.82512 0,0.44082 0.24867,0.85904 0.25997,0.40691 0.7234,0.64427 0.46342,0.23737 0.98337,0.23737 0.7347,0 1.66155,-0.3504 0.92685,-0.35039 2.37364,-1.36767 z"
         style="font-family:'Bookman Old Style';-inkscape-font-specification:'Bookman Old Style'"
         id="path9324" />
      <path
         d="m 338.67668,507.98669 v -0.92685 q 0.82512,-0.0678 1.4694,-0.27128 0.64427,-0.21475 1.4694,-0.68948 h 0.84773 v 2.13628 q 0.80251,-0.98337 1.865,-1.55983 1.06249,-0.57645 1.91022,-0.57645 0.83643,0 1.32246,0.3956 0.48604,0.39561 0.48604,0.96077 0,0.40691 -0.32779,0.72339 -0.31649,0.30519 -0.76861,0.30519 -0.20346,0 -0.3504,-0.0565 -0.14694,-0.0565 -0.42951,-0.24867 -0.62167,-0.40691 -1.03989,-0.40691 -0.56515,0 -1.24334,0.47473 -0.85903,0.61037 -1.34506,1.19813 v 5.21072 q 0,0.67818 0.0678,0.92685 0.0791,0.23736 0.24866,0.41821 0.16955,0.16955 0.41822,0.24867 0.24867,0.0791 0.87033,0.0791 h 0.37301 v 0.94946 h -5.84369 v -0.94946 h 0.48603 q 0.68949,0 0.90424,-0.12433 0.29388,-0.16955 0.42952,-0.46343 0.14694,-0.30518 0.14694,-1.08509 v -6.66882 z"
         style="font-family:'Bookman Old Style';-inkscape-font-specification:'Bookman Old Style'"
         id="path9326" />
      <path
         d="m 355.92515,502.60643 v -0.96077 q 0.76861,-0.0678 1.40158,-0.25997 0.64428,-0.20345 1.60504,-0.68948 h 0.84773 v 13.71063 q 0,0.94946 0.0452,1.15291 0.11303,0.42952 0.38431,0.59906 0.27127,0.16955 1.05118,0.16955 h 0.48603 v 0.94946 l -3.92216,0.18085 v -1.79719 q -1.13031,1.02858 -2.12498,1.4581 -0.98337,0.42951 -1.97804,0.42951 -2.04586,0 -3.40223,-1.63894 -1.34506,-1.65025 -1.34506,-3.96738 0,-1.65025 0.71209,-3.01792 0.7234,-1.37898 1.89892,-2.10238 1.17552,-0.72339 2.5771,-0.72339 1.07379,0 1.98934,0.373 0.91555,0.373 1.67286,1.119 v -4.98465 z m 1.89892,11.93604 v -4.27256 q 0,-0.91555 -0.3504,-1.492 -0.33909,-0.58776 -1.13031,-1.01728 -0.77991,-0.42952 -1.60503,-0.42952 -0.98337,0 -1.8198,0.54255 -0.82512,0.53124 -1.29985,1.54852 -0.46343,1.00597 -0.46343,2.44147 0,1.35636 0.42952,2.35104 0.44082,0.98336 1.17552,1.5033 0.7347,0.50864 1.50331,0.50864 0.7573,0 1.71807,-0.42951 0.96076,-0.44082 1.8424,-1.25465 z"
         style="font-family:'Bookman Old Style';-inkscape-font-specification:'Bookman Old Style'"
         id="path9328" />
      <path
         d="m 24.541559,530.45132 h 0.802518 v 3.84304 h 3.357014 v 1.13031 h -3.357014 v 6.81575 q 0,0.87034 0.14694,1.24334 0.158243,0.373 0.519942,0.61037 0.373001,0.23736 0.825124,0.23736 1.073792,0 2.373646,-0.96076 v 1.0964 q -1.480703,1.00597 -2.995315,1.00597 -0.859034,0 -1.559825,-0.3843 -0.689487,-0.3843 -0.949458,-0.90425 -0.248668,-0.51994 -0.248668,-1.80849 v -6.95139 h -1.978038 v -0.94946 q 0.949458,-0.21476 1.525915,-0.66688 0.58776,-0.45212 0.949459,-1.17552 0.361698,-0.7234 0.58776,-2.18149 z"
         style="font-family:'Bookman Old Style';-inkscape-font-specification:'Bookman Old Style'"
         id="path9330" />
      <path
         d="m 30.362643,530.54174 v -0.97206 q 1.096399,-0.14694 1.706765,-0.3391 0.610366,-0.20345 1.277247,-0.61036 h 0.88164 v 7.47133 q 1.277248,-1.07379 2.418859,-1.57113 1.14161,-0.49733 2.181494,-0.49733 1.514612,0 2.497979,0.90424 0.972065,0.90425 0.972065,2.2041 v 5.54981 q 0,0.82513 0.124334,1.0851 0.135637,0.24867 0.44082,0.373 0.305183,0.11303 1.367672,0.11303 v 0.94946 h -5.832387 v -0.94946 h 0.429517 q 0.825124,0 1.085095,-0.12433 0.259971,-0.13564 0.373001,-0.42952 0.124334,-0.30518 0.124334,-1.24334 v -3.85435 q 0,-1.27724 -0.09042,-1.66155 -0.169547,-0.65558 -0.700791,-1.05118 -0.531245,-0.39561 -1.356369,-0.39561 -0.926853,0 -1.944129,0.46342 -1.005974,0.45213 -2.09107,1.36768 v 5.66284 q 0,0.63297 0.113031,0.84773 0.113031,0.21476 0.373002,0.31648 0.25997,0.10173 1.039883,0.10173 h 0.463426 v 0.94946 h -5.854994 v -0.94946 h 0.350396 q 0.825124,0 1.198126,-0.20345 0.203455,-0.10173 0.29388,-0.39561 0.09042,-0.29388 0.09042,-1.62764 v -11.48393 z"
         style="font-family:'Bookman Old Style';-inkscape-font-specification:'Bookman Old Style'"
         id="path9332" />
      <path
         d="m 48.436263,528.9254 q 0.542548,0 0.926853,0.38431 0.384304,0.373 0.384304,0.91554 0,0.54255 -0.384304,0.92686 -0.384305,0.3843 -0.926853,0.3843 -0.542547,0 -0.926852,-0.3843 -0.384305,-0.38431 -0.384305,-0.92686 0,-0.54254 0.384305,-0.91554 0.384305,-0.38431 0.926852,-0.38431 z m -2.882284,6.9966 v -0.93815 q 0.938155,-0.11303 1.571127,-0.31649 0.644276,-0.20345 1.458097,-0.64427 h 0.825125 v 9.06507 q 0,0.47472 0.135637,0.71209 0.135637,0.23736 0.373001,0.35039 0.248668,0.10173 0.892943,0.10173 h 0.531245 v 0.94946 h -5.787175 v -0.94946 h 0.463426 q 0.757306,0 1.017277,-0.13563 0.259971,-0.13564 0.361698,-0.38431 0.113031,-0.24867 0.113031,-1.16422 V 535.922 Z"
         style="font-family:'Bookman Old Style';-inkscape-font-specification:'Bookman Old Style'"
         id="path9334" />
      <path
         d="m 60.236675,534.29436 h 0.791215 l 1.017277,3.45874 -1.017277,0.3391 q -0.610366,-1.39028 -1.718068,-2.1815 -1.096398,-0.80252 -2.226706,-0.80252 -0.870337,0 -1.412884,0.42952 -0.542548,0.41821 -0.542548,0.97206 0,0.51995 0.395608,0.89295 0.384304,0.3843 1.72937,0.87033 l 2.2041,0.77992 q 1.865008,0.66688 2.543192,1.42418 0.666882,0.76861 0.666882,1.74068 0,0.82512 -0.497335,1.59373 -0.497336,0.75731 -1.446794,1.20943 -0.938156,0.45212 -2.158888,0.45212 -1.898917,0 -3.255286,-1.08509 l -0.237364,0.81382 H 54.26865 l -1.412884,-3.69611 1.02858,-0.40691 q 1.028579,1.62765 1.944129,2.30583 1.277247,0.96076 2.75795,0.96076 0.983368,0 1.61634,-0.51994 0.632973,-0.53124 0.632973,-1.17552 0,-0.53124 -0.395608,-0.97206 -0.406911,-0.42952 -1.559825,-0.83643 l -2.61101,-0.94946 q -1.684159,-0.61037 -2.339737,-1.33376 -0.655579,-0.7234 -0.655579,-1.66155 0,-1.14162 1.06249,-2.01195 1.073792,-0.88164 2.724041,-0.88164 0.859034,0 1.537218,0.22606 0.678185,0.21476 1.333763,0.7234 z"
         style="font-family:'Bookman Old Style';-inkscape-font-specification:'Bookman Old Style'"
         id="path9336" />
      <path
         d="m 82.017701,542.04827 0.723397,0.58776 q -2.124978,2.83707 -5.097687,2.83707 -2.317131,0 -3.910865,-1.65024 -1.593734,-1.65025 -1.593734,-4.10302 0,-1.63895 0.7347,-2.9388 0.746003,-1.31116 2.05716,-2.03456 1.32246,-0.72339 3.029225,-0.72339 1.944129,0 3.243983,0.96076 1.299854,0.94946 1.299854,1.92152 0,0.51994 -0.305184,0.80252 -0.305183,0.28258 -0.689487,0.28258 -0.203456,0 -0.395608,-0.10173 -0.192152,-0.10173 -0.395608,-0.32779 -0.09042,-0.10173 -0.327789,-0.63297 -0.305183,-0.65558 -0.474729,-0.88164 -0.350395,-0.45212 -0.870337,-0.7121 -0.508638,-0.25997 -1.141611,-0.25997 -0.960761,0 -1.785886,0.53125 -0.813821,0.53124 -1.299853,1.57113 -0.47473,1.02858 -0.47473,2.46407 0,2.2267 1.186823,3.53786 1.02858,1.13031 2.452768,1.13031 0.655578,0 1.32246,-0.21476 0.678184,-0.22606 1.277248,-0.65558 0.44082,-0.30518 1.43549,-1.39028 z"
         style="font-family:'Bookman Old Style';-inkscape-font-specification:'Bookman Old Style'"
         id="path9338" />
      <path
         d="m 92.190474,538.65735 v -1.23204 q 0,-1.25464 -0.70079,-1.78588 -0.700791,-0.54255 -1.978039,-0.54255 -0.632972,0 -1.107701,0.15824 -0.474729,0.14694 -0.768609,0.41822 -0.282577,0.25997 -0.418214,0.59906 -0.05652,0.12433 -0.271274,0.96076 -0.259971,1.01728 -1.051186,1.01728 -0.452123,0 -0.7347,-0.29388 -0.271274,-0.30518 -0.271274,-0.81382 0,-0.74601 0.553851,-1.4581 0.55385,-0.7234 1.684158,-1.18682 1.141611,-0.47473 2.690132,-0.47473 1.446794,0 2.475374,0.45212 1.02858,0.44082 1.514612,1.27725 0.339093,0.57646 0.339093,2.10237 v 4.35169 q 0,0.92685 0.05652,1.20942 0.124334,0.48604 0.429517,0.7347 0.316486,0.23737 0.813821,0.23737 0.519942,0 1.243339,-0.24867 v 0.98337 q -0.938156,0.27127 -1.684159,0.27127 -0.802518,0 -1.356369,-0.22606 -0.542547,-0.22606 -0.892943,-0.65558 -0.350395,-0.44082 -0.452123,-1.03988 -1.356369,1.06249 -2.452767,1.49201 -1.096399,0.42951 -2.215403,0.42951 -1.559825,0 -2.53189,-0.84773 -0.972064,-0.84773 -0.972064,-1.98934 0,-0.68949 0.350395,-1.31116 0.361699,-0.62167 1.085096,-1.09639 0.7347,-0.47473 2.294524,-0.83643 1.559825,-0.3617 4.329078,-0.65558 z m 0,0.98337 q -2.622313,0.3843 -3.243983,0.53124 -1.232035,0.28258 -1.76328,0.62167 -0.531244,0.33909 -0.757306,0.7347 -0.226061,0.38431 -0.226061,0.82513 0,0.44082 0.248668,0.85903 0.25997,0.40691 0.723396,0.64427 0.463427,0.23737 0.983368,0.23737 0.7347,0 1.661552,-0.3504 0.926853,-0.35039 2.373646,-1.36767 z"
         style="font-family:'Bookman Old Style';-inkscape-font-specification:'Bookman Old Style'"
         id="path9340" />
      <path
         d="m 97.469011,535.9107 v -0.92685 q 0.825125,-0.0678 1.4694,-0.27127 0.644275,-0.21476 1.469399,-0.68949 h 0.84773 v 2.13628 q 0.80252,-0.98337 1.86501,-1.55983 1.06249,-0.57645 1.91022,-0.57645 0.83643,0 1.32246,0.39561 0.48603,0.3956 0.48603,0.96076 0,0.40691 -0.32779,0.72339 -0.31648,0.30519 -0.76861,0.30519 -0.20345,0 -0.35039,-0.0565 -0.14694,-0.0565 -0.42952,-0.24867 -0.62167,-0.40691 -1.03988,-0.40691 -0.56516,0 -1.24334,0.47473 -0.85903,0.61037 -1.34507,1.19813 v 5.21072 q 0,0.67818 0.0678,0.92685 0.0791,0.23736 0.24867,0.41821 0.16955,0.16955 0.41821,0.24867 0.24867,0.0791 0.87034,0.0791 h 0.373 v 0.94946 h -5.843689 v -0.94946 h 0.486032 q 0.689488,0 0.904246,-0.12433 0.29388,-0.16955 0.429517,-0.46343 0.14694,-0.30518 0.14694,-1.08509 v -6.66882 z"
         style="font-family:'Bookman Old Style';-inkscape-font-specification:'Bookman Old Style'"
         id="path9342" />
      <path
         d="m 114.7175,530.53044 v -0.96076 q 0.76861,-0.0678 1.40158,-0.25997 0.64428,-0.20346 1.60504,-0.68949 h 0.84773 v 13.71063 q 0,0.94946 0.0452,1.15291 0.11303,0.42952 0.38431,0.59907 0.27127,0.16954 1.05118,0.16954 h 0.48604 v 0.94946 l -3.92217,0.18085 v -1.79719 q -1.13031,1.02858 -2.12498,1.4581 -0.98337,0.42951 -1.97804,0.42951 -2.04586,0 -3.40223,-1.63894 -1.34506,-1.65025 -1.34506,-3.96738 0,-1.65025 0.71209,-3.01792 0.7234,-1.37898 1.89892,-2.10238 1.17552,-0.72339 2.5771,-0.72339 1.07379,0 1.98934,0.373 0.91555,0.373 1.67286,1.119 v -4.98465 z m 1.89892,11.93605 v -4.27257 q 0,-0.91555 -0.3504,-1.492 -0.33909,-0.58776 -1.13031,-1.01728 -0.77991,-0.42952 -1.60503,-0.42952 -0.98337,0 -1.8198,0.54255 -0.82512,0.53125 -1.29985,1.54852 -0.46343,1.00598 -0.46343,2.44147 0,1.35637 0.42952,2.35104 0.44082,0.98336 1.17552,1.50331 0.7347,0.50863 1.50331,0.50863 0.7573,0 1.71807,-0.42951 0.96076,-0.44082 1.8424,-1.25464 z"
         style="font-family:'Bookman Old Style';-inkscape-font-specification:'Bookman Old Style'"
         id="path9344" />
      <path
         d="m 124.89027,542.56821 q 0.59907,0 1.00598,0.41822 0.41821,0.40691 0.41821,0.99467 0,0.58776 -0.41821,1.00597 -0.41822,0.40691 -1.00598,0.40691 -0.57645,0 -0.99467,-0.40691 -0.41821,-0.41821 -0.41821,-1.00597 0,-0.58776 0.40691,-0.99467 0.41821,-0.41822 1.00597,-0.41822 z"
         style="font-family:'Bookman Old Style';-inkscape-font-specification:'Bookman Old Style'"
         id="path9346" />
    </g>
    <path
       style="color:#000000;fill:#331f14;-inkscape-stroke:none"
       d="m 4.2011719,31.212891 v 0.5 80.996089 H 101.63086 V 31.212891 Z m 1,1 H 100.63086 V 111.70898 H 5.2011719 Z"
       id="rect33301" />
    <g
       id="g1809"
       transform="matrix(1.2130363,0.1930515,-0.1930515,1.2130363,6.3788963,-18.024644)">
      <g
         id="g1673">
        <path
           id="path1669"
           style="fill:#520808;fill-opacity:1;fill-rule:evenodd;stroke-width:0.586761"
           d="m 81.491522,52.165984 c 5.835948,11.671869 -3.152789,9.325236 -4.429469,17.084941 -0.699183,7.182035 2.615953,9.676588 -3.056129,8.540676 -1.881263,-0.376748 -0.917951,-9.703845 -2.23504,-11.716052 -5.848227,-5.37103 -17.879965,5.993774 -20.938776,11.979375 -25.323136,1.598272 -23.308063,-5.186311 -18.199377,-5.05654 5.732298,0.145612 16.528324,-6.334458 24.563702,-12.397447 4.163559,-3.141559 8.75414,-5.762606 9.04499,-8.155716 -0.161655,-1.297548 0.934902,-2.64864 6.028081,-2.64864 5.09318,0 9.222018,1.060818 9.222018,2.369403 z"
           sodipodi:nodetypes="ccsccsscsc" />
        <path
           id="path417"
           style="fill:#8a0c0c;fill-opacity:1;fill-rule:evenodd;stroke-width:0.601001"
           d="m 80.697547,52.165984 c 6.122648,11.671869 -3.307674,9.325236 -4.647073,17.084941 -0.733531,7.182035 2.744465,9.676588 -3.206267,8.540676 -1.973682,-0.376748 -0.963046,-9.703845 -2.344839,-11.716052 -6.13553,-5.37103 -18.758345,5.993774 -21.967425,11.979375 -26.567173,1.598272 -24.453107,-5.186311 -19.09345,-5.05654 6.013906,0.145612 17.340304,-6.334458 25.770432,-12.397447 4.3681,-3.141559 9.1842,-5.762606 9.489339,-8.155716 -0.169597,-1.297548 0.980831,-2.64864 6.32422,-2.64864 5.34339,0 9.675063,1.060818 9.675063,2.369403 z"
           sodipodi:nodetypes="ccsccsscsc" />
        <path
           id="ellipse1795"
           style="fill:#520808;fill-rule:evenodd;stroke-width:0.613976"
           transform="matrix(0.99948992,0.03193573,-0.02983408,0.99955486,0,0)"
           d="m 82.246092,48.952404 a 7.2689805,1.3818839 0 0 1 -7.26898,1.381884 7.2689805,1.3818839 0 0 1 -7.268981,-1.381884 7.2689805,1.3818839 0 0 1 7.268981,-1.381884 7.2689805,1.3818839 0 0 1 7.26898,1.381884 z" />
      </g>
      <g
         id="g1679"
         transform="translate(-10.610999,1.8150393)">
        <path
           id="path1675"
           style="fill:#520808;fill-opacity:1;fill-rule:evenodd;stroke-width:0.586761"
           d="m 81.491522,52.165984 c 5.835948,11.671869 -3.152789,9.325236 -4.429469,17.084941 -0.699183,7.182035 2.615953,9.676588 -3.056129,8.540676 -1.881263,-0.376748 -0.917951,-9.703845 -2.23504,-11.716052 -5.848227,-5.37103 -17.879965,5.993774 -20.938776,11.979375 -25.323136,1.598272 -23.308063,-5.186311 -18.199377,-5.05654 5.732298,0.145612 16.528324,-6.334458 24.563702,-12.397447 4.163559,-3.141559 8.75414,-5.762606 9.04499,-8.155716 -0.161655,-1.297548 0.934902,-2.64864 6.028081,-2.64864 5.09318,0 9.222018,1.060818 9.222018,2.369403 z"
           sodipodi:nodetypes="ccsccsscsc" />
        <path
           id="path1677"
           style="fill:#8a0c0c;fill-opacity:1;fill-rule:evenodd;stroke-width:0.601001"
           d="m 80.697547,52.165984 c 6.122648,11.671869 -3.307674,9.325236 -4.647073,17.084941 -0.733531,7.182035 2.744465,9.676588 -3.206267,8.540676 -1.973682,-0.376748 -0.963046,-9.703845 -2.344839,-11.716052 -6.13553,-5.37103 -18.758345,5.993774 -21.967425,11.979375 -26.567173,1.598272 -24.453107,-5.186311 -19.09345,-5.05654 6.013906,0.145612 17.340304,-6.334458 25.770432,-12.397447 4.3681,-3.141559 9.1842,-5.762606 9.489339,-8.155716 -0.169597,-1.297548 0.980831,-2.64864 6.32422,-2.64864 5.34339,0 9.675063,1.060818 9.675063,2.369403 z"
           sodipodi:nodetypes="ccsccsscsc" />
        <path
           id="path1733"
           style="fill:#520808;fill-rule:evenodd;stroke-width:0.591327"
           transform="rotate(1.3268152,83.680721,457.28611)"
           d="m 71.198427,51.627647 a 7.3918929,1.2604994 0 0 1 -7.391893,1.2605 7.3918929,1.2604994 0 0 1 -7.391893,-1.2605 7.3918929,1.2604994 0 0 1 7.391893,-1.260499 7.3918929,1.2604994 0 0 1 7.391893,1.260499 z" />
      </g>
    </g>
  </g>
</svg>
