<?xml version="1.0" encoding="UTF-8" standalone="no"?>
<!-- Created with Inkscape (http://www.inkscape.org/) -->

<svg
   width="400"
   height="600"
   viewBox="0 0 105.83333 158.75"
   version="1.1"
   id="svg5"
   inkscape:export-filename="CardTemplate.svg"
   inkscape:export-xdpi="26.281288"
   inkscape:export-ydpi="26.281288"
   inkscape:version="1.2.2 (732a01da63, 2022-12-09)"
   sodipodi:docname="KnightCard.svg"
   xml:space="preserve"
   xmlns:inkscape="http://www.inkscape.org/namespaces/inkscape"
   xmlns:sodipodi="http://sodipodi.sourceforge.net/DTD/sodipodi-0.dtd"
   xmlns="http://www.w3.org/2000/svg"
   xmlns:svg="http://www.w3.org/2000/svg"><sodipodi:namedview
     id="namedview7"
     pagecolor="#505050"
     bordercolor="#ffffff"
     borderopacity="1"
     inkscape:showpageshadow="0"
     inkscape:pageopacity="0"
     inkscape:pagecheckerboard="1"
     inkscape:deskcolor="#505050"
     inkscape:document-units="mm"
     showgrid="false"
     showguides="true"
     inkscape:zoom="1.0129245"
     inkscape:cx="-31.591693"
     inkscape:cy="326.28296"
     inkscape:window-width="1920"
     inkscape:window-height="991"
     inkscape:window-x="-9"
     inkscape:window-y="-9"
     inkscape:window-maximized="1"
     inkscape:current-layer="layer1" /><defs
     id="defs2"><linearGradient
       id="linearGradient3910"
       inkscape:swatch="solid"><stop
         style="stop-color:#000000;stop-opacity:1;"
         offset="0"
         id="stop3908" /></linearGradient><linearGradient
       id="linearGradient3902"
       inkscape:swatch="solid"><stop
         style="stop-color:#000000;stop-opacity:1;"
         offset="0"
         id="stop3900" /></linearGradient><linearGradient
       id="linearGradient1908"
       inkscape:swatch="gradient"><stop
         style="stop-color:#412a2a;stop-opacity:1;"
         offset="0.83033931"
         id="stop1904" /><stop
         style="stop-color:#412a2a;stop-opacity:0;"
         offset="0.84431136"
         id="stop1906" /></linearGradient><rect
       x="20.732048"
       y="466.96471"
       width="356.39378"
       height="115.50713"
       id="rect857" /><rect
       x="13.821366"
       y="17.770327"
       width="368.24067"
       height="96.749559"
       id="rect721" /><rect
       x="18.757568"
       y="19.744808"
       width="363.22514"
       height="30.382957"
       id="rect495" /></defs><g
     inkscape:label="Layer 1"
     inkscape:groupmode="layer"
     id="layer1"><g
       id="rect386"><path
         style="color:#000000;fill:#c87137;stroke-width:2.64597;stroke-linejoin:round;-inkscape-stroke:none;paint-order:markers fill stroke"
         d="M 1.6582794,1.6582794 H 104.84566 V 157.76231 H 1.6582794 Z"
         id="path11679" /><path
         style="color:#000000;fill:#331f14;stroke-linejoin:round;-inkscape-stroke:none;paint-order:markers fill stroke"
         d="M 1.6582031,0.3359375 A 1.3231174,1.3231174 0 0 0 0.3359375,1.6582031 V 157.76172 a 1.3231174,1.3231174 0 0 0 1.3222656,1.32422 H 104.8457 a 1.3231174,1.3231174 0 0 0 1.32227,-1.32422 V 1.6582031 A 1.3231174,1.3231174 0 0 0 104.8457,0.3359375 Z M 2.9804688,2.9804688 H 103.52344 V 156.43945 H 2.9804688 Z"
         id="path11681" /></g><g
       aria-label="Knight"
       transform="matrix(0.26458333,0,0,0.26458333,0,9.5250005)"
       id="text719"
       style="font-size:53.3333px;line-height:0;font-family:Broadway;-inkscape-font-specification:Broadway;text-align:center;letter-spacing:0px;word-spacing:0px;baseline-shift:baseline;white-space:pre;shape-inside:url(#rect721);display:inline;opacity:1;vector-effect:none;stroke-width:0.999999;stop-color:#000000;stop-opacity:1"><path
         d="m 126.80961,14.612892 3.88021,7.864579 q 3.35937,6.770829 5.85937,11.51041 2.5,4.73958 3.72396,6.614579 0.7552,1.197916 0.7552,1.588541 0,0.989583 -1.35416,0.989583 -0.59896,0 -0.88542,-0.390625 -0.26041,-0.364583 -1.35416,-2.630207 l -1.61459,-3.359373 -2.55208,-5.286455 -2.36979,-4.89583 -1.74479,-3.567707 -3.77604,-7.682287 -4.76562,2.864582 -0.026,3.854164 v 2.578124 l 0.13021,16.71874 0.026,1.302082 h -15.93749 l 0.15625,-22.23957 -0.0521,-6.328121 -0.10416,-5.5468716 V 7.1389385 h 15.93749 l -0.10417,4.1666645 -0.026,5.05208 4.45312,-2.656248 q 3.77604,-2.239582 6.71875,-4.2187479 2.96875,-1.9531238 3.80208,-2.3958319 0.83333,-0.442708 1.5625,-0.442708 1.38021,0 1.38021,0.8593745 0,0.442708 -0.39063,0.7552078 -0.36458,0.2864582 -1.74479,0.9374995 -1.64062,0.7812495 -7.26562,4.062498 z"
         style="baseline-shift:baseline"
         id="path11561" /><path
         d="m 157.22626,14.248309 v 3.61979 q 3.04688,-2.161457 5.96354,-3.229165 2.91667,-1.093749 5.67708,-1.093749 3.69792,0 6.25,1.692707 1.92708,1.276041 2.57812,3.177081 0.67708,1.874999 0.67708,6.14583 l -0.0521,12.057285 0.0781,6.067704 h -13.25521 l 0.10417,-7.239579 0.0781,-5.312496 -0.026,-8.020829 q -0.026,-2.786457 -0.0781,-3.30729 -0.026,-0.546874 -0.23438,-0.963541 -0.41666,-0.833333 -1.79687,-0.833333 -1.27604,0 -2.76041,0.729167 -1.48438,0.729166 -3.20313,2.187498 l -0.026,1.067708 -0.0521,7.317704 -0.0521,5.598955 0.0781,7.656245 0.026,1.119791 h -13.30728 l 0.0781,-10.208327 0.0781,-6.744788 -0.0781,-5.833329 -0.0781,-5.651039 z"
         style="baseline-shift:baseline"
         id="path11563" /><path
         d="m 190.76791,5.1337314 q 6.875,0 6.875,3.5937479 0,1.7447907 -1.82292,2.7343737 -1.79687,0.963541 -5.07812,0.963541 -6.53646,0 -6.53646,-3.6979147 0,-3.5416646 6.5625,-3.5937479 z m 6.74479,9.1145776 v 0.755208 l -0.0521,4.062498 -0.0521,6.302079 -0.0781,9.583328 0.10416,5.390622 0.0521,2.343748 h -13.38541 l 0.1302,-9.583327 0.0781,-8.463537 -0.0521,-4.453122 -0.0781,-4.947914 0.026,-0.989583 z"
         style="baseline-shift:baseline"
         id="path11565" /><path
         d="m 223.91893,15.3681 q 2.23958,1.09375 3.75,2.890624 2.00521,2.421873 2.00521,5.598955 0,2.265623 -1.14584,4.296872 -1.14583,2.031249 -3.20312,3.411456 -3.80208,2.578124 -9.16666,2.578124 -2.47396,0 -4.55729,-0.442708 -2.08333,-0.442708 -3.80208,-1.328125 -1.22396,0.833333 -1.22396,1.692708 0,1.015624 1.38021,1.197916 2.99479,0.390625 4.11458,0.234375 l 0.15625,-0.02604 h 7.78645 l 0.39063,-0.02604 q 3.90625,-0.234375 5.62499,1.302083 1.32813,1.223957 1.32813,2.864582 0,1.380207 -0.9375,2.499998 -1.5625,1.848957 -4.21875,1.848957 -0.49479,0 -1.25,-0.05208 0.41667,-0.651041 0.41667,-1.015624 0,-0.807292 -1.45833,-0.807292 -1.25,0 -5.23438,0.546875 -2.78645,0.390625 -4.60937,0.390625 -2.86458,0 -4.97395,-1.223958 -1.22396,-0.703124 -1.92709,-1.927082 -0.70312,-1.223958 -0.70312,-2.656248 0,-1.614583 0.83333,-2.942707 0.85938,-1.354166 2.83854,-2.83854 -1.84895,-1.171874 -2.86458,-3.046873 -1.01562,-1.901041 -1.01562,-4.114581 0,-5.260414 5.28645,-8.385412 3.95833,-2.343748 9.60937,-2.343748 1.25,0 2.60417,0.130208 1.84895,0.15625 2.68229,0.15625 2.05729,0 2.99479,-1.822916 0.54687,-1.093749 1.17187,-1.093749 0.49479,0 0.85937,0.338541 0.36459,0.3125 0.36459,0.78125 0,0.937499 -1.04167,1.848957 -1.04166,0.885416 -2.86458,1.484374 z m -10.23437,2.864582 V 29.2483 q 0,1.979166 0.3125,2.447916 0.52083,0.755207 2.16146,0.755207 1.51041,0 2.00521,-0.703124 0.52083,-0.729166 0.52083,-2.83854 V 18.284765 q 0,-1.770832 -0.52083,-2.36979 -0.4948,-0.598958 -1.97917,-0.598958 -1.48437,0 -2.00521,0.598958 -0.49479,0.598958 -0.49479,2.317707 z"
         style="baseline-shift:baseline"
         id="path11567" /><path
         d="m 246.9137,17.920182 q 2.5,-1.692707 4.08854,-2.473957 3.90625,-1.90104 7.73437,-1.90104 2.76042,0 4.97396,0.989582 2.21354,0.989583 3.28125,2.708332 1.27604,2.057291 1.27604,7.552079 l -0.0521,3.880206 -0.0521,5.130205 0.18229,8.880203 h -13.35936 l 0.10416,-16.09374 -0.13021,-8.229162 q -0.26041,-1.354166 -1.92708,-1.354166 -1.22396,0 -2.76041,0.755208 -1.51042,0.729166 -3.35938,2.239582 l -0.0521,6.536455 0.10417,11.328118 0.0781,4.817705 h -13.41145 l 0.0521,-10.989576 V 19.170181 l -0.0781,-10.8333265 0.026,-1.197916 h 13.28124 v 0.7291663 l 0.026,4.4531222 -0.026,2.760415 z"
         style="baseline-shift:baseline"
         id="path11569" /><path
         d="m 288.39806,5.0816481 -0.28646,8.4114529 -0.026,0.807292 q 2.26562,0 4.11458,-0.182292 0.3125,-0.02604 0.54687,-0.02604 1.14584,0 1.14584,1.041666 0,0.963542 -1.19792,0.963542 -0.36458,0 -0.91146,-0.05208 -2.05729,-0.15625 -2.9427,-0.15625 h -0.75521 l -0.026,5.052081 0.10416,10.130202 0.0781,5.416663 q 0,1.901041 0.28646,2.656249 0.28645,0.755208 0.98958,0.755208 0.9375,0 2.00521,-1.09375 1.04166,-1.093749 1.64062,-2.68229 0.54687,-1.510416 1.30208,-1.510416 0.88542,0 0.88542,0.989583 0,0.989583 -0.88542,2.473957 -0.88541,1.458333 -2.13541,2.552082 -3.07292,2.68229 -7.96875,2.68229 -4.60937,0 -7.13541,-2.786457 -1.30208,-1.406249 -1.79688,-3.124998 -0.49479,-1.74479 -0.49479,-4.817705 v -1.953124 l 0.026,-5.494789 v -9.322911 q -0.36459,-0.02604 -0.52084,-0.02604 -0.26041,0 -1.04166,0.05208 -0.65105,0.05208 -1.09375,0.05208 -1.27604,0 -1.27604,-0.963541 0,-0.937499 1.22395,-0.937499 0.57292,0 0.80729,0.02604 l 1.90105,0.130209 v -2.942707 q 7.70832,-2.7864566 13.43749,-6.1197879 z"
         style="baseline-shift:baseline"
         id="path11571" /></g><g
       aria-label="Description:"
       id="text733"
       style="font-size:7.05556px;line-height:0px;font-family:Broadway;-inkscape-font-specification:Broadway;opacity:1;vector-effect:none;stroke-width:0.264583;stop-color:#000000;stop-opacity:1"><path
         d="m 4.7016462,116.51791 h 1.8121214 q 0.7096901,0 1.0679802,0.0689 0.8853902,0.16881 1.4297156,0.94396 0.4271921,0.60978 0.4271921,1.34359 0,0.74758 -0.4409725,1.36081 -0.530545,0.74069 -1.3849293,0.91984 -0.2204862,0.0448 -0.3927411,0.0551 -0.1722549,0.0103 -0.7579215,0.0103 H 4.7119815 l 0.010335,-2.27377 z m 2.1049547,0.22048 -0.017226,2.76986 0.020671,1.49173 q 0.4616431,-0.003 0.6614587,-0.0344 0.2032608,-0.0345 0.4650882,-0.14814 0.6166725,-0.26527 0.9680725,-0.85438 0.3066137,-0.50643 0.3066137,-1.09555 0,-0.64078 -0.3617353,-1.17822 -0.6442333,-0.95429 -1.9085841,-0.95429 z"
         id="path11536" /><path
         d="m 11.3748,119.44969 v 1.06798 q 0,0.31006 0.0379,0.39274 0.07235,0.15847 0.341065,0.15847 0.399631,0 0.788927,-0.21704 0.392742,-0.22049 0.678685,-0.60634 0.09302,-0.12746 0.134358,-0.16192 0.04134,-0.0344 0.08957,-0.0344 0.05857,0 0.09646,0.0448 0.0379,0.0413 0.0379,0.1068 0,0.14469 -0.230822,0.38929 -0.303168,0.31351 -0.754476,0.50988 -0.447863,0.19637 -0.875055,0.19637 -0.733806,0 -1.295357,-0.49265 -0.327284,-0.28939 -0.5029839,-0.71314 -0.1550294,-0.37207 -0.1550294,-0.74414 0,-0.35829 0.1378039,-0.71658 0.1378034,-0.36173 0.3789604,-0.62356 0.279053,-0.30661 0.661459,-0.47542 0.375516,-0.16537 0.785482,-0.16537 0.637343,0 1.154108,0.37552 0.806153,0.58566 0.799263,1.69843 h -0.802708 l -1.033529,0.003 z m 0.881945,-0.22738 v -1.00597 q -0.0069,-0.32384 -0.01378,-0.38585 -0.0069,-0.0655 -0.04823,-0.12058 -0.09646,-0.13436 -0.392742,-0.13436 -0.303168,0 -0.37896,0.15503 -0.04823,0.093 -0.04823,0.48576 v 1.00597 l 0.420302,0.0138 z"
         id="path11538" /><path
         d="m 14.161884,120.58312 q 0.0689,0 0.1757,0.10336 0.172254,0.16192 0.489203,0.27905 0.316949,0.11369 0.592557,0.11369 0.127469,0 0.189481,-0.0413 0.06546,-0.0448 0.06546,-0.12747 0,-0.0827 -0.08957,-0.19637 -0.08613,-0.11714 -0.389296,-0.44442 -0.740696,-0.79237 -0.961182,-1.11277 -0.217041,-0.32384 -0.217041,-0.62011 0,-0.25839 0.148139,-0.49265 0.151584,-0.23772 0.420302,-0.40308 0.444417,-0.27561 1.019749,-0.27561 0.423747,0 0.895725,0.17915 0.368625,0.14125 0.368625,0.30661 0,0.0517 -0.04479,0.093 -0.04134,0.0413 -0.09646,0.0413 -0.06546,0 -0.244602,-0.12747 -0.36518,-0.26183 -0.795817,-0.26183 -0.151584,0 -0.230822,0.0482 -0.07579,0.0482 -0.07579,0.14813 0,0.11714 0.141249,0.29628 0.144694,0.17915 0.582222,0.60634 0.427192,0.41686 0.54088,0.54777 0.117133,0.12747 0.223931,0.29628 0.182591,0.28939 0.182591,0.62701 0,0.53054 -0.51332,0.85783 -0.420302,0.27216 -1.033529,0.27216 -0.68213,0 -1.20923,-0.30317 -0.155029,-0.093 -0.213596,-0.15158 -0.05512,-0.0586 -0.05512,-0.12747 0,-0.12747 0.134359,-0.13092 z"
         id="path11540" /><path
         d="m 19.236512,118.20601 v 2.30132 l -0.0034,0.22049 q 0,0.21359 0.05168,0.28594 0.05512,0.0689 0.217041,0.0689 0.406522,0 0.799263,-0.24804 0.392741,-0.2515 0.640788,-0.6718 0.07579,-0.12747 0.148139,-0.12747 0.05168,0 0.09302,0.0482 0.04479,0.0448 0.04479,0.0965 0,0.12402 -0.199816,0.3514 -0.199815,0.22393 -0.465088,0.40307 -0.54088,0.36174 -1.157553,0.36174 -0.844049,0 -1.395264,-0.52366 -0.627008,-0.58911 -0.627008,-1.44349 0,-0.88195 0.661459,-1.46761 0.55466,-0.4961 1.367703,-0.4961 0.647679,0 1.133438,0.30662 0.206705,0.13091 0.337619,0.28249 0.130914,0.14814 0.130914,0.2515 0,0.0517 -0.0379,0.0896 -0.0379,0.0344 -0.09302,0.0344 -0.07235,0 -0.18259,-0.16537 -0.158474,-0.23082 -0.499539,-0.39963 -0.341065,-0.17225 -0.644233,-0.17225 -0.203261,0 -0.261828,0.11369 -0.05857,0.11369 -0.05857,0.49954 z"
         id="path11542" /><path
         d="m 23.353405,118.5264 -0.0069,1.32292 0.01378,1.37115 H 21.59296 l 0.0034,-0.18948 0.0034,-0.7028 0.01034,-1.26435 -0.01378,-1.4056 -0.0034,-0.19982 h 1.76389 v 0.70969 q 0.396186,-0.4203 0.551215,-0.53055 0.358291,-0.25149 0.67524,-0.25149 0.192925,0 0.316949,0.0827 0.127468,0.0827 0.127468,0.21015 0,0.0999 -0.07579,0.16536 -0.07579,0.0655 -0.18948,0.0655 -0.07235,0 -0.16192,-0.0413 -0.151584,-0.0724 -0.251492,-0.0724 -0.248047,0 -0.478869,0.16881 -0.230821,0.16881 -0.516764,0.56155 z"
         id="path11544" /><path
         d="m 26.202501,116.25264 q 0.909506,0 0.909506,0.47542 0,0.23082 -0.241157,0.36173 -0.237712,0.12747 -0.671794,0.12747 -0.86472,0 -0.86472,-0.4892 0,-0.46853 0.868165,-0.47542 z m 0.89228,1.20578 v 0.0999 l -0.0069,0.53743 -0.0069,0.83372 -0.01034,1.26779 0.01378,0.71314 0.0069,0.31006 h -1.77078 l 0.01722,-1.2678 0.01034,-1.11966 -0.0069,-0.58911 -0.01034,-0.65457 0.0034,-0.13091 z"
         id="path11546" /><path
         d="m 27.911269,117.45842 h 1.760445 l -0.01034,0.45131 q 0.347955,-0.29973 0.637343,-0.4203 0.289388,-0.12403 0.637343,-0.12403 0.713136,0 1.157553,0.53055 0.399631,0.47542 0.399631,1.20923 0,0.78203 -0.458198,1.28502 -0.423747,0.46509 -1.057645,0.46509 -0.334174,0 -0.664903,-0.13781 -0.33073,-0.14125 -0.658014,-0.4203 l 0.0034,0.12747 0.0034,0.45131 0.0069,0.37551 0.0034,0.12747 h -1.760445 l 0.0034,-0.98185 0.0069,-0.91295 -0.01034,-1.90514 z m 1.75011,0.76137 v 1.79834 q 0.251492,0.23426 0.451308,0.35484 0.199816,0.11714 0.347955,0.11714 0.137804,0 0.161919,-0.13436 0.0069,-0.0448 0.01034,-0.46509 v -1.68465 q 0,-0.29973 -0.01034,-0.35829 -0.02412,-0.1447 -0.144694,-0.1447 -0.155029,0 -0.375515,0.14125 -0.220487,0.1378 -0.440973,0.37552 z"
         id="path11548" /><path
         d="m 34.84625,116.24575 -0.0379,1.11276 -0.0034,0.1068 q 0.299723,0 0.544325,-0.0241 0.04134,-0.003 0.07235,-0.003 0.151585,0 0.151585,0.1378 0,0.12747 -0.158475,0.12747 -0.04823,0 -0.120578,-0.007 -0.272163,-0.0207 -0.389296,-0.0207 h -0.09991 l -0.0034,0.66835 0.01378,1.34014 0.01033,0.71658 q 0,0.2515 0.0379,0.3514 0.0379,0.0999 0.130913,0.0999 0.124024,0 0.265273,-0.14469 0.137804,-0.1447 0.217041,-0.35485 0.07235,-0.19981 0.172255,-0.19981 0.117133,0 0.117133,0.13091 0,0.13091 -0.117133,0.32728 -0.117133,0.19293 -0.282498,0.33762 -0.406522,0.35485 -1.0542,0.35485 -0.609782,0 -0.943957,-0.36863 -0.172255,-0.18603 -0.237712,-0.41341 -0.06546,-0.23082 -0.06546,-0.63734 v -0.25838 l 0.0034,-0.72692 v -1.23334 q -0.04823,-0.003 -0.0689,-0.003 -0.03445,0 -0.137804,0.007 -0.08613,0.007 -0.144694,0.007 -0.16881,0 -0.16881,-0.12747 0,-0.12402 0.161919,-0.12402 0.07579,0 0.106799,0.003 l 0.251492,0.0172 v -0.3893 q 1.019749,-0.36862 1.77767,-0.80959 z"
         id="path11550" /><path
         d="m 36.882303,116.25264 q 0.909506,0 0.909506,0.47542 0,0.23082 -0.241157,0.36173 -0.237712,0.12747 -0.671794,0.12747 -0.86472,0 -0.86472,-0.4892 0,-0.46853 0.868165,-0.47542 z m 0.89228,1.20578 v 0.0999 l -0.0069,0.53743 -0.0069,0.83372 -0.01034,1.26779 0.01378,0.71314 0.0069,0.31006 h -1.77078 l 0.01723,-1.2678 0.01034,-1.11966 -0.0069,-0.58911 -0.01034,-0.65457 0.0034,-0.13091 z"
         id="path11552" /><path
         d="m 40.313622,117.3654 q 0.554661,0 1.050755,0.30662 0.458198,0.28249 0.699355,0.7717 0.213596,0.43064 0.213596,0.91295 0,0.33073 -0.127469,0.6649 -0.124023,0.33418 -0.341064,0.59256 -0.303169,0.35484 -0.740696,0.53399 -0.358291,0.14814 -0.747587,0.14814 -0.651123,0 -1.171333,-0.38585 -0.406521,-0.29628 -0.616672,-0.76137 -0.1757,-0.39274 -0.1757,-0.83027 0,-0.85438 0.620117,-1.41938 0.582222,-0.52365 1.336698,-0.53399 z m -0.09991,0.22393 -0.01034,3.47266 q 0.106798,0.007 0.148139,0.007 0.478869,0 0.916396,-0.26872 0.420302,-0.26182 0.630453,-0.69591 0.165365,-0.3445 0.165365,-0.75792 0,-0.83027 -0.613228,-1.34703 -0.496094,-0.41686 -1.078315,-0.41686 -0.04823,0 -0.158475,0.007 z"
         id="path11554" /><path
         d="m 44.582098,117.45842 v 0.47887 q 0.403077,-0.28594 0.788927,-0.42719 0.385851,-0.1447 0.751032,-0.1447 0.489204,0 0.826823,0.22393 0.254937,0.16881 0.341065,0.42031 0.08957,0.24804 0.08957,0.81304 l -0.0069,1.59508 0.01034,0.80271 h -1.753555 l 0.01378,-0.95774 0.01033,-0.7028 -0.0034,-1.06109 q -0.0034,-0.36863 -0.01033,-0.43753 -0.0034,-0.0724 -0.03101,-0.12747 -0.05512,-0.11024 -0.237712,-0.11024 -0.168809,0 -0.36518,0.0965 -0.19637,0.0965 -0.423747,0.28939 l -0.0034,0.14125 -0.0069,0.96807 -0.0069,0.7407 0.01034,1.01286 0.0034,0.14814 h -1.760445 l 0.01034,-1.35048 0.01034,-0.89228 -0.01034,-0.7717 -0.01034,-0.74759 z"
         id="path11556" /><path
         d="m 49.067614,119.7942 q 0.458198,0 0.73725,0.20326 0.279053,0.20326 0.279053,0.54432 0,0.34796 -0.282498,0.56844 -0.282498,0.21704 -0.733805,0.21704 -0.568442,0 -0.85094,-0.31694 -0.165364,-0.18604 -0.165364,-0.43409 0,-0.3514 0.275608,-0.56155 0.275607,-0.21359 0.740696,-0.22048 z m 0,-1.97404 q 0.458198,0 0.73725,0.20326 0.279053,0.20326 0.279053,0.54432 0,0.34796 -0.282498,0.56844 -0.282498,0.21704 -0.733805,0.21704 -0.568442,0 -0.85094,-0.31695 -0.165364,-0.18603 -0.165364,-0.43408 0,-0.3514 0.275608,-0.56155 0.275607,-0.21359 0.740696,-0.22048 z"
         id="path11558" /></g><g
       aria-label="Move any knight, and discard this card."
       transform="matrix(0.27431353,0,0,0.27431353,-0.8676689,-4.702566)"
       id="text855"
       style="font-size:23.1487px;line-height:23.1487px;font-family:'Bookman Old Style';-inkscape-font-specification:'Bookman Old Style';white-space:pre;shape-inside:url(#rect857);display:inline;opacity:1;vector-effect:none;stroke-width:0.999999;stop-color:#000000;stop-opacity:1"><path
         d="m 21.817517,468.81072 h 4.984657 l 4.656867,12.4899 4.532534,-12.4899 h 4.815111 v 0.96076 h -0.406911 q -0.7347,0 -0.994671,0.12433 -0.248667,0.12434 -0.395607,0.44082 -0.14694,0.30518 -0.14694,1.01728 v 10.39883 q 0,0.98337 0.11303,1.27725 0.124334,0.29388 0.395608,0.45212 0.282577,0.14694 1.02858,0.14694 h 0.406911 v 0.94946 h -6.02454 v -0.94946 h 0.429517 q 0.576457,0 0.836428,-0.0904 0.271273,-0.0904 0.44082,-0.29388 0.180849,-0.21475 0.203455,-0.44082 0.05651,-0.46342 0.05651,-0.72339 v -11.60826 l -5.1429,14.10624 h -1.119004 l -5.188112,-13.90279 v 11.17875 q 0,0.84773 0.14694,1.15291 0.14694,0.29388 0.452123,0.46343 0.316486,0.15824 1.119004,0.15824 h 0.361699 v 0.94946 h -5.561114 v -0.94946 h 0.316486 q 0.802519,0 1.141611,-0.16955 0.350395,-0.16954 0.497335,-0.47473 0.14694,-0.31648 0.14694,-1.23203 v -10.2971 q 0,-0.85904 -0.124333,-1.13031 -0.124334,-0.28258 -0.418214,-0.41822 -0.282577,-0.13563 -1.017277,-0.13563 h -0.542548 z"
         id="path11469" /><path
         d="m 48.571899,473.39976 q 1.661553,0 2.870982,0.68949 1.220732,0.68949 1.921523,2.01195 0.700791,1.32246 0.700791,3.01792 0,1.69546 -0.723397,3.01792 -0.712094,1.32246 -1.955433,2.02325 -1.232035,0.68949 -2.950102,0.68949 -2.735345,0 -4.11432,-1.70676 -1.367673,-1.70677 -1.367673,-4.0126 0,-1.68415 0.712094,-2.98401 0.712094,-1.31115 1.989342,-2.02325 1.28855,-0.7234 2.916193,-0.7234 z m -0.09042,1.0964 q -1.288551,0 -2.181494,1.01728 -1.130308,1.26594 -1.130308,3.6848 0,2.32844 0.960762,3.54917 0.870337,1.08509 2.362343,1.08509 0.960761,0 1.706764,-0.50863 0.757307,-0.50864 1.220733,-1.61634 0.463426,-1.11901 0.463426,-2.62232 0,-1.4694 -0.497336,-2.63361 -0.384304,-0.92686 -1.164216,-1.4355 -0.76861,-0.51994 -1.740674,-0.51994 z"
         id="path11471" /><path
         d="m 54.992046,473.67104 h 5.176809 v 0.94946 h -0.316486 q -0.644275,0 -0.802518,0.0452 -0.226062,0.0678 -0.339092,0.21476 -0.113031,0.14694 -0.113031,0.35039 0,0.28258 0.248667,0.91555 l 2.577102,6.43145 2.49798,-6.43145 q 0.237364,-0.62167 0.237364,-0.90424 0,-0.29388 -0.226061,-0.45213 -0.226062,-0.16954 -0.813822,-0.16954 h -0.542547 v -0.94946 h 4.464715 v 0.94946 q -0.463426,0.0113 -0.779912,0.14694 -0.305183,0.13563 -0.486033,0.35039 -0.169546,0.21476 -0.519941,1.02858 l -3.605682,8.4321 h -1.356369 l -3.628287,-8.62425 q -0.226062,-0.53124 -0.497336,-0.87034 -0.180849,-0.21476 -0.486032,-0.33909 -0.29388,-0.12433 -0.689488,-0.12433 z"
         id="path11473" /><path
         d="m 77.541684,481.66231 0.723397,0.58776 q -0.825124,0.98337 -1.605037,1.55983 -0.768609,0.57646 -1.458096,0.80252 -0.689488,0.23736 -1.61634,0.23736 -1.661553,0 -2.825769,-0.67818 -1.333763,-0.77992 -2.045857,-2.03456 -0.712094,-1.25464 -0.712094,-2.9614 0,-1.78589 0.689488,-3.05183 0.689487,-1.26595 1.921523,-1.98935 1.243338,-0.7347 2.870981,-0.7347 1.209429,0 2.102372,0.38431 0.892943,0.373 1.514612,1.14161 0.62167,0.75731 0.904247,1.74067 0.158243,0.57646 0.180849,1.49201 h -7.991275 q -0.03391,0.55385 -0.03391,0.82512 0,1.42419 0.497336,2.5432 0.497335,1.1077 1.311157,1.63894 0.825124,0.51994 1.865007,0.51994 0.88164,0 1.706765,-0.40691 0.825125,-0.41821 2.000644,-1.61634 z m -1.446793,-4.56644 q -0.169546,-1.03988 -0.486033,-1.53722 -0.305183,-0.49733 -0.88164,-0.79121 -0.565153,-0.29388 -1.277247,-0.29388 -0.712094,0 -1.333763,0.29388 -0.621669,0.29388 -1.039883,0.81382 -0.406911,0.51994 -0.712094,1.51461 z"
         id="path11475" /><path
         d="m 95.434455,478.03403 v -1.23204 q 0,-1.25464 -0.700791,-1.78589 -0.700791,-0.54254 -1.978038,-0.54254 -0.632973,0 -1.107702,0.15824 -0.474729,0.14694 -0.768609,0.41821 -0.282577,0.25997 -0.418214,0.59907 -0.05652,0.12433 -0.271274,0.96076 -0.25997,1.01728 -1.051186,1.01728 -0.452123,0 -0.7347,-0.29388 -0.271274,-0.30519 -0.271274,-0.81383 0,-0.746 0.553851,-1.45809 0.553851,-0.7234 1.684159,-1.18683 1.14161,-0.47473 2.690132,-0.47473 1.446794,0 2.475373,0.45213 1.02858,0.44082 1.514613,1.27725 0.339092,0.57645 0.339092,2.10237 v 4.35168 q 0,0.92685 0.05652,1.20943 0.124334,0.48603 0.429517,0.7347 0.316486,0.23737 0.813822,0.23737 0.519941,0 1.243338,-0.24867 v 0.98337 q -0.938155,0.27127 -1.684158,0.27127 -0.802519,0 -1.356369,-0.22606 -0.542548,-0.22606 -0.892943,-0.65558 -0.350396,-0.44082 -0.452123,-1.03988 -1.35637,1.06249 -2.452768,1.492 -1.096398,0.42952 -2.215403,0.42952 -1.559825,0 -2.531889,-0.84773 -0.972065,-0.84773 -0.972065,-1.98934 0,-0.68949 0.350396,-1.31116 0.361698,-0.62167 1.085095,-1.0964 0.7347,-0.47473 2.294524,-0.83643 1.559825,-0.36169 4.329079,-0.65557 z m 0,0.98336 q -2.622314,0.38431 -3.243983,0.53125 -1.232036,0.28258 -1.76328,0.62167 -0.531245,0.33909 -0.757306,0.7347 -0.226062,0.3843 -0.226062,0.82512 0,0.44082 0.248668,0.85904 0.259971,0.40691 0.723397,0.64427 0.463426,0.23737 0.983367,0.23737 0.7347,0 1.661553,-0.3504 0.926852,-0.35039 2.373646,-1.36767 z"
         id="path11477" /><path
         d="m 100.7469,475.29868 v -0.94946 q 1.00597,-0.11303 1.50331,-0.27127 0.49734,-0.15824 1.43549,-0.67819 h 0.81382 v 2.14759 q 1.49201,-1.25464 2.54319,-1.69546 1.06249,-0.45213 2.14759,-0.45213 0.92685,0 1.63894,0.31649 0.7121,0.30518 1.15292,0.83643 0.45212,0.53124 0.59906,1.20943 0.0904,0.41821 0.0904,1.26594 v 4.97336 q 0,0.89294 0.12433,1.15291 0.13564,0.24867 0.41821,0.3617 0.28258,0.11303 1.39028,0.11303 v 0.94946 h -5.82108 v -0.94946 h 0.31648 q 0.81383,0 1.10771,-0.14694 0.29388,-0.14694 0.41821,-0.42952 0.13564,-0.28257 0.13564,-1.15291 v -4.15953 q 0,-1.28855 -0.21476,-1.78589 -0.20346,-0.49734 -0.7121,-0.80252 -0.49733,-0.31648 -1.26594,-0.31648 -0.91555,0 -1.95543,0.47472 -1.03989,0.46343 -2.01195,1.37898 v 5.21072 q 0,0.88164 0.12433,1.17552 0.13564,0.29388 0.42952,0.44082 0.20346,0.11303 1.0851,0.11303 h 0.32779 v 0.94946 h -5.82109 v -0.94946 h 0.28258 q 0.83643,0 1.14161,-0.13564 0.30518,-0.14694 0.42952,-0.50864 0.0678,-0.18085 0.0678,-1.24333 v -6.44276 z"
         id="path11479" /><path
         d="m 115.0566,473.67104 h 5.49329 v 0.94946 h -0.45212 q -0.64428,0 -0.76861,0.0339 -0.14694,0.0452 -0.24867,0.19215 -0.10173,0.13564 -0.10173,0.35039 0,0.30519 0.30519,1.02858 l 2.62231,6.16018 2.43016,-5.8889 q 0.42952,-1.03989 0.42952,-1.37898 0,-0.25997 -0.19215,-0.373 -0.19215,-0.12433 -0.87034,-0.12433 h -0.53124 v -0.94946 h 4.62295 v 0.94946 h -0.27127 q -0.67818,0 -0.88164,0.0904 -0.20345,0.0904 -0.39561,0.373 -0.19215,0.27128 -0.61036,1.25464 l -4.14823,9.66414 q -0.45213,1.03988 -1.00598,1.92152 -0.55385,0.89294 -1.39027,1.37897 -0.83643,0.48604 -1.84241,0.48604 -1.16421,0 -1.865,-0.53125 -0.59907,-0.45212 -0.59907,-1.13031 0,-0.41821 0.25997,-0.70079 0.25997,-0.27127 0.61037,-0.27127 0.27127,0 0.50864,0.11303 0.14694,0.0565 0.61036,0.47473 0.56516,0.49733 0.79122,0.61037 0.23736,0.11303 0.46343,0.11303 0.46342,0 0.91555,-0.31649 0.45212,-0.31649 0.7686,-0.89294 0.45213,-0.82513 0.74601,-1.54852 l 0.46342,-1.13031 -3.73001,-8.35298 q -0.39561,-0.88164 -0.66688,-1.18682 -0.27128,-0.30518 -0.54255,-0.373 -0.14694,-0.0452 -0.92685,-0.0452 z"
         id="path11481" /><path
         d="m 135.76383,469.87321 v -0.92686 q 1.4468,-0.11303 2.99532,-0.94946 h 0.87033 v 11.28047 l 4.14823,-3.30049 q 0.99467,-0.79122 0.99467,-1.05119 0,-0.15824 -0.21475,-0.24867 -0.13564,-0.0565 -0.66689,-0.0565 h -0.59906 v -0.94946 h 5.73066 v 0.94946 q -0.96076,0 -1.53722,0.20345 -0.57645,0.19215 -1.33376,0.76861 l -3.27789,2.49798 3.86565,4.22735 q 0.55385,0.61037 0.90425,0.85904 0.35039,0.24866 0.70079,0.35039 0.35039,0.0904 1.09639,0.10173 v 0.94946 h -6.01323 v -0.94946 h 0.46342 q 0.68949,0 0.87034,-0.10173 0.18085,-0.11303 0.18085,-0.29388 0,-0.18085 -0.33909,-0.51994 -0.0565,-0.0565 -0.12434,-0.13564 l -3.00661,-3.45874 -1.84241,1.41289 v 1.4807 q 0,0.82512 0.12434,1.08509 0.12433,0.25998 0.3843,0.39561 0.27128,0.13564 1.02858,0.13564 h 0.41822 v 0.94946 h -5.82109 v -0.94946 q 0.98337,-0.0113 1.20943,-0.0791 0.39561,-0.12434 0.56516,-0.44082 0.18084,-0.31649 0.18084,-1.22073 v -12.01517 z"
         id="path11483" /><path
         d="m 150.28828,475.29868 v -0.94946 q 1.00598,-0.11303 1.50331,-0.27127 0.49734,-0.15824 1.43549,-0.67819 h 0.81382 v 2.14759 q 1.49201,-1.25464 2.5432,-1.69546 1.06249,-0.45213 2.14758,-0.45213 0.92685,0 1.63895,0.31649 0.71209,0.30518 1.15291,0.83643 0.45212,0.53124 0.59906,1.20943 0.0904,0.41821 0.0904,1.26594 v 4.97336 q 0,0.89294 0.12433,1.15291 0.13564,0.24867 0.41822,0.3617 0.28257,0.11303 1.39027,0.11303 v 0.94946 h -5.82108 v -0.94946 h 0.31649 q 0.81382,0 1.1077,-0.14694 0.29388,-0.14694 0.41821,-0.42952 0.13564,-0.28257 0.13564,-1.15291 v -4.15953 q 0,-1.28855 -0.21476,-1.78589 -0.20346,-0.49734 -0.71209,-0.80252 -0.49734,-0.31648 -1.26595,-0.31648 -0.91555,0 -1.95543,0.47472 -1.03988,0.46343 -2.01195,1.37898 v 5.21072 q 0,0.88164 0.12434,1.17552 0.13563,0.29388 0.42951,0.44082 0.20346,0.11303 1.0851,0.11303 h 0.32779 v 0.94946 h -5.82109 v -0.94946 h 0.28258 q 0.83643,0 1.14161,-0.13564 0.30518,-0.14694 0.42952,-0.50864 0.0678,-0.18085 0.0678,-1.24333 v -6.44276 z"
         id="path11485" /><path
         d="m 168.35061,468.30208 q 0.54255,0 0.92685,0.3843 0.3843,0.373 0.3843,0.91555 0,0.54255 -0.3843,0.92685 -0.3843,0.38431 -0.92685,0.38431 -0.54255,0 -0.92685,-0.38431 -0.38431,-0.3843 -0.38431,-0.92685 0,-0.54255 0.38431,-0.91555 0.3843,-0.3843 0.92685,-0.3843 z m -2.88229,6.9966 v -0.93815 q 0.93816,-0.11303 1.57113,-0.31649 0.64428,-0.20346 1.4581,-0.64428 h 0.82512 v 9.06507 q 0,0.47473 0.13564,0.7121 0.13564,0.23736 0.373,0.35039 0.24867,0.10173 0.89294,0.10173 h 0.53125 v 0.94946 h -5.78718 v -0.94946 h 0.46343 q 0.75731,0 1.01728,-0.13564 0.25997,-0.13563 0.3617,-0.3843 0.11303,-0.24867 0.11303,-1.16422 v -6.64621 z"
         id="path11487" /><path
         d="m 181.23611,474.56398 q 0.50863,-0.59906 1.02858,-0.88164 0.53124,-0.28258 0.97206,-0.28258 0.40691,0 0.67818,0.24867 0.28258,0.23737 0.28258,0.58776 0,0.3617 -0.24867,0.61037 -0.24866,0.24867 -0.63297,0.24867 -0.15824,0 -0.42952,-0.0565 -0.31648,-0.0791 -0.53124,-0.0791 -0.28258,0 -0.58776,0.25997 0.70079,0.84773 0.70079,1.98934 0,1.55983 -1.31116,2.70144 -1.31115,1.14161 -3.3118,1.14161 -1.1077,0 -2.2267,-0.46343 -0.74601,0.53125 -0.84773,0.65558 -0.15825,0.19215 -0.15825,0.40691 0,0.32779 0.33909,0.54255 0.42952,0.28258 1.69547,0.47473 l 3.26659,0.48603 q 1.08509,0.16955 2.18149,0.56515 1.0964,0.39561 1.58243,1.02858 0.49734,0.63298 0.49734,1.51462 0,1.492 -1.37898,2.38495 -1.75198,1.14161 -5.19942,1.14161 -1.80849,0 -2.9388,-0.38431 -1.1303,-0.3843 -1.75197,-1.08509 -0.45213,-0.50864 -0.45213,-1.05119 0,-0.70079 0.45213,-1.36767 0.46342,-0.66688 2.12498,-1.89892 -1.0738,-0.27127 -1.53722,-0.63297 -0.58776,-0.46343 -0.58776,-1.05119 0,-0.29388 0.10173,-0.54255 0.11303,-0.25997 0.35039,-0.50863 0.24867,-0.25997 0.89294,-0.7121 0.40691,-0.28257 0.57646,-0.41821 -0.82512,-0.58776 -1.24334,-1.31116 -0.41821,-0.7347 -0.41821,-1.60504 0,-1.43549 1.1077,-2.50928 1.34507,-1.31116 3.62829,-1.31116 1.01727,0 1.77458,0.25998 0.75731,0.24866 1.55983,0.90424 z m -3.43614,-0.11303 q -1.1077,0 -1.87631,0.80252 -0.76861,0.80252 -0.76861,1.98934 0,0.79122 0.3504,1.43549 0.35039,0.63297 0.98336,1.00598 0.63298,0.36169 1.33377,0.36169 0.70079,0 1.33376,-0.373 0.64427,-0.373 0.98337,-1.00597 0.35039,-0.63297 0.35039,-1.42419 0,-1.24334 -0.7573,-2.01195 -0.74601,-0.77991 -1.93283,-0.77991 z m -1.79719,9.81107 q -1.08509,0.92685 -1.44679,1.50331 -0.3504,0.57646 -0.3504,1.1077 0,0.45213 0.3504,0.87034 0.3617,0.42952 1.22073,0.70079 0.85903,0.27127 2.15889,0.27127 1.53722,0 2.63361,-0.33909 1.10771,-0.32779 1.58243,-0.84773 0.3504,-0.40691 0.3504,-0.96076 0,-0.47473 -0.29388,-0.80252 -0.28258,-0.32779 -1.0851,-0.57646 -0.79121,-0.23736 -1.4807,-0.35039 z"
         id="path11489" /><path
         d="m 185.00003,469.91842 v -0.97207 q 1.0964,-0.14694 1.70677,-0.33909 0.61036,-0.20345 1.27724,-0.61037 h 0.88164 v 7.47134 q 1.27725,-1.07379 2.41886,-1.57113 1.14161,-0.49734 2.1815,-0.49734 1.51461,0 2.49798,0.90425 0.97206,0.90425 0.97206,2.2041 v 5.54981 q 0,0.82513 0.12434,1.0851 0.13563,0.24866 0.44082,0.373 0.30518,0.11303 1.36767,0.11303 v 0.94946 h -5.83239 v -0.94946 h 0.42952 q 0.82512,0 1.08509,-0.12433 0.25997,-0.13564 0.373,-0.42952 0.12434,-0.30518 0.12434,-1.24334 v -3.85435 q 0,-1.27725 -0.0904,-1.66155 -0.16954,-0.65558 -0.70079,-1.05119 -0.53124,-0.39561 -1.35637,-0.39561 -0.92685,0 -1.94413,0.46343 -1.00597,0.45212 -2.09107,1.36767 v 5.66284 q 0,0.63298 0.11304,0.84774 0.11303,0.21475 0.373,0.31648 0.25997,0.10173 1.03988,0.10173 h 0.46343 v 0.94946 h -5.855 v -0.94946 h 0.3504 q 0.82512,0 1.19812,-0.20346 0.20346,-0.10172 0.29388,-0.3956 0.0904,-0.29388 0.0904,-1.62765 v -11.48392 z"
         id="path11491" /><path
         d="m 203.2545,469.82799 h 0.80251 v 3.84305 h 3.35702 v 1.13031 h -3.35702 v 6.81575 q 0,0.87034 0.14694,1.24334 0.15825,0.373 0.51995,0.61037 0.373,0.23736 0.82512,0.23736 1.07379,0 2.37365,-0.96076 v 1.0964 q -1.48071,1.00597 -2.99532,1.00597 -0.85903,0 -1.55982,-0.3843 -0.68949,-0.38431 -0.94946,-0.90425 -0.24867,-0.51994 -0.24867,-1.80849 v -6.95139 h -1.97804 v -0.94946 q 0.94946,-0.21476 1.52592,-0.66688 0.58776,-0.45213 0.94946,-1.17552 0.36169,-0.7234 0.58776,-2.1815 z"
         id="path11493" /><path
         d="m 210.73715,488.67022 -0.61037,-0.746 q 2.31713,-1.88762 2.31713,-3.15356 0,-0.14694 -0.0226,-0.3617 -0.19215,0.0791 -0.373,0.12434 -0.18085,0.0452 -0.33909,0.0452 -0.54255,0 -0.87034,-0.3504 -0.32779,-0.35039 -0.32779,-0.89294 0,-0.53125 0.39561,-0.92685 0.39561,-0.39561 0.94946,-0.39561 0.76861,0 1.31116,0.62167 0.55385,0.61036 0.55385,1.58243 0,0.63297 -0.25997,1.32246 -0.25997,0.70079 -0.75731,1.28855 -0.49733,0.59906 -1.96673,1.8424 z"
         id="path11495" /><path
         d="m 232.00953,478.03403 v -1.23204 q 0,-1.25464 -0.70079,-1.78589 -0.70079,-0.54254 -1.97804,-0.54254 -0.63297,0 -1.1077,0.15824 -0.47473,0.14694 -0.76861,0.41821 -0.28258,0.25997 -0.41822,0.59907 -0.0565,0.12433 -0.27127,0.96076 -0.25997,1.01728 -1.05119,1.01728 -0.45212,0 -0.7347,-0.29388 -0.27127,-0.30519 -0.27127,-0.81383 0,-0.746 0.55385,-1.45809 0.55385,-0.7234 1.68416,-1.18683 1.14161,-0.47473 2.69013,-0.47473 1.4468,0 2.47538,0.45213 1.02858,0.44082 1.51461,1.27725 0.33909,0.57645 0.33909,2.10237 v 4.35168 q 0,0.92685 0.0565,1.20943 0.12433,0.48603 0.42951,0.7347 0.31649,0.23737 0.81382,0.23737 0.51995,0 1.24334,-0.24867 v 0.98337 q -0.93815,0.27127 -1.68416,0.27127 -0.80251,0 -1.35637,-0.22606 -0.54254,-0.22606 -0.89294,-0.65558 -0.35039,-0.44082 -0.45212,-1.03988 -1.35637,1.06249 -2.45277,1.492 -1.0964,0.42952 -2.2154,0.42952 -1.55983,0 -2.53189,-0.84773 -0.97207,-0.84773 -0.97207,-1.98934 0,-0.68949 0.3504,-1.31116 0.3617,-0.62167 1.0851,-1.0964 0.7347,-0.47473 2.29452,-0.83643 1.55982,-0.36169 4.32908,-0.65557 z m 0,0.98336 q -2.62232,0.38431 -3.24398,0.53125 -1.23204,0.28258 -1.76328,0.62167 -0.53125,0.33909 -0.75731,0.7347 -0.22606,0.3843 -0.22606,0.82512 0,0.44082 0.24867,0.85904 0.25997,0.40691 0.72339,0.64427 0.46343,0.23737 0.98337,0.23737 0.7347,0 1.66155,-0.3504 0.92685,-0.35039 2.37365,-1.36767 z"
         id="path11497" /><path
         d="m 237.32197,475.29868 v -0.94946 q 1.00598,-0.11303 1.50331,-0.27127 0.49734,-0.15824 1.43549,-0.67819 h 0.81383 v 2.14759 q 1.492,-1.25464 2.54319,-1.69546 1.06249,-0.45213 2.14758,-0.45213 0.92685,0 1.63895,0.31649 0.71209,0.30518 1.15291,0.83643 0.45213,0.53124 0.59907,1.20943 0.0904,0.41821 0.0904,1.26594 v 4.97336 q 0,0.89294 0.12433,1.15291 0.13564,0.24867 0.41822,0.3617 0.28257,0.11303 1.39028,0.11303 v 0.94946 h -5.82109 v -0.94946 h 0.31649 q 0.81382,0 1.1077,-0.14694 0.29388,-0.14694 0.41821,-0.42952 0.13564,-0.28257 0.13564,-1.15291 v -4.15953 q 0,-1.28855 -0.21476,-1.78589 -0.20345,-0.49734 -0.71209,-0.80252 -0.49734,-0.31648 -1.26595,-0.31648 -0.91555,0 -1.95543,0.47472 -1.03988,0.46343 -2.01195,1.37898 v 5.21072 q 0,0.88164 0.12434,1.17552 0.13563,0.29388 0.42951,0.44082 0.20346,0.11303 1.0851,0.11303 h 0.32779 v 0.94946 h -5.82109 v -0.94946 h 0.28258 q 0.83643,0 1.14161,-0.13564 0.30518,-0.14694 0.42952,-0.50864 0.0678,-0.18085 0.0678,-1.24333 v -6.44276 z"
         id="path11499" /><path
         d="m 259.63424,469.90711 v -0.96076 q 0.76861,-0.0678 1.40158,-0.25997 0.64428,-0.20345 1.60504,-0.68949 h 0.84773 v 13.71064 q 0,0.94945 0.0452,1.15291 0.11303,0.42952 0.38431,0.59906 0.27127,0.16955 1.05118,0.16955 h 0.48604 v 0.94946 l -3.92217,0.18085 v -1.79719 q -1.13031,1.02858 -2.12498,1.45809 -0.98337,0.42952 -1.97804,0.42952 -2.04586,0 -3.40222,-1.63894 -1.34507,-1.65025 -1.34507,-3.96738 0,-1.65025 0.71209,-3.01793 0.7234,-1.37897 1.89892,-2.10237 1.17552,-0.7234 2.5771,-0.7234 1.07379,0 1.98934,0.37301 0.91555,0.373 1.67286,1.119 v -4.98466 z m 1.89892,11.93605 v -4.27256 q 0,-0.91555 -0.3504,-1.49201 -0.33909,-0.58776 -1.13031,-1.01727 -0.77991,-0.42952 -1.60503,-0.42952 -0.98337,0 -1.8198,0.54255 -0.82512,0.53124 -1.29985,1.54852 -0.46343,1.00597 -0.46343,2.44146 0,1.35637 0.42952,2.35104 0.44082,0.98337 1.17552,1.50331 0.7347,0.50864 1.50331,0.50864 0.7573,0 1.71807,-0.42952 0.96076,-0.44082 1.8424,-1.25464 z"
         id="path11501" /><path
         d="m 281.39266,469.90711 v -0.96076 q 0.76861,-0.0678 1.40159,-0.25997 0.64427,-0.20345 1.60503,-0.68949 h 0.84773 v 13.71064 q 0,0.94945 0.0452,1.15291 0.11303,0.42952 0.3843,0.59906 0.27127,0.16955 1.05119,0.16955 h 0.48603 v 0.94946 l -3.92217,0.18085 v -1.79719 q -1.13031,1.02858 -2.12498,1.45809 -0.98337,0.42952 -1.97804,0.42952 -2.04585,0 -3.40222,-1.63894 -1.34507,-1.65025 -1.34507,-3.96738 0,-1.65025 0.7121,-3.01793 0.72339,-1.37897 1.89891,-2.10237 1.17552,-0.7234 2.5771,-0.7234 1.0738,0 1.98935,0.37301 0.91554,0.373 1.67285,1.119 v -4.98466 z m 1.89892,11.93605 v -4.27256 q 0,-0.91555 -0.35039,-1.49201 -0.3391,-0.58776 -1.13031,-1.01727 -0.77991,-0.42952 -1.60504,-0.42952 -0.98337,0 -1.81979,0.54255 -0.82513,0.53124 -1.29986,1.54852 -0.46342,1.00597 -0.46342,2.44146 0,1.35637 0.42951,2.35104 0.44082,0.98337 1.17552,1.50331 0.7347,0.50864 1.50331,0.50864 0.75731,0 1.71807,-0.42952 0.96076,-0.44082 1.8424,-1.25464 z"
         id="path11503" /><path
         d="m 291.49761,468.30208 q 0.54255,0 0.92685,0.3843 0.38431,0.373 0.38431,0.91555 0,0.54255 -0.38431,0.92685 -0.3843,0.38431 -0.92685,0.38431 -0.54255,0 -0.92685,-0.38431 -0.38431,-0.3843 -0.38431,-0.92685 0,-0.54255 0.38431,-0.91555 0.3843,-0.3843 0.92685,-0.3843 z m -2.88228,6.9966 v -0.93815 q 0.93815,-0.11303 1.57112,-0.31649 0.64428,-0.20346 1.4581,-0.64428 h 0.82513 v 9.06507 q 0,0.47473 0.13563,0.7121 0.13564,0.23736 0.373,0.35039 0.24867,0.10173 0.89295,0.10173 h 0.53124 v 0.94946 h -5.78717 v -0.94946 h 0.46342 q 0.75731,0 1.01728,-0.13564 0.25997,-0.13563 0.3617,-0.3843 0.11303,-0.24867 0.11303,-1.16422 v -6.64621 z"
         id="path11505" /><path
         d="m 303.29803,473.67104 h 0.79121 l 1.01728,3.45874 -1.01728,0.33909 q -0.61036,-1.39028 -1.71806,-2.18149 -1.0964,-0.80252 -2.22671,-0.80252 -0.87034,0 -1.41288,0.42952 -0.54255,0.41821 -0.54255,0.97206 0,0.51994 0.39561,0.89294 0.3843,0.38431 1.72937,0.87034 l 2.2041,0.77991 q 1.865,0.66689 2.54319,1.42419 0.66688,0.76861 0.66688,1.74068 0,0.82512 -0.49734,1.59373 -0.49733,0.75731 -1.44679,1.20943 -0.93815,0.45212 -2.15889,0.45212 -1.89891,0 -3.25528,-1.08509 l -0.23737,0.81382 H 297.33 l -1.41288,-3.69611 1.02858,-0.40691 q 1.02858,1.62764 1.94413,2.30583 1.27725,0.96076 2.75795,0.96076 0.98337,0 1.61634,-0.51994 0.63297,-0.53125 0.63297,-1.17552 0,-0.53125 -0.39561,-0.97207 -0.40691,-0.42951 -1.55982,-0.83642 l -2.61101,-0.94946 q -1.68416,-0.61037 -2.33974,-1.33377 -0.65558,-0.72339 -0.65558,-1.66155 0,-1.14161 1.06249,-2.01195 1.07379,-0.88164 2.72404,-0.88164 0.85904,0 1.53722,0.22607 0.67819,0.21475 1.33377,0.72339 z"
         id="path11507" /><path
         d="m 317.67555,481.42495 0.72339,0.58776 q -2.12498,2.83707 -5.09768,2.83707 -2.31714,0 -3.91087,-1.65025 -1.59373,-1.65025 -1.59373,-4.10301 0,-1.63895 0.7347,-2.9388 0.746,-1.31116 2.05716,-2.03456 1.32246,-0.7234 3.02922,-0.7234 1.94413,0 3.24398,0.96077 1.29986,0.94945 1.29986,1.92152 0,0.51994 -0.30518,0.80252 -0.30519,0.28257 -0.68949,0.28257 -0.20346,0 -0.39561,-0.10172 -0.19215,-0.10173 -0.39561,-0.32779 -0.0904,-0.10173 -0.32779,-0.63297 -0.30518,-0.65558 -0.47473,-0.88164 -0.35039,-0.45213 -0.87033,-0.7121 -0.50864,-0.25997 -1.14161,-0.25997 -0.96077,0 -1.78589,0.53125 -0.81382,0.53124 -1.29985,1.57112 -0.47473,1.02858 -0.47473,2.46407 0,2.22671 1.18682,3.53787 1.02858,1.1303 2.45277,1.1303 0.65558,0 1.32246,-0.21475 0.67818,-0.22607 1.27725,-0.65558 0.44082,-0.30519 1.43549,-1.39028 z"
         id="path11509" /><path
         d="m 327.84832,478.03403 v -1.23204 q 0,-1.25464 -0.70079,-1.78589 -0.70079,-0.54254 -1.97804,-0.54254 -0.63297,0 -1.1077,0.15824 -0.47473,0.14694 -0.76861,0.41821 -0.28258,0.25997 -0.41821,0.59907 -0.0565,0.12433 -0.27128,0.96076 -0.25997,1.01728 -1.05118,1.01728 -0.45213,0 -0.7347,-0.29388 -0.27128,-0.30519 -0.27128,-0.81383 0,-0.746 0.55385,-1.45809 0.55385,-0.7234 1.68416,-1.18683 1.14161,-0.47473 2.69013,-0.47473 1.4468,0 2.47538,0.45213 1.02858,0.44082 1.51461,1.27725 0.33909,0.57645 0.33909,2.10237 v 4.35168 q 0,0.92685 0.0565,1.20943 0.12433,0.48603 0.42951,0.7347 0.31649,0.23737 0.81382,0.23737 0.51995,0 1.24334,-0.24867 v 0.98337 q -0.93815,0.27127 -1.68416,0.27127 -0.80251,0 -1.35636,-0.22606 -0.54255,-0.22606 -0.89295,-0.65558 -0.35039,-0.44082 -0.45212,-1.03988 -1.35637,1.06249 -2.45277,1.492 -1.0964,0.42952 -2.2154,0.42952 -1.55983,0 -2.53189,-0.84773 -0.97206,-0.84773 -0.97206,-1.98934 0,-0.68949 0.35039,-1.31116 0.3617,-0.62167 1.0851,-1.0964 0.7347,-0.47473 2.29452,-0.83643 1.55983,-0.36169 4.32908,-0.65557 z m 0,0.98336 q -2.62231,0.38431 -3.24398,0.53125 -1.23204,0.28258 -1.76328,0.62167 -0.53125,0.33909 -0.75731,0.7347 -0.22606,0.3843 -0.22606,0.82512 0,0.44082 0.24867,0.85904 0.25997,0.40691 0.72339,0.64427 0.46343,0.23737 0.98337,0.23737 0.7347,0 1.66155,-0.3504 0.92686,-0.35039 2.37365,-1.36767 z"
         id="path11511" /><path
         d="m 333.12684,475.28738 v -0.92685 q 0.82512,-0.0678 1.4694,-0.27128 0.64428,-0.21476 1.4694,-0.68949 h 0.84773 v 2.13629 q 0.80252,-0.98337 1.86501,-1.55983 1.06249,-0.57646 1.91022,-0.57646 0.83643,0 1.32246,0.39561 0.48603,0.39561 0.48603,0.96076 0,0.40691 -0.32779,0.7234 -0.31648,0.30518 -0.76861,0.30518 -0.20345,0 -0.35039,-0.0565 -0.14694,-0.0565 -0.42952,-0.24867 -0.62167,-0.40691 -1.03988,-0.40691 -0.56516,0 -1.24334,0.47473 -0.85904,0.61037 -1.34507,1.19813 v 5.21071 q 0,0.67819 0.0678,0.92686 0.0791,0.23736 0.24867,0.41821 0.16954,0.16955 0.41821,0.24867 0.24867,0.0791 0.87034,0.0791 h 0.373 v 0.94946 h -5.84369 v -0.94946 h 0.48603 q 0.68949,0 0.90425,-0.12433 0.29388,-0.16955 0.42952,-0.46343 0.14694,-0.30518 0.14694,-1.0851 v -6.66881 z"
         id="path11513" /><path
         d="m 350.37535,469.90711 v -0.96076 q 0.7686,-0.0678 1.40158,-0.25997 0.64427,-0.20345 1.60503,-0.68949 h 0.84773 v 13.71064 q 0,0.94945 0.0452,1.15291 0.11303,0.42952 0.3843,0.59906 0.27128,0.16955 1.05119,0.16955 h 0.48603 v 0.94946 l -3.92217,0.18085 v -1.79719 q -1.13031,1.02858 -2.12498,1.45809 -0.98336,0.42952 -1.97803,0.42952 -2.04586,0 -3.40223,-1.63894 -1.34507,-1.65025 -1.34507,-3.96738 0,-1.65025 0.7121,-3.01793 0.72339,-1.37897 1.89891,-2.10237 1.17552,-0.7234 2.57711,-0.7234 1.07379,0 1.98934,0.37301 0.91555,0.373 1.67285,1.119 v -4.98466 z m 1.89891,11.93605 v -4.27256 q 0,-0.91555 -0.35039,-1.49201 -0.3391,-0.58776 -1.13031,-1.01727 -0.77991,-0.42952 -1.60504,-0.42952 -0.98337,0 -1.81979,0.54255 -0.82513,0.53124 -1.29986,1.54852 -0.46342,1.00597 -0.46342,2.44146 0,1.35637 0.42951,2.35104 0.44082,0.98337 1.17552,1.50331 0.7347,0.50864 1.50331,0.50864 0.75731,0 1.71807,-0.42952 0.96076,-0.44082 1.8424,-1.25464 z"
         id="path11515" /><path
         d="m 24.541559,492.9767 h 0.802518 v 3.84305 h 3.357014 v 1.13031 h -3.357014 v 6.81575 q 0,0.87034 0.14694,1.24334 0.158243,0.373 0.519942,0.61037 0.373001,0.23736 0.825124,0.23736 1.073792,0 2.373646,-0.96076 v 1.0964 q -1.480703,1.00597 -2.995315,1.00597 -0.859034,0 -1.559825,-0.3843 -0.689487,-0.38431 -0.949458,-0.90425 -0.248668,-0.51994 -0.248668,-1.80849 v -6.95139 h -1.978038 v -0.94946 q 0.949458,-0.21476 1.525915,-0.66688 0.58776,-0.45212 0.949459,-1.17552 0.361698,-0.7234 0.58776,-2.1815 z"
         id="path11517" /><path
         d="m 30.362643,493.06713 v -0.97207 q 1.096399,-0.14694 1.706765,-0.33909 0.610366,-0.20345 1.277247,-0.61036 h 0.88164 v 7.47133 q 1.277248,-1.07379 2.418859,-1.57113 1.14161,-0.49733 2.181494,-0.49733 1.514612,0 2.497979,0.90424 0.972065,0.90425 0.972065,2.2041 v 5.54981 q 0,0.82513 0.124334,1.0851 0.135637,0.24867 0.44082,0.373 0.305183,0.11303 1.367672,0.11303 v 0.94946 h -5.832387 v -0.94946 h 0.429517 q 0.825124,0 1.085095,-0.12433 0.259971,-0.13564 0.373001,-0.42952 0.124334,-0.30518 0.124334,-1.24334 v -3.85435 q 0,-1.27724 -0.09042,-1.66155 -0.169547,-0.65558 -0.700791,-1.05119 -0.531245,-0.3956 -1.356369,-0.3956 -0.926853,0 -1.944129,0.46342 -1.005974,0.45213 -2.09107,1.36768 v 5.66284 q 0,0.63297 0.113031,0.84773 0.113031,0.21476 0.373002,0.31648 0.25997,0.10173 1.039883,0.10173 h 0.463426 v 0.94946 h -5.854994 v -0.94946 h 0.350396 q 0.825124,0 1.198126,-0.20345 0.203455,-0.10173 0.29388,-0.39561 0.09042,-0.29388 0.09042,-1.62764 v -11.48393 z"
         id="path11519" /><path
         d="m 48.436263,491.45079 q 0.542548,0 0.926853,0.3843 0.384304,0.37301 0.384304,0.91555 0,0.54255 -0.384304,0.92686 -0.384305,0.3843 -0.926853,0.3843 -0.542547,0 -0.926852,-0.3843 -0.384305,-0.38431 -0.384305,-0.92686 0,-0.54254 0.384305,-0.91555 0.384305,-0.3843 0.926852,-0.3843 z m -2.882284,6.9966 v -0.93815 q 0.938155,-0.11303 1.571127,-0.31649 0.644276,-0.20345 1.458097,-0.64427 h 0.825125 v 9.06506 q 0,0.47473 0.135637,0.7121 0.135637,0.23736 0.373001,0.35039 0.248668,0.10173 0.892943,0.10173 h 0.531245 v 0.94946 h -5.787175 v -0.94946 h 0.463426 q 0.757306,0 1.017277,-0.13564 0.259971,-0.13563 0.361698,-0.3843 0.113031,-0.24867 0.113031,-1.16422 v -6.64621 z"
         id="path11521" /><path
         d="m 60.236675,496.81975 h 0.791215 l 1.017277,3.45874 -1.017277,0.33909 q -0.610366,-1.39027 -1.718068,-2.18149 -1.096398,-0.80252 -2.226706,-0.80252 -0.870337,0 -1.412884,0.42952 -0.542548,0.41821 -0.542548,0.97206 0,0.51995 0.395608,0.89295 0.384304,0.3843 1.72937,0.87033 l 2.2041,0.77992 q 1.865008,0.66688 2.543192,1.42418 0.666882,0.76861 0.666882,1.74068 0,0.82512 -0.497335,1.59373 -0.497336,0.75731 -1.446794,1.20943 -0.938156,0.45212 -2.158888,0.45212 -1.898917,0 -3.255286,-1.08509 l -0.237364,0.81382 H 54.26865 l -1.412884,-3.69611 1.02858,-0.40691 q 1.028579,1.62765 1.944129,2.30583 1.277247,0.96076 2.75795,0.96076 0.983368,0 1.61634,-0.51994 0.632973,-0.53124 0.632973,-1.17552 0,-0.53124 -0.395608,-0.97206 -0.406911,-0.42952 -1.559825,-0.83643 l -2.61101,-0.94946 q -1.684159,-0.61037 -2.339737,-1.33376 -0.655579,-0.7234 -0.655579,-1.66156 0,-1.14161 1.06249,-2.01194 1.073792,-0.88164 2.724041,-0.88164 0.859034,0 1.537218,0.22606 0.678185,0.21476 1.333763,0.7234 z"
         id="path11523" /><path
         d="m 82.017701,504.57366 0.723397,0.58776 q -2.124978,2.83707 -5.097687,2.83707 -2.317131,0 -3.910865,-1.65025 -1.593734,-1.65024 -1.593734,-4.10301 0,-1.63895 0.7347,-2.9388 0.746003,-1.31116 2.05716,-2.03456 1.32246,-0.72339 3.029225,-0.72339 1.944129,0 3.243983,0.96076 1.299854,0.94946 1.299854,1.92152 0,0.51994 -0.305184,0.80252 -0.305183,0.28258 -0.689487,0.28258 -0.203456,0 -0.395608,-0.10173 -0.192152,-0.10173 -0.395608,-0.32779 -0.09042,-0.10173 -0.327789,-0.63297 -0.305183,-0.65558 -0.474729,-0.88164 -0.350395,-0.45213 -0.870337,-0.7121 -0.508638,-0.25997 -1.141611,-0.25997 -0.960761,0 -1.785886,0.53125 -0.813821,0.53124 -1.299853,1.57113 -0.47473,1.02858 -0.47473,2.46407 0,2.2267 1.186823,3.53786 1.02858,1.13031 2.452768,1.13031 0.655578,0 1.32246,-0.21476 0.678184,-0.22606 1.277248,-0.65558 0.44082,-0.30518 1.43549,-1.39028 z"
         id="path11525" /><path
         d="m 92.190474,501.18274 v -1.23204 q 0,-1.25464 -0.70079,-1.78588 -0.700791,-0.54255 -1.978039,-0.54255 -0.632972,0 -1.107701,0.15824 -0.474729,0.14694 -0.768609,0.41822 -0.282577,0.25997 -0.418214,0.59906 -0.05652,0.12433 -0.271274,0.96076 -0.259971,1.01728 -1.051186,1.01728 -0.452123,0 -0.7347,-0.29388 -0.271274,-0.30519 -0.271274,-0.81382 0,-0.74601 0.553851,-1.4581 0.55385,-0.7234 1.684158,-1.18682 1.141611,-0.47473 2.690132,-0.47473 1.446794,0 2.475374,0.45212 1.02858,0.44082 1.514612,1.27725 0.339093,0.57645 0.339093,2.10237 v 4.35168 q 0,0.92686 0.05652,1.20943 0.124334,0.48604 0.429517,0.7347 0.316486,0.23737 0.813821,0.23737 0.519942,0 1.243339,-0.24867 v 0.98337 q -0.938156,0.27127 -1.684159,0.27127 -0.802518,0 -1.356369,-0.22606 -0.542547,-0.22606 -0.892943,-0.65558 -0.350395,-0.44082 -0.452123,-1.03988 -1.356369,1.06249 -2.452767,1.49201 -1.096399,0.42951 -2.215403,0.42951 -1.559825,0 -2.53189,-0.84773 -0.972064,-0.84773 -0.972064,-1.98934 0,-0.68949 0.350395,-1.31116 0.361699,-0.62167 1.085096,-1.0964 0.7347,-0.47472 2.294524,-0.83642 1.559825,-0.3617 4.329078,-0.65558 z m 0,0.98337 q -2.622313,0.3843 -3.243983,0.53124 -1.232035,0.28258 -1.76328,0.62167 -0.531244,0.33909 -0.757306,0.7347 -0.226061,0.3843 -0.226061,0.82512 0,0.44082 0.248668,0.85904 0.25997,0.40691 0.723396,0.64427 0.463427,0.23737 0.983368,0.23737 0.7347,0 1.661552,-0.3504 0.926853,-0.35039 2.373646,-1.36767 z"
         id="path11527" /><path
         d="m 97.469011,498.43609 v -0.92685 q 0.825125,-0.0678 1.4694,-0.27128 0.644275,-0.21475 1.469399,-0.68948 h 0.84773 v 2.13628 q 0.80252,-0.98337 1.86501,-1.55983 1.06249,-0.57645 1.91022,-0.57645 0.83643,0 1.32246,0.3956 0.48603,0.39561 0.48603,0.96077 0,0.40691 -0.32779,0.72339 -0.31648,0.30519 -0.76861,0.30519 -0.20345,0 -0.35039,-0.0565 -0.14694,-0.0565 -0.42952,-0.24867 -0.62167,-0.40691 -1.03988,-0.40691 -0.56516,0 -1.24334,0.47473 -0.85903,0.61037 -1.34507,1.19813 v 5.21072 q 0,0.67818 0.0678,0.92685 0.0791,0.23736 0.24867,0.41821 0.16955,0.16955 0.41821,0.24867 0.24867,0.0791 0.87034,0.0791 h 0.373 v 0.94946 h -5.843689 v -0.94946 h 0.486032 q 0.689488,0 0.904246,-0.12433 0.29388,-0.16955 0.429517,-0.46343 0.14694,-0.30518 0.14694,-1.08509 v -6.66882 z"
         id="path11529" /><path
         d="m 114.7175,493.05583 v -0.96077 q 0.76861,-0.0678 1.40158,-0.25997 0.64428,-0.20345 1.60504,-0.68948 h 0.84773 v 13.71063 q 0,0.94946 0.0452,1.15291 0.11303,0.42952 0.38431,0.59907 0.27127,0.16954 1.05118,0.16954 h 0.48604 v 0.94946 l -3.92217,0.18085 v -1.79719 q -1.13031,1.02858 -2.12498,1.4581 -0.98337,0.42951 -1.97804,0.42951 -2.04586,0 -3.40223,-1.63894 -1.34506,-1.65025 -1.34506,-3.96738 0,-1.65025 0.71209,-3.01792 0.7234,-1.37898 1.89892,-2.10238 1.17552,-0.72339 2.5771,-0.72339 1.07379,0 1.98934,0.373 0.91555,0.373 1.67286,1.119 v -4.98465 z m 1.89892,11.93605 v -4.27257 q 0,-0.91555 -0.3504,-1.492 -0.33909,-0.58776 -1.13031,-1.01728 -0.77991,-0.42952 -1.60503,-0.42952 -0.98337,0 -1.8198,0.54255 -0.82512,0.53124 -1.29985,1.54852 -0.46343,1.00598 -0.46343,2.44147 0,1.35637 0.42952,2.35104 0.44082,0.98336 1.17552,1.50331 0.7347,0.50863 1.50331,0.50863 0.7573,0 1.71807,-0.42951 0.96076,-0.44082 1.8424,-1.25464 z"
         id="path11531" /><path
         d="m 124.89027,505.0936 q 0.59907,0 1.00598,0.41822 0.41821,0.40691 0.41821,0.99467 0,0.58776 -0.41821,1.00597 -0.41822,0.40691 -1.00598,0.40691 -0.57645,0 -0.99467,-0.40691 -0.41821,-0.41821 -0.41821,-1.00597 0,-0.58776 0.40691,-0.99467 0.41821,-0.41822 1.00597,-0.41822 z"
         id="path11533" /></g><g
       style="fill:none;fill-rule:evenodd;stroke:#000000;stroke-width:1.5;stroke-linecap:round;stroke-linejoin:round"
       transform="matrix(0.26458333,0,0,0.26458333,-42.393733,64.962984)"
       id="g4381"><g
         id="path4373"><path
           style="color:#000000;fill:#ffffff;fill-rule:nonzero;stroke:none;stroke-width:13.3899;stroke-linecap:butt;stroke-linejoin:miter;-inkscape-stroke:none"
           d="m 360.09773,-89.842418 c 93.72907,8.926576 147.28853,71.412626 142.82524,258.870768 H 297.61168 c 0,-80.339211 89.26578,-58.02277 71.41263,-187.458142"
           id="path11685" /><path
           style="color:#000000;fill:#000000;fill-rule:nonzero;stroke:none;stroke-linecap:butt;stroke-linejoin:miter;-inkscape-stroke:none"
           d="m 360.73242,-96.507812 a 6.6949501,6.6949501 0 0 0 -7.29883,6.03125 6.6949501,6.6949501 0 0 0 6.0293,7.298828 c 45.51655,4.334908 79.70127,20.931625 103.15625,59.3125 22.88183,37.442992 35.10908,96.91014 33.64063,186.199214 H 304.76953 c 1.08446,-14.91473 5.47045,-25.38909 11.94336,-34.37304 7.43665,-10.32156 17.73759,-18.93419 28.09766,-29.582034 20.72013,-21.295687 39.97152,-51.560458 30.8457,-117.722656 a 6.6949501,6.6949501 0 0 0 -7.54688,-5.71875 6.6949501,6.6949501 0 0 0 -5.71679,7.546875 c 8.72731,63.273045 -7.7283,86.566944 -27.17774,106.556641 -9.72471,9.994848 -20.62442,18.957444 -29.36718,31.091794 -8.74276,12.13435 -14.93164,27.5719 -14.93164,48.89649 a 6.6956196,6.6956196 0 0 0 6.69531,6.69336 h 205.3125 a 6.6956196,6.6956196 0 0 0 6.6914,-6.53516 c 2.24724,-94.383745 -9.92916,-158.076907 -35.57031,-200.035156 -25.64115,-41.95825 -65.10008,-61.068498 -113.3125,-65.660156 z"
           id="path11687" /></g><g
         id="path4375"><path
           style="color:#000000;fill:#ffffff;fill-rule:nonzero;stroke:none;stroke-width:13.3899;stroke-linecap:butt;stroke-linejoin:miter;-inkscape-stroke:none"
           d="m 377.95088,-18.429792 c 3.3921,25.9763384 -49.5425,65.788875 -71.41262,80.339199 -26.77973,17.853162 -25.17295,38.741343 -44.63288,35.706309 -9.3015,-8.390977 12.58647,-27.136798 0,-26.779731 -8.92658,0 1.69605,10.979695 -8.92658,17.853154 -8.92658,0 -35.73309,8.926577 -35.70631,-35.706315 0,-17.853147 53.55946,-107.118924 53.55946,-107.118924 0,0 16.87123,-16.960502 17.85316,-31.243025 -6.5164,-8.87302 -4.46328,-17.853155 -4.46328,-26.779735 8.92656,-8.92657 26.77973,22.316442 26.77973,22.316442 h 17.85315 c 0,0 6.96273,-17.781742 22.31644,-26.779732 8.92658,0 8.92658,26.779732 8.92658,26.779732"
           id="path11691" /><path
           style="color:#000000;fill:#000000;fill-rule:nonzero;stroke:none;stroke-linecap:butt;stroke-linejoin:miter;-inkscape-stroke:none"
           d="m 351.17187,-123.31641 a 6.6956196,6.6956196 0 0 0 -3.38671,0.91797 c -12.85271,7.53229 -20.03879,19.55464 -23.17383,25.861331 h -9.8711 c -1.82856,-2.969164 -4.6031,-7.254981 -8.63867,-12.097661 -3.04718,-3.65661 -6.36678,-7.192 -10.60742,-9.61523 -2.12032,-1.21161 -4.5931,-2.20703 -7.55859,-2.20703 -2.96549,0 -6.24656,1.36375 -8.44727,3.56445 a 6.6956196,6.6956196 0 0 0 -1.96094,4.73438 c 0,7.27219 -1.95159,17.753687 4.10938,28.072263 -0.92383,4.638792 -4.11451,10.825105 -7.67774,15.771484 -4.00893,5.565106 -7.87304,9.457031 -7.87304,9.457031 a 6.6956196,6.6956196 0 0 0 -0.99414,1.277344 c 0,0 -13.44644,22.405708 -26.91797,47.103515 -6.73577,12.3489041 -13.48065,25.268293 -18.61133,36.384766 -2.56534,5.558237 -4.72852,10.656922 -6.30273,15.117188 -1.57369,4.458781 -2.68091,8.049256 -2.68165,11.953125 -0.007,11.828241 1.72009,20.632171 4.98829,27.34375 3.26819,6.711578 8.31354,11.154871 13.56445,13.404296 10.50181,4.498851 21.61602,1.658204 23.84766,1.658204 a 6.6956196,6.6956196 0 0 0 0.375,-0.111329 c 0.59002,2.65725 1.82415,5.287973 4.06835,7.312503 a 6.6956196,6.6956196 0 0 0 3.45118,1.64453 c 6.00642,0.93678 11.59339,-0.069 15.90625,-2.66797 4.31286,-2.598928 7.20875,-6.206617 10.02734,-9.914063 5.63622,-7.413611 11.10821,-15.941547 23.43945,-24.164062 l 0.006,-0.0039 c 11.20626,-7.455934 30.09782,-21.161754 46.11719,-36.640625 8.01088,-7.740593 15.31015,-15.901912 20.58398,-24.2187503 5.27384,-8.3168381 8.80267,-16.9892817 7.63672,-25.9179687 a 6.6949501,6.6949501 0 0 0 -7.50586,-5.771484 6.6949501,6.6949501 0 0 0 -5.77148,7.505859 c 0.5301,4.059469 -1.28716,10.1051318 -5.66797,17.01367188 C 361.26372,6.359712 354.59891,13.932579 347.06641,21.210937 c -15.06502,14.556718 -33.57187,28.02987 -44.23633,35.125 a 6.6956196,6.6956196 0 0 0 -0.006,0.0039 c -14.44397,9.629315 -21.55841,20.469407 -26.67774,27.203125 -2.55966,3.366859 -4.58346,5.528871 -6.27929,6.550781 -1.01648,0.612531 -2.14496,0.917945 -3.54492,1.025391 0.006,-0.03041 0.004,-0.01685 0.01,-0.04883 0.30746,-1.647016 1.48774,-4.412312 2.83984,-7.224609 1.35211,-2.812296 3.08312,-5.235479 3.41211,-9.660156 0.1645,-2.212339 -0.71425,-5.853207 -3.28711,-7.892578 -2.54514,-2.017408 -5.14636,-2.203843 -7.50195,-2.142578 -1.77034,0.0092 -3.64595,0.241097 -5.5664,1.271484 -1.9597,1.051444 -3.59258,3.107811 -4.25977,4.890625 -1.33438,3.565628 -0.67071,5.625301 -0.57422,7.265625 0.0965,1.640324 0.0352,2.73637 -0.17187,3.384766 -0.12501,0.391443 -0.34171,0.752583 -0.73829,1.166015 -5.83881,0.281971 -11.60108,1.209763 -16.08007,-0.708984 -2.56319,-1.098039 -4.77134,-2.791306 -6.80078,-6.958985 -2.02945,-4.167678 -3.64302,-10.986426 -3.63672,-21.474609 a 6.6956196,6.6956196 0 0 0 0,-0.0039 c 0,-0.557905 0.5651,-3.661348 1.91992,-7.5 1.35482,-3.838652 3.37813,-8.641873 5.83398,-13.962891 4.91171,-10.642035 11.5549,-23.3867778 18.20899,-35.5859372 13.0476,-23.9205978 25.80945,-45.2244608 26.3164,-46.0703128 0.88655,-0.911185 4.44758,-4.620355 8.57618,-10.351562 4.67215,-6.485764 9.88448,-14.853743 10.54296,-24.431641 a 6.6956196,6.6956196 0 0 0 -1.2832,-4.421875 c -3.49211,-4.755014 -3.51014,-9.829464 -3.29492,-15.748043 1.53234,1.27274 3.27838,2.92624 5.0293,5.02734 5.06385,6.076618 9.37304,13.541016 9.37304,13.541016 a 6.6956196,6.6956196 0 0 0 5.8125,3.373047 h 17.85352 a 6.6956196,6.6956196 0 0 0 6.23242,-4.251954 c 0,0 5.36103,-12.685049 15.61719,-20.746089 0.61055,1.57269 1.26381,3.55553 1.67383,6.01562 0.99683,5.980997 1.02343,12.289063 1.02343,12.289063 a 6.6949501,6.6949501 0 0 0 6.69532,6.69336 6.6949501,6.6949501 0 0 0 6.69531,-6.69336 c 0,0 0.0278,-7.081378 -1.20703,-14.490233 -0.61741,-3.70443 -1.47805,-7.52446 -3.26563,-11.09961 -0.89379,-1.78758 -2.03457,-3.57065 -3.8457,-5.12305 -1.81114,-1.5524 -4.51318,-2.76172 -7.30274,-2.76172 z"
           id="path11693" /></g><g
         id="path4377"><path
           style="color:#000000;fill:#000000;fill-rule:nonzero;stroke:none;stroke-width:13.3899;stroke-linecap:butt;stroke-linejoin:miter;-inkscape-stroke:none"
           d="m 248.51551,48.519535 a 4.46329,4.46329 0 1 1 -8.92658,0 4.46329,4.46329 0 1 1 8.92658,0 z"
           id="path11697" /><path
           style="color:#000000;fill:#000000;fill-rule:nonzero;stroke:none;stroke-linecap:butt;stroke-linejoin:miter;-inkscape-stroke:none"
           d="m 244.05273,37.361328 c -2.60358,0 -5.30033,0.83576 -7.51757,2.806641 -2.21725,1.970881 -3.64063,5.190064 -3.64063,8.351562 0,3.161498 1.42338,6.380682 3.64063,8.351563 2.21724,1.970881 4.91399,2.80664 7.51757,2.80664 2.60359,0 5.29839,-0.835759 7.51563,-2.80664 2.21724,-1.970881 3.64258,-5.190065 3.64258,-8.351563 0,-3.161498 -1.42534,-6.380681 -3.64258,-8.351562 -2.21724,-1.970881 -4.91204,-2.806641 -7.51563,-2.806641 z m 0,8.925781 c 0.37195,0 0.8354,0.09305 1.37891,0.576172 0.54351,0.48312 0.85156,1.470275 0.85156,1.65625 0,0.185976 -0.30805,1.17313 -0.85156,1.65625 -0.54351,0.48312 -1.00696,0.576172 -1.37891,0.576172 -0.37194,0 -0.83734,-0.09305 -1.38086,-0.576172 -0.54351,-0.48312 -0.85156,-1.470274 -0.85156,-1.65625 0,-0.185975 0.30805,-1.17313 0.85156,-1.65625 0.54352,-0.48312 1.00892,-0.576172 1.38086,-0.576172 z"
           id="path11699" /></g><g
         id="path4379"><path
           style="color:#000000;fill:#000000;fill-rule:nonzero;stroke:none;stroke-width:13.3897;stroke-linecap:butt;stroke-linejoin:miter;-inkscape-stroke:none"
           d="m 297.01361,-38.51459 a 4.4631925,13.389577 30.000728 1 1 -7.73042,-4.463289 4.4631925,13.389577 30.000728 1 1 7.73042,4.463289 z"
           id="path11703" /><path
           style="color:#000000;fill:#000000;fill-rule:nonzero;stroke:none;stroke-linecap:butt;stroke-linejoin:miter;-inkscape-stroke:none"
           d="m 298.89453,-59.240234 c -1.36688,0.01896 -2.6112,0.340903 -3.5625,0.720703 -1.90259,0.7596 -3.28715,1.797852 -4.625,2.984375 -2.6757,2.373045 -5.0723,5.48567 -7.22266,9.210937 -2.15035,3.724008 -3.64607,7.356393 -4.36328,10.859375 -0.35867,1.751864 -0.56684,3.468595 -0.27343,5.496094 0.29341,2.027499 1.37157,4.953848 4.25586,6.619141 2.88428,1.665293 5.95873,1.136553 7.86132,0.376953 1.90259,-0.7596 3.2852,-1.797853 4.62305,-2.984375 2.67511,-2.372523 5.07267,-5.484808 7.22266,-9.208985 2.15109,-3.724839 3.64787,-7.357601 4.36523,-10.861328 0.35868,-1.751863 0.56685,-3.468595 0.27344,-5.496093 -0.29341,-2.027499 -1.37157,-4.953848 -4.25586,-6.619141 -1.44215,-0.832647 -2.93195,-1.116621 -4.29883,-1.097656 z"
           id="path11705" /></g></g></g></svg>
