<?xml version="1.0" encoding="UTF-8" standalone="no"?>
<!-- Created with Inkscape (http://www.inkscape.org/) -->

<svg
   width="400"
   height="600"
   viewBox="0 0 105.83333 158.75"
   version="1.1"
   id="svg5"
   inkscape:export-filename="CardTemplate.svg"
   inkscape:export-xdpi="26.281288"
   inkscape:export-ydpi="26.281288"
   inkscape:version="1.2.2 (732a01da63, 2022-12-09)"
   sodipodi:docname="PawnCard.svg"
   xml:space="preserve"
   xmlns:inkscape="http://www.inkscape.org/namespaces/inkscape"
   xmlns:sodipodi="http://sodipodi.sourceforge.net/DTD/sodipodi-0.dtd"
   xmlns="http://www.w3.org/2000/svg"
   xmlns:svg="http://www.w3.org/2000/svg"><sodipodi:namedview
     id="namedview7"
     pagecolor="#505050"
     bordercolor="#ffffff"
     borderopacity="1"
     inkscape:showpageshadow="0"
     inkscape:pageopacity="0"
     inkscape:pagecheckerboard="1"
     inkscape:deskcolor="#505050"
     inkscape:document-units="mm"
     showgrid="false"
     showguides="true"
     inkscape:zoom="1.0129245"
     inkscape:cx="-31.591693"
     inkscape:cy="326.28296"
     inkscape:window-width="1920"
     inkscape:window-height="991"
     inkscape:window-x="-9"
     inkscape:window-y="-9"
     inkscape:window-maximized="1"
     inkscape:current-layer="layer1" /><defs
     id="defs2"><linearGradient
       id="linearGradient3910"
       inkscape:swatch="solid"><stop
         style="stop-color:#000000;stop-opacity:1;"
         offset="0"
         id="stop3908" /></linearGradient><linearGradient
       id="linearGradient3902"
       inkscape:swatch="solid"><stop
         style="stop-color:#000000;stop-opacity:1;"
         offset="0"
         id="stop3900" /></linearGradient><linearGradient
       id="linearGradient1908"
       inkscape:swatch="gradient"><stop
         style="stop-color:#412a2a;stop-opacity:1;"
         offset="0.83033931"
         id="stop1904" /><stop
         style="stop-color:#412a2a;stop-opacity:0;"
         offset="0.84431136"
         id="stop1906" /></linearGradient><rect
       x="20.732048"
       y="466.96471"
       width="356.39378"
       height="115.50713"
       id="rect857" /><rect
       x="13.821366"
       y="17.770327"
       width="368.24067"
       height="96.749559"
       id="rect721" /><rect
       x="18.757568"
       y="19.744808"
       width="363.22514"
       height="30.382957"
       id="rect495" /></defs><g
     inkscape:label="Layer 1"
     inkscape:groupmode="layer"
     id="layer1"><g
       id="rect386"><path
         style="color:#000000;fill:#c87137;stroke-width:2.64597;stroke-linejoin:round;-inkscape-stroke:none;paint-order:markers fill stroke"
         d="M 1.6582794,1.6582794 H 104.84566 V 157.76231 H 1.6582794 Z"
         id="path12150" /><path
         style="color:#000000;fill:#331f14;stroke-linejoin:round;-inkscape-stroke:none;paint-order:markers fill stroke"
         d="M 1.6582031,0.3359375 A 1.3231174,1.3231174 0 0 0 0.3359375,1.6582031 V 157.76172 a 1.3231174,1.3231174 0 0 0 1.3222656,1.32422 H 104.8457 a 1.3231174,1.3231174 0 0 0 1.32227,-1.32422 V 1.6582031 A 1.3231174,1.3231174 0 0 0 104.8457,0.3359375 Z M 2.9804688,2.9804688 H 103.52344 V 156.43945 H 2.9804688 Z"
         id="path12152" /></g><g
       aria-label="Pawn"
       transform="matrix(0.26458333,0,0,0.26458333,0,9.5250005)"
       id="text719"
       style="font-size:53.3333px;line-height:0;font-family:Broadway;-inkscape-font-specification:Broadway;text-align:center;letter-spacing:0px;word-spacing:0px;baseline-shift:baseline;white-space:pre;shape-inside:url(#rect721);display:inline;opacity:1;vector-effect:none;stroke-width:0.999999;stop-color:#000000;stop-opacity:1"><path
         d="m 135.82002,36.305588 v 0.729166 l 0.026,4.999997 v 0.651041 h -15.88541 l 0.026,-1.58854 0.13021,-18.307281 -0.10417,-8.697912 -0.026,-5.9114544 -0.026,-1.0416661 h 11.90103 q 7.29167,0 11.04166,0.6249997 3.77604,0.6249996 6.32812,2.2395818 3.4375,2.161457 5.3125,6.015622 1.43229,2.942706 1.43229,6.171871 0,3.489581 -1.61458,6.666663 -1.92708,3.802081 -5.46875,5.859371 -3.51562,2.031249 -8.15103,2.031249 -1.71875,0 -4.92188,-0.442708 z m 0.026,-27.3958172 v 1.7447902 l -0.10417,17.395823 0.0521,6.484372 q 2.05729,0.546874 5.33854,0.546874 2.94271,0 5.57291,-1.171874 2.63021,-1.171874 4.45313,-3.30729 3.09895,-3.619789 3.09895,-8.411453 0,-4.557289 -3.07291,-8.255204 -2.1875,-2.630206 -5.65104,-3.828122 -3.46354,-1.1979162 -8.90624,-1.1979162 z"
         style="baseline-shift:baseline"
         id="path12044" /><path
         d="m 177.77312,25.342053 v -3.177082 q -0.026,-3.307289 -0.10416,-4.062497 -0.0781,-0.755208 -0.46875,-1.354166 -0.9375,-1.458333 -4.375,-1.458333 -5.3125,0 -8.20312,3.333332 -1.17187,1.354166 -1.97917,1.354166 -0.59895,0 -1.04166,-0.416667 -0.44271,-0.416666 -0.44271,-0.963541 0,-1.640624 3.88021,-3.385415 3.69791,-1.666665 9.55728,-1.666665 9.63541,0 13.59374,2.916665 1.71875,1.276041 2.23959,2.864581 0.52083,1.588541 0.52083,5.598955 v 10.338536 q -0.10417,2.864581 0.15625,4.322914 0.28646,1.432291 1.25,3.098956 h -14.58333 v -2.734373 q -2.39583,1.640624 -4.76562,2.473957 -2.34375,0.833333 -4.63541,0.833333 -3.88021,0 -6.90104,-2.265624 -3.93229,-2.968748 -3.93229,-7.708329 0,-4.192706 3.17708,-6.770829 3.69792,-3.046873 9.16666,-3.046873 2.23958,0 3.95833,0.416666 1.71875,0.390625 3.93229,1.458333 z m 0.026,1.874999 q -3.28124,-1.640624 -5.07812,-1.640624 -1.51041,0 -1.97916,1.197916 -0.26042,0.651041 -0.26042,3.776039 v 6.223955 q 0.026,2.05729 0.13021,2.499998 0.26042,1.197916 1.77083,1.197916 1.19792,0 2.65625,-0.703125 1.48437,-0.729166 2.70833,-1.90104 z"
         style="baseline-shift:baseline"
         id="path12046" /><path
         d="m 231.39288,28.493092 q 2.8125,-5.859371 5.54687,-13.020825 0.65104,-1.718749 0.88542,-2.083332 0.26041,-0.364583 0.72916,-0.364583 0.4948,0 0.85938,0.3125 0.36458,0.286458 0.36458,0.677082 0,0.364584 -0.28646,1.041666 -0.26041,0.677083 -1.92708,4.322915 l -3.30729,7.213537 -3.02083,6.510413 -2.47396,5.442705 -2.60416,5.963538 -9.84375,-16.953115 q -0.98958,1.640624 -2.6302,4.661456 l -6.61458,12.291659 -4.86979,-9.348953 -3.72396,-7.083329 -3.20312,-6.14583 -4.03646,-7.682287 h 14.79166 l 7.47396,14.583325 q 2.16145,-3.61979 2.99479,-5.156247 0.83333,-1.536457 6.01562,-11.406243 z"
         style="baseline-shift:baseline"
         id="path12048" /><path
         d="m 255.09078,14.248309 v 3.61979 q 3.04688,-2.161457 5.96354,-3.229165 2.91667,-1.093749 5.67708,-1.093749 3.69792,0 6.25,1.692707 1.92708,1.276041 2.57812,3.177081 0.67708,1.874999 0.67708,6.14583 l -0.0521,12.057285 0.0781,6.067704 h -13.2552 l 0.10417,-7.239579 0.0781,-5.312496 -0.026,-8.020829 q -0.026,-2.786457 -0.0781,-3.30729 -0.026,-0.546874 -0.23438,-0.963541 -0.41666,-0.833333 -1.79687,-0.833333 -1.27604,0 -2.76041,0.729167 -1.48438,0.729166 -3.20313,2.187498 l -0.026,1.067708 -0.0521,7.317704 -0.0521,5.598955 0.0781,7.656245 0.026,1.119791 h -13.30728 l 0.0781,-10.208327 0.0781,-6.744788 -0.0781,-5.833329 -0.0781,-5.651039 z"
         style="baseline-shift:baseline"
         id="path12050" /></g><g
       aria-label="Description:"
       id="text733"
       style="font-size:7.05556px;line-height:0px;font-family:Broadway;-inkscape-font-specification:Broadway;opacity:1;vector-effect:none;stroke-width:0.264583;stop-color:#000000;stop-opacity:1"><path
         d="m 4.7016462,116.51791 h 1.8121214 q 0.7096901,0 1.0679802,0.0689 0.8853902,0.16881 1.4297156,0.94396 0.4271921,0.60978 0.4271921,1.34359 0,0.74758 -0.4409725,1.36081 -0.530545,0.74069 -1.3849293,0.91984 -0.2204862,0.0448 -0.3927411,0.0551 -0.1722549,0.0103 -0.7579215,0.0103 H 4.7119815 l 0.010335,-2.27377 z m 2.1049547,0.22048 -0.017226,2.76986 0.020671,1.49173 q 0.4616431,-0.003 0.6614587,-0.0344 0.2032608,-0.0345 0.4650882,-0.14814 0.6166725,-0.26527 0.9680725,-0.85438 0.3066137,-0.50643 0.3066137,-1.09555 0,-0.64078 -0.3617353,-1.17822 -0.6442333,-0.95429 -1.9085841,-0.95429 z"
         id="path12019" /><path
         d="m 11.3748,119.44969 v 1.06798 q 0,0.31006 0.0379,0.39274 0.07235,0.15847 0.341065,0.15847 0.399631,0 0.788927,-0.21704 0.392742,-0.22049 0.678685,-0.60634 0.09302,-0.12746 0.134358,-0.16192 0.04134,-0.0344 0.08957,-0.0344 0.05857,0 0.09646,0.0448 0.0379,0.0413 0.0379,0.1068 0,0.14469 -0.230822,0.38929 -0.303168,0.31351 -0.754476,0.50988 -0.447863,0.19637 -0.875055,0.19637 -0.733806,0 -1.295357,-0.49265 -0.327284,-0.28939 -0.5029839,-0.71314 -0.1550294,-0.37207 -0.1550294,-0.74414 0,-0.35829 0.1378039,-0.71658 0.1378034,-0.36173 0.3789604,-0.62356 0.279053,-0.30661 0.661459,-0.47542 0.375516,-0.16537 0.785482,-0.16537 0.637343,0 1.154108,0.37552 0.806153,0.58566 0.799263,1.69843 h -0.802708 l -1.033529,0.003 z m 0.881945,-0.22738 v -1.00597 q -0.0069,-0.32384 -0.01378,-0.38585 -0.0069,-0.0655 -0.04823,-0.12058 -0.09646,-0.13436 -0.392742,-0.13436 -0.303168,0 -0.37896,0.15503 -0.04823,0.093 -0.04823,0.48576 v 1.00597 l 0.420302,0.0138 z"
         id="path12021" /><path
         d="m 14.161884,120.58312 q 0.0689,0 0.1757,0.10336 0.172254,0.16192 0.489203,0.27905 0.316949,0.11369 0.592557,0.11369 0.127469,0 0.189481,-0.0413 0.06546,-0.0448 0.06546,-0.12747 0,-0.0827 -0.08957,-0.19637 -0.08613,-0.11714 -0.389296,-0.44442 -0.740696,-0.79237 -0.961182,-1.11277 -0.217041,-0.32384 -0.217041,-0.62011 0,-0.25839 0.148139,-0.49265 0.151584,-0.23772 0.420302,-0.40308 0.444417,-0.27561 1.019749,-0.27561 0.423747,0 0.895725,0.17915 0.368625,0.14125 0.368625,0.30661 0,0.0517 -0.04479,0.093 -0.04134,0.0413 -0.09646,0.0413 -0.06546,0 -0.244602,-0.12747 -0.36518,-0.26183 -0.795817,-0.26183 -0.151584,0 -0.230822,0.0482 -0.07579,0.0482 -0.07579,0.14813 0,0.11714 0.141249,0.29628 0.144694,0.17915 0.582222,0.60634 0.427192,0.41686 0.54088,0.54777 0.117133,0.12747 0.223931,0.29628 0.182591,0.28939 0.182591,0.62701 0,0.53054 -0.51332,0.85783 -0.420302,0.27216 -1.033529,0.27216 -0.68213,0 -1.20923,-0.30317 -0.155029,-0.093 -0.213596,-0.15158 -0.05512,-0.0586 -0.05512,-0.12747 0,-0.12747 0.134359,-0.13092 z"
         id="path12023" /><path
         d="m 19.236512,118.20601 v 2.30132 l -0.0034,0.22049 q 0,0.21359 0.05168,0.28594 0.05512,0.0689 0.217041,0.0689 0.406522,0 0.799263,-0.24804 0.392741,-0.2515 0.640788,-0.6718 0.07579,-0.12747 0.148139,-0.12747 0.05168,0 0.09302,0.0482 0.04479,0.0448 0.04479,0.0965 0,0.12402 -0.199816,0.3514 -0.199815,0.22393 -0.465088,0.40307 -0.54088,0.36174 -1.157553,0.36174 -0.844049,0 -1.395264,-0.52366 -0.627008,-0.58911 -0.627008,-1.44349 0,-0.88195 0.661459,-1.46761 0.55466,-0.4961 1.367703,-0.4961 0.647679,0 1.133438,0.30662 0.206705,0.13091 0.337619,0.28249 0.130914,0.14814 0.130914,0.2515 0,0.0517 -0.0379,0.0896 -0.0379,0.0344 -0.09302,0.0344 -0.07235,0 -0.18259,-0.16537 -0.158474,-0.23082 -0.499539,-0.39963 -0.341065,-0.17225 -0.644233,-0.17225 -0.203261,0 -0.261828,0.11369 -0.05857,0.11369 -0.05857,0.49954 z"
         id="path12025" /><path
         d="m 23.353405,118.5264 -0.0069,1.32292 0.01378,1.37115 H 21.59296 l 0.0034,-0.18948 0.0034,-0.7028 0.01034,-1.26435 -0.01378,-1.4056 -0.0034,-0.19982 h 1.76389 v 0.70969 q 0.396186,-0.4203 0.551215,-0.53055 0.358291,-0.25149 0.67524,-0.25149 0.192925,0 0.316949,0.0827 0.127468,0.0827 0.127468,0.21015 0,0.0999 -0.07579,0.16536 -0.07579,0.0655 -0.18948,0.0655 -0.07235,0 -0.16192,-0.0413 -0.151584,-0.0724 -0.251492,-0.0724 -0.248047,0 -0.478869,0.16881 -0.230821,0.16881 -0.516764,0.56155 z"
         id="path12027" /><path
         d="m 26.202501,116.25264 q 0.909506,0 0.909506,0.47542 0,0.23082 -0.241157,0.36173 -0.237712,0.12747 -0.671794,0.12747 -0.86472,0 -0.86472,-0.4892 0,-0.46853 0.868165,-0.47542 z m 0.89228,1.20578 v 0.0999 l -0.0069,0.53743 -0.0069,0.83372 -0.01034,1.26779 0.01378,0.71314 0.0069,0.31006 h -1.77078 l 0.01722,-1.2678 0.01034,-1.11966 -0.0069,-0.58911 -0.01034,-0.65457 0.0034,-0.13091 z"
         id="path12029" /><path
         d="m 27.911269,117.45842 h 1.760445 l -0.01034,0.45131 q 0.347955,-0.29973 0.637343,-0.4203 0.289388,-0.12403 0.637343,-0.12403 0.713136,0 1.157553,0.53055 0.399631,0.47542 0.399631,1.20923 0,0.78203 -0.458198,1.28502 -0.423747,0.46509 -1.057645,0.46509 -0.334174,0 -0.664903,-0.13781 -0.33073,-0.14125 -0.658014,-0.4203 l 0.0034,0.12747 0.0034,0.45131 0.0069,0.37551 0.0034,0.12747 h -1.760445 l 0.0034,-0.98185 0.0069,-0.91295 -0.01034,-1.90514 z m 1.75011,0.76137 v 1.79834 q 0.251492,0.23426 0.451308,0.35484 0.199816,0.11714 0.347955,0.11714 0.137804,0 0.161919,-0.13436 0.0069,-0.0448 0.01034,-0.46509 v -1.68465 q 0,-0.29973 -0.01034,-0.35829 -0.02412,-0.1447 -0.144694,-0.1447 -0.155029,0 -0.375515,0.14125 -0.220487,0.1378 -0.440973,0.37552 z"
         id="path12031" /><path
         d="m 34.84625,116.24575 -0.0379,1.11276 -0.0034,0.1068 q 0.299723,0 0.544325,-0.0241 0.04134,-0.003 0.07235,-0.003 0.151585,0 0.151585,0.1378 0,0.12747 -0.158475,0.12747 -0.04823,0 -0.120578,-0.007 -0.272163,-0.0207 -0.389296,-0.0207 h -0.09991 l -0.0034,0.66835 0.01378,1.34014 0.01033,0.71658 q 0,0.2515 0.0379,0.3514 0.0379,0.0999 0.130913,0.0999 0.124024,0 0.265273,-0.14469 0.137804,-0.1447 0.217041,-0.35485 0.07235,-0.19981 0.172255,-0.19981 0.117133,0 0.117133,0.13091 0,0.13091 -0.117133,0.32728 -0.117133,0.19293 -0.282498,0.33762 -0.406522,0.35485 -1.0542,0.35485 -0.609782,0 -0.943957,-0.36863 -0.172255,-0.18603 -0.237712,-0.41341 -0.06546,-0.23082 -0.06546,-0.63734 v -0.25838 l 0.0034,-0.72692 v -1.23334 q -0.04823,-0.003 -0.0689,-0.003 -0.03445,0 -0.137804,0.007 -0.08613,0.007 -0.144694,0.007 -0.16881,0 -0.16881,-0.12747 0,-0.12402 0.161919,-0.12402 0.07579,0 0.106799,0.003 l 0.251492,0.0172 v -0.3893 q 1.019749,-0.36862 1.77767,-0.80959 z"
         id="path12033" /><path
         d="m 36.882303,116.25264 q 0.909506,0 0.909506,0.47542 0,0.23082 -0.241157,0.36173 -0.237712,0.12747 -0.671794,0.12747 -0.86472,0 -0.86472,-0.4892 0,-0.46853 0.868165,-0.47542 z m 0.89228,1.20578 v 0.0999 l -0.0069,0.53743 -0.0069,0.83372 -0.01034,1.26779 0.01378,0.71314 0.0069,0.31006 h -1.77078 l 0.01723,-1.2678 0.01034,-1.11966 -0.0069,-0.58911 -0.01034,-0.65457 0.0034,-0.13091 z"
         id="path12035" /><path
         d="m 40.313622,117.3654 q 0.554661,0 1.050755,0.30662 0.458198,0.28249 0.699355,0.7717 0.213596,0.43064 0.213596,0.91295 0,0.33073 -0.127469,0.6649 -0.124023,0.33418 -0.341064,0.59256 -0.303169,0.35484 -0.740696,0.53399 -0.358291,0.14814 -0.747587,0.14814 -0.651123,0 -1.171333,-0.38585 -0.406521,-0.29628 -0.616672,-0.76137 -0.1757,-0.39274 -0.1757,-0.83027 0,-0.85438 0.620117,-1.41938 0.582222,-0.52365 1.336698,-0.53399 z m -0.09991,0.22393 -0.01034,3.47266 q 0.106798,0.007 0.148139,0.007 0.478869,0 0.916396,-0.26872 0.420302,-0.26182 0.630453,-0.69591 0.165365,-0.3445 0.165365,-0.75792 0,-0.83027 -0.613228,-1.34703 -0.496094,-0.41686 -1.078315,-0.41686 -0.04823,0 -0.158475,0.007 z"
         id="path12037" /><path
         d="m 44.582098,117.45842 v 0.47887 q 0.403077,-0.28594 0.788927,-0.42719 0.385851,-0.1447 0.751032,-0.1447 0.489204,0 0.826823,0.22393 0.254937,0.16881 0.341065,0.42031 0.08957,0.24804 0.08957,0.81304 l -0.0069,1.59508 0.01034,0.80271 h -1.753555 l 0.01378,-0.95774 0.01033,-0.7028 -0.0034,-1.06109 q -0.0034,-0.36863 -0.01033,-0.43753 -0.0034,-0.0724 -0.03101,-0.12747 -0.05512,-0.11024 -0.237712,-0.11024 -0.168809,0 -0.36518,0.0965 -0.19637,0.0965 -0.423747,0.28939 l -0.0034,0.14125 -0.0069,0.96807 -0.0069,0.7407 0.01034,1.01286 0.0034,0.14814 h -1.760445 l 0.01034,-1.35048 0.01034,-0.89228 -0.01034,-0.7717 -0.01034,-0.74759 z"
         id="path12039" /><path
         d="m 49.067614,119.7942 q 0.458198,0 0.73725,0.20326 0.279053,0.20326 0.279053,0.54432 0,0.34796 -0.282498,0.56844 -0.282498,0.21704 -0.733805,0.21704 -0.568442,0 -0.85094,-0.31694 -0.165364,-0.18604 -0.165364,-0.43409 0,-0.3514 0.275608,-0.56155 0.275607,-0.21359 0.740696,-0.22048 z m 0,-1.97404 q 0.458198,0 0.73725,0.20326 0.279053,0.20326 0.279053,0.54432 0,0.34796 -0.282498,0.56844 -0.282498,0.21704 -0.733805,0.21704 -0.568442,0 -0.85094,-0.31695 -0.165364,-0.18603 -0.165364,-0.43408 0,-0.3514 0.275608,-0.56155 0.275607,-0.21359 0.740696,-0.22048 z"
         id="path12041" /></g><g
       aria-label="Move any pawn, and discard this card."
       transform="matrix(0.27431353,0,0,0.27431353,-0.8676689,-4.702566)"
       id="text855"
       style="font-size:23.1487px;line-height:23.1487px;font-family:'Bookman Old Style';-inkscape-font-specification:'Bookman Old Style';white-space:pre;shape-inside:url(#rect857);display:inline;opacity:1;vector-effect:none;stroke-width:0.999999;stop-color:#000000;stop-opacity:1"><path
         d="m 21.817517,468.81072 h 4.984655 l 4.656867,12.48989 4.532532,-12.48989 h 4.81511 v 0.96076 H 40.39977 q -0.7347,0 -0.99467,0.12433 -0.248668,0.12434 -0.395608,0.44082 -0.14694,0.30519 -0.14694,1.01728 v 10.39883 q 0,0.98337 0.113031,1.27724 0.124334,0.29388 0.395607,0.45213 0.282577,0.14694 1.02858,0.14694 h 0.406911 v 0.94946 h -6.024538 v -0.94946 h 0.429516 q 0.576457,0 0.836428,-0.0904 0.271274,-0.0904 0.44082,-0.29388 0.180849,-0.21476 0.203455,-0.44082 0.05651,-0.46342 0.05651,-0.72339 v -11.60826 l -5.142898,14.10624 h -1.119004 l -5.188111,-13.90278 v 11.17874 q 0,0.84773 0.14694,1.15291 0.14694,0.29388 0.452123,0.46342 0.316486,0.15825 1.119004,0.15825 h 0.361698 v 0.94946 h -5.561112 v -0.94946 h 0.316486 q 0.802518,0 1.14161,-0.16955 0.350396,-0.16954 0.497336,-0.47473 0.14694,-0.31648 0.14694,-1.23203 v -10.2971 q 0,-0.85904 -0.124334,-1.13031 -0.124334,-0.28258 -0.418214,-0.41821 -0.282577,-0.13564 -1.017277,-0.13564 h -0.542547 z"
         id="path11956" /><path
         d="m 48.571892,473.39977 q 1.661552,0 2.870981,0.68948 1.220732,0.68949 1.921522,2.01195 0.700791,1.32246 0.700791,3.01792 0,1.69546 -0.723397,3.01792 -0.712093,1.32246 -1.955432,2.02325 -1.232035,0.68949 -2.950102,0.68949 -2.735344,0 -4.114319,-1.70676 -1.367672,-1.70677 -1.367672,-4.0126 0,-1.68415 0.712094,-2.98401 0.712094,-1.31115 1.989341,-2.02325 1.28855,-0.72339 2.916193,-0.72339 z m -0.09042,1.09639 q -1.288551,0 -2.181494,1.01728 -1.130307,1.26595 -1.130307,3.6848 0,2.32844 0.960761,3.54917 0.870337,1.08509 2.362343,1.08509 0.960761,0 1.706764,-0.50864 0.757306,-0.50863 1.220732,-1.61633 0.463426,-1.11901 0.463426,-2.62232 0,-1.4694 -0.497336,-2.63361 -0.384304,-0.92686 -1.164216,-1.43549 -0.768609,-0.51995 -1.740673,-0.51995 z"
         id="path11958" /><path
         d="m 54.992039,473.67104 h 5.176807 v 0.94946 H 59.85236 q -0.644275,0 -0.802518,0.0452 -0.226061,0.0678 -0.339092,0.21476 -0.113031,0.14694 -0.113031,0.35039 0,0.28258 0.248668,0.91555 l 2.577101,6.43145 2.497979,-6.43145 q 0.237365,-0.62167 0.237365,-0.90424 0,-0.29388 -0.226062,-0.45213 -0.226061,-0.16954 -0.813821,-0.16954 h -0.542548 v -0.94946 h 4.464714 v 0.94946 q -0.463426,0.0113 -0.779912,0.14694 -0.305183,0.13563 -0.486032,0.35039 -0.169546,0.21476 -0.519941,1.02858 l -3.605681,8.4321 H 60.29318 l -3.628286,-8.62425 q -0.226062,-0.53124 -0.497336,-0.87034 -0.180849,-0.21475 -0.486032,-0.33909 -0.29388,-0.12433 -0.689487,-0.12433 z"
         id="path11960" /><path
         d="m 77.54167,481.66231 0.723397,0.58776 q -0.825124,0.98337 -1.605036,1.55983 -0.768609,0.57645 -1.458097,0.80252 -0.689487,0.23736 -1.616339,0.23736 -1.661552,0 -2.825769,-0.67818 -1.333763,-0.77992 -2.045856,-2.03456 -0.712094,-1.25464 -0.712094,-2.9614 0,-1.78589 0.689488,-3.05183 0.689487,-1.26595 1.921522,-1.98934 1.243338,-0.7347 2.870981,-0.7347 1.209429,0 2.102372,0.3843 0.892942,0.373 1.514612,1.14161 0.621669,0.75731 0.904245,1.74067 0.158243,0.57646 0.18085,1.49201 h -7.991273 q -0.03391,0.55385 -0.03391,0.82512 0,1.42419 0.497336,2.5432 0.497335,1.1077 1.311156,1.63894 0.825124,0.51994 1.865007,0.51994 0.88164,0 1.706764,-0.40691 0.825125,-0.41821 2.000644,-1.61634 z m -1.446793,-4.56644 q -0.169546,-1.03988 -0.486032,-1.53722 -0.305183,-0.49733 -0.88164,-0.79121 -0.565154,-0.29388 -1.277247,-0.29388 -0.712094,0 -1.333763,0.29388 -0.621669,0.29388 -1.039883,0.81382 -0.40691,0.51994 -0.712093,1.51461 z"
         id="path11962" /><path
         d="m 95.434437,478.03403 v -1.23204 q 0,-1.25464 -0.70079,-1.78588 -0.700791,-0.54255 -1.978038,-0.54255 -0.632972,0 -1.107701,0.15824 -0.474729,0.14694 -0.768609,0.41821 -0.282577,0.25998 -0.418214,0.59907 -0.05651,0.12433 -0.271274,0.96076 -0.259971,1.01728 -1.051186,1.01728 -0.452123,0 -0.7347,-0.29388 -0.271273,-0.30519 -0.271273,-0.81383 0,-0.746 0.55385,-1.45809 0.553851,-0.7234 1.684158,-1.18682 1.141611,-0.47473 2.690132,-0.47473 1.446793,0 2.475373,0.45212 1.02858,0.44082 1.514612,1.27725 0.339092,0.57645 0.339092,2.10237 v 4.35168 q 0,0.92685 0.05651,1.20943 0.124334,0.48603 0.429517,0.7347 0.316486,0.23736 0.813822,0.23736 0.519941,0 1.243338,-0.24866 v 0.98336 q -0.938155,0.27128 -1.684158,0.27128 -0.802519,0 -1.356369,-0.22606 -0.542548,-0.22606 -0.892943,-0.65558 -0.350395,-0.44082 -0.452123,-1.03988 -1.356369,1.06248 -2.452767,1.492 -1.096398,0.42952 -2.215402,0.42952 -1.559825,0 -2.531889,-0.84773 -0.972064,-0.84773 -0.972064,-1.98934 0,-0.68949 0.350395,-1.31116 0.361698,-0.62167 1.085095,-1.0964 0.7347,-0.47473 2.294524,-0.83643 1.559824,-0.36169 4.329077,-0.65557 z m 0,0.98336 q -2.622313,0.38431 -3.243982,0.53125 -1.232035,0.28258 -1.763279,0.62167 -0.531245,0.33909 -0.757306,0.7347 -0.226062,0.3843 -0.226062,0.82512 0,0.44082 0.248668,0.85904 0.259971,0.40691 0.723397,0.64427 0.463426,0.23736 0.983367,0.23736 0.7347,0 1.661552,-0.35039 0.926852,-0.3504 2.373645,-1.36767 z"
         id="path11964" /><path
         d="m 100.74688,475.29868 v -0.94946 q 1.00597,-0.11303 1.50331,-0.27127 0.49733,-0.15824 1.43549,-0.67818 h 0.81382 v 2.14758 q 1.492,-1.25464 2.54319,-1.69546 1.06249,-0.45212 2.14758,-0.45212 0.92686,0 1.63895,0.31648 0.71209,0.30519 1.15291,0.83643 0.45213,0.53124 0.59907,1.20943 0.0904,0.41821 0.0904,1.26594 v 4.97336 q 0,0.89294 0.12433,1.15291 0.13564,0.24867 0.41822,0.3617 0.28257,0.11303 1.39028,0.11303 v 0.94946 h -5.82109 v -0.94946 h 0.31649 q 0.81382,0 1.1077,-0.14694 0.29388,-0.14694 0.41821,-0.42952 0.13564,-0.28258 0.13564,-1.15291 v -4.15953 q 0,-1.28855 -0.21476,-1.78589 -0.20345,-0.49733 -0.71209,-0.80252 -0.49734,-0.31648 -1.26595,-0.31648 -0.91554,0 -1.95543,0.47473 -1.03988,0.46342 -2.01194,1.37897 v 5.21072 q 0,0.88164 0.12433,1.17552 0.13564,0.29388 0.42952,0.44082 0.20345,0.11303 1.08509,0.11303 h 0.32779 v 0.94946 h -5.82108 v -0.94946 h 0.28257 q 0.83643,0 1.14161,-0.13564 0.30519,-0.14694 0.42952,-0.50864 0.0678,-0.18085 0.0678,-1.24334 v -6.44275 z"
         id="path11966" /><path
         d="m 115.05657,473.67104 h 5.4933 v 0.94946 h -0.45212 q -0.64428,0 -0.76861,0.0339 -0.14694,0.0452 -0.24867,0.19215 -0.10173,0.13564 -0.10173,0.35039 0,0.30519 0.30518,1.02858 l 2.62232,6.16018 2.43016,-5.8889 q 0.42951,-1.03988 0.42951,-1.37898 0,-0.25997 -0.19215,-0.373 -0.19215,-0.12433 -0.87033,-0.12433 h -0.53125 v -0.94946 h 4.62296 v 0.94946 h -0.27128 q -0.67818,0 -0.88164,0.0904 -0.20345,0.0904 -0.3956,0.373 -0.19215,0.27128 -0.61037,1.25465 l -4.14823,9.66412 q -0.45212,1.03989 -1.00597,1.92153 -0.55385,0.89294 -1.39028,1.37897 -0.83643,0.48603 -1.8424,0.48603 -1.16422,0 -1.86501,-0.53124 -0.59906,-0.45212 -0.59906,-1.13031 0,-0.41821 0.25997,-0.70079 0.25997,-0.27127 0.61037,-0.27127 0.27127,0 0.50864,0.11303 0.14694,0.0565 0.61036,0.47473 0.56516,0.49733 0.79122,0.61036 0.23736,0.11303 0.46342,0.11303 0.46343,0 0.91555,-0.31648 0.45212,-0.31649 0.76861,-0.89295 0.45212,-0.82512 0.746,-1.54852 l 0.46343,-1.1303 -3.73001,-8.35298 q -0.39561,-0.88164 -0.66689,-1.18682 -0.27127,-0.30518 -0.54254,-0.373 -0.14694,-0.0452 -0.92686,-0.0452 z"
         id="path11968" /><path
         d="m 135.80901,475.28738 v -0.92685 q 0.84773,0 1.50331,-0.21476 0.65558,-0.21476 1.43549,-0.746 h 0.89295 v 1.88761 q 1.41288,-1.119 2.35104,-1.50331 0.93815,-0.3843 1.87631,-0.3843 1.93282,0 3.28919,1.51461 1.36767,1.51461 1.36767,3.94477 0,2.69013 -1.54852,4.4082 -1.41288,1.58243 -3.63959,1.58243 -1.1077,0 -2.07976,-0.41821 -0.7008,-0.29388 -1.61634,-1.05119 v 3.71871 q 0,0.83643 0.0452,0.98337 0.0565,0.21476 0.22606,0.3617 0.16955,0.14694 0.42952,0.19215 0.19215,0.0339 1.28855,0.0339 v 0.94946 h -5.82109 v -0.94946 h 0.50864 q 0.77991,0 1.00598,-0.12434 0.23736,-0.11303 0.35039,-0.36169 0.0678,-0.19216 0.0678,-1.17552 v -11.72129 z m 3.83175,1.16422 v 3.88825 q 0,0.76861 0.0904,1.14161 0.13564,0.57646 0.51994,1.03989 0.39561,0.46342 1.06249,0.79121 0.67819,0.32779 1.41288,0.32779 1.4694,0 2.5432,-1.1077 1.08509,-1.1077 1.08509,-3.35701 0,-2.10237 -0.89294,-3.24399 -0.89294,-1.15291 -2.11368,-1.15291 -0.79121,0 -1.71806,0.41821 -0.92686,0.41822 -1.98934,1.25465 z"
         id="path11970" /><path
         d="m 158.40386,478.03403 v -1.23204 q 0,-1.25464 -0.70079,-1.78588 -0.70079,-0.54255 -1.97804,-0.54255 -0.63297,0 -1.1077,0.15824 -0.47473,0.14694 -0.76861,0.41821 -0.28258,0.25998 -0.41821,0.59907 -0.0565,0.12433 -0.27128,0.96076 -0.25997,1.01728 -1.05118,1.01728 -0.45213,0 -0.7347,-0.29388 -0.27128,-0.30519 -0.27128,-0.81383 0,-0.746 0.55385,-1.45809 0.55385,-0.7234 1.68416,-1.18682 1.14161,-0.47473 2.69013,-0.47473 1.4468,0 2.47538,0.45212 1.02858,0.44082 1.51461,1.27725 0.33909,0.57645 0.33909,2.10237 v 4.35168 q 0,0.92685 0.0565,1.20943 0.12433,0.48603 0.42951,0.7347 0.31649,0.23736 0.81382,0.23736 0.51995,0 1.24334,-0.24866 v 0.98336 q -0.93815,0.27128 -1.68416,0.27128 -0.80251,0 -1.35636,-0.22606 -0.54255,-0.22606 -0.89295,-0.65558 -0.35039,-0.44082 -0.45212,-1.03988 -1.35637,1.06248 -2.45277,1.492 -1.0964,0.42952 -2.2154,0.42952 -1.55982,0 -2.53189,-0.84773 -0.97206,-0.84773 -0.97206,-1.98934 0,-0.68949 0.35039,-1.31116 0.3617,-0.62167 1.0851,-1.0964 0.7347,-0.47473 2.29452,-0.83643 1.55983,-0.36169 4.32908,-0.65557 z m 0,0.98336 q -2.62231,0.38431 -3.24398,0.53125 -1.23204,0.28258 -1.76328,0.62167 -0.53125,0.33909 -0.75731,0.7347 -0.22606,0.3843 -0.22606,0.82512 0,0.44082 0.24867,0.85904 0.25997,0.40691 0.72339,0.64427 0.46343,0.23736 0.98337,0.23736 0.7347,0 1.66155,-0.35039 0.92686,-0.3504 2.37365,-1.36767 z"
         id="path11972" /><path
         d="m 162.85727,473.67104 h 5.19942 v 0.94946 h -0.3617 q -0.66688,0 -0.88164,0.10173 -0.33909,0.15824 -0.33909,0.49733 0,0.31649 0.25997,1.01728 l 2.33973,6.18278 2.28322,-5.74196 -0.20345,-0.53125 q -0.3504,-0.91555 -0.81382,-1.26594 -0.30519,-0.22606 -0.90425,-0.25997 v -0.94946 h 5.17681 v 0.94946 h -0.44082 q -0.62167,0 -0.80252,0.10173 -0.31648,0.18084 -0.31648,0.57645 0,0.33909 0.23736,0.93816 l 2.33974,6.18278 2.28322,-6.27321 q 0.18085,-0.50864 0.19215,-0.57645 0.0339,-0.12434 0.0339,-0.25997 0,-0.31649 -0.24867,-0.49734 -0.24867,-0.19215 -0.91555,-0.19215 h -0.41821 v -0.94946 h 4.38559 v 0.94946 q -0.48603,0.0226 -0.79121,0.16954 -0.30519,0.14694 -0.48604,0.38431 -0.18085,0.23736 -0.50863,1.06249 l -3.3005,8.34167 h -1.35637 l -2.61101,-6.51057 -2.5771,6.51057 h -1.34507 l -3.3344,-8.34167 q -0.31649,-0.80252 -0.51995,-1.06249 -0.20345,-0.25997 -0.50863,-0.40691 -0.29388,-0.14694 -0.74601,-0.14694 z"
         id="path11974" /><path
         d="m 181.76732,475.29868 v -0.94946 q 1.00597,-0.11303 1.50331,-0.27127 0.49733,-0.15824 1.43549,-0.67818 h 0.81382 v 2.14758 q 1.492,-1.25464 2.54319,-1.69546 1.06249,-0.45212 2.14758,-0.45212 0.92685,0 1.63895,0.31648 0.71209,0.30519 1.15291,0.83643 0.45212,0.53124 0.59906,1.20943 0.0904,0.41821 0.0904,1.26594 v 4.97336 q 0,0.89294 0.12433,1.15291 0.13564,0.24867 0.41822,0.3617 0.28257,0.11303 1.39028,0.11303 v 0.94946 h -5.82109 v -0.94946 h 0.31649 q 0.81382,0 1.1077,-0.14694 0.29388,-0.14694 0.41821,-0.42952 0.13564,-0.28258 0.13564,-1.15291 v -4.15953 q 0,-1.28855 -0.21476,-1.78589 -0.20345,-0.49733 -0.71209,-0.80252 -0.49734,-0.31648 -1.26595,-0.31648 -0.91555,0 -1.95543,0.47473 -1.03988,0.46342 -2.01195,1.37897 v 5.21072 q 0,0.88164 0.12434,1.17552 0.13564,0.29388 0.42952,0.44082 0.20345,0.11303 1.08509,0.11303 h 0.32779 v 0.94946 h -5.82108 v -0.94946 h 0.28257 q 0.83643,0 1.14161,-0.13564 0.30519,-0.14694 0.42952,-0.50864 0.0678,-0.18085 0.0678,-1.24334 v -6.44275 z"
         id="path11976" /><path
         d="m 198.69932,488.67022 -0.61037,-0.746 q 2.31713,-1.88762 2.31713,-3.15356 0,-0.14694 -0.0226,-0.3617 -0.19216,0.0791 -0.373,0.12433 -0.18085,0.0452 -0.3391,0.0452 -0.54254,0 -0.87033,-0.3504 -0.32779,-0.35039 -0.32779,-0.89294 0,-0.53125 0.39561,-0.92685 0.3956,-0.39561 0.94945,-0.39561 0.76861,0 1.31116,0.62167 0.55385,0.61036 0.55385,1.58243 0,0.63297 -0.25997,1.32246 -0.25997,0.70079 -0.75731,1.28855 -0.49733,0.59906 -1.96673,1.8424 z"
         id="path11978" /><path
         d="m 219.9717,478.03403 v -1.23204 q 0,-1.25464 -0.70079,-1.78588 -0.70079,-0.54255 -1.97804,-0.54255 -0.63297,0 -1.1077,0.15824 -0.47473,0.14694 -0.76861,0.41821 -0.28258,0.25998 -0.41821,0.59907 -0.0565,0.12433 -0.27128,0.96076 -0.25997,1.01728 -1.05118,1.01728 -0.45213,0 -0.7347,-0.29388 -0.27128,-0.30519 -0.27128,-0.81383 0,-0.746 0.55385,-1.45809 0.55385,-0.7234 1.68416,-1.18682 1.14161,-0.47473 2.69013,-0.47473 1.4468,0 2.47538,0.45212 1.02858,0.44082 1.51461,1.27725 0.33909,0.57645 0.33909,2.10237 v 4.35168 q 0,0.92685 0.0565,1.20943 0.12433,0.48603 0.42951,0.7347 0.31649,0.23736 0.81382,0.23736 0.51995,0 1.24334,-0.24866 v 0.98336 q -0.93815,0.27128 -1.68416,0.27128 -0.80251,0 -1.35636,-0.22606 -0.54255,-0.22606 -0.89295,-0.65558 -0.35039,-0.44082 -0.45212,-1.03988 -1.35637,1.06248 -2.45277,1.492 -1.0964,0.42952 -2.2154,0.42952 -1.55982,0 -2.53189,-0.84773 -0.97206,-0.84773 -0.97206,-1.98934 0,-0.68949 0.35039,-1.31116 0.3617,-0.62167 1.0851,-1.0964 0.7347,-0.47473 2.29452,-0.83643 1.55983,-0.36169 4.32908,-0.65557 z m 0,0.98336 q -2.62231,0.38431 -3.24398,0.53125 -1.23204,0.28258 -1.76328,0.62167 -0.53125,0.33909 -0.75731,0.7347 -0.22606,0.3843 -0.22606,0.82512 0,0.44082 0.24867,0.85904 0.25997,0.40691 0.72339,0.64427 0.46343,0.23736 0.98337,0.23736 0.7347,0 1.66155,-0.35039 0.92686,-0.3504 2.37365,-1.36767 z"
         id="path11980" /><path
         d="m 225.28415,475.29868 v -0.94946 q 1.00597,-0.11303 1.50331,-0.27127 0.49733,-0.15824 1.43549,-0.67818 h 0.81382 v 2.14758 q 1.492,-1.25464 2.54319,-1.69546 1.06249,-0.45212 2.14758,-0.45212 0.92686,0 1.63895,0.31648 0.71209,0.30519 1.15291,0.83643 0.45213,0.53124 0.59907,1.20943 0.0904,0.41821 0.0904,1.26594 v 4.97336 q 0,0.89294 0.12433,1.15291 0.13564,0.24867 0.41822,0.3617 0.28257,0.11303 1.39028,0.11303 v 0.94946 h -5.82109 v -0.94946 h 0.31649 q 0.81382,0 1.1077,-0.14694 0.29388,-0.14694 0.41821,-0.42952 0.13564,-0.28258 0.13564,-1.15291 v -4.15953 q 0,-1.28855 -0.21476,-1.78589 -0.20345,-0.49733 -0.71209,-0.80252 -0.49734,-0.31648 -1.26595,-0.31648 -0.91554,0 -1.95543,0.47473 -1.03988,0.46342 -2.01194,1.37897 v 5.21072 q 0,0.88164 0.12433,1.17552 0.13564,0.29388 0.42952,0.44082 0.20345,0.11303 1.08509,0.11303 h 0.32779 v 0.94946 h -5.82108 v -0.94946 h 0.28257 q 0.83643,0 1.14161,-0.13564 0.30519,-0.14694 0.42952,-0.50864 0.0678,-0.18085 0.0678,-1.24334 v -6.44275 z"
         id="path11982" /><path
         d="m 247.59641,469.90712 v -0.96076 q 0.76861,-0.0678 1.40158,-0.25998 0.64428,-0.20345 1.60504,-0.68948 h 0.84773 v 13.71063 q 0,0.94945 0.0452,1.15291 0.11303,0.42952 0.38431,0.59906 0.27127,0.16955 1.05118,0.16955 h 0.48604 v 0.94946 l -3.92217,0.18085 v -1.79719 q -1.13031,1.02858 -2.12498,1.45809 -0.98337,0.42952 -1.97804,0.42952 -2.04585,0 -3.40222,-1.63895 -1.34507,-1.65024 -1.34507,-3.96737 0,-1.65025 0.7121,-3.01793 0.72339,-1.37897 1.89891,-2.10237 1.17552,-0.72339 2.5771,-0.72339 1.0738,0 1.98934,0.373 0.91555,0.373 1.67286,1.119 v -4.98465 z m 1.89892,11.93604 v -4.27256 q 0,-0.91555 -0.3504,-1.49201 -0.33909,-0.58776 -1.1303,-1.01727 -0.77992,-0.42952 -1.60504,-0.42952 -0.98337,0 -1.8198,0.54255 -0.82512,0.53124 -1.29985,1.54852 -0.46342,1.00597 -0.46342,2.44146 0,1.35637 0.42951,2.35104 0.44082,0.98337 1.17552,1.50331 0.7347,0.50864 1.50331,0.50864 0.75731,0 1.71807,-0.42952 0.96076,-0.44082 1.8424,-1.25464 z"
         id="path11984" /><path
         d="m 269.35484,469.90712 v -0.96076 q 0.7686,-0.0678 1.40158,-0.25998 0.64427,-0.20345 1.60503,-0.68948 h 0.84773 v 13.71063 q 0,0.94945 0.0452,1.15291 0.11303,0.42952 0.3843,0.59906 0.27127,0.16955 1.05119,0.16955 h 0.48603 v 0.94946 l -3.92217,0.18085 v -1.79719 q -1.13031,1.02858 -2.12498,1.45809 -0.98336,0.42952 -1.97803,0.42952 -2.04586,0 -3.40223,-1.63895 -1.34506,-1.65024 -1.34506,-3.96737 0,-1.65025 0.71209,-3.01793 0.7234,-1.37897 1.89892,-2.10237 1.17551,-0.72339 2.5771,-0.72339 1.07379,0 1.98934,0.373 0.91555,0.373 1.67285,1.119 v -4.98465 z m 1.89891,11.93604 v -4.27256 q 0,-0.91555 -0.35039,-1.49201 -0.3391,-0.58776 -1.13031,-1.01727 -0.77991,-0.42952 -1.60504,-0.42952 -0.98336,0 -1.81979,0.54255 -0.82513,0.53124 -1.29986,1.54852 -0.46342,1.00597 -0.46342,2.44146 0,1.35637 0.42952,2.35104 0.44081,0.98337 1.17551,1.50331 0.7347,0.50864 1.50331,0.50864 0.75731,0 1.71807,-0.42952 0.96076,-0.44082 1.8424,-1.25464 z"
         id="path11986" /><path
         d="m 279.45978,468.30208 q 0.54255,0 0.92686,0.3843 0.3843,0.37301 0.3843,0.91555 0,0.54255 -0.3843,0.92686 -0.38431,0.3843 -0.92686,0.3843 -0.54254,0 -0.92685,-0.3843 -0.3843,-0.38431 -0.3843,-0.92686 0,-0.54254 0.3843,-0.91555 0.38431,-0.3843 0.92685,-0.3843 z m -2.88228,6.9966 v -0.93815 q 0.93816,-0.11303 1.57113,-0.31649 0.64427,-0.20345 1.45809,-0.64427 h 0.82513 v 9.06506 q 0,0.47473 0.13564,0.71209 0.13563,0.23737 0.373,0.3504 0.24866,0.10173 0.89294,0.10173 h 0.53124 v 0.94946 h -5.78717 v -0.94946 h 0.46343 q 0.7573,0 1.01727,-0.13564 0.25997,-0.13564 0.3617,-0.3843 0.11303,-0.24867 0.11303,-1.16422 v -6.64621 z"
         id="path11988" /><path
         d="m 291.26018,473.67104 h 0.79122 l 1.01728,3.45874 -1.01728,0.33909 q -0.61037,-1.39028 -1.71807,-2.18149 -1.0964,-0.80252 -2.2267,-0.80252 -0.87034,0 -1.41289,0.42952 -0.54255,0.41821 -0.54255,0.97206 0,0.51994 0.39561,0.89295 0.38431,0.3843 1.72937,0.87033 l 2.2041,0.77991 q 1.86501,0.66689 2.54319,1.42419 0.66689,0.76861 0.66689,1.74067 0,0.82513 -0.49734,1.59374 -0.49734,0.7573 -1.44679,1.20943 -0.93816,0.45212 -2.15889,0.45212 -1.89892,0 -3.25529,-1.0851 l -0.23736,0.81383 h -0.80252 l -1.41288,-3.69611 1.02858,-0.40691 q 1.02858,1.62764 1.94413,2.30583 1.27724,0.96076 2.75795,0.96076 0.98336,0 1.61634,-0.51994 0.63297,-0.53125 0.63297,-1.17552 0,-0.53125 -0.39561,-0.97207 -0.40691,-0.42951 -1.55982,-0.83642 l -2.61101,-0.94946 q -1.68416,-0.61037 -2.33974,-1.33377 -0.65558,-0.72339 -0.65558,-1.66155 0,-1.14161 1.06249,-2.01194 1.07379,-0.88164 2.72404,-0.88164 0.85903,0 1.53722,0.22606 0.67818,0.21476 1.33376,0.72339 z"
         id="path11990" /><path
         d="m 305.6377,481.42495 0.7234,0.58776 q -2.12498,2.83707 -5.09769,2.83707 -2.31713,0 -3.91086,-1.65025 -1.59374,-1.65025 -1.59374,-4.10301 0,-1.63895 0.7347,-2.9388 0.74601,-1.31116 2.05716,-2.03456 1.32246,-0.72339 3.02923,-0.72339 1.94413,0 3.24398,0.96076 1.29985,0.94946 1.29985,1.92152 0,0.51994 -0.30518,0.80252 -0.30518,0.28257 -0.68949,0.28257 -0.20345,0 -0.3956,-0.10172 -0.19216,-0.10173 -0.39561,-0.32779 -0.0904,-0.10173 -0.32779,-0.63297 -0.30518,-0.65558 -0.47473,-0.88164 -0.3504,-0.45213 -0.87034,-0.7121 -0.50864,-0.25997 -1.14161,-0.25997 -0.96076,0 -1.78588,0.53125 -0.81382,0.53124 -1.29986,1.57112 -0.47473,1.02858 -0.47473,2.46407 0,2.22671 1.18683,3.53787 1.02858,1.1303 2.45276,1.1303 0.65558,0 1.32246,-0.21476 0.67819,-0.22606 1.27725,-0.65557 0.44082,-0.30519 1.43549,-1.39028 z"
         id="path11992" /><path
         d="m 315.81047,478.03403 v -1.23204 q 0,-1.25464 -0.70079,-1.78588 -0.70079,-0.54255 -1.97803,-0.54255 -0.63298,0 -1.1077,0.15824 -0.47473,0.14694 -0.76861,0.41821 -0.28258,0.25998 -0.41822,0.59907 -0.0565,0.12433 -0.27127,0.96076 -0.25997,1.01728 -1.05119,1.01728 -0.45212,0 -0.7347,-0.29388 -0.27127,-0.30519 -0.27127,-0.81383 0,-0.746 0.55385,-1.45809 0.55385,-0.7234 1.68416,-1.18682 1.14161,-0.47473 2.69013,-0.47473 1.44679,0 2.47537,0.45212 1.02858,0.44082 1.51461,1.27725 0.3391,0.57645 0.3391,2.10237 v 4.35168 q 0,0.92685 0.0565,1.20943 0.12434,0.48603 0.42952,0.7347 0.31648,0.23736 0.81382,0.23736 0.51994,0 1.24334,-0.24866 v 0.98336 q -0.93816,0.27128 -1.68416,0.27128 -0.80252,0 -1.35637,-0.22606 -0.54255,-0.22606 -0.89294,-0.65558 -0.3504,-0.44082 -0.45212,-1.03988 -1.35637,1.06248 -2.45277,1.492 -1.0964,0.42952 -2.2154,0.42952 -1.55983,0 -2.53189,-0.84773 -0.97207,-0.84773 -0.97207,-1.98934 0,-0.68949 0.3504,-1.31116 0.3617,-0.62167 1.08509,-1.0964 0.7347,-0.47473 2.29453,-0.83643 1.55982,-0.36169 4.32907,-0.65557 z m 0,0.98336 q -2.62231,0.38431 -3.24398,0.53125 -1.23203,0.28258 -1.76328,0.62167 -0.53124,0.33909 -0.7573,0.7347 -0.22606,0.3843 -0.22606,0.82512 0,0.44082 0.24866,0.85904 0.25997,0.40691 0.7234,0.64427 0.46343,0.23736 0.98337,0.23736 0.7347,0 1.66155,-0.35039 0.92685,-0.3504 2.37364,-1.36767 z"
         id="path11994" /><path
         d="m 321.089,475.28738 v -0.92685 q 0.82512,-0.0678 1.4694,-0.27128 0.64427,-0.21475 1.4694,-0.68948 h 0.84773 v 2.13628 q 0.80252,-0.98337 1.86501,-1.55983 1.06248,-0.57645 1.91021,-0.57645 0.83643,0 1.32246,0.3956 0.48604,0.39561 0.48604,0.96076 0,0.40692 -0.32779,0.7234 -0.31649,0.30518 -0.76861,0.30518 -0.20346,0 -0.3504,-0.0565 -0.14694,-0.0565 -0.42951,-0.24867 -0.62167,-0.40691 -1.03989,-0.40691 -0.56515,0 -1.24333,0.47473 -0.85904,0.61037 -1.34507,1.19813 v 5.21071 q 0,0.67819 0.0678,0.92685 0.0791,0.23737 0.24867,0.41822 0.16954,0.16954 0.41821,0.24867 0.24867,0.0791 0.87034,0.0791 h 0.373 v 0.94946 H 321.089 v -0.94946 h 0.48603 q 0.68949,0 0.90425,-0.12434 0.29388,-0.16954 0.42951,-0.46342 0.14694,-0.30518 0.14694,-1.0851 v -6.66881 z"
         id="path11996" /><path
         d="m 338.3375,469.90712 v -0.96076 q 0.76861,-0.0678 1.40158,-0.25998 0.64428,-0.20345 1.60504,-0.68948 h 0.84773 v 13.71063 q 0,0.94945 0.0452,1.15291 0.11303,0.42952 0.38431,0.59906 0.27127,0.16955 1.05118,0.16955 h 0.48603 v 0.94946 l -3.92216,0.18085 v -1.79719 q -1.13031,1.02858 -2.12498,1.45809 -0.98337,0.42952 -1.97804,0.42952 -2.04585,0 -3.40222,-1.63895 -1.34507,-1.65024 -1.34507,-3.96737 0,-1.65025 0.71209,-3.01793 0.7234,-1.37897 1.89892,-2.10237 1.17552,-0.72339 2.5771,-0.72339 1.07379,0 1.98934,0.373 0.91555,0.373 1.67286,1.119 v -4.98465 z m 1.89892,11.93604 v -4.27256 q 0,-0.91555 -0.3504,-1.49201 -0.33909,-0.58776 -1.1303,-1.01727 -0.77992,-0.42952 -1.60504,-0.42952 -0.98337,0 -1.8198,0.54255 -0.82512,0.53124 -1.29985,1.54852 -0.46343,1.00597 -0.46343,2.44146 0,1.35637 0.42952,2.35104 0.44082,0.98337 1.17552,1.50331 0.7347,0.50864 1.50331,0.50864 0.75731,0 1.71807,-0.42952 0.96076,-0.44082 1.8424,-1.25464 z"
         id="path11998" /><path
         d="m 24.541558,492.97671 h 0.802518 v 3.84304 h 3.357013 v 1.13031 h -3.357013 v 6.81575 q 0,0.87034 0.14694,1.24334 0.158243,0.373 0.519941,0.61037 0.373002,0.23736 0.825125,0.23736 1.073792,0 2.373645,-0.96076 v 1.0964 q -1.480702,1.00597 -2.995314,1.00597 -0.859034,0 -1.559825,-0.3843 -0.689487,-0.38431 -0.949458,-0.90425 -0.248667,-0.51994 -0.248667,-1.80849 v -6.95139 h -1.978038 v -0.94946 q 0.949458,-0.21476 1.525915,-0.66688 0.58776,-0.45212 0.949458,-1.17552 0.361698,-0.7234 0.58776,-2.18149 z"
         id="path12000" /><path
         d="m 30.362641,493.06713 v -0.97206 q 1.096398,-0.14694 1.706764,-0.33909 0.610366,-0.20346 1.277248,-0.61037 h 0.881639 v 7.47133 q 1.277248,-1.07379 2.418858,-1.57113 1.141611,-0.49733 2.181493,-0.49733 1.514612,0 2.49798,0.90424 0.972064,0.90425 0.972064,2.2041 v 5.54981 q 0,0.82513 0.124334,1.0851 0.135637,0.24867 0.44082,0.373 0.305183,0.11303 1.367672,0.11303 v 0.94946 h -5.832386 v -0.94946 h 0.429516 q 0.825125,0 1.085095,-0.12433 0.259971,-0.13564 0.373002,-0.42952 0.124334,-0.30518 0.124334,-1.24334 v -3.85435 q 0,-1.27724 -0.09042,-1.66155 -0.169546,-0.65558 -0.700791,-1.05118 -0.531244,-0.39561 -1.356368,-0.39561 -0.926852,0 -1.944129,0.46342 -1.005974,0.45213 -2.091069,1.36768 v 5.66284 q 0,0.63297 0.113031,0.84773 0.113031,0.21475 0.373001,0.31648 0.259971,0.10173 1.039883,0.10173 h 0.463426 v 0.94946 h -5.854992 v -0.94946 h 0.350395 q 0.825125,0 1.198126,-0.20346 0.203456,-0.10172 0.29388,-0.3956 0.09043,-0.29388 0.09043,-1.62765 v -11.48392 z"
         id="path12002" /><path
         d="m 48.436255,491.45079 q 0.542547,0 0.926852,0.38431 0.384304,0.373 0.384304,0.91555 0,0.54254 -0.384304,0.92685 -0.384305,0.3843 -0.926852,0.3843 -0.542548,0 -0.926852,-0.3843 -0.384305,-0.38431 -0.384305,-0.92685 0,-0.54255 0.384305,-0.91555 0.384304,-0.38431 0.926852,-0.38431 z m -2.882284,6.9966 v -0.93815 q 0.938155,-0.11303 1.571127,-0.31649 0.644275,-0.20345 1.458097,-0.64427 h 0.825124 v 9.06506 q 0,0.47473 0.135637,0.7121 0.135637,0.23736 0.373001,0.35039 0.248668,0.10173 0.892943,0.10173 h 0.531245 v 0.94946 h -5.787174 v -0.94946 h 0.463426 q 0.757306,0 1.017277,-0.13564 0.25997,-0.13563 0.361698,-0.3843 0.113031,-0.24867 0.113031,-1.16422 v -6.64621 z"
         id="path12004" /><path
         d="m 60.236665,496.81975 h 0.791215 l 1.017277,3.45874 -1.017277,0.33909 q -0.610366,-1.39027 -1.718067,-2.18149 -1.096398,-0.80252 -2.226706,-0.80252 -0.870336,0 -1.412884,0.42952 -0.542548,0.41821 -0.542548,0.97206 0,0.51995 0.395608,0.89295 0.384305,0.3843 1.72937,0.87033 l 2.2041,0.77992 q 1.865007,0.66688 2.543191,1.42418 0.666882,0.76861 0.666882,1.74068 0,0.82512 -0.497336,1.59373 -0.497335,0.75731 -1.446793,1.20943 -0.938155,0.45212 -2.158887,0.45212 -1.898917,0 -3.255285,-1.08509 l -0.237365,0.81382 h -0.802518 l -1.412884,-3.69611 1.028579,-0.40691 q 1.02858,1.62765 1.944129,2.30583 1.277247,0.96076 2.75795,0.96076 0.983367,0 1.61634,-0.51994 0.632972,-0.53125 0.632972,-1.17552 0,-0.53124 -0.395608,-0.97206 -0.406911,-0.42952 -1.559824,-0.83643 l -2.61101,-0.94946 q -1.684158,-0.61037 -2.339736,-1.33376 -0.655579,-0.7234 -0.655579,-1.66155 0,-1.14162 1.062489,-2.01195 1.073792,-0.88164 2.724041,-0.88164 0.859034,0 1.537218,0.22606 0.678185,0.21476 1.333763,0.7234 z"
         id="path12006" /><path
         d="m 82.017687,504.57366 0.723397,0.58776 q -2.124978,2.83707 -5.097686,2.83707 -2.317131,0 -3.910864,-1.65025 -1.593733,-1.65025 -1.593733,-4.10301 0,-1.63895 0.734699,-2.9388 0.746003,-1.31116 2.05716,-2.03456 1.32246,-0.72339 3.029224,-0.72339 1.944128,0 3.243982,0.96076 1.299853,0.94946 1.299853,1.92152 0,0.51994 -0.305183,0.80252 -0.305183,0.28258 -0.689487,0.28258 -0.203456,0 -0.395608,-0.10173 -0.192152,-0.10173 -0.395607,-0.32779 -0.09042,-0.10173 -0.327789,-0.63297 -0.305183,-0.65558 -0.47473,-0.88164 -0.350395,-0.45212 -0.870336,-0.7121 -0.508639,-0.25997 -1.141611,-0.25997 -0.960761,0 -1.785885,0.53125 -0.813822,0.53124 -1.299854,1.57113 -0.474729,1.02858 -0.474729,2.46407 0,2.2267 1.186823,3.53786 1.02858,1.13031 2.452767,1.13031 0.655578,0 1.322459,-0.21476 0.678185,-0.22606 1.277248,-0.65558 0.44082,-0.30518 1.43549,-1.39028 z"
         id="path12008" /><path
         d="m 92.190453,501.18274 v -1.23204 q 0,-1.25464 -0.70079,-1.78588 -0.700791,-0.54255 -1.978038,-0.54255 -0.632973,0 -1.107702,0.15824 -0.474729,0.14694 -0.768609,0.41822 -0.282576,0.25997 -0.418213,0.59906 -0.05652,0.12433 -0.271274,0.96076 -0.259971,1.01728 -1.051186,1.01728 -0.452123,0 -0.7347,-0.29388 -0.271274,-0.30519 -0.271274,-0.81382 0,-0.74601 0.553851,-1.4581 0.553851,-0.7234 1.684158,-1.18682 1.141611,-0.47473 2.690132,-0.47473 1.446793,0 2.475373,0.45212 1.028579,0.44082 1.514612,1.27725 0.339092,0.57646 0.339092,2.10237 v 4.35168 q 0,0.92686 0.05651,1.20943 0.124334,0.48603 0.429517,0.7347 0.316486,0.23737 0.813821,0.23737 0.519942,0 1.243338,-0.24867 v 0.98337 q -0.938155,0.27127 -1.684158,0.27127 -0.802518,0 -1.356368,-0.22606 -0.542548,-0.22606 -0.892943,-0.65558 -0.350396,-0.44082 -0.452123,-1.03988 -1.356369,1.06249 -2.452767,1.492 -1.096398,0.42952 -2.215403,0.42952 -1.559824,0 -2.531888,-0.84773 -0.972064,-0.84773 -0.972064,-1.98934 0,-0.68949 0.350395,-1.31116 0.361698,-0.62167 1.085095,-1.0964 0.7347,-0.47472 2.294524,-0.83642 1.559824,-0.3617 4.329077,-0.65558 z m 0,0.98337 q -2.622313,0.3843 -3.243982,0.53124 -1.232035,0.28258 -1.76328,0.62167 -0.531244,0.33909 -0.757306,0.7347 -0.226061,0.3843 -0.226061,0.82512 0,0.44082 0.248668,0.85904 0.25997,0.40691 0.723396,0.64427 0.463426,0.23737 0.983368,0.23737 0.7347,0 1.661552,-0.3504 0.926852,-0.35039 2.373645,-1.36767 z"
         id="path12010" /><path
         d="m 97.468988,498.43609 v -0.92685 q 0.825124,-0.0678 1.4694,-0.27127 0.644275,-0.21476 1.469402,-0.68949 h 0.84773 v 2.13628 q 0.80252,-0.98337 1.865,-1.55982 1.06249,-0.57646 1.91022,-0.57646 0.83643,0 1.32246,0.39561 0.48604,0.3956 0.48604,0.96076 0,0.40691 -0.32779,0.72339 -0.31649,0.30519 -0.76861,0.30519 -0.20346,0 -0.3504,-0.0565 -0.14694,-0.0565 -0.42951,-0.24867 -0.62167,-0.40691 -1.03989,-0.40691 -0.56515,0 -1.24334,0.47473 -0.85903,0.61037 -1.34506,1.19813 v 5.21072 q 0,0.67818 0.0678,0.92685 0.0791,0.23736 0.24867,0.41821 0.16954,0.16955 0.41821,0.24867 0.24867,0.0791 0.87034,0.0791 h 0.373 v 0.94946 h -5.843692 v -0.94946 h 0.486032 q 0.689488,0 0.904246,-0.12433 0.29388,-0.16955 0.429517,-0.46343 0.14694,-0.30518 0.14694,-1.08509 v -6.66882 z"
         id="path12012" /><path
         d="m 114.71748,493.05583 v -0.96076 q 0.76861,-0.0678 1.40158,-0.25997 0.64428,-0.20346 1.60504,-0.68949 h 0.84773 v 13.71063 q 0,0.94946 0.0452,1.15291 0.11303,0.42952 0.38431,0.59906 0.27127,0.16955 1.05118,0.16955 h 0.48604 v 0.94946 l -3.92217,0.18085 v -1.79719 q -1.13031,1.02858 -2.12498,1.4581 -0.98337,0.42951 -1.97804,0.42951 -2.04585,0 -3.40222,-1.63894 -1.34507,-1.65025 -1.34507,-3.96738 0,-1.65025 0.7121,-3.01792 0.72339,-1.37898 1.89891,-2.10238 1.17552,-0.72339 2.5771,-0.72339 1.0738,0 1.98934,0.373 0.91555,0.373 1.67286,1.119 v -4.98465 z m 1.89892,11.93604 v -4.27256 q 0,-0.91555 -0.3504,-1.492 -0.33909,-0.58776 -1.1303,-1.01728 -0.77991,-0.42952 -1.60504,-0.42952 -0.98337,0 -1.81979,0.54255 -0.82513,0.53125 -1.29986,1.54852 -0.46342,1.00598 -0.46342,2.44147 0,1.35636 0.42951,2.35104 0.44082,0.98336 1.17552,1.5033 0.7347,0.50864 1.50331,0.50864 0.75731,0 1.71807,-0.42951 0.96076,-0.44082 1.8424,-1.25465 z"
         id="path12014" /><path
         d="m 124.89024,505.0936 q 0.59907,0 1.00598,0.41822 0.41821,0.40691 0.41821,0.99467 0,0.58776 -0.41821,1.00597 -0.41822,0.40691 -1.00598,0.40691 -0.57645,0 -0.99467,-0.40691 -0.41821,-0.41821 -0.41821,-1.00597 0,-0.58776 0.40691,-0.99467 0.41821,-0.41822 1.00597,-0.41822 z"
         id="path12016" /></g><g
       id="path4216"><path
         style="color:#000000;fill:#ffffff;stroke-width:3.71842;stroke-linecap:round;-inkscape-stroke:none"
         d="m 52.916669,34.02077 c -5.478482,0 -9.915796,4.437315 -9.915796,9.915788 0,2.206262 0.718902,4.238996 1.933579,5.899891 -4.833942,2.776428 -8.130945,7.957426 -8.130945,13.931692 0,5.032262 2.330207,9.519148 5.974265,12.469079 -7.436842,2.627662 -18.369007,13.758075 -18.369007,33.39132 H 81.42456 c 0,-19.633245 -10.932161,-30.763658 -18.369004,-33.39132 3.644058,-2.949931 5.974266,-7.436817 5.974266,-12.469079 0,-5.974266 -3.297003,-11.155264 -8.130945,-13.931692 1.214686,-1.660895 1.933579,-3.693629 1.933579,-5.899891 0,-5.478473 -4.437314,-9.915788 -9.915787,-9.915788 z"
         id="path12156" /><path
         style="color:#000000;fill:#000000;stroke-linecap:round;-inkscape-stroke:none"
         d="m 52.916016,32.162109 c -6.482392,0 -11.773438,5.293007 -11.773438,11.775391 0,1.955739 0.602316,3.732212 1.447266,5.363281 -4.553358,3.248984 -7.646485,8.448744 -7.646485,14.466797 0,4.592566 1.808273,8.734846 4.671875,11.910156 C 31.62842,79.92407 22.548828,91.281663 22.548828,109.62891 v 1.85937 h 60.734375 v -1.85937 c 0,-18.348107 -9.079321,-29.707268 -17.066406,-33.953129 2.863051,-3.175188 4.671875,-7.316134 4.671875,-11.908203 0,-6.017493 -3.091884,-11.217731 -7.644531,-14.466797 0.844953,-1.631073 1.447265,-3.407546 1.447265,-5.363281 0,-6.482384 -5.293007,-11.775391 -11.77539,-11.775391 z m 0,3.71875 c 4.474551,0 8.05664,3.58209 8.05664,8.056641 0,1.802388 -0.579889,3.441189 -1.574219,4.800781 l -1.226562,1.675781 1.800781,1.035157 c 4.284328,2.460751 7.197266,7.028123 7.197266,12.318359 0,4.458315 -2.054478,8.411679 -5.283203,11.025391 l -2.583985,2.089843 3.132813,1.107422 c 6.198907,2.190262 16.298844,12.062416 16.998047,29.779296 H 26.398437 C 27.097641,90.05265 37.197578,80.180496 43.396484,77.990234 l 3.134766,-1.107422 -2.583984,-2.089843 c -3.228726,-2.613712 -5.285157,-6.567076 -5.285157,-11.025391 0,-5.290236 2.914892,-9.857608 7.199219,-12.318359 l 1.798828,-1.035157 -1.224609,-1.675781 C 45.44122,47.378684 44.859375,45.739883 44.859375,43.9375 c 0,-4.474551 3.582079,-8.056641 8.056641,-8.056641 z"
         id="path12158" /></g></g></svg>
