<?xml version="1.0" encoding="UTF-8" standalone="no"?>
<!-- Created with Inkscape (http://www.inkscape.org/) -->

<svg
   width="400"
   height="600"
   viewBox="0 0 105.83333 158.75"
   version="1.1"
   id="svg5"
   inkscape:export-filename="CardTemplate.svg"
   inkscape:export-xdpi="26.281288"
   inkscape:export-ydpi="26.281288"
   inkscape:version="1.2.2 (732a01da63, 2022-12-09)"
   sodipodi:docname="QueenCard.svg"
   xml:space="preserve"
   xmlns:inkscape="http://www.inkscape.org/namespaces/inkscape"
   xmlns:sodipodi="http://sodipodi.sourceforge.net/DTD/sodipodi-0.dtd"
   xmlns="http://www.w3.org/2000/svg"
   xmlns:svg="http://www.w3.org/2000/svg"><sodipodi:namedview
     id="namedview7"
     pagecolor="#505050"
     bordercolor="#ffffff"
     borderopacity="1"
     inkscape:showpageshadow="0"
     inkscape:pageopacity="0"
     inkscape:pagecheckerboard="1"
     inkscape:deskcolor="#505050"
     inkscape:document-units="mm"
     showgrid="false"
     showguides="true"
     inkscape:zoom="1.0129245"
     inkscape:cx="-31.591693"
     inkscape:cy="326.28296"
     inkscape:window-width="1920"
     inkscape:window-height="991"
     inkscape:window-x="-9"
     inkscape:window-y="-9"
     inkscape:window-maximized="1"
     inkscape:current-layer="layer1" /><defs
     id="defs2"><linearGradient
       id="linearGradient3910"
       inkscape:swatch="solid"><stop
         style="stop-color:#000000;stop-opacity:1;"
         offset="0"
         id="stop3908" /></linearGradient><linearGradient
       id="linearGradient3902"
       inkscape:swatch="solid"><stop
         style="stop-color:#000000;stop-opacity:1;"
         offset="0"
         id="stop3900" /></linearGradient><linearGradient
       id="linearGradient1908"
       inkscape:swatch="gradient"><stop
         style="stop-color:#412a2a;stop-opacity:1;"
         offset="0.83033931"
         id="stop1904" /><stop
         style="stop-color:#412a2a;stop-opacity:0;"
         offset="0.84431136"
         id="stop1906" /></linearGradient><rect
       x="20.732048"
       y="466.96471"
       width="356.39378"
       height="115.50713"
       id="rect857" /><rect
       x="13.821366"
       y="17.770327"
       width="368.24067"
       height="96.749559"
       id="rect721" /><rect
       x="18.757568"
       y="19.744808"
       width="363.22514"
       height="30.382957"
       id="rect495" /></defs><g
     inkscape:label="Layer 1"
     inkscape:groupmode="layer"
     id="layer1"><g
       id="rect386"><path
         style="color:#000000;fill:#c87137;stroke-width:2.64597;stroke-linejoin:round;-inkscape-stroke:none;paint-order:markers fill stroke"
         d="M 1.6582794,1.6582794 H 104.84566 V 157.76231 H 1.6582794 Z"
         id="path11149" /><path
         style="color:#000000;fill:#331f14;stroke-linejoin:round;-inkscape-stroke:none;paint-order:markers fill stroke"
         d="M 1.6582031,0.3359375 A 1.3231174,1.3231174 0 0 0 0.3359375,1.6582031 V 157.76172 a 1.3231174,1.3231174 0 0 0 1.3222656,1.32422 H 104.8457 a 1.3231174,1.3231174 0 0 0 1.32227,-1.32422 V 1.6582031 A 1.3231174,1.3231174 0 0 0 104.8457,0.3359375 Z M 2.9804688,2.9804688 H 103.52344 V 156.43945 H 2.9804688 Z"
         id="path11151" /></g><g
       aria-label="Queen"
       transform="matrix(0.26458333,0,0,0.26458333,0,9.5250005)"
       id="text719"
       style="font-size:53.3333px;line-height:0;font-family:Broadway;-inkscape-font-specification:Broadway;text-align:center;letter-spacing:0px;word-spacing:0px;baseline-shift:baseline;white-space:pre;shape-inside:url(#rect721);display:inline;opacity:1;vector-effect:none;stroke-width:0.999999;stop-color:#000000;stop-opacity:1"><path
         d="m 137.3044,40.055586 q 2.36979,2.109373 6.24999,4.453122 0.72917,0.416666 0.72917,0.859374 0,0.338542 -0.28646,0.625 -0.28646,0.286458 -0.625,0.286458 -0.70312,0 -3.20312,-1.666665 -2.47396,-1.666666 -4.47916,-3.489582 -4.76563,2.630207 -9.79167,2.630207 -4.89583,0 -9.32291,-2.473957 -5.05208,-2.812498 -7.60416,-8.020828 -1.95312,-3.93229 -1.95312,-8.333329 0,-7.291662 4.84374,-12.630201 2.73438,-3.0468727 6.51042,-4.6614551 3.5677,-1.5624991 7.49999,-1.5624991 5.41667,0 10,2.83854 4.66145,2.9166652 7.05728,7.9687452 1.82292,3.854164 1.82292,8.072912 0,4.374997 -2.00521,8.463537 -2.0052,4.062497 -5.4427,6.640621 z m -1.35417,-1.09375 q 2.21354,-1.484374 4.16667,-4.296872 2.99479,-4.296873 2.99479,-9.687494 0,-4.557289 -2.31771,-8.67187 -2.26562,-4.036456 -6.25,-6.3281215 -3.95833,-2.2916653 -8.67187,-2.2916653 -1.04166,0 -2.03125,0.1822916 V 42.008709 q 0.91146,0.182292 1.79688,0.182292 4.92187,0 8.72395,-2.239582 -4.60937,-4.583331 -4.60937,-5.468747 0,-0.286458 0.26042,-0.546874 0.26041,-0.260417 0.52083,-0.260417 0.44271,0 1.22396,0.937499 2.26562,2.682291 4.1927,4.348956 z"
         style="baseline-shift:baseline"
         id="path11037" /><path
         d="m 183.21583,14.248309 -0.0781,20.468738 0.0781,7.968745 H 169.90855 V 39.01392 q -3.30729,2.265623 -6.04167,3.255206 -2.70833,0.989583 -5.67708,0.989583 -5.4427,0 -7.89062,-3.229165 -0.91145,-1.197916 -1.27604,-2.708332 -0.33854,-1.536457 -0.33854,-4.348956 l 0.0521,-6.093746 0.026,-4.062497 -0.13021,-8.567704 h 13.30728 l -0.13021,13.072909 0.026,4.947914 0.026,3.333331 q 0,2.99479 0.36458,3.593748 0.44271,0.677083 1.66667,0.677083 1.24999,0 2.57812,-0.651041 1.35416,-0.651042 3.48958,-2.317707 l 0.026,-3.411457 0.0521,-9.296869 -0.15625,-9.14062 v -0.807291 z"
         style="baseline-shift:baseline"
         id="path11039" /><path
         d="m 199.64811,29.300384 v 8.072912 q 0,2.343748 0.28646,2.968748 0.54687,1.197916 2.57812,1.197916 3.02083,0 5.96354,-1.640624 2.96875,-1.666666 5.13021,-4.583331 0.70312,-0.963541 1.01562,-1.223958 0.3125,-0.260416 0.67708,-0.260416 0.44271,0 0.72917,0.338541 0.28646,0.3125 0.28646,0.807292 0,1.093749 -1.74479,2.942706 -2.29167,2.36979 -5.70312,3.854165 -3.38542,1.484374 -6.61458,1.484374 -5.54688,0 -9.79167,-3.723956 -2.47395,-2.187499 -3.80208,-5.390622 -1.17187,-2.812499 -1.17187,-5.624997 0,-2.708332 1.04167,-5.416663 1.04166,-2.734374 2.86458,-4.713539 2.10937,-2.317707 4.99999,-3.593748 2.83854,-1.249999 5.9375,-1.249999 4.81771,0 8.72395,2.83854 6.09375,4.42708 6.04167,12.838534 h -6.06771 l -7.81249,0.02604 z m 6.66666,-1.718749 v -7.604162 q -0.0521,-2.447916 -0.10416,-2.916665 -0.0521,-0.494792 -0.36459,-0.911458 -0.72916,-1.015625 -2.96874,-1.015625 -2.29167,0 -2.86459,1.171875 -0.36458,0.703124 -0.36458,3.671873 v 7.604162 l 3.17708,0.104166 z"
         style="baseline-shift:baseline"
         id="path11041" /><path
         d="m 231.57517,29.300384 v 8.072912 q 0,2.343748 0.28646,2.968748 0.54688,1.197916 2.57813,1.197916 3.02083,0 5.96353,-1.640624 2.96875,-1.666666 5.13021,-4.583331 0.70312,-0.963541 1.01562,-1.223958 0.3125,-0.260416 0.67709,-0.260416 0.4427,0 0.72916,0.338541 0.28646,0.3125 0.28646,0.807292 0,1.093749 -1.74479,2.942706 -2.29167,2.36979 -5.70312,3.854165 -3.38542,1.484374 -6.61458,1.484374 -5.54687,0 -9.79166,-3.723956 -2.47396,-2.187499 -3.80208,-5.390622 -1.17188,-2.812499 -1.17188,-5.624997 0,-2.708332 1.04167,-5.416663 1.04166,-2.734374 2.86458,-4.713539 2.10937,-2.317707 5,-3.593748 2.83854,-1.249999 5.93749,-1.249999 4.81771,0 8.72396,2.83854 6.09374,4.42708 6.04166,12.838534 h -6.0677 l -7.8125,0.02604 z m 6.66667,-1.718749 v -7.604162 q -0.0521,-2.447916 -0.10417,-2.916665 -0.0521,-0.494792 -0.36458,-0.911458 -0.72917,-1.015625 -2.96875,-1.015625 -2.29167,0 -2.86458,1.171875 -0.36459,0.703124 -0.36459,3.671873 v 7.604162 l 3.17709,0.104166 z"
         style="baseline-shift:baseline"
         id="path11043" /><path
         d="m 266.44495,14.248309 v 3.61979 q 3.04687,-2.161457 5.96354,-3.229165 2.91666,-1.093749 5.67708,-1.093749 3.69791,0 6.25,1.692707 1.92708,1.276041 2.57812,3.177081 0.67708,1.874999 0.67708,6.14583 l -0.0521,12.057285 0.0781,6.067704 h -13.2552 l 0.10417,-7.239579 0.0781,-5.312496 -0.026,-8.020829 q -0.026,-2.786457 -0.0781,-3.30729 -0.026,-0.546874 -0.23438,-0.963541 -0.41666,-0.833333 -1.79687,-0.833333 -1.27604,0 -2.76042,0.729167 -1.48437,0.729166 -3.20312,2.187498 l -0.026,1.067708 -0.0521,7.317704 -0.0521,5.598955 0.0781,7.656245 0.026,1.119791 h -13.30728 l 0.0781,-10.208327 0.0781,-6.744788 -0.0781,-5.833329 -0.0781,-5.651039 z"
         style="baseline-shift:baseline"
         id="path11045" /></g><g
       aria-label="Description:"
       id="text733"
       style="font-size:7.05556px;line-height:0px;font-family:Broadway;-inkscape-font-specification:Broadway;opacity:1;vector-effect:none;stroke-width:0.264583;stop-color:#000000;stop-opacity:1"><path
         d="m 4.7016462,116.51791 h 1.8121214 q 0.7096901,0 1.0679802,0.0689 0.8853902,0.16881 1.4297156,0.94396 0.4271921,0.60978 0.4271921,1.34359 0,0.74758 -0.4409725,1.36081 -0.530545,0.74069 -1.3849293,0.91984 -0.2204862,0.0448 -0.3927411,0.0551 -0.1722549,0.0103 -0.7579215,0.0103 H 4.7119815 l 0.010335,-2.27377 z m 2.1049547,0.22048 -0.017226,2.76986 0.020671,1.49173 q 0.4616431,-0.003 0.6614587,-0.0344 0.2032608,-0.0345 0.4650882,-0.14814 0.6166725,-0.26527 0.9680725,-0.85438 0.3066137,-0.50643 0.3066137,-1.09555 0,-0.64078 -0.3617353,-1.17822 -0.6442333,-0.95429 -1.9085841,-0.95429 z"
         id="path11012" /><path
         d="m 11.3748,119.44969 v 1.06798 q 0,0.31006 0.0379,0.39274 0.07235,0.15847 0.341065,0.15847 0.399631,0 0.788927,-0.21704 0.392742,-0.22049 0.678685,-0.60634 0.09302,-0.12746 0.134358,-0.16192 0.04134,-0.0344 0.08957,-0.0344 0.05857,0 0.09646,0.0448 0.0379,0.0413 0.0379,0.1068 0,0.14469 -0.230822,0.38929 -0.303168,0.31351 -0.754476,0.50988 -0.447863,0.19637 -0.875055,0.19637 -0.733806,0 -1.295357,-0.49265 -0.327284,-0.28939 -0.5029839,-0.71314 -0.1550294,-0.37207 -0.1550294,-0.74414 0,-0.35829 0.1378039,-0.71658 0.1378034,-0.36173 0.3789604,-0.62356 0.279053,-0.30661 0.661459,-0.47542 0.375516,-0.16537 0.785482,-0.16537 0.637343,0 1.154108,0.37552 0.806153,0.58566 0.799263,1.69843 h -0.802708 l -1.033529,0.003 z m 0.881945,-0.22738 v -1.00597 q -0.0069,-0.32384 -0.01378,-0.38585 -0.0069,-0.0655 -0.04823,-0.12058 -0.09646,-0.13436 -0.392742,-0.13436 -0.303168,0 -0.37896,0.15503 -0.04823,0.093 -0.04823,0.48576 v 1.00597 l 0.420302,0.0138 z"
         id="path11014" /><path
         d="m 14.161884,120.58312 q 0.0689,0 0.1757,0.10336 0.172254,0.16192 0.489203,0.27905 0.316949,0.11369 0.592557,0.11369 0.127469,0 0.189481,-0.0413 0.06546,-0.0448 0.06546,-0.12747 0,-0.0827 -0.08957,-0.19637 -0.08613,-0.11714 -0.389296,-0.44442 -0.740696,-0.79237 -0.961182,-1.11277 -0.217041,-0.32384 -0.217041,-0.62011 0,-0.25839 0.148139,-0.49265 0.151584,-0.23772 0.420302,-0.40308 0.444417,-0.27561 1.019749,-0.27561 0.423747,0 0.895725,0.17915 0.368625,0.14125 0.368625,0.30661 0,0.0517 -0.04479,0.093 -0.04134,0.0413 -0.09646,0.0413 -0.06546,0 -0.244602,-0.12747 -0.36518,-0.26183 -0.795817,-0.26183 -0.151584,0 -0.230822,0.0482 -0.07579,0.0482 -0.07579,0.14813 0,0.11714 0.141249,0.29628 0.144694,0.17915 0.582222,0.60634 0.427192,0.41686 0.54088,0.54777 0.117133,0.12747 0.223931,0.29628 0.182591,0.28939 0.182591,0.62701 0,0.53054 -0.51332,0.85783 -0.420302,0.27216 -1.033529,0.27216 -0.68213,0 -1.20923,-0.30317 -0.155029,-0.093 -0.213596,-0.15158 -0.05512,-0.0586 -0.05512,-0.12747 0,-0.12747 0.134359,-0.13092 z"
         id="path11016" /><path
         d="m 19.236512,118.20601 v 2.30132 l -0.0034,0.22049 q 0,0.21359 0.05168,0.28594 0.05512,0.0689 0.217041,0.0689 0.406522,0 0.799263,-0.24804 0.392741,-0.2515 0.640788,-0.6718 0.07579,-0.12747 0.148139,-0.12747 0.05168,0 0.09302,0.0482 0.04479,0.0448 0.04479,0.0965 0,0.12402 -0.199816,0.3514 -0.199815,0.22393 -0.465088,0.40307 -0.54088,0.36174 -1.157553,0.36174 -0.844049,0 -1.395264,-0.52366 -0.627008,-0.58911 -0.627008,-1.44349 0,-0.88195 0.661459,-1.46761 0.55466,-0.4961 1.367703,-0.4961 0.647679,0 1.133438,0.30662 0.206705,0.13091 0.337619,0.28249 0.130914,0.14814 0.130914,0.2515 0,0.0517 -0.0379,0.0896 -0.0379,0.0344 -0.09302,0.0344 -0.07235,0 -0.18259,-0.16537 -0.158474,-0.23082 -0.499539,-0.39963 -0.341065,-0.17225 -0.644233,-0.17225 -0.203261,0 -0.261828,0.11369 -0.05857,0.11369 -0.05857,0.49954 z"
         id="path11018" /><path
         d="m 23.353405,118.5264 -0.0069,1.32292 0.01378,1.37115 H 21.59296 l 0.0034,-0.18948 0.0034,-0.7028 0.01034,-1.26435 -0.01378,-1.4056 -0.0034,-0.19982 h 1.76389 v 0.70969 q 0.396186,-0.4203 0.551215,-0.53055 0.358291,-0.25149 0.67524,-0.25149 0.192925,0 0.316949,0.0827 0.127468,0.0827 0.127468,0.21015 0,0.0999 -0.07579,0.16536 -0.07579,0.0655 -0.18948,0.0655 -0.07235,0 -0.16192,-0.0413 -0.151584,-0.0724 -0.251492,-0.0724 -0.248047,0 -0.478869,0.16881 -0.230821,0.16881 -0.516764,0.56155 z"
         id="path11020" /><path
         d="m 26.202501,116.25264 q 0.909506,0 0.909506,0.47542 0,0.23082 -0.241157,0.36173 -0.237712,0.12747 -0.671794,0.12747 -0.86472,0 -0.86472,-0.4892 0,-0.46853 0.868165,-0.47542 z m 0.89228,1.20578 v 0.0999 l -0.0069,0.53743 -0.0069,0.83372 -0.01034,1.26779 0.01378,0.71314 0.0069,0.31006 h -1.77078 l 0.01722,-1.2678 0.01034,-1.11966 -0.0069,-0.58911 -0.01034,-0.65457 0.0034,-0.13091 z"
         id="path11022" /><path
         d="m 27.911269,117.45842 h 1.760445 l -0.01034,0.45131 q 0.347955,-0.29973 0.637343,-0.4203 0.289388,-0.12403 0.637343,-0.12403 0.713136,0 1.157553,0.53055 0.399631,0.47542 0.399631,1.20923 0,0.78203 -0.458198,1.28502 -0.423747,0.46509 -1.057645,0.46509 -0.334174,0 -0.664903,-0.13781 -0.33073,-0.14125 -0.658014,-0.4203 l 0.0034,0.12747 0.0034,0.45131 0.0069,0.37551 0.0034,0.12747 h -1.760445 l 0.0034,-0.98185 0.0069,-0.91295 -0.01034,-1.90514 z m 1.75011,0.76137 v 1.79834 q 0.251492,0.23426 0.451308,0.35484 0.199816,0.11714 0.347955,0.11714 0.137804,0 0.161919,-0.13436 0.0069,-0.0448 0.01034,-0.46509 v -1.68465 q 0,-0.29973 -0.01034,-0.35829 -0.02412,-0.1447 -0.144694,-0.1447 -0.155029,0 -0.375515,0.14125 -0.220487,0.1378 -0.440973,0.37552 z"
         id="path11024" /><path
         d="m 34.84625,116.24575 -0.0379,1.11276 -0.0034,0.1068 q 0.299723,0 0.544325,-0.0241 0.04134,-0.003 0.07235,-0.003 0.151585,0 0.151585,0.1378 0,0.12747 -0.158475,0.12747 -0.04823,0 -0.120578,-0.007 -0.272163,-0.0207 -0.389296,-0.0207 h -0.09991 l -0.0034,0.66835 0.01378,1.34014 0.01033,0.71658 q 0,0.2515 0.0379,0.3514 0.0379,0.0999 0.130913,0.0999 0.124024,0 0.265273,-0.14469 0.137804,-0.1447 0.217041,-0.35485 0.07235,-0.19981 0.172255,-0.19981 0.117133,0 0.117133,0.13091 0,0.13091 -0.117133,0.32728 -0.117133,0.19293 -0.282498,0.33762 -0.406522,0.35485 -1.0542,0.35485 -0.609782,0 -0.943957,-0.36863 -0.172255,-0.18603 -0.237712,-0.41341 -0.06546,-0.23082 -0.06546,-0.63734 v -0.25838 l 0.0034,-0.72692 v -1.23334 q -0.04823,-0.003 -0.0689,-0.003 -0.03445,0 -0.137804,0.007 -0.08613,0.007 -0.144694,0.007 -0.16881,0 -0.16881,-0.12747 0,-0.12402 0.161919,-0.12402 0.07579,0 0.106799,0.003 l 0.251492,0.0172 v -0.3893 q 1.019749,-0.36862 1.77767,-0.80959 z"
         id="path11026" /><path
         d="m 36.882303,116.25264 q 0.909506,0 0.909506,0.47542 0,0.23082 -0.241157,0.36173 -0.237712,0.12747 -0.671794,0.12747 -0.86472,0 -0.86472,-0.4892 0,-0.46853 0.868165,-0.47542 z m 0.89228,1.20578 v 0.0999 l -0.0069,0.53743 -0.0069,0.83372 -0.01034,1.26779 0.01378,0.71314 0.0069,0.31006 h -1.77078 l 0.01723,-1.2678 0.01034,-1.11966 -0.0069,-0.58911 -0.01034,-0.65457 0.0034,-0.13091 z"
         id="path11028" /><path
         d="m 40.313622,117.3654 q 0.554661,0 1.050755,0.30662 0.458198,0.28249 0.699355,0.7717 0.213596,0.43064 0.213596,0.91295 0,0.33073 -0.127469,0.6649 -0.124023,0.33418 -0.341064,0.59256 -0.303169,0.35484 -0.740696,0.53399 -0.358291,0.14814 -0.747587,0.14814 -0.651123,0 -1.171333,-0.38585 -0.406521,-0.29628 -0.616672,-0.76137 -0.1757,-0.39274 -0.1757,-0.83027 0,-0.85438 0.620117,-1.41938 0.582222,-0.52365 1.336698,-0.53399 z m -0.09991,0.22393 -0.01034,3.47266 q 0.106798,0.007 0.148139,0.007 0.478869,0 0.916396,-0.26872 0.420302,-0.26182 0.630453,-0.69591 0.165365,-0.3445 0.165365,-0.75792 0,-0.83027 -0.613228,-1.34703 -0.496094,-0.41686 -1.078315,-0.41686 -0.04823,0 -0.158475,0.007 z"
         id="path11030" /><path
         d="m 44.582098,117.45842 v 0.47887 q 0.403077,-0.28594 0.788927,-0.42719 0.385851,-0.1447 0.751032,-0.1447 0.489204,0 0.826823,0.22393 0.254937,0.16881 0.341065,0.42031 0.08957,0.24804 0.08957,0.81304 l -0.0069,1.59508 0.01034,0.80271 h -1.753555 l 0.01378,-0.95774 0.01033,-0.7028 -0.0034,-1.06109 q -0.0034,-0.36863 -0.01033,-0.43753 -0.0034,-0.0724 -0.03101,-0.12747 -0.05512,-0.11024 -0.237712,-0.11024 -0.168809,0 -0.36518,0.0965 -0.19637,0.0965 -0.423747,0.28939 l -0.0034,0.14125 -0.0069,0.96807 -0.0069,0.7407 0.01034,1.01286 0.0034,0.14814 h -1.760445 l 0.01034,-1.35048 0.01034,-0.89228 -0.01034,-0.7717 -0.01034,-0.74759 z"
         id="path11032" /><path
         d="m 49.067614,119.7942 q 0.458198,0 0.73725,0.20326 0.279053,0.20326 0.279053,0.54432 0,0.34796 -0.282498,0.56844 -0.282498,0.21704 -0.733805,0.21704 -0.568442,0 -0.85094,-0.31694 -0.165364,-0.18604 -0.165364,-0.43409 0,-0.3514 0.275608,-0.56155 0.275607,-0.21359 0.740696,-0.22048 z m 0,-1.97404 q 0.458198,0 0.73725,0.20326 0.279053,0.20326 0.279053,0.54432 0,0.34796 -0.282498,0.56844 -0.282498,0.21704 -0.733805,0.21704 -0.568442,0 -0.85094,-0.31695 -0.165364,-0.18603 -0.165364,-0.43408 0,-0.3514 0.275608,-0.56155 0.275607,-0.21359 0.740696,-0.22048 z"
         id="path11034" /></g><g
       aria-label="Move any queen, and discard this card."
       transform="matrix(0.27431353,0,0,0.27431353,-0.8676689,-4.702566)"
       id="text855"
       style="font-size:23.1487px;line-height:23.1487px;font-family:'Bookman Old Style';-inkscape-font-specification:'Bookman Old Style';white-space:pre;shape-inside:url(#rect857);display:inline;opacity:1;vector-effect:none;stroke-width:0.999999;stop-color:#000000;stop-opacity:1"><path
         d="m 21.817517,468.81072 h 4.984657 l 4.656867,12.4899 4.532534,-12.4899 h 4.815111 v 0.96076 h -0.406911 q -0.7347,0 -0.994671,0.12433 -0.248667,0.12434 -0.395607,0.44082 -0.14694,0.30518 -0.14694,1.01728 v 10.39883 q 0,0.98337 0.11303,1.27725 0.124334,0.29388 0.395608,0.45212 0.282577,0.14694 1.02858,0.14694 h 0.406911 v 0.94946 h -6.02454 v -0.94946 h 0.429517 q 0.576457,0 0.836428,-0.0904 0.271273,-0.0904 0.44082,-0.29388 0.180849,-0.21475 0.203455,-0.44082 0.05651,-0.46342 0.05651,-0.72339 v -11.60826 l -5.1429,14.10624 h -1.119004 l -5.188112,-13.90279 v 11.17875 q 0,0.84773 0.14694,1.15291 0.14694,0.29388 0.452123,0.46343 0.316486,0.15824 1.119004,0.15824 h 0.361699 v 0.94946 h -5.561114 v -0.94946 h 0.316486 q 0.802519,0 1.141611,-0.16955 0.350395,-0.16954 0.497335,-0.47473 0.14694,-0.31648 0.14694,-1.23203 v -10.2971 q 0,-0.85904 -0.124333,-1.13031 -0.124334,-0.28258 -0.418214,-0.41822 -0.282577,-0.13563 -1.017277,-0.13563 h -0.542548 z"
         id="path10947" /><path
         d="m 48.571899,473.39976 q 1.661553,0 2.870982,0.68949 1.220732,0.68949 1.921523,2.01195 0.700791,1.32246 0.700791,3.01792 0,1.69546 -0.723397,3.01792 -0.712094,1.32246 -1.955433,2.02325 -1.232035,0.68949 -2.950102,0.68949 -2.735345,0 -4.11432,-1.70676 -1.367673,-1.70677 -1.367673,-4.0126 0,-1.68415 0.712094,-2.98401 0.712094,-1.31115 1.989342,-2.02325 1.28855,-0.7234 2.916193,-0.7234 z m -0.09042,1.0964 q -1.288551,0 -2.181494,1.01728 -1.130308,1.26594 -1.130308,3.6848 0,2.32844 0.960762,3.54917 0.870337,1.08509 2.362343,1.08509 0.960761,0 1.706764,-0.50863 0.757307,-0.50864 1.220733,-1.61634 0.463426,-1.11901 0.463426,-2.62232 0,-1.4694 -0.497336,-2.63361 -0.384304,-0.92686 -1.164216,-1.4355 -0.76861,-0.51994 -1.740674,-0.51994 z"
         id="path10949" /><path
         d="m 54.992046,473.67104 h 5.176809 v 0.94946 h -0.316486 q -0.644275,0 -0.802518,0.0452 -0.226062,0.0678 -0.339092,0.21476 -0.113031,0.14694 -0.113031,0.35039 0,0.28258 0.248667,0.91555 l 2.577102,6.43145 2.49798,-6.43145 q 0.237364,-0.62167 0.237364,-0.90424 0,-0.29388 -0.226061,-0.45213 -0.226062,-0.16954 -0.813822,-0.16954 h -0.542547 v -0.94946 h 4.464715 v 0.94946 q -0.463426,0.0113 -0.779912,0.14694 -0.305183,0.13563 -0.486033,0.35039 -0.169546,0.21476 -0.519941,1.02858 l -3.605682,8.4321 h -1.356369 l -3.628287,-8.62425 q -0.226062,-0.53124 -0.497336,-0.87034 -0.180849,-0.21476 -0.486032,-0.33909 -0.29388,-0.12433 -0.689488,-0.12433 z"
         id="path10951" /><path
         d="m 77.541684,481.66231 0.723397,0.58776 q -0.825124,0.98337 -1.605037,1.55983 -0.768609,0.57646 -1.458096,0.80252 -0.689488,0.23736 -1.61634,0.23736 -1.661553,0 -2.825769,-0.67818 -1.333763,-0.77992 -2.045857,-2.03456 -0.712094,-1.25464 -0.712094,-2.9614 0,-1.78589 0.689488,-3.05183 0.689487,-1.26595 1.921523,-1.98935 1.243338,-0.7347 2.870981,-0.7347 1.209429,0 2.102372,0.38431 0.892943,0.373 1.514612,1.14161 0.62167,0.75731 0.904247,1.74067 0.158243,0.57646 0.180849,1.49201 h -7.991275 q -0.03391,0.55385 -0.03391,0.82512 0,1.42419 0.497336,2.5432 0.497335,1.1077 1.311157,1.63894 0.825124,0.51994 1.865007,0.51994 0.88164,0 1.706765,-0.40691 0.825125,-0.41821 2.000644,-1.61634 z m -1.446793,-4.56644 q -0.169546,-1.03988 -0.486033,-1.53722 -0.305183,-0.49733 -0.88164,-0.79121 -0.565153,-0.29388 -1.277247,-0.29388 -0.712094,0 -1.333763,0.29388 -0.621669,0.29388 -1.039883,0.81382 -0.406911,0.51994 -0.712094,1.51461 z"
         id="path10953" /><path
         d="m 95.434455,478.03403 v -1.23204 q 0,-1.25464 -0.700791,-1.78589 -0.700791,-0.54254 -1.978038,-0.54254 -0.632973,0 -1.107702,0.15824 -0.474729,0.14694 -0.768609,0.41821 -0.282577,0.25997 -0.418214,0.59907 -0.05652,0.12433 -0.271274,0.96076 -0.25997,1.01728 -1.051186,1.01728 -0.452123,0 -0.7347,-0.29388 -0.271274,-0.30519 -0.271274,-0.81383 0,-0.746 0.553851,-1.45809 0.553851,-0.7234 1.684159,-1.18683 1.14161,-0.47473 2.690132,-0.47473 1.446794,0 2.475373,0.45213 1.02858,0.44082 1.514613,1.27725 0.339092,0.57645 0.339092,2.10237 v 4.35168 q 0,0.92685 0.05652,1.20943 0.124334,0.48603 0.429517,0.7347 0.316486,0.23737 0.813822,0.23737 0.519941,0 1.243338,-0.24867 v 0.98337 q -0.938155,0.27127 -1.684158,0.27127 -0.802519,0 -1.356369,-0.22606 -0.542548,-0.22606 -0.892943,-0.65558 -0.350396,-0.44082 -0.452123,-1.03988 -1.35637,1.06249 -2.452768,1.492 -1.096398,0.42952 -2.215403,0.42952 -1.559825,0 -2.531889,-0.84773 -0.972065,-0.84773 -0.972065,-1.98934 0,-0.68949 0.350396,-1.31116 0.361698,-0.62167 1.085095,-1.0964 0.7347,-0.47473 2.294524,-0.83643 1.559825,-0.36169 4.329079,-0.65557 z m 0,0.98336 q -2.622314,0.38431 -3.243983,0.53125 -1.232036,0.28258 -1.76328,0.62167 -0.531245,0.33909 -0.757306,0.7347 -0.226062,0.3843 -0.226062,0.82512 0,0.44082 0.248668,0.85904 0.259971,0.40691 0.723397,0.64427 0.463426,0.23737 0.983367,0.23737 0.7347,0 1.661553,-0.3504 0.926852,-0.35039 2.373646,-1.36767 z"
         id="path10955" /><path
         d="m 100.7469,475.29868 v -0.94946 q 1.00597,-0.11303 1.50331,-0.27127 0.49734,-0.15824 1.43549,-0.67819 h 0.81382 v 2.14759 q 1.49201,-1.25464 2.54319,-1.69546 1.06249,-0.45213 2.14759,-0.45213 0.92685,0 1.63894,0.31649 0.7121,0.30518 1.15292,0.83643 0.45212,0.53124 0.59906,1.20943 0.0904,0.41821 0.0904,1.26594 v 4.97336 q 0,0.89294 0.12433,1.15291 0.13564,0.24867 0.41821,0.3617 0.28258,0.11303 1.39028,0.11303 v 0.94946 h -5.82108 v -0.94946 h 0.31648 q 0.81383,0 1.10771,-0.14694 0.29388,-0.14694 0.41821,-0.42952 0.13564,-0.28257 0.13564,-1.15291 v -4.15953 q 0,-1.28855 -0.21476,-1.78589 -0.20346,-0.49734 -0.7121,-0.80252 -0.49733,-0.31648 -1.26594,-0.31648 -0.91555,0 -1.95543,0.47472 -1.03989,0.46343 -2.01195,1.37898 v 5.21072 q 0,0.88164 0.12433,1.17552 0.13564,0.29388 0.42952,0.44082 0.20346,0.11303 1.0851,0.11303 h 0.32779 v 0.94946 h -5.82109 v -0.94946 h 0.28258 q 0.83643,0 1.14161,-0.13564 0.30518,-0.14694 0.42952,-0.50864 0.0678,-0.18085 0.0678,-1.24333 v -6.44276 z"
         id="path10957" /><path
         d="m 115.0566,473.67104 h 5.49329 v 0.94946 h -0.45212 q -0.64428,0 -0.76861,0.0339 -0.14694,0.0452 -0.24867,0.19215 -0.10173,0.13564 -0.10173,0.35039 0,0.30519 0.30519,1.02858 l 2.62231,6.16018 2.43016,-5.8889 q 0.42952,-1.03989 0.42952,-1.37898 0,-0.25997 -0.19215,-0.373 -0.19215,-0.12433 -0.87034,-0.12433 h -0.53124 v -0.94946 h 4.62295 v 0.94946 h -0.27127 q -0.67818,0 -0.88164,0.0904 -0.20345,0.0904 -0.39561,0.373 -0.19215,0.27128 -0.61036,1.25464 l -4.14823,9.66414 q -0.45213,1.03988 -1.00598,1.92152 -0.55385,0.89294 -1.39027,1.37897 -0.83643,0.48604 -1.84241,0.48604 -1.16421,0 -1.865,-0.53125 -0.59907,-0.45212 -0.59907,-1.13031 0,-0.41821 0.25997,-0.70079 0.25997,-0.27127 0.61037,-0.27127 0.27127,0 0.50864,0.11303 0.14694,0.0565 0.61036,0.47473 0.56516,0.49733 0.79122,0.61037 0.23736,0.11303 0.46343,0.11303 0.46342,0 0.91555,-0.31649 0.45212,-0.31649 0.7686,-0.89294 0.45213,-0.82513 0.74601,-1.54852 l 0.46342,-1.13031 -3.73001,-8.35298 q -0.39561,-0.88164 -0.66688,-1.18682 -0.27128,-0.30518 -0.54255,-0.373 -0.14694,-0.0452 -0.92685,-0.0452 z"
         id="path10959" /><path
         d="m 145.43927,473.67104 h 1.23203 v 13.33763 q 0,0.83643 0.10173,1.07379 0.14694,0.31649 0.41821,0.45212 0.27128,0.13564 0.98337,0.13564 h 0.49734 v 0.94946 h -5.8437 v -0.94946 h 0.49734 q 0.65558,0 0.90425,-0.12433 0.24866,-0.12434 0.373,-0.38431 0.13563,-0.24866 0.13563,-0.90424 v -4.0239 q -0.47472,0.45212 -1.19812,0.83643 -0.7234,0.3843 -1.50331,0.61037 -0.58776,0.16954 -1.25464,0.16954 -1.32246,0 -2.44147,-0.68949 -1.1077,-0.68948 -1.78588,-2.01194 -0.66688,-1.33377 -0.66688,-2.96141 0,-2.28322 1.34506,-3.93347 1.51461,-1.85371 3.94478,-1.85371 1.05118,0 1.87631,0.3617 0.83642,0.3504 1.91022,1.35637 z m -0.7008,8.4547 v -4.24996 q 0,-1.17552 -0.32778,-1.76328 -0.31649,-0.59906 -1.11901,-1.02858 -0.79121,-0.44082 -1.65025,-0.44082 -0.96076,0 -1.79719,0.54255 -0.82512,0.53125 -1.31115,1.54852 -0.47473,1.01728 -0.47473,2.41886 0,1.98934 0.98336,3.19877 0.98337,1.20943 2.30583,1.20943 0.7121,0 1.52592,-0.31649 0.82512,-0.32778 1.865,-1.119 z"
         id="path10961" /><path
         d="m 148.73976,473.67104 4.28387,-0.16955 v 7.27918 q 0,0.96077 0.25997,1.52592 0.27127,0.56515 0.81382,0.88164 0.55385,0.30518 1.28855,0.30518 0.90425,0 2.04586,-0.48603 1.15291,-0.48603 2.29452,-1.44679 v -5.26724 q 0,-0.83643 -0.12433,-1.0964 -0.12433,-0.25997 -0.44082,-0.41821 -0.31649,-0.15824 -0.99467,-0.15824 h -0.82512 v -0.94946 l 4.28386,-0.16955 v 8.4321 q 0,0.81382 0.13564,1.13031 0.13563,0.30518 0.39561,0.44082 0.27127,0.12433 1.07379,0.12433 h 0.35039 v 0.94946 l -3.75262,0.19215 v -2.09107 q -1.54852,1.23204 -2.70143,1.70677 -1.15292,0.46342 -2.33974,0.46342 -0.88164,0 -1.53722,-0.23736 -0.64427,-0.23737 -1.14161,-0.7121 -0.48603,-0.47473 -0.746,-1.14161 -0.25997,-0.66688 -0.25997,-1.42419 v -5.1429 q 0,-0.68948 -0.12434,-0.96076 -0.12433,-0.28257 -0.41821,-0.44082 -0.28258,-0.16954 -0.77991,-0.16954 h -1.03989 z"
         id="path10963" /><path
         d="m 174.77076,481.66231 0.72339,0.58776 q -0.82512,0.98337 -1.60503,1.55983 -0.76861,0.57646 -1.4581,0.80252 -0.68949,0.23736 -1.61634,0.23736 -1.66155,0 -2.82577,-0.67818 -1.33376,-0.77992 -2.04586,-2.03456 -0.71209,-1.25464 -0.71209,-2.9614 0,-1.78589 0.68949,-3.05183 0.68949,-1.26595 1.92152,-1.98935 1.24334,-0.7347 2.87098,-0.7347 1.20943,0 2.10237,0.38431 0.89295,0.373 1.51462,1.14161 0.62167,0.75731 0.90424,1.74067 0.15825,0.57646 0.18085,1.49201 h -7.99127 q -0.0339,0.55385 -0.0339,0.82512 0,1.42419 0.49733,2.5432 0.49734,1.1077 1.31116,1.63894 0.82512,0.51994 1.86501,0.51994 0.88164,0 1.70676,-0.40691 0.82513,-0.41821 2.00065,-1.61634 z m -1.4468,-4.56644 q -0.16954,-1.03988 -0.48603,-1.53722 -0.30518,-0.49733 -0.88164,-0.79121 -0.56515,-0.29388 -1.27725,-0.29388 -0.71209,0 -1.33376,0.29388 -0.62167,0.29388 -1.03988,0.81382 -0.40691,0.51994 -0.7121,1.51461 z"
         id="path10965" /><path
         d="m 186.80852,481.66231 0.7234,0.58776 q -0.82513,0.98337 -1.60504,1.55983 -0.76861,0.57646 -1.45809,0.80252 -0.68949,0.23736 -1.61634,0.23736 -1.66156,0 -2.82577,-0.67818 -1.33377,-0.77992 -2.04586,-2.03456 -0.71209,-1.25464 -0.71209,-2.9614 0,-1.78589 0.68948,-3.05183 0.68949,-1.26595 1.92153,-1.98935 1.24334,-0.7347 2.87098,-0.7347 1.20943,0 2.10237,0.38431 0.89294,0.373 1.51461,1.14161 0.62167,0.75731 0.90425,1.74067 0.15824,0.57646 0.18085,1.49201 h -7.99128 q -0.0339,0.55385 -0.0339,0.82512 0,1.42419 0.49734,2.5432 0.49733,1.1077 1.31116,1.63894 0.82512,0.51994 1.865,0.51994 0.88164,0 1.70677,-0.40691 0.82512,-0.41821 2.00064,-1.61634 z m -1.44679,-4.56644 q -0.16955,-1.03988 -0.48603,-1.53722 -0.30519,-0.49733 -0.88164,-0.79121 -0.56516,-0.29388 -1.27725,-0.29388 -0.71209,0 -1.33376,0.29388 -0.62167,0.29388 -1.03989,0.81382 -0.40691,0.51994 -0.71209,1.51461 z"
         id="path10967" /><path
         d="m 189.18217,475.29868 v -0.94946 q 1.00598,-0.11303 1.50331,-0.27127 0.49734,-0.15824 1.43549,-0.67819 h 0.81382 v 2.14759 q 1.49201,-1.25464 2.5432,-1.69546 1.06249,-0.45213 2.14758,-0.45213 0.92685,0 1.63895,0.31649 0.71209,0.30518 1.15291,0.83643 0.45212,0.53124 0.59906,1.20943 0.0904,0.41821 0.0904,1.26594 v 4.97336 q 0,0.89294 0.12433,1.15291 0.13564,0.24867 0.41822,0.3617 0.28257,0.11303 1.39027,0.11303 v 0.94946 h -5.82108 v -0.94946 h 0.31649 q 0.81382,0 1.1077,-0.14694 0.29388,-0.14694 0.41821,-0.42952 0.13564,-0.28257 0.13564,-1.15291 v -4.15953 q 0,-1.28855 -0.21476,-1.78589 -0.20346,-0.49734 -0.71209,-0.80252 -0.49734,-0.31648 -1.26595,-0.31648 -0.91555,0 -1.95543,0.47472 -1.03988,0.46343 -2.01195,1.37898 v 5.21072 q 0,0.88164 0.12434,1.17552 0.13563,0.29388 0.42951,0.44082 0.20346,0.11303 1.0851,0.11303 h 0.32779 v 0.94946 h -5.82109 v -0.94946 h 0.28258 q 0.83643,0 1.14161,-0.13564 0.30518,-0.14694 0.42952,-0.50864 0.0678,-0.18085 0.0678,-1.24333 v -6.44276 z"
         id="path10969" /><path
         d="m 206.11418,488.67022 -0.61037,-0.746 q 2.31713,-1.88762 2.31713,-3.15356 0,-0.14694 -0.0226,-0.3617 -0.19215,0.0791 -0.373,0.12434 -0.18085,0.0452 -0.33909,0.0452 -0.54255,0 -0.87034,-0.3504 -0.32779,-0.35039 -0.32779,-0.89294 0,-0.53125 0.39561,-0.92685 0.39561,-0.39561 0.94946,-0.39561 0.76861,0 1.31116,0.62167 0.55385,0.61036 0.55385,1.58243 0,0.63297 -0.25997,1.32246 -0.25997,0.70079 -0.75731,1.28855 -0.49733,0.59906 -1.96673,1.8424 z"
         id="path10971" /><path
         d="m 227.38657,478.03403 v -1.23204 q 0,-1.25464 -0.70079,-1.78589 -0.70079,-0.54254 -1.97804,-0.54254 -0.63297,0 -1.1077,0.15824 -0.47473,0.14694 -0.76861,0.41821 -0.28257,0.25997 -0.41821,0.59907 -0.0565,0.12433 -0.27127,0.96076 -0.25998,1.01728 -1.05119,1.01728 -0.45212,0 -0.7347,-0.29388 -0.27127,-0.30519 -0.27127,-0.81383 0,-0.746 0.55385,-1.45809 0.55385,-0.7234 1.68415,-1.18683 1.14162,-0.47473 2.69014,-0.47473 1.44679,0 2.47537,0.45213 1.02858,0.44082 1.51461,1.27725 0.33909,0.57645 0.33909,2.10237 v 4.35168 q 0,0.92685 0.0565,1.20943 0.12433,0.48603 0.42952,0.7347 0.31648,0.23737 0.81382,0.23737 0.51994,0 1.24334,-0.24867 v 0.98337 q -0.93816,0.27127 -1.68416,0.27127 -0.80252,0 -1.35637,-0.22606 -0.54255,-0.22606 -0.89294,-0.65558 -0.3504,-0.44082 -0.45213,-1.03988 -1.35637,1.06249 -2.45276,1.492 -1.0964,0.42952 -2.21541,0.42952 -1.55982,0 -2.53189,-0.84773 -0.97206,-0.84773 -0.97206,-1.98934 0,-0.68949 0.35039,-1.31116 0.3617,-0.62167 1.0851,-1.0964 0.7347,-0.47473 2.29452,-0.83643 1.55983,-0.36169 4.32908,-0.65557 z m 0,0.98336 q -2.62231,0.38431 -3.24398,0.53125 -1.23204,0.28258 -1.76328,0.62167 -0.53124,0.33909 -0.75731,0.7347 -0.22606,0.3843 -0.22606,0.82512 0,0.44082 0.24867,0.85904 0.25997,0.40691 0.7234,0.64427 0.46342,0.23737 0.98336,0.23737 0.7347,0 1.66156,-0.3504 0.92685,-0.35039 2.37364,-1.36767 z"
         id="path10973" /><path
         d="m 232.69902,475.29868 v -0.94946 q 1.00597,-0.11303 1.50331,-0.27127 0.49733,-0.15824 1.43549,-0.67819 h 0.81382 v 2.14759 q 1.49201,-1.25464 2.54319,-1.69546 1.06249,-0.45213 2.14759,-0.45213 0.92685,0 1.63894,0.31649 0.7121,0.30518 1.15292,0.83643 0.45212,0.53124 0.59906,1.20943 0.0904,0.41821 0.0904,1.26594 v 4.97336 q 0,0.89294 0.12434,1.15291 0.13564,0.24867 0.41821,0.3617 0.28258,0.11303 1.39028,0.11303 v 0.94946 h -5.82108 v -0.94946 h 0.31648 q 0.81382,0 1.1077,-0.14694 0.29388,-0.14694 0.41822,-0.42952 0.13563,-0.28257 0.13563,-1.15291 v -4.15953 q 0,-1.28855 -0.21475,-1.78589 -0.20346,-0.49734 -0.7121,-0.80252 -0.49733,-0.31648 -1.26594,-0.31648 -0.91555,0 -1.95543,0.47472 -1.03989,0.46343 -2.01195,1.37898 v 5.21072 q 0,0.88164 0.12433,1.17552 0.13564,0.29388 0.42952,0.44082 0.20345,0.11303 1.08509,0.11303 h 0.32779 v 0.94946 h -5.82108 v -0.94946 h 0.28258 q 0.83642,0 1.14161,-0.13564 0.30518,-0.14694 0.42951,-0.50864 0.0678,-0.18085 0.0678,-1.24333 v -6.44276 z"
         id="path10975" /><path
         d="m 255.01129,469.90711 v -0.96076 q 0.7686,-0.0678 1.40158,-0.25997 0.64427,-0.20345 1.60503,-0.68949 h 0.84773 v 13.71064 q 0,0.94945 0.0452,1.15291 0.11303,0.42952 0.3843,0.59906 0.27128,0.16955 1.05119,0.16955 h 0.48603 v 0.94946 l -3.92217,0.18085 v -1.79719 q -1.13031,1.02858 -2.12498,1.45809 -0.98336,0.42952 -1.97803,0.42952 -2.04586,0 -3.40223,-1.63894 -1.34507,-1.65025 -1.34507,-3.96738 0,-1.65025 0.7121,-3.01793 0.72339,-1.37897 1.89891,-2.10237 1.17552,-0.7234 2.57711,-0.7234 1.07379,0 1.98934,0.37301 0.91555,0.373 1.67285,1.119 v -4.98466 z m 1.89891,11.93605 v -4.27256 q 0,-0.91555 -0.35039,-1.49201 -0.3391,-0.58776 -1.13031,-1.01727 -0.77991,-0.42952 -1.60504,-0.42952 -0.98336,0 -1.81979,0.54255 -0.82513,0.53124 -1.29986,1.54852 -0.46342,1.00597 -0.46342,2.44146 0,1.35637 0.42951,2.35104 0.44082,0.98337 1.17552,1.50331 0.7347,0.50864 1.50331,0.50864 0.75731,0 1.71807,-0.42952 0.96076,-0.44082 1.8424,-1.25464 z"
         id="path10977" /><path
         d="m 276.76971,469.90711 v -0.96076 q 0.76861,-0.0678 1.40158,-0.25997 0.64428,-0.20345 1.60504,-0.68949 h 0.84773 v 13.71064 q 0,0.94945 0.0452,1.15291 0.11303,0.42952 0.3843,0.59906 0.27128,0.16955 1.05119,0.16955 h 0.48603 v 0.94946 l -3.92216,0.18085 v -1.79719 q -1.13031,1.02858 -2.12498,1.45809 -0.98337,0.42952 -1.97804,0.42952 -2.04586,0 -3.40223,-1.63894 -1.34506,-1.65025 -1.34506,-3.96738 0,-1.65025 0.71209,-3.01793 0.7234,-1.37897 1.89892,-2.10237 1.17552,-0.7234 2.5771,-0.7234 1.07379,0 1.98934,0.37301 0.91555,0.373 1.67286,1.119 v -4.98466 z m 1.89892,11.93605 v -4.27256 q 0,-0.91555 -0.3504,-1.49201 -0.33909,-0.58776 -1.13031,-1.01727 -0.77991,-0.42952 -1.60503,-0.42952 -0.98337,0 -1.8198,0.54255 -0.82512,0.53124 -1.29985,1.54852 -0.46343,1.00597 -0.46343,2.44146 0,1.35637 0.42952,2.35104 0.44082,0.98337 1.17552,1.50331 0.7347,0.50864 1.50331,0.50864 0.7573,0 1.71806,-0.42952 0.96077,-0.44082 1.84241,-1.25464 z"
         id="path10979" /><path
         d="m 286.87466,468.30208 q 0.54254,0 0.92685,0.3843 0.3843,0.373 0.3843,0.91555 0,0.54255 -0.3843,0.92685 -0.38431,0.38431 -0.92685,0.38431 -0.54255,0 -0.92686,-0.38431 -0.3843,-0.3843 -0.3843,-0.92685 0,-0.54255 0.3843,-0.91555 0.38431,-0.3843 0.92686,-0.3843 z m -2.88229,6.9966 v -0.93815 q 0.93816,-0.11303 1.57113,-0.31649 0.64427,-0.20346 1.4581,-0.64428 h 0.82512 v 9.06507 q 0,0.47473 0.13564,0.7121 0.13563,0.23736 0.373,0.35039 0.24867,0.10173 0.89294,0.10173 h 0.53125 v 0.94946 h -5.78718 v -0.94946 h 0.46343 q 0.7573,0 1.01727,-0.13564 0.25998,-0.13563 0.3617,-0.3843 0.11303,-0.24867 0.11303,-1.16422 v -6.64621 z"
         id="path10981" /><path
         d="m 298.67507,473.67104 h 0.79122 l 1.01728,3.45874 -1.01728,0.33909 q -0.61037,-1.39028 -1.71807,-2.18149 -1.0964,-0.80252 -2.22671,-0.80252 -0.87033,0 -1.41288,0.42952 -0.54255,0.41821 -0.54255,0.97206 0,0.51994 0.39561,0.89294 0.3843,0.38431 1.72937,0.87034 l 2.2041,0.77991 q 1.86501,0.66689 2.54319,1.42419 0.66688,0.76861 0.66688,1.74068 0,0.82512 -0.49733,1.59373 -0.49734,0.75731 -1.44679,1.20943 -0.93816,0.45212 -2.15889,0.45212 -1.89892,0 -3.25529,-1.08509 l -0.23736,0.81382 h -0.80252 l -1.41289,-3.69611 1.02858,-0.40691 q 1.02858,1.62764 1.94413,2.30583 1.27725,0.96076 2.75795,0.96076 0.98337,0 1.61634,-0.51994 0.63298,-0.53125 0.63298,-1.17552 0,-0.53125 -0.39561,-0.97207 -0.40691,-0.42951 -1.55983,-0.83642 l -2.61101,-0.94946 q -1.68416,-0.61037 -2.33973,-1.33377 -0.65558,-0.72339 -0.65558,-1.66155 0,-1.14161 1.06249,-2.01195 1.07379,-0.88164 2.72404,-0.88164 0.85903,0 1.53722,0.22607 0.67818,0.21475 1.33376,0.72339 z"
         id="path10983" /><path
         d="m 313.05259,481.42495 0.7234,0.58776 q -2.12498,2.83707 -5.09769,2.83707 -2.31713,0 -3.91086,-1.65025 -1.59374,-1.65025 -1.59374,-4.10301 0,-1.63895 0.7347,-2.9388 0.746,-1.31116 2.05716,-2.03456 1.32246,-0.7234 3.02923,-0.7234 1.94413,0 3.24398,0.96077 1.29985,0.94945 1.29985,1.92152 0,0.51994 -0.30518,0.80252 -0.30518,0.28257 -0.68949,0.28257 -0.20345,0 -0.39561,-0.10172 -0.19215,-0.10173 -0.3956,-0.32779 -0.0904,-0.10173 -0.32779,-0.63297 -0.30519,-0.65558 -0.47473,-0.88164 -0.3504,-0.45213 -0.87034,-0.7121 -0.50864,-0.25997 -1.14161,-0.25997 -0.96076,0 -1.78589,0.53125 -0.81382,0.53124 -1.29985,1.57112 -0.47473,1.02858 -0.47473,2.46407 0,2.22671 1.18682,3.53787 1.02858,1.1303 2.45277,1.1303 0.65558,0 1.32246,-0.21475 0.67819,-0.22607 1.27725,-0.65558 0.44082,-0.30519 1.43549,-1.39028 z"
         id="path10985" /><path
         d="m 323.22536,478.03403 v -1.23204 q 0,-1.25464 -0.70079,-1.78589 -0.70079,-0.54254 -1.97804,-0.54254 -0.63297,0 -1.1077,0.15824 -0.47473,0.14694 -0.76861,0.41821 -0.28257,0.25997 -0.41821,0.59907 -0.0565,0.12433 -0.27127,0.96076 -0.25997,1.01728 -1.05119,1.01728 -0.45212,0 -0.7347,-0.29388 -0.27127,-0.30519 -0.27127,-0.81383 0,-0.746 0.55385,-1.45809 0.55385,-0.7234 1.68416,-1.18683 1.14161,-0.47473 2.69013,-0.47473 1.44679,0 2.47537,0.45213 1.02858,0.44082 1.51461,1.27725 0.3391,0.57645 0.3391,2.10237 v 4.35168 q 0,0.92685 0.0565,1.20943 0.12434,0.48603 0.42952,0.7347 0.31648,0.23737 0.81382,0.23737 0.51994,0 1.24334,-0.24867 v 0.98337 q -0.93816,0.27127 -1.68416,0.27127 -0.80252,0 -1.35637,-0.22606 -0.54255,-0.22606 -0.89294,-0.65558 -0.3504,-0.44082 -0.45213,-1.03988 -1.35636,1.06249 -2.45276,1.492 -1.0964,0.42952 -2.21541,0.42952 -1.55982,0 -2.53189,-0.84773 -0.97206,-0.84773 -0.97206,-1.98934 0,-0.68949 0.3504,-1.31116 0.36169,-0.62167 1.08509,-1.0964 0.7347,-0.47473 2.29453,-0.83643 1.55982,-0.36169 4.32907,-0.65557 z m 0,0.98336 q -2.62231,0.38431 -3.24398,0.53125 -1.23203,0.28258 -1.76328,0.62167 -0.53124,0.33909 -0.75731,0.7347 -0.22606,0.3843 -0.22606,0.82512 0,0.44082 0.24867,0.85904 0.25997,0.40691 0.7234,0.64427 0.46342,0.23737 0.98337,0.23737 0.7347,0 1.66155,-0.3504 0.92685,-0.35039 2.37364,-1.36767 z"
         id="path10987" /><path
         d="m 328.50388,475.28738 v -0.92685 q 0.82513,-0.0678 1.4694,-0.27128 0.64428,-0.21476 1.4694,-0.68949 h 0.84774 v 2.13629 q 0.80251,-0.98337 1.865,-1.55983 1.06249,-0.57646 1.91022,-0.57646 0.83643,0 1.32246,0.39561 0.48604,0.39561 0.48604,0.96076 0,0.40691 -0.32779,0.7234 -0.31649,0.30518 -0.76861,0.30518 -0.20346,0 -0.3504,-0.0565 -0.14694,-0.0565 -0.42952,-0.24867 -0.62166,-0.40691 -1.03988,-0.40691 -0.56515,0 -1.24334,0.47473 -0.85903,0.61037 -1.34506,1.19813 v 5.21071 q 0,0.67819 0.0678,0.92686 0.0791,0.23736 0.24866,0.41821 0.16955,0.16955 0.41822,0.24867 0.24866,0.0791 0.87033,0.0791 h 0.37301 v 0.94946 h -5.8437 v -0.94946 h 0.48604 q 0.68948,0 0.90424,-0.12433 0.29388,-0.16955 0.42952,-0.46343 0.14694,-0.30518 0.14694,-1.0851 v -6.66881 z"
         id="path10989" /><path
         d="m 345.75239,469.90711 v -0.96076 q 0.76861,-0.0678 1.40158,-0.25997 0.64428,-0.20345 1.60504,-0.68949 h 0.84773 v 13.71064 q 0,0.94945 0.0452,1.15291 0.11303,0.42952 0.38431,0.59906 0.27127,0.16955 1.05118,0.16955 h 0.48603 v 0.94946 l -3.92216,0.18085 v -1.79719 q -1.13031,1.02858 -2.12498,1.45809 -0.98337,0.42952 -1.97804,0.42952 -2.04586,0 -3.40223,-1.63894 -1.34506,-1.65025 -1.34506,-3.96738 0,-1.65025 0.71209,-3.01793 0.7234,-1.37897 1.89892,-2.10237 1.17552,-0.7234 2.5771,-0.7234 1.07379,0 1.98934,0.37301 0.91555,0.373 1.67286,1.119 v -4.98466 z m 1.89892,11.93605 v -4.27256 q 0,-0.91555 -0.3504,-1.49201 -0.33909,-0.58776 -1.13031,-1.01727 -0.77991,-0.42952 -1.60503,-0.42952 -0.98337,0 -1.8198,0.54255 -0.82512,0.53124 -1.29985,1.54852 -0.46343,1.00597 -0.46343,2.44146 0,1.35637 0.42952,2.35104 0.44082,0.98337 1.17552,1.50331 0.7347,0.50864 1.50331,0.50864 0.7573,0 1.71807,-0.42952 0.96076,-0.44082 1.8424,-1.25464 z"
         id="path10991" /><path
         d="m 24.541559,492.9767 h 0.802518 v 3.84305 h 3.357014 v 1.13031 h -3.357014 v 6.81575 q 0,0.87034 0.14694,1.24334 0.158243,0.373 0.519942,0.61037 0.373001,0.23736 0.825124,0.23736 1.073792,0 2.373646,-0.96076 v 1.0964 q -1.480703,1.00597 -2.995315,1.00597 -0.859034,0 -1.559825,-0.3843 -0.689487,-0.38431 -0.949458,-0.90425 -0.248668,-0.51994 -0.248668,-1.80849 v -6.95139 h -1.978038 v -0.94946 q 0.949458,-0.21476 1.525915,-0.66688 0.58776,-0.45212 0.949459,-1.17552 0.361698,-0.7234 0.58776,-2.1815 z"
         id="path10993" /><path
         d="m 30.362643,493.06713 v -0.97207 q 1.096399,-0.14694 1.706765,-0.33909 0.610366,-0.20345 1.277247,-0.61036 h 0.88164 v 7.47133 q 1.277248,-1.07379 2.418859,-1.57113 1.14161,-0.49733 2.181494,-0.49733 1.514612,0 2.497979,0.90424 0.972065,0.90425 0.972065,2.2041 v 5.54981 q 0,0.82513 0.124334,1.0851 0.135637,0.24867 0.44082,0.373 0.305183,0.11303 1.367672,0.11303 v 0.94946 h -5.832387 v -0.94946 h 0.429517 q 0.825124,0 1.085095,-0.12433 0.259971,-0.13564 0.373001,-0.42952 0.124334,-0.30518 0.124334,-1.24334 v -3.85435 q 0,-1.27724 -0.09042,-1.66155 -0.169547,-0.65558 -0.700791,-1.05119 -0.531245,-0.3956 -1.356369,-0.3956 -0.926853,0 -1.944129,0.46342 -1.005974,0.45213 -2.09107,1.36768 v 5.66284 q 0,0.63297 0.113031,0.84773 0.113031,0.21476 0.373002,0.31648 0.25997,0.10173 1.039883,0.10173 h 0.463426 v 0.94946 h -5.854994 v -0.94946 h 0.350396 q 0.825124,0 1.198126,-0.20345 0.203455,-0.10173 0.29388,-0.39561 0.09042,-0.29388 0.09042,-1.62764 v -11.48393 z"
         id="path10995" /><path
         d="m 48.436263,491.45079 q 0.542548,0 0.926853,0.3843 0.384304,0.37301 0.384304,0.91555 0,0.54255 -0.384304,0.92686 -0.384305,0.3843 -0.926853,0.3843 -0.542547,0 -0.926852,-0.3843 -0.384305,-0.38431 -0.384305,-0.92686 0,-0.54254 0.384305,-0.91555 0.384305,-0.3843 0.926852,-0.3843 z m -2.882284,6.9966 v -0.93815 q 0.938155,-0.11303 1.571127,-0.31649 0.644276,-0.20345 1.458097,-0.64427 h 0.825125 v 9.06506 q 0,0.47473 0.135637,0.7121 0.135637,0.23736 0.373001,0.35039 0.248668,0.10173 0.892943,0.10173 h 0.531245 v 0.94946 h -5.787175 v -0.94946 h 0.463426 q 0.757306,0 1.017277,-0.13564 0.259971,-0.13563 0.361698,-0.3843 0.113031,-0.24867 0.113031,-1.16422 v -6.64621 z"
         id="path10997" /><path
         d="m 60.236675,496.81975 h 0.791215 l 1.017277,3.45874 -1.017277,0.33909 q -0.610366,-1.39027 -1.718068,-2.18149 -1.096398,-0.80252 -2.226706,-0.80252 -0.870337,0 -1.412884,0.42952 -0.542548,0.41821 -0.542548,0.97206 0,0.51995 0.395608,0.89295 0.384304,0.3843 1.72937,0.87033 l 2.2041,0.77992 q 1.865008,0.66688 2.543192,1.42418 0.666882,0.76861 0.666882,1.74068 0,0.82512 -0.497335,1.59373 -0.497336,0.75731 -1.446794,1.20943 -0.938156,0.45212 -2.158888,0.45212 -1.898917,0 -3.255286,-1.08509 l -0.237364,0.81382 H 54.26865 l -1.412884,-3.69611 1.02858,-0.40691 q 1.028579,1.62765 1.944129,2.30583 1.277247,0.96076 2.75795,0.96076 0.983368,0 1.61634,-0.51994 0.632973,-0.53124 0.632973,-1.17552 0,-0.53124 -0.395608,-0.97206 -0.406911,-0.42952 -1.559825,-0.83643 l -2.61101,-0.94946 q -1.684159,-0.61037 -2.339737,-1.33376 -0.655579,-0.7234 -0.655579,-1.66156 0,-1.14161 1.06249,-2.01194 1.073792,-0.88164 2.724041,-0.88164 0.859034,0 1.537218,0.22606 0.678185,0.21476 1.333763,0.7234 z"
         id="path10999" /><path
         d="m 82.017701,504.57366 0.723397,0.58776 q -2.124978,2.83707 -5.097687,2.83707 -2.317131,0 -3.910865,-1.65025 -1.593734,-1.65024 -1.593734,-4.10301 0,-1.63895 0.7347,-2.9388 0.746003,-1.31116 2.05716,-2.03456 1.32246,-0.72339 3.029225,-0.72339 1.944129,0 3.243983,0.96076 1.299854,0.94946 1.299854,1.92152 0,0.51994 -0.305184,0.80252 -0.305183,0.28258 -0.689487,0.28258 -0.203456,0 -0.395608,-0.10173 -0.192152,-0.10173 -0.395608,-0.32779 -0.09042,-0.10173 -0.327789,-0.63297 -0.305183,-0.65558 -0.474729,-0.88164 -0.350395,-0.45213 -0.870337,-0.7121 -0.508638,-0.25997 -1.141611,-0.25997 -0.960761,0 -1.785886,0.53125 -0.813821,0.53124 -1.299853,1.57113 -0.47473,1.02858 -0.47473,2.46407 0,2.2267 1.186823,3.53786 1.02858,1.13031 2.452768,1.13031 0.655578,0 1.32246,-0.21476 0.678184,-0.22606 1.277248,-0.65558 0.44082,-0.30518 1.43549,-1.39028 z"
         id="path11001" /><path
         d="m 92.190474,501.18274 v -1.23204 q 0,-1.25464 -0.70079,-1.78588 -0.700791,-0.54255 -1.978039,-0.54255 -0.632972,0 -1.107701,0.15824 -0.474729,0.14694 -0.768609,0.41822 -0.282577,0.25997 -0.418214,0.59906 -0.05652,0.12433 -0.271274,0.96076 -0.259971,1.01728 -1.051186,1.01728 -0.452123,0 -0.7347,-0.29388 -0.271274,-0.30519 -0.271274,-0.81382 0,-0.74601 0.553851,-1.4581 0.55385,-0.7234 1.684158,-1.18682 1.141611,-0.47473 2.690132,-0.47473 1.446794,0 2.475374,0.45212 1.02858,0.44082 1.514612,1.27725 0.339093,0.57645 0.339093,2.10237 v 4.35168 q 0,0.92686 0.05652,1.20943 0.124334,0.48604 0.429517,0.7347 0.316486,0.23737 0.813821,0.23737 0.519942,0 1.243339,-0.24867 v 0.98337 q -0.938156,0.27127 -1.684159,0.27127 -0.802518,0 -1.356369,-0.22606 -0.542547,-0.22606 -0.892943,-0.65558 -0.350395,-0.44082 -0.452123,-1.03988 -1.356369,1.06249 -2.452767,1.49201 -1.096399,0.42951 -2.215403,0.42951 -1.559825,0 -2.53189,-0.84773 -0.972064,-0.84773 -0.972064,-1.98934 0,-0.68949 0.350395,-1.31116 0.361699,-0.62167 1.085096,-1.0964 0.7347,-0.47472 2.294524,-0.83642 1.559825,-0.3617 4.329078,-0.65558 z m 0,0.98337 q -2.622313,0.3843 -3.243983,0.53124 -1.232035,0.28258 -1.76328,0.62167 -0.531244,0.33909 -0.757306,0.7347 -0.226061,0.3843 -0.226061,0.82512 0,0.44082 0.248668,0.85904 0.25997,0.40691 0.723396,0.64427 0.463427,0.23737 0.983368,0.23737 0.7347,0 1.661552,-0.3504 0.926853,-0.35039 2.373646,-1.36767 z"
         id="path11003" /><path
         d="m 97.469011,498.43609 v -0.92685 q 0.825125,-0.0678 1.4694,-0.27128 0.644275,-0.21475 1.469399,-0.68948 h 0.84773 v 2.13628 q 0.80252,-0.98337 1.86501,-1.55983 1.06249,-0.57645 1.91022,-0.57645 0.83643,0 1.32246,0.3956 0.48603,0.39561 0.48603,0.96077 0,0.40691 -0.32779,0.72339 -0.31648,0.30519 -0.76861,0.30519 -0.20345,0 -0.35039,-0.0565 -0.14694,-0.0565 -0.42952,-0.24867 -0.62167,-0.40691 -1.03988,-0.40691 -0.56516,0 -1.24334,0.47473 -0.85903,0.61037 -1.34507,1.19813 v 5.21072 q 0,0.67818 0.0678,0.92685 0.0791,0.23736 0.24867,0.41821 0.16955,0.16955 0.41821,0.24867 0.24867,0.0791 0.87034,0.0791 h 0.373 v 0.94946 h -5.843689 v -0.94946 h 0.486032 q 0.689488,0 0.904246,-0.12433 0.29388,-0.16955 0.429517,-0.46343 0.14694,-0.30518 0.14694,-1.08509 v -6.66882 z"
         id="path11005" /><path
         d="m 114.7175,493.05583 v -0.96077 q 0.76861,-0.0678 1.40158,-0.25997 0.64428,-0.20345 1.60504,-0.68948 h 0.84773 v 13.71063 q 0,0.94946 0.0452,1.15291 0.11303,0.42952 0.38431,0.59907 0.27127,0.16954 1.05118,0.16954 h 0.48604 v 0.94946 l -3.92217,0.18085 v -1.79719 q -1.13031,1.02858 -2.12498,1.4581 -0.98337,0.42951 -1.97804,0.42951 -2.04586,0 -3.40223,-1.63894 -1.34506,-1.65025 -1.34506,-3.96738 0,-1.65025 0.71209,-3.01792 0.7234,-1.37898 1.89892,-2.10238 1.17552,-0.72339 2.5771,-0.72339 1.07379,0 1.98934,0.373 0.91555,0.373 1.67286,1.119 v -4.98465 z m 1.89892,11.93605 v -4.27257 q 0,-0.91555 -0.3504,-1.492 -0.33909,-0.58776 -1.13031,-1.01728 -0.77991,-0.42952 -1.60503,-0.42952 -0.98337,0 -1.8198,0.54255 -0.82512,0.53124 -1.29985,1.54852 -0.46343,1.00598 -0.46343,2.44147 0,1.35637 0.42952,2.35104 0.44082,0.98336 1.17552,1.50331 0.7347,0.50863 1.50331,0.50863 0.7573,0 1.71807,-0.42951 0.96076,-0.44082 1.8424,-1.25464 z"
         id="path11007" /><path
         d="m 124.89027,505.0936 q 0.59907,0 1.00598,0.41822 0.41821,0.40691 0.41821,0.99467 0,0.58776 -0.41821,1.00597 -0.41822,0.40691 -1.00598,0.40691 -0.57645,0 -0.99467,-0.40691 -0.41821,-0.41821 -0.41821,-1.00597 0,-0.58776 0.40691,-0.99467 0.41821,-0.41822 1.00597,-0.41822 z"
         id="path11009" /></g><g
       style="fill:#ffffff;stroke:#000000;stroke-width:1.5;stroke-linejoin:round"
       id="g4549"
       transform="matrix(2.2890268,0,0,2.2890268,1.4135623,20.440541)"><g
         id="path4531"><path
           style="color:#000000;stroke:none;stroke-linejoin:miter;-inkscape-stroke:none"
           d="m 9,26 c 8.5,-1.5 21,-1.5 27,0 L 38.5,13.5 31,25 30.7,10.9 25.5,24.5 22.5,10 19.5,24.5 14.3,10.9 14,25 6.5,13.5 Z"
           id="path11155" /><path
           style="color:#000000;fill:#000000;stroke:none;stroke-linejoin:miter;-inkscape-stroke:none"
           d="M 22.5,9.25 A 0.750075,0.750075 0 0 0 21.765625,9.8476563 L 19.285156,21.837891 15,10.632813 a 0.750075,0.750075 0 0 0 -1.449219,0.251953 L 13.302734,22.554687 7.1289062,13.089844 a 0.750075,0.750075 0 0 0 -1.3652343,0.55664 l 2.5,12.5 a 0.750075,0.750075 0 0 0 0.8671875,0.591797 c 8.3760676,-1.478129 20.9252856,-1.450319 26.6874996,-0.0098 a 0.750075,0.750075 0 0 0 0.917969,-0.582032 l 2.5,-12.5 a 0.750075,0.750075 0 0 0 -1.365234,-0.55664 L 31.697266,22.554687 31.449219,10.884766 A 0.750075,0.750075 0 0 0 30,10.632813 L 25.714844,21.837891 23.234375,9.8476563 A 0.750075,0.750075 0 0 0 22.5,9.25 Z m 0,4.451172 2.164062,10.460937 c -1.442177,-0.01935 -2.860902,0.02132 -4.341796,0.06836 z M 14.96875,14.75 l 3.650391,9.546875 c -1.317881,0.06458 -2.578045,0.127439 -3.859375,0.244141 z m 15.0625,0 0.205078,9.638672 c -1.1886,-0.100597 -2.534121,-0.11265 -3.830078,-0.15625 z M 8,17.175781 l 4.949219,7.587891 c -1.134432,0.12937 -2.299408,0.236174 -3.3496096,0.408203 z m 29,0 -1.595703,7.976563 C 34.445282,24.943095 33.298005,24.792131 32.125,24.648437 Z"
           id="path11157" /></g><g
         id="path4533"><path
           style="color:#000000;stroke:none;stroke-linejoin:miter;-inkscape-stroke:none"
           d="m 9,26 c 0,2 1.5,2 2.5,4 1,1.5 1,1 0.5,3.5 -1.5,1 -1,2.5 -1,2.5 -1.5,1.5 0,2.5 0,2.5 6.5,1 16.5,1 23,0 0,0 1.5,-1 0,-2.5 0,0 0.5,-1.5 -1,-2.5 -0.5,-2.5 -0.5,-2 0.5,-3.5 1,-2 2.5,-2 2.5,-4 -8.5,-1.5 -18.5,-1.5 -27,0 z"
           id="path11161" /><path
           style="color:#000000;fill:#000000;stroke:none;stroke-linejoin:miter;-inkscape-stroke:none"
           d="m 22.5,24.123047 c -4.66538,0 -9.331294,0.379925 -13.6308594,1.138672 A 0.750075,0.750075 0 0 0 8.25,26 c 0,1.187499 0.5495564,1.987056 1.09375,2.53125 0.5441936,0.544194 1.053411,0.938852 1.486328,1.804687 a 0.750075,0.750075 0 0 0 0.04492,0.08008 c 0.260667,0.391 0.458231,0.653833 0.568359,0.822265 0.110129,0.168432 0.119873,0.205562 0.128907,0.259766 0.01637,0.09825 -0.0805,0.668355 -0.279297,1.68164 -0.66318,0.582914 -1.028119,1.279641 -1.09961,1.851563 -0.05589,0.447104 0.01762,0.598588 0.06445,0.806641 C 9.6514814,36.647405 9.4966787,37.520896 9.7480469,38.107422 10.037422,38.782631 10.583984,39.125 10.583984,39.125 a 0.750075,0.750075 0 0 0 0.302735,0.117187 c 6.614256,1.017578 16.612306,1.017578 23.226562,0 A 0.750075,0.750075 0 0 0 34.416016,39.125 c 0,0 0.546562,-0.342369 0.835937,-1.017578 0.251368,-0.586526 0.09657,-1.460017 -0.509766,-2.269531 0.04683,-0.208053 0.120342,-0.359537 0.06445,-0.806641 -0.07149,-0.571922 -0.43643,-1.268649 -1.09961,-1.851563 -0.198794,-1.013285 -0.295671,-1.583393 -0.279297,-1.68164 0.009,-0.0542 0.01878,-0.09133 0.128907,-0.259766 0.110128,-0.168432 0.307692,-0.431265 0.568359,-0.822265 a 0.750075,0.750075 0 0 0 0.04492,-0.08008 C 34.602839,29.470102 35.112056,29.075444 35.65625,28.53125 36.200444,27.987056 36.75,27.187499 36.75,26 A 0.750075,0.750075 0 0 0 36.130859,25.261719 C 31.831294,24.502972 27.16538,24.123047 22.5,24.123047 Z m 0,1.503906 c 4.269722,0 8.511316,0.353169 12.470703,0.996094 -0.103368,0.258806 -0.114607,0.583357 -0.376953,0.845703 -0.455805,0.455805 -1.19659,1.06115 -1.763672,2.195312 l 0.04492,-0.08008 c -0.239332,0.358999 -0.416769,0.596167 -0.572266,0.833985 -0.155496,0.237818 -0.302002,0.513188 -0.355468,0.833984 -0.106932,0.641592 0.06829,1.153961 0.316406,2.394531 A 0.750075,0.750075 0 0 0 32.583984,34.125 c 0.573989,0.382659 0.692866,0.761674 0.734375,1.09375 0.04151,0.332076 -0.0293,0.544922 -0.0293,0.544922 a 0.750075,0.750075 0 0 0 0.179688,0.767578 c 0.602685,0.602685 0.489921,0.786538 0.404297,0.986328 -0.06079,0.141854 -0.140456,0.195458 -0.205078,0.253906 -6.330517,0.945042 -16.005421,0.945042 -22.335938,0 -0.06462,-0.05845 -0.144283,-0.112052 -0.205078,-0.253906 -0.08562,-0.19979 -0.198388,-0.383643 0.404297,-0.986328 a 0.750075,0.750075 0 0 0 0.179688,-0.767578 c 0,0 -0.07081,-0.212846 -0.0293,-0.544922 0.04151,-0.332076 0.160386,-0.711091 0.734375,-1.09375 a 0.750075,0.750075 0 0 0 0.320312,-0.478516 c 0.248114,-1.24057 0.423338,-1.752939 0.316406,-2.394531 -0.05347,-0.320796 -0.199972,-0.596166 -0.355468,-0.833984 C 12.541769,30.180151 12.364332,29.942983 12.125,29.583984 l 0.04492,0.08008 C 11.60284,28.5299 10.862055,27.924555 10.40625,27.46875 10.143904,27.206404 10.132665,26.881853 10.029297,26.623047 13.988684,25.980122 18.230278,25.626953 22.5,25.626953 Z"
           id="path11163" /></g><path
         style="color:#000000;fill:#000000;stroke:none;stroke-linejoin:miter;-inkscape-stroke:none"
         d="m 22.5,28.5 c -2.326011,0 -4.652076,0.06306 -6.626953,0.189453 -1.974877,0.126392 -3.567061,0.300969 -4.578125,0.589844 l 0.410156,1.441406 c 0.738935,-0.211124 2.334256,-0.411549 4.265625,-0.535156 C 17.902072,30.061939 20.201016,30 22.5,30 c 2.298984,0 4.597928,0.06194 6.529297,0.185547 1.931369,0.123607 3.52669,0.324032 4.265625,0.535156 l 0.410156,-1.441406 C 32.694014,28.990422 31.10183,28.815845 29.126953,28.689453 27.152076,28.563061 24.826011,28.5 22.5,28.5 Z"
         id="path4535" /><path
         style="color:#000000;fill:#000000;stroke:none;stroke-linejoin:miter;-inkscape-stroke:none"
         d="m 22.5,31.996094 c -3.781654,0 -7.563067,0.253675 -10.623047,0.763672 l 0.246094,1.480468 c 5.880027,-0.980004 14.873879,-0.980004 20.753906,0 l 0.246094,-1.480468 C 30.063067,32.249769 26.281654,31.996094 22.5,31.996094 Z"
         id="path4537" /><g
         id="circle4539"><path
           style="color:#000000;stroke:none;stroke-linejoin:miter;-inkscape-stroke:none"
           d="M 8,12 A 2,2 0 0 1 6,14 2,2 0 0 1 4,12 2,2 0 0 1 6,10 2,2 0 0 1 8,12 Z"
           id="path11175" /><path
           style="color:#000000;fill:#000000;stroke:none;stroke-linejoin:miter;-inkscape-stroke:none"
           d="m 6,9.25 c -1.5098981,0 -2.75,1.240102 -2.75,2.75 0,1.509898 1.2401019,2.75 2.75,2.75 1.5098981,0 2.75,-1.240102 2.75,-2.75 C 8.75,10.490102 7.5098981,9.25 6,9.25 Z m 0,1.5 c 0.6992387,0 1.25,0.550761 1.25,1.25 0,0.699239 -0.5507613,1.25 -1.25,1.25 -0.6992387,0 -1.25,-0.550761 -1.25,-1.25 0,-0.699239 0.5507613,-1.25 1.25,-1.25 z"
           id="path11177" /></g><g
         id="circle4541"><path
           style="color:#000000;stroke:none;stroke-linejoin:miter;-inkscape-stroke:none"
           d="m 16,9 a 2,2 0 0 1 -2,2 2,2 0 0 1 -2,-2 2,2 0 0 1 2,-2 2,2 0 0 1 2,2 z"
           id="path11181" /><path
           style="color:#000000;fill:#000000;stroke:none;stroke-linejoin:miter;-inkscape-stroke:none"
           d="m 14,6.25 c -1.509898,0 -2.75,1.2401019 -2.75,2.75 0,1.509898 1.240102,2.75 2.75,2.75 1.509898,0 2.75,-1.240102 2.75,-2.75 0,-1.5098981 -1.240102,-2.75 -2.75,-2.75 z m 0,1.5 c 0.699239,0 1.25,0.5507613 1.25,1.25 0,0.6992387 -0.550761,1.25 -1.25,1.25 -0.699239,0 -1.25,-0.5507613 -1.25,-1.25 0,-0.6992387 0.550761,-1.25 1.25,-1.25 z"
           id="path11183" /></g><g
         id="circle4543"><path
           style="color:#000000;stroke:none;stroke-linejoin:miter;-inkscape-stroke:none"
           d="m 24.5,8 a 2,2 0 0 1 -2,2 2,2 0 0 1 -2,-2 2,2 0 0 1 2,-2 2,2 0 0 1 2,2 z"
           id="path11187" /><path
           style="color:#000000;fill:#000000;stroke:none;stroke-linejoin:miter;-inkscape-stroke:none"
           d="m 22.5,5.25 c -1.509898,0 -2.75,1.2401019 -2.75,2.75 0,1.5098981 1.240102,2.75 2.75,2.75 1.509898,0 2.75,-1.2401019 2.75,-2.75 0,-1.5098981 -1.240102,-2.75 -2.75,-2.75 z m 0,1.5 c 0.699239,0 1.25,0.5507613 1.25,1.25 0,0.6992387 -0.550761,1.25 -1.25,1.25 -0.699239,0 -1.25,-0.5507613 -1.25,-1.25 0,-0.6992387 0.550761,-1.25 1.25,-1.25 z"
           id="path11189" /></g><g
         id="circle4545"><path
           style="color:#000000;stroke:none;stroke-linejoin:miter;-inkscape-stroke:none"
           d="m 33,9 a 2,2 0 0 1 -2,2 2,2 0 0 1 -2,-2 2,2 0 0 1 2,-2 2,2 0 0 1 2,2 z"
           id="path11193" /><path
           style="color:#000000;fill:#000000;stroke:none;stroke-linejoin:miter;-inkscape-stroke:none"
           d="m 31,6.25 c -1.509898,0 -2.75,1.2401019 -2.75,2.75 0,1.509898 1.240102,2.75 2.75,2.75 1.509898,0 2.75,-1.240102 2.75,-2.75 0,-1.5098981 -1.240102,-2.75 -2.75,-2.75 z m 0,1.5 c 0.699239,0 1.25,0.5507613 1.25,1.25 0,0.6992387 -0.550761,1.25 -1.25,1.25 -0.699239,0 -1.25,-0.5507613 -1.25,-1.25 0,-0.6992387 0.550761,-1.25 1.25,-1.25 z"
           id="path11195" /></g><g
         id="circle4547"><path
           style="color:#000000;stroke:none;stroke-linejoin:miter;-inkscape-stroke:none"
           d="m 41,12 a 2,2 0 0 1 -2,2 2,2 0 0 1 -2,-2 2,2 0 0 1 2,-2 2,2 0 0 1 2,2 z"
           id="path11199" /><path
           style="color:#000000;fill:#000000;stroke:none;stroke-linejoin:miter;-inkscape-stroke:none"
           d="m 39,9.25 c -1.509898,0 -2.75,1.240102 -2.75,2.75 0,1.509898 1.240102,2.75 2.75,2.75 1.509898,0 2.75,-1.240102 2.75,-2.75 0,-1.509898 -1.240102,-2.75 -2.75,-2.75 z m 0,1.5 c 0.699239,0 1.25,0.550761 1.25,1.25 0,0.699239 -0.550761,1.25 -1.25,1.25 -0.699239,0 -1.25,-0.550761 -1.25,-1.25 0,-0.699239 0.550761,-1.25 1.25,-1.25 z"
           id="path11201" /></g></g></g></svg>
