<?xml version="1.0" encoding="UTF-8" standalone="no"?>
<!-- Created with Inkscape (http://www.inkscape.org/) -->

<svg
   width="400"
   height="600"
   viewBox="0 0 105.83333 158.75"
   version="1.1"
   id="svg5"
   inkscape:export-filename="CardTemplate.svg"
   inkscape:export-xdpi="26.281288"
   inkscape:export-ydpi="26.281288"
   inkscape:version="1.2.2 (732a01da63, 2022-12-09)"
   sodipodi:docname="RaceAccidentCard.svg"
   xmlns:inkscape="http://www.inkscape.org/namespaces/inkscape"
   xmlns:sodipodi="http://sodipodi.sourceforge.net/DTD/sodipodi-0.dtd"
   xmlns:xlink="http://www.w3.org/1999/xlink"
   xmlns="http://www.w3.org/2000/svg"
   xmlns:svg="http://www.w3.org/2000/svg">
  <sodipodi:namedview
     id="namedview7"
     pagecolor="#505050"
     bordercolor="#ffffff"
     borderopacity="1"
     inkscape:showpageshadow="0"
     inkscape:pageopacity="0"
     inkscape:pagecheckerboard="1"
     inkscape:deskcolor="#505050"
     inkscape:document-units="mm"
     showgrid="false"
     showguides="true"
     inkscape:zoom="1.0129245"
     inkscape:cx="-158.94571"
     inkscape:cy="274.94645"
     inkscape:window-width="1920"
     inkscape:window-height="991"
     inkscape:window-x="-9"
     inkscape:window-y="-9"
     inkscape:window-maximized="1"
     inkscape:current-layer="layer1" />
  <defs
     id="defs2">
    <inkscape:path-effect
       effect="bspline"
       id="path-effect32366"
       is_visible="true"
       lpeversion="1"
       weight="33.333333"
       steps="2"
       helper_size="0"
       apply_no_weight="true"
       apply_with_weight="true"
       only_selected="false" />
    <pattern
       inkscape:collect="always"
       xlink:href="#Checkerboard"
       id="pattern32227"
       patternTransform="matrix(5.7273301,0,0,5.7273301,0.39181104,4.1793177)" />
    <pattern
       inkscape:collect="always"
       patternUnits="userSpaceOnUse"
       width="2"
       height="2"
       patternTransform="translate(0,0) scale(10,10)"
       id="Checkerboard"
       inkscape:stockid="Checkerboard"
       inkscape:isstock="true">
      <rect
         style="fill:black;stroke:none"
         x="0"
         y="0"
         width="1"
         height="1"
         id="rect2971" />
      <rect
         style="fill:black;stroke:none"
         x="1"
         y="1"
         width="1"
         height="1"
         id="rect2973" />
    </pattern>
    <linearGradient
       id="linearGradient3910"
       inkscape:swatch="solid">
      <stop
         style="stop-color:#000000;stop-opacity:1;"
         offset="0"
         id="stop3908" />
    </linearGradient>
    <linearGradient
       id="linearGradient3902"
       inkscape:swatch="solid">
      <stop
         style="stop-color:#000000;stop-opacity:1;"
         offset="0"
         id="stop3900" />
    </linearGradient>
    <linearGradient
       id="linearGradient1908"
       inkscape:swatch="gradient">
      <stop
         style="stop-color:#412a2a;stop-opacity:1;"
         offset="0.83033931"
         id="stop1904" />
      <stop
         style="stop-color:#412a2a;stop-opacity:0;"
         offset="0.84431136"
         id="stop1906" />
    </linearGradient>
    <rect
       x="20.732048"
       y="466.96471"
       width="356.39378"
       height="115.50713"
       id="rect857" />
    <rect
       x="13.821366"
       y="17.770327"
       width="368.24067"
       height="96.749559"
       id="rect721" />
    <rect
       x="18.757568"
       y="19.744808"
       width="363.22514"
       height="30.382957"
       id="rect495" />
    <clipPath
       clipPathUnits="userSpaceOnUse"
       id="clipPath32507">
      <path
         style="fill:#ffffff;fill-opacity:1;fill-rule:nonzero;stroke:#000000;stroke-width:0.264583;stroke-linejoin:round;stroke-dasharray:none;stroke-opacity:1;paint-order:markers fill stroke;stop-color:#000000"
         d="m 34.871184,64.910028 c -0.108257,0.651026 0.406286,1.117211 0.522414,1.697847 0.140108,0.700553 0,1.773058 0,2.481469 0,2.412844 -0.209198,4.935194 0.130604,7.313806 0.116321,0.814247 -0.207428,2.638964 0.783622,3.134489 0.06648,0.03324 0.477615,0.0448 0.522414,0 0.06883,-0.06883 0.06979,-0.185192 0.130604,-0.261207 0.230764,-0.288457 0.568907,-0.483026 0.783619,-0.783622 0.452953,-0.634132 0.107595,-0.345786 0.391811,-0.914225 0.40278,-0.805558 1.18405,-1.4668 1.436642,-2.350868 0.40839,-1.429356 0.576395,-2.989927 0.783625,-4.440526 0.200821,-1.405752 1.331978,-2.767737 1.567243,-4.179316 0.0254,-0.152371 -0.03386,-0.812646 0,-0.914225 0.0268,-0.08041 0.482558,-0.635228 0.522412,-0.914226 0.04925,-0.344778 -0.155752,-0.733321 0,-1.044831 0.201962,-0.403924 0.246552,1.827146 0.26121,1.959057 0.210738,1.896644 0.130601,3.830188 0.130601,5.746562 0,0.369356 0.06062,0.811689 0,1.175433 -0.02262,0.135794 -0.08707,0.261207 -0.130601,0.39181 -0.04353,0.348277 -0.101457,0.695056 -0.130604,1.044829 -0.01447,0.173538 0.04784,0.354976 0,0.522415 -0.259265,0.907423 -0.280252,-0.108858 -0.391813,0.783622 -0.0794,0.635188 -0.0048,1.330089 -0.130601,1.959054 -0.252193,1.260957 -0.01495,-1.070861 -0.26121,0.653021 -0.04445,0.311118 0.0781,0.732422 0,1.044829 -0.128011,0.512051 -0.12722,1.031306 -0.261205,1.567243 -0.03339,0.133559 -0.08707,0.261208 -0.130606,0.391811 -0.08707,0.130604 -0.218083,0.240885 -0.261207,0.391811 -0.0249,0.08718 -0.13185,2.088415 -0.130601,2.089658 0.06157,0.06157 0.178604,0.02754 0.261207,0 0.992661,-0.330885 0.435634,-0.174426 0.914223,-0.653018 0.340291,-0.340291 0.292719,0.171222 0.391813,-0.522415 0.02463,-0.172386 -0.04784,-0.354975 0,-0.522414 0.04312,-0.150926 0.16315,-0.26924 0.261205,-0.391811 0.232558,-0.290695 0.799399,-0.961549 0.914228,-1.306036 0.319061,-0.957189 -0.112808,-0.09495 0.391811,-1.306036 0.112321,-0.269576 0.289269,-0.510178 0.391808,-0.783622 0.07867,-0.209801 0.03034,-0.583097 0.130606,-0.783625 0.200623,-0.40124 0.07366,0.216014 0.391811,-0.261207 0.0483,-0.07245 -0.01431,-0.175321 0,-0.261207 0.02951,-0.177054 0.06394,-0.355753 0.130604,-0.522415 0.02286,-0.05716 0.118528,-0.07023 0.130601,-0.130603 0.03415,-0.170757 -0.04784,-0.354976 0,-0.522415 0.137271,-0.480446 0.646353,-0.956193 0.783624,-1.43664 0.04784,-0.167438 -0.02463,-0.350027 0,-0.522414 0.02347,-0.164208 0.388189,-1.030335 0.391811,-1.044829 0.114366,-0.457465 0.0099,-0.953744 0.130601,-1.436643 0.217371,-0.869463 0.605912,-1.723517 0.783627,-2.612072 0.06037,-0.301858 0.04961,-0.617236 0.130601,-0.914225 0.05123,-0.187833 0.182134,-0.344504 0.26121,-0.522415 1.181804,-2.659068 -0.578395,1.281171 0.391811,-1.306036 0.05511,-0.146974 0.191008,-0.251418 0.261207,-0.391811 0.222499,-0.445 0.219165,-0.976252 0.391811,-1.436643 0.316677,-0.844481 0.867198,-1.723916 1.044829,-2.612072 0.100285,-0.501428 0.0045,-1.062823 0.130601,-1.567244 0.259154,-1.036611 0.498954,-1.925423 0.653018,-3.003886 0.06516,-0.456136 0.317365,-0.859358 0.391811,-1.306036 0.107746,-0.646462 0.283821,-1.311103 0.391811,-1.959054 0.02148,-0.128828 -0.03168,-0.265107 0,-0.391811 0.303051,-1.212194 1.090287,-2.249056 1.175435,-3.526301 0.04344,-0.65157 -0.04653,-1.307695 0,-1.959054 0.178988,-2.50584 0.602427,-5.047628 0.391811,-7.575013 -0.103746,-1.244936 -0.126947,-0.101362 -0.26121,-1.175435 -0.07655,-0.612444 -0.141232,-1.243767 -0.391811,-1.828451 -0.06183,-0.144275 -0.219903,-0.240377 -0.261207,-0.391811 -0.225531,-0.82695 -0.130601,-1.760998 -0.130601,-2.612072 0,-1.175436 0,-2.350868 0,-3.526301 0,-0.594005 -0.08357,-1.243486 0,-1.828451 0.07055,-0.493871 0.433837,-0.732538 0.522412,-1.175432 0.05123,-0.256133 -0.0324,-0.524431 0,-0.783625 -0.255691,-0.41296 0.209108,-0.6016 0.261207,-0.914224 0.05648,-0.338862 -0.05647,-0.705964 0,-1.044829 0.0628,-0.376788 0.263935,-0.906051 0.130606,-1.306036 -0.06157,-0.184702 -0.207719,-0.335213 -0.261207,-0.522415 -0.03588,-0.125579 0.0413,-0.267909 0,-0.391811 -0.01376,-0.0413 -0.09982,0.03078 -0.130606,0 -0.132149,-0.132151 -0.184698,-0.525509 -0.261205,-0.653018 -0.218117,-0.363526 -0.239559,-0.179669 -0.522417,-0.391811 -0.09851,-0.07388 -0.142806,-0.22738 -0.261207,-0.261208 -0.293013,-0.08372 -0.609481,0 -0.914223,0 -0.261207,0 -0.527489,-0.05123 -0.783622,0 -1.205449,0.24109 -2.496944,2.064404 -3.395699,2.873281 -0.706549,0.635897 -1.467578,1.2333 -2.089658,1.959054 -0.141658,0.16527 -0.23789,0.368499 -0.391811,0.522414 -0.153916,0.153921 -0.379074,0.227999 -0.522412,0.391813 -0.167161,0.19104 -0.239506,0.44994 -0.391811,0.653018 -0.297823,0.397095 -0.609486,0.783622 -0.914225,1.175433 -0.113398,0.145793 -0.289359,0.23813 -0.391811,0.391811 -0.978675,1.468011 -1.69785,5.600708 -1.69785,7.444409"
         id="path32509" />
    </clipPath>
    <clipPath
       clipPathUnits="userSpaceOnUse"
       id="clipPath32566">
      <path
         style="fill:#000000;fill-opacity:1;fill-rule:nonzero;stroke:#000000;stroke-width:0.264583;stroke-linejoin:round;stroke-dasharray:none;stroke-opacity:1;paint-order:markers fill stroke;stop-color:#000000"
         d="m 35.393598,92.728611 c 0.04353,-0.261205 0.03762,-0.53567 0.130604,-0.783622 0.04324,-0.115292 0.192902,-0.158755 0.261207,-0.261207 0.120669,-0.181004 -0.0474,-0.855234 0,-1.044829 0.237892,-0.951574 0.25966,-0.121322 0.391811,-0.914228 0.151077,-0.906463 -0.239313,0.195524 0.130604,-0.914223 0.124901,-0.374708 0.371782,-0.894196 0.653018,-1.175435 0.03078,-0.03078 0.111133,0.03894 0.130603,0 0.03894,-0.07788 -0.0483,-0.188759 0,-0.261205 0.054,-0.081 0.192374,-0.06177 0.261208,-0.130606 0.189941,-0.189942 0.415319,-0.641263 0.914225,-0.391808 0.177324,0.08866 0.984411,0.994174 1.044829,1.175432 0.188489,0.565465 -0.249674,-0.048 0.130604,0.522415 0.222221,0.33333 0.670057,0.777954 0.783621,1.17543 0.04784,0.167439 -0.06467,0.360733 0,0.522417 0.107297,0.26824 0.324544,-0.0079 0.391811,0.261207 0.07528,0.301104 0.0789,0.640763 0.261208,0.914223 0.13753,0.206298 1.00268,1.137436 1.044831,1.306039 0.171807,0.687234 -0.03406,1.82282 0.130604,2.481471 0.13504,0.540166 0.196019,1.338861 0.522414,1.828451 0.02416,0.03622 0.09982,-0.03078 0.130604,0 0.05245,0.05246 -0.02463,0.317942 0,0.391811 0.14211,0.426331 0.170616,0.109479 0.261207,0.653018 0.11258,0.675489 -0.07744,0.759357 0.261207,1.43664 0.09007,0.180152 -0.158168,0.116824 0.130604,0.26121 0.66842,0.334208 0.522415,-1.781847 0.522415,-2.089661 0,-1.248587 0.09735,-0.09977 -0.261208,-1.175435 -0.07836,-0.235085 0.07836,-0.548534 0,-0.783619 -0.142388,-0.427165 -0.326575,-0.849392 -0.391811,-1.306039 -0.02463,-0.172387 0.02863,-0.350647 0,-0.522412 -0.142914,-0.857491 -0.522414,-1.603637 -0.522414,-2.481474 0,-0.702495 -0.538893,-1.274297 -0.653018,-1.959052 -0.04108,-0.246488 0.04934,-0.53689 0,-0.783624 -0.027,-0.134993 -0.111136,-0.255524 -0.130604,-0.391811 -0.02463,-0.172387 0,-0.348274 0,-0.522412 0,-0.163716 -0.0688,-0.845426 0,-0.914225 0.449636,-0.449641 1.311561,1.708896 1.43664,1.959054 0.132482,0.264962 0.424304,0.489297 0.522415,0.783622 0.05507,0.165203 -0.07788,0.366662 0,0.522414 0.01947,0.03894 0.09166,-0.01947 0.130603,0 0.05507,0.02754 0.06903,0.130604 0.130604,0.130604 0.01143,0 0.237622,-2.553991 0.261207,-2.742676 0.0413,-0.330436 -0.0807,-0.722048 0,-1.044829 -0.07872,-0.236387 0.211571,-0.242901 0.261207,-0.391811 0.123915,-0.37175 -0.173712,-0.958612 0,-1.306039 0.05507,-0.110133 0.192905,-0.158755 0.261208,-0.261207 0.113027,-0.16954 -0.03374,-0.711782 0,-0.914228 0.06697,-0.401844 0.275502,-0.434692 0.39181,-0.783619 0.104715,-0.31414 -0.148185,-0.635437 0.130604,-0.914226 0.185751,-0.18575 0.153823,-0.438253 0.261207,-0.653018 0.271772,-0.543541 -0.009,0.139621 0.261208,-0.130606 0.02946,-0.02946 0.05837,-0.594646 0.261207,-0.391808 0.003,0.003 0.130603,1.986044 0.130603,2.220261 0,0.773925 0.151824,1.722356 0,2.481469 -0.04598,0.229889 -0.215228,0.42313 -0.261207,0.653021 -0.124735,0.623681 0.153993,1.343086 0,1.959054 -0.171164,0.68466 -0.272849,3.076276 -0.130603,3.787503 0.0191,0.09546 0.09982,0.168857 0.130603,0.261212 0.03911,0.117338 -0.03007,0.271513 0,0.391811 0.226751,0.907 0.517419,1.951559 1.044829,2.742676 0.0683,0.102455 0.206142,0.151072 0.261207,0.261205 0.01947,0.03894 -0.03894,0.111138 0,0.130606 0.07788,0.03894 0.183333,-0.03894 0.26121,0 0.07787,0.03894 -0.03894,0.18333 0,0.261205 0.05506,0.110138 0.20614,0.151074 0.261208,0.261207 0.17703,0.354068 0.299016,0.804262 0.39181,1.175435 0.06153,0.246108 -0.11254,0.68915 0,0.914223 0.05506,0.110138 0.192903,0.158758 0.261208,0.26121 0.07245,0.108667 -0.0413,0.267909 0,0.391811 0.01947,0.05841 0.111133,0.07219 0.130603,0.130606 0.02753,0.0826 0,0.174138 0,0.261205 0.04353,0.174138 0.07384,0.352131 0.130604,0.522417 0.11748,0.352438 0.189238,0.684988 0.261207,1.044828 0.07447,0.37238 0.299731,0.67651 0.391811,1.04483 0.05961,0.23845 -0.03431,0.54345 0,0.78362 0.317722,2.22405 -0.0061,4.47255 0.391811,6.66079 0.160837,0.88461 0.476324,1.7286 0.653018,2.61207 0.06576,0.32878 0.03937,0.72552 0.130604,1.04483 0.390665,1.36733 0.180916,-0.14025 0.522414,1.56725 0.04072,0.20361 0.102963,1.36753 0.130604,1.43664 0.04573,0.11432 0.215476,0.14688 0.261207,0.2612 0.0489,0.12224 -0.09151,1.05815 -0.130604,1.17544 -0.275463,0.82639 -1.336198,0.81951 -1.959054,1.17543 -0.285223,0.16298 -0.716174,0.54347 -1.044829,0.65302 -0.0826,0.0275 -0.178607,-0.0275 -0.261207,0 -0.258376,0.0861 -0.475946,0.31489 -0.783625,0.39181 -0.364648,0.0912 -0.922215,0 -1.306036,0 -0.302847,0 -1.458026,0.11991 -1.697847,0 -0.482031,-0.24102 -1.059005,-0.6672 -1.43664,-1.04483 -0.110993,-0.11099 -0.143079,-0.28845 -0.261207,-0.39181 -0.23626,-0.20673 -0.551331,-0.31124 -0.783622,-0.52242 -0.342429,-0.3113 -0.586994,-0.71759 -0.914228,-1.04483 -0.581734,-0.58173 -1.026279,-1.21986 -1.567243,-1.82845 -0.656022,-0.73802 -1.290426,-1.37479 -1.828451,-2.22026 -0.419598,-0.65937 -0.697489,-1.39498 -1.044829,-2.08966 -0.594844,-1.18968 -1.242542,-2.35809 -1.567244,-3.6569 -0.156006,-0.62403 -0.0529,-1.0762 -0.130606,-1.69785 -0.08766,-0.70126 -0.697455,-1.26972 -0.783622,-1.95906 -0.09981,-0.79852 0,-1.67293 0,-2.48146 0,-1.071428 -0.08865,-2.201315 0,-3.265096 0.04338,-0.520499 0.419264,-1.103061 0.522415,-1.567246 0.04722,-0.212487 0,-0.435343 0,-0.653016 0,-1.302033 -0.149424,-1.361813 0.783624,-2.481471 z"
         id="path32568" />
    </clipPath>
    <clipPath
       clipPathUnits="userSpaceOnUse"
       id="clipPath32587">
      <rect
         style="opacity:1;vector-effect:none;fill:#ffffff;fill-opacity:1;stroke-width:0.289245;stroke-linecap:butt;stroke-linejoin:miter;stroke-miterlimit:4;stroke-dasharray:none;stroke-dashoffset:0;stroke-opacity:1;-inkscape-stroke:none;stop-color:#000000;stop-opacity:1"
         id="rect32589"
         width="96.429878"
         height="80.496231"
         x="4.7017326"
         y="31.71199" />
    </clipPath>
  </defs>
  <g
     inkscape:label="Layer 1"
     inkscape:groupmode="layer"
     id="layer1">
    <g
       id="rect386">
      <path
         style="color:#000000;fill:#c87137;stroke-width:2.64597;stroke-linejoin:round;-inkscape-stroke:none;paint-order:markers fill stroke"
         d="M 1.6582794,1.6582794 H 104.84566 V 157.76231 H 1.6582794 Z"
         id="path8176" />
      <path
         style="color:#000000;fill:#331f14;stroke-linejoin:round;-inkscape-stroke:none;paint-order:markers fill stroke"
         d="M 1.6582031,0.3359375 A 1.3231174,1.3231174 0 0 0 0.3359375,1.6582031 V 157.76172 a 1.3231174,1.3231174 0 0 0 1.3222656,1.32422 H 104.8457 a 1.3231174,1.3231174 0 0 0 1.32227,-1.32422 V 1.6582031 A 1.3231174,1.3231174 0 0 0 104.8457,0.3359375 Z M 2.9804688,2.9804688 H 103.52344 V 156.43945 H 2.9804688 Z"
         id="path8178" />
    </g>
    <g
       aria-label="Race Accident"
       transform="matrix(0.26458333,0,0,0.26458333,0,9.5250005)"
       id="text719"
       style="font-size:48px;line-height:0;font-family:Broadway;-inkscape-font-specification:Broadway;text-align:center;letter-spacing:0px;word-spacing:0px;baseline-shift:baseline;white-space:pre;shape-inside:url(#rect721);display:inline;opacity:1;vector-effect:none;stroke-width:0.999999;stop-color:#000000;stop-opacity:1">
      <path
         d="m 37.008789,34.897305 q 2.25,1.546875 4.851563,2.648437 2.625,1.078125 5.625,1.6875 0.726562,0.140625 0.726562,0.703125 0,0.773438 -1.078125,0.773438 -2.460937,0 -6.914062,-2.15625 -3.703125,-1.804688 -8.484375,-5.578125 v 0.960937 l 0.02344,3.984375 V 40.19418 H 17.485352 v -1.054688 l 0.04687,-7.640625 0.07031,-9.140625 -0.04687,-14.1562499 h 9.421875 q 6.328125,0 9.5625,0.3515625 3.234375,0.3515625 5.507813,1.3125 3.703125,1.5468754 5.859375,5.0859374 1.992187,3.28125 1.992187,6.890625 0,3.84375 -2.226562,7.242188 -3.585938,5.460937 -10.664063,5.8125 z m -2.226562,-1.453125 1.125,0.02344 q 4.828125,0 8.15625,-2.695312 2.109375,-1.6875 3.234375,-4.21875 1.054687,-2.320313 1.054687,-4.734375 0,-4.101563 -2.671875,-7.335938 Q 43.641602,11.97543 40.571289,10.94418 37.500977,9.9129296 31.922852,9.8426171 L 31.711914,25.545742 v 4.242188 l 0.02344,1.101562 q 1.429687,1.382813 3.046875,2.554688 z"
         id="path8004" />
      <path
         d="M 69.868164,24.584805 V 21.72543 q -0.02344,-2.976563 -0.09375,-3.65625 -0.07031,-0.679688 -0.421875,-1.21875 -0.84375,-1.3125 -3.9375,-1.3125 -4.78125,0 -7.382812,3 -1.054688,1.21875 -1.78125,1.21875 -0.539063,0 -0.9375,-0.375 -0.398438,-0.375 -0.398438,-0.867188 0,-1.476562 3.492188,-3.046875 3.328125,-1.5 8.601562,-1.5 8.671875,0 12.234375,2.625 1.546875,1.148438 2.015625,2.578125 0.46875,1.429688 0.46875,5.039063 v 9.304687 q -0.09375,2.578125 0.140625,3.890625 0.257813,1.289063 1.125,2.789063 h -13.125 v -2.460938 q -2.15625,1.476563 -4.289062,2.226563 -2.109375,0.75 -4.171875,0.75 -3.492188,0 -6.210938,-2.039063 -3.539062,-2.671875 -3.539062,-6.9375 0,-3.773437 2.859375,-6.09375 3.328125,-2.742187 8.25,-2.742187 2.015625,0 3.5625,0.375 1.546875,0.351562 3.539062,1.3125 z m 0.02344,1.6875 q -2.953125,-1.476563 -4.570313,-1.476563 -1.359375,0 -1.78125,1.078125 -0.234375,0.585938 -0.234375,3.398438 v 5.601562 q 0.02344,1.851563 0.117188,2.25 0.234375,1.078125 1.59375,1.078125 1.078125,0 2.390625,-0.632812 1.335937,-0.65625 2.4375,-1.710938 z"
         id="path8006" />
      <path
         d="m 98.063477,19.686367 v 15.65625 l -0.02344,1.5 q 0,1.453125 0.351563,1.945313 0.375,0.46875 1.476562,0.46875 2.765626,0 5.437496,-1.6875 2.67188,-1.710938 4.35938,-4.570313 0.51562,-0.867187 1.00781,-0.867187 0.35156,0 0.63281,0.328125 0.30469,0.304687 0.30469,0.65625 0,0.84375 -1.35937,2.390625 -1.35938,1.523437 -3.16407,2.742187 -3.67968,2.460938 -7.874996,2.460938 -5.742187,0 -9.492187,-3.5625 -4.265625,-4.007813 -4.265625,-9.820313 0,-6 4.5,-9.984375 3.773437,-3.375 9.304687,-3.375 4.406251,0 7.710941,2.085938 1.40625,0.890625 2.29687,1.921875 0.89063,1.007812 0.89063,1.710937 0,0.351563 -0.25782,0.609375 -0.25781,0.234375 -0.63281,0.234375 -0.49219,0 -1.24219,-1.125 -1.07812,-1.570312 -3.39843,-2.71875 -2.32032,-1.171875 -4.38282,-1.171875 -1.382808,0 -1.781246,0.773438 -0.398437,0.773437 -0.398437,3.398437 z"
         id="path8008" />
      <path
         d="m 123.44629,28.147305 v 7.265625 q 0,2.109375 0.25781,2.671875 0.49219,1.078125 2.32031,1.078125 2.71875,0 5.36719,-1.476563 2.67188,-1.5 4.61719,-4.125 0.63281,-0.867187 0.91406,-1.101562 0.28125,-0.234375 0.60938,-0.234375 0.39843,0 0.65625,0.304687 0.25781,0.28125 0.25781,0.726563 0,0.984375 -1.57031,2.648437 -2.0625,2.132813 -5.13282,3.46875 -3.04687,1.335938 -5.95312,1.335938 -4.99219,0 -8.8125,-3.351563 -2.22656,-1.96875 -3.42188,-4.851562 -1.05468,-2.53125 -1.05468,-5.0625 0,-2.4375 0.9375,-4.875 0.9375,-2.460938 2.57812,-4.242188 1.89844,-2.085937 4.5,-3.234375 2.55469,-1.125 5.34375,-1.125 4.33594,0 7.85156,2.554688 5.48438,3.984375 5.4375,11.554687 h -5.46093 l -7.03125,0.02344 z m 6,-1.546875 v -6.84375 q -0.0469,-2.203125 -0.0937,-2.625 -0.0469,-0.445313 -0.32813,-0.820313 -0.65625,-0.914062 -2.67187,-0.914062 -2.0625,0 -2.57813,1.054687 -0.32812,0.632813 -0.32812,3.304688 v 6.84375 l 2.85937,0.09375 z"
         id="path8010" />
      <path
         d="m 171.44629,6.2801171 18.75,33.9140629 H 173.9541 l -2.22656,-4.289063 h -7.875 l -6.9375,-0.02344 -1.17188,-0.02344 -1.54687,2.859375 q -0.67969,1.289063 -0.96094,1.59375 -0.25781,0.328125 -0.65625,0.328125 -0.79687,0 -0.79687,-0.703125 0,-0.304687 0.44531,-1.125 0.46875,-0.84375 3.21094,-5.484375 L 169.61816,9.4441796 Z m -7.28906,15.3515629 -4.10157,6.914062 -3.28125,5.695313 7.03125,0.09375 7.05469,-0.07031 z"
         id="path8012" />
      <path
         d="m 201.63379,19.686367 v 15.65625 l -0.0234,1.5 q 0,1.453125 0.35156,1.945313 0.375,0.46875 1.47657,0.46875 2.76562,0 5.4375,-1.6875 2.67187,-1.710938 4.35937,-4.570313 0.51563,-0.867187 1.00781,-0.867187 0.35157,0 0.63282,0.328125 0.30468,0.304687 0.30468,0.65625 0,0.84375 -1.35937,2.390625 -1.35938,1.523437 -3.16406,2.742187 -3.67969,2.460938 -7.875,2.460938 -5.74219,0 -9.49219,-3.5625 -4.26563,-4.007813 -4.26563,-9.820313 0,-6 4.5,-9.984375 3.77344,-3.375 9.30469,-3.375 4.40625,0 7.71094,2.085938 1.40625,0.890625 2.29687,1.921875 0.89063,1.007812 0.89063,1.710937 0,0.351563 -0.25781,0.609375 -0.25782,0.234375 -0.63282,0.234375 -0.49218,0 -1.24218,-1.125 -1.07813,-1.570312 -3.39844,-2.71875 -2.32031,-1.171875 -4.38281,-1.171875 -1.38282,0 -1.78125,0.773438 -0.39844,0.773437 -0.39844,3.398437 z"
         id="path8014" />
      <path
         d="m 228.68066,19.686367 v 15.65625 l -0.0234,1.5 q 0,1.453125 0.35156,1.945313 0.375,0.46875 1.47656,0.46875 2.76563,0 5.4375,-1.6875 2.67188,-1.710938 4.35938,-4.570313 0.51562,-0.867187 1.00781,-0.867187 0.35156,0 0.63281,0.328125 0.30469,0.304687 0.30469,0.65625 0,0.84375 -1.35938,2.390625 -1.35937,1.523437 -3.16406,2.742187 -3.67969,2.460938 -7.875,2.460938 -5.74219,0 -9.49219,-3.5625 -4.26562,-4.007813 -4.26562,-9.820313 0,-6 4.5,-9.984375 3.77344,-3.375 9.30469,-3.375 4.40625,0 7.71093,2.085938 1.40625,0.890625 2.29688,1.921875 0.89062,1.007812 0.89062,1.710937 0,0.351563 -0.25781,0.609375 -0.25781,0.234375 -0.63281,0.234375 -0.49219,0 -1.24219,-1.125 -1.07812,-1.570312 -3.39844,-2.71875 -2.32031,-1.171875 -4.38281,-1.171875 -1.38281,0 -1.78125,0.773438 -0.39844,0.773437 -0.39844,3.398437 z"
         id="path8016" />
      <path
         d="m 250.71191,6.3973046 q 6.1875,0 6.1875,3.234375 0,1.5703124 -1.64062,2.4609374 -1.61719,0.867188 -4.57031,0.867188 -5.88282,0 -5.88282,-3.3281254 0,-3.1875 5.90625,-3.234375 z m 6.07032,8.2031254 v 0.679687 l -0.0469,3.65625 -0.0469,5.671875 -0.0703,8.625 0.0937,4.851563 0.0469,2.109375 h -12.04688 l 0.11719,-8.625 0.0703,-7.617188 -0.0469,-4.007812 -0.0703,-4.453125 0.0234,-0.890625 z"
         id="path8018" />
      <path
         d="m 292.71191,8.2019921 -0.0469,11.4609379 -0.0234,8.109375 0.0703,11.367187 v 1.054688 h -11.97656 v -3.046875 q -1.92187,1.921875 -3.72656,2.742187 -1.78125,0.820313 -4.05469,0.820313 -4.45312,0 -7.92187,-3.28125 -4.28907,-4.054688 -4.28907,-10.289063 0,-6.046875 4.14844,-9.820312 3.67969,-3.351563 8.27344,-3.351563 2.03906,0 3.9375,0.773438 1.92187,0.773437 3.70312,2.320312 l -0.0937,-8.8593749 z M 280.80566,18.983242 q -1.82812,-1.664062 -3.30468,-2.484375 -1.45313,-0.820312 -2.57813,-0.820312 -0.89062,0 -1.21875,0.65625 -0.30469,0.632812 -0.30469,2.414062 l 0.0234,1.03125 v 15.75 q 0.0234,1.898438 0.16406,2.367188 0.28125,1.007812 1.35938,1.007812 1.17187,0 2.48437,-0.867187 1.3125,-0.890625 3.375,-3.070313 z"
         id="path8020" />
      <path
         d="m 307.50098,28.147305 v 7.265625 q 0,2.109375 0.25781,2.671875 0.49219,1.078125 2.32031,1.078125 2.71875,0 5.36719,-1.476563 2.67187,-1.5 4.61719,-4.125 0.63281,-0.867187 0.91406,-1.101562 0.28125,-0.234375 0.60937,-0.234375 0.39844,0 0.65625,0.304687 0.25782,0.28125 0.25782,0.726563 0,0.984375 -1.57032,2.648437 -2.0625,2.132813 -5.13281,3.46875 -3.04687,1.335938 -5.95312,1.335938 -4.99219,0 -8.8125,-3.351563 -2.22657,-1.96875 -3.42188,-4.851562 -1.05469,-2.53125 -1.05469,-5.0625 0,-2.4375 0.9375,-4.875 0.9375,-2.460938 2.57813,-4.242188 1.89844,-2.085937 4.5,-3.234375 2.55469,-1.125 5.34375,-1.125 4.33594,0 7.85156,2.554688 5.48438,3.984375 5.4375,11.554687 h -5.46094 l -7.03125,0.02344 z m 6,-1.546875 v -6.84375 q -0.0469,-2.203125 -0.0937,-2.625 -0.0469,-0.445313 -0.32813,-0.820313 -0.65625,-0.914062 -2.67187,-0.914062 -2.0625,0 -2.57813,1.054687 -0.32812,0.632813 -0.32812,3.304688 v 6.84375 l 2.85937,0.09375 z"
         id="path8022" />
      <path
         d="m 338.88379,14.60043 v 3.257812 q 2.74219,-1.945312 5.36719,-2.90625 2.625,-0.984375 5.10937,-0.984375 3.32813,0 5.625,1.523438 1.73438,1.148437 2.32031,2.859375 0.60938,1.6875 0.60938,5.53125 l -0.0469,10.851562 0.0703,5.460938 h -11.92969 l 0.0937,-6.515625 0.0703,-4.78125 -0.0234,-7.21875 q -0.0234,-2.507813 -0.0703,-2.976563 -0.0234,-0.492187 -0.21094,-0.867187 -0.375,-0.75 -1.61718,-0.75 -1.14844,0 -2.48438,0.65625 -1.33594,0.65625 -2.88281,1.96875 l -0.0234,0.960937 -0.0469,6.585938 -0.0469,5.039062 0.0703,6.890625 0.0234,1.007813 h -11.97656 l 0.0703,-9.1875 0.0703,-6.070313 -0.0703,-5.25 -0.0703,-5.085937 z"
         id="path8024" />
      <path
         d="m 375.98535,6.3504296 -0.25781,7.5703124 -0.0234,0.726563 q 2.03906,0 3.70313,-0.164063 0.28125,-0.02344 0.49218,-0.02344 1.03125,0 1.03125,0.9375 0,0.867187 -1.07812,0.867187 -0.32813,0 -0.82031,-0.04687 -1.85157,-0.140625 -2.64844,-0.140625 h -0.67969 l -0.0234,4.546875 0.0937,9.117188 0.0703,4.875 q 0,1.710937 0.25781,2.390625 0.25781,0.679687 0.89062,0.679687 0.84375,0 1.80469,-0.984375 0.9375,-0.984375 1.47656,-2.414062 0.49219,-1.359375 1.17188,-1.359375 0.79687,0 0.79687,0.890625 0,0.890625 -0.79687,2.226562 -0.79688,1.3125 -1.92188,2.296875 -2.76562,2.414063 -7.17187,2.414063 -4.14844,0 -6.42188,-2.507813 -1.17187,-1.265625 -1.61718,-2.8125 -0.44532,-1.570312 -0.44532,-4.335937 v -1.757813 l 0.0234,-4.945312 V 16.00668 q -0.32812,-0.02344 -0.46875,-0.02344 -0.23437,0 -0.9375,0.04687 -0.58594,0.04687 -0.98437,0.04687 -1.14844,0 -1.14844,-0.867187 0,-0.84375 1.10156,-0.84375 0.51563,0 0.72656,0.02344 l 1.71094,0.117188 v -2.648438 q 6.9375,-2.5078124 12.09375,-5.5078124 z"
         id="path8026" />
    </g>
    <g
       aria-label="Description:"
       id="text733"
       style="font-size:7.05556px;line-height:0px;font-family:Broadway;-inkscape-font-specification:Broadway;opacity:1;vector-effect:none;stroke-width:0.264583;stop-color:#000000;stop-opacity:1">
      <path
         d="m 4.7016462,116.51791 h 1.8121214 q 0.7096901,0 1.0679802,0.0689 0.8853902,0.16881 1.4297156,0.94396 0.4271921,0.60978 0.4271921,1.34359 0,0.74758 -0.4409725,1.36081 -0.530545,0.74069 -1.3849293,0.91984 -0.2204862,0.0448 -0.3927411,0.0551 -0.1722549,0.0103 -0.7579215,0.0103 H 4.7119815 l 0.010335,-2.27377 z m 2.1049547,0.22048 -0.017226,2.76986 0.020671,1.49173 q 0.4616431,-0.003 0.6614587,-0.0344 0.2032608,-0.0345 0.4650882,-0.14814 0.6166725,-0.26527 0.9680725,-0.85438 0.3066137,-0.50643 0.3066137,-1.09555 0,-0.64078 -0.3617353,-1.17822 -0.6442333,-0.95429 -1.9085841,-0.95429 z"
         id="path7979" />
      <path
         d="m 11.3748,119.44969 v 1.06798 q 0,0.31006 0.0379,0.39274 0.07235,0.15847 0.341065,0.15847 0.399631,0 0.788927,-0.21704 0.392742,-0.22049 0.678685,-0.60634 0.09302,-0.12746 0.134358,-0.16192 0.04134,-0.0344 0.08957,-0.0344 0.05857,0 0.09646,0.0448 0.0379,0.0413 0.0379,0.1068 0,0.14469 -0.230822,0.38929 -0.303168,0.31351 -0.754476,0.50988 -0.447863,0.19637 -0.875055,0.19637 -0.733806,0 -1.295357,-0.49265 -0.327284,-0.28939 -0.5029839,-0.71314 -0.1550294,-0.37207 -0.1550294,-0.74414 0,-0.35829 0.1378039,-0.71658 0.1378034,-0.36173 0.3789604,-0.62356 0.279053,-0.30661 0.661459,-0.47542 0.375516,-0.16537 0.785482,-0.16537 0.637343,0 1.154108,0.37552 0.806153,0.58566 0.799263,1.69843 h -0.802708 l -1.033529,0.003 z m 0.881945,-0.22738 v -1.00597 q -0.0069,-0.32384 -0.01378,-0.38585 -0.0069,-0.0655 -0.04823,-0.12058 -0.09646,-0.13436 -0.392742,-0.13436 -0.303168,0 -0.37896,0.15503 -0.04823,0.093 -0.04823,0.48576 v 1.00597 l 0.420302,0.0138 z"
         id="path7981" />
      <path
         d="m 14.161884,120.58312 q 0.0689,0 0.1757,0.10336 0.172254,0.16192 0.489203,0.27905 0.316949,0.11369 0.592557,0.11369 0.127469,0 0.189481,-0.0413 0.06546,-0.0448 0.06546,-0.12747 0,-0.0827 -0.08957,-0.19637 -0.08613,-0.11714 -0.389296,-0.44442 -0.740696,-0.79237 -0.961182,-1.11277 -0.217041,-0.32384 -0.217041,-0.62011 0,-0.25839 0.148139,-0.49265 0.151584,-0.23772 0.420302,-0.40308 0.444417,-0.27561 1.019749,-0.27561 0.423747,0 0.895725,0.17915 0.368625,0.14125 0.368625,0.30661 0,0.0517 -0.04479,0.093 -0.04134,0.0413 -0.09646,0.0413 -0.06546,0 -0.244602,-0.12747 -0.36518,-0.26183 -0.795817,-0.26183 -0.151584,0 -0.230822,0.0482 -0.07579,0.0482 -0.07579,0.14813 0,0.11714 0.141249,0.29628 0.144694,0.17915 0.582222,0.60634 0.427192,0.41686 0.54088,0.54777 0.117133,0.12747 0.223931,0.29628 0.182591,0.28939 0.182591,0.62701 0,0.53054 -0.51332,0.85783 -0.420302,0.27216 -1.033529,0.27216 -0.68213,0 -1.20923,-0.30317 -0.155029,-0.093 -0.213596,-0.15158 -0.05512,-0.0586 -0.05512,-0.12747 0,-0.12747 0.134359,-0.13092 z"
         id="path7983" />
      <path
         d="m 19.236512,118.20601 v 2.30132 l -0.0034,0.22049 q 0,0.21359 0.05168,0.28594 0.05512,0.0689 0.217041,0.0689 0.406522,0 0.799263,-0.24804 0.392741,-0.2515 0.640788,-0.6718 0.07579,-0.12747 0.148139,-0.12747 0.05168,0 0.09302,0.0482 0.04479,0.0448 0.04479,0.0965 0,0.12402 -0.199816,0.3514 -0.199815,0.22393 -0.465088,0.40307 -0.54088,0.36174 -1.157553,0.36174 -0.844049,0 -1.395264,-0.52366 -0.627008,-0.58911 -0.627008,-1.44349 0,-0.88195 0.661459,-1.46761 0.55466,-0.4961 1.367703,-0.4961 0.647679,0 1.133438,0.30662 0.206705,0.13091 0.337619,0.28249 0.130914,0.14814 0.130914,0.2515 0,0.0517 -0.0379,0.0896 -0.0379,0.0344 -0.09302,0.0344 -0.07235,0 -0.18259,-0.16537 -0.158474,-0.23082 -0.499539,-0.39963 -0.341065,-0.17225 -0.644233,-0.17225 -0.203261,0 -0.261828,0.11369 -0.05857,0.11369 -0.05857,0.49954 z"
         id="path7985" />
      <path
         d="m 23.353405,118.5264 -0.0069,1.32292 0.01378,1.37115 H 21.59296 l 0.0034,-0.18948 0.0034,-0.7028 0.01034,-1.26435 -0.01378,-1.4056 -0.0034,-0.19982 h 1.76389 v 0.70969 q 0.396186,-0.4203 0.551215,-0.53055 0.358291,-0.25149 0.67524,-0.25149 0.192925,0 0.316949,0.0827 0.127468,0.0827 0.127468,0.21015 0,0.0999 -0.07579,0.16536 -0.07579,0.0655 -0.18948,0.0655 -0.07235,0 -0.16192,-0.0413 -0.151584,-0.0724 -0.251492,-0.0724 -0.248047,0 -0.478869,0.16881 -0.230821,0.16881 -0.516764,0.56155 z"
         id="path7987" />
      <path
         d="m 26.202501,116.25264 q 0.909506,0 0.909506,0.47542 0,0.23082 -0.241157,0.36173 -0.237712,0.12747 -0.671794,0.12747 -0.86472,0 -0.86472,-0.4892 0,-0.46853 0.868165,-0.47542 z m 0.89228,1.20578 v 0.0999 l -0.0069,0.53743 -0.0069,0.83372 -0.01034,1.26779 0.01378,0.71314 0.0069,0.31006 h -1.77078 l 0.01722,-1.2678 0.01034,-1.11966 -0.0069,-0.58911 -0.01034,-0.65457 0.0034,-0.13091 z"
         id="path7989" />
      <path
         d="m 27.911269,117.45842 h 1.760445 l -0.01034,0.45131 q 0.347955,-0.29973 0.637343,-0.4203 0.289388,-0.12403 0.637343,-0.12403 0.713136,0 1.157553,0.53055 0.399631,0.47542 0.399631,1.20923 0,0.78203 -0.458198,1.28502 -0.423747,0.46509 -1.057645,0.46509 -0.334174,0 -0.664903,-0.13781 -0.33073,-0.14125 -0.658014,-0.4203 l 0.0034,0.12747 0.0034,0.45131 0.0069,0.37551 0.0034,0.12747 h -1.760445 l 0.0034,-0.98185 0.0069,-0.91295 -0.01034,-1.90514 z m 1.75011,0.76137 v 1.79834 q 0.251492,0.23426 0.451308,0.35484 0.199816,0.11714 0.347955,0.11714 0.137804,0 0.161919,-0.13436 0.0069,-0.0448 0.01034,-0.46509 v -1.68465 q 0,-0.29973 -0.01034,-0.35829 -0.02412,-0.1447 -0.144694,-0.1447 -0.155029,0 -0.375515,0.14125 -0.220487,0.1378 -0.440973,0.37552 z"
         id="path7991" />
      <path
         d="m 34.84625,116.24575 -0.0379,1.11276 -0.0034,0.1068 q 0.299723,0 0.544325,-0.0241 0.04134,-0.003 0.07235,-0.003 0.151585,0 0.151585,0.1378 0,0.12747 -0.158475,0.12747 -0.04823,0 -0.120578,-0.007 -0.272163,-0.0207 -0.389296,-0.0207 h -0.09991 l -0.0034,0.66835 0.01378,1.34014 0.01033,0.71658 q 0,0.2515 0.0379,0.3514 0.0379,0.0999 0.130913,0.0999 0.124024,0 0.265273,-0.14469 0.137804,-0.1447 0.217041,-0.35485 0.07235,-0.19981 0.172255,-0.19981 0.117133,0 0.117133,0.13091 0,0.13091 -0.117133,0.32728 -0.117133,0.19293 -0.282498,0.33762 -0.406522,0.35485 -1.0542,0.35485 -0.609782,0 -0.943957,-0.36863 -0.172255,-0.18603 -0.237712,-0.41341 -0.06546,-0.23082 -0.06546,-0.63734 v -0.25838 l 0.0034,-0.72692 v -1.23334 q -0.04823,-0.003 -0.0689,-0.003 -0.03445,0 -0.137804,0.007 -0.08613,0.007 -0.144694,0.007 -0.16881,0 -0.16881,-0.12747 0,-0.12402 0.161919,-0.12402 0.07579,0 0.106799,0.003 l 0.251492,0.0172 v -0.3893 q 1.019749,-0.36862 1.77767,-0.80959 z"
         id="path7993" />
      <path
         d="m 36.882303,116.25264 q 0.909506,0 0.909506,0.47542 0,0.23082 -0.241157,0.36173 -0.237712,0.12747 -0.671794,0.12747 -0.86472,0 -0.86472,-0.4892 0,-0.46853 0.868165,-0.47542 z m 0.89228,1.20578 v 0.0999 l -0.0069,0.53743 -0.0069,0.83372 -0.01034,1.26779 0.01378,0.71314 0.0069,0.31006 h -1.77078 l 0.01723,-1.2678 0.01034,-1.11966 -0.0069,-0.58911 -0.01034,-0.65457 0.0034,-0.13091 z"
         id="path7995" />
      <path
         d="m 40.313622,117.3654 q 0.554661,0 1.050755,0.30662 0.458198,0.28249 0.699355,0.7717 0.213596,0.43064 0.213596,0.91295 0,0.33073 -0.127469,0.6649 -0.124023,0.33418 -0.341064,0.59256 -0.303169,0.35484 -0.740696,0.53399 -0.358291,0.14814 -0.747587,0.14814 -0.651123,0 -1.171333,-0.38585 -0.406521,-0.29628 -0.616672,-0.76137 -0.1757,-0.39274 -0.1757,-0.83027 0,-0.85438 0.620117,-1.41938 0.582222,-0.52365 1.336698,-0.53399 z m -0.09991,0.22393 -0.01034,3.47266 q 0.106798,0.007 0.148139,0.007 0.478869,0 0.916396,-0.26872 0.420302,-0.26182 0.630453,-0.69591 0.165365,-0.3445 0.165365,-0.75792 0,-0.83027 -0.613228,-1.34703 -0.496094,-0.41686 -1.078315,-0.41686 -0.04823,0 -0.158475,0.007 z"
         id="path7997" />
      <path
         d="m 44.582098,117.45842 v 0.47887 q 0.403077,-0.28594 0.788927,-0.42719 0.385851,-0.1447 0.751032,-0.1447 0.489204,0 0.826823,0.22393 0.254937,0.16881 0.341065,0.42031 0.08957,0.24804 0.08957,0.81304 l -0.0069,1.59508 0.01034,0.80271 h -1.753555 l 0.01378,-0.95774 0.01033,-0.7028 -0.0034,-1.06109 q -0.0034,-0.36863 -0.01033,-0.43753 -0.0034,-0.0724 -0.03101,-0.12747 -0.05512,-0.11024 -0.237712,-0.11024 -0.168809,0 -0.36518,0.0965 -0.19637,0.0965 -0.423747,0.28939 l -0.0034,0.14125 -0.0069,0.96807 -0.0069,0.7407 0.01034,1.01286 0.0034,0.14814 h -1.760445 l 0.01034,-1.35048 0.01034,-0.89228 -0.01034,-0.7717 -0.01034,-0.74759 z"
         id="path7999" />
      <path
         d="m 49.067614,119.7942 q 0.458198,0 0.73725,0.20326 0.279053,0.20326 0.279053,0.54432 0,0.34796 -0.282498,0.56844 -0.282498,0.21704 -0.733805,0.21704 -0.568442,0 -0.85094,-0.31694 -0.165364,-0.18604 -0.165364,-0.43409 0,-0.3514 0.275608,-0.56155 0.275607,-0.21359 0.740696,-0.22048 z m 0,-1.97404 q 0.458198,0 0.73725,0.20326 0.279053,0.20326 0.279053,0.54432 0,0.34796 -0.282498,0.56844 -0.282498,0.21704 -0.733805,0.21704 -0.568442,0 -0.85094,-0.31695 -0.165364,-0.18603 -0.165364,-0.43408 0,-0.3514 0.275608,-0.56155 0.275607,-0.21359 0.740696,-0.22048 z"
         id="path8001" />
    </g>
    <g
       aria-label="Demote an enemy knight to a pawn, and discard this card."
       transform="matrix(0.27431353,0,0,0.27431353,-0.8676689,-4.702566)"
       id="text855"
       style="font-size:23.1487px;line-height:23.1487px;font-family:Broadway;-inkscape-font-specification:Broadway;white-space:pre;shape-inside:url(#rect857);display:inline;opacity:1;vector-effect:none;stroke-width:0.999999;stop-color:#000000;stop-opacity:1">
      <path
         d="m 21.82882,474.54678 v -0.96076 h 5.628932 q 3.865653,0 5.391568,0.48603 2.249312,0.71209 3.650894,2.65622 1.548521,2.14759 1.548521,4.93945 0,1.89891 -0.768609,3.53786 -0.757306,1.62764 -2.000645,2.62231 -1.02858,0.83643 -2.475373,1.18683 -1.446794,0.33909 -2.916194,0.33909 H 21.82882 v -0.94946 h 0.655579 l 0.214758,0.0113 q 0.418214,0 0.678185,-0.16954 0.271274,-0.16955 0.384304,-0.45213 0.07912,-0.21475 0.07912,-0.99467 v -10.54577 q 0,-0.89294 -0.113031,-1.15291 -0.158243,-0.3504 -0.508638,-0.48603 -0.203456,-0.0678 -1.390279,-0.0678 z m 4.11432,13.5863 h 3.413529 q 0.508639,0 1.684159,-0.18085 1.186823,-0.18085 1.695461,-0.44082 0.746003,-0.38431 1.446794,-1.23204 0.700791,-0.85903 1.073792,-2.04586 0.384305,-1.19812 0.384305,-2.73534 0,-1.52592 -0.384305,-2.64492 -0.373001,-1.119 -1.141611,-2.01195 -0.757306,-0.89294 -1.695461,-1.35637 -0.926852,-0.47473 -2.079766,-0.59906 -0.621669,-0.0565 -2.079766,-0.0565 H 25.94314 Z"
         style="font-family:'Bookman Old Style';-inkscape-font-specification:'Bookman Old Style'"
         id="path7886" />
      <path
         d="m 49.758722,486.43761 0.723397,0.58776 q -0.825125,0.98337 -1.605037,1.55983 -0.76861,0.57646 -1.458097,0.80252 -0.689488,0.23736 -1.61634,0.23736 -1.661552,0 -2.825769,-0.67818 -1.333763,-0.77991 -2.045857,-2.03456 -0.712094,-1.25464 -0.712094,-2.9614 0,-1.78589 0.689488,-3.05183 0.689487,-1.26595 1.921523,-1.98934 1.243338,-0.7347 2.870981,-0.7347 1.209429,0 2.102372,0.3843 0.892943,0.373 1.514613,1.14161 0.621669,0.75731 0.904246,1.74067 0.158243,0.57646 0.180849,1.49201 h -7.991275 q -0.03391,0.55385 -0.03391,0.82513 0,1.42418 0.497335,2.54319 0.497335,1.1077 1.311157,1.63894 0.825125,0.51995 1.865008,0.51995 0.88164,0 1.706764,-0.40692 0.825125,-0.41821 2.000645,-1.61634 z m -1.446794,-4.56644 q -0.169546,-1.03988 -0.486032,-1.53722 -0.305183,-0.49733 -0.88164,-0.79121 -0.565154,-0.29388 -1.277248,-0.29388 -0.712094,0 -1.333763,0.29388 -0.621669,0.29388 -1.039883,0.81382 -0.406911,0.51994 -0.712094,1.51461 z"
         style="font-family:'Bookman Old Style';-inkscape-font-specification:'Bookman Old Style'"
         id="path7888" />
      <path
         d="m 52.098459,480.07398 v -0.96076 q 0.847731,-0.0791 1.480703,-0.27127 0.632972,-0.20346 1.446794,-0.66688 h 0.836427 v 1.89891 q 1.288551,-1.01727 2.011948,-1.36767 1.107702,-0.53124 2.113675,-0.53124 0.689488,0 1.345066,0.25997 0.666882,0.24866 1.06249,0.62167 0.40691,0.373 0.689487,1.01727 1.186823,-1.05118 2.192797,-1.4694 1.017277,-0.42951 2.05716,-0.42951 0.994671,0 1.751977,0.41821 0.768609,0.40691 1.107701,1.02858 0.350396,0.62167 0.350396,1.81979 v 5.24463 q 0,0.82513 0.03391,0.96076 0.05651,0.21476 0.237365,0.40691 0.192152,0.19216 0.429517,0.27128 0.237364,0.0791 0.88164,0.0791 h 0.361698 v 0.94946 h -5.685447 v -0.94946 q 0.972064,-0.0113 1.254641,-0.13564 0.29388,-0.13563 0.429517,-0.42951 0.14694,-0.29388 0.14694,-1.15292 v -4.98465 q 0,-0.94946 -0.169546,-1.31116 -0.169546,-0.3617 -0.610366,-0.59906 -0.429517,-0.24867 -1.073793,-0.24867 -0.802518,0 -1.684158,0.42951 -1.17552,0.58776 -1.853705,1.32246 v 5.39157 q 0,0.77991 0.06782,1.02858 0.07912,0.23737 0.248668,0.40691 0.180849,0.15825 0.40691,0.22606 0.237365,0.0565 1.130308,0.0565 v 0.94946 H 59.52458 v -0.94946 h 0.316486 q 0.666882,0 0.938156,-0.15824 0.282577,-0.15825 0.44082,-0.48604 0.11303,-0.25997 0.11303,-1.07379 v -4.81511 q 0,-1.06249 -0.169546,-1.43549 -0.158243,-0.373 -0.621669,-0.63297 -0.463426,-0.25997 -1.085095,-0.25997 -0.7347,0 -1.480703,0.3617 -1.107702,0.53124 -2.034554,1.39027 v 5.80979 q 0,0.51994 0.135637,0.76861 0.14694,0.23736 0.452123,0.3843 0.305183,0.14694 0.836428,0.14694 h 0.418213 v 0.94946 h -5.685447 v -0.94946 h 0.305183 q 0.779912,0 1.02858,-0.12433 0.361698,-0.16955 0.519942,-0.54255 0.09042,-0.20346 0.09042,-1.05119 v -6.6123 z"
         style="font-family:'Bookman Old Style';-inkscape-font-specification:'Bookman Old Style'"
         id="path7890" />
      <path
         d="m 79.587542,478.17507 q 1.661552,0 2.870981,0.68948 1.220732,0.68949 1.921523,2.01195 0.700791,1.32246 0.700791,3.01792 0,1.69546 -0.723397,3.01792 -0.712094,1.32246 -1.955432,2.02325 -1.232036,0.68949 -2.950103,0.68949 -2.735345,0 -4.11432,-1.70676 -1.367672,-1.70677 -1.367672,-4.01259 0,-1.68416 0.712093,-2.98402 0.712094,-1.31115 1.989342,-2.02325 1.288551,-0.72339 2.916194,-0.72339 z m -0.09042,1.09639 q -1.288551,0 -2.181494,1.01728 -1.130307,1.26595 -1.130307,3.6848 0,2.32844 0.960761,3.54917 0.870337,1.0851 2.362343,1.0851 0.960762,0 1.706765,-0.50864 0.757306,-0.50864 1.220732,-1.61634 0.463426,-1.11901 0.463426,-2.62232 0,-1.4694 -0.497335,-2.63361 -0.384305,-0.92686 -1.164217,-1.43549 -0.768609,-0.51995 -1.740674,-0.51995 z"
         style="font-family:'Bookman Old Style';-inkscape-font-specification:'Bookman Old Style'"
         id="path7892" />
      <path
         d="m 89.816827,474.60329 h 0.802519 v 3.84305 h 3.357013 v 1.13031 h -3.357013 v 6.81575 q 0,0.87034 0.14694,1.24334 0.158243,0.373 0.519941,0.61037 0.373002,0.23736 0.825125,0.23736 1.073792,0 2.373646,-0.96076 v 1.0964 q -1.480703,1.00597 -2.995315,1.00597 -0.859034,0 -1.559825,-0.3843 -0.689488,-0.38431 -0.949458,-0.90425 -0.248668,-0.51994 -0.248668,-1.80849 v -6.95139 h -1.978039 v -0.94946 q 0.949459,-0.21476 1.525916,-0.66688 0.58776,-0.45213 0.949458,-1.17552 0.361699,-0.7234 0.58776,-2.1815 z"
         style="font-family:'Bookman Old Style';-inkscape-font-specification:'Bookman Old Style'"
         id="path7894" />
      <path
         d="m 105.31334,486.43761 0.7234,0.58776 q -0.82512,0.98337 -1.60504,1.55983 -0.7686,0.57646 -1.45809,0.80252 -0.68949,0.23736 -1.61634,0.23736 -1.661555,0 -2.825772,-0.67818 -1.333763,-0.77991 -2.045856,-2.03456 -0.712094,-1.25464 -0.712094,-2.9614 0,-1.78589 0.689487,-3.05183 0.689488,-1.26595 1.921523,-1.98934 1.243339,-0.7347 2.870982,-0.7347 1.20943,0 2.10237,0.3843 0.89295,0.373 1.51461,1.14161 0.62167,0.75731 0.90425,1.74067 0.15824,0.57646 0.18085,1.49201 h -7.991275 q -0.03391,0.55385 -0.03391,0.82513 0,1.42418 0.497336,2.54319 0.497335,1.1077 1.311157,1.63894 0.825122,0.51995 1.865012,0.51995 0.88164,0 1.70676,-0.40692 0.82512,-0.41821 2.00064,-1.61634 z m -1.44679,-4.56644 q -0.16955,-1.03988 -0.48603,-1.53722 -0.30518,-0.49733 -0.88164,-0.79121 -0.56516,-0.29388 -1.27725,-0.29388 -0.71209,0 -1.333762,0.29388 -0.62167,0.29388 -1.039883,0.81382 -0.406911,0.51994 -0.712094,1.51461 z"
         style="font-family:'Bookman Old Style';-inkscape-font-specification:'Bookman Old Style'"
         id="path7896" />
      <path
         d="m 123.20611,482.80933 v -1.23204 q 0,-1.25464 -0.70079,-1.78588 -0.70079,-0.54255 -1.97803,-0.54255 -0.63298,0 -1.10771,0.15824 -0.47473,0.14694 -0.76861,0.41821 -0.28257,0.25998 -0.41821,0.59907 -0.0565,0.12433 -0.27127,0.96076 -0.25997,1.01728 -1.05119,1.01728 -0.45212,0 -0.7347,-0.29388 -0.27127,-0.30519 -0.27127,-0.81383 0,-0.746 0.55385,-1.45809 0.55385,-0.7234 1.68416,-1.18683 1.14161,-0.47472 2.69013,-0.47472 1.44679,0 2.47537,0.45212 1.02858,0.44082 1.51461,1.27725 0.3391,0.57645 0.3391,2.10237 v 4.35168 q 0,0.92686 0.0565,1.20943 0.12434,0.48603 0.42952,0.7347 0.31649,0.23737 0.81382,0.23737 0.51994,0 1.24334,-0.24867 v 0.98337 q -0.93816,0.27127 -1.68416,0.27127 -0.80252,0 -1.35637,-0.22606 -0.54255,-0.22606 -0.89294,-0.65558 -0.3504,-0.44082 -0.45212,-1.03988 -1.35637,1.06249 -2.45277,1.492 -1.0964,0.42952 -2.21541,0.42952 -1.55982,0 -2.53188,-0.84773 -0.97207,-0.84773 -0.97207,-1.98934 0,-0.68949 0.3504,-1.31116 0.36169,-0.62167 1.08509,-1.0964 0.7347,-0.47473 2.29453,-0.83642 1.55982,-0.3617 4.32907,-0.65558 z m 0,0.98336 q -2.62231,0.38431 -3.24398,0.53125 -1.23203,0.28258 -1.76328,0.62167 -0.53124,0.33909 -0.7573,0.7347 -0.22607,0.3843 -0.22607,0.82512 0,0.44082 0.24867,0.85904 0.25997,0.40691 0.7234,0.64427 0.46342,0.23737 0.98337,0.23737 0.7347,0 1.66155,-0.3504 0.92685,-0.35039 2.37364,-1.36767 z"
         style="font-family:'Bookman Old Style';-inkscape-font-specification:'Bookman Old Style'"
         id="path7898" />
      <path
         d="m 128.51856,480.07398 v -0.94946 q 1.00597,-0.11303 1.50331,-0.27127 0.49734,-0.15824 1.43549,-0.67818 h 0.81382 v 2.14758 q 1.49201,-1.25464 2.54319,-1.69546 1.06249,-0.45212 2.14759,-0.45212 0.92685,0 1.63894,0.31648 0.7121,0.30518 1.15292,0.83643 0.45212,0.53124 0.59906,1.20943 0.0904,0.41821 0.0904,1.26594 v 4.97336 q 0,0.89294 0.12433,1.15291 0.13564,0.24867 0.41821,0.3617 0.28258,0.11303 1.39028,0.11303 v 0.94946 h -5.82108 v -0.94946 h 0.31648 q 0.81383,0 1.10771,-0.14694 0.29388,-0.14694 0.41821,-0.42952 0.13564,-0.28257 0.13564,-1.15291 v -4.15953 q 0,-1.28855 -0.21476,-1.78589 -0.20346,-0.49733 -0.7121,-0.80252 -0.49733,-0.31648 -1.26594,-0.31648 -0.91555,0 -1.95543,0.47473 -1.03989,0.46342 -2.01195,1.37897 v 5.21072 q 0,0.88164 0.12433,1.17552 0.13564,0.29388 0.42952,0.44082 0.20346,0.11303 1.0851,0.11303 h 0.32778 v 0.94946 h -5.82108 v -0.94946 h 0.28258 q 0.83643,0 1.14161,-0.13564 0.30518,-0.14694 0.42952,-0.50864 0.0678,-0.18084 0.0678,-1.24333 v -6.44276 z"
         style="font-family:'Bookman Old Style';-inkscape-font-specification:'Bookman Old Style'"
         id="path7900" />
      <path
         d="m 160.86797,486.43761 0.7234,0.58776 q -0.82513,0.98337 -1.60504,1.55983 -0.76861,0.57646 -1.4581,0.80252 -0.68948,0.23736 -1.61634,0.23736 -1.66155,0 -2.82577,-0.67818 -1.33376,-0.77991 -2.04585,-2.03456 -0.7121,-1.25464 -0.7121,-2.9614 0,-1.78589 0.68949,-3.05183 0.68949,-1.26595 1.92152,-1.98934 1.24334,-0.7347 2.87099,-0.7347 1.20943,0 2.10237,0.3843 0.89294,0.373 1.51461,1.14161 0.62167,0.75731 0.90425,1.74067 0.15824,0.57646 0.18085,1.49201 h -7.99128 q -0.0339,0.55385 -0.0339,0.82513 0,1.42418 0.49734,2.54319 0.49733,1.1077 1.31115,1.63894 0.82513,0.51995 1.86501,0.51995 0.88164,0 1.70677,-0.40692 0.82512,-0.41821 2.00064,-1.61634 z m -1.44679,-4.56644 q -0.16955,-1.03988 -0.48604,-1.53722 -0.30518,-0.49733 -0.88164,-0.79121 -0.56515,-0.29388 -1.27724,-0.29388 -0.7121,0 -1.33377,0.29388 -0.62167,0.29388 -1.03988,0.81382 -0.40691,0.51994 -0.71209,1.51461 z"
         style="font-family:'Bookman Old Style';-inkscape-font-specification:'Bookman Old Style'"
         id="path7902" />
      <path
         d="m 163.24161,480.07398 v -0.94946 q 1.00597,-0.11303 1.50331,-0.27127 0.49733,-0.15824 1.43549,-0.67818 h 0.81382 v 2.14758 q 1.492,-1.25464 2.54319,-1.69546 1.06249,-0.45212 2.14758,-0.45212 0.92686,0 1.63895,0.31648 0.71209,0.30518 1.15291,0.83643 0.45213,0.53124 0.59907,1.20943 0.0904,0.41821 0.0904,1.26594 v 4.97336 q 0,0.89294 0.12434,1.15291 0.13563,0.24867 0.41821,0.3617 0.28258,0.11303 1.39028,0.11303 v 0.94946 h -5.82109 v -0.94946 h 0.31649 q 0.81382,0 1.1077,-0.14694 0.29388,-0.14694 0.41821,-0.42952 0.13564,-0.28257 0.13564,-1.15291 v -4.15953 q 0,-1.28855 -0.21476,-1.78589 -0.20345,-0.49733 -0.71209,-0.80252 -0.49734,-0.31648 -1.26595,-0.31648 -0.91554,0 -1.95543,0.47473 -1.03988,0.46342 -2.01195,1.37897 v 5.21072 q 0,0.88164 0.12434,1.17552 0.13564,0.29388 0.42952,0.44082 0.20345,0.11303 1.08509,0.11303 h 0.32779 v 0.94946 h -5.82108 v -0.94946 h 0.28257 q 0.83643,0 1.14161,-0.13564 0.30519,-0.14694 0.42952,-0.50864 0.0678,-0.18084 0.0678,-1.24333 v -6.44276 z"
         style="font-family:'Bookman Old Style';-inkscape-font-specification:'Bookman Old Style'"
         id="path7904" />
      <path
         d="m 188.18751,486.43761 0.72339,0.58776 q -0.82512,0.98337 -1.60503,1.55983 -0.76861,0.57646 -1.4581,0.80252 -0.68949,0.23736 -1.61634,0.23736 -1.66155,0 -2.82577,-0.67818 -1.33376,-0.77991 -2.04586,-2.03456 -0.71209,-1.25464 -0.71209,-2.9614 0,-1.78589 0.68949,-3.05183 0.68948,-1.26595 1.92152,-1.98934 1.24334,-0.7347 2.87098,-0.7347 1.20943,0 2.10237,0.3843 0.89295,0.373 1.51462,1.14161 0.62166,0.75731 0.90424,1.74067 0.15824,0.57646 0.18085,1.49201 h -7.99127 q -0.0339,0.55385 -0.0339,0.82513 0,1.42418 0.49733,2.54319 0.49734,1.1077 1.31116,1.63894 0.82512,0.51995 1.86501,0.51995 0.88164,0 1.70676,-0.40692 0.82513,-0.41821 2.00065,-1.61634 z m -1.4468,-4.56644 q -0.16954,-1.03988 -0.48603,-1.53722 -0.30518,-0.49733 -0.88164,-0.79121 -0.56515,-0.29388 -1.27725,-0.29388 -0.71209,0 -1.33376,0.29388 -0.62167,0.29388 -1.03988,0.81382 -0.40692,0.51994 -0.7121,1.51461 z"
         style="font-family:'Bookman Old Style';-inkscape-font-specification:'Bookman Old Style'"
         id="path7906" />
      <path
         d="m 190.52725,480.07398 v -0.96076 q 0.84773,-0.0791 1.4807,-0.27127 0.63297,-0.20346 1.44679,-0.66688 h 0.83643 v 1.89891 q 1.28855,-1.01727 2.01195,-1.36767 1.1077,-0.53124 2.11367,-0.53124 0.68949,0 1.34507,0.25997 0.66688,0.24866 1.06249,0.62167 0.40691,0.373 0.68949,1.01727 1.18682,-1.05118 2.19279,-1.4694 1.01728,-0.42951 2.05716,-0.42951 0.99467,0 1.75198,0.41821 0.76861,0.40691 1.1077,1.02858 0.3504,0.62167 0.3504,1.81979 v 5.24463 q 0,0.82513 0.0339,0.96076 0.0565,0.21476 0.23736,0.40691 0.19215,0.19216 0.42952,0.27128 0.23736,0.0791 0.88164,0.0791 h 0.3617 v 0.94946 h -5.68545 v -0.94946 q 0.97206,-0.0113 1.25464,-0.13564 0.29388,-0.13563 0.42952,-0.42951 0.14694,-0.29388 0.14694,-1.15292 v -4.98465 q 0,-0.94946 -0.16955,-1.31116 -0.16955,-0.3617 -0.61037,-0.59906 -0.42951,-0.24867 -1.07379,-0.24867 -0.80252,0 -1.68416,0.42951 -1.17552,0.58776 -1.8537,1.32246 v 5.39157 q 0,0.77991 0.0678,1.02858 0.0791,0.23737 0.24867,0.40691 0.18085,0.15825 0.40691,0.22606 0.23736,0.0565 1.1303,0.0565 v 0.94946 h -5.57241 v -0.94946 h 0.31648 q 0.66689,0 0.93816,-0.15824 0.28258,-0.15825 0.44082,-0.48604 0.11303,-0.25997 0.11303,-1.07379 v -4.81511 q 0,-1.06249 -0.16955,-1.43549 -0.15824,-0.373 -0.62167,-0.63297 -0.46342,-0.25997 -1.08509,-0.25997 -0.7347,0 -1.4807,0.3617 -1.10771,0.53124 -2.03456,1.39027 v 5.80979 q 0,0.51994 0.13564,0.76861 0.14694,0.23736 0.45212,0.3843 0.30519,0.14694 0.83643,0.14694 h 0.41821 v 0.94946 h -5.68544 v -0.94946 h 0.30518 q 0.77991,0 1.02858,-0.12433 0.3617,-0.16955 0.51994,-0.54255 0.0904,-0.20346 0.0904,-1.05119 v -6.6123 z"
         style="font-family:'Bookman Old Style';-inkscape-font-specification:'Bookman Old Style'"
         id="path7908" />
      <path
         d="m 211.34751,478.44634 h 5.4933 v 0.94946 h -0.45212 q -0.64428,0 -0.76861,0.0339 -0.14694,0.0452 -0.24867,0.19215 -0.10173,0.13564 -0.10173,0.35039 0,0.30519 0.30518,1.02858 l 2.62232,6.16018 2.43016,-5.8889 q 0.42952,-1.03988 0.42952,-1.37898 0,-0.25997 -0.19216,-0.373 -0.19215,-0.12433 -0.87033,-0.12433 h -0.53125 v -0.94946 h 4.62296 v 0.94946 h -0.27127 q -0.67819,0 -0.88164,0.0904 -0.20346,0.0904 -0.39561,0.373 -0.19215,0.27128 -0.61037,1.25465 l -4.14823,9.66413 q -0.45212,1.03988 -1.00597,1.92152 -0.55385,0.89294 -1.39028,1.37897 -0.83643,0.48604 -1.8424,0.48604 -1.16422,0 -1.86501,-0.53125 -0.59906,-0.45212 -0.59906,-1.13031 0,-0.41821 0.25997,-0.70079 0.25997,-0.27127 0.61037,-0.27127 0.27127,0 0.50864,0.11303 0.14694,0.0565 0.61036,0.47473 0.56516,0.49733 0.79122,0.61037 0.23736,0.11303 0.46342,0.11303 0.46343,0 0.91555,-0.31649 0.45213,-0.31649 0.76861,-0.89294 0.45212,-0.82513 0.746,-1.54852 l 0.46343,-1.13031 -3.73001,-8.35298 q -0.39561,-0.88164 -0.66689,-1.18682 -0.27127,-0.30518 -0.54254,-0.373 -0.14694,-0.0452 -0.92686,-0.0452 z"
         style="font-family:'Bookman Old Style';-inkscape-font-specification:'Bookman Old Style'"
         id="path7910" />
      <path
         d="m 232.05474,474.64851 v -0.92686 q 1.44679,-0.11303 2.99532,-0.94946 h 0.87033 v 11.28048 l 4.14823,-3.3005 q 0.99467,-0.79122 0.99467,-1.05119 0,-0.15824 -0.21476,-0.24867 -0.13563,-0.0565 -0.66688,-0.0565 h -0.59906 v -0.94946 h 5.73066 v 0.94946 q -0.96076,0 -1.53722,0.20345 -0.57646,0.19216 -1.33376,0.76861 l -3.27789,2.49798 3.86565,4.22735 q 0.55385,0.61037 0.90424,0.85904 0.3504,0.24866 0.7008,0.35039 0.35039,0.0904 1.09639,0.10173 v 0.94946 h -6.01323 v -0.94946 h 0.46342 q 0.68949,0 0.87034,-0.10173 0.18085,-0.11303 0.18085,-0.29388 0,-0.18085 -0.33909,-0.51994 -0.0565,-0.0565 -0.12434,-0.13564 l -3.00662,-3.45874 -1.8424,1.41289 v 1.4807 q 0,0.82512 0.12434,1.0851 0.12433,0.25997 0.3843,0.3956 0.27128,0.13564 1.02858,0.13564 h 0.41822 v 0.94946 h -5.82109 v -0.94946 q 0.98337,-0.0113 1.20943,-0.0791 0.39561,-0.12434 0.56515,-0.44082 0.18085,-0.31649 0.18085,-1.22073 v -12.01517 z"
         style="font-family:'Bookman Old Style';-inkscape-font-specification:'Bookman Old Style'"
         id="path7912" />
      <path
         d="m 246.57919,480.07398 v -0.94946 q 1.00598,-0.11303 1.50331,-0.27127 0.49734,-0.15824 1.43549,-0.67818 h 0.81382 v 2.14758 q 1.49201,-1.25464 2.54319,-1.69546 1.06249,-0.45212 2.14759,-0.45212 0.92685,0 1.63895,0.31648 0.71209,0.30518 1.15291,0.83643 0.45212,0.53124 0.59906,1.20943 0.0904,0.41821 0.0904,1.26594 v 4.97336 q 0,0.89294 0.12433,1.15291 0.13564,0.24867 0.41821,0.3617 0.28258,0.11303 1.39028,0.11303 v 0.94946 h -5.82108 v -0.94946 h 0.31648 q 0.81383,0 1.10771,-0.14694 0.29388,-0.14694 0.41821,-0.42952 0.13564,-0.28257 0.13564,-1.15291 v -4.15953 q 0,-1.28855 -0.21476,-1.78589 -0.20346,-0.49733 -0.7121,-0.80252 -0.49733,-0.31648 -1.26594,-0.31648 -0.91555,0 -1.95543,0.47473 -1.03989,0.46342 -2.01195,1.37897 v 5.21072 q 0,0.88164 0.12433,1.17552 0.13564,0.29388 0.42952,0.44082 0.20346,0.11303 1.0851,0.11303 h 0.32779 v 0.94946 h -5.82109 v -0.94946 h 0.28258 q 0.83643,0 1.14161,-0.13564 0.30518,-0.14694 0.42952,-0.50864 0.0678,-0.18084 0.0678,-1.24333 v -6.44276 z"
         style="font-family:'Bookman Old Style';-inkscape-font-specification:'Bookman Old Style'"
         id="path7914" />
      <path
         d="m 264.64152,473.07738 q 0.54254,0 0.92685,0.3843 0.3843,0.373 0.3843,0.91555 0,0.54255 -0.3843,0.92685 -0.38431,0.38431 -0.92685,0.38431 -0.54255,0 -0.92686,-0.38431 -0.3843,-0.3843 -0.3843,-0.92685 0,-0.54255 0.3843,-0.91555 0.38431,-0.3843 0.92686,-0.3843 z m -2.88229,6.9966 v -0.93815 q 0.93816,-0.11303 1.57113,-0.31649 0.64428,-0.20345 1.4581,-0.64427 h 0.82512 v 9.06506 q 0,0.47473 0.13564,0.7121 0.13564,0.23736 0.373,0.35039 0.24867,0.10173 0.89294,0.10173 h 0.53125 v 0.94946 h -5.78718 v -0.94946 h 0.46343 q 0.7573,0 1.01728,-0.13564 0.25997,-0.13563 0.36169,-0.3843 0.11303,-0.24867 0.11303,-1.16422 v -6.64621 z"
         style="font-family:'Bookman Old Style';-inkscape-font-specification:'Bookman Old Style'"
         id="path7916" />
      <path
         d="m 277.52701,479.33928 q 0.50864,-0.59906 1.02858,-0.88164 0.53125,-0.28257 0.97207,-0.28257 0.40691,0 0.67818,0.24866 0.28258,0.23737 0.28258,0.58776 0,0.3617 -0.24867,0.61037 -0.24867,0.24867 -0.63297,0.24867 -0.15824,0 -0.42952,-0.0565 -0.31648,-0.0791 -0.53124,-0.0791 -0.28258,0 -0.58776,0.25997 0.70079,0.84773 0.70079,1.98934 0,1.55983 -1.31116,2.70144 -1.31115,1.14161 -3.3118,1.14161 -1.1077,0 -2.22671,-0.46343 -0.746,0.53125 -0.84773,0.65558 -0.15824,0.19215 -0.15824,0.40691 0,0.32779 0.33909,0.54255 0.42952,0.28258 1.69546,0.47473 l 3.26659,0.48603 q 1.0851,0.16955 2.1815,0.56515 1.0964,0.39561 1.58243,1.02858 0.49733,0.63298 0.49733,1.51462 0,1.492 -1.37897,2.38495 -1.75198,1.14161 -5.19942,1.14161 -1.80849,0 -2.9388,-0.38431 -1.1303,-0.3843 -1.75197,-1.08509 -0.45213,-0.50864 -0.45213,-1.05119 0,-0.70079 0.45213,-1.36767 0.46342,-0.66688 2.12497,-1.89892 -1.07379,-0.27127 -1.53721,-0.63297 -0.58776,-0.46343 -0.58776,-1.05119 0,-0.29388 0.10172,-0.54254 0.11303,-0.25998 0.3504,-0.50864 0.24867,-0.25997 0.89294,-0.7121 0.40691,-0.28257 0.57646,-0.41821 -0.82513,-0.58776 -1.24334,-1.31116 -0.41821,-0.7347 -0.41821,-1.60503 0,-1.4355 1.1077,-2.50929 1.34506,-1.31115 3.62829,-1.31115 1.01727,0 1.77458,0.25997 0.75731,0.24866 1.55982,0.90424 z m -3.43613,-0.11303 q -1.1077,0 -1.87631,0.80252 -0.76861,0.80252 -0.76861,1.98934 0,0.79122 0.35039,1.43549 0.3504,0.63297 0.98337,1.00598 0.63297,0.36169 1.33376,0.36169 0.7008,0 1.33377,-0.373 0.64427,-0.373 0.98337,-1.00597 0.35039,-0.63297 0.35039,-1.42419 0,-1.24334 -0.75731,-2.01195 -0.746,-0.77991 -1.93282,-0.77991 z m -1.79719,9.81107 q -1.0851,0.92685 -1.44679,1.50331 -0.3504,0.57646 -0.3504,1.1077 0,0.45213 0.3504,0.87034 0.36169,0.42952 1.22073,0.70079 0.85903,0.27127 2.15889,0.27127 1.53721,0 2.63361,-0.33909 1.1077,-0.32779 1.58243,-0.84773 0.3504,-0.40691 0.3504,-0.96076 0,-0.47473 -0.29388,-0.80252 -0.28258,-0.32779 -1.0851,-0.57646 -0.79121,-0.23736 -1.4807,-0.35039 z"
         style="font-family:'Bookman Old Style';-inkscape-font-specification:'Bookman Old Style'"
         id="path7918" />
      <path
         d="m 281.29096,474.69372 v -0.97207 q 1.09639,-0.14694 1.70676,-0.33909 0.61037,-0.20345 1.27725,-0.61037 h 0.88164 v 7.47134 q 1.27725,-1.07379 2.41886,-1.57113 1.14161,-0.49733 2.18149,-0.49733 1.51461,0 2.49798,0.90424 0.97207,0.90425 0.97207,2.2041 v 5.54981 q 0,0.82513 0.12433,1.0851 0.13564,0.24867 0.44082,0.373 0.30518,0.11303 1.36767,0.11303 v 0.94946 h -5.83239 v -0.94946 h 0.42952 q 0.82513,0 1.0851,-0.12433 0.25997,-0.13564 0.373,-0.42952 0.12433,-0.30518 0.12433,-1.24334 v -3.85435 q 0,-1.27725 -0.0904,-1.66155 -0.16955,-0.65558 -0.70079,-1.05119 -0.53125,-0.3956 -1.35637,-0.3956 -0.92686,0 -1.94413,0.46342 -1.00598,0.45212 -2.09107,1.36767 v 5.66285 q 0,0.63297 0.11303,0.84773 0.11303,0.21475 0.373,0.31648 0.25997,0.10173 1.03988,0.10173 h 0.46343 v 0.94946 h -5.85499 v -0.94946 h 0.35039 q 0.82513,0 1.19813,-0.20346 0.20345,-0.10172 0.29388,-0.3956 0.0904,-0.29388 0.0904,-1.62765 v -11.48392 z"
         style="font-family:'Bookman Old Style';-inkscape-font-specification:'Bookman Old Style'"
         id="path7920" />
      <path
         d="m 299.5454,474.60329 h 0.80252 v 3.84305 h 3.35702 v 1.13031 h -3.35702 v 6.81575 q 0,0.87034 0.14694,1.24334 0.15825,0.373 0.51994,0.61037 0.37301,0.23736 0.82513,0.23736 1.07379,0 2.37364,-0.96076 v 1.0964 q -1.4807,1.00597 -2.99531,1.00597 -0.85903,0 -1.55983,-0.3843 -0.68948,-0.38431 -0.94945,-0.90425 -0.24867,-0.51994 -0.24867,-1.80849 v -6.95139 h -1.97804 v -0.94946 q 0.94946,-0.21476 1.52592,-0.66688 0.58776,-0.45213 0.94945,-1.17552 0.3617,-0.7234 0.58776,-2.1815 z"
         style="font-family:'Bookman Old Style';-inkscape-font-specification:'Bookman Old Style'"
         id="path7922" />
      <path
         d="m 315.74273,474.60329 h 0.80252 v 3.84305 h 3.35701 v 1.13031 h -3.35701 v 6.81575 q 0,0.87034 0.14694,1.24334 0.15824,0.373 0.51994,0.61037 0.373,0.23736 0.82513,0.23736 1.07379,0 2.37364,-0.96076 v 1.0964 q -1.4807,1.00597 -2.99531,1.00597 -0.85904,0 -1.55983,-0.3843 -0.68949,-0.38431 -0.94946,-0.90425 -0.24866,-0.51994 -0.24866,-1.80849 v -6.95139 h -1.97804 v -0.94946 q 0.94946,-0.21476 1.52591,-0.66688 0.58776,-0.45213 0.94946,-1.17552 0.3617,-0.7234 0.58776,-2.1815 z"
         style="font-family:'Bookman Old Style';-inkscape-font-specification:'Bookman Old Style'"
         id="path7924" />
      <path
         d="m 327.27187,478.17507 q 1.66155,0 2.87098,0.68948 1.22073,0.68949 1.92152,2.01195 0.70079,1.32246 0.70079,3.01792 0,1.69546 -0.72339,3.01792 -0.7121,1.32246 -1.95544,2.02325 -1.23203,0.68949 -2.9501,0.68949 -2.73534,0 -4.11432,-1.70676 -1.36767,-1.70677 -1.36767,-4.01259 0,-1.68416 0.71209,-2.98402 0.7121,-1.31115 1.98934,-2.02325 1.28855,-0.72339 2.9162,-0.72339 z m -0.0904,1.09639 q -1.28855,0 -2.18149,1.01728 -1.13031,1.26595 -1.13031,3.6848 0,2.32844 0.96076,3.54917 0.87034,1.0851 2.36235,1.0851 0.96076,0 1.70676,-0.50864 0.75731,-0.50864 1.22073,-1.61634 0.46343,-1.11901 0.46343,-2.62232 0,-1.4694 -0.49734,-2.63361 -0.3843,-0.92686 -1.16421,-1.43549 -0.76861,-0.51995 -1.74068,-0.51995 z"
         style="font-family:'Bookman Old Style';-inkscape-font-specification:'Bookman Old Style'"
         id="path7926" />
      <path
         d="m 350.05886,482.80933 v -1.23204 q 0,-1.25464 -0.70079,-1.78588 -0.70079,-0.54255 -1.97804,-0.54255 -0.63297,0 -1.1077,0.15824 -0.47473,0.14694 -0.76861,0.41821 -0.28258,0.25998 -0.41821,0.59907 -0.0565,0.12433 -0.27128,0.96076 -0.25997,1.01728 -1.05118,1.01728 -0.45213,0 -0.7347,-0.29388 -0.27128,-0.30519 -0.27128,-0.81383 0,-0.746 0.55385,-1.45809 0.55385,-0.7234 1.68416,-1.18683 1.14161,-0.47472 2.69013,-0.47472 1.4468,0 2.47538,0.45212 1.02858,0.44082 1.51461,1.27725 0.33909,0.57645 0.33909,2.10237 v 4.35168 q 0,0.92686 0.0565,1.20943 0.12433,0.48603 0.42951,0.7347 0.31649,0.23737 0.81383,0.23737 0.51994,0 1.24333,-0.24867 v 0.98337 q -0.93815,0.27127 -1.68415,0.27127 -0.80252,0 -1.35637,-0.22606 -0.54255,-0.22606 -0.89295,-0.65558 -0.35039,-0.44082 -0.45212,-1.03988 -1.35637,1.06249 -2.45277,1.492 -1.0964,0.42952 -2.2154,0.42952 -1.55982,0 -2.53189,-0.84773 -0.97206,-0.84773 -0.97206,-1.98934 0,-0.68949 0.35039,-1.31116 0.3617,-0.62167 1.0851,-1.0964 0.7347,-0.47473 2.29452,-0.83642 1.55983,-0.3617 4.32908,-0.65558 z m 0,0.98336 q -2.62231,0.38431 -3.24398,0.53125 -1.23204,0.28258 -1.76328,0.62167 -0.53125,0.33909 -0.75731,0.7347 -0.22606,0.3843 -0.22606,0.82512 0,0.44082 0.24867,0.85904 0.25997,0.40691 0.72339,0.64427 0.46343,0.23737 0.98337,0.23737 0.7347,0 1.66155,-0.3504 0.92686,-0.35039 2.37365,-1.36767 z"
         style="font-family:'Bookman Old Style';-inkscape-font-specification:'Bookman Old Style'"
         id="path7928" />
      <path
         d="m 21.455819,507.98669 v -0.92685 q 0.847731,0 1.503309,-0.21476 0.655578,-0.21476 1.435491,-0.746 h 0.892943 v 1.88761 q 1.412884,-1.119 2.35104,-1.50331 0.938155,-0.3843 1.87631,-0.3843 1.932826,0 3.289196,1.51461 1.367672,1.51461 1.367672,3.94477 0,2.69013 -1.548522,4.4082 -1.412884,1.58243 -3.63959,1.58243 -1.107702,0 -2.079766,-0.41821 -0.700791,-0.29388 -1.61634,-1.05119 v 3.71872 q 0,0.83642 0.04521,0.98336 0.05652,0.21476 0.226062,0.3617 0.169546,0.14694 0.429516,0.19215 0.192153,0.0339 1.288551,0.0339 v 0.94946 h -5.821084 v -0.94946 h 0.508638 q 0.779912,0 1.005974,-0.12433 0.237365,-0.11303 0.350395,-0.3617 0.06782,-0.19215 0.06782,-1.17552 v -11.72129 z m 3.831743,1.16422 v 3.88826 q 0,0.7686 0.09042,1.14161 0.135637,0.57645 0.519942,1.03988 0.395608,0.46343 1.062489,0.79121 0.678185,0.32779 1.412885,0.32779 1.4694,0 2.543192,-1.1077 1.085095,-1.1077 1.085095,-3.35701 0,-2.10237 -0.892943,-3.24398 -0.892943,-1.15292 -2.113675,-1.15292 -0.791216,0 -1.718068,0.41822 -0.926852,0.41821 -1.989341,1.25464 z"
         style="font-family:'Bookman Old Style';-inkscape-font-specification:'Bookman Old Style'"
         id="path7930" />
      <path
         d="m 44.050669,510.73334 v -1.23204 q 0,-1.25464 -0.700791,-1.78588 -0.700791,-0.54255 -1.978039,-0.54255 -0.632972,0 -1.107701,0.15824 -0.474729,0.14694 -0.768609,0.41822 -0.282577,0.25997 -0.418214,0.59906 -0.05651,0.12433 -0.271274,0.96076 -0.259971,1.01728 -1.051186,1.01728 -0.452123,0 -0.7347,-0.29388 -0.271274,-0.30519 -0.271274,-0.81382 0,-0.74601 0.553851,-1.4581 0.553851,-0.7234 1.684158,-1.18682 1.141611,-0.47473 2.690133,-0.47473 1.446793,0 2.475373,0.45212 1.02858,0.44082 1.514613,1.27725 0.339092,0.57645 0.339092,2.10237 v 4.35168 q 0,0.92686 0.05651,1.20943 0.124334,0.48604 0.429517,0.7347 0.316486,0.23737 0.813822,0.23737 0.519941,0 1.243338,-0.24867 v 0.98337 q -0.938155,0.27127 -1.684158,0.27127 -0.802519,0 -1.35637,-0.22606 -0.542547,-0.22606 -0.892943,-0.65558 -0.350395,-0.44082 -0.452123,-1.03988 -1.356369,1.06249 -2.452767,1.492 -1.096399,0.42952 -2.215403,0.42952 -1.559825,0 -2.531889,-0.84773 -0.972065,-0.84773 -0.972065,-1.98934 0,-0.68949 0.350395,-1.31116 0.361699,-0.62167 1.085096,-1.0964 0.7347,-0.47473 2.294524,-0.83642 1.559825,-0.3617 4.329079,-0.65558 z m 0,0.98337 q -2.622314,0.3843 -3.243983,0.53124 -1.232036,0.28258 -1.76328,0.62167 -0.531245,0.33909 -0.757306,0.7347 -0.226062,0.3843 -0.226062,0.82512 0,0.44082 0.248668,0.85904 0.25997,0.40691 0.723397,0.64427 0.463426,0.23737 0.983367,0.23737 0.7347,0 1.661553,-0.3504 0.926852,-0.35039 2.373646,-1.36767 z"
         style="font-family:'Bookman Old Style';-inkscape-font-specification:'Bookman Old Style'"
         id="path7932" />
      <path
         d="m 48.504082,506.37035 h 5.199415 v 0.94946 h -0.361699 q -0.666881,0 -0.88164,0.10173 -0.339092,0.15824 -0.339092,0.49733 0,0.31649 0.259971,1.01728 l 2.339737,6.18278 2.283221,-5.74196 -0.203455,-0.53125 q -0.350396,-0.91554 -0.813822,-1.26594 -0.305183,-0.22606 -0.904246,-0.25997 v -0.94946 h 5.176809 v 0.94946 h -0.44082 q -0.621669,0 -0.802518,0.10173 -0.316486,0.18085 -0.316486,0.57645 0,0.3391 0.237364,0.93816 l 2.339737,6.18278 2.283222,-6.27321 q 0.180849,-0.50863 0.192152,-0.57645 0.03391,-0.12434 0.03391,-0.25997 0,-0.31649 -0.248668,-0.49734 -0.248667,-0.19215 -0.915549,-0.19215 H 62.20341 v -0.94946 h 4.385594 v 0.94946 q -0.486032,0.0226 -0.791215,0.16955 -0.305183,0.14694 -0.486033,0.3843 -0.180849,0.23736 -0.508638,1.06249 l -3.300498,8.34167 h -1.35637 l -2.61101,-6.51057 -2.577102,6.51057 h -1.345066 l -3.334407,-8.34167 q -0.316487,-0.80252 -0.519942,-1.06249 -0.203455,-0.25997 -0.508638,-0.40691 -0.29388,-0.14694 -0.746003,-0.14694 z"
         style="font-family:'Bookman Old Style';-inkscape-font-specification:'Bookman Old Style'"
         id="path7934" />
      <path
         d="m 67.414129,507.99799 v -0.94945 q 1.005974,-0.11304 1.50331,-0.27128 0.497335,-0.15824 1.43549,-0.67818 h 0.813822 v 2.14758 q 1.492006,-1.25464 2.543192,-1.69546 1.062489,-0.45212 2.147585,-0.45212 0.926852,0 1.638946,0.31648 0.712093,0.30519 1.152913,0.83643 0.452123,0.53125 0.599063,1.20943 0.09042,0.41821 0.09042,1.26594 v 4.97336 q 0,0.89294 0.124334,1.15291 0.135637,0.24867 0.418214,0.3617 0.282577,0.11303 1.390278,0.11303 v 0.94946 h -5.821084 v -0.94946 h 0.316486 q 0.813821,0 1.107701,-0.14694 0.29388,-0.14694 0.418214,-0.42952 0.135637,-0.28257 0.135637,-1.15291 v -4.15953 q 0,-1.28855 -0.214758,-1.78589 -0.203456,-0.49733 -0.712094,-0.80252 -0.497335,-0.31648 -1.265945,-0.31648 -0.915549,0 -1.955432,0.47473 -1.039883,0.46342 -2.011948,1.37897 v 5.21072 q 0,0.88164 0.124334,1.17552 0.135637,0.29388 0.429517,0.44082 0.203456,0.11303 1.085096,0.11303 h 0.327789 v 0.94946 h -5.821085 v -0.94946 h 0.282577 q 0.836428,0 1.141611,-0.13564 0.305183,-0.14694 0.429517,-0.50863 0.06782,-0.18085 0.06782,-1.24334 v -6.44276 z"
         style="font-family:'Bookman Old Style';-inkscape-font-specification:'Bookman Old Style'"
         id="path7936" />
      <path
         d="m 84.346136,521.36953 -0.610366,-0.746 q 2.31713,-1.88761 2.31713,-3.15356 0,-0.14694 -0.02261,-0.3617 -0.192152,0.0791 -0.373001,0.12434 -0.180849,0.0452 -0.339093,0.0452 -0.542547,0 -0.870336,-0.3504 -0.32779,-0.35039 -0.32779,-0.89294 0,-0.53124 0.395608,-0.92685 0.395608,-0.39561 0.949458,-0.39561 0.76861,0 1.311157,0.62167 0.553851,0.61037 0.553851,1.58243 0,0.63297 -0.259971,1.32246 -0.25997,0.70079 -0.757306,1.28855 -0.497335,0.59906 -1.966735,1.8424 z"
         style="font-family:'Bookman Old Style';-inkscape-font-specification:'Bookman Old Style'"
         id="path7938" />
      <path
         d="m 105.61853,510.73334 v -1.23204 q 0,-1.25464 -0.70079,-1.78588 -0.70079,-0.54255 -1.97804,-0.54255 -0.63297,0 -1.1077,0.15824 -0.47473,0.14694 -0.76861,0.41822 -0.28258,0.25997 -0.41821,0.59906 -0.0565,0.12433 -0.27128,0.96076 -0.25997,1.01728 -1.051184,1.01728 -0.452123,0 -0.7347,-0.29388 -0.271274,-0.30519 -0.271274,-0.81382 0,-0.74601 0.553851,-1.4581 0.55385,-0.7234 1.684157,-1.18682 1.14161,-0.47473 2.69013,-0.47473 1.4468,0 2.47538,0.45212 1.02858,0.44082 1.51461,1.27725 0.33909,0.57645 0.33909,2.10237 v 4.35168 q 0,0.92686 0.0565,1.20943 0.12433,0.48604 0.42951,0.7347 0.31649,0.23737 0.81383,0.23737 0.51994,0 1.24333,-0.24867 v 0.98337 q -0.93815,0.27127 -1.68415,0.27127 -0.80252,0 -1.35637,-0.22606 -0.54255,-0.22606 -0.89295,-0.65558 -0.35039,-0.44082 -0.45212,-1.03988 -1.35637,1.06249 -2.45277,1.492 -1.0964,0.42952 -2.2154,0.42952 -1.559825,0 -2.53189,-0.84773 -0.972064,-0.84773 -0.972064,-1.98934 0,-0.68949 0.350395,-1.31116 0.361698,-0.62167 1.085095,-1.0964 0.7347,-0.47473 2.294524,-0.83642 1.55983,-0.3617 4.32908,-0.65558 z m 0,0.98337 q -2.62231,0.3843 -3.24398,0.53124 -1.23204,0.28258 -1.76328,0.62167 -0.53125,0.33909 -0.75731,0.7347 -0.226061,0.3843 -0.226061,0.82512 0,0.44082 0.248667,0.85904 0.259974,0.40691 0.723394,0.64427 0.46343,0.23737 0.98337,0.23737 0.7347,0 1.66155,-0.3504 0.92686,-0.35039 2.37365,-1.36767 z"
         style="font-family:'Bookman Old Style';-inkscape-font-specification:'Bookman Old Style'"
         id="path7940" />
      <path
         d="m 110.93098,507.99799 v -0.94945 q 1.00597,-0.11304 1.5033,-0.27128 0.49734,-0.15824 1.43549,-0.67818 h 0.81383 v 2.14758 q 1.492,-1.25464 2.54319,-1.69546 1.06249,-0.45212 2.14758,-0.45212 0.92686,0 1.63895,0.31648 0.71209,0.30519 1.15291,0.83643 0.45213,0.53125 0.59907,1.20943 0.0904,0.41821 0.0904,1.26594 v 4.97336 q 0,0.89294 0.12433,1.15291 0.13564,0.24867 0.41822,0.3617 0.28258,0.11303 1.39028,0.11303 v 0.94946 h -5.82109 v -0.94946 h 0.31649 q 0.81382,0 1.1077,-0.14694 0.29388,-0.14694 0.41821,-0.42952 0.13564,-0.28257 0.13564,-1.15291 v -4.15953 q 0,-1.28855 -0.21476,-1.78589 -0.20345,-0.49733 -0.71209,-0.80252 -0.49734,-0.31648 -1.26595,-0.31648 -0.91555,0 -1.95543,0.47473 -1.03988,0.46342 -2.01195,1.37897 v 5.21072 q 0,0.88164 0.12434,1.17552 0.13563,0.29388 0.42951,0.44082 0.20346,0.11303 1.0851,0.11303 h 0.32779 v 0.94946 h -5.82108 v -0.94946 h 0.28257 q 0.83643,0 1.14161,-0.13564 0.30519,-0.14694 0.42952,-0.50863 0.0678,-0.18085 0.0678,-1.24334 v -6.44276 z"
         style="font-family:'Bookman Old Style';-inkscape-font-specification:'Bookman Old Style'"
         id="path7942" />
      <path
         d="m 133.24325,502.60643 v -0.96077 q 0.76861,-0.0678 1.40158,-0.25997 0.64428,-0.20345 1.60504,-0.68948 h 0.84773 v 13.71063 q 0,0.94946 0.0452,1.15291 0.11303,0.42952 0.38431,0.59906 0.27127,0.16955 1.05118,0.16955 h 0.48603 v 0.94946 l -3.92216,0.18085 v -1.79719 q -1.13031,1.02858 -2.12498,1.4581 -0.98337,0.42951 -1.97804,0.42951 -2.04586,0 -3.40223,-1.63894 -1.34506,-1.65025 -1.34506,-3.96738 0,-1.65025 0.71209,-3.01792 0.7234,-1.37898 1.89892,-2.10238 1.17552,-0.72339 2.5771,-0.72339 1.07379,0 1.98934,0.373 0.91555,0.373 1.67286,1.119 v -4.98465 z m 1.89892,11.93604 v -4.27256 q 0,-0.91555 -0.3504,-1.492 -0.33909,-0.58776 -1.13031,-1.01728 -0.77991,-0.42952 -1.60503,-0.42952 -0.98337,0 -1.8198,0.54255 -0.82512,0.53124 -1.29985,1.54852 -0.46343,1.00597 -0.46343,2.44147 0,1.35636 0.42952,2.35104 0.44082,0.98336 1.17552,1.5033 0.7347,0.50864 1.50331,0.50864 0.7573,0 1.71807,-0.42951 0.96076,-0.44082 1.8424,-1.25465 z"
         style="font-family:'Bookman Old Style';-inkscape-font-specification:'Bookman Old Style'"
         id="path7944" />
      <path
         d="m 155.00167,502.60643 v -0.96077 q 0.7686,-0.0678 1.40158,-0.25997 0.64427,-0.20345 1.60503,-0.68948 h 0.84773 v 13.71063 q 0,0.94946 0.0452,1.15291 0.11303,0.42952 0.3843,0.59906 0.27127,0.16955 1.05119,0.16955 h 0.48603 v 0.94946 l -3.92217,0.18085 v -1.79719 q -1.13031,1.02858 -2.12498,1.4581 -0.98336,0.42951 -1.97803,0.42951 -2.04586,0 -3.40223,-1.63894 -1.34507,-1.65025 -1.34507,-3.96738 0,-1.65025 0.7121,-3.01792 0.72339,-1.37898 1.89891,-2.10238 1.17552,-0.72339 2.57711,-0.72339 1.07379,0 1.98934,0.373 0.91555,0.373 1.67285,1.119 v -4.98465 z m 1.89891,11.93604 v -4.27256 q 0,-0.91555 -0.35039,-1.492 -0.3391,-0.58776 -1.13031,-1.01728 -0.77991,-0.42952 -1.60504,-0.42952 -0.98337,0 -1.81979,0.54255 -0.82513,0.53124 -1.29986,1.54852 -0.46342,1.00597 -0.46342,2.44147 0,1.35636 0.42951,2.35104 0.44082,0.98336 1.17552,1.5033 0.7347,0.50864 1.50331,0.50864 0.75731,0 1.71807,-0.42951 0.96076,-0.44082 1.8424,-1.25465 z"
         style="font-family:'Bookman Old Style';-inkscape-font-specification:'Bookman Old Style'"
         id="path7946" />
      <path
         d="m 165.10662,501.00139 q 0.54255,0 0.92685,0.3843 0.38431,0.37301 0.38431,0.91555 0,0.54255 -0.38431,0.92686 -0.3843,0.3843 -0.92685,0.3843 -0.54255,0 -0.92685,-0.3843 -0.38431,-0.38431 -0.38431,-0.92686 0,-0.54254 0.38431,-0.91555 0.3843,-0.3843 0.92685,-0.3843 z m -2.88228,6.9966 v -0.93815 q 0.93815,-0.11303 1.57112,-0.31649 0.64428,-0.20345 1.4581,-0.64427 h 0.82512 v 9.06506 q 0,0.47473 0.13564,0.7121 0.13564,0.23736 0.373,0.35039 0.24867,0.10173 0.89295,0.10173 h 0.53124 v 0.94946 h -5.78717 v -0.94946 h 0.46342 q 0.75731,0 1.01728,-0.13564 0.25997,-0.13563 0.3617,-0.3843 0.11303,-0.24867 0.11303,-1.16422 v -6.64621 z"
         style="font-family:'Bookman Old Style';-inkscape-font-specification:'Bookman Old Style'"
         id="path7948" />
      <path
         d="m 176.90704,506.37035 h 0.79121 l 1.01728,3.45874 -1.01728,0.33909 q -0.61036,-1.39027 -1.71807,-2.18149 -1.09639,-0.80252 -2.2267,-0.80252 -0.87034,0 -1.41289,0.42952 -0.54254,0.41821 -0.54254,0.97206 0,0.51995 0.3956,0.89295 0.38431,0.3843 1.72937,0.87033 l 2.2041,0.77992 q 1.86501,0.66688 2.5432,1.42418 0.66688,0.76861 0.66688,1.74068 0,0.82512 -0.49734,1.59373 -0.49733,0.75731 -1.44679,1.20943 -0.93816,0.45212 -2.15889,0.45212 -1.89892,0 -3.25528,-1.08509 l -0.23737,0.81382 h -0.80252 l -1.41288,-3.69611 1.02858,-0.40691 q 1.02858,1.62765 1.94413,2.30583 1.27724,0.96076 2.75795,0.96076 0.98337,0 1.61634,-0.51994 0.63297,-0.53124 0.63297,-1.17552 0,-0.53124 -0.39561,-0.97206 -0.40691,-0.42952 -1.55982,-0.83643 l -2.61101,-0.94946 q -1.68416,-0.61037 -2.33974,-1.33376 -0.65558,-0.7234 -0.65558,-1.66156 0,-1.14161 1.06249,-2.01194 1.07379,-0.88164 2.72404,-0.88164 0.85904,0 1.53722,0.22606 0.67819,0.21476 1.33376,0.7234 z"
         style="font-family:'Bookman Old Style';-inkscape-font-specification:'Bookman Old Style'"
         id="path7950" />
      <path
         d="m 191.28454,514.12426 0.7234,0.58776 q -2.12498,2.83707 -5.09769,2.83707 -2.31713,0 -3.91087,-1.65025 -1.59373,-1.65025 -1.59373,-4.10301 0,-1.63895 0.7347,-2.9388 0.746,-1.31116 2.05716,-2.03456 1.32246,-0.72339 3.02922,-0.72339 1.94413,0 3.24399,0.96076 1.29985,0.94946 1.29985,1.92152 0,0.51994 -0.30518,0.80252 -0.30518,0.28258 -0.68949,0.28258 -0.20345,0 -0.39561,-0.10173 -0.19215,-0.10173 -0.3956,-0.32779 -0.0904,-0.10173 -0.32779,-0.63297 -0.30519,-0.65558 -0.47473,-0.88164 -0.3504,-0.45213 -0.87034,-0.7121 -0.50864,-0.25997 -1.14161,-0.25997 -0.96076,0 -1.78589,0.53125 -0.81382,0.53124 -1.29985,1.57113 -0.47473,1.02858 -0.47473,2.46407 0,2.2267 1.18682,3.53786 1.02858,1.13031 2.45277,1.13031 0.65558,0 1.32246,-0.21476 0.67819,-0.22606 1.27725,-0.65558 0.44082,-0.30518 1.43549,-1.39028 z"
         style="font-family:'Bookman Old Style';-inkscape-font-specification:'Bookman Old Style'"
         id="path7952" />
      <path
         d="m 201.45731,510.73334 v -1.23204 q 0,-1.25464 -0.70079,-1.78588 -0.70079,-0.54255 -1.97804,-0.54255 -0.63297,0 -1.1077,0.15824 -0.47473,0.14694 -0.76861,0.41822 -0.28257,0.25997 -0.41821,0.59906 -0.0565,0.12433 -0.27128,0.96076 -0.25997,1.01728 -1.05118,1.01728 -0.45212,0 -0.7347,-0.29388 -0.27127,-0.30519 -0.27127,-0.81382 0,-0.74601 0.55385,-1.4581 0.55385,-0.7234 1.68415,-1.18682 1.14161,-0.47473 2.69014,-0.47473 1.44679,0 2.47537,0.45212 1.02858,0.44082 1.51461,1.27725 0.33909,0.57645 0.33909,2.10237 v 4.35168 q 0,0.92686 0.0565,1.20943 0.12433,0.48604 0.42952,0.7347 0.31648,0.23737 0.81382,0.23737 0.51994,0 1.24334,-0.24867 v 0.98337 q -0.93816,0.27127 -1.68416,0.27127 -0.80252,0 -1.35637,-0.22606 -0.54255,-0.22606 -0.89294,-0.65558 -0.3504,-0.44082 -0.45213,-1.03988 -1.35637,1.06249 -2.45276,1.492 -1.0964,0.42952 -2.21541,0.42952 -1.55982,0 -2.53189,-0.84773 -0.97206,-0.84773 -0.97206,-1.98934 0,-0.68949 0.35039,-1.31116 0.3617,-0.62167 1.0851,-1.0964 0.7347,-0.47473 2.29452,-0.83642 1.55983,-0.3617 4.32908,-0.65558 z m 0,0.98337 q -2.62231,0.3843 -3.24398,0.53124 -1.23204,0.28258 -1.76328,0.62167 -0.53125,0.33909 -0.75731,0.7347 -0.22606,0.3843 -0.22606,0.82512 0,0.44082 0.24867,0.85904 0.25997,0.40691 0.7234,0.64427 0.46342,0.23737 0.98336,0.23737 0.7347,0 1.66156,-0.3504 0.92685,-0.35039 2.37364,-1.36767 z"
         style="font-family:'Bookman Old Style';-inkscape-font-specification:'Bookman Old Style'"
         id="path7954" />
      <path
         d="m 206.73585,507.98669 v -0.92685 q 0.82512,-0.0678 1.4694,-0.27128 0.64427,-0.21475 1.4694,-0.68948 h 0.84773 v 2.13628 q 0.80252,-0.98337 1.86501,-1.55983 1.06249,-0.57645 1.91022,-0.57645 0.83642,0 1.32246,0.3956 0.48603,0.39561 0.48603,0.96077 0,0.40691 -0.32779,0.72339 -0.31649,0.30519 -0.76861,0.30519 -0.20345,0 -0.35039,-0.0565 -0.14694,-0.0565 -0.42952,-0.24867 -0.62167,-0.40691 -1.03988,-0.40691 -0.56516,0 -1.24334,0.47473 -0.85904,0.61037 -1.34507,1.19813 v 5.21072 q 0,0.67818 0.0678,0.92685 0.0791,0.23736 0.24867,0.41821 0.16954,0.16955 0.41821,0.24867 0.24867,0.0791 0.87034,0.0791 h 0.373 v 0.94946 h -5.84369 v -0.94946 h 0.48603 q 0.68949,0 0.90425,-0.12433 0.29388,-0.16955 0.42951,-0.46343 0.14694,-0.30518 0.14694,-1.08509 v -6.66882 z"
         style="font-family:'Bookman Old Style';-inkscape-font-specification:'Bookman Old Style'"
         id="path7956" />
      <path
         d="m 223.98434,502.60643 v -0.96077 q 0.76861,-0.0678 1.40158,-0.25997 0.64428,-0.20345 1.60504,-0.68948 h 0.84773 v 13.71063 q 0,0.94946 0.0452,1.15291 0.11303,0.42952 0.3843,0.59906 0.27128,0.16955 1.05119,0.16955 h 0.48603 v 0.94946 l -3.92216,0.18085 v -1.79719 q -1.13031,1.02858 -2.12498,1.4581 -0.98337,0.42951 -1.97804,0.42951 -2.04586,0 -3.40223,-1.63894 -1.34506,-1.65025 -1.34506,-3.96738 0,-1.65025 0.71209,-3.01792 0.7234,-1.37898 1.89892,-2.10238 1.17552,-0.72339 2.5771,-0.72339 1.07379,0 1.98934,0.373 0.91555,0.373 1.67286,1.119 v -4.98465 z m 1.89892,11.93604 v -4.27256 q 0,-0.91555 -0.3504,-1.492 -0.33909,-0.58776 -1.13031,-1.01728 -0.77991,-0.42952 -1.60503,-0.42952 -0.98337,0 -1.8198,0.54255 -0.82512,0.53124 -1.29985,1.54852 -0.46343,1.00597 -0.46343,2.44147 0,1.35636 0.42952,2.35104 0.44082,0.98336 1.17552,1.5033 0.7347,0.50864 1.50331,0.50864 0.7573,0 1.71806,-0.42951 0.96077,-0.44082 1.84241,-1.25465 z"
         style="font-family:'Bookman Old Style';-inkscape-font-specification:'Bookman Old Style'"
         id="path7958" />
      <path
         d="m 241.67365,502.5273 h 0.80252 v 3.84305 h 3.35702 v 1.13031 h -3.35702 v 6.81575 q 0,0.87034 0.14694,1.24334 0.15825,0.373 0.51994,0.61037 0.37301,0.23736 0.82513,0.23736 1.07379,0 2.37364,-0.96076 v 1.0964 q -1.4807,1.00597 -2.99531,1.00597 -0.85903,0 -1.55983,-0.3843 -0.68948,-0.38431 -0.94945,-0.90425 -0.24867,-0.51994 -0.24867,-1.80849 v -6.95139 h -1.97804 v -0.94946 q 0.94946,-0.21476 1.52592,-0.66688 0.58776,-0.45212 0.94945,-1.17552 0.3617,-0.7234 0.58776,-2.1815 z"
         style="font-family:'Bookman Old Style';-inkscape-font-specification:'Bookman Old Style'"
         id="path7960" />
      <path
         d="m 247.49474,502.61773 v -0.97207 q 1.0964,-0.14694 1.70676,-0.33909 0.61037,-0.20345 1.27725,-0.61036 h 0.88164 v 7.47133 q 1.27725,-1.07379 2.41886,-1.57113 1.14161,-0.49733 2.18149,-0.49733 1.51461,0 2.49798,0.90424 0.97207,0.90425 0.97207,2.2041 v 5.54981 q 0,0.82513 0.12433,1.0851 0.13564,0.24867 0.44082,0.373 0.30518,0.11303 1.36767,0.11303 v 0.94946 h -5.83238 v -0.94946 h 0.42951 q 0.82513,0 1.0851,-0.12433 0.25997,-0.13564 0.373,-0.42952 0.12433,-0.30518 0.12433,-1.24334 v -3.85435 q 0,-1.27724 -0.0904,-1.66155 -0.16955,-0.65558 -0.70079,-1.05119 -0.53125,-0.3956 -1.35637,-0.3956 -0.92685,0 -1.94413,0.46342 -1.00597,0.45213 -2.09107,1.36768 v 5.66284 q 0,0.63297 0.11303,0.84773 0.11303,0.21476 0.373,0.31648 0.25997,0.10173 1.03989,0.10173 h 0.46342 v 0.94946 h -5.85499 v -0.94946 h 0.35039 q 0.82513,0 1.19813,-0.20345 0.20345,-0.10173 0.29388,-0.39561 0.0904,-0.29388 0.0904,-1.62765 v -11.48392 z"
         style="font-family:'Bookman Old Style';-inkscape-font-specification:'Bookman Old Style'"
         id="path7962" />
      <path
         d="m 265.56837,501.00139 q 0.54254,0 0.92685,0.3843 0.3843,0.37301 0.3843,0.91555 0,0.54255 -0.3843,0.92686 -0.38431,0.3843 -0.92685,0.3843 -0.54255,0 -0.92686,-0.3843 -0.3843,-0.38431 -0.3843,-0.92686 0,-0.54254 0.3843,-0.91555 0.38431,-0.3843 0.92686,-0.3843 z m -2.88229,6.9966 v -0.93815 q 0.93816,-0.11303 1.57113,-0.31649 0.64427,-0.20345 1.4581,-0.64427 h 0.82512 v 9.06506 q 0,0.47473 0.13564,0.7121 0.13563,0.23736 0.373,0.35039 0.24867,0.10173 0.89294,0.10173 h 0.53125 v 0.94946 h -5.78718 v -0.94946 h 0.46343 q 0.7573,0 1.01727,-0.13564 0.25998,-0.13563 0.3617,-0.3843 0.11303,-0.24867 0.11303,-1.16422 v -6.64621 z"
         style="font-family:'Bookman Old Style';-inkscape-font-specification:'Bookman Old Style'"
         id="path7964" />
      <path
         d="m 277.36877,506.37035 h 0.79121 l 1.01728,3.45874 -1.01728,0.33909 q -0.61036,-1.39027 -1.71806,-2.18149 -1.0964,-0.80252 -2.22671,-0.80252 -0.87034,0 -1.41288,0.42952 -0.54255,0.41821 -0.54255,0.97206 0,0.51995 0.39561,0.89295 0.3843,0.3843 1.72937,0.87033 l 2.2041,0.77992 q 1.865,0.66688 2.54319,1.42418 0.66688,0.76861 0.66688,1.74068 0,0.82512 -0.49734,1.59373 -0.49733,0.75731 -1.44679,1.20943 -0.93816,0.45212 -2.15889,0.45212 -1.89891,0 -3.25528,-1.08509 l -0.23737,0.81382 h -0.80252 l -1.41288,-3.69611 1.02858,-0.40691 q 1.02858,1.62765 1.94413,2.30583 1.27725,0.96076 2.75795,0.96076 0.98337,0 1.61634,-0.51994 0.63297,-0.53124 0.63297,-1.17552 0,-0.53124 -0.39561,-0.97206 -0.40691,-0.42952 -1.55982,-0.83643 l -2.61101,-0.94946 q -1.68416,-0.61037 -2.33974,-1.33376 -0.65558,-0.7234 -0.65558,-1.66156 0,-1.14161 1.06249,-2.01194 1.07379,-0.88164 2.72404,-0.88164 0.85904,0 1.53722,0.22606 0.67819,0.21476 1.33376,0.7234 z"
         style="font-family:'Bookman Old Style';-inkscape-font-specification:'Bookman Old Style'"
         id="path7966" />
      <path
         d="m 299.14979,514.12426 0.7234,0.58776 q -2.12498,2.83707 -5.09769,2.83707 -2.31713,0 -3.91087,-1.65025 -1.59373,-1.65025 -1.59373,-4.10301 0,-1.63895 0.7347,-2.9388 0.746,-1.31116 2.05716,-2.03456 1.32246,-0.72339 3.02922,-0.72339 1.94413,0 3.24399,0.96076 1.29985,0.94946 1.29985,1.92152 0,0.51994 -0.30518,0.80252 -0.30518,0.28258 -0.68949,0.28258 -0.20345,0 -0.39561,-0.10173 -0.19215,-0.10173 -0.3956,-0.32779 -0.0904,-0.10173 -0.32779,-0.63297 -0.30519,-0.65558 -0.47473,-0.88164 -0.3504,-0.45213 -0.87034,-0.7121 -0.50864,-0.25997 -1.14161,-0.25997 -0.96076,0 -1.78589,0.53125 -0.81382,0.53124 -1.29985,1.57113 -0.47473,1.02858 -0.47473,2.46407 0,2.2267 1.18682,3.53786 1.02858,1.13031 2.45277,1.13031 0.65558,0 1.32246,-0.21476 0.67819,-0.22606 1.27725,-0.65558 0.44082,-0.30518 1.43549,-1.39028 z"
         style="font-family:'Bookman Old Style';-inkscape-font-specification:'Bookman Old Style'"
         id="path7968" />
      <path
         d="m 309.32256,510.73334 v -1.23204 q 0,-1.25464 -0.70079,-1.78588 -0.70079,-0.54255 -1.97804,-0.54255 -0.63297,0 -1.1077,0.15824 -0.47473,0.14694 -0.76861,0.41822 -0.28257,0.25997 -0.41821,0.59906 -0.0565,0.12433 -0.27128,0.96076 -0.25997,1.01728 -1.05118,1.01728 -0.45212,0 -0.7347,-0.29388 -0.27128,-0.30519 -0.27128,-0.81382 0,-0.74601 0.55386,-1.4581 0.55385,-0.7234 1.68415,-1.18682 1.14161,-0.47473 2.69014,-0.47473 1.44679,0 2.47537,0.45212 1.02858,0.44082 1.51461,1.27725 0.33909,0.57645 0.33909,2.10237 v 4.35168 q 0,0.92686 0.0565,1.20943 0.12433,0.48604 0.42952,0.7347 0.31648,0.23737 0.81382,0.23737 0.51994,0 1.24334,-0.24867 v 0.98337 q -0.93816,0.27127 -1.68416,0.27127 -0.80252,0 -1.35637,-0.22606 -0.54255,-0.22606 -0.89294,-0.65558 -0.3504,-0.44082 -0.45213,-1.03988 -1.35637,1.06249 -2.45276,1.492 -1.0964,0.42952 -2.21541,0.42952 -1.55982,0 -2.53189,-0.84773 -0.97206,-0.84773 -0.97206,-1.98934 0,-0.68949 0.35039,-1.31116 0.3617,-0.62167 1.0851,-1.0964 0.7347,-0.47473 2.29452,-0.83642 1.55983,-0.3617 4.32908,-0.65558 z m 0,0.98337 q -2.62231,0.3843 -3.24398,0.53124 -1.23204,0.28258 -1.76328,0.62167 -0.53125,0.33909 -0.75731,0.7347 -0.22606,0.3843 -0.22606,0.82512 0,0.44082 0.24867,0.85904 0.25997,0.40691 0.7234,0.64427 0.46342,0.23737 0.98336,0.23737 0.7347,0 1.66156,-0.3504 0.92685,-0.35039 2.37364,-1.36767 z"
         style="font-family:'Bookman Old Style';-inkscape-font-specification:'Bookman Old Style'"
         id="path7970" />
      <path
         d="m 314.60111,507.98669 v -0.92685 q 0.82513,-0.0678 1.4694,-0.27128 0.64428,-0.21475 1.4694,-0.68948 h 0.84773 v 2.13628 q 0.80252,-0.98337 1.86501,-1.55983 1.06249,-0.57645 1.91022,-0.57645 0.83643,0 1.32246,0.3956 0.48603,0.39561 0.48603,0.96077 0,0.40691 -0.32778,0.72339 -0.31649,0.30519 -0.76861,0.30519 -0.20346,0 -0.3504,-0.0565 -0.14694,-0.0565 -0.42952,-0.24867 -0.62167,-0.40691 -1.03988,-0.40691 -0.56515,0 -1.24334,0.47473 -0.85903,0.61037 -1.34506,1.19813 v 5.21072 q 0,0.67818 0.0678,0.92685 0.0791,0.23736 0.24867,0.41821 0.16955,0.16955 0.41822,0.24867 0.24866,0.0791 0.87033,0.0791 h 0.373 v 0.94946 h -5.84369 v -0.94946 h 0.48604 q 0.68948,0 0.90424,-0.12433 0.29388,-0.16955 0.42952,-0.46343 0.14694,-0.30518 0.14694,-1.08509 v -6.66882 z"
         style="font-family:'Bookman Old Style';-inkscape-font-specification:'Bookman Old Style'"
         id="path7972" />
      <path
         d="m 331.84962,502.60643 v -0.96077 q 0.76861,-0.0678 1.40158,-0.25997 0.64428,-0.20345 1.60504,-0.68948 h 0.84773 v 13.71063 q 0,0.94946 0.0452,1.15291 0.11303,0.42952 0.3843,0.59906 0.27128,0.16955 1.05119,0.16955 h 0.48603 v 0.94946 l -3.92216,0.18085 v -1.79719 q -1.13031,1.02858 -2.12498,1.4581 -0.98337,0.42951 -1.97804,0.42951 -2.04586,0 -3.40223,-1.63894 -1.34506,-1.65025 -1.34506,-3.96738 0,-1.65025 0.71209,-3.01792 0.7234,-1.37898 1.89892,-2.10238 1.17552,-0.72339 2.5771,-0.72339 1.07379,0 1.98934,0.373 0.91555,0.373 1.67286,1.119 v -4.98465 z m 1.89892,11.93604 v -4.27256 q 0,-0.91555 -0.3504,-1.492 -0.33909,-0.58776 -1.13031,-1.01728 -0.77991,-0.42952 -1.60503,-0.42952 -0.98337,0 -1.8198,0.54255 -0.82512,0.53124 -1.29985,1.54852 -0.46343,1.00597 -0.46343,2.44147 0,1.35636 0.42952,2.35104 0.44082,0.98336 1.17552,1.5033 0.7347,0.50864 1.50331,0.50864 0.7573,0 1.71806,-0.42951 0.96077,-0.44082 1.84241,-1.25465 z"
         style="font-family:'Bookman Old Style';-inkscape-font-specification:'Bookman Old Style'"
         id="path7974" />
      <path
         d="m 342.02237,514.6442 q 0.59906,0 1.00597,0.41822 0.41822,0.40691 0.41822,0.99467 0,0.58776 -0.41822,1.00597 -0.41821,0.40691 -1.00597,0.40691 -0.57646,0 -0.99467,-0.40691 -0.41822,-0.41821 -0.41822,-1.00597 0,-0.58776 0.40692,-0.99467 0.41821,-0.41822 1.00597,-0.41822 z"
         style="font-family:'Bookman Old Style';-inkscape-font-specification:'Bookman Old Style'"
         id="path7976" />
    </g>
    <g
       id="g32582"
       clip-path="url(#clipPath32587)">
      <g
         id="rect19789">
        <path
           style="color:#000000;fill:#666666;stroke-width:1.00791;stroke-linejoin:round;-inkscape-stroke:none;paint-order:markers fill stroke"
           d="M 0.76516294,26.813244 H 105.59058 V 113.52617 H 0.76516294 Z"
           id="path8182" />
        <path
           style="color:#000000;fill:#ff6200;stroke-linejoin:round;-inkscape-stroke:none;paint-order:markers fill stroke"
           d="M 0.765625,26.308594 A 0.5040054,0.5040054 0 0 0 0.26171875,26.8125 v 86.71289 A 0.5040054,0.5040054 0 0 0 0.765625,114.0293 H 105.58984 a 0.5040054,0.5040054 0 0 0 0.50391,-0.50391 V 26.8125 a 0.5040054,0.5040054 0 0 0 -0.50391,-0.503906 z m 0.5039062,1.007812 H 105.08594 V 113.02148 H 1.2695312 Z"
           id="path8184" />
      </g>
      <g
         id="g32242"
         transform="matrix(0.92817729,-0.51053493,0.51309436,0.92354733,-24.577472,29.034286)">
        <g
           id="g32223"
           transform="matrix(0.58367251,0,0,0.58367251,2.7997551,19.41958)">
          <path
             id="rect32229"
             style="fill:#ffffff;stroke-width:0.5;stroke-linejoin:round;paint-order:markers fill stroke"
             d="M 11.884933,44.013439 H 68.82814 V 84.161354 H 11.884933 Z" />
          <g
             id="rect32020">
            <path
               style="color:#000000;fill:url(#pattern32227);stroke-width:0.5;stroke-linejoin:round;-inkscape-stroke:none;paint-order:markers fill stroke"
               d="M 11.75433,44.274647 H 68.82814 V 84.161354 H 11.75433 Z"
               id="path8190" />
            <path
               style="color:#000000;fill:#000000;stroke-linejoin:round;-inkscape-stroke:none;paint-order:markers fill stroke"
               d="m 11.753906,44.025391 a 0.250025,0.250025 0 0 0 -0.25,0.25 v 39.886718 a 0.250025,0.250025 0 0 0 0.25,0.25 h 57.074219 a 0.250025,0.250025 0 0 0 0.25,-0.25 V 44.275391 a 0.250025,0.250025 0 0 0 -0.25,-0.25 z m 0.25,0.5 H 68.578125 V 83.912109 H 12.003906 Z"
               id="path8192" />
          </g>
        </g>
        <path
           id="rect32236"
           style="stroke-width:0.477529;stroke-linejoin:round;paint-order:markers fill stroke"
           d="m 43.337437,43.220154 c 0.409298,0 0.738804,0.329506 0.738804,0.738804 v 51.254657 c 0,0.409298 -0.329506,0.738804 -0.738804,0.738804 -0.409298,0 -0.738804,-0.329506 -0.738804,-0.738804 V 43.958958 c 0,-0.409298 0.329506,-0.738804 0.738804,-0.738804 z" />
      </g>
      <g
         id="g32252"
         transform="matrix(-0.91436843,-0.53463649,-0.53731674,0.90980736,131.17287,31.865049)">
        <path
           id="rect32244"
           style="fill:#ff0000;stroke-width:0.291836;stroke-linejoin:round;paint-order:markers fill stroke"
           d="M 9.7366638,45.109016 H 42.972847 V 68.542252 H 9.7366638 Z" />
        <path
           id="rect32250"
           style="stroke-width:0.477529;stroke-linejoin:round;paint-order:markers fill stroke"
           d="m 43.337437,43.220154 c 0.409298,0 0.738804,0.329506 0.738804,0.738804 v 51.254657 c 0,0.409298 -0.329506,0.738804 -0.738804,0.738804 -0.409298,0 -0.738804,-0.329506 -0.738804,-0.738804 V 43.958958 c 0,-0.409298 0.329506,-0.738804 0.738804,-0.738804 z" />
      </g>
      <g
         id="path32430"
         clip-path="url(#clipPath32566)"
         inkscape:transform-center-x="0.70900872"
         inkscape:transform-center-y="-38.827179"
         transform="matrix(-1.4598176,-0.15017309,-0.16428283,1.3344384,139.92952,-26.156288)">
        <path
           style="color:#000000;fill:#ffffff;stroke-width:0.264583;stroke-linejoin:round;-inkscape-stroke:none;paint-order:markers fill stroke"
           d="m 48.40717,24.699747 c -0.246005,2.64e-4 -0.492274,2.64e-4 -0.738807,0 -9.710933,32.347666 -10.677902,60.97085 -5.171641,93.274243 l 6.095148,-0.1847 C 46.428551,86.925028 46.366298,60.411665 52.1012,24.884448 Z"
           id="path8202" />
        <path
           style="color:#000000;fill:#000000;stroke-linejoin:round;-inkscape-stroke:none;paint-order:markers fill stroke"
           d="m 47.667969,24.568359 a 0.13230472,0.13230472 0 0 0 -0.126953,0.09375 C 37.824608,57.02801 36.858326,85.677444 42.367187,117.99609 A 0.13230472,0.13230472 0 0 0 42.5,118.10547 l 6.095703,-0.18359 a 0.13230472,0.13230472 0 0 0 0.128906,-0.14258 C 46.56165,86.92016 46.4992,60.42306 52.232422,24.90625 a 0.13230472,0.13230472 0 0 0 -0.125,-0.154297 l -3.69336,-0.183594 a 0.13230472,0.13230472 0 0 0 -0.0078,0 c -0.24591,2.64e-4 -0.491843,2.64e-4 -0.738281,0 z m 0.101562,0.263672 c 0.210125,1.64e-4 0.421118,2.21e-4 0.63086,0 l 3.550781,0.175781 c -5.702907,35.406075 -5.650785,61.888116 -3.5,92.652348 l -5.839844,0.17773 C 37.134868,85.628373 38.102171,57.084171 47.769531,24.832031 Z"
           id="path8204" />
      </g>
      <g
         id="path32432">
        <path
           style="color:#000000;fill:#ffffff;stroke-width:0.349154;stroke-linejoin:round;-inkscape-stroke:none;paint-order:markers fill stroke"
           d="m 42.533013,23.435986 c -0.242979,2.63e-4 -0.486219,2.63e-4 -0.729719,0 -9.591483,32.318344 -10.546557,60.915582 -5.108027,93.189704 l 6.020173,-0.18454 C 40.578731,85.604862 40.517244,59.115532 46.181603,23.620519 Z"
           id="path8208" />
        <path
           style="color:#000000;fill:#000000;stroke-linejoin:round;-inkscape-stroke:none;paint-order:markers fill stroke"
           d="m 41.802734,23.261719 a 0.17459446,0.17459446 0 0 0 -0.166015,0.125 c -9.598566,32.34221 -10.55517,60.973523 -5.113282,93.267581 a 0.17459446,0.17459446 0 0 0 0.177735,0.14648 l 6.019531,-0.18555 a 0.17459446,0.17459446 0 0 0 0.167969,-0.18554 C 40.752426,85.600078 40.691323,59.129873 46.353516,23.648437 a 0.17459446,0.17459446 0 0 0 -0.164063,-0.203125 l -3.648437,-0.183593 a 0.17459446,0.17459446 0 0 0 -0.0078,0 c -0.242853,2.63e-4 -0.487094,2.63e-4 -0.730469,0 z m 0.720703,0.347656 3.460938,0.175781 c -5.62272,35.336032 -5.5737,61.782766 -3.453125,92.488284 l -5.685547,0.17383 C 31.446267,84.297647 32.403227,55.802976 41.9375,23.611328 c 0.1986,1.36e-4 0.397449,2.15e-4 0.595703,0 z"
           id="path8210" />
      </g>
      <g
         id="path32436"
         clip-path="url(#clipPath32507)"
         transform="matrix(-1.4950325,0.11942,0.13836929,1.290292,118.81541,-35.277068)">
        <path
           style="color:#000000;fill:#fefefe;stroke-width:0.264583;stroke-linejoin:round;-inkscape-stroke:none;paint-order:markers fill stroke"
           d="m 48.40717,24.699747 c -0.246005,2.64e-4 -0.492274,2.64e-4 -0.738807,0 -9.710933,32.347666 -10.677902,60.97085 -5.171641,93.274243 l 6.095148,-0.1847 C 46.428551,86.925028 46.366298,60.411665 52.1012,24.884448 Z"
           id="path8214" />
        <path
           style="color:#000000;fill:#000000;stroke-linejoin:round;-inkscape-stroke:none;paint-order:markers fill stroke"
           d="m 47.667969,24.568359 a 0.13230472,0.13230472 0 0 0 -0.126953,0.09375 C 37.824608,57.02801 36.858326,85.677444 42.367187,117.99609 A 0.13230472,0.13230472 0 0 0 42.5,118.10547 l 6.095703,-0.18359 a 0.13230472,0.13230472 0 0 0 0.128906,-0.14258 C 46.56165,86.92016 46.4992,60.42306 52.232422,24.90625 a 0.13230472,0.13230472 0 0 0 -0.125,-0.154297 l -3.69336,-0.183594 a 0.13230472,0.13230472 0 0 0 -0.0078,0 c -0.24591,2.64e-4 -0.491843,2.64e-4 -0.738281,0 z m 0.101562,0.263672 c 0.210125,1.64e-4 0.421118,2.21e-4 0.63086,0 l 3.550781,0.175781 c -5.702907,35.406075 -5.650785,61.888116 -3.5,92.652348 l -5.839844,0.17773 C 37.134868,85.628373 38.102171,57.084171 47.769531,24.832031 Z"
           id="path8216" />
      </g>
    </g>
    <path
       style="color:#000000;fill:#331f14;-inkscape-stroke:none"
       d="m 4.2011719,31.212891 v 0.5 80.996089 H 101.63086 V 31.212891 Z m 1,1 H 100.63086 V 111.70898 H 5.2011719 Z"
       id="rect32617" />
  </g>
</svg>
