<?xml version="1.0" encoding="UTF-8" standalone="no"?>
<!-- Created with Inkscape (http://www.inkscape.org/) -->

<svg
   width="400.00006"
   height="600"
   viewBox="0 0 105.83335 158.75"
   version="1.1"
   id="svg5"
   inkscape:export-filename="CardTemplate.svg"
   inkscape:export-xdpi="26.281288"
   inkscape:export-ydpi="26.281288"
   sodipodi:docname="RainingMenCard.svg"
   inkscape:version="1.2.2 (732a01da63, 2022-12-09)"
   xml:space="preserve"
   xmlns:inkscape="http://www.inkscape.org/namespaces/inkscape"
   xmlns:sodipodi="http://sodipodi.sourceforge.net/DTD/sodipodi-0.dtd"
   xmlns="http://www.w3.org/2000/svg"
   xmlns:svg="http://www.w3.org/2000/svg"><sodipodi:namedview
     id="namedview7"
     pagecolor="#505050"
     bordercolor="#ffffff"
     borderopacity="1"
     inkscape:showpageshadow="0"
     inkscape:pageopacity="0"
     inkscape:pagecheckerboard="1"
     inkscape:deskcolor="#505050"
     inkscape:document-units="mm"
     showgrid="false"
     showguides="true"
     inkscape:zoom="0.94752309"
     inkscape:cx="-354.60877"
     inkscape:cy="182.05361"
     inkscape:window-width="1920"
     inkscape:window-height="991"
     inkscape:window-x="-9"
     inkscape:window-y="-9"
     inkscape:window-maximized="1"
     inkscape:current-layer="layer1" /><defs
     id="defs2"><linearGradient
       id="linearGradient3910"
       inkscape:swatch="solid"><stop
         style="stop-color:#000000;stop-opacity:1;"
         offset="0"
         id="stop3908" /></linearGradient><linearGradient
       id="linearGradient3902"
       inkscape:swatch="solid"><stop
         style="stop-color:#000000;stop-opacity:1;"
         offset="0"
         id="stop3900" /></linearGradient><linearGradient
       id="linearGradient1908"
       inkscape:swatch="gradient"><stop
         style="stop-color:#412a2a;stop-opacity:1;"
         offset="0.83033931"
         id="stop1904" /><stop
         style="stop-color:#412a2a;stop-opacity:0;"
         offset="0.84431136"
         id="stop1906" /></linearGradient><rect
       x="20.732048"
       y="466.96472"
       width="356.39377"
       height="115.50713"
       id="rect857" /><rect
       x="13.821366"
       y="17.770327"
       width="368.24066"
       height="96.749557"
       id="rect721" /><clipPath
       clipPathUnits="userSpaceOnUse"
       id="clipPath6141"><rect
         style="opacity:1;vector-effect:none;fill:#ffffff;fill-opacity:1;stroke-width:0.289245;stroke-linecap:butt;stroke-linejoin:miter;stroke-miterlimit:4;stroke-dasharray:none;stroke-dashoffset:0;stroke-opacity:1;-inkscape-stroke:none;stop-color:#000000;stop-opacity:1"
         id="rect6143"
         width="96.429878"
         height="80.496231"
         x="4.7017331"
         y="31.71199" /></clipPath></defs><g
     inkscape:label="Layer 1"
     inkscape:groupmode="layer"
     id="layer1"
     transform="translate(-0.33529438,-0.33529437)"><g
       id="rect386"><path
         style="color:#000000;fill:#c87137;stroke-width:2.64597;stroke-linejoin:round;-inkscape-stroke:none;paint-order:markers fill stroke"
         d="M 1.6582794,1.6582794 H 104.84566 V 157.76231 H 1.6582794 Z"
         id="path2663" /><path
         style="color:#000000;fill:#331f14;stroke-linejoin:round;-inkscape-stroke:none;paint-order:markers fill stroke"
         d="M 1.6582031,0.3359375 A 1.3231174,1.3231174 0 0 0 0.3359375,1.6582031 V 157.76172 a 1.3231174,1.3231174 0 0 0 1.3222656,1.32422 H 104.8457 a 1.3231174,1.3231174 0 0 0 1.32227,-1.32422 V 1.6582031 A 1.3231174,1.3231174 0 0 0 104.8457,0.3359375 Z M 2.9804688,2.9804688 H 103.52344 V 156.43945 H 2.9804688 Z"
         id="path2665" /></g><g
       aria-label="Raining Men"
       transform="matrix(0.26458333,0,0,0.26458333,0,9.5250005)"
       id="text719"
       style="font-size:53.3333px;line-height:0;font-family:Broadway;-inkscape-font-specification:Broadway;text-align:center;letter-spacing:0px;word-spacing:0px;baseline-shift:baseline;white-space:pre;shape-inside:url(#rect721);display:inline;opacity:1;vector-effect:none;stroke-width:0.999999;stop-color:#000000;stop-opacity:1"><path
         d="m 41.236747,36.800379 q 2.499999,1.718749 5.390622,2.942707 2.916665,1.197916 6.249996,1.874999 0.807291,0.15625 0.807291,0.781249 0,0.859375 -1.197916,0.859375 -2.734373,0 -7.682287,-2.395832 -4.114581,-2.005207 -9.427077,-6.197913 v 1.067707 l 0.02604,4.427081 v 2.52604 H 19.544052 V 41.513918 L 19.596135,33.02434 19.67426,22.868096 19.622177,7.1389385 H 30.09092 q 7.031246,0 10.624994,0.3906248 3.593748,0.3906248 6.119788,1.4583325 4.114581,1.7187492 6.510413,5.6510382 2.21354,3.645831 2.21354,7.656246 0,4.27083 -2.473957,8.04687 -3.984372,6.067704 -11.848951,6.458329 z m -2.473957,-1.614582 1.249999,0.02604 q 5.364581,0 9.062495,-2.994789 2.343749,-1.874999 3.593748,-4.687498 1.171874,-2.578123 1.171874,-5.260413 0,-4.557289 -2.968748,-8.151037 -2.265624,-2.786457 -5.67708,-3.932289 Q 41.783622,9.0399791 35.585709,8.9618541 L 35.351334,26.40976 v 4.713539 l 0.02604,1.223958 q 1.58854,1.536457 3.385414,2.83854 z"
         id="path2435" /><path
         d="m 77.747141,25.342053 v -3.177082 q -0.02604,-3.307289 -0.104166,-4.062497 -0.07813,-0.755208 -0.46875,-1.354166 -0.937499,-1.458333 -4.374997,-1.458333 -5.312497,0 -8.20312,3.333332 -1.171875,1.354166 -1.979166,1.354166 -0.598958,0 -1.041666,-0.416667 -0.442708,-0.416666 -0.442708,-0.963541 0,-1.640624 3.880206,-3.385415 3.697915,-1.666665 9.557286,-1.666665 9.635411,0 13.593742,2.916665 1.718749,1.276041 2.239582,2.864581 0.520833,1.588541 0.520833,5.598955 v 10.338536 q -0.104167,2.864581 0.15625,4.322914 0.286458,1.432291 1.249999,3.098956 H 77.747141 v -2.734373 q -2.395831,1.640624 -4.765622,2.473957 -2.343748,0.833333 -4.635414,0.833333 -3.880206,0 -6.901037,-2.265624 -3.932289,-2.968748 -3.932289,-7.708329 0,-4.192706 3.177081,-6.770829 3.697914,-3.046873 9.166661,-3.046873 2.239582,0 3.958331,0.416666 1.718749,0.390625 3.932289,1.458333 z m 0.02604,1.874999 q -3.281248,-1.640624 -5.078122,-1.640624 -1.510416,0 -1.979165,1.197916 -0.260417,0.651041 -0.260417,3.776039 v 6.223955 q 0.02604,2.05729 0.130208,2.499998 0.260417,1.197916 1.770833,1.197916 1.197916,0 2.656248,-0.703125 1.484374,-0.729166 2.708332,-1.90104 z"
         id="path2437" /><path
         d="m 103.50234,5.1337314 q 6.875,0 6.875,3.5937479 0,1.7447907 -1.82292,2.7343737 -1.79687,0.963541 -5.07812,0.963541 -6.536456,0 -6.536456,-3.6979147 0,-3.5416646 6.562496,-3.5937479 z m 6.74479,9.1145776 v 0.755208 l -0.0521,4.062498 -0.0521,6.302079 -0.0781,9.583328 0.10416,5.390622 0.0521,2.343748 H 96.835678 l 0.130208,-9.583327 0.07813,-8.463537 -0.05208,-4.453122 -0.07813,-4.947914 0.02604,-0.989583 z"
         id="path2439" /><path
         d="m 129.75232,14.248309 v 3.61979 q 3.04688,-2.161457 5.96354,-3.229165 2.91667,-1.093749 5.67708,-1.093749 3.69792,0 6.25,1.692707 1.92708,1.276041 2.57812,3.177081 0.67708,1.874999 0.67708,6.14583 l -0.0521,12.057285 0.0781,6.067704 h -13.2552 l 0.10416,-7.239579 0.0781,-5.312496 -0.026,-8.020829 q -0.026,-2.786457 -0.0781,-3.30729 -0.026,-0.546874 -0.23437,-0.963541 -0.41667,-0.833333 -1.79688,-0.833333 -1.27604,0 -2.76041,0.729167 -1.48438,0.729166 -3.20313,2.187498 l -0.026,1.067708 -0.0521,7.317704 -0.0521,5.598955 0.0781,7.656245 0.026,1.119791 H 116.419 l 0.0781,-10.208327 0.0781,-6.744788 -0.0781,-5.833329 -0.0781,-5.651039 z"
         id="path2441" /><path
         d="m 163.29397,5.1337314 q 6.87499,0 6.87499,3.5937479 0,1.7447907 -1.82291,2.7343737 -1.79688,0.963541 -5.07813,0.963541 -6.53645,0 -6.53645,-3.6979147 0,-3.5416646 6.5625,-3.5937479 z m 6.74478,9.1145776 v 0.755208 l -0.0521,4.062498 -0.0521,6.302079 -0.0781,9.583328 0.10417,5.390622 0.0521,2.343748 H 156.6273 l 0.13021,-9.583327 0.0781,-8.463537 -0.0521,-4.453122 -0.0781,-4.947914 0.026,-0.989583 z"
         id="path2443" /><path
         d="m 189.54396,14.248309 v 3.61979 q 3.04687,-2.161457 5.96354,-3.229165 2.91666,-1.093749 5.67708,-1.093749 3.69791,0 6.24999,1.692707 1.92708,1.276041 2.57813,3.177081 0.67708,1.874999 0.67708,6.14583 l -0.0521,12.057285 0.0781,6.067704 h -13.2552 l 0.10417,-7.239579 0.0781,-5.312496 -0.026,-8.020829 q -0.026,-2.786457 -0.0781,-3.30729 -0.026,-0.546874 -0.23437,-0.963541 -0.41667,-0.833333 -1.79687,-0.833333 -1.27605,0 -2.76042,0.729167 -1.48437,0.729166 -3.20312,2.187498 l -0.026,1.067708 -0.0521,7.317704 -0.0521,5.598955 0.0781,7.656245 0.026,1.119791 h -13.30729 l 0.0781,-10.208327 0.0781,-6.744788 -0.0781,-5.833329 -0.0781,-5.651039 z"
         id="path2445" /><path
         d="m 236.65329,15.3681 q 2.23958,1.09375 3.75,2.890624 2.00521,2.421873 2.00521,5.598955 0,2.265623 -1.14584,4.296872 -1.14583,2.031249 -3.20312,3.411456 -3.80208,2.578124 -9.16666,2.578124 -2.47396,0 -4.55729,-0.442708 -2.08333,-0.442708 -3.80208,-1.328125 -1.22396,0.833333 -1.22396,1.692708 0,1.015624 1.38021,1.197916 2.99479,0.390625 4.11458,0.234375 l 0.15625,-0.02604 h 7.78645 l 0.39063,-0.02604 q 3.90625,-0.234375 5.625,1.302083 1.32812,1.223957 1.32812,2.864582 0,1.380207 -0.9375,2.499998 -1.5625,1.848957 -4.21875,1.848957 -0.49479,0 -1.25,-0.05208 0.41667,-0.651041 0.41667,-1.015624 0,-0.807292 -1.45833,-0.807292 -1.25,0 -5.23437,0.546875 -2.78646,0.390625 -4.60938,0.390625 -2.86458,0 -4.97395,-1.223958 -1.22396,-0.703124 -1.92708,-1.927082 -0.70313,-1.223958 -0.70313,-2.656248 0,-1.614583 0.83333,-2.942707 0.85938,-1.354166 2.83854,-2.83854 -1.84895,-1.171874 -2.86458,-3.046873 -1.01562,-1.901041 -1.01562,-4.114581 0,-5.260414 5.28645,-8.385412 3.95833,-2.343748 9.60937,-2.343748 1.25,0 2.60417,0.130208 1.84896,0.15625 2.68229,0.15625 2.05729,0 2.99479,-1.822916 0.54687,-1.093749 1.17187,-1.093749 0.49479,0 0.85938,0.338541 0.36458,0.3125 0.36458,0.78125 0,0.937499 -1.04167,1.848957 -1.04166,0.885416 -2.86458,1.484374 z m -10.23437,2.864582 V 29.2483 q 0,1.979166 0.3125,2.447916 0.52084,0.755207 2.16146,0.755207 1.51042,0 2.00521,-0.703124 0.52083,-0.729166 0.52083,-2.83854 V 18.284765 q 0,-1.770832 -0.52083,-2.36979 -0.49479,-0.598958 -1.97917,-0.598958 -1.48437,0 -2.00521,0.598958 -0.49479,0.598958 -0.49479,2.317707 z"
         id="path2447" /><path
         d="m 295.76785,5.9149809 5.67708,19.4010301 2.57812,8.593745 2.31771,7.786454 0.3125,0.989582 H 290.81993 L 285.81994,24.274345 275.06473,40.44621 264.02307,25.081636 q -1.58854,5.624997 -3.46354,13.802075 -0.67708,3.124998 -0.98958,3.723956 -0.28646,0.572917 -1.19791,0.572917 -1.14584,0 -1.14584,-0.78125 0,-0.234375 0.72917,-2.630207 l 1.61458,-5.546871 2.8125,-9.583328 5.49479,-18.7239471 14.27082,20.6510291 z"
         id="path2449" /><path
         d="m 320.63761,29.300384 v 8.072912 q 0,2.343748 0.28646,2.968748 0.54688,1.197916 2.57812,1.197916 3.02084,0 5.96354,-1.640624 2.96875,-1.666666 5.13021,-4.583331 0.70312,-0.963541 1.01562,-1.223958 0.3125,-0.260416 0.67708,-0.260416 0.44271,0 0.72917,0.338541 0.28646,0.3125 0.28646,0.807292 0,1.093749 -1.74479,2.942706 -2.29167,2.36979 -5.70312,3.854165 -3.38542,1.484374 -6.61458,1.484374 -5.54687,0 -9.79166,-3.723956 -2.47396,-2.187499 -3.80208,-5.390622 -1.17188,-2.812499 -1.17188,-5.624997 0,-2.708332 1.04167,-5.416663 1.04166,-2.734374 2.86458,-4.713539 2.10937,-2.317707 5,-3.593748 2.83854,-1.249999 5.93749,-1.249999 4.81771,0 8.72396,2.83854 6.09374,4.42708 6.04166,12.838534 h -6.06771 l -7.81249,0.02604 z m 6.66667,-1.718749 v -7.604162 q -0.0521,-2.447916 -0.10417,-2.916665 -0.0521,-0.494792 -0.36458,-0.911458 -0.72917,-1.015625 -2.96875,-1.015625 -2.29167,0 -2.86458,1.171875 -0.36459,0.703124 -0.36459,3.671873 v 7.604162 l 3.17708,0.104166 z"
         id="path2451" /><path
         d="m 355.50741,14.248309 v 3.61979 q 3.04688,-2.161457 5.96354,-3.229165 2.91667,-1.093749 5.67708,-1.093749 3.69791,0 6.25,1.692707 1.92708,1.276041 2.57812,3.177081 0.67708,1.874999 0.67708,6.14583 l -0.0521,12.057285 0.0781,6.067704 h -13.2552 l 0.10417,-7.239579 0.0781,-5.312496 -0.0261,-8.020829 q -0.026,-2.786457 -0.0781,-3.30729 -0.026,-0.546874 -0.23438,-0.963541 -0.41666,-0.833333 -1.79687,-0.833333 -1.27604,0 -2.76041,0.729167 -1.48438,0.729166 -3.20313,2.187498 l -0.026,1.067708 -0.0521,7.317704 -0.0521,5.598955 0.0781,7.656245 0.026,1.119791 h -13.30728 l 0.0781,-10.208327 0.0781,-6.744788 -0.0781,-5.833329 -0.0781,-5.651039 z"
         id="path2453" /></g><g
       aria-label="Description:"
       id="text733"
       style="font-size:7.05556px;line-height:0px;font-family:Broadway;-inkscape-font-specification:Broadway;opacity:1;vector-effect:none;stroke-width:0.264583;stop-color:#000000;stop-opacity:1"><path
         d="m 4.7016462,116.51791 h 1.8121214 q 0.7096901,0 1.0679802,0.0689 0.8853902,0.16881 1.4297156,0.94396 0.4271921,0.60978 0.4271921,1.34359 0,0.74758 -0.4409725,1.36081 -0.530545,0.74069 -1.3849293,0.91984 -0.2204862,0.0448 -0.3927411,0.0551 -0.1722549,0.0103 -0.7579215,0.0103 H 4.7119815 l 0.010335,-2.27377 z m 2.1049547,0.22048 -0.017226,2.76986 0.020671,1.49173 q 0.4616431,-0.003 0.6614587,-0.0344 0.2032608,-0.0345 0.4650882,-0.14814 0.6166725,-0.26527 0.9680725,-0.85438 0.3066137,-0.50643 0.3066137,-1.09555 0,-0.64078 -0.3617353,-1.17822 -0.6442333,-0.95429 -1.9085841,-0.95429 z"
         id="path2410" /><path
         d="m 11.3748,119.44969 v 1.06798 q 0,0.31006 0.0379,0.39274 0.07235,0.15847 0.341065,0.15847 0.399631,0 0.788927,-0.21704 0.392742,-0.22049 0.678685,-0.60634 0.09302,-0.12746 0.134358,-0.16192 0.04134,-0.0344 0.08957,-0.0344 0.05857,0 0.09646,0.0448 0.0379,0.0413 0.0379,0.1068 0,0.14469 -0.230822,0.38929 -0.303168,0.31351 -0.754476,0.50988 -0.447863,0.19637 -0.875055,0.19637 -0.733806,0 -1.295357,-0.49265 -0.327284,-0.28939 -0.5029839,-0.71314 -0.1550294,-0.37207 -0.1550294,-0.74414 0,-0.35829 0.1378039,-0.71658 0.1378034,-0.36173 0.3789604,-0.62356 0.279053,-0.30661 0.661459,-0.47542 0.375516,-0.16537 0.785482,-0.16537 0.637343,0 1.154108,0.37552 0.806153,0.58566 0.799263,1.69843 h -0.802708 l -1.033529,0.003 z m 0.881945,-0.22738 v -1.00597 q -0.0069,-0.32384 -0.01378,-0.38585 -0.0069,-0.0655 -0.04823,-0.12058 -0.09646,-0.13436 -0.392742,-0.13436 -0.303168,0 -0.37896,0.15503 -0.04823,0.093 -0.04823,0.48576 v 1.00597 l 0.420302,0.0138 z"
         id="path2412" /><path
         d="m 14.161884,120.58312 q 0.0689,0 0.1757,0.10336 0.172254,0.16192 0.489203,0.27905 0.316949,0.11369 0.592557,0.11369 0.127469,0 0.189481,-0.0413 0.06546,-0.0448 0.06546,-0.12747 0,-0.0827 -0.08957,-0.19637 -0.08613,-0.11714 -0.389296,-0.44442 -0.740696,-0.79237 -0.961182,-1.11277 -0.217041,-0.32384 -0.217041,-0.62011 0,-0.25839 0.148139,-0.49265 0.151584,-0.23772 0.420302,-0.40308 0.444417,-0.27561 1.019749,-0.27561 0.423747,0 0.895725,0.17915 0.368625,0.14125 0.368625,0.30661 0,0.0517 -0.04479,0.093 -0.04134,0.0413 -0.09646,0.0413 -0.06546,0 -0.244602,-0.12747 -0.36518,-0.26183 -0.795817,-0.26183 -0.151584,0 -0.230822,0.0482 -0.07579,0.0482 -0.07579,0.14813 0,0.11714 0.141249,0.29628 0.144694,0.17915 0.582222,0.60634 0.427192,0.41686 0.54088,0.54777 0.117133,0.12747 0.223931,0.29628 0.182591,0.28939 0.182591,0.62701 0,0.53054 -0.51332,0.85783 -0.420302,0.27216 -1.033529,0.27216 -0.68213,0 -1.20923,-0.30317 -0.155029,-0.093 -0.213596,-0.15158 -0.05512,-0.0586 -0.05512,-0.12747 0,-0.12747 0.134359,-0.13092 z"
         id="path2414" /><path
         d="m 19.236512,118.20601 v 2.30132 l -0.0034,0.22049 q 0,0.21359 0.05168,0.28594 0.05512,0.0689 0.217041,0.0689 0.406522,0 0.799263,-0.24804 0.392741,-0.2515 0.640788,-0.6718 0.07579,-0.12747 0.148139,-0.12747 0.05168,0 0.09302,0.0482 0.04479,0.0448 0.04479,0.0965 0,0.12402 -0.199816,0.3514 -0.199815,0.22393 -0.465088,0.40307 -0.54088,0.36174 -1.157553,0.36174 -0.844049,0 -1.395264,-0.52366 -0.627008,-0.58911 -0.627008,-1.44349 0,-0.88195 0.661459,-1.46761 0.55466,-0.4961 1.367703,-0.4961 0.647679,0 1.133438,0.30662 0.206705,0.13091 0.337619,0.28249 0.130914,0.14814 0.130914,0.2515 0,0.0517 -0.0379,0.0896 -0.0379,0.0344 -0.09302,0.0344 -0.07235,0 -0.18259,-0.16537 -0.158474,-0.23082 -0.499539,-0.39963 -0.341065,-0.17225 -0.644233,-0.17225 -0.203261,0 -0.261828,0.11369 -0.05857,0.11369 -0.05857,0.49954 z"
         id="path2416" /><path
         d="m 23.353405,118.5264 -0.0069,1.32292 0.01378,1.37115 H 21.59296 l 0.0034,-0.18948 0.0034,-0.7028 0.01034,-1.26435 -0.01378,-1.4056 -0.0034,-0.19982 h 1.76389 v 0.70969 q 0.396186,-0.4203 0.551215,-0.53055 0.358291,-0.25149 0.67524,-0.25149 0.192925,0 0.316949,0.0827 0.127468,0.0827 0.127468,0.21015 0,0.0999 -0.07579,0.16536 -0.07579,0.0655 -0.18948,0.0655 -0.07235,0 -0.16192,-0.0413 -0.151584,-0.0724 -0.251492,-0.0724 -0.248047,0 -0.478869,0.16881 -0.230821,0.16881 -0.516764,0.56155 z"
         id="path2418" /><path
         d="m 26.202501,116.25264 q 0.909506,0 0.909506,0.47542 0,0.23082 -0.241157,0.36173 -0.237712,0.12747 -0.671794,0.12747 -0.86472,0 -0.86472,-0.4892 0,-0.46853 0.868165,-0.47542 z m 0.89228,1.20578 v 0.0999 l -0.0069,0.53743 -0.0069,0.83372 -0.01034,1.26779 0.01378,0.71314 0.0069,0.31006 h -1.77078 l 0.01722,-1.2678 0.01034,-1.11966 -0.0069,-0.58911 -0.01034,-0.65457 0.0034,-0.13091 z"
         id="path2420" /><path
         d="m 27.911269,117.45842 h 1.760445 l -0.01034,0.45131 q 0.347955,-0.29973 0.637343,-0.4203 0.289388,-0.12403 0.637343,-0.12403 0.713136,0 1.157553,0.53055 0.399631,0.47542 0.399631,1.20923 0,0.78203 -0.458198,1.28502 -0.423747,0.46509 -1.057645,0.46509 -0.334174,0 -0.664903,-0.13781 -0.33073,-0.14125 -0.658014,-0.4203 l 0.0034,0.12747 0.0034,0.45131 0.0069,0.37551 0.0034,0.12747 h -1.760445 l 0.0034,-0.98185 0.0069,-0.91295 -0.01034,-1.90514 z m 1.75011,0.76137 v 1.79834 q 0.251492,0.23426 0.451308,0.35484 0.199816,0.11714 0.347955,0.11714 0.137804,0 0.161919,-0.13436 0.0069,-0.0448 0.01034,-0.46509 v -1.68465 q 0,-0.29973 -0.01034,-0.35829 -0.02412,-0.1447 -0.144694,-0.1447 -0.155029,0 -0.375515,0.14125 -0.220487,0.1378 -0.440973,0.37552 z"
         id="path2422" /><path
         d="m 34.84625,116.24575 -0.0379,1.11276 -0.0034,0.1068 q 0.299723,0 0.544325,-0.0241 0.04134,-0.003 0.07235,-0.003 0.151585,0 0.151585,0.1378 0,0.12747 -0.158475,0.12747 -0.04823,0 -0.120578,-0.007 -0.272163,-0.0207 -0.389296,-0.0207 h -0.09991 l -0.0034,0.66835 0.01378,1.34014 0.01033,0.71658 q 0,0.2515 0.0379,0.3514 0.0379,0.0999 0.130913,0.0999 0.124024,0 0.265273,-0.14469 0.137804,-0.1447 0.217041,-0.35485 0.07235,-0.19981 0.172255,-0.19981 0.117133,0 0.117133,0.13091 0,0.13091 -0.117133,0.32728 -0.117133,0.19293 -0.282498,0.33762 -0.406522,0.35485 -1.0542,0.35485 -0.609782,0 -0.943957,-0.36863 -0.172255,-0.18603 -0.237712,-0.41341 -0.06546,-0.23082 -0.06546,-0.63734 v -0.25838 l 0.0034,-0.72692 v -1.23334 q -0.04823,-0.003 -0.0689,-0.003 -0.03445,0 -0.137804,0.007 -0.08613,0.007 -0.144694,0.007 -0.16881,0 -0.16881,-0.12747 0,-0.12402 0.161919,-0.12402 0.07579,0 0.106799,0.003 l 0.251492,0.0172 v -0.3893 q 1.019749,-0.36862 1.77767,-0.80959 z"
         id="path2424" /><path
         d="m 36.882303,116.25264 q 0.909506,0 0.909506,0.47542 0,0.23082 -0.241157,0.36173 -0.237712,0.12747 -0.671794,0.12747 -0.86472,0 -0.86472,-0.4892 0,-0.46853 0.868165,-0.47542 z m 0.89228,1.20578 v 0.0999 l -0.0069,0.53743 -0.0069,0.83372 -0.01034,1.26779 0.01378,0.71314 0.0069,0.31006 h -1.77078 l 0.01723,-1.2678 0.01034,-1.11966 -0.0069,-0.58911 -0.01034,-0.65457 0.0034,-0.13091 z"
         id="path2426" /><path
         d="m 40.313622,117.3654 q 0.554661,0 1.050755,0.30662 0.458198,0.28249 0.699355,0.7717 0.213596,0.43064 0.213596,0.91295 0,0.33073 -0.127469,0.6649 -0.124023,0.33418 -0.341064,0.59256 -0.303169,0.35484 -0.740696,0.53399 -0.358291,0.14814 -0.747587,0.14814 -0.651123,0 -1.171333,-0.38585 -0.406521,-0.29628 -0.616672,-0.76137 -0.1757,-0.39274 -0.1757,-0.83027 0,-0.85438 0.620117,-1.41938 0.582222,-0.52365 1.336698,-0.53399 z m -0.09991,0.22393 -0.01034,3.47266 q 0.106798,0.007 0.148139,0.007 0.478869,0 0.916396,-0.26872 0.420302,-0.26182 0.630453,-0.69591 0.165365,-0.3445 0.165365,-0.75792 0,-0.83027 -0.613228,-1.34703 -0.496094,-0.41686 -1.078315,-0.41686 -0.04823,0 -0.158475,0.007 z"
         id="path2428" /><path
         d="m 44.582098,117.45842 v 0.47887 q 0.403077,-0.28594 0.788927,-0.42719 0.385851,-0.1447 0.751032,-0.1447 0.489204,0 0.826823,0.22393 0.254937,0.16881 0.341065,0.42031 0.08957,0.24804 0.08957,0.81304 l -0.0069,1.59508 0.01034,0.80271 h -1.753555 l 0.01378,-0.95774 0.01033,-0.7028 -0.0034,-1.06109 q -0.0034,-0.36863 -0.01033,-0.43753 -0.0034,-0.0724 -0.03101,-0.12747 -0.05512,-0.11024 -0.237712,-0.11024 -0.168809,0 -0.36518,0.0965 -0.19637,0.0965 -0.423747,0.28939 l -0.0034,0.14125 -0.0069,0.96807 -0.0069,0.7407 0.01034,1.01286 0.0034,0.14814 h -1.760445 l 0.01034,-1.35048 0.01034,-0.89228 -0.01034,-0.7717 -0.01034,-0.74759 z"
         id="path2430" /><path
         d="m 49.067614,119.7942 q 0.458198,0 0.73725,0.20326 0.279053,0.20326 0.279053,0.54432 0,0.34796 -0.282498,0.56844 -0.282498,0.21704 -0.733805,0.21704 -0.568442,0 -0.85094,-0.31694 -0.165364,-0.18604 -0.165364,-0.43409 0,-0.3514 0.275608,-0.56155 0.275607,-0.21359 0.740696,-0.22048 z m 0,-1.97404 q 0.458198,0 0.73725,0.20326 0.279053,0.20326 0.279053,0.54432 0,0.34796 -0.282498,0.56844 -0.282498,0.21704 -0.733805,0.21704 -0.568442,0 -0.85094,-0.31695 -0.165364,-0.18603 -0.165364,-0.43408 0,-0.3514 0.275608,-0.56155 0.275607,-0.21359 0.740696,-0.22048 z"
         id="path2432" /></g><g
       aria-label="Both players receive three pawns with random positions. Discard this card."
       transform="matrix(0.27431353,0,0,0.27431353,-0.8676689,-4.702566)"
       id="text855"
       style="font-size:23.1487px;line-height:23.1487px;font-family:Broadway;-inkscape-font-specification:Broadway;white-space:pre;shape-inside:url(#rect857);display:inline;opacity:1;vector-effect:none;stroke-width:0.999999;stop-color:#000000;stop-opacity:1"><path
         d="m 21.670577,473.58602 h 7.49394 q 2.746648,0 3.763924,0.24866 1.50331,0.3617 2.373647,1.31116 0.881639,0.94946 0.881639,2.28322 0,0.96076 -0.463426,1.72937 -0.463426,0.75731 -1.345066,1.29986 -0.565154,0.35039 -1.537218,0.59906 1.232035,0.22606 1.876311,0.54255 0.972064,0.47473 1.537218,1.35637 0.565154,0.88164 0.565154,1.98934 0,1.07379 -0.553851,1.98934 -0.553851,0.91555 -1.571128,1.50331 -1.005973,0.58776 -2.35104,0.75731 -1.345066,0.15824 -2.769253,0.15824 h -7.900851 v -0.94946 h 0.531245 q 0.768609,0 1.051186,-0.23736 0.406911,-0.32779 0.406911,-1.0851 v -10.95268 q 0,-0.76861 -0.124334,-1.05119 -0.124334,-0.28257 -0.373002,-0.40691 -0.248667,-0.12433 -0.960761,-0.12433 h -0.531245 z m 4.103017,1.25464 v 5.77587 h 2.882285 q 2.02325,0 2.769253,-0.19215 1.164217,-0.30519 1.774583,-1.03989 0.621669,-0.7347 0.621669,-1.88761 0,-0.97206 -0.565153,-1.61634 -0.553851,-0.65558 -1.492006,-0.89294 -0.610367,-0.14694 -2.53189,-0.14694 z m 0,6.86097 v 5.1768 q 0,0.77992 0.06782,0.92686 0.09043,0.20345 0.361699,0.28257 0.192152,0.0565 1.085095,0.0565 h 1.537219 q 2.283221,0 3.255286,-0.24867 0.983367,-0.25997 1.672855,-1.07379 0.689488,-0.82513 0.689488,-1.97804 0,-0.97206 -0.565154,-1.71807 -0.553851,-0.7573 -1.548522,-1.08509 -0.983367,-0.33909 -3.503953,-0.33909 z"
         style="font-family:'Bookman Old Style';-inkscape-font-specification:'Bookman Old Style'"
         id="path2281" /><path
         d="m 44.401064,478.17507 q 1.661552,0 2.870981,0.68948 1.220733,0.68949 1.921523,2.01195 0.700791,1.32246 0.700791,3.01792 0,1.69546 -0.723397,3.01792 -0.712094,1.32246 -1.955432,2.02325 -1.232035,0.68949 -2.950103,0.68949 -2.735344,0 -4.11432,-1.70676 -1.367672,-1.70677 -1.367672,-4.01259 0,-1.68416 0.712094,-2.98402 0.712094,-1.31115 1.989341,-2.02325 1.288551,-0.72339 2.916194,-0.72339 z m -0.09042,1.09639 q -1.28855,0 -2.181493,1.01728 -1.130308,1.26595 -1.130308,3.6848 0,2.32844 0.960761,3.54917 0.870337,1.0851 2.362343,1.0851 0.960762,0 1.706765,-0.50864 0.757306,-0.50864 1.220732,-1.61634 0.463426,-1.11901 0.463426,-2.62232 0,-1.4694 -0.497335,-2.63361 -0.384305,-0.92686 -1.164217,-1.43549 -0.768609,-0.51995 -1.740674,-0.51995 z"
         style="font-family:'Bookman Old Style';-inkscape-font-specification:'Bookman Old Style'"
         id="path2283" /><path
         d="m 54.63035,474.60329 h 0.802518 v 3.84305 h 3.357014 v 1.13031 h -3.357014 v 6.81575 q 0,0.87034 0.14694,1.24334 0.158243,0.373 0.519942,0.61037 0.373001,0.23736 0.825124,0.23736 1.073792,0 2.373646,-0.96076 v 1.0964 q -1.480703,1.00597 -2.995315,1.00597 -0.859034,0 -1.559825,-0.3843 -0.689487,-0.38431 -0.949458,-0.90425 -0.248668,-0.51994 -0.248668,-1.80849 v -6.95139 h -1.978038 v -0.94946 q 0.949458,-0.21476 1.525915,-0.66688 0.58776,-0.45213 0.949459,-1.17552 0.361698,-0.7234 0.58776,-2.1815 z"
         style="font-family:'Bookman Old Style';-inkscape-font-specification:'Bookman Old Style'"
         id="path2285" /><path
         d="m 60.451433,474.69372 v -0.97207 q 1.096399,-0.14694 1.706765,-0.33909 0.610366,-0.20345 1.277247,-0.61037 h 0.88164 v 7.47134 q 1.277248,-1.07379 2.418859,-1.57113 1.14161,-0.49733 2.181493,-0.49733 1.514613,0 2.49798,0.90424 0.972065,0.90425 0.972065,2.2041 v 5.54981 q 0,0.82513 0.124334,1.0851 0.135637,0.24867 0.44082,0.373 0.305183,0.11303 1.367672,0.11303 v 0.94946 h -5.832387 v -0.94946 h 0.429516 q 0.825125,0 1.085096,-0.12433 0.259971,-0.13564 0.373001,-0.42952 0.124334,-0.30518 0.124334,-1.24334 v -3.85435 q 0,-1.27725 -0.09042,-1.66155 -0.169547,-0.65558 -0.700791,-1.05119 -0.531245,-0.3956 -1.356369,-0.3956 -0.926853,0 -1.94413,0.46342 -1.005973,0.45212 -2.091069,1.36767 v 5.66285 q 0,0.63297 0.113031,0.84773 0.113031,0.21475 0.373002,0.31648 0.25997,0.10173 1.039883,0.10173 h 0.463426 v 0.94946 h -5.854994 v -0.94946 h 0.350396 q 0.825124,0 1.198126,-0.20346 0.203455,-0.10172 0.29388,-0.3956 0.09042,-0.29388 0.09042,-1.62765 v -11.48392 z"
         style="font-family:'Bookman Old Style';-inkscape-font-specification:'Bookman Old Style'"
         id="path2287" /><path
         d="m 83.023678,480.06268 v -0.92685 q 0.847731,0 1.50331,-0.21476 0.655578,-0.21476 1.43549,-0.746 h 0.892943 v 1.88761 q 1.412885,-1.11901 2.35104,-1.50331 0.938156,-0.3843 1.876311,-0.3843 1.932826,0 3.289195,1.51461 1.367673,1.51461 1.367673,3.94477 0,2.69013 -1.548522,4.4082 -1.412885,1.58243 -3.639591,1.58243 -1.107701,0 -2.079766,-0.41821 -0.70079,-0.29388 -1.61634,-1.05119 v 3.71871 q 0,0.83643 0.04521,0.98337 0.05652,0.21476 0.226061,0.3617 0.169546,0.14694 0.429517,0.19215 0.192152,0.0339 1.288551,0.0339 v 0.94946 h -5.821085 v -0.94946 h 0.508639 q 0.779912,0 1.005974,-0.12433 0.237364,-0.11303 0.350395,-0.3617 0.06782,-0.19215 0.06782,-1.17552 v -11.72129 z m 3.831743,1.16422 v 3.88825 q 0,0.76861 0.09042,1.14162 0.135637,0.57645 0.519941,1.03988 0.395608,0.46342 1.06249,0.79121 0.678184,0.32779 1.412884,0.32779 1.4694,0 2.543192,-1.1077 1.085096,-1.1077 1.085096,-3.35701 0,-2.10237 -0.892943,-3.24399 -0.892943,-1.15291 -2.113676,-1.15291 -0.791215,0 -1.718067,0.41821 -0.926852,0.41822 -1.989342,1.25465 z"
         style="font-family:'Bookman Old Style';-inkscape-font-specification:'Bookman Old Style'"
         id="path2289" /><path
         d="m 97.367283,474.64851 v -0.92686 q 1.537219,-0.11303 2.995317,-0.94946 h 0.83643 v 13.91409 q 0,0.88164 0.11303,1.1077 0.14694,0.31649 0.42951,0.46343 0.28258,0.14694 1.0851,0.14694 h 0.3617 v 0.94946 h -5.821087 v -0.94946 h 0.58776 q 0.553851,0 0.825125,-0.16955 0.282577,-0.16954 0.395608,-0.46342 0.124333,-0.29388 0.124333,-1.17552 v -11.94735 z"
         style="font-family:'Bookman Old Style';-inkscape-font-specification:'Bookman Old Style'"
         id="path2291" /><path
         d="m 112.55862,482.80933 v -1.23204 q 0,-1.25464 -0.7008,-1.78588 -0.70079,-0.54255 -1.97803,-0.54255 -0.63298,0 -1.10771,0.15824 -0.47472,0.14694 -0.7686,0.41821 -0.28258,0.25998 -0.41822,0.59907 -0.0565,0.12433 -0.27127,0.96076 -0.25997,1.01728 -1.05119,1.01728 -0.45212,0 -0.7347,-0.29388 -0.27127,-0.30519 -0.27127,-0.81383 0,-0.746 0.55385,-1.45809 0.55385,-0.7234 1.68416,-1.18683 1.14161,-0.47472 2.69013,-0.47472 1.44679,0 2.47537,0.45212 1.02858,0.44082 1.51462,1.27725 0.33909,0.57645 0.33909,2.10237 v 4.35168 q 0,0.92686 0.0565,1.20943 0.12434,0.48603 0.42952,0.7347 0.31649,0.23737 0.81382,0.23737 0.51994,0 1.24334,-0.24867 v 0.98337 q -0.93816,0.27127 -1.68416,0.27127 -0.80252,0 -1.35637,-0.22606 -0.54255,-0.22606 -0.89294,-0.65558 -0.3504,-0.44082 -0.45212,-1.03988 -1.35637,1.06249 -2.45277,1.492 -1.0964,0.42952 -2.2154,0.42952 -1.55983,0 -2.53189,-0.84773 -0.97207,-0.84773 -0.97207,-1.98934 0,-0.68949 0.3504,-1.31116 0.3617,-0.62167 1.08509,-1.0964 0.7347,-0.47473 2.29453,-0.83642 1.55982,-0.3617 4.32908,-0.65558 z m 0,0.98336 q -2.62232,0.38431 -3.24399,0.53125 -1.23203,0.28258 -1.76328,0.62167 -0.53124,0.33909 -0.7573,0.7347 -0.22606,0.3843 -0.22606,0.82512 0,0.44082 0.24866,0.85904 0.25997,0.40691 0.7234,0.64427 0.46343,0.23737 0.98337,0.23737 0.7347,0 1.66155,-0.3504 0.92685,-0.35039 2.37365,-1.36767 z"
         style="font-family:'Bookman Old Style';-inkscape-font-specification:'Bookman Old Style'"
         id="path2293" /><path
         d="m 116.899,478.44634 h 5.49329 v 0.94946 h -0.45212 q -0.64428,0 -0.76861,0.0339 -0.14694,0.0452 -0.24867,0.19215 -0.10173,0.13564 -0.10173,0.35039 0,0.30519 0.30519,1.02858 l 2.62231,6.16018 2.43016,-5.8889 q 0.42952,-1.03988 0.42952,-1.37898 0,-0.25997 -0.19215,-0.373 -0.19216,-0.12433 -0.87034,-0.12433 h -0.53124 v -0.94946 h 4.62295 v 0.94946 h -0.27127 q -0.67818,0 -0.88164,0.0904 -0.20346,0.0904 -0.39561,0.373 -0.19215,0.27128 -0.61036,1.25465 l -4.14823,9.66413 q -0.45213,1.03988 -1.00598,1.92152 -0.55385,0.89294 -1.39027,1.37897 -0.83643,0.48604 -1.84241,0.48604 -1.16421,0 -1.865,-0.53125 -0.59907,-0.45212 -0.59907,-1.13031 0,-0.41821 0.25997,-0.70079 0.25997,-0.27127 0.61037,-0.27127 0.27127,0 0.50864,0.11303 0.14694,0.0565 0.61036,0.47473 0.56516,0.49733 0.79122,0.61037 0.23736,0.11303 0.46343,0.11303 0.46342,0 0.91555,-0.31649 0.45212,-0.31649 0.7686,-0.89294 0.45213,-0.82513 0.74601,-1.54852 l 0.46342,-1.13031 -3.73001,-8.35298 q -0.39561,-0.88164 -0.66688,-1.18682 -0.27128,-0.30518 -0.54255,-0.373 -0.14694,-0.0452 -0.92685,-0.0452 z"
         style="font-family:'Bookman Old Style';-inkscape-font-specification:'Bookman Old Style'"
         id="path2295" /><path
         d="m 140.0364,486.43761 0.72339,0.58776 q -0.82512,0.98337 -1.60503,1.55983 -0.76861,0.57646 -1.4581,0.80252 -0.68949,0.23736 -1.61634,0.23736 -1.66155,0 -2.82577,-0.67818 -1.33376,-0.77991 -2.04586,-2.03456 -0.71209,-1.25464 -0.71209,-2.9614 0,-1.78589 0.68949,-3.05183 0.68949,-1.26595 1.92152,-1.98934 1.24334,-0.7347 2.87098,-0.7347 1.20943,0 2.10238,0.3843 0.89294,0.373 1.51461,1.14161 0.62167,0.75731 0.90424,1.74067 0.15825,0.57646 0.18085,1.49201 h -7.99127 q -0.0339,0.55385 -0.0339,0.82513 0,1.42418 0.49733,2.54319 0.49734,1.1077 1.31116,1.63894 0.82513,0.51995 1.86501,0.51995 0.88164,0 1.70676,-0.40692 0.82513,-0.41821 2.00065,-1.61634 z m -1.4468,-4.56644 q -0.16954,-1.03988 -0.48603,-1.53722 -0.30518,-0.49733 -0.88164,-0.79121 -0.56515,-0.29388 -1.27725,-0.29388 -0.71209,0 -1.33376,0.29388 -0.62167,0.29388 -1.03988,0.81382 -0.40691,0.51994 -0.7121,1.51461 z"
         style="font-family:'Bookman Old Style';-inkscape-font-specification:'Bookman Old Style'"
         id="path2297" /><path
         d="m 142.37613,480.06268 v -0.92685 q 0.82513,-0.0678 1.4694,-0.27128 0.64428,-0.21476 1.4694,-0.68948 h 0.84773 v 2.13628 q 0.80252,-0.98337 1.86501,-1.55983 1.06249,-0.57645 1.91022,-0.57645 0.83643,0 1.32246,0.3956 0.48603,0.39561 0.48603,0.96076 0,0.40692 -0.32779,0.7234 -0.31648,0.30518 -0.76861,0.30518 -0.20345,0 -0.35039,-0.0565 -0.14694,-0.0565 -0.42952,-0.24867 -0.62167,-0.40691 -1.03988,-0.40691 -0.56516,0 -1.24334,0.47473 -0.85903,0.61037 -1.34507,1.19813 v 5.21071 q 0,0.67819 0.0678,0.92686 0.0791,0.23736 0.24867,0.41821 0.16955,0.16955 0.41821,0.24867 0.24867,0.0791 0.87034,0.0791 h 0.373 v 0.94946 h -5.84369 v -0.94946 h 0.48603 q 0.68949,0 0.90425,-0.12433 0.29388,-0.16955 0.42952,-0.46343 0.14694,-0.30518 0.14694,-1.0851 v -6.66881 z"
         style="font-family:'Bookman Old Style';-inkscape-font-specification:'Bookman Old Style'"
         id="path2299" /><path
         d="m 160.23499,478.44634 h 0.79122 l 1.01728,3.45874 -1.01728,0.33909 q -0.61037,-1.39028 -1.71807,-2.18149 -1.0964,-0.80252 -2.2267,-0.80252 -0.87034,0 -1.41289,0.42952 -0.54255,0.41821 -0.54255,0.97206 0,0.51994 0.39561,0.89295 0.38431,0.3843 1.72937,0.87033 l 2.2041,0.77991 q 1.86501,0.66689 2.54319,1.42419 0.66689,0.76861 0.66689,1.74068 0,0.82512 -0.49734,1.59373 -0.49734,0.75731 -1.44679,1.20943 -0.93816,0.45212 -2.15889,0.45212 -1.89892,0 -3.25529,-1.08509 l -0.23736,0.81382 h -0.80252 l -1.41288,-3.69611 1.02858,-0.40691 q 1.02858,1.62764 1.94412,2.30583 1.27725,0.96076 2.75795,0.96076 0.98337,0 1.61634,-0.51994 0.63298,-0.53125 0.63298,-1.17552 0,-0.53125 -0.39561,-0.97207 -0.40691,-0.42951 -1.55983,-0.83642 l -2.61101,-0.94946 q -1.68415,-0.61037 -2.33973,-1.33376 -0.65558,-0.7234 -0.65558,-1.66156 0,-1.14161 1.06249,-2.01194 1.07379,-0.88164 2.72404,-0.88164 0.85903,0 1.53722,0.22606 0.67818,0.21476 1.33376,0.72339 z"
         style="font-family:'Bookman Old Style';-inkscape-font-specification:'Bookman Old Style'"
         id="path2301" /><path
         d="m 172.00149,480.06268 v -0.92685 q 0.82512,-0.0678 1.4694,-0.27128 0.64427,-0.21476 1.4694,-0.68948 h 0.84773 v 2.13628 q 0.80252,-0.98337 1.86501,-1.55983 1.06249,-0.57645 1.91022,-0.57645 0.83643,0 1.32246,0.3956 0.48603,0.39561 0.48603,0.96076 0,0.40692 -0.32779,0.7234 -0.31649,0.30518 -0.76861,0.30518 -0.20345,0 -0.35039,-0.0565 -0.14694,-0.0565 -0.42952,-0.24867 -0.62167,-0.40691 -1.03988,-0.40691 -0.56516,0 -1.24334,0.47473 -0.85904,0.61037 -1.34507,1.19813 v 5.21071 q 0,0.67819 0.0678,0.92686 0.0791,0.23736 0.24867,0.41821 0.16954,0.16955 0.41821,0.24867 0.24867,0.0791 0.87034,0.0791 h 0.373 v 0.94946 h -5.84369 v -0.94946 h 0.48603 q 0.68949,0 0.90425,-0.12433 0.29388,-0.16955 0.42951,-0.46343 0.14694,-0.30518 0.14694,-1.0851 v -6.66881 z"
         style="font-family:'Bookman Old Style';-inkscape-font-specification:'Bookman Old Style'"
         id="path2303" /><path
         d="m 191.88361,486.43761 0.7234,0.58776 q -0.82513,0.98337 -1.60504,1.55983 -0.76861,0.57646 -1.4581,0.80252 -0.68948,0.23736 -1.61634,0.23736 -1.66155,0 -2.82576,-0.67818 -1.33377,-0.77991 -2.04586,-2.03456 -0.7121,-1.25464 -0.7121,-2.9614 0,-1.78589 0.68949,-3.05183 0.68949,-1.26595 1.92153,-1.98934 1.24333,-0.7347 2.87098,-0.7347 1.20943,0 2.10237,0.3843 0.89294,0.373 1.51461,1.14161 0.62167,0.75731 0.90425,1.74067 0.15824,0.57646 0.18085,1.49201 h -7.99128 q -0.0339,0.55385 -0.0339,0.82513 0,1.42418 0.49734,2.54319 0.49733,1.1077 1.31115,1.63894 0.82513,0.51995 1.86501,0.51995 0.88164,0 1.70677,-0.40692 0.82512,-0.41821 2.00064,-1.61634 z m -1.44679,-4.56644 q -0.16955,-1.03988 -0.48604,-1.53722 -0.30518,-0.49733 -0.88164,-0.79121 -0.56515,-0.29388 -1.27724,-0.29388 -0.7121,0 -1.33377,0.29388 -0.62166,0.29388 -1.03988,0.81382 -0.40691,0.51994 -0.71209,1.51461 z"
         style="font-family:'Bookman Old Style';-inkscape-font-specification:'Bookman Old Style'"
         id="path2305" /><path
         d="m 204.23786,486.20025 0.7234,0.58776 q -2.12498,2.83707 -5.09769,2.83707 -2.31713,0 -3.91086,-1.65025 -1.59374,-1.65025 -1.59374,-4.10301 0,-1.63895 0.7347,-2.9388 0.74601,-1.31116 2.05716,-2.03456 1.32246,-0.72339 3.02923,-0.72339 1.94413,0 3.24398,0.96076 1.29985,0.94946 1.29985,1.92152 0,0.51994 -0.30518,0.80252 -0.30518,0.28258 -0.68949,0.28258 -0.20345,0 -0.3956,-0.10173 -0.19216,-0.10173 -0.39561,-0.32779 -0.0904,-0.10173 -0.32779,-0.63297 -0.30518,-0.65558 -0.47473,-0.88164 -0.35039,-0.45213 -0.87034,-0.7121 -0.50863,-0.25997 -1.14161,-0.25997 -0.96076,0 -1.78588,0.53125 -0.81382,0.53124 -1.29986,1.57112 -0.47473,1.02858 -0.47473,2.46407 0,2.22671 1.18683,3.53787 1.02858,1.13031 2.45276,1.13031 0.65558,0 1.32246,-0.21476 0.67819,-0.22606 1.27725,-0.65558 0.44082,-0.30518 1.43549,-1.39028 z"
         style="font-family:'Bookman Old Style';-inkscape-font-specification:'Bookman Old Style'"
         id="path2307" /><path
         d="m 215.95916,486.43761 0.72339,0.58776 q -0.82512,0.98337 -1.60503,1.55983 -0.76861,0.57646 -1.4581,0.80252 -0.68949,0.23736 -1.61634,0.23736 -1.66155,0 -2.82577,-0.67818 -1.33376,-0.77991 -2.04586,-2.03456 -0.71209,-1.25464 -0.71209,-2.9614 0,-1.78589 0.68949,-3.05183 0.68949,-1.26595 1.92152,-1.98934 1.24334,-0.7347 2.87098,-0.7347 1.20943,0 2.10238,0.3843 0.89294,0.373 1.51461,1.14161 0.62167,0.75731 0.90424,1.74067 0.15825,0.57646 0.18085,1.49201 h -7.99127 q -0.0339,0.55385 -0.0339,0.82513 0,1.42418 0.49733,2.54319 0.49734,1.1077 1.31116,1.63894 0.82513,0.51995 1.86501,0.51995 0.88164,0 1.70676,-0.40692 0.82513,-0.41821 2.00065,-1.61634 z m -1.4468,-4.56644 q -0.16954,-1.03988 -0.48603,-1.53722 -0.30518,-0.49733 -0.88164,-0.79121 -0.56515,-0.29388 -1.27725,-0.29388 -0.71209,0 -1.33376,0.29388 -0.62167,0.29388 -1.03988,0.81382 -0.40691,0.51994 -0.7121,1.51461 z"
         style="font-family:'Bookman Old Style';-inkscape-font-specification:'Bookman Old Style'"
         id="path2309" /><path
         d="m 221.11336,473.07738 q 0.54255,0 0.92686,0.3843 0.3843,0.373 0.3843,0.91555 0,0.54255 -0.3843,0.92685 -0.38431,0.38431 -0.92686,0.38431 -0.54254,0 -0.92685,-0.38431 -0.3843,-0.3843 -0.3843,-0.92685 0,-0.54255 0.3843,-0.91555 0.38431,-0.3843 0.92685,-0.3843 z m -2.88228,6.9966 v -0.93815 q 0.93816,-0.11303 1.57113,-0.31649 0.64427,-0.20345 1.45809,-0.64427 h 0.82513 v 9.06506 q 0,0.47473 0.13564,0.7121 0.13563,0.23736 0.373,0.35039 0.24867,0.10173 0.89294,0.10173 h 0.53125 v 0.94946 h -5.78718 v -0.94946 h 0.46343 q 0.7573,0 1.01727,-0.13564 0.25997,-0.13563 0.3617,-0.3843 0.11303,-0.24867 0.11303,-1.16422 v -6.64621 z"
         style="font-family:'Bookman Old Style';-inkscape-font-specification:'Bookman Old Style'"
         id="path2311" /><path
         d="m 224.42517,478.44634 h 5.17681 v 0.94946 h -0.31649 q -0.64427,0 -0.80251,0.0452 -0.22607,0.0678 -0.3391,0.21476 -0.11303,0.14694 -0.11303,0.35039 0,0.28258 0.24867,0.91555 l 2.5771,6.43145 2.49798,-6.43145 q 0.23737,-0.62167 0.23737,-0.90424 0,-0.29388 -0.22607,-0.45213 -0.22606,-0.16954 -0.81382,-0.16954 h -0.54254 v -0.94946 h 4.46471 v 0.94946 q -0.46343,0.0113 -0.77991,0.14694 -0.30518,0.13563 -0.48603,0.35039 -0.16955,0.21476 -0.51995,1.02858 l -3.60568,8.4321 h -1.35637 l -3.62828,-8.62425 q -0.22607,-0.53124 -0.49734,-0.87034 -0.18085,-0.21475 -0.48603,-0.33909 -0.29388,-0.12433 -0.68949,-0.12433 z"
         style="font-family:'Bookman Old Style';-inkscape-font-specification:'Bookman Old Style'"
         id="path2313" /><path
         d="m 246.9748,486.43761 0.72339,0.58776 q -0.82512,0.98337 -1.60503,1.55983 -0.76861,0.57646 -1.4581,0.80252 -0.68949,0.23736 -1.61634,0.23736 -1.66155,0 -2.82577,-0.67818 -1.33376,-0.77991 -2.04586,-2.03456 -0.71209,-1.25464 -0.71209,-2.9614 0,-1.78589 0.68949,-3.05183 0.68949,-1.26595 1.92152,-1.98934 1.24334,-0.7347 2.87098,-0.7347 1.20943,0 2.10238,0.3843 0.89294,0.373 1.51461,1.14161 0.62167,0.75731 0.90424,1.74067 0.15825,0.57646 0.18085,1.49201 h -7.99127 q -0.0339,0.55385 -0.0339,0.82513 0,1.42418 0.49733,2.54319 0.49734,1.1077 1.31116,1.63894 0.82513,0.51995 1.86501,0.51995 0.88164,0 1.70676,-0.40692 0.82513,-0.41821 2.00065,-1.61634 z m -1.4468,-4.56644 q -0.16954,-1.03988 -0.48603,-1.53722 -0.30518,-0.49733 -0.88164,-0.79121 -0.56515,-0.29388 -1.27725,-0.29388 -0.71209,0 -1.33376,0.29388 -0.62167,0.29388 -1.03988,0.81382 -0.40691,0.51994 -0.7121,1.51461 z"
         style="font-family:'Bookman Old Style';-inkscape-font-specification:'Bookman Old Style'"
         id="path2315" /><path
         d="m 259.71337,474.60329 h 0.80252 v 3.84305 h 3.35701 v 1.13031 h -3.35701 v 6.81575 q 0,0.87034 0.14694,1.24334 0.15824,0.373 0.51994,0.61037 0.373,0.23736 0.82513,0.23736 1.07379,0 2.37364,-0.96076 v 1.0964 q -1.4807,1.00597 -2.99531,1.00597 -0.85904,0 -1.55983,-0.3843 -0.68948,-0.38431 -0.94946,-0.90425 -0.24866,-0.51994 -0.24866,-1.80849 v -6.95139 h -1.97804 v -0.94946 q 0.94946,-0.21476 1.52591,-0.66688 0.58776,-0.45213 0.94946,-1.17552 0.3617,-0.7234 0.58776,-2.1815 z"
         style="font-family:'Bookman Old Style';-inkscape-font-specification:'Bookman Old Style'"
         id="path2317" /><path
         d="m 265.53446,474.69372 v -0.97207 q 1.09639,-0.14694 1.70676,-0.33909 0.61037,-0.20345 1.27725,-0.61037 h 0.88164 v 7.47134 q 1.27725,-1.07379 2.41886,-1.57113 1.14161,-0.49733 2.18149,-0.49733 1.51461,0 2.49798,0.90424 0.97207,0.90425 0.97207,2.2041 v 5.54981 q 0,0.82513 0.12433,1.0851 0.13564,0.24867 0.44082,0.373 0.30518,0.11303 1.36767,0.11303 v 0.94946 h -5.83239 v -0.94946 h 0.42952 q 0.82513,0 1.0851,-0.12433 0.25997,-0.13564 0.373,-0.42952 0.12433,-0.30518 0.12433,-1.24334 v -3.85435 q 0,-1.27725 -0.0904,-1.66155 -0.16955,-0.65558 -0.70079,-1.05119 -0.53125,-0.3956 -1.35637,-0.3956 -0.92686,0 -1.94413,0.46342 -1.00598,0.45212 -2.09107,1.36767 v 5.66285 q 0,0.63297 0.11303,0.84773 0.11303,0.21475 0.373,0.31648 0.25997,0.10173 1.03988,0.10173 h 0.46343 v 0.94946 h -5.85499 v -0.94946 h 0.35039 q 0.82513,0 1.19813,-0.20346 0.20345,-0.10172 0.29388,-0.3956 0.0904,-0.29388 0.0904,-1.62765 v -11.48392 z"
         style="font-family:'Bookman Old Style';-inkscape-font-specification:'Bookman Old Style'"
         id="path2319" /><path
         d="m 280.79362,480.06268 v -0.92685 q 0.82512,-0.0678 1.4694,-0.27128 0.64427,-0.21476 1.4694,-0.68948 h 0.84773 v 2.13628 q 0.80252,-0.98337 1.86501,-1.55983 1.06249,-0.57645 1.91022,-0.57645 0.83642,0 1.32246,0.3956 0.48603,0.39561 0.48603,0.96076 0,0.40692 -0.32779,0.7234 -0.31649,0.30518 -0.76861,0.30518 -0.20345,0 -0.35039,-0.0565 -0.14694,-0.0565 -0.42952,-0.24867 -0.62167,-0.40691 -1.03988,-0.40691 -0.56516,0 -1.24334,0.47473 -0.85904,0.61037 -1.34507,1.19813 v 5.21071 q 0,0.67819 0.0678,0.92686 0.0791,0.23736 0.24867,0.41821 0.16954,0.16955 0.41821,0.24867 0.24867,0.0791 0.87034,0.0791 h 0.373 v 0.94946 h -5.84369 v -0.94946 h 0.48603 q 0.68949,0 0.90425,-0.12433 0.29388,-0.16955 0.42951,-0.46343 0.14694,-0.30518 0.14694,-1.0851 v -6.66881 z"
         style="font-family:'Bookman Old Style';-inkscape-font-specification:'Bookman Old Style'"
         id="path2321" /><path
         d="m 300.67571,486.43761 0.7234,0.58776 q -0.82513,0.98337 -1.60504,1.55983 -0.76861,0.57646 -1.4581,0.80252 -0.68948,0.23736 -1.61634,0.23736 -1.66155,0 -2.82577,-0.67818 -1.33376,-0.77991 -2.04585,-2.03456 -0.7121,-1.25464 -0.7121,-2.9614 0,-1.78589 0.68949,-3.05183 0.68949,-1.26595 1.92152,-1.98934 1.24334,-0.7347 2.87099,-0.7347 1.20942,0 2.10237,0.3843 0.89294,0.373 1.51461,1.14161 0.62167,0.75731 0.90425,1.74067 0.15824,0.57646 0.18085,1.49201 h -7.99128 q -0.0339,0.55385 -0.0339,0.82513 0,1.42418 0.49734,2.54319 0.49733,1.1077 1.31115,1.63894 0.82513,0.51995 1.86501,0.51995 0.88164,0 1.70677,-0.40692 0.82512,-0.41821 2.00064,-1.61634 z m -1.44679,-4.56644 q -0.16955,-1.03988 -0.48604,-1.53722 -0.30518,-0.49733 -0.88164,-0.79121 -0.56515,-0.29388 -1.27724,-0.29388 -0.7121,0 -1.33377,0.29388 -0.62167,0.29388 -1.03988,0.81382 -0.40691,0.51994 -0.71209,1.51461 z"
         style="font-family:'Bookman Old Style';-inkscape-font-specification:'Bookman Old Style'"
         id="path2323" /><path
         d="m 312.71349,486.43761 0.7234,0.58776 q -0.82513,0.98337 -1.60504,1.55983 -0.76861,0.57646 -1.4581,0.80252 -0.68948,0.23736 -1.61634,0.23736 -1.66155,0 -2.82577,-0.67818 -1.33376,-0.77991 -2.04585,-2.03456 -0.7121,-1.25464 -0.7121,-2.9614 0,-1.78589 0.68949,-3.05183 0.68949,-1.26595 1.92152,-1.98934 1.24334,-0.7347 2.87099,-0.7347 1.20943,0 2.10237,0.3843 0.89294,0.373 1.51461,1.14161 0.62167,0.75731 0.90425,1.74067 0.15824,0.57646 0.18085,1.49201 h -7.99128 q -0.0339,0.55385 -0.0339,0.82513 0,1.42418 0.49734,2.54319 0.49733,1.1077 1.31115,1.63894 0.82513,0.51995 1.86501,0.51995 0.88164,0 1.70677,-0.40692 0.82512,-0.41821 2.00064,-1.61634 z m -1.44679,-4.56644 q -0.16955,-1.03988 -0.48604,-1.53722 -0.30518,-0.49733 -0.88164,-0.79121 -0.56515,-0.29388 -1.27724,-0.29388 -0.7121,0 -1.33377,0.29388 -0.62167,0.29388 -1.03988,0.81382 -0.40691,0.51994 -0.71209,1.51461 z"
         style="font-family:'Bookman Old Style';-inkscape-font-specification:'Bookman Old Style'"
         id="path2325" /><path
         d="m 21.455819,507.98669 v -0.92685 q 0.847731,0 1.503309,-0.21476 0.655578,-0.21476 1.435491,-0.746 h 0.892943 v 1.88761 q 1.412884,-1.119 2.35104,-1.50331 0.938155,-0.3843 1.87631,-0.3843 1.932826,0 3.289196,1.51461 1.367672,1.51461 1.367672,3.94477 0,2.69013 -1.548522,4.4082 -1.412884,1.58243 -3.63959,1.58243 -1.107702,0 -2.079766,-0.41821 -0.700791,-0.29388 -1.61634,-1.05119 v 3.71872 q 0,0.83642 0.04521,0.98336 0.05652,0.21476 0.226062,0.3617 0.169546,0.14694 0.429516,0.19215 0.192153,0.0339 1.288551,0.0339 v 0.94946 h -5.821084 v -0.94946 h 0.508638 q 0.779912,0 1.005974,-0.12433 0.237365,-0.11303 0.350395,-0.3617 0.06782,-0.19215 0.06782,-1.17552 v -11.72129 z m 3.831743,1.16422 v 3.88826 q 0,0.7686 0.09042,1.14161 0.135637,0.57645 0.519942,1.03988 0.395608,0.46343 1.062489,0.79121 0.678185,0.32779 1.412885,0.32779 1.4694,0 2.543192,-1.1077 1.085095,-1.1077 1.085095,-3.35701 0,-2.10237 -0.892943,-3.24398 -0.892943,-1.15292 -2.113675,-1.15292 -0.791216,0 -1.718068,0.41822 -0.926852,0.41821 -1.989341,1.25464 z"
         style="font-family:'Bookman Old Style';-inkscape-font-specification:'Bookman Old Style'"
         id="path2327" /><path
         d="m 44.050669,510.73334 v -1.23204 q 0,-1.25464 -0.700791,-1.78588 -0.700791,-0.54255 -1.978039,-0.54255 -0.632972,0 -1.107701,0.15824 -0.474729,0.14694 -0.768609,0.41822 -0.282577,0.25997 -0.418214,0.59906 -0.05651,0.12433 -0.271274,0.96076 -0.259971,1.01728 -1.051186,1.01728 -0.452123,0 -0.7347,-0.29388 -0.271274,-0.30519 -0.271274,-0.81382 0,-0.74601 0.553851,-1.4581 0.553851,-0.7234 1.684158,-1.18682 1.141611,-0.47473 2.690133,-0.47473 1.446793,0 2.475373,0.45212 1.02858,0.44082 1.514613,1.27725 0.339092,0.57645 0.339092,2.10237 v 4.35168 q 0,0.92686 0.05651,1.20943 0.124334,0.48604 0.429517,0.7347 0.316486,0.23737 0.813822,0.23737 0.519941,0 1.243338,-0.24867 v 0.98337 q -0.938155,0.27127 -1.684158,0.27127 -0.802519,0 -1.35637,-0.22606 -0.542547,-0.22606 -0.892943,-0.65558 -0.350395,-0.44082 -0.452123,-1.03988 -1.356369,1.06249 -2.452767,1.492 -1.096399,0.42952 -2.215403,0.42952 -1.559825,0 -2.531889,-0.84773 -0.972065,-0.84773 -0.972065,-1.98934 0,-0.68949 0.350395,-1.31116 0.361699,-0.62167 1.085096,-1.0964 0.7347,-0.47473 2.294524,-0.83642 1.559825,-0.3617 4.329079,-0.65558 z m 0,0.98337 q -2.622314,0.3843 -3.243983,0.53124 -1.232036,0.28258 -1.76328,0.62167 -0.531245,0.33909 -0.757306,0.7347 -0.226062,0.3843 -0.226062,0.82512 0,0.44082 0.248668,0.85904 0.25997,0.40691 0.723397,0.64427 0.463426,0.23737 0.983367,0.23737 0.7347,0 1.661553,-0.3504 0.926852,-0.35039 2.373646,-1.36767 z"
         style="font-family:'Bookman Old Style';-inkscape-font-specification:'Bookman Old Style'"
         id="path2329" /><path
         d="m 48.504082,506.37035 h 5.199415 v 0.94946 h -0.361699 q -0.666881,0 -0.88164,0.10173 -0.339092,0.15824 -0.339092,0.49733 0,0.31649 0.259971,1.01728 l 2.339737,6.18278 2.283221,-5.74196 -0.203455,-0.53125 q -0.350396,-0.91554 -0.813822,-1.26594 -0.305183,-0.22606 -0.904246,-0.25997 v -0.94946 h 5.176809 v 0.94946 h -0.44082 q -0.621669,0 -0.802518,0.10173 -0.316486,0.18085 -0.316486,0.57645 0,0.3391 0.237364,0.93816 l 2.339737,6.18278 2.283222,-6.27321 q 0.180849,-0.50863 0.192152,-0.57645 0.03391,-0.12434 0.03391,-0.25997 0,-0.31649 -0.248668,-0.49734 -0.248667,-0.19215 -0.915549,-0.19215 H 62.20341 v -0.94946 h 4.385594 v 0.94946 q -0.486032,0.0226 -0.791215,0.16955 -0.305183,0.14694 -0.486033,0.3843 -0.180849,0.23736 -0.508638,1.06249 l -3.300498,8.34167 h -1.35637 l -2.61101,-6.51057 -2.577102,6.51057 h -1.345066 l -3.334407,-8.34167 q -0.316487,-0.80252 -0.519942,-1.06249 -0.203455,-0.25997 -0.508638,-0.40691 -0.29388,-0.14694 -0.746003,-0.14694 z"
         style="font-family:'Bookman Old Style';-inkscape-font-specification:'Bookman Old Style'"
         id="path2331" /><path
         d="m 67.414129,507.99799 v -0.94945 q 1.005974,-0.11304 1.50331,-0.27128 0.497335,-0.15824 1.43549,-0.67818 h 0.813822 v 2.14758 q 1.492006,-1.25464 2.543192,-1.69546 1.062489,-0.45212 2.147585,-0.45212 0.926852,0 1.638946,0.31648 0.712093,0.30519 1.152913,0.83643 0.452123,0.53125 0.599063,1.20943 0.09042,0.41821 0.09042,1.26594 v 4.97336 q 0,0.89294 0.124334,1.15291 0.135637,0.24867 0.418214,0.3617 0.282577,0.11303 1.390278,0.11303 v 0.94946 h -5.821084 v -0.94946 h 0.316486 q 0.813821,0 1.107701,-0.14694 0.29388,-0.14694 0.418214,-0.42952 0.135637,-0.28257 0.135637,-1.15291 v -4.15953 q 0,-1.28855 -0.214758,-1.78589 -0.203456,-0.49733 -0.712094,-0.80252 -0.497335,-0.31648 -1.265945,-0.31648 -0.915549,0 -1.955432,0.47473 -1.039883,0.46342 -2.011948,1.37897 v 5.21072 q 0,0.88164 0.124334,1.17552 0.135637,0.29388 0.429517,0.44082 0.203456,0.11303 1.085096,0.11303 h 0.327789 v 0.94946 h -5.821085 v -0.94946 h 0.282577 q 0.836428,0 1.141611,-0.13564 0.305183,-0.14694 0.429517,-0.50863 0.06782,-0.18085 0.06782,-1.24334 v -6.44276 z"
         style="font-family:'Bookman Old Style';-inkscape-font-specification:'Bookman Old Style'"
         id="path2333" /><path
         d="m 90.336766,506.37035 h 0.791216 l 1.017277,3.45874 -1.017277,0.33909 q -0.610366,-1.39027 -1.718068,-2.18149 -1.096398,-0.80252 -2.226706,-0.80252 -0.870337,0 -1.412884,0.42952 -0.542548,0.41821 -0.542548,0.97206 0,0.51995 0.395608,0.89295 0.384304,0.3843 1.72937,0.87033 l 2.2041,0.77992 q 1.865008,0.66688 2.543192,1.42418 0.666882,0.76861 0.666882,1.74068 0,0.82512 -0.497335,1.59373 -0.497336,0.75731 -1.446794,1.20943 -0.938156,0.45212 -2.158888,0.45212 -1.898917,0 -3.255286,-1.08509 l -0.237365,0.81382 h -0.802518 l -1.412885,-3.69611 1.02858,-0.40691 q 1.02858,1.62765 1.94413,2.30583 1.277247,0.96076 2.75795,0.96076 0.983368,0 1.61634,-0.51994 0.632972,-0.53124 0.632972,-1.17552 0,-0.53124 -0.395607,-0.97206 -0.406911,-0.42952 -1.559825,-0.83643 l -2.61101,-0.94946 q -1.684159,-0.61037 -2.339737,-1.33376 -0.655579,-0.7234 -0.655579,-1.66156 0,-1.14161 1.062489,-2.01194 1.073793,-0.88164 2.724042,-0.88164 0.859034,0 1.537218,0.22606 0.678185,0.21476 1.333763,0.7234 z"
         style="font-family:'Bookman Old Style';-inkscape-font-specification:'Bookman Old Style'"
         id="path2335" /><path
         d="m 101.27815,506.37035 h 5.19941 v 0.94946 h -0.36169 q -0.66689,0 -0.88164,0.10173 -0.3391,0.15824 -0.3391,0.49733 0,0.31649 0.25997,1.01728 l 2.33974,6.18278 2.28322,-5.74196 -0.20345,-0.53125 q -0.3504,-0.91554 -0.81382,-1.26594 -0.30519,-0.22606 -0.90425,-0.25997 v -0.94946 h 5.17681 v 0.94946 h -0.44082 q -0.62167,0 -0.80252,0.10173 -0.31649,0.18085 -0.31649,0.57645 0,0.3391 0.23737,0.93816 l 2.33973,6.18278 2.28323,-6.27321 q 0.18085,-0.50863 0.19215,-0.57645 0.0339,-0.12434 0.0339,-0.25997 0,-0.31649 -0.24867,-0.49734 -0.24867,-0.19215 -0.91555,-0.19215 h -0.41821 v -0.94946 h 4.38559 v 0.94946 q -0.48603,0.0226 -0.79121,0.16955 -0.30519,0.14694 -0.48604,0.3843 -0.18085,0.23736 -0.50864,1.06249 l -3.30049,8.34167 h -1.35637 l -2.61101,-6.51057 -2.5771,6.51057 h -1.34507 l -3.33441,-8.34167 q -0.31648,-0.80252 -0.51994,-1.06249 -0.20346,-0.25997 -0.50864,-0.40691 -0.29388,-0.14694 -0.746,-0.14694 z"
         style="font-family:'Bookman Old Style';-inkscape-font-specification:'Bookman Old Style'"
         id="path2337" /><path
         d="m 122.96875,501.00139 q 0.54255,0 0.92685,0.3843 0.38431,0.37301 0.38431,0.91555 0,0.54255 -0.38431,0.92686 -0.3843,0.3843 -0.92685,0.3843 -0.54255,0 -0.92685,-0.3843 -0.38431,-0.38431 -0.38431,-0.92686 0,-0.54254 0.38431,-0.91555 0.3843,-0.3843 0.92685,-0.3843 z m -2.88229,6.9966 v -0.93815 q 0.93816,-0.11303 1.57113,-0.31649 0.64428,-0.20345 1.4581,-0.64427 h 0.82512 v 9.06506 q 0,0.47473 0.13564,0.7121 0.13564,0.23736 0.373,0.35039 0.24867,0.10173 0.89295,0.10173 h 0.53124 v 0.94946 h -5.78718 v -0.94946 h 0.46343 q 0.75731,0 1.01728,-0.13564 0.25997,-0.13563 0.3617,-0.3843 0.11303,-0.24867 0.11303,-1.16422 v -6.64621 z"
         style="font-family:'Bookman Old Style';-inkscape-font-specification:'Bookman Old Style'"
         id="path2339" /><path
         d="m 130.08968,502.5273 h 0.80252 v 3.84305 h 3.35702 v 1.13031 h -3.35702 v 6.81575 q 0,0.87034 0.14694,1.24334 0.15825,0.373 0.51994,0.61037 0.37301,0.23736 0.82513,0.23736 1.07379,0 2.37365,-0.96076 v 1.0964 q -1.48071,1.00597 -2.99532,1.00597 -0.85903,0 -1.55982,-0.3843 -0.68949,-0.38431 -0.94946,-0.90425 -0.24867,-0.51994 -0.24867,-1.80849 v -6.95139 h -1.97804 v -0.94946 q 0.94946,-0.21476 1.52592,-0.66688 0.58776,-0.45212 0.94945,-1.17552 0.3617,-0.7234 0.58776,-2.1815 z"
         style="font-family:'Bookman Old Style';-inkscape-font-specification:'Bookman Old Style'"
         id="path2341" /><path
         d="m 135.91078,502.61773 v -0.97207 q 1.09639,-0.14694 1.70676,-0.33909 0.61037,-0.20345 1.27725,-0.61036 h 0.88164 v 7.47133 q 1.27725,-1.07379 2.41886,-1.57113 1.14161,-0.49733 2.18149,-0.49733 1.51461,0 2.49798,0.90424 0.97206,0.90425 0.97206,2.2041 v 5.54981 q 0,0.82513 0.12434,1.0851 0.13564,0.24867 0.44082,0.373 0.30518,0.11303 1.36767,0.11303 v 0.94946 h -5.83239 v -0.94946 h 0.42952 q 0.82513,0 1.0851,-0.12433 0.25997,-0.13564 0.373,-0.42952 0.12433,-0.30518 0.12433,-1.24334 v -3.85435 q 0,-1.27724 -0.0904,-1.66155 -0.16955,-0.65558 -0.70079,-1.05119 -0.53125,-0.3956 -1.35637,-0.3956 -0.92686,0 -1.94413,0.46342 -1.00598,0.45213 -2.09107,1.36768 v 5.66284 q 0,0.63297 0.11303,0.84773 0.11303,0.21476 0.373,0.31648 0.25997,0.10173 1.03988,0.10173 h 0.46343 v 0.94946 h -5.85499 v -0.94946 h 0.35039 q 0.82513,0 1.19813,-0.20345 0.20345,-0.10173 0.29388,-0.39561 0.0904,-0.29388 0.0904,-1.62765 v -11.48392 z"
         style="font-family:'Bookman Old Style';-inkscape-font-specification:'Bookman Old Style'"
         id="path2343" /><path
         d="m 158.57343,507.98669 v -0.92685 q 0.82513,-0.0678 1.4694,-0.27128 0.64428,-0.21475 1.4694,-0.68948 h 0.84774 v 2.13628 q 0.80251,-0.98337 1.865,-1.55983 1.06249,-0.57645 1.91022,-0.57645 0.83643,0 1.32246,0.3956 0.48603,0.39561 0.48603,0.96077 0,0.40691 -0.32778,0.72339 -0.31649,0.30519 -0.76861,0.30519 -0.20346,0 -0.3504,-0.0565 -0.14694,-0.0565 -0.42952,-0.24867 -0.62166,-0.40691 -1.03988,-0.40691 -0.56515,0 -1.24334,0.47473 -0.85903,0.61037 -1.34506,1.19813 v 5.21072 q 0,0.67818 0.0678,0.92685 0.0791,0.23736 0.24866,0.41821 0.16955,0.16955 0.41822,0.24867 0.24866,0.0791 0.87033,0.0791 h 0.37301 v 0.94946 h -5.8437 v -0.94946 h 0.48604 q 0.68948,0 0.90424,-0.12433 0.29388,-0.16955 0.42952,-0.46343 0.14694,-0.30518 0.14694,-1.08509 v -6.66882 z"
         style="font-family:'Bookman Old Style';-inkscape-font-specification:'Bookman Old Style'"
         id="path2345" /><path
         d="m 176.90703,510.73334 v -1.23204 q 0,-1.25464 -0.70079,-1.78588 -0.70079,-0.54255 -1.97803,-0.54255 -0.63298,0 -1.10771,0.15824 -0.47473,0.14694 -0.76861,0.41822 -0.28257,0.25997 -0.41821,0.59906 -0.0565,0.12433 -0.27127,0.96076 -0.25997,1.01728 -1.05119,1.01728 -0.45212,0 -0.7347,-0.29388 -0.27127,-0.30519 -0.27127,-0.81382 0,-0.74601 0.55385,-1.4581 0.55385,-0.7234 1.68416,-1.18682 1.14161,-0.47473 2.69013,-0.47473 1.44679,0 2.47537,0.45212 1.02858,0.44082 1.51461,1.27725 0.3391,0.57645 0.3391,2.10237 v 4.35168 q 0,0.92686 0.0565,1.20943 0.12434,0.48604 0.42952,0.7347 0.31649,0.23737 0.81382,0.23737 0.51994,0 1.24334,-0.24867 v 0.98337 q -0.93816,0.27127 -1.68416,0.27127 -0.80252,0 -1.35637,-0.22606 -0.54255,-0.22606 -0.89294,-0.65558 -0.3504,-0.44082 -0.45212,-1.03988 -1.35637,1.06249 -2.45277,1.492 -1.0964,0.42952 -2.21541,0.42952 -1.55982,0 -2.53188,-0.84773 -0.97207,-0.84773 -0.97207,-1.98934 0,-0.68949 0.3504,-1.31116 0.3617,-0.62167 1.08509,-1.0964 0.7347,-0.47473 2.29453,-0.83642 1.55982,-0.3617 4.32907,-0.65558 z m 0,0.98337 q -2.62231,0.3843 -3.24398,0.53124 -1.23203,0.28258 -1.76328,0.62167 -0.53124,0.33909 -0.7573,0.7347 -0.22607,0.3843 -0.22607,0.82512 0,0.44082 0.24867,0.85904 0.25997,0.40691 0.7234,0.64427 0.46342,0.23737 0.98337,0.23737 0.7347,0 1.66155,-0.3504 0.92685,-0.35039 2.37364,-1.36767 z"
         style="font-family:'Bookman Old Style';-inkscape-font-specification:'Bookman Old Style'"
         id="path2347" /><path
         d="m 182.21948,507.99799 v -0.94945 q 1.00597,-0.11304 1.50331,-0.27128 0.49734,-0.15824 1.43549,-0.67818 h 0.81382 v 2.14758 q 1.49201,-1.25464 2.54319,-1.69546 1.06249,-0.45212 2.14759,-0.45212 0.92685,0 1.63894,0.31648 0.7121,0.30519 1.15292,0.83643 0.45212,0.53125 0.59906,1.20943 0.0904,0.41821 0.0904,1.26594 v 4.97336 q 0,0.89294 0.12433,1.15291 0.13564,0.24867 0.41821,0.3617 0.28258,0.11303 1.39028,0.11303 v 0.94946 h -5.82108 v -0.94946 h 0.31648 q 0.81383,0 1.10771,-0.14694 0.29388,-0.14694 0.41821,-0.42952 0.13564,-0.28257 0.13564,-1.15291 v -4.15953 q 0,-1.28855 -0.21476,-1.78589 -0.20346,-0.49733 -0.7121,-0.80252 -0.49733,-0.31648 -1.26594,-0.31648 -0.91555,0 -1.95543,0.47473 -1.03989,0.46342 -2.01195,1.37897 v 5.21072 q 0,0.88164 0.12433,1.17552 0.13564,0.29388 0.42952,0.44082 0.20346,0.11303 1.0851,0.11303 h 0.32779 v 0.94946 h -5.82109 v -0.94946 h 0.28258 q 0.83643,0 1.14161,-0.13564 0.30518,-0.14694 0.42952,-0.50863 0.0678,-0.18085 0.0678,-1.24334 v -6.44276 z"
         style="font-family:'Bookman Old Style';-inkscape-font-specification:'Bookman Old Style'"
         id="path2349" /><path
         d="m 204.53175,502.60643 v -0.96077 q 0.76861,-0.0678 1.40158,-0.25997 0.64427,-0.20345 1.60504,-0.68948 h 0.84773 v 13.71063 q 0,0.94946 0.0452,1.15291 0.11303,0.42952 0.3843,0.59906 0.27128,0.16955 1.05119,0.16955 h 0.48603 v 0.94946 l -3.92217,0.18085 v -1.79719 q -1.1303,1.02858 -2.12497,1.4581 -0.98337,0.42951 -1.97804,0.42951 -2.04586,0 -3.40223,-1.63894 -1.34506,-1.65025 -1.34506,-3.96738 0,-1.65025 0.71209,-3.01792 0.7234,-1.37898 1.89892,-2.10238 1.17552,-0.72339 2.5771,-0.72339 1.07379,0 1.98934,0.373 0.91555,0.373 1.67285,1.119 v -4.98465 z m 1.89891,11.93604 v -4.27256 q 0,-0.91555 -0.35039,-1.492 -0.33909,-0.58776 -1.13031,-1.01728 -0.77991,-0.42952 -1.60504,-0.42952 -0.98336,0 -1.81979,0.54255 -0.82513,0.53124 -1.29985,1.54852 -0.46343,1.00597 -0.46343,2.44147 0,1.35636 0.42952,2.35104 0.44082,0.98336 1.17552,1.5033 0.7347,0.50864 1.50331,0.50864 0.7573,0 1.71806,-0.42951 0.96076,-0.44082 1.8424,-1.25465 z"
         style="font-family:'Bookman Old Style';-inkscape-font-specification:'Bookman Old Style'"
         id="path2351" /><path
         d="m 217.55289,506.09908 q 1.66155,0 2.87098,0.68948 1.22073,0.68949 1.92152,2.01195 0.70079,1.32246 0.70079,3.01792 0,1.69546 -0.72339,3.01792 -0.7121,1.32246 -1.95544,2.02326 -1.23203,0.68948 -2.9501,0.68948 -2.73534,0 -4.11432,-1.70676 -1.36767,-1.70677 -1.36767,-4.01259 0,-1.68416 0.71209,-2.98402 0.7121,-1.31115 1.98935,-2.02325 1.28855,-0.72339 2.91619,-0.72339 z m -0.0904,1.0964 q -1.28855,0 -2.18149,1.01727 -1.13031,1.26595 -1.13031,3.6848 0,2.32844 0.96076,3.54917 0.87034,1.0851 2.36235,1.0851 0.96076,0 1.70676,-0.50864 0.75731,-0.50864 1.22073,-1.61634 0.46343,-1.11901 0.46343,-2.62232 0,-1.4694 -0.49734,-2.63361 -0.3843,-0.92685 -1.16421,-1.43549 -0.76861,-0.51994 -1.74068,-0.51994 z"
         style="font-family:'Bookman Old Style';-inkscape-font-specification:'Bookman Old Style'"
         id="path2353" /><path
         d="m 224.78686,507.99799 v -0.96076 q 0.84773,-0.0791 1.4807,-0.27127 0.63297,-0.20346 1.4468,-0.66688 h 0.83642 v 1.89891 q 1.28855,-1.01727 2.01195,-1.36767 1.1077,-0.53124 2.11368,-0.53124 0.68948,0 1.34506,0.25997 0.66688,0.24867 1.06249,0.62167 0.40691,0.373 0.68949,1.01727 1.18682,-1.05118 2.1928,-1.4694 1.01727,-0.42951 2.05716,-0.42951 0.99467,0 1.75197,0.41821 0.76861,0.40691 1.1077,1.02858 0.3504,0.62167 0.3504,1.8198 v 5.24462 q 0,0.82513 0.0339,0.96076 0.0565,0.21476 0.23736,0.40692 0.19216,0.19215 0.42952,0.27127 0.23737,0.0791 0.88164,0.0791 h 0.3617 v 0.94946 h -5.68545 v -0.94946 q 0.97207,-0.0113 1.25464,-0.13564 0.29388,-0.13563 0.42952,-0.42951 0.14694,-0.29388 0.14694,-1.15292 v -4.98465 q 0,-0.94946 -0.16955,-1.31116 -0.16954,-0.3617 -0.61036,-0.59906 -0.42952,-0.24867 -1.07379,-0.24867 -0.80252,0 -1.68416,0.42952 -1.17552,0.58776 -1.85371,1.32246 v 5.39156 q 0,0.77992 0.0678,1.02858 0.0791,0.23737 0.24867,0.40691 0.18085,0.15825 0.40691,0.22607 0.23736,0.0565 1.13031,0.0565 v 0.94946 h -5.57242 v -0.94946 h 0.31649 q 0.66688,0 0.93815,-0.15824 0.28258,-0.15825 0.44082,-0.48603 0.11303,-0.25998 0.11303,-1.0738 v -4.81511 q 0,-1.06249 -0.16954,-1.43549 -0.15825,-0.373 -0.62167,-0.63297 -0.46343,-0.25997 -1.0851,-0.25997 -0.7347,0 -1.4807,0.3617 -1.1077,0.53124 -2.03455,1.39028 v 5.80978 q 0,0.51994 0.13563,0.76861 0.14694,0.23736 0.45213,0.3843 0.30518,0.14694 0.83642,0.14694 h 0.41822 v 0.94946 h -5.68545 v -0.94946 h 0.30518 q 0.77991,0 1.02858,-0.12433 0.3617,-0.16955 0.51994,-0.54255 0.0904,-0.20346 0.0904,-1.05119 v -6.6123 z"
         style="font-family:'Bookman Old Style';-inkscape-font-specification:'Bookman Old Style'"
         id="path2355" /><path
         d="m 253.85838,507.98669 v -0.92685 q 0.84773,0 1.50331,-0.21476 0.65557,-0.21476 1.43549,-0.746 h 0.89294 v 1.88761 q 1.41288,-1.119 2.35104,-1.50331 0.93815,-0.3843 1.87631,-0.3843 1.93283,0 3.28919,1.51461 1.36768,1.51461 1.36768,3.94477 0,2.69013 -1.54852,4.4082 -1.41289,1.58243 -3.63959,1.58243 -1.10771,0 -2.07977,-0.41821 -0.70079,-0.29388 -1.61634,-1.05119 v 3.71872 q 0,0.83642 0.0452,0.98336 0.0565,0.21476 0.22606,0.3617 0.16955,0.14694 0.42952,0.19215 0.19215,0.0339 1.28855,0.0339 v 0.94946 h -5.82108 v -0.94946 h 0.50863 q 0.77992,0 1.00598,-0.12433 0.23736,-0.11303 0.35039,-0.3617 0.0678,-0.19215 0.0678,-1.17552 v -11.72129 z m 3.83174,1.16422 v 3.88826 q 0,0.7686 0.0904,1.14161 0.13564,0.57645 0.51995,1.03988 0.3956,0.46343 1.06248,0.79121 0.67819,0.32779 1.41289,0.32779 1.4694,0 2.54319,-1.1077 1.0851,-1.1077 1.0851,-3.35701 0,-2.10237 -0.89295,-3.24398 -0.89294,-1.15292 -2.11367,-1.15292 -0.79122,0 -1.71807,0.41822 -0.92685,0.41821 -1.98934,1.25464 z"
         style="font-family:'Bookman Old Style';-inkscape-font-specification:'Bookman Old Style'"
         id="path2357" /><path
         d="m 274.03436,506.09908 q 1.66156,0 2.87099,0.68948 1.22073,0.68949 1.92152,2.01195 0.70079,1.32246 0.70079,3.01792 0,1.69546 -0.7234,3.01792 -0.71209,1.32246 -1.95543,2.02326 -1.23203,0.68948 -2.9501,0.68948 -2.73535,0 -4.11432,-1.70676 -1.36767,-1.70677 -1.36767,-4.01259 0,-1.68416 0.71209,-2.98402 0.71209,-1.31115 1.98934,-2.02325 1.28855,-0.72339 2.91619,-0.72339 z m -0.0904,1.0964 q -1.28855,0 -2.18149,1.01727 -1.13031,1.26595 -1.13031,3.6848 0,2.32844 0.96076,3.54917 0.87034,1.0851 2.36234,1.0851 0.96076,0 1.70677,-0.50864 0.7573,-0.50864 1.22073,-1.61634 0.46343,-1.11901 0.46343,-2.62232 0,-1.4694 -0.49734,-2.63361 -0.3843,-0.92685 -1.16422,-1.43549 -0.76861,-0.51994 -1.74067,-0.51994 z"
         style="font-family:'Bookman Old Style';-inkscape-font-specification:'Bookman Old Style'"
         id="path2359" /><path
         d="m 288.94314,506.37035 h 0.79121 l 1.01728,3.45874 -1.01728,0.33909 q -0.61036,-1.39027 -1.71806,-2.18149 -1.0964,-0.80252 -2.22671,-0.80252 -0.87034,0 -1.41288,0.42952 -0.54255,0.41821 -0.54255,0.97206 0,0.51995 0.39561,0.89295 0.3843,0.3843 1.72937,0.87033 l 2.2041,0.77992 q 1.865,0.66688 2.54319,1.42418 0.66688,0.76861 0.66688,1.74068 0,0.82512 -0.49733,1.59373 -0.49734,0.75731 -1.4468,1.20943 -0.93815,0.45212 -2.15889,0.45212 -1.89891,0 -3.25528,-1.08509 l -0.23737,0.81382 h -0.80252 l -1.41288,-3.69611 1.02858,-0.40691 q 1.02858,1.62765 1.94413,2.30583 1.27725,0.96076 2.75795,0.96076 0.98337,0 1.61634,-0.51994 0.63297,-0.53124 0.63297,-1.17552 0,-0.53124 -0.39561,-0.97206 -0.40691,-0.42952 -1.55982,-0.83643 l -2.61101,-0.94946 q -1.68416,-0.61037 -2.33974,-1.33376 -0.65558,-0.7234 -0.65558,-1.66156 0,-1.14161 1.06249,-2.01194 1.0738,-0.88164 2.72404,-0.88164 0.85904,0 1.53722,0.22606 0.67819,0.21476 1.33377,0.7234 z"
         style="font-family:'Bookman Old Style';-inkscape-font-specification:'Bookman Old Style'"
         id="path2361" /><path
         d="m 296.12057,501.00139 q 0.54254,0 0.92685,0.3843 0.3843,0.37301 0.3843,0.91555 0,0.54255 -0.3843,0.92686 -0.38431,0.3843 -0.92685,0.3843 -0.54255,0 -0.92686,-0.3843 -0.3843,-0.38431 -0.3843,-0.92686 0,-0.54254 0.3843,-0.91555 0.38431,-0.3843 0.92686,-0.3843 z m -2.88229,6.9966 v -0.93815 q 0.93816,-0.11303 1.57113,-0.31649 0.64428,-0.20345 1.4581,-0.64427 h 0.82512 v 9.06506 q 0,0.47473 0.13564,0.7121 0.13564,0.23736 0.373,0.35039 0.24867,0.10173 0.89294,0.10173 h 0.53125 v 0.94946 h -5.78718 v -0.94946 h 0.46343 q 0.7573,0 1.01728,-0.13564 0.25997,-0.13563 0.36169,-0.3843 0.11303,-0.24867 0.11303,-1.16422 v -6.64621 z"
         style="font-family:'Bookman Old Style';-inkscape-font-specification:'Bookman Old Style'"
         id="path2363" /><path
         d="m 303.24151,502.5273 h 0.80252 v 3.84305 h 3.35701 v 1.13031 h -3.35701 v 6.81575 q 0,0.87034 0.14694,1.24334 0.15824,0.373 0.51994,0.61037 0.373,0.23736 0.82512,0.23736 1.0738,0 2.37365,-0.96076 v 1.0964 q -1.4807,1.00597 -2.99531,1.00597 -0.85904,0 -1.55983,-0.3843 -0.68949,-0.38431 -0.94946,-0.90425 -0.24867,-0.51994 -0.24867,-1.80849 v -6.95139 h -1.97803 v -0.94946 q 0.94945,-0.21476 1.52591,-0.66688 0.58776,-0.45212 0.94946,-1.17552 0.3617,-0.7234 0.58776,-2.1815 z"
         style="font-family:'Bookman Old Style';-inkscape-font-specification:'Bookman Old Style'"
         id="path2365" /><path
         d="m 311.85445,501.00139 q 0.54255,0 0.92686,0.3843 0.3843,0.37301 0.3843,0.91555 0,0.54255 -0.3843,0.92686 -0.38431,0.3843 -0.92686,0.3843 -0.54254,0 -0.92685,-0.3843 -0.3843,-0.38431 -0.3843,-0.92686 0,-0.54254 0.3843,-0.91555 0.38431,-0.3843 0.92685,-0.3843 z m -2.88228,6.9966 v -0.93815 q 0.93815,-0.11303 1.57113,-0.31649 0.64427,-0.20345 1.45809,-0.64427 h 0.82513 v 9.06506 q 0,0.47473 0.13563,0.7121 0.13564,0.23736 0.37301,0.35039 0.24866,0.10173 0.89294,0.10173 h 0.53124 v 0.94946 h -5.78717 v -0.94946 h 0.46342 q 0.75731,0 1.01728,-0.13564 0.25997,-0.13563 0.3617,-0.3843 0.11303,-0.24867 0.11303,-1.16422 v -6.64621 z"
         style="font-family:'Bookman Old Style';-inkscape-font-specification:'Bookman Old Style'"
         id="path2367" /><path
         d="m 321.71074,506.09908 q 1.66155,0 2.87098,0.68948 1.22073,0.68949 1.92153,2.01195 0.70079,1.32246 0.70079,3.01792 0,1.69546 -0.7234,3.01792 -0.71209,1.32246 -1.95543,2.02326 -1.23204,0.68948 -2.95011,0.68948 -2.73534,0 -4.11432,-1.70676 -1.36767,-1.70677 -1.36767,-4.01259 0,-1.68416 0.7121,-2.98402 0.71209,-1.31115 1.98934,-2.02325 1.28855,-0.72339 2.91619,-0.72339 z m -0.0904,1.0964 q -1.28855,0 -2.1815,1.01727 -1.1303,1.26595 -1.1303,3.6848 0,2.32844 0.96076,3.54917 0.87033,1.0851 2.36234,1.0851 0.96076,0 1.70676,-0.50864 0.75731,-0.50864 1.22074,-1.61634 0.46342,-1.11901 0.46342,-2.62232 0,-1.4694 -0.49733,-2.63361 -0.38431,-0.92685 -1.16422,-1.43549 -0.76861,-0.51994 -1.74067,-0.51994 z"
         style="font-family:'Bookman Old Style';-inkscape-font-specification:'Bookman Old Style'"
         id="path2369" /><path
         d="m 328.97862,507.99799 v -0.94945 q 1.00597,-0.11304 1.50331,-0.27128 0.49734,-0.15824 1.43549,-0.67818 h 0.81382 v 2.14758 q 1.49201,-1.25464 2.54319,-1.69546 1.06249,-0.45212 2.14759,-0.45212 0.92685,0 1.63894,0.31648 0.7121,0.30519 1.15292,0.83643 0.45212,0.53125 0.59906,1.20943 0.0904,0.41821 0.0904,1.26594 v 4.97336 q 0,0.89294 0.12433,1.15291 0.13564,0.24867 0.41821,0.3617 0.28258,0.11303 1.39028,0.11303 v 0.94946 h -5.82108 v -0.94946 h 0.31648 q 0.81383,0 1.10771,-0.14694 0.29388,-0.14694 0.41821,-0.42952 0.13564,-0.28257 0.13564,-1.15291 v -4.15953 q 0,-1.28855 -0.21476,-1.78589 -0.20346,-0.49733 -0.7121,-0.80252 -0.49733,-0.31648 -1.26594,-0.31648 -0.91555,0 -1.95543,0.47473 -1.03989,0.46342 -2.01195,1.37897 v 5.21072 q 0,0.88164 0.12433,1.17552 0.13564,0.29388 0.42952,0.44082 0.20346,0.11303 1.0851,0.11303 h 0.32779 v 0.94946 h -5.82109 v -0.94946 h 0.28258 q 0.83643,0 1.14161,-0.13564 0.30518,-0.14694 0.42952,-0.50863 0.0678,-0.18085 0.0678,-1.24334 v -6.44276 z"
         style="font-family:'Bookman Old Style';-inkscape-font-specification:'Bookman Old Style'"
         id="path2371" /><path
         d="m 351.90127,506.37035 h 0.79121 l 1.01728,3.45874 -1.01728,0.33909 q -0.61036,-1.39027 -1.71806,-2.18149 -1.0964,-0.80252 -2.22671,-0.80252 -0.87034,0 -1.41288,0.42952 -0.54255,0.41821 -0.54255,0.97206 0,0.51995 0.39561,0.89295 0.3843,0.3843 1.72937,0.87033 l 2.2041,0.77992 q 1.865,0.66688 2.54319,1.42418 0.66688,0.76861 0.66688,1.74068 0,0.82512 -0.49733,1.59373 -0.49734,0.75731 -1.4468,1.20943 -0.93815,0.45212 -2.15889,0.45212 -1.89891,0 -3.25528,-1.08509 l -0.23737,0.81382 h -0.80252 l -1.41288,-3.69611 1.02858,-0.40691 q 1.02858,1.62765 1.94413,2.30583 1.27725,0.96076 2.75795,0.96076 0.98337,0 1.61634,-0.51994 0.63297,-0.53124 0.63297,-1.17552 0,-0.53124 -0.39561,-0.97206 -0.40691,-0.42952 -1.55982,-0.83643 l -2.61101,-0.94946 q -1.68416,-0.61037 -2.33974,-1.33376 -0.65558,-0.7234 -0.65558,-1.66156 0,-1.14161 1.06249,-2.01194 1.0738,-0.88164 2.72404,-0.88164 0.85904,0 1.53722,0.22606 0.67819,0.21476 1.33377,0.7234 z"
         style="font-family:'Bookman Old Style';-inkscape-font-specification:'Bookman Old Style'"
         id="path2373" /><path
         d="m 359.14655,514.6442 q 0.59906,0 1.00597,0.41822 0.41821,0.40691 0.41821,0.99467 0,0.58776 -0.41821,1.00597 -0.41821,0.40691 -1.00597,0.40691 -0.57646,0 -0.99468,-0.40691 -0.41821,-0.41821 -0.41821,-1.00597 0,-0.58776 0.40691,-0.99467 0.41822,-0.41822 1.00598,-0.41822 z"
         style="font-family:'Bookman Old Style';-inkscape-font-specification:'Bookman Old Style'"
         id="path2375" /><path
         d="m 21.82882,530.3948 v -0.96076 h 5.628932 q 3.865653,0 5.391568,0.48603 2.249312,0.71209 3.650894,2.65622 1.548521,2.14759 1.548521,4.93945 0,1.89892 -0.768609,3.53786 -0.757306,1.62764 -2.000645,2.62232 -1.02858,0.83642 -2.475373,1.18682 -1.446794,0.33909 -2.916194,0.33909 H 21.82882 v -0.94946 h 0.655579 l 0.214758,0.0113 q 0.418214,0 0.678185,-0.16955 0.271274,-0.16955 0.384304,-0.45212 0.07912,-0.21476 0.07912,-0.99467 v -10.54578 q 0,-0.89294 -0.113031,-1.15291 -0.158243,-0.35039 -0.508638,-0.48603 -0.203456,-0.0678 -1.390279,-0.0678 z m 4.11432,13.5863 h 3.413529 q 0.508639,0 1.684159,-0.18085 1.186823,-0.18085 1.695461,-0.44082 0.746003,-0.38431 1.446794,-1.23204 0.700791,-0.85903 1.073792,-2.04585 0.384305,-1.19813 0.384305,-2.73535 0,-1.52591 -0.384305,-2.64492 -0.373001,-1.119 -1.141611,-2.01195 -0.757306,-0.89294 -1.695461,-1.35636 -0.926852,-0.47473 -2.079766,-0.59907 -0.621669,-0.0565 -2.079766,-0.0565 H 25.94314 Z"
         style="font-family:'Bookman Old Style';-inkscape-font-specification:'Bookman Old Style'"
         id="path2377" /><path
         d="m 42.875148,528.9254 q 0.542548,0 0.926852,0.38431 0.384305,0.373 0.384305,0.91554 0,0.54255 -0.384305,0.92686 -0.384304,0.3843 -0.926852,0.3843 -0.542548,0 -0.926852,-0.3843 -0.384305,-0.38431 -0.384305,-0.92686 0,-0.54254 0.384305,-0.91554 0.384304,-0.38431 0.926852,-0.38431 z m -2.882284,6.9966 v -0.93815 q 0.938155,-0.11303 1.571127,-0.31649 0.644276,-0.20345 1.458097,-0.64427 h 0.825125 v 9.06507 q 0,0.47472 0.135637,0.71209 0.135636,0.23736 0.373001,0.35039 0.248668,0.10173 0.892943,0.10173 h 0.531245 v 0.94946 h -5.787175 v -0.94946 h 0.463426 q 0.757306,0 1.017277,-0.13563 0.25997,-0.13564 0.361698,-0.38431 0.113031,-0.24867 0.113031,-1.16422 V 535.922 Z"
         style="font-family:'Bookman Old Style';-inkscape-font-specification:'Bookman Old Style'"
         id="path2379" /><path
         d="m 54.675559,534.29436 h 0.791216 l 1.017276,3.45874 -1.017276,0.3391 q -0.610367,-1.39028 -1.718068,-2.1815 -1.096398,-0.80252 -2.226706,-0.80252 -0.870337,0 -1.412885,0.42952 -0.542547,0.41821 -0.542547,0.97206 0,0.51995 0.395607,0.89295 0.384305,0.3843 1.729371,0.87033 l 2.2041,0.77992 q 1.865008,0.66688 2.543192,1.42418 0.666882,0.76861 0.666882,1.74068 0,0.82512 -0.497336,1.59373 -0.497335,0.75731 -1.446793,1.20943 -0.938156,0.45212 -2.158888,0.45212 -1.898917,0 -3.255286,-1.08509 l -0.237365,0.81382 h -0.802518 l -1.412885,-3.69611 1.02858,-0.40691 q 1.02858,1.62765 1.944129,2.30583 1.277248,0.96076 2.757951,0.96076 0.983368,0 1.61634,-0.51994 0.632972,-0.53124 0.632972,-1.17552 0,-0.53124 -0.395607,-0.97206 -0.406911,-0.42952 -1.559825,-0.83643 l -2.611011,-0.94946 q -1.684158,-0.61037 -2.339736,-1.33376 -0.655579,-0.7234 -0.655579,-1.66155 0,-1.14162 1.062489,-2.01195 1.073793,-0.88164 2.724042,-0.88164 0.859034,0 1.537218,0.22606 0.678185,0.21476 1.333763,0.7234 z"
         style="font-family:'Bookman Old Style';-inkscape-font-specification:'Bookman Old Style'"
         id="path2381" /><path
         d="m 69.053075,542.04827 0.723397,0.58776 q -2.124979,2.83707 -5.097688,2.83707 -2.31713,0 -3.910864,-1.65024 -1.593734,-1.65025 -1.593734,-4.10302 0,-1.63895 0.7347,-2.9388 0.746003,-1.31116 2.05716,-2.03456 1.32246,-0.72339 3.029224,-0.72339 1.94413,0 3.243983,0.96076 1.299854,0.94946 1.299854,1.92152 0,0.51994 -0.305183,0.80252 -0.305183,0.28258 -0.689488,0.28258 -0.203455,0 -0.395607,-0.10173 -0.192152,-0.10173 -0.395608,-0.32779 -0.09042,-0.10173 -0.327789,-0.63297 -0.305183,-0.65558 -0.474729,-0.88164 -0.350396,-0.45212 -0.870337,-0.7121 -0.508639,-0.25997 -1.141611,-0.25997 -0.960761,0 -1.785886,0.53125 -0.813822,0.53124 -1.299854,1.57113 -0.474729,1.02858 -0.474729,2.46407 0,2.2267 1.186823,3.53786 1.02858,1.13031 2.452768,1.13031 0.655578,0 1.32246,-0.21476 0.678184,-0.22606 1.277247,-0.65558 0.44082,-0.30518 1.435491,-1.39028 z"
         style="font-family:'Bookman Old Style';-inkscape-font-specification:'Bookman Old Style'"
         id="path2383" /><path
         d="m 79.225844,538.65735 v -1.23204 q 0,-1.25464 -0.70079,-1.78588 -0.700791,-0.54255 -1.978039,-0.54255 -0.632972,0 -1.107701,0.15824 -0.47473,0.14694 -0.76861,0.41822 -0.282576,0.25997 -0.418213,0.59906 -0.05652,0.12433 -0.271274,0.96076 -0.259971,1.01728 -1.051186,1.01728 -0.452123,0 -0.7347,-0.29388 -0.271274,-0.30518 -0.271274,-0.81382 0,-0.74601 0.553851,-1.4581 0.55385,-0.7234 1.684158,-1.18682 1.141611,-0.47473 2.690132,-0.47473 1.446794,0 2.475374,0.45212 1.02858,0.44082 1.514612,1.27725 0.339092,0.57646 0.339092,2.10237 v 4.35169 q 0,0.92685 0.05652,1.20942 0.124334,0.48604 0.429517,0.7347 0.316486,0.23737 0.813821,0.23737 0.519942,0 1.243339,-0.24867 v 0.98337 q -0.938156,0.27127 -1.684159,0.27127 -0.802518,0 -1.356369,-0.22606 -0.542548,-0.22606 -0.892943,-0.65558 -0.350395,-0.44082 -0.452123,-1.03988 -1.356369,1.06249 -2.452768,1.49201 -1.096398,0.42951 -2.215403,0.42951 -1.559824,0 -2.531889,-0.84773 -0.972064,-0.84773 -0.972064,-1.98934 0,-0.68949 0.350395,-1.31116 0.361699,-0.62167 1.085095,-1.09639 0.7347,-0.47473 2.294525,-0.83643 1.559825,-0.3617 4.329078,-0.65558 z m 0,0.98337 q -2.622313,0.3843 -3.243983,0.53124 -1.232035,0.28258 -1.76328,0.62167 -0.531244,0.33909 -0.757306,0.7347 -0.226061,0.38431 -0.226061,0.82513 0,0.44082 0.248667,0.85903 0.259971,0.40691 0.723397,0.64427 0.463426,0.23737 0.983368,0.23737 0.7347,0 1.661552,-0.3504 0.926852,-0.35039 2.373646,-1.36767 z"
         style="font-family:'Bookman Old Style';-inkscape-font-specification:'Bookman Old Style'"
         id="path2385" /><path
         d="m 84.504381,535.9107 v -0.92685 q 0.825124,-0.0678 1.4694,-0.27127 0.644275,-0.21476 1.4694,-0.68949 h 0.847731 v 2.13628 q 0.802518,-0.98337 1.865007,-1.55983 1.062489,-0.57645 1.91022,-0.57645 0.836428,0 1.32246,0.39561 0.486032,0.3956 0.486032,0.96076 0,0.40691 -0.327789,0.72339 -0.316486,0.30519 -0.768609,0.30519 -0.203455,0 -0.350395,-0.0565 -0.14694,-0.0565 -0.429517,-0.24867 -0.62167,-0.40691 -1.039883,-0.40691 -0.565154,0 -1.243339,0.47473 -0.859034,0.61037 -1.345066,1.19813 v 5.21072 q 0,0.67818 0.06782,0.92685 0.07912,0.23736 0.248667,0.41821 0.169546,0.16955 0.418214,0.24867 0.248668,0.0791 0.870337,0.0791 h 0.373001 v 0.94946 h -5.84369 v -0.94946 h 0.486032 q 0.689488,0 0.904246,-0.12433 0.29388,-0.16955 0.429517,-0.46343 0.14694,-0.30518 0.14694,-1.08509 v -6.66882 z"
         style="font-family:'Bookman Old Style';-inkscape-font-specification:'Bookman Old Style'"
         id="path2387" /><path
         d="m 101.75287,530.53044 v -0.96076 q 0.76861,-0.0678 1.40158,-0.25997 0.64428,-0.20346 1.60504,-0.68949 h 0.84773 v 13.71063 q 0,0.94946 0.0452,1.15291 0.11303,0.42952 0.38431,0.59907 0.27127,0.16954 1.05118,0.16954 h 0.48603 v 0.94946 l -3.92216,0.18085 v -1.79719 q -1.13031,1.02858 -2.12498,1.4581 -0.98337,0.42951 -1.978039,0.42951 -2.045857,0 -3.402226,-1.63894 -1.345067,-1.65025 -1.345067,-3.96738 0,-1.65025 0.712094,-3.01792 0.723397,-1.37898 1.898917,-2.10238 1.17552,-0.72339 2.577102,-0.72339 1.073789,0 1.989339,0.373 0.91555,0.373 1.67286,1.119 v -4.98465 z m 1.89892,11.93605 v -4.27257 q 0,-0.91555 -0.3504,-1.492 -0.33909,-0.58776 -1.13031,-1.01728 -0.77991,-0.42952 -1.60503,-0.42952 -0.98337,0 -1.819798,0.54255 -0.825124,0.53125 -1.299854,1.54852 -0.463426,1.00598 -0.463426,2.44147 0,1.35637 0.429517,2.35104 0.44082,0.98336 1.17552,1.50331 0.7347,0.50863 1.503311,0.50863 0.7573,0 1.71807,-0.42951 0.96076,-0.44082 1.8424,-1.25464 z"
         style="font-family:'Bookman Old Style';-inkscape-font-specification:'Bookman Old Style'"
         id="path2389" /><path
         d="m 119.44219,530.45132 h 0.80251 v 3.84304 h 3.35702 v 1.13031 h -3.35702 v 6.81575 q 0,0.87034 0.14694,1.24334 0.15825,0.373 0.51995,0.61037 0.373,0.23736 0.82512,0.23736 1.07379,0 2.37365,-0.96076 v 1.0964 q -1.48071,1.00597 -2.99532,1.00597 -0.85903,0 -1.55982,-0.3843 -0.68949,-0.3843 -0.94946,-0.90425 -0.24867,-0.51994 -0.24867,-1.80849 v -6.95139 h -1.97804 v -0.94946 q 0.94946,-0.21476 1.52592,-0.66688 0.58776,-0.45212 0.94946,-1.17552 0.36169,-0.7234 0.58776,-2.18149 z"
         style="font-family:'Bookman Old Style';-inkscape-font-specification:'Bookman Old Style'"
         id="path2391" /><path
         d="m 125.26328,530.54174 v -0.97206 q 1.0964,-0.14694 1.70676,-0.3391 0.61037,-0.20345 1.27725,-0.61036 h 0.88164 v 7.47133 q 1.27725,-1.07379 2.41886,-1.57113 1.14161,-0.49733 2.18149,-0.49733 1.51461,0 2.49798,0.90424 0.97207,0.90425 0.97207,2.2041 v 5.54981 q 0,0.82513 0.12433,1.0851 0.13564,0.24867 0.44082,0.373 0.30518,0.11303 1.36767,0.11303 v 0.94946 h -5.83239 v -0.94946 h 0.42952 q 0.82513,0 1.0851,-0.12433 0.25997,-0.13564 0.373,-0.42952 0.12433,-0.30518 0.12433,-1.24334 v -3.85435 q 0,-1.27724 -0.0904,-1.66155 -0.16955,-0.65558 -0.70079,-1.05118 -0.53125,-0.39561 -1.35637,-0.39561 -0.92685,0 -1.94413,0.46342 -1.00598,0.45213 -2.09107,1.36768 v 5.66284 q 0,0.63297 0.11303,0.84773 0.11303,0.21476 0.373,0.31648 0.25997,0.10173 1.03988,0.10173 h 0.46343 v 0.94946 h -5.85499 v -0.94946 h 0.35039 q 0.82513,0 1.19813,-0.20345 0.20345,-0.10173 0.29388,-0.39561 0.0904,-0.29388 0.0904,-1.62764 v -11.48393 z"
         style="font-family:'Bookman Old Style';-inkscape-font-specification:'Bookman Old Style'"
         id="path2393" /><path
         d="m 143.33689,528.9254 q 0.54255,0 0.92685,0.38431 0.38431,0.373 0.38431,0.91554 0,0.54255 -0.38431,0.92686 -0.3843,0.3843 -0.92685,0.3843 -0.54255,0 -0.92685,-0.3843 -0.38431,-0.38431 -0.38431,-0.92686 0,-0.54254 0.38431,-0.91554 0.3843,-0.38431 0.92685,-0.38431 z m -2.88228,6.9966 v -0.93815 q 0.93815,-0.11303 1.57112,-0.31649 0.64428,-0.20345 1.4581,-0.64427 h 0.82513 v 9.06507 q 0,0.47472 0.13563,0.71209 0.13564,0.23736 0.373,0.35039 0.24867,0.10173 0.89295,0.10173 h 0.53124 v 0.94946 h -5.78717 v -0.94946 h 0.46342 q 0.75731,0 1.01728,-0.13563 0.25997,-0.13564 0.3617,-0.38431 0.11303,-0.24867 0.11303,-1.16422 V 535.922 Z"
         style="font-family:'Bookman Old Style';-inkscape-font-specification:'Bookman Old Style'"
         id="path2395" /><path
         d="m 155.13731,534.29436 h 0.79121 l 1.01728,3.45874 -1.01728,0.3391 q -0.61036,-1.39028 -1.71806,-2.1815 -1.0964,-0.80252 -2.22671,-0.80252 -0.87034,0 -1.41289,0.42952 -0.54254,0.41821 -0.54254,0.97206 0,0.51995 0.3956,0.89295 0.38431,0.3843 1.72938,0.87033 l 2.2041,0.77992 q 1.865,0.66688 2.54319,1.42418 0.66688,0.76861 0.66688,1.74068 0,0.82512 -0.49734,1.59373 -0.49733,0.75731 -1.44679,1.20943 -0.93816,0.45212 -2.15889,0.45212 -1.89891,0 -3.25528,-1.08509 l -0.23737,0.81382 h -0.80252 l -1.41288,-3.69611 1.02858,-0.40691 q 1.02858,1.62765 1.94413,2.30583 1.27725,0.96076 2.75795,0.96076 0.98337,0 1.61634,-0.51994 0.63297,-0.53124 0.63297,-1.17552 0,-0.53124 -0.39561,-0.97206 -0.40691,-0.42952 -1.55982,-0.83643 l -2.61101,-0.94946 q -1.68416,-0.61037 -2.33974,-1.33376 -0.65558,-0.7234 -0.65558,-1.66155 0,-1.14162 1.06249,-2.01195 1.07379,-0.88164 2.72404,-0.88164 0.85904,0 1.53722,0.22606 0.67819,0.21476 1.33376,0.7234 z"
         style="font-family:'Bookman Old Style';-inkscape-font-specification:'Bookman Old Style'"
         id="path2397" /><path
         d="m 176.91833,542.04827 0.7234,0.58776 q -2.12498,2.83707 -5.09769,2.83707 -2.31713,0 -3.91087,-1.65024 -1.59373,-1.65025 -1.59373,-4.10302 0,-1.63895 0.7347,-2.9388 0.746,-1.31116 2.05716,-2.03456 1.32246,-0.72339 3.02922,-0.72339 1.94413,0 3.24399,0.96076 1.29985,0.94946 1.29985,1.92152 0,0.51994 -0.30518,0.80252 -0.30519,0.28258 -0.68949,0.28258 -0.20346,0 -0.39561,-0.10173 -0.19215,-0.10173 -0.39561,-0.32779 -0.0904,-0.10173 -0.32778,-0.63297 -0.30519,-0.65558 -0.47473,-0.88164 -0.3504,-0.45212 -0.87034,-0.7121 -0.50864,-0.25997 -1.14161,-0.25997 -0.96076,0 -1.78589,0.53125 -0.81382,0.53124 -1.29985,1.57113 -0.47473,1.02858 -0.47473,2.46407 0,2.2267 1.18682,3.53786 1.02858,1.13031 2.45277,1.13031 0.65558,0 1.32246,-0.21476 0.67818,-0.22606 1.27725,-0.65558 0.44082,-0.30518 1.43549,-1.39028 z"
         style="font-family:'Bookman Old Style';-inkscape-font-specification:'Bookman Old Style'"
         id="path2399" /><path
         d="m 187.0911,538.65735 v -1.23204 q 0,-1.25464 -0.70079,-1.78588 -0.70079,-0.54255 -1.97804,-0.54255 -0.63297,0 -1.1077,0.15824 -0.47473,0.14694 -0.76861,0.41822 -0.28258,0.25997 -0.41821,0.59906 -0.0565,0.12433 -0.27128,0.96076 -0.25997,1.01728 -1.05118,1.01728 -0.45213,0 -0.7347,-0.29388 -0.27128,-0.30518 -0.27128,-0.81382 0,-0.74601 0.55385,-1.4581 0.55386,-0.7234 1.68416,-1.18682 1.14161,-0.47473 2.69014,-0.47473 1.44679,0 2.47537,0.45212 1.02858,0.44082 1.51461,1.27725 0.33909,0.57646 0.33909,2.10237 v 4.35169 q 0,0.92685 0.0565,1.20942 0.12433,0.48604 0.42952,0.7347 0.31648,0.23737 0.81382,0.23737 0.51994,0 1.24334,-0.24867 v 0.98337 q -0.93816,0.27127 -1.68416,0.27127 -0.80252,0 -1.35637,-0.22606 -0.54255,-0.22606 -0.89294,-0.65558 -0.3504,-0.44082 -0.45213,-1.03988 -1.35637,1.06249 -2.45277,1.49201 -1.09639,0.42951 -2.2154,0.42951 -1.55982,0 -2.53189,-0.84773 -0.97206,-0.84773 -0.97206,-1.98934 0,-0.68949 0.35039,-1.31116 0.3617,-0.62167 1.0851,-1.09639 0.7347,-0.47473 2.29452,-0.83643 1.55983,-0.3617 4.32908,-0.65558 z m 0,0.98337 q -2.62231,0.3843 -3.24398,0.53124 -1.23204,0.28258 -1.76328,0.62167 -0.53125,0.33909 -0.75731,0.7347 -0.22606,0.38431 -0.22606,0.82513 0,0.44082 0.24867,0.85903 0.25997,0.40691 0.7234,0.64427 0.46342,0.23737 0.98336,0.23737 0.7347,0 1.66156,-0.3504 0.92685,-0.35039 2.37364,-1.36767 z"
         style="font-family:'Bookman Old Style';-inkscape-font-specification:'Bookman Old Style'"
         id="path2401" /><path
         d="m 192.36964,535.9107 v -0.92685 q 0.82512,-0.0678 1.4694,-0.27127 0.64427,-0.21476 1.4694,-0.68949 h 0.84773 v 2.13628 q 0.80252,-0.98337 1.86501,-1.55983 1.06249,-0.57645 1.91022,-0.57645 0.83642,0 1.32246,0.39561 0.48603,0.3956 0.48603,0.96076 0,0.40691 -0.32779,0.72339 -0.31649,0.30519 -0.76861,0.30519 -0.20346,0 -0.3504,-0.0565 -0.14694,-0.0565 -0.42951,-0.24867 -0.62167,-0.40691 -1.03989,-0.40691 -0.56515,0 -1.24333,0.47473 -0.85904,0.61037 -1.34507,1.19813 v 5.21072 q 0,0.67818 0.0678,0.92685 0.0791,0.23736 0.24867,0.41821 0.16954,0.16955 0.41821,0.24867 0.24867,0.0791 0.87034,0.0791 h 0.373 v 0.94946 h -5.84369 v -0.94946 h 0.48603 q 0.68949,0 0.90425,-0.12433 0.29388,-0.16955 0.42951,-0.46343 0.14694,-0.30518 0.14694,-1.08509 v -6.66882 z"
         style="font-family:'Bookman Old Style';-inkscape-font-specification:'Bookman Old Style'"
         id="path2403" /><path
         d="m 209.61813,530.53044 v -0.96076 q 0.76861,-0.0678 1.40158,-0.25997 0.64427,-0.20346 1.60504,-0.68949 h 0.84773 v 13.71063 q 0,0.94946 0.0452,1.15291 0.11303,0.42952 0.3843,0.59907 0.27128,0.16954 1.05119,0.16954 h 0.48603 v 0.94946 l -3.92217,0.18085 v -1.79719 q -1.1303,1.02858 -2.12497,1.4581 -0.98337,0.42951 -1.97804,0.42951 -2.04586,0 -3.40223,-1.63894 -1.34506,-1.65025 -1.34506,-3.96738 0,-1.65025 0.71209,-3.01792 0.7234,-1.37898 1.89892,-2.10238 1.17552,-0.72339 2.5771,-0.72339 1.07379,0 1.98934,0.373 0.91555,0.373 1.67285,1.119 v -4.98465 z m 1.89891,11.93605 v -4.27257 q 0,-0.91555 -0.35039,-1.492 -0.33909,-0.58776 -1.13031,-1.01728 -0.77991,-0.42952 -1.60504,-0.42952 -0.98336,0 -1.81979,0.54255 -0.82513,0.53125 -1.29985,1.54852 -0.46343,1.00598 -0.46343,2.44147 0,1.35637 0.42952,2.35104 0.44082,0.98336 1.17552,1.50331 0.7347,0.50863 1.50331,0.50863 0.7573,0 1.71806,-0.42951 0.96076,-0.44082 1.8424,-1.25464 z"
         style="font-family:'Bookman Old Style';-inkscape-font-specification:'Bookman Old Style'"
         id="path2405" /><path
         d="m 219.79091,542.56821 q 0.59906,0 1.00597,0.41822 0.41822,0.40691 0.41822,0.99467 0,0.58776 -0.41822,1.00597 -0.41821,0.40691 -1.00597,0.40691 -0.57646,0 -0.99467,-0.40691 -0.41822,-0.41821 -0.41822,-1.00597 0,-0.58776 0.40692,-0.99467 0.41821,-0.41822 1.00597,-0.41822 z"
         style="font-family:'Bookman Old Style';-inkscape-font-specification:'Bookman Old Style'"
         id="path2407" /></g><g
       id="g6089"
       clip-path="url(#clipPath6141)"><path
         id="rect6093"
         style="fill:#2c5265;stroke-width:0.289246"
         d="M 4.7017326,31.71199 H 101.13161 v 80.49623 H 4.7017326 Z" /><g
         id="g6077"><path
           id="rect3790"
           style="fill:#8bb5c7;fill-rule:evenodd;stroke-width:0.601001"
           d="m 24.226774,45.748852 h 2.566853 v 29.814987 h -2.566853 z" /><g
           id="path3729"><path
             style="color:#000000;fill:#ffffff;stroke-width:0.886852;stroke-linecap:round;-inkscape-stroke:none"
             d="m 25.411476,71.286349 c -1.306624,0 -2.364929,1.058307 -2.364929,2.36493 0,0.526196 0.171459,1.011007 0.461161,1.407132 -1.152905,0.662183 -1.939244,1.897859 -1.939244,3.32273 0,1.200202 0.55576,2.270333 1.424871,2.973898 -1.773698,0.626706 -4.381034,3.28134 -4.381034,7.963903 h 13.59835 c 0,-4.682563 -2.607336,-7.337197 -4.381034,-7.963903 0.869111,-0.703565 1.424871,-1.773696 1.424871,-2.973898 0,-1.424871 -0.786339,-2.660547 -1.939244,-3.32273 0.289705,-0.396125 0.461161,-0.880936 0.461161,-1.407132 0,-1.306623 -1.058305,-2.36493 -2.364929,-2.36493 z"
             id="path2467" /><path
             style="color:#000000;fill:#000000;stroke-linecap:round;-inkscape-stroke:none"
             d="m 25.412109,70.84375 c -1.546059,0 -2.808593,1.260583 -2.808593,2.806641 0,0.478324 0.208755,0.887052 0.419921,1.283203 -1.10959,0.771972 -1.898437,1.993423 -1.898437,3.447265 0,1.121929 0.504096,2.088109 1.216797,2.851563 -1.930643,0.964259 -4.173828,3.624559 -4.173828,8.085937 v 0.44336 h 14.486328 v -0.44336 c 0,-4.461378 -2.243186,-7.121678 -4.173828,-8.085937 0.713036,-0.763518 1.216797,-1.729337 1.216797,-2.851563 0,-1.453337 -0.787539,-2.675208 -1.896485,-3.447265 0.211168,-0.396152 0.419922,-0.80488 0.419922,-1.283203 0,-1.546058 -1.262534,-2.806641 -2.808594,-2.806641 z m 0,0.886719 c 1.067186,0 1.919922,0.852736 1.919922,1.919922 0,0.429871 -0.137851,0.822222 -0.375,1.146484 l -0.292969,0.400391 0.429688,0.246093 c 1.021821,0.586894 1.716797,1.675772 1.716797,2.9375 0,1.063314 -0.489712,2.005531 -1.259766,2.628907 l -0.615234,0.5 0.746094,0.263671 c 1.475096,0.521201 3.846831,2.894178 4.023437,7.101563 H 19.119141 c 0.176621,-4.207357 2.546392,-6.580364 4.021484,-7.101563 l 0.748047,-0.263671 -0.617188,-0.5 c -0.770054,-0.623376 -1.259765,-1.565593 -1.259765,-2.628907 0,-1.261728 0.694976,-2.350606 1.716797,-2.9375 l 0.429687,-0.246093 -0.292969,-0.400391 c -0.237147,-0.324264 -0.375,-0.716615 -0.375,-1.146484 0,-1.067186 0.854689,-1.919922 1.921875,-1.919922 z"
             id="path2469" /></g></g><g
         id="g6013"><path
           id="rect4832"
           style="fill:#8bb5c7;fill-rule:evenodd;stroke-width:0.601001"
           d="m 51.869808,66.086227 h 2.566853 v 29.814988 h -2.566853 z" /><g
           id="path4834"><path
             style="color:#000000;fill:#ffffff;stroke-width:0.886852;stroke-linecap:round;-inkscape-stroke:none"
             d="m 53.054512,91.623725 c -1.306624,0 -2.364929,1.058307 -2.364929,2.36493 0,0.526196 0.171459,1.011007 0.461161,1.407132 -1.152905,0.662183 -1.939244,1.897859 -1.939244,3.32273 0,1.200202 0.55576,2.270333 1.424871,2.973903 -1.773698,0.6267 -4.381034,3.28134 -4.381034,7.9639 h 13.59835 c 0,-4.68256 -2.607336,-7.3372 -4.381034,-7.9639 0.869111,-0.70357 1.424871,-1.773701 1.424871,-2.973903 0,-1.424871 -0.786339,-2.660547 -1.939244,-3.32273 0.289705,-0.396125 0.461161,-0.880936 0.461161,-1.407132 0,-1.306623 -1.058305,-2.36493 -2.364929,-2.36493 z"
             id="path2475" /><path
             style="color:#000000;fill:#000000;stroke-linecap:round;-inkscape-stroke:none"
             d="m 53.054687,91.179687 c -1.546059,0 -2.808593,1.262536 -2.808593,2.808594 0,0.478325 0.208755,0.887053 0.419922,1.283203 -1.109591,0.771973 -1.898438,1.993423 -1.898438,3.447266 0,1.121928 0.504097,2.08811 1.216797,2.85156 -1.930414,0.96472 -4.171875,3.62536 -4.171875,8.08594 v 0.44336 h 14.484375 v -0.44336 c 0,-4.46058 -2.241461,-7.12122 -4.171875,-8.08594 0.7127,-0.76345 1.216797,-1.729632 1.216797,-2.85156 0,-1.453843 -0.788847,-2.675293 -1.898438,-3.447266 0.211168,-0.396151 0.419922,-0.80488 0.419922,-1.283203 0,-1.546058 -1.262534,-2.808594 -2.808594,-2.808594 z m 0,0.886719 c 1.067187,0 1.921875,0.85469 1.921875,1.921875 0,0.429872 -0.139804,0.822222 -0.376953,1.146485 l -0.291015,0.398437 0.429687,0.248047 c 1.021821,0.586893 1.714844,1.675772 1.714844,2.9375 0,1.063314 -0.48971,2.00552 -1.259766,2.62891 l -0.615234,0.49804 0.746094,0.26563 c 1.47513,0.52121 3.846936,2.89398 4.023437,7.10156 H 46.761719 c 0.176516,-4.20755 2.546359,-6.58036 4.021484,-7.10156 l 0.748047,-0.26563 -0.615234,-0.49804 c -0.770056,-0.62339 -1.261719,-1.565596 -1.261719,-2.62891 0,-1.261728 0.694976,-2.350607 1.716797,-2.9375 l 0.429687,-0.248047 -0.292969,-0.398437 c -0.237147,-0.324265 -0.375,-0.716615 -0.375,-1.146485 0,-1.067185 0.854689,-1.921875 1.921875,-1.921875 z"
             id="path2477" /></g></g><g
         id="g6009"><path
           id="rect4836"
           style="fill:#8bb5c7;fill-rule:evenodd;stroke-width:0.601001"
           d="m 75.168938,33.901836 h 2.566853 v 29.814988 h -2.566853 z" /><g
           id="path4838"
           inkscape:label="path4838"><path
             style="color:#000000;fill:#ffffff;stroke-width:0.886852;stroke-linecap:round;-inkscape-stroke:none"
             d="m 76.353641,59.439334 c -1.306624,0 -2.364929,1.058307 -2.364929,2.36493 0,0.526196 0.171459,1.011007 0.461161,1.407132 -1.152905,0.662183 -1.939244,1.897859 -1.939244,3.32273 0,1.200202 0.55576,2.270333 1.424871,2.973903 -1.773698,0.6267 -4.381034,3.28134 -4.381034,7.9639 h 13.59835 c 0,-4.68256 -2.607336,-7.3372 -4.381034,-7.9639 0.869111,-0.70357 1.424871,-1.773701 1.424871,-2.973903 0,-1.424871 -0.786339,-2.660547 -1.939244,-3.32273 0.289705,-0.396125 0.461161,-0.880936 0.461161,-1.407132 0,-1.306623 -1.058305,-2.36493 -2.364929,-2.36493 z"
             id="path2483" /><path
             style="color:#000000;fill:#000000;stroke-linecap:round;-inkscape-stroke:none"
             d="m 76.353516,58.996094 c -1.54606,0 -2.808594,1.262535 -2.808594,2.808593 0,0.478172 0.208881,0.885191 0.419922,1.28125 -1.109591,0.771973 -1.898438,1.993424 -1.898438,3.447266 0,1.121556 0.504517,2.088187 1.216797,2.851563 -1.930542,0.964462 -4.171875,3.626868 -4.171875,8.08789 v 0.44336 h 14.484375 v -0.44336 c 0,-4.461022 -2.241332,-7.123428 -4.171875,-8.08789 0.712281,-0.763376 1.216797,-1.730007 1.216797,-2.851563 0,-1.453842 -0.788847,-2.675293 -1.898438,-3.447266 0.211043,-0.39606 0.419922,-0.803079 0.419922,-1.28125 0,-1.546058 -1.262534,-2.808593 -2.808593,-2.808593 z m 0,0.886718 c 1.067186,0 1.921875,0.85469 1.921875,1.921875 0,0.429872 -0.137852,0.820269 -0.375,1.144532 l -0.292969,0.40039 0.429687,0.246094 c 1.021821,0.586893 1.716797,1.675772 1.716797,2.9375 0,1.063314 -0.491663,2.007478 -1.261719,2.630859 l -0.615234,0.498047 0.748047,0.263672 c 1.475125,0.521206 3.844968,2.895967 4.021484,7.103516 H 70.060547 c 0.176516,-4.207549 2.548312,-6.58231 4.023437,-7.103516 l 0.746094,-0.263672 -0.615234,-0.498047 c -0.770055,-0.623381 -1.261719,-1.567545 -1.261719,-2.630859 0,-1.261728 0.694976,-2.350607 1.716797,-2.9375 l 0.429687,-0.246094 -0.291015,-0.40039 c -0.237148,-0.324264 -0.376953,-0.714662 -0.376953,-1.144532 0,-1.067185 0.854689,-1.921874 1.921875,-1.921875 z"
             id="path2485" /></g></g><path
         id="path4894"
         style="fill:#498199;fill-rule:evenodd;stroke-width:0.42787"
         inkscape:label="path4894"
         d="M 93.498083 31.430037 L 90.256421 34.140983 L 86.832857 40.469279 L 86.666459 42.699117 L 93.498083 31.430037 z M 42.480009 31.637776 L 39.238346 34.348205 L 35.814782 40.676501 L 35.648384 42.906339 L 42.480009 31.637776 z M 25.027327 35.547099 L 21.785665 38.257527 L 18.362618 44.585823 L 18.195703 46.815661 L 25.027327 35.547099 z M 63.008988 37.207979 L 59.767326 39.918408 L 56.343762 46.246704 L 56.177364 48.476542 L 63.008988 37.207979 z M 10.64681 44.621997 L 7.4051471 47.332942 L 3.9815834 53.661238 L 3.8151853 55.891076 L 10.64681 44.621997 z M 42.898588 48.252266 L 39.656925 50.963212 L 36.233362 57.291508 L 36.066963 59.520829 L 42.898588 48.252266 z M 56.022851 54.39556 L 52.781189 57.105989 L 49.357625 63.434802 L 49.191227 65.664123 L 56.022851 54.39556 z M 92.310559 58.106445 L 89.068896 60.817391 L 85.645333 67.145687 L 85.478935 69.375525 L 92.310559 58.106445 z M 16.31158 59.322392 L 13.069918 62.03282 L 9.6468707 68.361633 L 9.4804726 70.590954 L 16.31158 59.322392 z M 66.188639 62.464319 L 62.946977 65.175264 L 59.523413 71.50356 L 59.357015 73.733398 L 66.188639 62.464319 z M 39.314827 67.714127 L 36.073165 70.424556 L 32.649601 76.752852 L 32.483203 78.98269 L 39.314827 67.714127 z M 103.41376 67.789058 L 100.17209 70.500004 L 96.749048 76.8283 L 96.582133 79.058138 L 103.41376 67.789058 z M 54.863749 75.049597 L 51.622086 77.760543 L 48.198523 84.088838 L 48.032125 86.31816 L 54.863749 75.049597 z M 82.092578 83.047042 L 78.850915 85.757987 L 75.427868 92.086283 L 75.260954 94.315604 L 82.092578 83.047042 z M 15.423262 87.162553 L 12.1816 89.873498 L 8.7580361 96.201794 L 8.591638 98.431632 L 15.423262 87.162553 z M 35.956376 92.124007 L 32.714713 94.834436 L 29.29115 101.16325 L 29.124752 103.39257 L 35.956376 92.124007 z M 95.455587 97.806864 L 92.213924 100.51781 L 88.790877 106.84611 L 88.623962 109.07594 L 95.455587 97.806864 z M 65.971081 99.172672 L 62.729419 101.8831 L 59.306372 108.21191 L 59.139457 110.44124 L 65.971081 99.172672 z M 20.28033 103.82045 L 17.038668 106.53088 L 13.615621 112.85969 L 13.448706 115.08901 L 20.28033 103.82045 z M 79.059688 104.65813 L 75.818025 107.36907 L 72.394979 113.69737 L 72.228064 115.92669 L 79.059688 104.65813 z " /></g><path
       style="color:#000000;fill:#331f14;-inkscape-stroke:none"
       d="m 4.2011719,31.212891 v 0.5 80.996089 H 101.63086 V 31.212891 Z m 1,1 H 100.63086 V 111.70898 H 5.2011719 Z"
       id="rect33301" /></g></svg>
