<?xml version="1.0" encoding="UTF-8" standalone="no"?>
<!-- Created with Inkscape (http://www.inkscape.org/) -->

<svg
   width="400.00006"
   height="600"
   viewBox="0 0 105.83335 158.75"
   version="1.1"
   id="svg5"
   inkscape:export-filename="CardTemplate.svg"
   inkscape:export-xdpi="26.281288"
   inkscape:export-ydpi="26.281288"
   sodipodi:docname="RevertCard.svg"
   inkscape:version="1.2.2 (732a01da63, 2022-12-09)"
   xmlns:inkscape="http://www.inkscape.org/namespaces/inkscape"
   xmlns:sodipodi="http://sodipodi.sourceforge.net/DTD/sodipodi-0.dtd"
   xmlns="http://www.w3.org/2000/svg"
   xmlns:svg="http://www.w3.org/2000/svg">
  <sodipodi:namedview
     id="namedview7"
     pagecolor="#505050"
     bordercolor="#ffffff"
     borderopacity="1"
     inkscape:showpageshadow="0"
     inkscape:pageopacity="0"
     inkscape:pagecheckerboard="1"
     inkscape:deskcolor="#505050"
     inkscape:document-units="mm"
     showgrid="false"
     showguides="true"
     inkscape:zoom="1.34"
     inkscape:cx="22.38806"
     inkscape:cy="300.37313"
     inkscape:window-width="1920"
     inkscape:window-height="991"
     inkscape:window-x="-9"
     inkscape:window-y="-9"
     inkscape:window-maximized="1"
     inkscape:current-layer="g1625" />
  <defs
     id="defs2">
    <linearGradient
       id="linearGradient38203"
       inkscape:swatch="solid">
      <stop
         style="stop-color:#000000;stop-opacity:1;"
         offset="0"
         id="stop38201" />
    </linearGradient>
    <linearGradient
       id="linearGradient38195"
       inkscape:swatch="solid">
      <stop
         style="stop-color:#000000;stop-opacity:1;"
         offset="0"
         id="stop38193" />
    </linearGradient>
    <inkscape:path-effect
       effect="spiro"
       id="path-effect37707"
       is_visible="true"
       lpeversion="1" />
    <linearGradient
       id="linearGradient3910"
       inkscape:swatch="solid">
      <stop
         style="stop-color:#000000;stop-opacity:1;"
         offset="0"
         id="stop3908" />
    </linearGradient>
    <linearGradient
       id="linearGradient3902"
       inkscape:swatch="solid">
      <stop
         style="stop-color:#000000;stop-opacity:1;"
         offset="0"
         id="stop3900" />
    </linearGradient>
    <linearGradient
       id="linearGradient1908"
       inkscape:swatch="gradient">
      <stop
         style="stop-color:#412a2a;stop-opacity:1;"
         offset="0.83033931"
         id="stop1904" />
      <stop
         style="stop-color:#412a2a;stop-opacity:0;"
         offset="0.84431136"
         id="stop1906" />
    </linearGradient>
    <rect
       x="20.732048"
       y="466.96472"
       width="356.39377"
       height="115.50713"
       id="rect857" />
    <rect
       x="13.821366"
       y="17.770327"
       width="368.24066"
       height="96.749557"
       id="rect721" />
  </defs>
  <g
     inkscape:label="Layer 1"
     inkscape:groupmode="layer"
     id="layer1"
     transform="translate(-0.33529438,-0.33529437)">
    <g
       id="rect386">
      <path
         style="color:#000000;fill:#c87137;stroke-width:2.64597;stroke-linejoin:round;-inkscape-stroke:none;paint-order:markers fill stroke"
         d="M 1.6582794,1.6582794 H 104.84566 V 157.76231 H 1.6582794 Z"
         id="path1995" />
      <path
         style="color:#000000;fill:#331f14;stroke-linejoin:round;-inkscape-stroke:none;paint-order:markers fill stroke"
         d="M 1.6582031,0.3359375 A 1.3231174,1.3231174 0 0 0 0.3359375,1.6582031 V 157.76172 a 1.3231174,1.3231174 0 0 0 1.3222656,1.32422 H 104.8457 a 1.3231174,1.3231174 0 0 0 1.32227,-1.32422 V 1.6582031 A 1.3231174,1.3231174 0 0 0 104.8457,0.3359375 Z M 2.9804688,2.9804688 H 103.52344 V 156.43945 H 2.9804688 Z"
         id="path1997" />
    </g>
    <g
       aria-label="Revert"
       transform="matrix(0.26458333,0,0,0.26458333,0,9.5250005)"
       id="text719"
       style="font-size:53.3333px;font-family:Broadway;-inkscape-font-specification:Broadway;text-align:center;letter-spacing:0px;word-spacing:0px;white-space:pre;stroke-width:0.999999">
      <path
         d="m 129.32263,36.800379 q 2.5,1.718749 5.39062,2.942707 2.91667,1.197916 6.25,1.874999 0.80729,0.15625 0.80729,0.781249 0,0.859375 -1.19791,0.859375 -2.73438,0 -7.68229,-2.395832 -4.11458,-2.005207 -9.42708,-6.197913 v 1.067707 l 0.026,4.427081 v 2.52604 h -15.85936 v -1.171874 l 0.0521,-8.489578 0.0781,-10.156244 -0.0521,-15.7291575 h 10.46875 q 7.03124,0 10.62499,0.3906248 3.59375,0.3906248 6.11979,1.4583325 4.11458,1.7187492 6.51041,5.6510382 2.21354,3.645831 2.21354,7.656246 0,4.27083 -2.47396,8.04687 -3.98437,6.067704 -11.84895,6.458329 z m -2.47395,-1.614582 1.24999,0.02604 q 5.36458,0 9.0625,-2.994789 2.34375,-1.874999 3.59375,-4.687498 1.17187,-2.578123 1.17187,-5.260413 0,-4.557289 -2.96875,-8.151037 -2.26562,-2.786457 -5.67708,-3.932289 -3.41145,-1.1458329 -9.60937,-1.2239579 L 123.43722,26.40976 v 4.713539 l 0.026,1.223958 q 1.58854,1.536457 3.38542,2.83854 z"
         id="path1968" />
      <path
         d="m 158.28095,29.300384 v 8.072912 q 0,2.343748 0.28645,2.968748 0.54688,1.197916 2.57813,1.197916 3.02083,0 5.96354,-1.640624 2.96874,-1.666666 5.1302,-4.583331 0.70313,-0.963541 1.01563,-1.223958 0.3125,-0.260416 0.67708,-0.260416 0.44271,0 0.72917,0.338541 0.28645,0.3125 0.28645,0.807292 0,1.093749 -1.74479,2.942706 -2.29166,2.36979 -5.70312,3.854165 -3.38541,1.484374 -6.61458,1.484374 -5.54687,0 -9.79166,-3.723956 -2.47396,-2.187499 -3.80208,-5.390622 -1.17187,-2.812499 -1.17187,-5.624997 0,-2.708332 1.04166,-5.416663 1.04167,-2.734374 2.86458,-4.713539 2.10938,-2.317707 5,-3.593748 2.83854,-1.249999 5.9375,-1.249999 4.8177,0 8.72395,2.83854 6.09375,4.42708 6.04166,12.838534 h -6.0677 l -7.8125,0.02604 z m 6.66666,-1.718749 v -7.604162 q -0.0521,-2.447916 -0.10417,-2.916665 -0.0521,-0.494792 -0.36458,-0.911458 -0.72917,-1.015625 -2.96875,-1.015625 -2.29166,0 -2.86458,1.171875 -0.36458,0.703124 -0.36458,3.671873 v 7.604162 l 3.17708,0.104166 z"
         id="path1970" />
      <path
         d="m 198.98405,29.482675 q 6.14583,-10.781243 7.42187,-13.984366 0.65104,-1.510416 0.96354,-1.927083 0.33854,-0.416666 0.83333,-0.416666 0.52084,0 0.9375,0.3125 0.41667,0.286458 0.41667,0.651041 0,0.416666 -0.57292,1.380208 l -15.18228,27.265608 -0.80729,1.484374 -6.92708,-10.911451 -2.29167,-3.61979 -2.39583,-3.671873 -2.05729,-3.255206 -5.85937,-8.541662 h 16.19791 l 6.30208,10.442702 z"
         id="path1972" />
      <path
         d="m 219.99966,29.300384 v 8.072912 q 0,2.343748 0.28646,2.968748 0.54687,1.197916 2.57812,1.197916 3.02083,0 5.96354,-1.640624 2.96875,-1.666666 5.1302,-4.583331 0.70313,-0.963541 1.01563,-1.223958 0.3125,-0.260416 0.67708,-0.260416 0.44271,0 0.72917,0.338541 0.28646,0.3125 0.28646,0.807292 0,1.093749 -1.7448,2.942706 -2.29166,2.36979 -5.70312,3.854165 -3.38541,1.484374 -6.61458,1.484374 -5.54687,0 -9.79166,-3.723956 -2.47395,-2.187499 -3.80208,-5.390622 -1.17187,-2.812499 -1.17187,-5.624997 0,-2.708332 1.04166,-5.416663 1.04167,-2.734374 2.86459,-4.713539 2.10937,-2.317707 4.99999,-3.593748 2.83854,-1.249999 5.9375,-1.249999 4.8177,0 8.72395,2.83854 6.09375,4.42708 6.04166,12.838534 h -6.0677 l -7.8125,0.02604 z m 6.66666,-1.718749 v -7.604162 q -0.0521,-2.447916 -0.10417,-2.916665 -0.0521,-0.494792 -0.36458,-0.911458 -0.72916,-1.015625 -2.96875,-1.015625 -2.29166,0 -2.86458,1.171875 -0.36458,0.703124 -0.36458,3.671873 v 7.604162 l 3.17708,0.104166 z"
         id="path1974" />
      <path
         d="m 254.84339,22.321221 -0.0521,9.999994 0.10417,10.364577 h -13.35937 l 0.026,-1.43229 0.026,-5.312497 0.0781,-9.557286 -0.10417,-10.624994 -0.026,-1.510416 h 13.33333 v 5.36458 q 2.99479,-3.177081 4.16666,-4.010414 2.70833,-1.90104 5.10416,-1.90104 1.45834,0 2.39584,0.624999 0.96354,0.625 0.96354,1.588541 0,0.755208 -0.57292,1.249999 -0.57292,0.494792 -1.43229,0.494792 -0.54688,0 -1.22396,-0.3125 -1.14583,-0.546875 -1.90104,-0.546875 -1.875,0 -3.61979,1.276041 -1.74479,1.276041 -3.90625,4.244789 z"
         id="path1976" />
      <path
         d="m 285.57254,5.0816481 -0.28645,8.4114529 -0.026,0.807292 q 2.26562,0 4.11458,-0.182292 0.3125,-0.02604 0.54687,-0.02604 1.14583,0 1.14583,1.041666 0,0.963542 -1.19791,0.963542 -0.36459,0 -0.91146,-0.05208 -2.05729,-0.15625 -2.94271,-0.15625 h -0.7552 l -0.026,5.052081 0.10417,10.130202 0.0781,5.416663 q 0,1.901041 0.28646,2.656249 0.28646,0.755208 0.98959,0.755208 0.9375,0 2.0052,-1.09375 1.04167,-1.093749 1.64063,-2.68229 0.54687,-1.510416 1.30208,-1.510416 0.88542,0 0.88542,0.989583 0,0.989583 -0.88542,2.473957 -0.88542,1.458333 -2.13542,2.552082 -3.07291,2.68229 -7.96874,2.68229 -4.60937,0 -7.13541,-2.786457 -1.30209,-1.406249 -1.79688,-3.124998 -0.49479,-1.74479 -0.49479,-4.817705 v -1.953124 l 0.026,-5.494789 v -9.322911 q -0.36458,-0.02604 -0.52083,-0.02604 -0.26042,0 -1.04167,0.05208 -0.65104,0.05208 -1.09375,0.05208 -1.27604,0 -1.27604,-0.963541 0,-0.937499 1.22396,-0.937499 0.57292,0 0.80729,0.02604 l 1.90104,0.130209 v -2.942707 q 7.70833,-2.7864566 13.43749,-6.1197879 z"
         id="path1978" />
    </g>
    <g
       aria-label="Description:"
       id="text733"
       style="font-size:7.05556px;font-family:Broadway;-inkscape-font-specification:Broadway;stroke-width:0.264583">
      <path
         d="m 4.7016462,116.51791 h 1.8121214 q 0.7096901,0 1.0679802,0.0689 0.8853902,0.16881 1.4297156,0.94396 0.4271921,0.60978 0.4271921,1.34359 0,0.74758 -0.4409725,1.36081 -0.530545,0.74069 -1.3849293,0.91984 -0.2204862,0.0448 -0.3927411,0.0551 -0.1722549,0.0103 -0.7579215,0.0103 H 4.7119815 l 0.010335,-2.27377 z m 2.1049547,0.22048 -0.017226,2.76986 0.020671,1.49173 q 0.4616431,-0.003 0.6614587,-0.0344 0.2032608,-0.0345 0.4650882,-0.14814 0.6166725,-0.26527 0.9680725,-0.85438 0.3066137,-0.50643 0.3066137,-1.09555 0,-0.64078 -0.3617353,-1.17822 -0.6442333,-0.95429 -1.9085841,-0.95429 z"
         id="path1919" />
      <path
         d="m 11.3748,119.44969 v 1.06798 q 0,0.31006 0.0379,0.39274 0.07235,0.15847 0.341065,0.15847 0.399631,0 0.788927,-0.21704 0.392742,-0.22049 0.678685,-0.60634 0.09302,-0.12746 0.134358,-0.16192 0.04134,-0.0344 0.08957,-0.0344 0.05857,0 0.09646,0.0448 0.0379,0.0413 0.0379,0.1068 0,0.14469 -0.230822,0.38929 -0.303168,0.31351 -0.754476,0.50988 -0.447863,0.19637 -0.875055,0.19637 -0.733806,0 -1.295357,-0.49265 -0.327284,-0.28939 -0.5029839,-0.71314 -0.1550294,-0.37207 -0.1550294,-0.74414 0,-0.35829 0.1378039,-0.71658 0.1378034,-0.36173 0.3789604,-0.62356 0.279053,-0.30661 0.661459,-0.47542 0.375516,-0.16537 0.785482,-0.16537 0.637343,0 1.154108,0.37552 0.806153,0.58566 0.799263,1.69843 h -0.802708 l -1.033529,0.003 z m 0.881945,-0.22738 v -1.00597 q -0.0069,-0.32384 -0.01378,-0.38585 -0.0069,-0.0655 -0.04823,-0.12058 -0.09646,-0.13436 -0.392742,-0.13436 -0.303168,0 -0.37896,0.15503 -0.04823,0.093 -0.04823,0.48576 v 1.00597 l 0.420302,0.0138 z"
         id="path1921" />
      <path
         d="m 14.161884,120.58312 q 0.0689,0 0.1757,0.10336 0.172254,0.16192 0.489203,0.27905 0.316949,0.11369 0.592557,0.11369 0.127469,0 0.189481,-0.0413 0.06546,-0.0448 0.06546,-0.12747 0,-0.0827 -0.08957,-0.19637 -0.08613,-0.11714 -0.389296,-0.44442 -0.740696,-0.79237 -0.961182,-1.11277 -0.217041,-0.32384 -0.217041,-0.62011 0,-0.25839 0.148139,-0.49265 0.151584,-0.23772 0.420302,-0.40308 0.444417,-0.27561 1.019749,-0.27561 0.423747,0 0.895725,0.17915 0.368625,0.14125 0.368625,0.30661 0,0.0517 -0.04479,0.093 -0.04134,0.0413 -0.09646,0.0413 -0.06546,0 -0.244602,-0.12747 -0.36518,-0.26183 -0.795817,-0.26183 -0.151584,0 -0.230822,0.0482 -0.07579,0.0482 -0.07579,0.14813 0,0.11714 0.141249,0.29628 0.144694,0.17915 0.582222,0.60634 0.427192,0.41686 0.54088,0.54777 0.117133,0.12747 0.223931,0.29628 0.182591,0.28939 0.182591,0.62701 0,0.53054 -0.51332,0.85783 -0.420302,0.27216 -1.033529,0.27216 -0.68213,0 -1.20923,-0.30317 -0.155029,-0.093 -0.213596,-0.15158 -0.05512,-0.0586 -0.05512,-0.12747 0,-0.12747 0.134359,-0.13092 z"
         id="path1923" />
      <path
         d="m 19.236512,118.20601 v 2.30132 l -0.0034,0.22049 q 0,0.21359 0.05168,0.28594 0.05512,0.0689 0.217041,0.0689 0.406522,0 0.799263,-0.24804 0.392741,-0.2515 0.640788,-0.6718 0.07579,-0.12747 0.148139,-0.12747 0.05168,0 0.09302,0.0482 0.04479,0.0448 0.04479,0.0965 0,0.12402 -0.199816,0.3514 -0.199815,0.22393 -0.465088,0.40307 -0.54088,0.36174 -1.157553,0.36174 -0.844049,0 -1.395264,-0.52366 -0.627008,-0.58911 -0.627008,-1.44349 0,-0.88195 0.661459,-1.46761 0.55466,-0.4961 1.367703,-0.4961 0.647679,0 1.133438,0.30662 0.206705,0.13091 0.337619,0.28249 0.130914,0.14814 0.130914,0.2515 0,0.0517 -0.0379,0.0896 -0.0379,0.0344 -0.09302,0.0344 -0.07235,0 -0.18259,-0.16537 -0.158474,-0.23082 -0.499539,-0.39963 -0.341065,-0.17225 -0.644233,-0.17225 -0.203261,0 -0.261828,0.11369 -0.05857,0.11369 -0.05857,0.49954 z"
         id="path1925" />
      <path
         d="m 23.353405,118.5264 -0.0069,1.32292 0.01378,1.37115 H 21.59296 l 0.0034,-0.18948 0.0034,-0.7028 0.01034,-1.26435 -0.01378,-1.4056 -0.0034,-0.19982 h 1.76389 v 0.70969 q 0.396186,-0.4203 0.551215,-0.53055 0.358291,-0.25149 0.67524,-0.25149 0.192925,0 0.316949,0.0827 0.127468,0.0827 0.127468,0.21015 0,0.0999 -0.07579,0.16536 -0.07579,0.0655 -0.18948,0.0655 -0.07235,0 -0.16192,-0.0413 -0.151584,-0.0724 -0.251492,-0.0724 -0.248047,0 -0.478869,0.16881 -0.230821,0.16881 -0.516764,0.56155 z"
         id="path1927" />
      <path
         d="m 26.202501,116.25264 q 0.909506,0 0.909506,0.47542 0,0.23082 -0.241157,0.36173 -0.237712,0.12747 -0.671794,0.12747 -0.86472,0 -0.86472,-0.4892 0,-0.46853 0.868165,-0.47542 z m 0.89228,1.20578 v 0.0999 l -0.0069,0.53743 -0.0069,0.83372 -0.01034,1.26779 0.01378,0.71314 0.0069,0.31006 h -1.77078 l 0.01722,-1.2678 0.01034,-1.11966 -0.0069,-0.58911 -0.01034,-0.65457 0.0034,-0.13091 z"
         id="path1929" />
      <path
         d="m 27.911269,117.45842 h 1.760445 l -0.01034,0.45131 q 0.347955,-0.29973 0.637343,-0.4203 0.289388,-0.12403 0.637343,-0.12403 0.713136,0 1.157553,0.53055 0.399631,0.47542 0.399631,1.20923 0,0.78203 -0.458198,1.28502 -0.423747,0.46509 -1.057645,0.46509 -0.334174,0 -0.664903,-0.13781 -0.33073,-0.14125 -0.658014,-0.4203 l 0.0034,0.12747 0.0034,0.45131 0.0069,0.37551 0.0034,0.12747 h -1.760445 l 0.0034,-0.98185 0.0069,-0.91295 -0.01034,-1.90514 z m 1.75011,0.76137 v 1.79834 q 0.251492,0.23426 0.451308,0.35484 0.199816,0.11714 0.347955,0.11714 0.137804,0 0.161919,-0.13436 0.0069,-0.0448 0.01034,-0.46509 v -1.68465 q 0,-0.29973 -0.01034,-0.35829 -0.02412,-0.1447 -0.144694,-0.1447 -0.155029,0 -0.375515,0.14125 -0.220487,0.1378 -0.440973,0.37552 z"
         id="path1931" />
      <path
         d="m 34.84625,116.24575 -0.0379,1.11276 -0.0034,0.1068 q 0.299723,0 0.544325,-0.0241 0.04134,-0.003 0.07235,-0.003 0.151585,0 0.151585,0.1378 0,0.12747 -0.158475,0.12747 -0.04823,0 -0.120578,-0.007 -0.272163,-0.0207 -0.389296,-0.0207 h -0.09991 l -0.0034,0.66835 0.01378,1.34014 0.01033,0.71658 q 0,0.2515 0.0379,0.3514 0.0379,0.0999 0.130913,0.0999 0.124024,0 0.265273,-0.14469 0.137804,-0.1447 0.217041,-0.35485 0.07235,-0.19981 0.172255,-0.19981 0.117133,0 0.117133,0.13091 0,0.13091 -0.117133,0.32728 -0.117133,0.19293 -0.282498,0.33762 -0.406522,0.35485 -1.0542,0.35485 -0.609782,0 -0.943957,-0.36863 -0.172255,-0.18603 -0.237712,-0.41341 -0.06546,-0.23082 -0.06546,-0.63734 v -0.25838 l 0.0034,-0.72692 v -1.23334 q -0.04823,-0.003 -0.0689,-0.003 -0.03445,0 -0.137804,0.007 -0.08613,0.007 -0.144694,0.007 -0.16881,0 -0.16881,-0.12747 0,-0.12402 0.161919,-0.12402 0.07579,0 0.106799,0.003 l 0.251492,0.0172 v -0.3893 q 1.019749,-0.36862 1.77767,-0.80959 z"
         id="path1933" />
      <path
         d="m 36.882303,116.25264 q 0.909506,0 0.909506,0.47542 0,0.23082 -0.241157,0.36173 -0.237712,0.12747 -0.671794,0.12747 -0.86472,0 -0.86472,-0.4892 0,-0.46853 0.868165,-0.47542 z m 0.89228,1.20578 v 0.0999 l -0.0069,0.53743 -0.0069,0.83372 -0.01034,1.26779 0.01378,0.71314 0.0069,0.31006 h -1.77078 l 0.01723,-1.2678 0.01034,-1.11966 -0.0069,-0.58911 -0.01034,-0.65457 0.0034,-0.13091 z"
         id="path1935" />
      <path
         d="m 40.313622,117.3654 q 0.554661,0 1.050755,0.30662 0.458198,0.28249 0.699355,0.7717 0.213596,0.43064 0.213596,0.91295 0,0.33073 -0.127469,0.6649 -0.124023,0.33418 -0.341064,0.59256 -0.303169,0.35484 -0.740696,0.53399 -0.358291,0.14814 -0.747587,0.14814 -0.651123,0 -1.171333,-0.38585 -0.406521,-0.29628 -0.616672,-0.76137 -0.1757,-0.39274 -0.1757,-0.83027 0,-0.85438 0.620117,-1.41938 0.582222,-0.52365 1.336698,-0.53399 z m -0.09991,0.22393 -0.01034,3.47266 q 0.106798,0.007 0.148139,0.007 0.478869,0 0.916396,-0.26872 0.420302,-0.26182 0.630453,-0.69591 0.165365,-0.3445 0.165365,-0.75792 0,-0.83027 -0.613228,-1.34703 -0.496094,-0.41686 -1.078315,-0.41686 -0.04823,0 -0.158475,0.007 z"
         id="path1937" />
      <path
         d="m 44.582098,117.45842 v 0.47887 q 0.403077,-0.28594 0.788927,-0.42719 0.385851,-0.1447 0.751032,-0.1447 0.489204,0 0.826823,0.22393 0.254937,0.16881 0.341065,0.42031 0.08957,0.24804 0.08957,0.81304 l -0.0069,1.59508 0.01034,0.80271 h -1.753555 l 0.01378,-0.95774 0.01033,-0.7028 -0.0034,-1.06109 q -0.0034,-0.36863 -0.01033,-0.43753 -0.0034,-0.0724 -0.03101,-0.12747 -0.05512,-0.11024 -0.237712,-0.11024 -0.168809,0 -0.36518,0.0965 -0.19637,0.0965 -0.423747,0.28939 l -0.0034,0.14125 -0.0069,0.96807 -0.0069,0.7407 0.01034,1.01286 0.0034,0.14814 h -1.760445 l 0.01034,-1.35048 0.01034,-0.89228 -0.01034,-0.7717 -0.01034,-0.74759 z"
         id="path1939" />
      <path
         d="m 49.067614,119.7942 q 0.458198,0 0.73725,0.20326 0.279053,0.20326 0.279053,0.54432 0,0.34796 -0.282498,0.56844 -0.282498,0.21704 -0.733805,0.21704 -0.568442,0 -0.85094,-0.31694 -0.165364,-0.18604 -0.165364,-0.43409 0,-0.3514 0.275608,-0.56155 0.275607,-0.21359 0.740696,-0.22048 z m 0,-1.97404 q 0.458198,0 0.73725,0.20326 0.279053,0.20326 0.279053,0.54432 0,0.34796 -0.282498,0.56844 -0.282498,0.21704 -0.733805,0.21704 -0.568442,0 -0.85094,-0.31695 -0.165364,-0.18603 -0.165364,-0.43408 0,-0.3514 0.275608,-0.56155 0.275607,-0.21359 0.740696,-0.22048 z"
         id="path1941" />
    </g>
    <g
       aria-label="Revert enemy capture, and claim the piece that attacked. Then discard this card."
       transform="matrix(0.27431353,0,0,0.27431353,-0.8676689,-4.702566)"
       id="text855"
       style="font-size:23.1487px;font-family:Broadway;-inkscape-font-specification:Broadway;white-space:pre;stroke-width:0.999999">
      <path
         d="m 21.851426,473.58602 h 8.138216 q 2.31713,0 3.503953,0.48603 1.186823,0.47473 1.819796,1.39028 0.644275,0.90424 0.644275,2.10237 0,1.23203 -0.621669,2.1928 -0.621669,0.94945 -1.797189,1.50331 -1.164217,0.54254 -3.097043,0.56515 l 4.159532,5.08638 q 0.508638,0.63298 0.666881,0.77992 0.395608,0.35039 0.825125,0.53124 0.44082,0.18085 0.983368,0.18085 h 0.282576 v 0.94946 h -3.594378 l -5.787175,-7.52785 h -2.023251 v 4.86032 q 0,0.81382 0.05652,1.01728 0.124333,0.3843 0.395607,0.54255 0.282577,0.15824 1.085096,0.15824 h 0.40691 v 0.94946 h -6.047146 v -0.94946 h 0.542548 q 0.610366,0 0.813822,-0.0791 0.214758,-0.0791 0.373001,-0.27128 0.169546,-0.20345 0.237365,-0.50863 0.02261,-0.12434 0.03391,-1.14161 v -10.33102 q 0,-0.67818 -0.135637,-0.97206 -0.135637,-0.29388 -0.384305,-0.41822 -0.237364,-0.13563 -0.836427,-0.13563 h -0.644276 z m 4.103017,1.23203 v 5.93412 h 3.243983 q 1.650249,0 2.317131,-0.20346 0.949458,-0.27127 1.492006,-0.99467 0.553851,-0.7234 0.553851,-1.8424 0,-0.94946 -0.395608,-1.59373 -0.395608,-0.65558 -1.085095,-0.97207 -0.678185,-0.32779 -2.034554,-0.32779 z"
         style="-inkscape-font-specification:'Bookman Old Style'"
         id="path1646" />
      <path
         d="m 47.91632,486.43761 0.723397,0.58776 q -0.825125,0.98337 -1.605037,1.55983 -0.768609,0.57646 -1.458097,0.80252 -0.689487,0.23736 -1.61634,0.23736 -1.661552,0 -2.825769,-0.67818 -1.333763,-0.77991 -2.045857,-2.03456 -0.712093,-1.25464 -0.712093,-2.9614 0,-1.78589 0.689487,-3.05183 0.689488,-1.26595 1.921523,-1.98934 1.243339,-0.7347 2.870982,-0.7347 1.209429,0 2.102372,0.3843 0.892943,0.373 1.514612,1.14161 0.621669,0.75731 0.904246,1.74067 0.158243,0.57646 0.18085,1.49201 H 40.56932 q -0.03391,0.55385 -0.03391,0.82513 0,1.42418 0.497336,2.54319 0.497335,1.1077 1.311156,1.63894 0.825125,0.51995 1.865008,0.51995 0.88164,0 1.706765,-0.40692 0.825124,-0.41821 2.000644,-1.61634 z m -1.446794,-4.56644 q -0.169546,-1.03988 -0.486032,-1.53722 -0.305183,-0.49733 -0.88164,-0.79121 -0.565154,-0.29388 -1.277248,-0.29388 -0.712093,0 -1.333763,0.29388 -0.621669,0.29388 -1.039883,0.81382 -0.40691,0.51994 -0.712093,1.51461 z"
         style="-inkscape-font-specification:'Bookman Old Style'"
         id="path1648" />
      <path
         d="m 49.442236,478.44634 h 5.176809 v 0.94946 h -0.316486 q -0.644276,0 -0.802519,0.0452 -0.226061,0.0678 -0.339092,0.21476 -0.113031,0.14694 -0.113031,0.35039 0,0.28258 0.248668,0.91555 l 2.577101,6.43145 2.49798,-6.43145 q 0.237365,-0.62167 0.237365,-0.90424 0,-0.29388 -0.226062,-0.45213 -0.226061,-0.16954 -0.813821,-0.16954 H 57.0266 v -0.94946 h 4.464716 v 0.94946 q -0.463427,0.0113 -0.779913,0.14694 -0.305183,0.13563 -0.486032,0.35039 -0.169546,0.21476 -0.519942,1.02858 l -3.605681,8.4321 h -1.356369 l -3.628288,-8.62425 q -0.226061,-0.53124 -0.497335,-0.87034 -0.180849,-0.21475 -0.486032,-0.33909 -0.29388,-0.12433 -0.689488,-0.12433 z"
         style="-inkscape-font-specification:'Bookman Old Style'"
         id="path1650" />
      <path
         d="m 71.991872,486.43761 0.723397,0.58776 q -0.825125,0.98337 -1.605037,1.55983 -0.768609,0.57646 -1.458097,0.80252 -0.689487,0.23736 -1.61634,0.23736 -1.661552,0 -2.825769,-0.67818 -1.333763,-0.77991 -2.045857,-2.03456 -0.712093,-1.25464 -0.712093,-2.9614 0,-1.78589 0.689487,-3.05183 0.689488,-1.26595 1.921523,-1.98934 1.243339,-0.7347 2.870982,-0.7347 1.209429,0 2.102372,0.3843 0.892943,0.373 1.514612,1.14161 0.621669,0.75731 0.904246,1.74067 0.158243,0.57646 0.18085,1.49201 h -7.991276 q -0.03391,0.55385 -0.03391,0.82513 0,1.42418 0.497336,2.54319 0.497335,1.1077 1.311156,1.63894 0.825125,0.51995 1.865008,0.51995 0.88164,0 1.706765,-0.40692 0.825124,-0.41821 2.000644,-1.61634 z m -1.446794,-4.56644 q -0.169546,-1.03988 -0.486032,-1.53722 -0.305183,-0.49733 -0.88164,-0.79121 -0.565154,-0.29388 -1.277248,-0.29388 -0.712093,0 -1.333763,0.29388 -0.621669,0.29388 -1.039883,0.81382 -0.40691,0.51994 -0.712093,1.51461 z"
         style="-inkscape-font-specification:'Bookman Old Style'"
         id="path1652" />
      <path
         d="m 74.331613,480.06268 v -0.92685 q 0.825125,-0.0678 1.4694,-0.27128 0.644276,-0.21476 1.4694,-0.68948 h 0.847731 v 2.13628 q 0.802518,-0.98337 1.865008,-1.55983 1.062489,-0.57645 1.910219,-0.57645 0.836428,0 1.32246,0.3956 0.486033,0.39561 0.486033,0.96076 0,0.40692 -0.32779,0.7234 -0.316486,0.30518 -0.768609,0.30518 -0.203455,0 -0.350395,-0.0565 -0.14694,-0.0565 -0.429517,-0.24867 -0.621669,-0.40691 -1.039883,-0.40691 -0.565154,0 -1.243338,0.47473 -0.859034,0.61037 -1.345067,1.19813 v 5.21071 q 0,0.67819 0.06782,0.92686 0.07912,0.23736 0.248668,0.41821 0.169546,0.16955 0.418213,0.24867 0.248668,0.0791 0.870337,0.0791 h 0.373002 v 0.94946 h -5.843691 v -0.94946 h 0.486033 q 0.689487,0 0.904246,-0.12433 0.29388,-0.16955 0.429517,-0.46343 0.14694,-0.30518 0.14694,-1.0851 v -6.66881 z"
         style="-inkscape-font-specification:'Bookman Old Style'"
         id="path1654" />
      <path
         d="m 87.510999,474.60329 h 0.802519 v 3.84305 h 3.357013 v 1.13031 h -3.357013 v 6.81575 q 0,0.87034 0.14694,1.24334 0.158243,0.373 0.519941,0.61037 0.373002,0.23736 0.825125,0.23736 1.073792,0 2.373646,-0.96076 v 1.0964 q -1.480703,1.00597 -2.995316,1.00597 -0.859033,0 -1.559824,-0.3843 -0.689488,-0.38431 -0.949459,-0.90425 -0.248667,-0.51994 -0.248667,-1.80849 v -6.95139 h -1.978039 v -0.94946 q 0.949459,-0.21476 1.525916,-0.66688 0.58776,-0.45213 0.949458,-1.17552 0.361699,-0.7234 0.58776,-2.1815 z"
         style="-inkscape-font-specification:'Bookman Old Style'"
         id="path1656" />
      <path
         d="m 110.41103,486.43761 0.7234,0.58776 q -0.82513,0.98337 -1.60504,1.55983 -0.76861,0.57646 -1.4581,0.80252 -0.68948,0.23736 -1.61634,0.23736 -1.66155,0 -2.82576,-0.67818 -1.33377,-0.77991 -2.04586,-2.03456 -0.7121,-1.25464 -0.7121,-2.9614 0,-1.78589 0.68949,-3.05183 0.68949,-1.26595 1.92153,-1.98934 1.24333,-0.7347 2.87098,-0.7347 1.20943,0 2.10237,0.3843 0.89294,0.373 1.51461,1.14161 0.62167,0.75731 0.90425,1.74067 0.15824,0.57646 0.18085,1.49201 h -7.99128 q -0.0339,0.55385 -0.0339,0.82513 0,1.42418 0.49734,2.54319 0.49733,1.1077 1.31115,1.63894 0.82513,0.51995 1.86501,0.51995 0.88164,0 1.70677,-0.40692 0.82512,-0.41821 2.00064,-1.61634 z m -1.44679,-4.56644 q -0.16955,-1.03988 -0.48603,-1.53722 -0.30519,-0.49733 -0.88164,-0.79121 -0.56516,-0.29388 -1.27725,-0.29388 -0.7121,0 -1.33377,0.29388 -0.62166,0.29388 -1.03988,0.81382 -0.40691,0.51994 -0.71209,1.51461 z"
         style="-inkscape-font-specification:'Bookman Old Style'"
         id="path1658" />
      <path
         d="m 112.78468,480.07398 v -0.94946 q 1.00598,-0.11303 1.50331,-0.27127 0.49734,-0.15824 1.43549,-0.67818 h 0.81382 v 2.14758 q 1.49201,-1.25464 2.5432,-1.69546 1.06248,-0.45212 2.14758,-0.45212 0.92685,0 1.63895,0.31648 0.71209,0.30518 1.15291,0.83643 0.45212,0.53124 0.59906,1.20943 0.0904,0.41821 0.0904,1.26594 v 4.97336 q 0,0.89294 0.12433,1.15291 0.13564,0.24867 0.41821,0.3617 0.28258,0.11303 1.39028,0.11303 v 0.94946 h -5.82108 v -0.94946 h 0.31648 q 0.81383,0 1.10771,-0.14694 0.29388,-0.14694 0.41821,-0.42952 0.13564,-0.28257 0.13564,-1.15291 v -4.15953 q 0,-1.28855 -0.21476,-1.78589 -0.20346,-0.49733 -0.7121,-0.80252 -0.49733,-0.31648 -1.26594,-0.31648 -0.91555,0 -1.95543,0.47473 -1.03988,0.46342 -2.01195,1.37897 v 5.21072 q 0,0.88164 0.12433,1.17552 0.13564,0.29388 0.42952,0.44082 0.20346,0.11303 1.0851,0.11303 h 0.32779 v 0.94946 h -5.82109 v -0.94946 h 0.28258 q 0.83643,0 1.14161,-0.13564 0.30518,-0.14694 0.42952,-0.50864 0.0678,-0.18084 0.0678,-1.24333 v -6.44276 z"
         style="-inkscape-font-specification:'Bookman Old Style'"
         id="path1660" />
      <path
         d="m 137.73057,486.43761 0.72339,0.58776 q -0.82512,0.98337 -1.60503,1.55983 -0.76861,0.57646 -1.4581,0.80252 -0.68949,0.23736 -1.61634,0.23736 -1.66155,0 -2.82577,-0.67818 -1.33376,-0.77991 -2.04586,-2.03456 -0.71209,-1.25464 -0.71209,-2.9614 0,-1.78589 0.68949,-3.05183 0.68948,-1.26595 1.92152,-1.98934 1.24334,-0.7347 2.87098,-0.7347 1.20943,0 2.10237,0.3843 0.89295,0.373 1.51462,1.14161 0.62166,0.75731 0.90424,1.74067 0.15824,0.57646 0.18085,1.49201 h -7.99127 q -0.0339,0.55385 -0.0339,0.82513 0,1.42418 0.49733,2.54319 0.49734,1.1077 1.31116,1.63894 0.82512,0.51995 1.86501,0.51995 0.88164,0 1.70676,-0.40692 0.82513,-0.41821 2.00065,-1.61634 z m -1.4468,-4.56644 q -0.16954,-1.03988 -0.48603,-1.53722 -0.30518,-0.49733 -0.88164,-0.79121 -0.56515,-0.29388 -1.27725,-0.29388 -0.71209,0 -1.33376,0.29388 -0.62167,0.29388 -1.03988,0.81382 -0.40692,0.51994 -0.7121,1.51461 z"
         style="-inkscape-font-specification:'Bookman Old Style'"
         id="path1662" />
      <path
         d="m 140.07031,480.07398 v -0.96076 q 0.84773,-0.0791 1.4807,-0.27127 0.63297,-0.20346 1.44679,-0.66688 h 0.83643 v 1.89891 q 1.28855,-1.01727 2.01195,-1.36767 1.1077,-0.53124 2.11367,-0.53124 0.68949,0 1.34507,0.25997 0.66688,0.24866 1.06249,0.62167 0.40691,0.373 0.68949,1.01727 1.18682,-1.05118 2.19279,-1.4694 1.01728,-0.42951 2.05716,-0.42951 0.99467,0 1.75198,0.41821 0.76861,0.40691 1.1077,1.02858 0.3504,0.62167 0.3504,1.81979 v 5.24463 q 0,0.82513 0.0339,0.96076 0.0565,0.21476 0.23736,0.40691 0.19215,0.19216 0.42952,0.27128 0.23736,0.0791 0.88164,0.0791 h 0.3617 v 0.94946 h -5.68545 v -0.94946 q 0.97206,-0.0113 1.25464,-0.13564 0.29388,-0.13563 0.42952,-0.42951 0.14694,-0.29388 0.14694,-1.15292 v -4.98465 q 0,-0.94946 -0.16955,-1.31116 -0.16954,-0.3617 -0.61036,-0.59906 -0.42952,-0.24867 -1.0738,-0.24867 -0.80252,0 -1.68416,0.42951 -1.17552,0.58776 -1.8537,1.32246 v 5.39157 q 0,0.77991 0.0678,1.02858 0.0791,0.23737 0.24867,0.40691 0.18085,0.15825 0.40691,0.22606 0.23736,0.0565 1.1303,0.0565 v 0.94946 h -5.57241 v -0.94946 h 0.31648 q 0.66689,0 0.93816,-0.15824 0.28258,-0.15825 0.44082,-0.48604 0.11303,-0.25997 0.11303,-1.07379 v -4.81511 q 0,-1.06249 -0.16955,-1.43549 -0.15824,-0.373 -0.62167,-0.63297 -0.46342,-0.25997 -1.08509,-0.25997 -0.7347,0 -1.4807,0.3617 -1.10771,0.53124 -2.03456,1.39027 v 5.80979 q 0,0.51994 0.13564,0.76861 0.14694,0.23736 0.45212,0.3843 0.30519,0.14694 0.83643,0.14694 h 0.41821 v 0.94946 h -5.68544 v -0.94946 h 0.30518 q 0.77991,0 1.02858,-0.12433 0.3617,-0.16955 0.51994,-0.54255 0.0904,-0.20346 0.0904,-1.05119 v -6.6123 z"
         style="-inkscape-font-specification:'Bookman Old Style'"
         id="path1664" />
      <path
         d="m 160.89057,478.44634 h 5.4933 v 0.94946 h -0.45212 q -0.64428,0 -0.76861,0.0339 -0.14694,0.0452 -0.24867,0.19215 -0.10173,0.13564 -0.10173,0.35039 0,0.30519 0.30518,1.02858 l 2.62232,6.16018 2.43016,-5.8889 q 0.42952,-1.03988 0.42952,-1.37898 0,-0.25997 -0.19216,-0.373 -0.19215,-0.12433 -0.87033,-0.12433 h -0.53125 v -0.94946 h 4.62296 v 0.94946 h -0.27127 q -0.67819,0 -0.88164,0.0904 -0.20346,0.0904 -0.39561,0.373 -0.19215,0.27128 -0.61037,1.25465 l -4.14823,9.66413 q -0.45212,1.03988 -1.00597,1.92152 -0.55385,0.89294 -1.39028,1.37897 -0.83643,0.48604 -1.8424,0.48604 -1.16422,0 -1.86501,-0.53125 -0.59906,-0.45212 -0.59906,-1.13031 0,-0.41821 0.25997,-0.70079 0.25997,-0.27127 0.61037,-0.27127 0.27127,0 0.50864,0.11303 0.14694,0.0565 0.61036,0.47473 0.56516,0.49733 0.79122,0.61037 0.23736,0.11303 0.46342,0.11303 0.46343,0 0.91555,-0.31649 0.45213,-0.31649 0.76861,-0.89294 0.45212,-0.82513 0.746,-1.54852 l 0.46343,-1.13031 -3.73001,-8.35298 q -0.39561,-0.88164 -0.66689,-1.18682 -0.27127,-0.30518 -0.54254,-0.373 -0.14694,-0.0452 -0.92686,-0.0452 z"
         style="-inkscape-font-specification:'Bookman Old Style'"
         id="path1666" />
      <path
         d="m 191.74796,486.20025 0.7234,0.58776 q -2.12498,2.83707 -5.09769,2.83707 -2.31713,0 -3.91086,-1.65025 -1.59373,-1.65025 -1.59373,-4.10301 0,-1.63895 0.7347,-2.9388 0.746,-1.31116 2.05716,-2.03456 1.32245,-0.72339 3.02922,-0.72339 1.94413,0 3.24398,0.96076 1.29986,0.94946 1.29986,1.92152 0,0.51994 -0.30519,0.80252 -0.30518,0.28258 -0.68948,0.28258 -0.20346,0 -0.39561,-0.10173 -0.19215,-0.10173 -0.39561,-0.32779 -0.0904,-0.10173 -0.32779,-0.63297 -0.30518,-0.65558 -0.47473,-0.88164 -0.35039,-0.45213 -0.87034,-0.7121 -0.50863,-0.25997 -1.14161,-0.25997 -0.96076,0 -1.78588,0.53125 -0.81382,0.53124 -1.29986,1.57112 -0.47472,1.02858 -0.47472,2.46407 0,2.22671 1.18682,3.53787 1.02858,1.13031 2.45277,1.13031 0.65557,0 1.32246,-0.21476 0.67818,-0.22606 1.27724,-0.65558 0.44082,-0.30518 1.43549,-1.39028 z"
         style="-inkscape-font-specification:'Bookman Old Style'"
         id="path1668" />
      <path
         d="m 201.92074,482.80933 v -1.23204 q 0,-1.25464 -0.70079,-1.78588 -0.70079,-0.54255 -1.97804,-0.54255 -0.63297,0 -1.1077,0.15824 -0.47473,0.14694 -0.76861,0.41821 -0.28258,0.25998 -0.41822,0.59907 -0.0565,0.12433 -0.27127,0.96076 -0.25997,1.01728 -1.05119,1.01728 -0.45212,0 -0.7347,-0.29388 -0.27127,-0.30519 -0.27127,-0.81383 0,-0.746 0.55385,-1.45809 0.55385,-0.7234 1.68416,-1.18683 1.14161,-0.47472 2.69013,-0.47472 1.44679,0 2.47537,0.45212 1.02858,0.44082 1.51462,1.27725 0.33909,0.57645 0.33909,2.10237 v 4.35168 q 0,0.92686 0.0565,1.20943 0.12434,0.48603 0.42952,0.7347 0.31649,0.23737 0.81382,0.23737 0.51994,0 1.24334,-0.24867 v 0.98337 q -0.93815,0.27127 -1.68416,0.27127 -0.80252,0 -1.35637,-0.22606 -0.54254,-0.22606 -0.89294,-0.65558 -0.35039,-0.44082 -0.45212,-1.03988 -1.35637,1.06249 -2.45277,1.492 -1.0964,0.42952 -2.2154,0.42952 -1.55983,0 -2.53189,-0.84773 -0.97207,-0.84773 -0.97207,-1.98934 0,-0.68949 0.3504,-1.31116 0.3617,-0.62167 1.08509,-1.0964 0.7347,-0.47473 2.29453,-0.83642 1.55982,-0.3617 4.32908,-0.65558 z m 0,0.98336 q -2.62232,0.38431 -3.24399,0.53125 -1.23203,0.28258 -1.76328,0.62167 -0.53124,0.33909 -0.7573,0.7347 -0.22606,0.3843 -0.22606,0.82512 0,0.44082 0.24866,0.85904 0.25998,0.40691 0.7234,0.64427 0.46343,0.23737 0.98337,0.23737 0.7347,0 1.66155,-0.3504 0.92685,-0.35039 2.37365,-1.36767 z"
         style="-inkscape-font-specification:'Bookman Old Style'"
         id="path1670" />
      <path
         d="m 207.10885,480.06268 v -0.92685 q 0.84773,0 1.50331,-0.21476 0.65558,-0.21476 1.43549,-0.746 h 0.89294 v 1.88761 q 1.41289,-1.11901 2.35104,-1.50331 0.93816,-0.3843 1.87631,-0.3843 1.93283,0 3.2892,1.51461 1.36767,1.51461 1.36767,3.94477 0,2.69013 -1.54852,4.4082 -1.41289,1.58243 -3.63959,1.58243 -1.1077,0 -2.07977,-0.41821 -0.70079,-0.29388 -1.61634,-1.05119 v 3.71871 q 0,0.83643 0.0452,0.98337 0.0565,0.21476 0.22607,0.3617 0.16954,0.14694 0.42951,0.19215 0.19216,0.0339 1.28855,0.0339 v 0.94946 h -5.82108 v -0.94946 h 0.50864 q 0.77991,0 1.00597,-0.12433 0.23737,-0.11303 0.3504,-0.3617 0.0678,-0.19215 0.0678,-1.17552 v -11.72129 z m 3.83174,1.16422 v 3.88825 q 0,0.76861 0.0904,1.14162 0.13563,0.57645 0.51994,1.03988 0.39561,0.46342 1.06249,0.79121 0.67818,0.32779 1.41288,0.32779 1.4694,0 2.54319,-1.1077 1.0851,-1.1077 1.0851,-3.35701 0,-2.10237 -0.89294,-3.24399 -0.89295,-1.15291 -2.11368,-1.15291 -0.79121,0 -1.71807,0.41821 -0.92685,0.41822 -1.98934,1.25465 z"
         style="-inkscape-font-specification:'Bookman Old Style'"
         id="path1672" />
      <path
         d="m 224.54949,474.60329 h 0.80252 v 3.84305 h 3.35702 v 1.13031 h -3.35702 v 6.81575 q 0,0.87034 0.14694,1.24334 0.15824,0.373 0.51994,0.61037 0.373,0.23736 0.82513,0.23736 1.07379,0 2.37364,-0.96076 v 1.0964 q -1.4807,1.00597 -2.99531,1.00597 -0.85904,0 -1.55983,-0.3843 -0.68948,-0.38431 -0.94945,-0.90425 -0.24867,-0.51994 -0.24867,-1.80849 v -6.95139 h -1.97804 v -0.94946 q 0.94946,-0.21476 1.52591,-0.66688 0.58776,-0.45213 0.94946,-1.17552 0.3617,-0.7234 0.58776,-2.1815 z"
         style="-inkscape-font-specification:'Bookman Old Style'"
         id="path1674" />
      <path
         d="m 229.76021,478.44634 4.28387,-0.16955 v 7.27918 q 0,0.96077 0.25997,1.52592 0.27127,0.56515 0.81382,0.88164 0.55385,0.30518 1.28855,0.30518 0.90425,0 2.04586,-0.48603 1.15291,-0.48603 2.29452,-1.44679 v -5.26724 q 0,-0.83642 -0.12433,-1.0964 -0.12434,-0.25997 -0.44082,-0.41821 -0.31649,-0.15824 -0.99467,-0.15824 h -0.82513 v -0.94946 l 4.28387,-0.16955 v 8.4321 q 0,0.81382 0.13563,1.13031 0.13564,0.30518 0.39561,0.44082 0.27128,0.12433 1.07379,0.12433 h 0.3504 v 0.94946 l -3.75262,0.19215 v -2.09107 q -1.54852,1.23204 -2.70144,1.70677 -1.15291,0.46342 -2.33973,0.46342 -0.88164,0 -1.53722,-0.23736 -0.64428,-0.23737 -1.14161,-0.7121 -0.48603,-0.47473 -0.74601,-1.14161 -0.25997,-0.66688 -0.25997,-1.42418 v -5.1429 q 0,-0.68949 -0.12433,-0.96077 -0.12433,-0.28257 -0.41821,-0.44082 -0.28258,-0.16954 -0.77992,-0.16954 h -1.03988 z"
         style="-inkscape-font-specification:'Bookman Old Style'"
         id="path1676" />
      <path
         d="m 246.09316,480.06268 v -0.92685 q 0.82513,-0.0678 1.4694,-0.27128 0.64428,-0.21476 1.4694,-0.68948 h 0.84773 v 2.13628 q 0.80252,-0.98337 1.86501,-1.55983 1.06249,-0.57645 1.91022,-0.57645 0.83643,0 1.32246,0.3956 0.48603,0.39561 0.48603,0.96076 0,0.40692 -0.32778,0.7234 -0.31649,0.30518 -0.76861,0.30518 -0.20346,0 -0.3504,-0.0565 -0.14694,-0.0565 -0.42952,-0.24867 -0.62167,-0.40691 -1.03988,-0.40691 -0.56515,0 -1.24334,0.47473 -0.85903,0.61037 -1.34506,1.19813 v 5.21071 q 0,0.67819 0.0678,0.92686 0.0791,0.23736 0.24867,0.41821 0.16955,0.16955 0.41822,0.24867 0.24866,0.0791 0.87033,0.0791 h 0.373 v 0.94946 h -5.84369 v -0.94946 h 0.48604 q 0.68948,0 0.90424,-0.12433 0.29388,-0.16955 0.42952,-0.46343 0.14694,-0.30518 0.14694,-1.0851 v -6.66881 z"
         style="-inkscape-font-specification:'Bookman Old Style'"
         id="path1678" />
      <path
         d="m 265.97527,486.43761 0.7234,0.58776 q -0.82513,0.98337 -1.60504,1.55983 -0.76861,0.57646 -1.4581,0.80252 -0.68948,0.23736 -1.61634,0.23736 -1.66155,0 -2.82577,-0.67818 -1.33376,-0.77991 -2.04585,-2.03456 -0.7121,-1.25464 -0.7121,-2.9614 0,-1.78589 0.68949,-3.05183 0.68949,-1.26595 1.92152,-1.98934 1.24334,-0.7347 2.87099,-0.7347 1.20943,0 2.10237,0.3843 0.89294,0.373 1.51461,1.14161 0.62167,0.75731 0.90425,1.74067 0.15824,0.57646 0.18085,1.49201 h -7.99128 q -0.0339,0.55385 -0.0339,0.82513 0,1.42418 0.49734,2.54319 0.49733,1.1077 1.31115,1.63894 0.82513,0.51995 1.86501,0.51995 0.88164,0 1.70677,-0.40692 0.82512,-0.41821 2.00064,-1.61634 z m -1.44679,-4.56644 q -0.16955,-1.03988 -0.48604,-1.53722 -0.30518,-0.49733 -0.88164,-0.79121 -0.56515,-0.29388 -1.27724,-0.29388 -0.7121,0 -1.33377,0.29388 -0.62167,0.29388 -1.03988,0.81382 -0.40691,0.51994 -0.71209,1.51461 z"
         style="-inkscape-font-specification:'Bookman Old Style'"
         id="path1680" />
      <path
         d="m 269.99917,493.44552 -0.61037,-0.746 q 2.31713,-1.88761 2.31713,-3.15356 0,-0.14694 -0.0226,-0.3617 -0.19215,0.0791 -0.373,0.12434 -0.18085,0.0452 -0.3391,0.0452 -0.54254,0 -0.87033,-0.3504 -0.32779,-0.35039 -0.32779,-0.89294 0,-0.53124 0.39561,-0.92685 0.3956,-0.39561 0.94945,-0.39561 0.76861,0 1.31116,0.62167 0.55385,0.61037 0.55385,1.58243 0,0.63297 -0.25997,1.32246 -0.25997,0.70079 -0.7573,1.28855 -0.49734,0.59906 -1.96674,1.8424 z"
         style="-inkscape-font-specification:'Bookman Old Style'"
         id="path1682" />
      <path
         d="m 291.27157,482.80933 v -1.23204 q 0,-1.25464 -0.70079,-1.78588 -0.70079,-0.54255 -1.97804,-0.54255 -0.63297,0 -1.1077,0.15824 -0.47473,0.14694 -0.76861,0.41821 -0.28258,0.25998 -0.41822,0.59907 -0.0565,0.12433 -0.27127,0.96076 -0.25997,1.01728 -1.05119,1.01728 -0.45212,0 -0.7347,-0.29388 -0.27127,-0.30519 -0.27127,-0.81383 0,-0.746 0.55385,-1.45809 0.55385,-0.7234 1.68416,-1.18683 1.14161,-0.47472 2.69013,-0.47472 1.44679,0 2.47537,0.45212 1.02858,0.44082 1.51462,1.27725 0.33909,0.57645 0.33909,2.10237 v 4.35168 q 0,0.92686 0.0565,1.20943 0.12434,0.48603 0.42952,0.7347 0.31649,0.23737 0.81382,0.23737 0.51994,0 1.24334,-0.24867 v 0.98337 q -0.93815,0.27127 -1.68416,0.27127 -0.80252,0 -1.35637,-0.22606 -0.54254,-0.22606 -0.89294,-0.65558 -0.35039,-0.44082 -0.45212,-1.03988 -1.35637,1.06249 -2.45277,1.492 -1.0964,0.42952 -2.2154,0.42952 -1.55983,0 -2.53189,-0.84773 -0.97207,-0.84773 -0.97207,-1.98934 0,-0.68949 0.3504,-1.31116 0.3617,-0.62167 1.08509,-1.0964 0.7347,-0.47473 2.29453,-0.83642 1.55982,-0.3617 4.32908,-0.65558 z m 0,0.98336 q -2.62232,0.38431 -3.24399,0.53125 -1.23203,0.28258 -1.76328,0.62167 -0.53124,0.33909 -0.7573,0.7347 -0.22606,0.3843 -0.22606,0.82512 0,0.44082 0.24866,0.85904 0.25998,0.40691 0.7234,0.64427 0.46343,0.23737 0.98337,0.23737 0.7347,0 1.66155,-0.3504 0.92685,-0.35039 2.37365,-1.36767 z"
         style="-inkscape-font-specification:'Bookman Old Style'"
         id="path1684" />
      <path
         d="m 296.584,480.07398 v -0.94946 q 1.00597,-0.11303 1.50331,-0.27127 0.49733,-0.15824 1.43549,-0.67818 h 0.81382 v 2.14758 q 1.49201,-1.25464 2.54319,-1.69546 1.06249,-0.45212 2.14759,-0.45212 0.92685,0 1.63894,0.31648 0.7121,0.30518 1.15292,0.83643 0.45212,0.53124 0.59906,1.20943 0.0904,0.41821 0.0904,1.26594 v 4.97336 q 0,0.89294 0.12434,1.15291 0.13563,0.24867 0.41821,0.3617 0.28258,0.11303 1.39028,0.11303 v 0.94946 h -5.82108 v -0.94946 h 0.31648 q 0.81382,0 1.1077,-0.14694 0.29388,-0.14694 0.41822,-0.42952 0.13563,-0.28257 0.13563,-1.15291 v -4.15953 q 0,-1.28855 -0.21475,-1.78589 -0.20346,-0.49733 -0.7121,-0.80252 -0.49733,-0.31648 -1.26594,-0.31648 -0.91555,0 -1.95544,0.47473 -1.03988,0.46342 -2.01194,1.37897 v 5.21072 q 0,0.88164 0.12433,1.17552 0.13564,0.29388 0.42952,0.44082 0.20345,0.11303 1.08509,0.11303 h 0.32779 v 0.94946 H 296.584 v -0.94946 h 0.28257 q 0.83643,0 1.14162,-0.13564 0.30518,-0.14694 0.42951,-0.50864 0.0678,-0.18084 0.0678,-1.24333 v -6.44276 z"
         style="-inkscape-font-specification:'Bookman Old Style'"
         id="path1686" />
      <path
         d="m 318.89628,474.68241 v -0.96076 q 0.76861,-0.0678 1.40158,-0.25997 0.64428,-0.20345 1.60504,-0.68949 h 0.84773 v 13.71064 q 0,0.94946 0.0452,1.15291 0.11303,0.42952 0.38431,0.59906 0.27127,0.16955 1.05118,0.16955 h 0.48603 v 0.94946 l -3.92216,0.18085 v -1.79719 q -1.13031,1.02858 -2.12498,1.4581 -0.98337,0.42951 -1.97804,0.42951 -2.04586,0 -3.40223,-1.63894 -1.34506,-1.65025 -1.34506,-3.96738 0,-1.65025 0.71209,-3.01793 0.7234,-1.37897 1.89892,-2.10237 1.17552,-0.72339 2.5771,-0.72339 1.07379,0 1.98934,0.373 0.91555,0.373 1.67286,1.119 v -4.98466 z m 1.89892,11.93605 v -4.27256 q 0,-0.91555 -0.3504,-1.49201 -0.33909,-0.58776 -1.13031,-1.01727 -0.77991,-0.42952 -1.60503,-0.42952 -0.98337,0 -1.8198,0.54255 -0.82512,0.53124 -1.29985,1.54852 -0.46343,1.00597 -0.46343,2.44146 0,1.35637 0.42952,2.35104 0.44082,0.98337 1.17552,1.50331 0.7347,0.50864 1.50331,0.50864 0.7573,0 1.71807,-0.42951 0.96076,-0.44082 1.8424,-1.25465 z"
         style="-inkscape-font-specification:'Bookman Old Style'"
         id="path1688" />
      <path
         d="m 31.560769,514.12426 0.723397,0.58776 q -2.124978,2.83707 -5.097687,2.83707 -2.317131,0 -3.910865,-1.65025 -1.593734,-1.65025 -1.593734,-4.10301 0,-1.63895 0.7347,-2.9388 0.746003,-1.31116 2.05716,-2.03456 1.32246,-0.72339 3.029225,-0.72339 1.944129,0 3.243983,0.96076 1.299853,0.94946 1.299853,1.92152 0,0.51994 -0.305183,0.80252 -0.305183,0.28258 -0.689487,0.28258 -0.203456,0 -0.395608,-0.10173 -0.192152,-0.10173 -0.395608,-0.32779 -0.09042,-0.10173 -0.327789,-0.63297 -0.305183,-0.65558 -0.474729,-0.88164 -0.350395,-0.45213 -0.870337,-0.7121 -0.508638,-0.25997 -1.141611,-0.25997 -0.960761,0 -1.785886,0.53125 -0.813821,0.53124 -1.299854,1.57113 -0.474729,1.02858 -0.474729,2.46407 0,2.2267 1.186823,3.53786 1.02858,1.13031 2.452768,1.13031 0.655578,0 1.32246,-0.21476 0.678184,-0.22606 1.277247,-0.65558 0.44082,-0.30518 1.435491,-1.39028 z"
         style="-inkscape-font-specification:'Bookman Old Style'"
         id="path1690" />
      <path
         d="m 33.482293,502.57252 v -0.92686 q 1.537218,-0.11303 2.995315,-0.94945 h 0.836428 v 13.91408 q 0,0.88164 0.11303,1.1077 0.14694,0.31649 0.429517,0.46343 0.282577,0.14694 1.085096,0.14694 h 0.361698 v 0.94946 h -5.821084 v -0.94946 h 0.58776 q 0.55385,0 0.825124,-0.16955 0.282577,-0.16954 0.395608,-0.46342 0.124334,-0.29388 0.124334,-1.17552 v -11.94735 z"
         style="-inkscape-font-specification:'Bookman Old Style'"
         id="path1692" />
      <path
         d="m 48.673627,510.73334 v -1.23204 q 0,-1.25464 -0.700791,-1.78588 -0.700791,-0.54255 -1.978038,-0.54255 -0.632973,0 -1.107702,0.15824 -0.474729,0.14694 -0.768609,0.41822 -0.282577,0.25997 -0.418214,0.59906 -0.05652,0.12433 -0.271274,0.96076 -0.25997,1.01728 -1.051186,1.01728 -0.452123,0 -0.7347,-0.29388 -0.271274,-0.30519 -0.271274,-0.81382 0,-0.74601 0.553851,-1.4581 0.553851,-0.7234 1.684158,-1.18682 1.141611,-0.47473 2.690133,-0.47473 1.446794,0 2.475373,0.45212 1.02858,0.44082 1.514613,1.27725 0.339092,0.57645 0.339092,2.10237 v 4.35168 q 0,0.92686 0.05652,1.20943 0.124334,0.48604 0.429517,0.7347 0.316486,0.23737 0.813822,0.23737 0.519941,0 1.243338,-0.24867 v 0.98337 q -0.938155,0.27127 -1.684158,0.27127 -0.802519,0 -1.356369,-0.22606 -0.542548,-0.22606 -0.892943,-0.65558 -0.350396,-0.44082 -0.452123,-1.03988 -1.35637,1.06249 -2.452768,1.492 -1.096398,0.42952 -2.215403,0.42952 -1.559825,0 -2.531889,-0.84773 -0.972065,-0.84773 -0.972065,-1.98934 0,-0.68949 0.350396,-1.31116 0.361698,-0.62167 1.085095,-1.0964 0.7347,-0.47473 2.294524,-0.83642 1.559825,-0.3617 4.329079,-0.65558 z m 0,0.98337 q -2.622314,0.3843 -3.243983,0.53124 -1.232036,0.28258 -1.76328,0.62167 -0.531245,0.33909 -0.757306,0.7347 -0.226062,0.3843 -0.226062,0.82512 0,0.44082 0.248668,0.85904 0.259971,0.40691 0.723397,0.64427 0.463426,0.23737 0.983367,0.23737 0.7347,0 1.661553,-0.3504 0.926852,-0.35039 2.373646,-1.36767 z"
         style="-inkscape-font-specification:'Bookman Old Style'"
         id="path1694" />
      <path
         d="m 56.766631,501.00139 q 0.542548,0 0.926853,0.3843 0.384304,0.37301 0.384304,0.91555 0,0.54255 -0.384304,0.92686 -0.384305,0.3843 -0.926853,0.3843 -0.542547,0 -0.926852,-0.3843 -0.384305,-0.38431 -0.384305,-0.92686 0,-0.54254 0.384305,-0.91555 0.384305,-0.3843 0.926852,-0.3843 z m -2.882284,6.9966 v -0.93815 q 0.938155,-0.11303 1.571127,-0.31649 0.644276,-0.20345 1.458097,-0.64427 h 0.825125 v 9.06506 q 0,0.47473 0.135637,0.7121 0.135637,0.23736 0.373001,0.35039 0.248668,0.10173 0.892943,0.10173 h 0.531245 v 0.94946 h -5.787175 v -0.94946 h 0.463426 q 0.757306,0 1.017277,-0.13564 0.259971,-0.13563 0.361698,-0.3843 0.113031,-0.24867 0.113031,-1.16422 v -6.64621 z"
         style="-inkscape-font-specification:'Bookman Old Style'"
         id="path1696" />
      <path
         d="m 60.892252,507.99799 v -0.96076 q 0.84773,-0.0791 1.480703,-0.27127 0.632972,-0.20346 1.446794,-0.66688 h 0.836427 v 1.89891 q 1.288551,-1.01727 2.011948,-1.36767 1.107701,-0.53124 2.113675,-0.53124 0.689488,0 1.345066,0.25997 0.666882,0.24867 1.062489,0.62167 0.406911,0.373 0.689488,1.01727 1.186823,-1.05118 2.192797,-1.4694 1.017277,-0.42951 2.05716,-0.42951 0.994671,0 1.751977,0.41821 0.768609,0.40691 1.107701,1.02858 0.350396,0.62167 0.350396,1.8198 v 5.24462 q 0,0.82513 0.03391,0.96076 0.05652,0.21476 0.237364,0.40692 0.192153,0.19215 0.429517,0.27127 0.237365,0.0791 0.88164,0.0791 h 0.361699 v 0.94946 h -5.685448 v -0.94946 q 0.972065,-0.0113 1.254642,-0.13564 0.29388,-0.13563 0.429517,-0.42951 0.14694,-0.29388 0.14694,-1.15292 v -4.98465 q 0,-0.94946 -0.169547,-1.31116 -0.169546,-0.3617 -0.610366,-0.59906 -0.429517,-0.24867 -1.073792,-0.24867 -0.802518,0 -1.684158,0.42952 -1.17552,0.58776 -1.853705,1.32246 v 5.39156 q 0,0.77992 0.06782,1.02858 0.07912,0.23737 0.248667,0.40691 0.18085,0.15825 0.406911,0.22607 0.237365,0.0565 1.130308,0.0565 v 0.94946 h -5.572417 v -0.94946 h 0.316486 q 0.666882,0 0.938155,-0.15824 0.282577,-0.15825 0.44082,-0.48603 0.113031,-0.25998 0.113031,-1.0738 v -4.81511 q 0,-1.06249 -0.169546,-1.43549 -0.158243,-0.373 -0.621669,-0.63297 -0.463426,-0.25997 -1.085095,-0.25997 -0.7347,0 -1.480704,0.3617 -1.107701,0.53124 -2.034553,1.39028 v 5.80978 q 0,0.51994 0.135637,0.76861 0.14694,0.23736 0.452123,0.3843 0.305183,0.14694 0.836427,0.14694 h 0.418214 v 0.94946 h -5.685447 v -0.94946 h 0.305183 q 0.779912,0 1.02858,-0.12433 0.361698,-0.16955 0.519941,-0.54255 0.09043,-0.20346 0.09043,-1.05119 v -6.6123 z"
         style="-inkscape-font-specification:'Bookman Old Style'"
         id="path1698" />
      <path
         d="m 93.049508,502.5273 h 0.802519 v 3.84305 h 3.357014 v 1.13031 h -3.357014 v 6.81575 q 0,0.87034 0.14694,1.24334 0.158243,0.373 0.519941,0.61037 0.373002,0.23736 0.825125,0.23736 1.073792,0 2.373646,-0.96076 v 1.0964 q -1.480703,1.00597 -2.995315,1.00597 -0.859034,0 -1.559825,-0.3843 -0.689487,-0.38431 -0.949458,-0.90425 -0.248668,-0.51994 -0.248668,-1.80849 v -6.95139 h -1.978038 v -0.94946 q 0.949458,-0.21476 1.525915,-0.66688 0.58776,-0.45212 0.949459,-1.17552 0.361698,-0.7234 0.587759,-2.1815 z"
         style="-inkscape-font-specification:'Bookman Old Style'"
         id="path1700" />
      <path
         d="m 98.870592,502.61773 v -0.97207 q 1.096399,-0.14694 1.706768,-0.33909 0.61036,-0.20345 1.27724,-0.61036 h 0.88164 v 7.47133 q 1.27725,-1.07379 2.41886,-1.57113 1.14161,-0.49733 2.1815,-0.49733 1.51461,0 2.49798,0.90424 0.97206,0.90425 0.97206,2.2041 v 5.54981 q 0,0.82513 0.12433,1.0851 0.13564,0.24867 0.44082,0.373 0.30519,0.11303 1.36768,0.11303 v 0.94946 h -5.83239 v -0.94946 h 0.42952 q 0.82512,0 1.08509,-0.12433 0.25997,-0.13564 0.373,-0.42952 0.12434,-0.30518 0.12434,-1.24334 v -3.85435 q 0,-1.27724 -0.0904,-1.66155 -0.16954,-0.65558 -0.70079,-1.05119 -0.53124,-0.3956 -1.35637,-0.3956 -0.92685,0 -1.94413,0.46342 -1.00597,0.45213 -2.09107,1.36768 v 5.66284 q 0,0.63297 0.11304,0.84773 0.11303,0.21476 0.373,0.31648 0.25997,0.10173 1.03988,0.10173 h 0.46343 v 0.94946 h -5.854998 v -0.94946 h 0.350395 q 0.825123,0 1.198123,-0.20345 0.20346,-0.10173 0.29388,-0.39561 0.0904,-0.29388 0.0904,-1.62765 v -11.48392 z"
         style="-inkscape-font-specification:'Bookman Old Style'"
         id="path1702" />
      <path
         d="m 123.82779,514.36163 0.72339,0.58776 q -0.82512,0.98336 -1.60503,1.55982 -0.76861,0.57646 -1.4581,0.80252 -0.68949,0.23736 -1.61634,0.23736 -1.66155,0 -2.82577,-0.67818 -1.33376,-0.77991 -2.04586,-2.03456 -0.71209,-1.25464 -0.71209,-2.9614 0,-1.78589 0.68949,-3.05183 0.68949,-1.26595 1.92152,-1.98934 1.24334,-0.7347 2.87098,-0.7347 1.20943,0 2.10237,0.3843 0.89295,0.373 1.51462,1.14161 0.62167,0.75731 0.90424,1.74068 0.15825,0.57645 0.18085,1.492 h -7.99127 q -0.0339,0.55385 -0.0339,0.82513 0,1.42418 0.49733,2.54319 0.49734,1.1077 1.31116,1.63894 0.82512,0.51995 1.86501,0.51995 0.88164,0 1.70676,-0.40691 0.82513,-0.41822 2.00065,-1.61634 z m -1.4468,-4.56645 q -0.16954,-1.03988 -0.48603,-1.53722 -0.30518,-0.49733 -0.88164,-0.79121 -0.56515,-0.29388 -1.27725,-0.29388 -0.71209,0 -1.33376,0.29388 -0.62167,0.29388 -1.03988,0.81382 -0.40691,0.51994 -0.7121,1.51461 z"
         style="-inkscape-font-specification:'Bookman Old Style'"
         id="path1704" />
      <path
         d="m 133.48061,507.98669 v -0.92685 q 0.84774,0 1.50331,-0.21476 0.65558,-0.21476 1.43549,-0.746 h 0.89295 v 1.88761 q 1.41288,-1.119 2.35104,-1.50331 0.93815,-0.3843 1.87631,-0.3843 1.93282,0 3.28919,1.51461 1.36768,1.51461 1.36768,3.94477 0,2.69013 -1.54853,4.4082 -1.41288,1.58243 -3.63959,1.58243 -1.1077,0 -2.07976,-0.41821 -0.70079,-0.29388 -1.61634,-1.05119 v 3.71872 q 0,0.83642 0.0452,0.98336 0.0565,0.21476 0.22606,0.3617 0.16955,0.14694 0.42952,0.19215 0.19215,0.0339 1.28855,0.0339 v 0.94946 h -5.82109 v -0.94946 h 0.50864 q 0.77992,0 1.00598,-0.12433 0.23736,-0.11303 0.35039,-0.3617 0.0678,-0.19215 0.0678,-1.17552 v -11.72129 z m 3.83175,1.16422 v 3.88826 q 0,0.7686 0.0904,1.14161 0.13564,0.57645 0.51994,1.03988 0.39561,0.46343 1.06249,0.79121 0.67819,0.32779 1.41289,0.32779 1.4694,0 2.54319,-1.1077 1.08509,-1.1077 1.08509,-3.35701 0,-2.10237 -0.89294,-3.24398 -0.89294,-1.15292 -2.11367,-1.15292 -0.79122,0 -1.71807,0.41822 -0.92685,0.41821 -1.98934,1.25464 z"
         style="-inkscape-font-specification:'Bookman Old Style'"
         id="path1706" />
      <path
         d="m 150.74041,501.00139 q 0.54255,0 0.92685,0.3843 0.38431,0.37301 0.38431,0.91555 0,0.54255 -0.38431,0.92686 -0.3843,0.3843 -0.92685,0.3843 -0.54255,0 -0.92685,-0.3843 -0.38431,-0.38431 -0.38431,-0.92686 0,-0.54254 0.38431,-0.91555 0.3843,-0.3843 0.92685,-0.3843 z m -2.88229,6.9966 v -0.93815 q 0.93816,-0.11303 1.57113,-0.31649 0.64428,-0.20345 1.4581,-0.64427 h 0.82512 v 9.06506 q 0,0.47473 0.13564,0.7121 0.13564,0.23736 0.373,0.35039 0.24867,0.10173 0.89295,0.10173 h 0.53124 v 0.94946 h -5.78718 v -0.94946 h 0.46343 q 0.75731,0 1.01728,-0.13564 0.25997,-0.13563 0.3617,-0.3843 0.11303,-0.24867 0.11303,-1.16422 v -6.64621 z"
         style="-inkscape-font-specification:'Bookman Old Style'"
         id="path1708" />
      <path
         d="m 164.56408,514.36163 0.72339,0.58776 q -0.82512,0.98336 -1.60503,1.55982 -0.76861,0.57646 -1.4581,0.80252 -0.68949,0.23736 -1.61634,0.23736 -1.66155,0 -2.82577,-0.67818 -1.33376,-0.77991 -2.04586,-2.03456 -0.71209,-1.25464 -0.71209,-2.9614 0,-1.78589 0.68949,-3.05183 0.68949,-1.26595 1.92152,-1.98934 1.24334,-0.7347 2.87098,-0.7347 1.20943,0 2.10237,0.3843 0.89295,0.373 1.51462,1.14161 0.62167,0.75731 0.90424,1.74068 0.15825,0.57645 0.18085,1.492 h -7.99127 q -0.0339,0.55385 -0.0339,0.82513 0,1.42418 0.49733,2.54319 0.49734,1.1077 1.31116,1.63894 0.82512,0.51995 1.86501,0.51995 0.88164,0 1.70676,-0.40691 0.82513,-0.41822 2.00065,-1.61634 z m -1.4468,-4.56645 q -0.16954,-1.03988 -0.48603,-1.53722 -0.30518,-0.49733 -0.88164,-0.79121 -0.56515,-0.29388 -1.27725,-0.29388 -0.71209,0 -1.33376,0.29388 -0.62167,0.29388 -1.03988,0.81382 -0.40691,0.51994 -0.7121,1.51461 z"
         style="-inkscape-font-specification:'Bookman Old Style'"
         id="path1710" />
      <path
         d="m 176.91833,514.12426 0.7234,0.58776 q -2.12498,2.83707 -5.09769,2.83707 -2.31713,0 -3.91087,-1.65025 -1.59373,-1.65025 -1.59373,-4.10301 0,-1.63895 0.7347,-2.9388 0.746,-1.31116 2.05716,-2.03456 1.32246,-0.72339 3.02922,-0.72339 1.94413,0 3.24399,0.96076 1.29985,0.94946 1.29985,1.92152 0,0.51994 -0.30518,0.80252 -0.30519,0.28258 -0.68949,0.28258 -0.20346,0 -0.39561,-0.10173 -0.19215,-0.10173 -0.39561,-0.32779 -0.0904,-0.10173 -0.32778,-0.63297 -0.30519,-0.65558 -0.47473,-0.88164 -0.3504,-0.45213 -0.87034,-0.7121 -0.50864,-0.25997 -1.14161,-0.25997 -0.96076,0 -1.78589,0.53125 -0.81382,0.53124 -1.29985,1.57113 -0.47473,1.02858 -0.47473,2.46407 0,2.2267 1.18682,3.53786 1.02858,1.13031 2.45277,1.13031 0.65558,0 1.32246,-0.21476 0.67818,-0.22606 1.27725,-0.65558 0.44082,-0.30518 1.43549,-1.39028 z"
         style="-inkscape-font-specification:'Bookman Old Style'"
         id="path1712" />
      <path
         d="m 188.63962,514.36163 0.7234,0.58776 q -0.82512,0.98336 -1.60504,1.55982 -0.76861,0.57646 -1.45809,0.80252 -0.68949,0.23736 -1.61634,0.23736 -1.66156,0 -2.82577,-0.67818 -1.33377,-0.77991 -2.04586,-2.03456 -0.71209,-1.25464 -0.71209,-2.9614 0,-1.78589 0.68948,-3.05183 0.68949,-1.26595 1.92153,-1.98934 1.24334,-0.7347 2.87098,-0.7347 1.20943,0 2.10237,0.3843 0.89294,0.373 1.51461,1.14161 0.62167,0.75731 0.90425,1.74068 0.15824,0.57645 0.18085,1.492 h -7.99128 q -0.0339,0.55385 -0.0339,0.82513 0,1.42418 0.49734,2.54319 0.49733,1.1077 1.31116,1.63894 0.82512,0.51995 1.865,0.51995 0.88164,0 1.70677,-0.40691 0.82512,-0.41822 2.00064,-1.61634 z m -1.44679,-4.56645 q -0.16955,-1.03988 -0.48603,-1.53722 -0.30519,-0.49733 -0.88164,-0.79121 -0.56516,-0.29388 -1.27725,-0.29388 -0.71209,0 -1.33376,0.29388 -0.62167,0.29388 -1.03989,0.81382 -0.40691,0.51994 -0.71209,1.51461 z"
         style="-inkscape-font-specification:'Bookman Old Style'"
         id="path1714" />
      <path
         d="m 201.3782,502.5273 h 0.80252 v 3.84305 h 3.35701 v 1.13031 h -3.35701 v 6.81575 q 0,0.87034 0.14694,1.24334 0.15824,0.373 0.51994,0.61037 0.373,0.23736 0.82512,0.23736 1.07379,0 2.37365,-0.96076 v 1.0964 q -1.4807,1.00597 -2.99532,1.00597 -0.85903,0 -1.55982,-0.3843 -0.68949,-0.38431 -0.94946,-0.90425 -0.24867,-0.51994 -0.24867,-1.80849 v -6.95139 h -1.97804 v -0.94946 q 0.94946,-0.21476 1.52592,-0.66688 0.58776,-0.45212 0.94946,-1.17552 0.3617,-0.7234 0.58776,-2.1815 z"
         style="-inkscape-font-specification:'Bookman Old Style'"
         id="path1716" />
      <path
         d="m 207.19928,502.61773 v -0.97207 q 1.0964,-0.14694 1.70677,-0.33909 0.61036,-0.20345 1.27724,-0.61036 h 0.88164 v 7.47133 q 1.27725,-1.07379 2.41886,-1.57113 1.14161,-0.49733 2.1815,-0.49733 1.51461,0 2.49798,0.90424 0.97206,0.90425 0.97206,2.2041 v 5.54981 q 0,0.82513 0.12433,1.0851 0.13564,0.24867 0.44082,0.373 0.30519,0.11303 1.36768,0.11303 v 0.94946 h -5.83239 v -0.94946 h 0.42952 q 0.82512,0 1.08509,-0.12433 0.25997,-0.13564 0.373,-0.42952 0.12434,-0.30518 0.12434,-1.24334 v -3.85435 q 0,-1.27724 -0.0904,-1.66155 -0.16954,-0.65558 -0.70079,-1.05119 -0.53124,-0.3956 -1.35637,-0.3956 -0.92685,0 -1.94413,0.46342 -1.00597,0.45213 -2.09107,1.36768 v 5.66284 q 0,0.63297 0.11303,0.84773 0.11304,0.21476 0.37301,0.31648 0.25997,0.10173 1.03988,0.10173 h 0.46343 v 0.94946 h -5.855 v -0.94946 h 0.3504 q 0.82512,0 1.19812,-0.20345 0.20346,-0.10173 0.29388,-0.39561 0.0904,-0.29388 0.0904,-1.62765 v -11.48392 z"
         style="-inkscape-font-specification:'Bookman Old Style'"
         id="path1718" />
      <path
         d="m 230.60795,510.73334 v -1.23204 q 0,-1.25464 -0.70079,-1.78588 -0.70079,-0.54255 -1.97804,-0.54255 -0.63297,0 -1.1077,0.15824 -0.47473,0.14694 -0.76861,0.41822 -0.28258,0.25997 -0.41822,0.59906 -0.0565,0.12433 -0.27127,0.96076 -0.25997,1.01728 -1.05119,1.01728 -0.45212,0 -0.7347,-0.29388 -0.27127,-0.30519 -0.27127,-0.81382 0,-0.74601 0.55385,-1.4581 0.55385,-0.7234 1.68416,-1.18682 1.14161,-0.47473 2.69013,-0.47473 1.44679,0 2.47537,0.45212 1.02858,0.44082 1.51462,1.27725 0.33909,0.57645 0.33909,2.10237 v 4.35168 q 0,0.92686 0.0565,1.20943 0.12434,0.48604 0.42952,0.7347 0.31649,0.23737 0.81382,0.23737 0.51994,0 1.24334,-0.24867 v 0.98337 q -0.93815,0.27127 -1.68416,0.27127 -0.80252,0 -1.35637,-0.22606 -0.54254,-0.22606 -0.89294,-0.65558 -0.35039,-0.44082 -0.45212,-1.03988 -1.35637,1.06249 -2.45277,1.492 -1.0964,0.42952 -2.2154,0.42952 -1.55983,0 -2.53189,-0.84773 -0.97207,-0.84773 -0.97207,-1.98934 0,-0.68949 0.3504,-1.31116 0.3617,-0.62167 1.08509,-1.0964 0.7347,-0.47473 2.29453,-0.83642 1.55982,-0.3617 4.32908,-0.65558 z m 0,0.98337 q -2.62232,0.3843 -3.24399,0.53124 -1.23203,0.28258 -1.76328,0.62167 -0.53124,0.33909 -0.7573,0.7347 -0.22606,0.3843 -0.22606,0.82512 0,0.44082 0.24866,0.85904 0.25998,0.40691 0.7234,0.64427 0.46343,0.23737 0.98337,0.23737 0.7347,0 1.66155,-0.3504 0.92685,-0.35039 2.37365,-1.36767 z"
         style="-inkscape-font-specification:'Bookman Old Style'"
         id="path1720" />
      <path
         d="m 238.8818,502.5273 h 0.80252 v 3.84305 h 3.35701 v 1.13031 h -3.35701 v 6.81575 q 0,0.87034 0.14694,1.24334 0.15824,0.373 0.51994,0.61037 0.373,0.23736 0.82512,0.23736 1.0738,0 2.37365,-0.96076 v 1.0964 q -1.4807,1.00597 -2.99532,1.00597 -0.85903,0 -1.55982,-0.3843 -0.68949,-0.38431 -0.94946,-0.90425 -0.24867,-0.51994 -0.24867,-1.80849 v -6.95139 h -1.97803 v -0.94946 q 0.94945,-0.21476 1.52591,-0.66688 0.58776,-0.45212 0.94946,-1.17552 0.3617,-0.7234 0.58776,-2.1815 z"
         style="-inkscape-font-specification:'Bookman Old Style'"
         id="path1722" />
      <path
         d="m 260.23331,510.73334 v -1.23204 q 0,-1.25464 -0.70079,-1.78588 -0.70079,-0.54255 -1.97804,-0.54255 -0.63297,0 -1.1077,0.15824 -0.47473,0.14694 -0.76861,0.41822 -0.28257,0.25997 -0.41821,0.59906 -0.0565,0.12433 -0.27127,0.96076 -0.25997,1.01728 -1.05119,1.01728 -0.45212,0 -0.7347,-0.29388 -0.27127,-0.30519 -0.27127,-0.81382 0,-0.74601 0.55385,-1.4581 0.55385,-0.7234 1.68416,-1.18682 1.14161,-0.47473 2.69013,-0.47473 1.44679,0 2.47537,0.45212 1.02858,0.44082 1.51461,1.27725 0.3391,0.57645 0.3391,2.10237 v 4.35168 q 0,0.92686 0.0565,1.20943 0.12433,0.48604 0.42952,0.7347 0.31648,0.23737 0.81382,0.23737 0.51994,0 1.24334,-0.24867 v 0.98337 q -0.93816,0.27127 -1.68416,0.27127 -0.80252,0 -1.35637,-0.22606 -0.54255,-0.22606 -0.89294,-0.65558 -0.3504,-0.44082 -0.45213,-1.03988 -1.35636,1.06249 -2.45276,1.492 -1.0964,0.42952 -2.21541,0.42952 -1.55982,0 -2.53189,-0.84773 -0.97206,-0.84773 -0.97206,-1.98934 0,-0.68949 0.3504,-1.31116 0.36169,-0.62167 1.08509,-1.0964 0.7347,-0.47473 2.29453,-0.83642 1.55982,-0.3617 4.32907,-0.65558 z m 0,0.98337 q -2.62231,0.3843 -3.24398,0.53124 -1.23203,0.28258 -1.76328,0.62167 -0.53124,0.33909 -0.75731,0.7347 -0.22606,0.3843 -0.22606,0.82512 0,0.44082 0.24867,0.85904 0.25997,0.40691 0.7234,0.64427 0.46342,0.23737 0.98337,0.23737 0.7347,0 1.66155,-0.3504 0.92685,-0.35039 2.37364,-1.36767 z"
         style="-inkscape-font-specification:'Bookman Old Style'"
         id="path1724" />
      <path
         d="m 268.50717,502.5273 h 0.80251 v 3.84305 h 3.35702 v 1.13031 h -3.35702 v 6.81575 q 0,0.87034 0.14694,1.24334 0.15825,0.373 0.51995,0.61037 0.373,0.23736 0.82512,0.23736 1.07379,0 2.37365,-0.96076 v 1.0964 q -1.48071,1.00597 -2.99532,1.00597 -0.85903,0 -1.55982,-0.3843 -0.68949,-0.38431 -0.94946,-0.90425 -0.24867,-0.51994 -0.24867,-1.80849 v -6.95139 h -1.97804 v -0.94946 q 0.94946,-0.21476 1.52592,-0.66688 0.58776,-0.45212 0.94946,-1.17552 0.36169,-0.7234 0.58776,-2.1815 z"
         style="-inkscape-font-specification:'Bookman Old Style'"
         id="path1726" />
      <path
         d="m 277.30096,502.5273 h 0.80252 v 3.84305 h 3.35701 v 1.13031 h -3.35701 v 6.81575 q 0,0.87034 0.14694,1.24334 0.15824,0.373 0.51994,0.61037 0.373,0.23736 0.82512,0.23736 1.07379,0 2.37365,-0.96076 v 1.0964 q -1.4807,1.00597 -2.99532,1.00597 -0.85903,0 -1.55982,-0.3843 -0.68949,-0.38431 -0.94946,-0.90425 -0.24867,-0.51994 -0.24867,-1.80849 v -6.95139 h -1.97804 v -0.94946 q 0.94946,-0.21476 1.52592,-0.66688 0.58776,-0.45212 0.94946,-1.17552 0.3617,-0.7234 0.58776,-2.1815 z"
         style="-inkscape-font-specification:'Bookman Old Style'"
         id="path1728" />
      <path
         d="m 291.24895,510.73334 v -1.23204 q 0,-1.25464 -0.70079,-1.78588 -0.70079,-0.54255 -1.97804,-0.54255 -0.63297,0 -1.1077,0.15824 -0.47473,0.14694 -0.76861,0.41822 -0.28257,0.25997 -0.41821,0.59906 -0.0565,0.12433 -0.27127,0.96076 -0.25997,1.01728 -1.05119,1.01728 -0.45212,0 -0.7347,-0.29388 -0.27127,-0.30519 -0.27127,-0.81382 0,-0.74601 0.55385,-1.4581 0.55385,-0.7234 1.68416,-1.18682 1.14161,-0.47473 2.69013,-0.47473 1.44679,0 2.47537,0.45212 1.02858,0.44082 1.51461,1.27725 0.3391,0.57645 0.3391,2.10237 v 4.35168 q 0,0.92686 0.0565,1.20943 0.12434,0.48604 0.42952,0.7347 0.31648,0.23737 0.81382,0.23737 0.51994,0 1.24334,-0.24867 v 0.98337 q -0.93816,0.27127 -1.68416,0.27127 -0.80252,0 -1.35637,-0.22606 -0.54255,-0.22606 -0.89294,-0.65558 -0.3504,-0.44082 -0.45213,-1.03988 -1.35636,1.06249 -2.45276,1.492 -1.0964,0.42952 -2.21541,0.42952 -1.55982,0 -2.53189,-0.84773 -0.97206,-0.84773 -0.97206,-1.98934 0,-0.68949 0.3504,-1.31116 0.36169,-0.62167 1.08509,-1.0964 0.7347,-0.47473 2.29453,-0.83642 1.55982,-0.3617 4.32907,-0.65558 z m 0,0.98337 q -2.62231,0.3843 -3.24398,0.53124 -1.23203,0.28258 -1.76328,0.62167 -0.53124,0.33909 -0.75731,0.7347 -0.22606,0.3843 -0.22606,0.82512 0,0.44082 0.24867,0.85904 0.25997,0.40691 0.7234,0.64427 0.46342,0.23737 0.98337,0.23737 0.7347,0 1.66155,-0.3504 0.92685,-0.35039 2.37364,-1.36767 z"
         style="-inkscape-font-specification:'Bookman Old Style'"
         id="path1730" />
      <path
         d="m 306.54203,514.12426 0.7234,0.58776 q -2.12498,2.83707 -5.09769,2.83707 -2.31713,0 -3.91086,-1.65025 -1.59374,-1.65025 -1.59374,-4.10301 0,-1.63895 0.7347,-2.9388 0.74601,-1.31116 2.05716,-2.03456 1.32246,-0.72339 3.02923,-0.72339 1.94413,0 3.24398,0.96076 1.29985,0.94946 1.29985,1.92152 0,0.51994 -0.30518,0.80252 -0.30518,0.28258 -0.68949,0.28258 -0.20345,0 -0.3956,-0.10173 -0.19216,-0.10173 -0.39561,-0.32779 -0.0904,-0.10173 -0.32779,-0.63297 -0.30518,-0.65558 -0.47473,-0.88164 -0.3504,-0.45213 -0.87034,-0.7121 -0.50864,-0.25997 -1.14161,-0.25997 -0.96076,0 -1.78588,0.53125 -0.81383,0.53124 -1.29986,1.57113 -0.47473,1.02858 -0.47473,2.46407 0,2.2267 1.18683,3.53786 1.02858,1.13031 2.45276,1.13031 0.65558,0 1.32246,-0.21476 0.67819,-0.22606 1.27725,-0.65558 0.44082,-0.30518 1.43549,-1.39028 z"
         style="-inkscape-font-specification:'Bookman Old Style'"
         id="path1732" />
      <path
         d="m 308.42962,502.57252 v -0.92686 q 1.44679,-0.11303 2.99531,-0.94945 h 0.87034 v 11.28047 l 4.14823,-3.3005 q 0.99467,-0.79122 0.99467,-1.05119 0,-0.15824 -0.21476,-0.24867 -0.13563,-0.0565 -0.66688,-0.0565 h -0.59906 v -0.94946 h 5.73066 v 0.94946 q -0.96076,0 -1.53722,0.20345 -0.57646,0.19216 -1.33376,0.76861 l -3.2779,2.49798 3.86566,4.22735 q 0.55385,0.61037 0.90424,0.85904 0.3504,0.24867 0.70079,0.35039 0.3504,0.0904 1.0964,0.10173 v 0.94946 h -6.01324 v -0.94946 h 0.46343 q 0.68949,0 0.87034,-0.10173 0.18085,-0.11303 0.18085,-0.29388 0,-0.18085 -0.3391,-0.51994 -0.0565,-0.0565 -0.12433,-0.13564 l -3.00662,-3.45874 -1.8424,1.41289 v 1.4807 q 0,0.82513 0.12433,1.0851 0.12434,0.25997 0.38431,0.3956 0.27127,0.13564 1.02858,0.13564 h 0.41821 v 0.94946 h -5.82108 v -0.94946 q 0.98337,-0.0113 1.20943,-0.0791 0.39561,-0.12433 0.56515,-0.44082 0.18085,-0.31649 0.18085,-1.22073 v -12.01517 z"
         style="-inkscape-font-specification:'Bookman Old Style'"
         id="path1734" />
      <path
         d="m 332.61821,514.36163 0.7234,0.58776 q -0.82512,0.98336 -1.60504,1.55982 -0.7686,0.57646 -1.45809,0.80252 -0.68949,0.23736 -1.61634,0.23736 -1.66155,0 -2.82577,-0.67818 -1.33376,-0.77991 -2.04586,-2.03456 -0.71209,-1.25464 -0.71209,-2.9614 0,-1.78589 0.68949,-3.05183 0.68948,-1.26595 1.92152,-1.98934 1.24334,-0.7347 2.87098,-0.7347 1.20943,0 2.10237,0.3843 0.89295,0.373 1.51461,1.14161 0.62167,0.75731 0.90425,1.74068 0.15824,0.57645 0.18085,1.492 h -7.99127 q -0.0339,0.55385 -0.0339,0.82513 0,1.42418 0.49733,2.54319 0.49734,1.1077 1.31116,1.63894 0.82512,0.51995 1.86501,0.51995 0.88164,0 1.70676,-0.40691 0.82512,-0.41822 2.00064,-1.61634 z m -1.44679,-4.56645 q -0.16955,-1.03988 -0.48603,-1.53722 -0.30518,-0.49733 -0.88164,-0.79121 -0.56515,-0.29388 -1.27725,-0.29388 -0.71209,0 -1.33376,0.29388 -0.62167,0.29388 -1.03988,0.81382 -0.40692,0.51994 -0.7121,1.51461 z"
         style="-inkscape-font-specification:'Bookman Old Style'"
         id="path1736" />
      <path
         d="m 342.02238,502.60643 v -0.96077 q 0.76861,-0.0678 1.40158,-0.25997 0.64428,-0.20345 1.60504,-0.68948 h 0.84773 v 13.71063 q 0,0.94946 0.0452,1.15291 0.11303,0.42952 0.3843,0.59906 0.27128,0.16955 1.05119,0.16955 h 0.48603 v 0.94946 l -3.92216,0.18085 v -1.79719 q -1.13031,1.02858 -2.12498,1.4581 -0.98337,0.42951 -1.97804,0.42951 -2.04586,0 -3.40223,-1.63894 -1.34506,-1.65025 -1.34506,-3.96738 0,-1.65025 0.71209,-3.01792 0.7234,-1.37898 1.89892,-2.10238 1.17552,-0.72339 2.5771,-0.72339 1.07379,0 1.98934,0.373 0.91555,0.373 1.67286,1.119 v -4.98465 z m 1.89892,11.93604 v -4.27256 q 0,-0.91555 -0.3504,-1.492 -0.33909,-0.58776 -1.13031,-1.01728 -0.77991,-0.42952 -1.60503,-0.42952 -0.98337,0 -1.8198,0.54255 -0.82512,0.53124 -1.29985,1.54852 -0.46343,1.00597 -0.46343,2.44147 0,1.35636 0.42952,2.35104 0.44082,0.98336 1.17552,1.5033 0.7347,0.50864 1.50331,0.50864 0.7573,0 1.71806,-0.42951 0.96077,-0.44082 1.84241,-1.25465 z"
         style="-inkscape-font-specification:'Bookman Old Style'"
         id="path1738" />
      <path
         d="m 352.19513,514.6442 q 0.59906,0 1.00597,0.41822 0.41822,0.40691 0.41822,0.99467 0,0.58776 -0.41822,1.00597 -0.41821,0.40691 -1.00597,0.40691 -0.57646,0 -0.99467,-0.40691 -0.41822,-0.41821 -0.41822,-1.00597 0,-0.58776 0.40692,-0.99467 0.41821,-0.41822 1.00597,-0.41822 z"
         style="-inkscape-font-specification:'Bookman Old Style'"
         id="path1740" />
      <path
         d="m 22.145306,528.90279 h 0.791216 l 0.113031,0.53125 h 9.675433 l 0.09042,-0.53125 h 0.825124 l 1.661553,4.63427 -1.017277,0.36169 q -0.7347,-1.8537 -1.740674,-2.5997 -1.005974,-0.75731 -2.577102,-0.75731 -0.655578,0 -0.779912,0.0565 -0.124334,0.0452 -0.180849,0.16954 -0.04521,0.12434 -0.04521,0.79122 v 10.94138 q 0,0.77991 0.07912,1.05118 0.09042,0.27128 0.248668,0.41822 0.158243,0.14694 0.429517,0.21475 0.282577,0.0565 1.243338,0.0678 v 0.94946 h -6.081055 v -0.94946 q 1.005974,-0.0113 1.232035,-0.0678 0.395608,-0.11303 0.565154,-0.42951 0.169546,-0.31649 0.169546,-1.16422 v -11.17874 q 0,-0.51994 -0.05652,-0.63298 -0.04521,-0.11303 -0.192152,-0.16954 -0.135637,-0.0678 -0.576457,-0.0678 -1.232036,0 -1.978039,0.31649 -0.7347,0.31648 -1.390278,1.07379 -0.655579,0.7573 -1.119005,1.96673 l -1.017277,-0.36169 z"
         style="-inkscape-font-specification:'Bookman Old Style'"
         id="path1742" />
      <path
         d="m 35.923757,530.54174 v -0.97206 q 1.096398,-0.14694 1.706764,-0.3391 0.610366,-0.20345 1.277248,-0.61036 h 0.88164 v 7.47133 q 1.277247,-1.07379 2.418858,-1.57113 1.141611,-0.49733 2.181494,-0.49733 1.514612,0 2.49798,0.90424 0.972064,0.90425 0.972064,2.2041 v 5.54981 q 0,0.82513 0.124334,1.0851 0.135637,0.24867 0.44082,0.373 0.305183,0.11303 1.367672,0.11303 v 0.94946 h -5.832387 v -0.94946 h 0.429517 q 0.825124,0 1.085095,-0.12433 0.259971,-0.13564 0.373002,-0.42952 0.124334,-0.30518 0.124334,-1.24334 v -3.85435 q 0,-1.27724 -0.09042,-1.66155 -0.169546,-0.65558 -0.700791,-1.05118 -0.531244,-0.39561 -1.356369,-0.39561 -0.926852,0 -1.944129,0.46342 -1.005974,0.45213 -2.091069,1.36768 v 5.66284 q 0,0.63297 0.113031,0.84773 0.11303,0.21476 0.373001,0.31648 0.259971,0.10173 1.039883,0.10173 h 0.463426 v 0.94946 h -5.854993 v -0.94946 h 0.350395 q 0.825125,0 1.198126,-0.20345 0.203455,-0.10173 0.29388,-0.39561 0.09043,-0.29388 0.09043,-1.62764 v -11.48393 z"
         style="-inkscape-font-specification:'Bookman Old Style'"
         id="path1744" />
      <path
         d="m 60.880948,542.28564 0.723397,0.58776 q -0.825124,0.98336 -1.605037,1.55982 -0.768609,0.57646 -1.458096,0.80252 -0.689488,0.23736 -1.61634,0.23736 -1.661553,0 -2.82577,-0.67818 -1.333763,-0.77991 -2.045856,-2.03455 -0.712094,-1.25465 -0.712094,-2.96141 0,-1.78589 0.689487,-3.05183 0.689488,-1.26595 1.921523,-1.98934 1.243339,-0.7347 2.870982,-0.7347 1.209429,0 2.102372,0.3843 0.892943,0.373 1.514612,1.14161 0.62167,0.75731 0.904247,1.74068 0.158243,0.57645 0.180849,1.492 h -7.991275 q -0.03391,0.55385 -0.03391,0.82513 0,1.42419 0.497336,2.54319 0.497335,1.1077 1.311157,1.63895 0.825124,0.51994 1.865007,0.51994 0.88164,0 1.706765,-0.40691 0.825124,-0.41822 2.000644,-1.61634 z m -1.446793,-4.56645 q -0.169547,-1.03988 -0.486033,-1.53721 -0.305183,-0.49734 -0.88164,-0.79122 -0.565153,-0.29388 -1.277247,-0.29388 -0.712094,0 -1.333763,0.29388 -0.62167,0.29388 -1.039883,0.81382 -0.406911,0.51994 -0.712094,1.51461 z"
         style="-inkscape-font-specification:'Bookman Old Style'"
         id="path1746" />
      <path
         d="m 63.254595,535.922 v -0.94945 q 1.005974,-0.11303 1.503309,-0.27128 0.497335,-0.15824 1.435491,-0.67818 h 0.813821 v 2.14758 q 1.492006,-1.25464 2.543193,-1.69546 1.062489,-0.45212 2.147584,-0.45212 0.926852,0 1.638946,0.31648 0.712094,0.30519 1.152914,0.83643 0.452123,0.53125 0.599063,1.20943 0.09042,0.41821 0.09042,1.26595 v 4.97335 q 0,0.89294 0.124333,1.15291 0.135637,0.24867 0.418214,0.3617 0.282577,0.11303 1.390279,0.11303 v 0.94946 h -5.821085 v -0.94946 h 0.316486 q 0.813822,0 1.107702,-0.14694 0.29388,-0.14694 0.418214,-0.42951 0.135637,-0.28258 0.135637,-1.15292 v -4.15953 q 0,-1.28855 -0.214759,-1.78589 -0.203455,-0.49733 -0.712094,-0.80252 -0.497335,-0.31648 -1.265944,-0.31648 -0.915549,0 -1.955432,0.47473 -1.039883,0.46342 -2.011948,1.37897 v 5.21072 q 0,0.88164 0.124334,1.17552 0.135637,0.29388 0.429517,0.44082 0.203455,0.11303 1.085095,0.11303 h 0.327789 v 0.94946 h -5.821084 v -0.94946 h 0.282577 q 0.836427,0 1.141611,-0.13563 0.305183,-0.14694 0.429516,-0.50864 0.06782,-0.18085 0.06782,-1.24334 V 535.922 Z"
         style="-inkscape-font-specification:'Bookman Old Style'"
         id="path1748" />
      <path
         d="m 92.970385,530.53044 v -0.96076 q 0.768609,-0.0678 1.401581,-0.25997 0.644275,-0.20346 1.605037,-0.68949 h 0.847731 v 13.71063 q 0,0.94946 0.04521,1.15291 0.113031,0.42952 0.384305,0.59907 0.271273,0.16954 1.051186,0.16954 h 0.486032 v 0.94946 l -3.922168,0.18085 v -1.79719 q -1.130307,1.02858 -2.124978,1.4581 -0.983368,0.42951 -1.978038,0.42951 -2.045857,0 -3.402226,-1.63894 -1.345067,-1.65025 -1.345067,-3.96738 0,-1.65025 0.712094,-3.01792 0.723397,-1.37898 1.898917,-2.10238 1.17552,-0.72339 2.577102,-0.72339 1.073792,0 1.989341,0.373 0.915549,0.373 1.672855,1.119 v -4.98465 z m 1.898916,11.93605 v -4.27257 q 0,-0.91555 -0.350395,-1.492 -0.339092,-0.58776 -1.130308,-1.01728 -0.779912,-0.42952 -1.605037,-0.42952 -0.983367,0 -1.819795,0.54255 -0.825124,0.53125 -1.299854,1.54852 -0.463426,1.00598 -0.463426,2.44147 0,1.35637 0.429517,2.35104 0.44082,0.98336 1.17552,1.50331 0.7347,0.50863 1.503309,0.50863 0.757306,0 1.718068,-0.42951 0.960761,-0.44082 1.842401,-1.25464 z"
         style="-inkscape-font-specification:'Bookman Old Style'"
         id="path1750" />
      <path
         d="m 103.07533,528.9254 q 0.54255,0 0.92685,0.38431 0.38431,0.373 0.38431,0.91554 0,0.54255 -0.38431,0.92686 -0.3843,0.3843 -0.92685,0.3843 -0.54255,0 -0.92685,-0.3843 -0.3843,-0.38431 -0.3843,-0.92686 0,-0.54254 0.3843,-0.91554 0.3843,-0.38431 0.92685,-0.38431 z m -2.88228,6.9966 v -0.93815 q 0.93815,-0.11303 1.57113,-0.31649 0.64427,-0.20345 1.45809,-0.64427 h 0.82513 v 9.06507 q 0,0.47472 0.13563,0.71209 0.13564,0.23736 0.373,0.35039 0.24867,0.10173 0.89295,0.10173 h 0.53124 v 0.94946 h -5.78717 v -0.94946 h 0.46342 q 0.75731,0 1.01728,-0.13563 0.25997,-0.13564 0.3617,-0.38431 0.11303,-0.24867 0.11303,-1.16422 V 535.922 Z"
         style="-inkscape-font-specification:'Bookman Old Style'"
         id="path1752" />
      <path
         d="m 114.87575,534.29436 h 0.79121 l 1.01728,3.45874 -1.01728,0.3391 q -0.61036,-1.39028 -1.71806,-2.1815 -1.0964,-0.80252 -2.22671,-0.80252 -0.87034,0 -1.41288,0.42952 -0.54255,0.41821 -0.54255,0.97206 0,0.51995 0.39561,0.89295 0.3843,0.3843 1.72937,0.87033 l 2.2041,0.77992 q 1.865,0.66688 2.54319,1.42418 0.66688,0.76861 0.66688,1.74068 0,0.82512 -0.49734,1.59373 -0.49733,0.75731 -1.44679,1.20943 -0.93815,0.45212 -2.15889,0.45212 -1.89891,0 -3.25528,-1.08509 l -0.23737,0.81382 h -0.80252 l -1.41288,-3.69611 1.02858,-0.40691 q 1.02858,1.62765 1.94413,2.30583 1.27725,0.96076 2.75795,0.96076 0.98337,0 1.61634,-0.51994 0.63297,-0.53124 0.63297,-1.17552 0,-0.53124 -0.39561,-0.97206 -0.40691,-0.42952 -1.55982,-0.83643 l -2.61101,-0.94946 q -1.68416,-0.61037 -2.33974,-1.33376 -0.65558,-0.7234 -0.65558,-1.66155 0,-1.14162 1.06249,-2.01195 1.0738,-0.88164 2.72404,-0.88164 0.85904,0 1.53722,0.22606 0.67819,0.21476 1.33377,0.7234 z"
         style="-inkscape-font-specification:'Bookman Old Style'"
         id="path1754" />
      <path
         d="m 129.25326,542.04827 0.7234,0.58776 q -2.12498,2.83707 -5.09769,2.83707 -2.31713,0 -3.91087,-1.65024 -1.59373,-1.65025 -1.59373,-4.10302 0,-1.63895 0.7347,-2.9388 0.746,-1.31116 2.05716,-2.03456 1.32246,-0.72339 3.02922,-0.72339 1.94413,0 3.24399,0.96076 1.29985,0.94946 1.29985,1.92152 0,0.51994 -0.30518,0.80252 -0.30519,0.28258 -0.68949,0.28258 -0.20346,0 -0.39561,-0.10173 -0.19215,-0.10173 -0.3956,-0.32779 -0.0904,-0.10173 -0.32779,-0.63297 -0.30519,-0.65558 -0.47473,-0.88164 -0.3504,-0.45212 -0.87034,-0.7121 -0.50864,-0.25997 -1.14161,-0.25997 -0.96076,0 -1.78589,0.53125 -0.81382,0.53124 -1.29985,1.57113 -0.47473,1.02858 -0.47473,2.46407 0,2.2267 1.18682,3.53786 1.02858,1.13031 2.45277,1.13031 0.65558,0 1.32246,-0.21476 0.67819,-0.22606 1.27725,-0.65558 0.44082,-0.30518 1.43549,-1.39028 z"
         style="-inkscape-font-specification:'Bookman Old Style'"
         id="path1756" />
      <path
         d="m 139.42603,538.65735 v -1.23204 q 0,-1.25464 -0.70079,-1.78588 -0.70079,-0.54255 -1.97804,-0.54255 -0.63297,0 -1.1077,0.15824 -0.47473,0.14694 -0.76861,0.41822 -0.28257,0.25997 -0.41821,0.59906 -0.0565,0.12433 -0.27128,0.96076 -0.25997,1.01728 -1.05118,1.01728 -0.45212,0 -0.7347,-0.29388 -0.27128,-0.30518 -0.27128,-0.81382 0,-0.74601 0.55386,-1.4581 0.55385,-0.7234 1.68415,-1.18682 1.14161,-0.47473 2.69014,-0.47473 1.44679,0 2.47537,0.45212 1.02858,0.44082 1.51461,1.27725 0.33909,0.57646 0.33909,2.10237 v 4.35169 q 0,0.92685 0.0565,1.20942 0.12433,0.48604 0.42952,0.7347 0.31648,0.23737 0.81382,0.23737 0.51994,0 1.24334,-0.24867 v 0.98337 q -0.93816,0.27127 -1.68416,0.27127 -0.80252,0 -1.35637,-0.22606 -0.54255,-0.22606 -0.89294,-0.65558 -0.3504,-0.44082 -0.45213,-1.03988 -1.35637,1.06249 -2.45276,1.49201 -1.0964,0.42951 -2.21541,0.42951 -1.55982,0 -2.53189,-0.84773 -0.97206,-0.84773 -0.97206,-1.98934 0,-0.68949 0.35039,-1.31116 0.3617,-0.62167 1.0851,-1.09639 0.7347,-0.47473 2.29452,-0.83643 1.55983,-0.3617 4.32908,-0.65558 z m 0,0.98337 q -2.62231,0.3843 -3.24398,0.53124 -1.23204,0.28258 -1.76328,0.62167 -0.53125,0.33909 -0.75731,0.7347 -0.22606,0.38431 -0.22606,0.82513 0,0.44082 0.24867,0.85903 0.25997,0.40691 0.7234,0.64427 0.46342,0.23737 0.98336,0.23737 0.7347,0 1.66156,-0.3504 0.92685,-0.35039 2.37364,-1.36767 z"
         style="-inkscape-font-specification:'Bookman Old Style'"
         id="path1758" />
      <path
         d="m 144.70457,535.9107 v -0.92685 q 0.82512,-0.0678 1.4694,-0.27127 0.64427,-0.21476 1.4694,-0.68949 h 0.84773 v 2.13628 q 0.80252,-0.98337 1.86501,-1.55983 1.06249,-0.57645 1.91022,-0.57645 0.83642,0 1.32246,0.39561 0.48603,0.3956 0.48603,0.96076 0,0.40691 -0.32779,0.72339 -0.31649,0.30519 -0.76861,0.30519 -0.20345,0 -0.35039,-0.0565 -0.14694,-0.0565 -0.42952,-0.24867 -0.62167,-0.40691 -1.03988,-0.40691 -0.56516,0 -1.24334,0.47473 -0.85904,0.61037 -1.34507,1.19813 v 5.21072 q 0,0.67818 0.0678,0.92685 0.0791,0.23736 0.24867,0.41821 0.16954,0.16955 0.41821,0.24867 0.24867,0.0791 0.87034,0.0791 h 0.373 v 0.94946 h -5.84369 v -0.94946 h 0.48603 q 0.68949,0 0.90425,-0.12433 0.29388,-0.16955 0.42951,-0.46343 0.14694,-0.30518 0.14694,-1.08509 v -6.66882 z"
         style="-inkscape-font-specification:'Bookman Old Style'"
         id="path1760" />
      <path
         d="m 161.95306,530.53044 v -0.96076 q 0.76861,-0.0678 1.40158,-0.25997 0.64428,-0.20346 1.60504,-0.68949 h 0.84773 v 13.71063 q 0,0.94946 0.0452,1.15291 0.11303,0.42952 0.3843,0.59907 0.27128,0.16954 1.05119,0.16954 h 0.48603 v 0.94946 l -3.92216,0.18085 v -1.79719 q -1.13031,1.02858 -2.12498,1.4581 -0.98337,0.42951 -1.97804,0.42951 -2.04586,0 -3.40223,-1.63894 -1.34506,-1.65025 -1.34506,-3.96738 0,-1.65025 0.71209,-3.01792 0.7234,-1.37898 1.89892,-2.10238 1.17552,-0.72339 2.5771,-0.72339 1.07379,0 1.98934,0.373 0.91555,0.373 1.67286,1.119 v -4.98465 z m 1.89892,11.93605 v -4.27257 q 0,-0.91555 -0.3504,-1.492 -0.33909,-0.58776 -1.13031,-1.01728 -0.77991,-0.42952 -1.60503,-0.42952 -0.98337,0 -1.8198,0.54255 -0.82512,0.53125 -1.29985,1.54852 -0.46343,1.00598 -0.46343,2.44147 0,1.35637 0.42952,2.35104 0.44082,0.98336 1.17552,1.50331 0.7347,0.50863 1.50331,0.50863 0.7573,0 1.71806,-0.42951 0.96077,-0.44082 1.84241,-1.25464 z"
         style="-inkscape-font-specification:'Bookman Old Style'"
         id="path1762" />
      <path
         d="m 179.64237,530.45132 h 0.80252 v 3.84304 h 3.35702 v 1.13031 h -3.35702 v 6.81575 q 0,0.87034 0.14694,1.24334 0.15824,0.373 0.51994,0.61037 0.373,0.23736 0.82513,0.23736 1.07379,0 2.37364,-0.96076 v 1.0964 q -1.4807,1.00597 -2.99531,1.00597 -0.85904,0 -1.55983,-0.3843 -0.68948,-0.3843 -0.94945,-0.90425 -0.24867,-0.51994 -0.24867,-1.80849 v -6.95139 h -1.97804 v -0.94946 q 0.94946,-0.21476 1.52592,-0.66688 0.58776,-0.45212 0.94945,-1.17552 0.3617,-0.7234 0.58776,-2.18149 z"
         style="-inkscape-font-specification:'Bookman Old Style'"
         id="path1764" />
      <path
         d="m 185.46346,530.54174 v -0.97206 q 1.0964,-0.14694 1.70676,-0.3391 0.61037,-0.20345 1.27725,-0.61036 h 0.88164 v 7.47133 q 1.27725,-1.07379 2.41886,-1.57113 1.14161,-0.49733 2.18149,-0.49733 1.51461,0 2.49798,0.90424 0.97207,0.90425 0.97207,2.2041 v 5.54981 q 0,0.82513 0.12433,1.0851 0.13564,0.24867 0.44082,0.373 0.30518,0.11303 1.36767,0.11303 v 0.94946 h -5.83239 v -0.94946 h 0.42952 q 0.82513,0 1.0851,-0.12433 0.25997,-0.13564 0.373,-0.42952 0.12433,-0.30518 0.12433,-1.24334 v -3.85435 q 0,-1.27724 -0.0904,-1.66155 -0.16955,-0.65558 -0.70079,-1.05118 -0.53125,-0.39561 -1.35637,-0.39561 -0.92685,0 -1.94413,0.46342 -1.00598,0.45213 -2.09107,1.36768 v 5.66284 q 0,0.63297 0.11303,0.84773 0.11303,0.21476 0.373,0.31648 0.25997,0.10173 1.03988,0.10173 h 0.46343 v 0.94946 h -5.85499 v -0.94946 h 0.35039 q 0.82513,0 1.19813,-0.20345 0.20345,-0.10173 0.29388,-0.39561 0.0904,-0.29388 0.0904,-1.62764 v -11.48393 z"
         style="-inkscape-font-specification:'Bookman Old Style'"
         id="path1766" />
      <path
         d="m 203.53709,528.9254 q 0.54254,0 0.92685,0.38431 0.3843,0.373 0.3843,0.91554 0,0.54255 -0.3843,0.92686 -0.38431,0.3843 -0.92685,0.3843 -0.54255,0 -0.92686,-0.3843 -0.3843,-0.38431 -0.3843,-0.92686 0,-0.54254 0.3843,-0.91554 0.38431,-0.38431 0.92686,-0.38431 z m -2.88229,6.9966 v -0.93815 q 0.93816,-0.11303 1.57113,-0.31649 0.64427,-0.20345 1.4581,-0.64427 h 0.82512 v 9.06507 q 0,0.47472 0.13564,0.71209 0.13563,0.23736 0.373,0.35039 0.24867,0.10173 0.89294,0.10173 h 0.53125 v 0.94946 h -5.78718 v -0.94946 h 0.46343 q 0.7573,0 1.01727,-0.13563 0.25998,-0.13564 0.3617,-0.38431 0.11303,-0.24867 0.11303,-1.16422 V 535.922 Z"
         style="-inkscape-font-specification:'Bookman Old Style'"
         id="path1768" />
      <path
         d="m 215.33749,534.29436 h 0.79121 l 1.01728,3.45874 -1.01728,0.3391 q -0.61036,-1.39028 -1.71806,-2.1815 -1.0964,-0.80252 -2.22671,-0.80252 -0.87034,0 -1.41289,0.42952 -0.54254,0.41821 -0.54254,0.97206 0,0.51995 0.3956,0.89295 0.38431,0.3843 1.72938,0.87033 l 2.2041,0.77992 q 1.865,0.66688 2.54319,1.42418 0.66688,0.76861 0.66688,1.74068 0,0.82512 -0.49734,1.59373 -0.49733,0.75731 -1.44679,1.20943 -0.93816,0.45212 -2.15889,0.45212 -1.89891,0 -3.25528,-1.08509 l -0.23737,0.81382 h -0.80252 l -1.41288,-3.69611 1.02858,-0.40691 q 1.02858,1.62765 1.94413,2.30583 1.27725,0.96076 2.75795,0.96076 0.98337,0 1.61634,-0.51994 0.63297,-0.53124 0.63297,-1.17552 0,-0.53124 -0.39561,-0.97206 -0.40691,-0.42952 -1.55982,-0.83643 l -2.61101,-0.94946 q -1.68416,-0.61037 -2.33974,-1.33376 -0.65558,-0.7234 -0.65558,-1.66155 0,-1.14162 1.06249,-2.01195 1.07379,-0.88164 2.72404,-0.88164 0.85904,0 1.53722,0.22606 0.67819,0.21476 1.33376,0.7234 z"
         style="-inkscape-font-specification:'Bookman Old Style'"
         id="path1770" />
      <path
         d="m 237.11852,542.04827 0.7234,0.58776 q -2.12498,2.83707 -5.09769,2.83707 -2.31713,0 -3.91086,-1.65024 -1.59374,-1.65025 -1.59374,-4.10302 0,-1.63895 0.7347,-2.9388 0.74601,-1.31116 2.05716,-2.03456 1.32246,-0.72339 3.02923,-0.72339 1.94413,0 3.24398,0.96076 1.29986,0.94946 1.29986,1.92152 0,0.51994 -0.30519,0.80252 -0.30518,0.28258 -0.68948,0.28258 -0.20346,0 -0.39561,-0.10173 -0.19215,-0.10173 -0.39561,-0.32779 -0.0904,-0.10173 -0.32779,-0.63297 -0.30518,-0.65558 -0.47473,-0.88164 -0.35039,-0.45212 -0.87034,-0.7121 -0.50863,-0.25997 -1.14161,-0.25997 -0.96076,0 -1.78588,0.53125 -0.81382,0.53124 -1.29986,1.57113 -0.47473,1.02858 -0.47473,2.46407 0,2.2267 1.18683,3.53786 1.02858,1.13031 2.45277,1.13031 0.65557,0 1.32246,-0.21476 0.67818,-0.22606 1.27724,-0.65558 0.44082,-0.30518 1.43549,-1.39028 z"
         style="-inkscape-font-specification:'Bookman Old Style'"
         id="path1772" />
      <path
         d="m 247.29128,538.65735 v -1.23204 q 0,-1.25464 -0.70079,-1.78588 -0.70079,-0.54255 -1.97804,-0.54255 -0.63297,0 -1.1077,0.15824 -0.47473,0.14694 -0.76861,0.41822 -0.28258,0.25997 -0.41821,0.59906 -0.0565,0.12433 -0.27128,0.96076 -0.25997,1.01728 -1.05118,1.01728 -0.45213,0 -0.7347,-0.29388 -0.27128,-0.30518 -0.27128,-0.81382 0,-0.74601 0.55385,-1.4581 0.55386,-0.7234 1.68416,-1.18682 1.14161,-0.47473 2.69014,-0.47473 1.44679,0 2.47537,0.45212 1.02858,0.44082 1.51461,1.27725 0.33909,0.57646 0.33909,2.10237 v 4.35169 q 0,0.92685 0.0565,1.20942 0.12433,0.48604 0.42952,0.7347 0.31648,0.23737 0.81382,0.23737 0.51994,0 1.24334,-0.24867 v 0.98337 q -0.93816,0.27127 -1.68416,0.27127 -0.80252,0 -1.35637,-0.22606 -0.54255,-0.22606 -0.89294,-0.65558 -0.3504,-0.44082 -0.45213,-1.03988 -1.35637,1.06249 -2.45277,1.49201 -1.09639,0.42951 -2.2154,0.42951 -1.55982,0 -2.53189,-0.84773 -0.97206,-0.84773 -0.97206,-1.98934 0,-0.68949 0.35039,-1.31116 0.3617,-0.62167 1.0851,-1.09639 0.7347,-0.47473 2.29452,-0.83643 1.55983,-0.3617 4.32908,-0.65558 z m 0,0.98337 q -2.62231,0.3843 -3.24398,0.53124 -1.23204,0.28258 -1.76328,0.62167 -0.53125,0.33909 -0.75731,0.7347 -0.22606,0.38431 -0.22606,0.82513 0,0.44082 0.24867,0.85903 0.25997,0.40691 0.7234,0.64427 0.46342,0.23737 0.98336,0.23737 0.7347,0 1.66156,-0.3504 0.92685,-0.35039 2.37364,-1.36767 z"
         style="-inkscape-font-specification:'Bookman Old Style'"
         id="path1774" />
      <path
         d="m 252.56982,535.9107 v -0.92685 q 0.82512,-0.0678 1.4694,-0.27127 0.64427,-0.21476 1.4694,-0.68949 h 0.84773 v 2.13628 q 0.80252,-0.98337 1.86501,-1.55983 1.06249,-0.57645 1.91022,-0.57645 0.83642,0 1.32246,0.39561 0.48603,0.3956 0.48603,0.96076 0,0.40691 -0.32779,0.72339 -0.31649,0.30519 -0.76861,0.30519 -0.20346,0 -0.3504,-0.0565 -0.14694,-0.0565 -0.42951,-0.24867 -0.62167,-0.40691 -1.03989,-0.40691 -0.56515,0 -1.24333,0.47473 -0.85904,0.61037 -1.34507,1.19813 v 5.21072 q 0,0.67818 0.0678,0.92685 0.0791,0.23736 0.24867,0.41821 0.16954,0.16955 0.41821,0.24867 0.24867,0.0791 0.87034,0.0791 h 0.373 v 0.94946 h -5.84369 v -0.94946 h 0.48603 q 0.68949,0 0.90425,-0.12433 0.29388,-0.16955 0.42951,-0.46343 0.14694,-0.30518 0.14694,-1.08509 v -6.66882 z"
         style="-inkscape-font-specification:'Bookman Old Style'"
         id="path1776" />
      <path
         d="m 269.81832,530.53044 v -0.96076 q 0.76861,-0.0678 1.40158,-0.25997 0.64428,-0.20346 1.60504,-0.68949 h 0.84773 v 13.71063 q 0,0.94946 0.0452,1.15291 0.11304,0.42952 0.38431,0.59907 0.27127,0.16954 1.05119,0.16954 h 0.48603 v 0.94946 l -3.92217,0.18085 v -1.79719 q -1.13031,1.02858 -2.12498,1.4581 -0.98337,0.42951 -1.97804,0.42951 -2.04585,0 -3.40222,-1.63894 -1.34507,-1.65025 -1.34507,-3.96738 0,-1.65025 0.71209,-3.01792 0.7234,-1.37898 1.89892,-2.10238 1.17552,-0.72339 2.5771,-0.72339 1.0738,0 1.98934,0.373 0.91555,0.373 1.67286,1.119 v -4.98465 z m 1.89892,11.93605 v -4.27257 q 0,-0.91555 -0.3504,-1.492 -0.33909,-0.58776 -1.1303,-1.01728 -0.77992,-0.42952 -1.60504,-0.42952 -0.98337,0 -1.8198,0.54255 -0.82512,0.53125 -1.29985,1.54852 -0.46343,1.00598 -0.46343,2.44147 0,1.35637 0.42952,2.35104 0.44082,0.98336 1.17552,1.50331 0.7347,0.50863 1.50331,0.50863 0.75731,0 1.71807,-0.42951 0.96076,-0.44082 1.8424,-1.25464 z"
         style="-inkscape-font-specification:'Bookman Old Style'"
         id="path1778" />
      <path
         d="m 279.99109,542.56821 q 0.59906,0 1.00597,0.41822 0.41822,0.40691 0.41822,0.99467 0,0.58776 -0.41822,1.00597 -0.41821,0.40691 -1.00597,0.40691 -0.57646,0 -0.99467,-0.40691 -0.41822,-0.41821 -0.41822,-1.00597 0,-0.58776 0.40692,-0.99467 0.41821,-0.41822 1.00597,-0.41822 z"
         style="-inkscape-font-specification:'Bookman Old Style'"
         id="path1780" />
    </g>
    <g
       id="text37431"
       style="font-size:6.35px;font-family:'Bookman Old Style';-inkscape-font-specification:'Bookman Old Style';fill:#941913;paint-order:markers fill stroke" />
    <g
       id="path37705">
      <g
         id="g1625">
        <g
           id="path1635">
          <path
             style="color:#000000;fill:#000000;fill-rule:evenodd;stroke-width:1.01461pt;-inkscape-stroke:none"
             d="m 66.571183,96.164351 c -1.632852,-2.275011 -1.111679,-5.446611 1.163333,-7.079463 2.275011,-1.632852 5.446611,-1.111679 7.079463,1.163333 1.632852,2.275011 1.062222,5.482108 -1.163333,7.079463 -2.275011,1.632852 -5.446611,1.111679 -7.079463,-1.163333 z"
             id="path1639" />
          <path
             style="color:#000000;fill:#000000;fill-rule:evenodd;-inkscape-stroke:none"
             d="m 71.625,87.537109 c -1.453522,-0.23885 -2.99899,0.07492 -4.285156,0.998047 -2.572333,1.846249 -3.164609,5.451106 -1.31836,8.023438 1.846249,2.572333 5.451106,3.164608 8.023438,1.318359 2.529483,-1.815494 3.170325,-5.443141 1.318359,-8.023437 C 74.440157,88.567349 73.078522,87.775959 71.625,87.537109 Z m -0.21875,1.328125 c 1.109241,0.182276 2.147696,0.788501 2.857422,1.777344 1.413735,1.969722 0.91381,4.755553 -1.007813,6.134766 -1.977685,1.419451 -4.715314,0.969874 -6.134765,-1.007813 -1.419452,-1.977685 -0.969874,-4.715314 1.007812,-6.134765 0.988843,-0.709726 2.168103,-0.951808 3.277344,-0.769532 z"
             id="path1641" />
        </g>
        <g
           id="path1627"
           transform="rotate(35.761106,40.512696,99.651033)">
          <path
             style="color:#000000;fill:#000000;fill-rule:evenodd;stroke-width:1.61337pt;-inkscape-stroke:none"
             d="M 29.782653,90.225942 45.728538,89.78708 37.600446,104.13083 Z"
             id="path1631" />
          <path
             style="color:#000000;fill:#000000;fill-rule:evenodd;-inkscape-stroke:none"
             d="m 47.603516,88.660156 -19.63086,0.539063 0.873047,1.554687 8.751953,15.564454 z m -3.75,2.253906 -6.25,11.027348 -6.009766,-10.689457 z"
             id="path1633" />
        </g>
      </g>
      <path
         style="color:#000000;fill:#000000;-inkscape-stroke:none;paint-order:markers fill stroke"
         d="m 54.003906,36.056641 c -1.83743,-0.0354 -3.680498,0.08322 -5.505859,0.357421 -6.77485,1.017695 -13.149945,4.164838 -18.076172,8.925782 -4.926228,4.760943 -8.29084,11.02553 -9.539063,17.761718 -1.248221,6.736189 -0.352302,13.792042 2.541016,20.001954 2.893318,6.209912 7.717328,11.432997 13.677734,14.810546 l 3.400391,-6.001953 c -4.68356,-2.654006 -8.552665,-6.84304 -10.826172,-11.722656 -2.273507,-4.879615 -2.992544,-10.536925 -2.011719,-15.830078 0.980827,-5.293154 3.679858,-10.317547 7.550782,-14.058594 3.870924,-3.741047 8.985062,-6.266724 14.308593,-7.066406 5.730942,-0.860882 11.818373,0.275359 16.853516,3.144531 5.035144,2.869173 9.116041,7.52724 11.296875,12.896485 2.180834,5.369244 2.50486,11.555466 0.896484,17.123046 -1.608375,5.56758 -5.18058,10.626705 -9.888671,14.00586 l 4.021484,5.603515 C 78.701417,91.702637 83.148133,85.405813 85.197266,78.3125 87.246398,71.219187 86.84292,63.520313 84.064453,56.679687 81.285986,49.839062 76.207938,44.040203 69.792969,40.384766 64.981743,37.643188 59.516198,36.162846 54.003906,36.056641 Z"
         id="path1643" />
    </g>
  </g>
</svg>
