<?xml version="1.0" encoding="UTF-8" standalone="no"?>
<!-- Created with Inkscape (http://www.inkscape.org/) -->

<svg
   width="400.00006"
   height="600"
   viewBox="0 0 105.83335 158.75"
   version="1.1"
   id="svg5"
   inkscape:export-filename="CardTemplate.svg"
   inkscape:export-xdpi="26.281288"
   inkscape:export-ydpi="26.281288"
   sodipodi:docname="TurduckenCard.svg"
   inkscape:version="1.2.2 (732a01da63, 2022-12-09)"
   xmlns:inkscape="http://www.inkscape.org/namespaces/inkscape"
   xmlns:sodipodi="http://sodipodi.sourceforge.net/DTD/sodipodi-0.dtd"
   xmlns="http://www.w3.org/2000/svg"
   xmlns:svg="http://www.w3.org/2000/svg">
  <sodipodi:namedview
     id="namedview7"
     pagecolor="#505050"
     bordercolor="#ffffff"
     borderopacity="1"
     inkscape:showpageshadow="0"
     inkscape:pageopacity="0"
     inkscape:pagecheckerboard="1"
     inkscape:deskcolor="#505050"
     inkscape:document-units="mm"
     showgrid="false"
     showguides="true"
     inkscape:zoom="0.94752309"
     inkscape:cx="-69.655295"
     inkscape:cy="337.19495"
     inkscape:window-width="1920"
     inkscape:window-height="991"
     inkscape:window-x="-9"
     inkscape:window-y="-9"
     inkscape:window-maximized="1"
     inkscape:current-layer="layer1" />
  <defs
     id="defs2">
    <linearGradient
       id="linearGradient3910"
       inkscape:swatch="solid">
      <stop
         style="stop-color:#000000;stop-opacity:1;"
         offset="0"
         id="stop3908" />
    </linearGradient>
    <linearGradient
       id="linearGradient3902"
       inkscape:swatch="solid">
      <stop
         style="stop-color:#000000;stop-opacity:1;"
         offset="0"
         id="stop3900" />
    </linearGradient>
    <linearGradient
       id="linearGradient1908"
       inkscape:swatch="gradient">
      <stop
         style="stop-color:#412a2a;stop-opacity:1;"
         offset="0.83033931"
         id="stop1904" />
      <stop
         style="stop-color:#412a2a;stop-opacity:0;"
         offset="0.84431136"
         id="stop1906" />
    </linearGradient>
    <rect
       x="20.732048"
       y="466.96472"
       width="356.39377"
       height="115.50713"
       id="rect857" />
    <rect
       x="13.821366"
       y="17.770327"
       width="368.24066"
       height="96.749557"
       id="rect721" />
  </defs>
  <g
     inkscape:label="Layer 1"
     inkscape:groupmode="layer"
     id="layer1"
     transform="translate(-0.33529438,-0.33529437)">
    <g
       id="rect386">
      <path
         style="color:#000000;fill:#c87137;stroke-width:2.64597;stroke-linejoin:round;-inkscape-stroke:none;paint-order:markers fill stroke"
         d="M 1.6582794,1.6582794 H 104.84566 V 157.76231 H 1.6582794 Z"
         id="path3467" />
      <path
         style="color:#000000;fill:#331f14;stroke-linejoin:round;-inkscape-stroke:none;paint-order:markers fill stroke"
         d="M 1.6582031,0.3359375 A 1.3231174,1.3231174 0 0 0 0.3359375,1.6582031 V 157.76172 a 1.3231174,1.3231174 0 0 0 1.3222656,1.32422 H 104.8457 a 1.3231174,1.3231174 0 0 0 1.32227,-1.32422 V 1.6582031 A 1.3231174,1.3231174 0 0 0 104.8457,0.3359375 Z M 2.9804688,2.9804688 H 103.52344 V 156.43945 H 2.9804688 Z"
         id="path3469" />
    </g>
    <path
       id="rect711"
       style="opacity:1;vector-effect:none;fill:#dc4e27;stroke-width:0.289246;stop-color:#000000;stop-opacity:1"
       d="M 4.7017326,31.71199 H 101.13161 v 80.49623 H 4.7017326 Z" />
    <g
       aria-label="Turducken"
       transform="matrix(0.26458333,0,0,0.26458333,0,9.5250005)"
       id="text719"
       style="font-size:53.3333px;line-height:0;font-family:Broadway;-inkscape-font-specification:Broadway;text-align:center;letter-spacing:0px;word-spacing:0px;baseline-shift:baseline;white-space:pre;shape-inside:url(#rect721);display:inline;opacity:1;vector-effect:none;stroke-width:0.999999;stop-color:#000000;stop-opacity:1">
      <path
         d="m 64.713296,8.8837292 -0.130209,8.1510368 -0.07813,7.73437 0.07813,17.916656 H 48.69768 l 0.15625,-20.755196 -0.07813,-7.057287 -0.07813,-5.9895798 -3.437498,0.078125 -4.921872,0.1041666 -0.729166,0.026042 q -1.249999,0 -1.249999,-0.9374995 0,-0.8333328 0.729166,-0.9374994 0.208333,-0.052083 1.276041,-0.078125 h 31.953106 q 1.666665,0.026042 1.979165,0.1562499 0.520833,0.2083333 0.520833,0.8854162 0,0.8854161 -1.328124,0.8854161 L 71.223708,8.9878958 65.234129,8.8837292 Z"
         id="path3294" />
      <path
         d="m 109.01015,14.248309 -0.0781,20.468738 0.0781,7.968745 H 95.702861 V 39.01392 q -3.307289,2.265623 -6.041663,3.255206 -2.708331,0.989583 -5.67708,0.989583 -5.442705,0 -7.89062,-3.229165 -0.911458,-1.197916 -1.276041,-2.708332 -0.338541,-1.536457 -0.338541,-4.348956 l 0.05208,-6.093746 0.02604,-4.062497 -0.130209,-8.567704 h 13.307284 l -0.130208,13.072909 0.02604,4.947914 0.02604,3.333331 q 0,2.99479 0.364583,3.593748 0.442708,0.677083 1.666666,0.677083 1.249999,0 2.578123,-0.651041 1.354166,-0.651042 3.489582,-2.317707 l 0.02604,-3.411457 0.05208,-9.296869 -0.15625,-9.14062 v -0.807291 z"
         id="path3296" />
      <path
         d="m 128.35909,22.321221 -0.0521,9.999994 0.10417,10.364577 h -13.35937 l 0.026,-1.43229 0.026,-5.312497 0.0781,-9.557286 -0.10417,-10.624994 -0.026,-1.510416 h 13.33333 v 5.36458 q 2.99479,-3.177081 4.16666,-4.010414 2.70833,-1.90104 5.10416,-1.90104 1.45834,0 2.39584,0.624999 0.96354,0.625 0.96354,1.588541 0,0.755208 -0.57292,1.249999 -0.57292,0.494792 -1.43229,0.494792 -0.54688,0 -1.22396,-0.3125 -1.14583,-0.546875 -1.90104,-0.546875 -1.875,0 -3.61979,1.276041 -1.74479,1.276041 -3.90625,4.244789 z"
         id="path3298" />
      <path
         d="m 175.44239,7.1389385 -0.0521,12.7343675 -0.026,9.010411 0.0781,12.630201 v 1.171874 h -13.30728 v -3.385414 q -2.13542,2.135415 -4.14062,3.046873 -1.97917,0.911458 -4.50521,0.911458 -4.94791,0 -8.80208,-3.645831 -4.76562,-4.505206 -4.76562,-11.432285 0,-6.718746 4.60937,-10.911452 4.08854,-3.723956 9.19271,-3.723956 2.26562,0 4.37499,0.859374 2.13542,0.859375 4.11458,2.578124 L 162.10907,7.1389385 Z M 162.21323,19.118098 q -2.03125,-1.848957 -3.67187,-2.760415 -1.61458,-0.911458 -2.86458,-0.911458 -0.98958,0 -1.35417,0.729166 -0.33854,0.703125 -0.33854,2.682291 l 0.026,1.145832 v 17.49999 q 0.026,2.109374 0.1823,2.630207 0.3125,1.119791 1.51041,1.119791 1.30208,0 2.76042,-0.963542 1.45833,-0.989582 3.74999,-3.411456 z"
         id="path3300" />
      <path
         d="m 215.70279,14.248309 -0.0781,20.468738 0.0781,7.968745 H 202.39551 V 39.01392 q -3.30729,2.265623 -6.04167,3.255206 -2.70833,0.989583 -5.67708,0.989583 -5.4427,0 -7.89062,-3.229165 -0.91145,-1.197916 -1.27604,-2.708332 -0.33854,-1.536457 -0.33854,-4.348956 l 0.0521,-6.093746 0.026,-4.062497 -0.13021,-8.567704 h 13.30728 l -0.13021,13.072909 0.026,4.947914 0.026,3.333331 q 0,2.99479 0.36458,3.593748 0.44271,0.677083 1.66667,0.677083 1.25,0 2.57812,-0.651041 1.35417,-0.651042 3.48958,-2.317707 l 0.026,-3.411457 0.0521,-9.296869 -0.15625,-9.14062 v -0.807291 z"
         id="path3302" />
      <path
         d="m 233.98403,19.899348 v 17.395823 l -0.026,1.666665 q 0,1.614583 0.39062,2.161457 0.41667,0.520833 1.64063,0.520833 3.07291,0 6.04166,-1.874999 2.96875,-1.90104 4.84375,-5.078122 0.57291,-0.963541 1.11979,-0.963541 0.39062,0 0.70312,0.364583 0.33854,0.338542 0.33854,0.729167 0,0.937499 -1.51041,2.656248 -1.51042,1.692707 -3.51563,3.046873 -4.08853,2.734374 -8.74999,2.734374 -6.3802,0 -10.54687,-3.958331 -4.73958,-4.453123 -4.73958,-10.911452 0,-6.666663 5,-11.093744 4.1927,-3.749997 10.33853,-3.749997 4.89583,0 8.56771,2.317707 1.5625,0.989582 2.55208,2.135415 0.98958,1.119791 0.98958,1.901041 0,0.390624 -0.28646,0.677083 -0.28646,0.260416 -0.70312,0.260416 -0.54688,0 -1.38021,-1.249999 -1.19792,-1.744791 -3.77604,-3.020832 -2.57812,-1.302082 -4.86979,-1.302082 -1.53646,0 -1.97916,0.859374 -0.44271,0.859375 -0.44271,3.77604 z"
         id="path3304" />
      <path
         d="m 274.37464,19.691014 2.96875,4.921872 2.83854,4.791664 q 4.1927,6.927079 5.70312,9.166661 1.53645,2.213541 3.41145,4.114581 h -15.49478 l -4.8177,-8.411453 q -2.65625,-4.713539 -4.0625,-6.822913 v 1.197916 l 0.026,4.687498 0.0521,8.124995 0.026,1.223957 h -13.33332 l 0.10417,-12.552075 0.026,-7.23958 -0.10417,-14.5312409 -0.026,-1.2239576 h 13.33332 l -0.10416,17.1093645 v 1.40625 q 7.26562,-6.536455 10.02603,-8.567704 3.59375,-2.708331 6.27604,-2.708331 2.00521,0 2.00521,1.458332 0,0.520833 -0.36458,0.885416 -0.36459,0.338542 -0.91146,0.338542 -0.3125,0 -0.72917,-0.130209 -0.72916,-0.208333 -1.11979,-0.208333 -1.09375,0 -2.31771,0.651041 -1.22395,0.625 -3.41145,2.317707 z"
         id="path3306" />
      <path
         d="m 298.98398,29.300384 v 8.072912 q 0,2.343748 0.28646,2.968748 0.54687,1.197916 2.57812,1.197916 3.02083,0 5.96354,-1.640624 2.96875,-1.666666 5.1302,-4.583331 0.70313,-0.963541 1.01563,-1.223958 0.3125,-0.260416 0.67708,-0.260416 0.44271,0 0.72917,0.338541 0.28646,0.3125 0.28646,0.807292 0,1.093749 -1.74479,2.942706 -2.29167,2.36979 -5.70313,3.854165 -3.38541,1.484374 -6.61458,1.484374 -5.54687,0 -9.79166,-3.723956 -2.47395,-2.187499 -3.80208,-5.390622 -1.17187,-2.812499 -1.17187,-5.624997 0,-2.708332 1.04166,-5.416663 1.04167,-2.734374 2.86459,-4.713539 2.10937,-2.317707 4.99999,-3.593748 2.83854,-1.249999 5.9375,-1.249999 4.8177,0 8.72395,2.83854 6.09375,4.42708 6.04167,12.838534 h -6.06771 l -7.81249,0.02604 z m 6.66666,-1.718749 v -7.604162 q -0.0521,-2.447916 -0.10416,-2.916665 -0.0521,-0.494792 -0.36459,-0.911458 -0.72916,-1.015625 -2.96875,-1.015625 -2.29166,0 -2.86458,1.171875 -0.36458,0.703124 -0.36458,3.671873 v 7.604162 l 3.17708,0.104166 z"
         id="path3308" />
      <path
         d="m 333.85376,14.248309 v 3.61979 q 3.04688,-2.161457 5.96354,-3.229165 2.91667,-1.093749 5.67708,-1.093749 3.69792,0 6.25,1.692707 1.92708,1.276041 2.57812,3.177081 0.67708,1.874999 0.67708,6.14583 l -0.0521,12.057285 0.0781,6.067704 h -13.2552 l 0.10416,-7.239579 0.0781,-5.312496 -0.026,-8.020829 q -0.026,-2.786457 -0.0781,-3.30729 -0.026,-0.546874 -0.23437,-0.963541 -0.41667,-0.833333 -1.79688,-0.833333 -1.27604,0 -2.76041,0.729167 -1.48438,0.729166 -3.20313,2.187498 l -0.026,1.067708 -0.0521,7.317704 -0.0521,5.598955 0.0781,7.656245 0.026,1.119791 h -13.30728 l 0.0781,-10.208327 0.0781,-6.744788 -0.0781,-5.833329 -0.0781,-5.651039 z"
         id="path3310" />
    </g>
    <g
       aria-label="Description:"
       id="text733"
       style="font-size:7.05556px;line-height:0px;font-family:Broadway;-inkscape-font-specification:Broadway;opacity:1;vector-effect:none;stroke-width:0.264583;stop-color:#000000;stop-opacity:1">
      <path
         d="m 4.7016462,116.51791 h 1.8121214 q 0.7096901,0 1.0679802,0.0689 0.8853902,0.16881 1.4297156,0.94396 0.4271921,0.60978 0.4271921,1.34359 0,0.74758 -0.4409725,1.36081 -0.530545,0.74069 -1.3849293,0.91984 -0.2204862,0.0448 -0.3927411,0.0551 -0.1722549,0.0103 -0.7579215,0.0103 H 4.7119815 l 0.010335,-2.27377 z m 2.1049547,0.22048 -0.017226,2.76986 0.020671,1.49173 q 0.4616431,-0.003 0.6614587,-0.0344 0.2032608,-0.0345 0.4650882,-0.14814 0.6166725,-0.26527 0.9680725,-0.85438 0.3066137,-0.50643 0.3066137,-1.09555 0,-0.64078 -0.3617353,-1.17822 -0.6442333,-0.95429 -1.9085841,-0.95429 z"
         id="path3269" />
      <path
         d="m 11.3748,119.44969 v 1.06798 q 0,0.31006 0.0379,0.39274 0.07235,0.15847 0.341065,0.15847 0.399631,0 0.788927,-0.21704 0.392742,-0.22049 0.678685,-0.60634 0.09302,-0.12746 0.134358,-0.16192 0.04134,-0.0344 0.08957,-0.0344 0.05857,0 0.09646,0.0448 0.0379,0.0413 0.0379,0.1068 0,0.14469 -0.230822,0.38929 -0.303168,0.31351 -0.754476,0.50988 -0.447863,0.19637 -0.875055,0.19637 -0.733806,0 -1.295357,-0.49265 -0.327284,-0.28939 -0.5029839,-0.71314 -0.1550294,-0.37207 -0.1550294,-0.74414 0,-0.35829 0.1378039,-0.71658 0.1378034,-0.36173 0.3789604,-0.62356 0.279053,-0.30661 0.661459,-0.47542 0.375516,-0.16537 0.785482,-0.16537 0.637343,0 1.154108,0.37552 0.806153,0.58566 0.799263,1.69843 h -0.802708 l -1.033529,0.003 z m 0.881945,-0.22738 v -1.00597 q -0.0069,-0.32384 -0.01378,-0.38585 -0.0069,-0.0655 -0.04823,-0.12058 -0.09646,-0.13436 -0.392742,-0.13436 -0.303168,0 -0.37896,0.15503 -0.04823,0.093 -0.04823,0.48576 v 1.00597 l 0.420302,0.0138 z"
         id="path3271" />
      <path
         d="m 14.161884,120.58312 q 0.0689,0 0.1757,0.10336 0.172254,0.16192 0.489203,0.27905 0.316949,0.11369 0.592557,0.11369 0.127469,0 0.189481,-0.0413 0.06546,-0.0448 0.06546,-0.12747 0,-0.0827 -0.08957,-0.19637 -0.08613,-0.11714 -0.389296,-0.44442 -0.740696,-0.79237 -0.961182,-1.11277 -0.217041,-0.32384 -0.217041,-0.62011 0,-0.25839 0.148139,-0.49265 0.151584,-0.23772 0.420302,-0.40308 0.444417,-0.27561 1.019749,-0.27561 0.423747,0 0.895725,0.17915 0.368625,0.14125 0.368625,0.30661 0,0.0517 -0.04479,0.093 -0.04134,0.0413 -0.09646,0.0413 -0.06546,0 -0.244602,-0.12747 -0.36518,-0.26183 -0.795817,-0.26183 -0.151584,0 -0.230822,0.0482 -0.07579,0.0482 -0.07579,0.14813 0,0.11714 0.141249,0.29628 0.144694,0.17915 0.582222,0.60634 0.427192,0.41686 0.54088,0.54777 0.117133,0.12747 0.223931,0.29628 0.182591,0.28939 0.182591,0.62701 0,0.53054 -0.51332,0.85783 -0.420302,0.27216 -1.033529,0.27216 -0.68213,0 -1.20923,-0.30317 -0.155029,-0.093 -0.213596,-0.15158 -0.05512,-0.0586 -0.05512,-0.12747 0,-0.12747 0.134359,-0.13092 z"
         id="path3273" />
      <path
         d="m 19.236512,118.20601 v 2.30132 l -0.0034,0.22049 q 0,0.21359 0.05168,0.28594 0.05512,0.0689 0.217041,0.0689 0.406522,0 0.799263,-0.24804 0.392741,-0.2515 0.640788,-0.6718 0.07579,-0.12747 0.148139,-0.12747 0.05168,0 0.09302,0.0482 0.04479,0.0448 0.04479,0.0965 0,0.12402 -0.199816,0.3514 -0.199815,0.22393 -0.465088,0.40307 -0.54088,0.36174 -1.157553,0.36174 -0.844049,0 -1.395264,-0.52366 -0.627008,-0.58911 -0.627008,-1.44349 0,-0.88195 0.661459,-1.46761 0.55466,-0.4961 1.367703,-0.4961 0.647679,0 1.133438,0.30662 0.206705,0.13091 0.337619,0.28249 0.130914,0.14814 0.130914,0.2515 0,0.0517 -0.0379,0.0896 -0.0379,0.0344 -0.09302,0.0344 -0.07235,0 -0.18259,-0.16537 -0.158474,-0.23082 -0.499539,-0.39963 -0.341065,-0.17225 -0.644233,-0.17225 -0.203261,0 -0.261828,0.11369 -0.05857,0.11369 -0.05857,0.49954 z"
         id="path3275" />
      <path
         d="m 23.353405,118.5264 -0.0069,1.32292 0.01378,1.37115 H 21.59296 l 0.0034,-0.18948 0.0034,-0.7028 0.01034,-1.26435 -0.01378,-1.4056 -0.0034,-0.19982 h 1.76389 v 0.70969 q 0.396186,-0.4203 0.551215,-0.53055 0.358291,-0.25149 0.67524,-0.25149 0.192925,0 0.316949,0.0827 0.127468,0.0827 0.127468,0.21015 0,0.0999 -0.07579,0.16536 -0.07579,0.0655 -0.18948,0.0655 -0.07235,0 -0.16192,-0.0413 -0.151584,-0.0724 -0.251492,-0.0724 -0.248047,0 -0.478869,0.16881 -0.230821,0.16881 -0.516764,0.56155 z"
         id="path3277" />
      <path
         d="m 26.202501,116.25264 q 0.909506,0 0.909506,0.47542 0,0.23082 -0.241157,0.36173 -0.237712,0.12747 -0.671794,0.12747 -0.86472,0 -0.86472,-0.4892 0,-0.46853 0.868165,-0.47542 z m 0.89228,1.20578 v 0.0999 l -0.0069,0.53743 -0.0069,0.83372 -0.01034,1.26779 0.01378,0.71314 0.0069,0.31006 h -1.77078 l 0.01722,-1.2678 0.01034,-1.11966 -0.0069,-0.58911 -0.01034,-0.65457 0.0034,-0.13091 z"
         id="path3279" />
      <path
         d="m 27.911269,117.45842 h 1.760445 l -0.01034,0.45131 q 0.347955,-0.29973 0.637343,-0.4203 0.289388,-0.12403 0.637343,-0.12403 0.713136,0 1.157553,0.53055 0.399631,0.47542 0.399631,1.20923 0,0.78203 -0.458198,1.28502 -0.423747,0.46509 -1.057645,0.46509 -0.334174,0 -0.664903,-0.13781 -0.33073,-0.14125 -0.658014,-0.4203 l 0.0034,0.12747 0.0034,0.45131 0.0069,0.37551 0.0034,0.12747 h -1.760445 l 0.0034,-0.98185 0.0069,-0.91295 -0.01034,-1.90514 z m 1.75011,0.76137 v 1.79834 q 0.251492,0.23426 0.451308,0.35484 0.199816,0.11714 0.347955,0.11714 0.137804,0 0.161919,-0.13436 0.0069,-0.0448 0.01034,-0.46509 v -1.68465 q 0,-0.29973 -0.01034,-0.35829 -0.02412,-0.1447 -0.144694,-0.1447 -0.155029,0 -0.375515,0.14125 -0.220487,0.1378 -0.440973,0.37552 z"
         id="path3281" />
      <path
         d="m 34.84625,116.24575 -0.0379,1.11276 -0.0034,0.1068 q 0.299723,0 0.544325,-0.0241 0.04134,-0.003 0.07235,-0.003 0.151585,0 0.151585,0.1378 0,0.12747 -0.158475,0.12747 -0.04823,0 -0.120578,-0.007 -0.272163,-0.0207 -0.389296,-0.0207 h -0.09991 l -0.0034,0.66835 0.01378,1.34014 0.01033,0.71658 q 0,0.2515 0.0379,0.3514 0.0379,0.0999 0.130913,0.0999 0.124024,0 0.265273,-0.14469 0.137804,-0.1447 0.217041,-0.35485 0.07235,-0.19981 0.172255,-0.19981 0.117133,0 0.117133,0.13091 0,0.13091 -0.117133,0.32728 -0.117133,0.19293 -0.282498,0.33762 -0.406522,0.35485 -1.0542,0.35485 -0.609782,0 -0.943957,-0.36863 -0.172255,-0.18603 -0.237712,-0.41341 -0.06546,-0.23082 -0.06546,-0.63734 v -0.25838 l 0.0034,-0.72692 v -1.23334 q -0.04823,-0.003 -0.0689,-0.003 -0.03445,0 -0.137804,0.007 -0.08613,0.007 -0.144694,0.007 -0.16881,0 -0.16881,-0.12747 0,-0.12402 0.161919,-0.12402 0.07579,0 0.106799,0.003 l 0.251492,0.0172 v -0.3893 q 1.019749,-0.36862 1.77767,-0.80959 z"
         id="path3283" />
      <path
         d="m 36.882303,116.25264 q 0.909506,0 0.909506,0.47542 0,0.23082 -0.241157,0.36173 -0.237712,0.12747 -0.671794,0.12747 -0.86472,0 -0.86472,-0.4892 0,-0.46853 0.868165,-0.47542 z m 0.89228,1.20578 v 0.0999 l -0.0069,0.53743 -0.0069,0.83372 -0.01034,1.26779 0.01378,0.71314 0.0069,0.31006 h -1.77078 l 0.01723,-1.2678 0.01034,-1.11966 -0.0069,-0.58911 -0.01034,-0.65457 0.0034,-0.13091 z"
         id="path3285" />
      <path
         d="m 40.313622,117.3654 q 0.554661,0 1.050755,0.30662 0.458198,0.28249 0.699355,0.7717 0.213596,0.43064 0.213596,0.91295 0,0.33073 -0.127469,0.6649 -0.124023,0.33418 -0.341064,0.59256 -0.303169,0.35484 -0.740696,0.53399 -0.358291,0.14814 -0.747587,0.14814 -0.651123,0 -1.171333,-0.38585 -0.406521,-0.29628 -0.616672,-0.76137 -0.1757,-0.39274 -0.1757,-0.83027 0,-0.85438 0.620117,-1.41938 0.582222,-0.52365 1.336698,-0.53399 z m -0.09991,0.22393 -0.01034,3.47266 q 0.106798,0.007 0.148139,0.007 0.478869,0 0.916396,-0.26872 0.420302,-0.26182 0.630453,-0.69591 0.165365,-0.3445 0.165365,-0.75792 0,-0.83027 -0.613228,-1.34703 -0.496094,-0.41686 -1.078315,-0.41686 -0.04823,0 -0.158475,0.007 z"
         id="path3287" />
      <path
         d="m 44.582098,117.45842 v 0.47887 q 0.403077,-0.28594 0.788927,-0.42719 0.385851,-0.1447 0.751032,-0.1447 0.489204,0 0.826823,0.22393 0.254937,0.16881 0.341065,0.42031 0.08957,0.24804 0.08957,0.81304 l -0.0069,1.59508 0.01034,0.80271 h -1.753555 l 0.01378,-0.95774 0.01033,-0.7028 -0.0034,-1.06109 q -0.0034,-0.36863 -0.01033,-0.43753 -0.0034,-0.0724 -0.03101,-0.12747 -0.05512,-0.11024 -0.237712,-0.11024 -0.168809,0 -0.36518,0.0965 -0.19637,0.0965 -0.423747,0.28939 l -0.0034,0.14125 -0.0069,0.96807 -0.0069,0.7407 0.01034,1.01286 0.0034,0.14814 h -1.760445 l 0.01034,-1.35048 0.01034,-0.89228 -0.01034,-0.7717 -0.01034,-0.74759 z"
         id="path3289" />
      <path
         d="m 49.067614,119.7942 q 0.458198,0 0.73725,0.20326 0.279053,0.20326 0.279053,0.54432 0,0.34796 -0.282498,0.56844 -0.282498,0.21704 -0.733805,0.21704 -0.568442,0 -0.85094,-0.31694 -0.165364,-0.18604 -0.165364,-0.43409 0,-0.3514 0.275608,-0.56155 0.275607,-0.21359 0.740696,-0.22048 z m 0,-1.97404 q 0.458198,0 0.73725,0.20326 0.279053,0.20326 0.279053,0.54432 0,0.34796 -0.282498,0.56844 -0.282498,0.21704 -0.733805,0.21704 -0.568442,0 -0.85094,-0.31695 -0.165364,-0.18603 -0.165364,-0.43408 0,-0.3514 0.275608,-0.56155 0.275607,-0.21359 0.740696,-0.22048 z"
         id="path3291" />
    </g>
    <g
       aria-label="Remove the duck from the battlefield, and discard this card."
       transform="matrix(0.27431353,0,0,0.27431353,-0.8676689,-4.702566)"
       id="text855"
       style="font-size:23.1487px;line-height:23.1487px;font-family:Broadway;-inkscape-font-specification:Broadway;white-space:pre;shape-inside:url(#rect857);display:inline;opacity:1;vector-effect:none;stroke-width:0.999999;stop-color:#000000;stop-opacity:1">
      <path
         d="m 21.851426,473.58602 h 8.138216 q 2.31713,0 3.503953,0.48603 1.186823,0.47473 1.819796,1.39028 0.644275,0.90424 0.644275,2.10237 0,1.23203 -0.621669,2.1928 -0.621669,0.94945 -1.797189,1.50331 -1.164217,0.54254 -3.097043,0.56515 l 4.159532,5.08638 q 0.508638,0.63298 0.666881,0.77992 0.395608,0.35039 0.825125,0.53124 0.44082,0.18085 0.983368,0.18085 h 0.282576 v 0.94946 h -3.594378 l -5.787175,-7.52785 h -2.023251 v 4.86032 q 0,0.81382 0.05652,1.01728 0.124333,0.3843 0.395607,0.54255 0.282577,0.15824 1.085096,0.15824 h 0.40691 v 0.94946 h -6.047146 v -0.94946 h 0.542548 q 0.610366,0 0.813822,-0.0791 0.214758,-0.0791 0.373001,-0.27128 0.169546,-0.20345 0.237365,-0.50863 0.02261,-0.12434 0.03391,-1.14161 v -10.33102 q 0,-0.67818 -0.135637,-0.97206 -0.135637,-0.29388 -0.384305,-0.41822 -0.237364,-0.13563 -0.836427,-0.13563 h -0.644276 z m 4.103017,1.23203 v 5.93412 h 3.243983 q 1.650249,0 2.317131,-0.20346 0.949458,-0.27127 1.492006,-0.99467 0.553851,-0.7234 0.553851,-1.8424 0,-0.94946 -0.395608,-1.59373 -0.395608,-0.65558 -1.085095,-0.97207 -0.678185,-0.32779 -2.034554,-0.32779 z"
         style="font-family:'Bookman Old Style';-inkscape-font-specification:'Bookman Old Style'"
         id="path3166" />
      <path
         d="m 47.91632,486.43761 0.723397,0.58776 q -0.825125,0.98337 -1.605037,1.55983 -0.768609,0.57646 -1.458097,0.80252 -0.689487,0.23736 -1.61634,0.23736 -1.661552,0 -2.825769,-0.67818 -1.333763,-0.77991 -2.045857,-2.03456 -0.712093,-1.25464 -0.712093,-2.9614 0,-1.78589 0.689487,-3.05183 0.689488,-1.26595 1.921523,-1.98934 1.243339,-0.7347 2.870982,-0.7347 1.209429,0 2.102372,0.3843 0.892943,0.373 1.514612,1.14161 0.621669,0.75731 0.904246,1.74067 0.158243,0.57646 0.18085,1.49201 H 40.56932 q -0.03391,0.55385 -0.03391,0.82513 0,1.42418 0.497336,2.54319 0.497335,1.1077 1.311156,1.63894 0.825125,0.51995 1.865008,0.51995 0.88164,0 1.706765,-0.40692 0.825124,-0.41821 2.000644,-1.61634 z m -1.446794,-4.56644 q -0.169546,-1.03988 -0.486032,-1.53722 -0.305183,-0.49733 -0.88164,-0.79121 -0.565154,-0.29388 -1.277248,-0.29388 -0.712093,0 -1.333763,0.29388 -0.621669,0.29388 -1.039883,0.81382 -0.40691,0.51994 -0.712093,1.51461 z"
         style="font-family:'Bookman Old Style';-inkscape-font-specification:'Bookman Old Style'"
         id="path3168" />
      <path
         d="m 50.256057,480.07398 v -0.96076 q 0.847731,-0.0791 1.480703,-0.27127 0.632973,-0.20346 1.446794,-0.66688 h 0.836428 v 1.89891 q 1.288551,-1.01727 2.011948,-1.36767 1.107701,-0.53124 2.113675,-0.53124 0.689488,0 1.345066,0.25997 0.666881,0.24866 1.062489,0.62167 0.406911,0.373 0.689488,1.01727 1.186823,-1.05118 2.192797,-1.4694 1.017277,-0.42951 2.05716,-0.42951 0.99467,0 1.751976,0.41821 0.76861,0.40691 1.107702,1.02858 0.350395,0.62167 0.350395,1.81979 v 5.24463 q 0,0.82513 0.03391,0.96076 0.05652,0.21476 0.237364,0.40691 0.192152,0.19216 0.429517,0.27128 0.237365,0.0791 0.88164,0.0791 h 0.361698 v 0.94946 H 64.96136 v -0.94946 q 0.972065,-0.0113 1.254642,-0.13564 0.293879,-0.13563 0.429516,-0.42951 0.14694,-0.29388 0.14694,-1.15292 v -4.98465 q 0,-0.94946 -0.169546,-1.31116 -0.169546,-0.3617 -0.610366,-0.59906 -0.429517,-0.24867 -1.073792,-0.24867 -0.802519,0 -1.684159,0.42951 -1.17552,0.58776 -1.853704,1.32246 v 5.39157 q 0,0.77991 0.06782,1.02858 0.07912,0.23737 0.248668,0.40691 0.180849,0.15825 0.406911,0.22606 0.237364,0.0565 1.130307,0.0565 v 0.94946 h -5.572416 v -0.94946 h 0.316486 q 0.666881,0 0.938155,-0.15824 0.282577,-0.15825 0.44082,-0.48604 0.113031,-0.25997 0.113031,-1.07379 v -4.81511 q 0,-1.06249 -0.169546,-1.43549 -0.158243,-0.373 -0.621669,-0.63297 -0.463427,-0.25997 -1.085096,-0.25997 -0.7347,0 -1.480703,0.3617 -1.107701,0.53124 -2.034554,1.39027 v 5.80979 q 0,0.51994 0.135637,0.76861 0.14694,0.23736 0.452123,0.3843 0.305184,0.14694 0.836428,0.14694 h 0.418214 v 0.94946 h -5.685448 v -0.94946 h 0.305184 q 0.779912,0 1.028579,-0.12433 0.361699,-0.16955 0.519942,-0.54255 0.09042,-0.20346 0.09042,-1.05119 v -6.6123 z"
         style="font-family:'Bookman Old Style';-inkscape-font-specification:'Bookman Old Style'"
         id="path3170" />
      <path
         d="m 77.745142,478.17507 q 1.661552,0 2.870981,0.68948 1.220733,0.68949 1.921523,2.01195 0.700791,1.32246 0.700791,3.01792 0,1.69546 -0.723397,3.01792 -0.712094,1.32246 -1.955432,2.02325 -1.232035,0.68949 -2.950103,0.68949 -2.735344,0 -4.11432,-1.70676 -1.367672,-1.70677 -1.367672,-4.01259 0,-1.68416 0.712094,-2.98402 0.712094,-1.31115 1.989341,-2.02325 1.288551,-0.72339 2.916194,-0.72339 z m -0.09042,1.09639 q -1.28855,0 -2.181493,1.01728 -1.130308,1.26595 -1.130308,3.6848 0,2.32844 0.960761,3.54917 0.870337,1.0851 2.362343,1.0851 0.960762,0 1.706765,-0.50864 0.757306,-0.50864 1.220732,-1.61634 0.463426,-1.11901 0.463426,-2.62232 0,-1.4694 -0.497335,-2.63361 -0.384305,-0.92686 -1.164217,-1.43549 -0.768609,-0.51995 -1.740674,-0.51995 z"
         style="font-family:'Bookman Old Style';-inkscape-font-specification:'Bookman Old Style'"
         id="path3172" />
      <path
         d="m 84.165287,478.44634 h 5.176809 v 0.94946 H 89.02561 q -0.644275,0 -0.802519,0.0452 -0.226061,0.0678 -0.339092,0.21476 -0.113031,0.14694 -0.113031,0.35039 0,0.28258 0.248668,0.91555 l 2.577102,6.43145 2.497979,-6.43145 q 0.237365,-0.62167 0.237365,-0.90424 0,-0.29388 -0.226061,-0.45213 -0.226062,-0.16954 -0.813822,-0.16954 h -0.542548 v -0.94946 h 4.464716 v 0.94946 q -0.463427,0.0113 -0.779913,0.14694 -0.305183,0.13563 -0.486032,0.35039 -0.169546,0.21476 -0.519942,1.02858 l -3.605681,8.4321 H 89.46643 l -3.628288,-8.62425 q -0.226061,-0.53124 -0.497335,-0.87034 -0.180849,-0.21475 -0.486032,-0.33909 -0.29388,-0.12433 -0.689488,-0.12433 z"
         style="font-family:'Bookman Old Style';-inkscape-font-specification:'Bookman Old Style'"
         id="path3174" />
      <path
         d="m 106.71493,486.43761 0.72339,0.58776 q -0.82512,0.98337 -1.60503,1.55983 -0.76861,0.57646 -1.4581,0.80252 -0.68949,0.23736 -1.61634,0.23736 -1.66155,0 -2.825771,-0.67818 -1.333763,-0.77991 -2.045857,-2.03456 -0.712093,-1.25464 -0.712093,-2.9614 0,-1.78589 0.689487,-3.05183 0.689488,-1.26595 1.921523,-1.98934 1.243341,-0.7347 2.870981,-0.7347 1.20943,0 2.10237,0.3843 0.89295,0.373 1.51462,1.14161 0.62166,0.75731 0.90424,1.74067 0.15824,0.57646 0.18085,1.49201 h -7.991275 q -0.03391,0.55385 -0.03391,0.82513 0,1.42418 0.497336,2.54319 0.497338,1.1077 1.311158,1.63894 0.82512,0.51995 1.86501,0.51995 0.88164,0 1.70676,-0.40692 0.82513,-0.41821 2.00065,-1.61634 z m -1.4468,-4.56644 q -0.16954,-1.03988 -0.48603,-1.53722 -0.30518,-0.49733 -0.88164,-0.79121 -0.56515,-0.29388 -1.27725,-0.29388 -0.71209,0 -1.33376,0.29388 -0.62167,0.29388 -1.03988,0.81382 -0.406915,0.51994 -0.712098,1.51461 z"
         style="font-family:'Bookman Old Style';-inkscape-font-specification:'Bookman Old Style'"
         id="path3176" />
      <path
         d="m 119.45349,474.60329 h 0.80252 v 3.84305 h 3.35701 v 1.13031 h -3.35701 v 6.81575 q 0,0.87034 0.14694,1.24334 0.15824,0.373 0.51994,0.61037 0.373,0.23736 0.82513,0.23736 1.07379,0 2.37364,-0.96076 v 1.0964 q -1.4807,1.00597 -2.99531,1.00597 -0.85904,0 -1.55983,-0.3843 -0.68948,-0.38431 -0.94946,-0.90425 -0.24866,-0.51994 -0.24866,-1.80849 v -6.95139 h -1.97804 v -0.94946 q 0.94946,-0.21476 1.52591,-0.66688 0.58776,-0.45213 0.94946,-1.17552 0.3617,-0.7234 0.58776,-2.1815 z"
         style="font-family:'Bookman Old Style';-inkscape-font-specification:'Bookman Old Style'"
         id="path3178" />
      <path
         d="m 125.27458,474.69372 v -0.97207 q 1.09639,-0.14694 1.70676,-0.33909 0.61037,-0.20345 1.27725,-0.61037 h 0.88164 v 7.47134 q 1.27725,-1.07379 2.41886,-1.57113 1.14161,-0.49733 2.18149,-0.49733 1.51461,0 2.49798,0.90424 0.97206,0.90425 0.97206,2.2041 v 5.54981 q 0,0.82513 0.12434,1.0851 0.13564,0.24867 0.44082,0.373 0.30518,0.11303 1.36767,0.11303 v 0.94946 h -5.83239 v -0.94946 h 0.42952 q 0.82513,0 1.0851,-0.12433 0.25997,-0.13564 0.373,-0.42952 0.12433,-0.30518 0.12433,-1.24334 v -3.85435 q 0,-1.27725 -0.0904,-1.66155 -0.16955,-0.65558 -0.70079,-1.05119 -0.53125,-0.3956 -1.35637,-0.3956 -0.92686,0 -1.94413,0.46342 -1.00598,0.45212 -2.09107,1.36767 v 5.66285 q 0,0.63297 0.11303,0.84773 0.11303,0.21475 0.373,0.31648 0.25997,0.10173 1.03988,0.10173 h 0.46343 v 0.94946 h -5.85499 v -0.94946 h 0.35039 q 0.82513,0 1.19813,-0.20346 0.20345,-0.10172 0.29388,-0.3956 0.0904,-0.29388 0.0904,-1.62765 v -11.48392 z"
         style="font-family:'Bookman Old Style';-inkscape-font-specification:'Bookman Old Style'"
         id="path3180" />
      <path
         d="m 150.23177,486.43761 0.7234,0.58776 q -0.82513,0.98337 -1.60504,1.55983 -0.76861,0.57646 -1.4581,0.80252 -0.68948,0.23736 -1.61634,0.23736 -1.66155,0 -2.82577,-0.67818 -1.33376,-0.77991 -2.04585,-2.03456 -0.7121,-1.25464 -0.7121,-2.9614 0,-1.78589 0.68949,-3.05183 0.68949,-1.26595 1.92152,-1.98934 1.24334,-0.7347 2.87099,-0.7347 1.20943,0 2.10237,0.3843 0.89294,0.373 1.51461,1.14161 0.62167,0.75731 0.90425,1.74067 0.15824,0.57646 0.18085,1.49201 h -7.99128 q -0.0339,0.55385 -0.0339,0.82513 0,1.42418 0.49734,2.54319 0.49733,1.1077 1.31115,1.63894 0.82513,0.51995 1.86501,0.51995 0.88164,0 1.70677,-0.40692 0.82512,-0.41821 2.00064,-1.61634 z m -1.44679,-4.56644 q -0.16955,-1.03988 -0.48604,-1.53722 -0.30518,-0.49733 -0.88164,-0.79121 -0.56515,-0.29388 -1.27724,-0.29388 -0.7121,0 -1.33377,0.29388 -0.62167,0.29388 -1.03988,0.81382 -0.40691,0.51994 -0.71209,1.51461 z"
         style="font-family:'Bookman Old Style';-inkscape-font-specification:'Bookman Old Style'"
         id="path3182" />
      <path
         d="m 167.03945,474.68241 v -0.96076 q 0.76861,-0.0678 1.40158,-0.25997 0.64428,-0.20345 1.60504,-0.68949 h 0.84773 v 13.71064 q 0,0.94946 0.0452,1.15291 0.11304,0.42952 0.38431,0.59906 0.27127,0.16955 1.05119,0.16955 h 0.48603 v 0.94946 l -3.92217,0.18085 v -1.79719 q -1.13031,1.02858 -2.12498,1.4581 -0.98337,0.42951 -1.97804,0.42951 -2.04585,0 -3.40222,-1.63894 -1.34507,-1.65025 -1.34507,-3.96738 0,-1.65025 0.7121,-3.01793 0.72339,-1.37897 1.89891,-2.10237 1.17552,-0.72339 2.5771,-0.72339 1.0738,0 1.98934,0.373 0.91555,0.373 1.67286,1.119 v -4.98466 z m 1.89892,11.93605 v -4.27256 q 0,-0.91555 -0.3504,-1.49201 -0.33909,-0.58776 -1.1303,-1.01727 -0.77992,-0.42952 -1.60504,-0.42952 -0.98337,0 -1.81979,0.54255 -0.82513,0.53124 -1.29986,1.54852 -0.46342,1.00597 -0.46342,2.44146 0,1.35637 0.42951,2.35104 0.44082,0.98337 1.17552,1.50331 0.7347,0.50864 1.50331,0.50864 0.75731,0 1.71807,-0.42951 0.96076,-0.44082 1.8424,-1.25465 z"
         style="font-family:'Bookman Old Style';-inkscape-font-specification:'Bookman Old Style'"
         id="path3184" />
      <path
         d="m 173.74217,478.44634 4.28387,-0.16955 v 7.27918 q 0,0.96077 0.25997,1.52592 0.27128,0.56515 0.81382,0.88164 0.55385,0.30518 1.28855,0.30518 0.90425,0 2.04586,-0.48603 1.15291,-0.48603 2.29453,-1.44679 v -5.26724 q 0,-0.83642 -0.12434,-1.0964 -0.12433,-0.25997 -0.44082,-0.41821 -0.31648,-0.15824 -0.99467,-0.15824 h -0.82512 v -0.94946 l 4.28386,-0.16955 v 8.4321 q 0,0.81382 0.13564,1.13031 0.13564,0.30518 0.39561,0.44082 0.27127,0.12433 1.07379,0.12433 h 0.35039 v 0.94946 l -3.75262,0.19215 v -2.09107 q -1.54852,1.23204 -2.70143,1.70677 -1.15292,0.46342 -2.33974,0.46342 -0.88164,0 -1.53722,-0.23736 -0.64427,-0.23737 -1.14161,-0.7121 -0.48603,-0.47473 -0.746,-1.14161 -0.25997,-0.66688 -0.25997,-1.42418 v -5.1429 q 0,-0.68949 -0.12434,-0.96077 -0.12433,-0.28257 -0.41821,-0.44082 -0.28258,-0.16954 -0.77991,-0.16954 h -1.03989 z"
         style="font-family:'Bookman Old Style';-inkscape-font-specification:'Bookman Old Style'"
         id="path3186" />
      <path
         d="m 200.08964,486.20025 0.7234,0.58776 q -2.12498,2.83707 -5.09769,2.83707 -2.31713,0 -3.91087,-1.65025 -1.59373,-1.65025 -1.59373,-4.10301 0,-1.63895 0.7347,-2.9388 0.746,-1.31116 2.05716,-2.03456 1.32246,-0.72339 3.02922,-0.72339 1.94413,0 3.24399,0.96076 1.29985,0.94946 1.29985,1.92152 0,0.51994 -0.30518,0.80252 -0.30519,0.28258 -0.68949,0.28258 -0.20346,0 -0.39561,-0.10173 -0.19215,-0.10173 -0.3956,-0.32779 -0.0904,-0.10173 -0.32779,-0.63297 -0.30519,-0.65558 -0.47473,-0.88164 -0.3504,-0.45213 -0.87034,-0.7121 -0.50864,-0.25997 -1.14161,-0.25997 -0.96076,0 -1.78589,0.53125 -0.81382,0.53124 -1.29985,1.57112 -0.47473,1.02858 -0.47473,2.46407 0,2.22671 1.18682,3.53787 1.02858,1.13031 2.45277,1.13031 0.65558,0 1.32246,-0.21476 0.67819,-0.22606 1.27725,-0.65558 0.44082,-0.30518 1.43549,-1.39028 z"
         style="font-family:'Bookman Old Style';-inkscape-font-specification:'Bookman Old Style'"
         id="path3188" />
      <path
         d="m 201.97726,474.64851 v -0.92686 q 1.44679,-0.11303 2.99531,-0.94946 h 0.87034 v 11.28048 l 4.14823,-3.3005 q 0.99467,-0.79122 0.99467,-1.05119 0,-0.15824 -0.21476,-0.24867 -0.13564,-0.0565 -0.66688,-0.0565 h -0.59906 v -0.94946 h 5.73066 v 0.94946 q -0.96077,0 -1.53722,0.20345 -0.57646,0.19216 -1.33377,0.76861 l -3.27789,2.49798 3.86565,4.22735 q 0.55385,0.61037 0.90425,0.85904 0.3504,0.24866 0.70079,0.35039 0.3504,0.0904 1.0964,0.10173 v 0.94946 h -6.01324 v -0.94946 h 0.46343 q 0.68949,0 0.87034,-0.10173 0.18084,-0.11303 0.18084,-0.29388 0,-0.18085 -0.33909,-0.51994 -0.0565,-0.0565 -0.12433,-0.13564 l -3.00662,-3.45874 -1.8424,1.41289 v 1.4807 q 0,0.82512 0.12433,1.0851 0.12434,0.25997 0.38431,0.3956 0.27127,0.13564 1.02858,0.13564 h 0.41821 v 0.94946 h -5.82108 v -0.94946 q 0.98336,-0.0113 1.20943,-0.0791 0.3956,-0.12434 0.56515,-0.44082 0.18085,-0.31649 0.18085,-1.22073 v -12.01517 z"
         style="font-family:'Bookman Old Style';-inkscape-font-specification:'Bookman Old Style'"
         id="path3190" />
      <path
         d="m 223.8261,478.44634 h 1.93283 v -1.69546 q 0,-1.75198 1.15291,-2.85968 1.16422,-1.11901 3.02923,-1.11901 1.24334,0 1.93282,0.51995 0.7008,0.51994 0.7008,1.1303 0,0.40691 -0.28258,0.68949 -0.27128,0.27128 -0.68949,0.27128 -0.373,0 -0.64427,-0.13564 -0.27128,-0.13564 -0.83643,-0.67819 -0.59907,-0.56515 -1.14161,-0.56515 -0.373,0 -0.67819,0.23736 -0.29388,0.22607 -0.46342,0.67819 -0.15825,0.44082 -0.15825,1.36767 v 2.15889 h 2.12498 v 1.15291 h -2.12498 v 7.3357 q 0,0.75731 0.11303,1.01728 0.11303,0.24866 0.3391,0.35039 0.22606,0.10173 1.05118,0.10173 h 0.46343 v 0.94946 h -5.82109 v -0.94946 h 0.3504 q 0.89294,0 1.13031,-0.11303 0.24867,-0.11303 0.35039,-0.3617 0.11303,-0.25997 0.10173,-1.16422 v -7.16615 h -1.93283 z"
         style="font-family:'Bookman Old Style';-inkscape-font-specification:'Bookman Old Style'"
         id="path3192" />
      <path
         d="m 231.27484,480.06268 v -0.92685 q 0.82512,-0.0678 1.4694,-0.27128 0.64427,-0.21476 1.4694,-0.68948 h 0.84773 v 2.13628 q 0.80251,-0.98337 1.865,-1.55983 1.06249,-0.57645 1.91022,-0.57645 0.83643,0 1.32246,0.3956 0.48604,0.39561 0.48604,0.96076 0,0.40692 -0.32779,0.7234 -0.31649,0.30518 -0.76861,0.30518 -0.20346,0 -0.3504,-0.0565 -0.14694,-0.0565 -0.42951,-0.24867 -0.62167,-0.40691 -1.03989,-0.40691 -0.56515,0 -1.24334,0.47473 -0.85903,0.61037 -1.34506,1.19813 v 5.21071 q 0,0.67819 0.0678,0.92686 0.0791,0.23736 0.24866,0.41821 0.16955,0.16955 0.41822,0.24867 0.24867,0.0791 0.87033,0.0791 h 0.37301 v 0.94946 h -5.84369 v -0.94946 h 0.48603 q 0.68949,0 0.90424,-0.12433 0.29388,-0.16955 0.42952,-0.46343 0.14694,-0.30518 0.14694,-1.0851 v -6.66881 z"
         style="font-family:'Bookman Old Style';-inkscape-font-specification:'Bookman Old Style'"
         id="path3194" />
      <path
         d="m 247.18956,478.17507 q 1.66155,0 2.87098,0.68948 1.22074,0.68949 1.92153,2.01195 0.70079,1.32246 0.70079,3.01792 0,1.69546 -0.7234,3.01792 -0.71209,1.32246 -1.95543,2.02325 -1.23204,0.68949 -2.95011,0.68949 -2.73534,0 -4.11431,-1.70676 -1.36768,-1.70677 -1.36768,-4.01259 0,-1.68416 0.7121,-2.98402 0.71209,-1.31115 1.98934,-2.02325 1.28855,-0.72339 2.91619,-0.72339 z m -0.0904,1.09639 q -1.28855,0 -2.1815,1.01728 -1.1303,1.26595 -1.1303,3.6848 0,2.32844 0.96076,3.54917 0.87033,1.0851 2.36234,1.0851 0.96076,0 1.70676,-0.50864 0.75731,-0.50864 1.22074,-1.61634 0.46342,-1.11901 0.46342,-2.62232 0,-1.4694 -0.49733,-2.63361 -0.38431,-0.92686 -1.16422,-1.43549 -0.76861,-0.51995 -1.74067,-0.51995 z"
         style="font-family:'Bookman Old Style';-inkscape-font-specification:'Bookman Old Style'"
         id="path3196" />
      <path
         d="m 254.42353,480.07398 v -0.96076 q 0.84773,-0.0791 1.48071,-0.27127 0.63297,-0.20346 1.44679,-0.66688 h 0.83643 v 1.89891 q 1.28855,-1.01727 2.01194,-1.36767 1.10771,-0.53124 2.11368,-0.53124 0.68949,0 1.34507,0.25997 0.66688,0.24866 1.06248,0.62167 0.40692,0.373 0.68949,1.01727 1.18683,-1.05118 2.1928,-1.4694 1.01728,-0.42951 2.05716,-0.42951 0.99467,0 1.75198,0.41821 0.76861,0.40691 1.1077,1.02858 0.35039,0.62167 0.35039,1.81979 v 5.24463 q 0,0.82513 0.0339,0.96076 0.0565,0.21476 0.23737,0.40691 0.19215,0.19216 0.42951,0.27128 0.23737,0.0791 0.88164,0.0791 h 0.3617 v 0.94946 h -5.68545 v -0.94946 q 0.97207,-0.0113 1.25465,-0.13564 0.29388,-0.13563 0.42951,-0.42951 0.14694,-0.29388 0.14694,-1.15292 v -4.98465 q 0,-0.94946 -0.16954,-1.31116 -0.16955,-0.3617 -0.61037,-0.59906 -0.42952,-0.24867 -1.07379,-0.24867 -0.80252,0 -1.68416,0.42951 -1.17552,0.58776 -1.8537,1.32246 v 5.39157 q 0,0.77991 0.0678,1.02858 0.0791,0.23737 0.24867,0.40691 0.18085,0.15825 0.40691,0.22606 0.23737,0.0565 1.13031,0.0565 v 0.94946 h -5.57242 v -0.94946 h 0.31649 q 0.66688,0 0.93815,-0.15824 0.28258,-0.15825 0.44082,-0.48604 0.11304,-0.25997 0.11304,-1.07379 v -4.81511 q 0,-1.06249 -0.16955,-1.43549 -0.15824,-0.373 -0.62167,-0.63297 -0.46343,-0.25997 -1.08509,-0.25997 -0.7347,0 -1.48071,0.3617 -1.1077,0.53124 -2.03455,1.39027 v 5.80979 q 0,0.51994 0.13564,0.76861 0.14694,0.23736 0.45212,0.3843 0.30518,0.14694 0.83643,0.14694 h 0.41821 v 0.94946 h -5.68545 v -0.94946 h 0.30519 q 0.77991,0 1.02858,-0.12433 0.36169,-0.16955 0.51994,-0.54255 0.0904,-0.20346 0.0904,-1.05119 v -6.6123 z"
         style="font-family:'Bookman Old Style';-inkscape-font-specification:'Bookman Old Style'"
         id="path3198" />
      <path
         d="m 286.58077,474.60329 h 0.80252 v 3.84305 h 3.35702 v 1.13031 h -3.35702 v 6.81575 q 0,0.87034 0.14694,1.24334 0.15825,0.373 0.51994,0.61037 0.37301,0.23736 0.82513,0.23736 1.07379,0 2.37364,-0.96076 v 1.0964 q -1.4807,1.00597 -2.99531,1.00597 -0.85903,0 -1.55983,-0.3843 -0.68948,-0.38431 -0.94945,-0.90425 -0.24867,-0.51994 -0.24867,-1.80849 v -6.95139 h -1.97804 v -0.94946 q 0.94946,-0.21476 1.52592,-0.66688 0.58776,-0.45213 0.94945,-1.17552 0.3617,-0.7234 0.58776,-2.1815 z"
         style="font-family:'Bookman Old Style';-inkscape-font-specification:'Bookman Old Style'"
         id="path3200" />
      <path
         d="m 292.40186,474.69372 v -0.97207 q 1.0964,-0.14694 1.70676,-0.33909 0.61037,-0.20345 1.27725,-0.61037 h 0.88164 v 7.47134 q 1.27725,-1.07379 2.41886,-1.57113 1.14161,-0.49733 2.18149,-0.49733 1.51461,0 2.49798,0.90424 0.97207,0.90425 0.97207,2.2041 v 5.54981 q 0,0.82513 0.12433,1.0851 0.13564,0.24867 0.44082,0.373 0.30518,0.11303 1.36767,0.11303 v 0.94946 h -5.83239 v -0.94946 h 0.42952 q 0.82513,0 1.0851,-0.12433 0.25997,-0.13564 0.373,-0.42952 0.12433,-0.30518 0.12433,-1.24334 v -3.85435 q 0,-1.27725 -0.0904,-1.66155 -0.16955,-0.65558 -0.70079,-1.05119 -0.53125,-0.3956 -1.35637,-0.3956 -0.92685,0 -1.94413,0.46342 -1.00598,0.45212 -2.09107,1.36767 v 5.66285 q 0,0.63297 0.11303,0.84773 0.11303,0.21475 0.373,0.31648 0.25997,0.10173 1.03988,0.10173 h 0.46343 v 0.94946 h -5.85499 v -0.94946 h 0.35039 q 0.82513,0 1.19813,-0.20346 0.20345,-0.10172 0.29388,-0.3956 0.0904,-0.29388 0.0904,-1.62765 v -11.48392 z"
         style="font-family:'Bookman Old Style';-inkscape-font-specification:'Bookman Old Style'"
         id="path3202" />
      <path
         d="m 317.35906,486.43761 0.7234,0.58776 q -0.82513,0.98337 -1.60504,1.55983 -0.76861,0.57646 -1.4581,0.80252 -0.68948,0.23736 -1.61634,0.23736 -1.66155,0 -2.82577,-0.67818 -1.33376,-0.77991 -2.04585,-2.03456 -0.7121,-1.25464 -0.7121,-2.9614 0,-1.78589 0.68949,-3.05183 0.68949,-1.26595 1.92152,-1.98934 1.24334,-0.7347 2.87099,-0.7347 1.20942,0 2.10237,0.3843 0.89294,0.373 1.51461,1.14161 0.62167,0.75731 0.90425,1.74067 0.15824,0.57646 0.18085,1.49201 h -7.99128 q -0.0339,0.55385 -0.0339,0.82513 0,1.42418 0.49734,2.54319 0.49733,1.1077 1.31115,1.63894 0.82513,0.51995 1.86501,0.51995 0.88164,0 1.70677,-0.40692 0.82512,-0.41821 2.00064,-1.61634 z m -1.44679,-4.56644 q -0.16955,-1.03988 -0.48604,-1.53722 -0.30518,-0.49733 -0.88164,-0.79121 -0.56515,-0.29388 -1.27724,-0.29388 -0.7121,0 -1.33377,0.29388 -0.62167,0.29388 -1.03988,0.81382 -0.40691,0.51994 -0.71209,1.51461 z"
         style="font-family:'Bookman Old Style';-inkscape-font-specification:'Bookman Old Style'"
         id="path3204" />
      <path
         d="m 21.376697,502.58382 v -0.93816 q 0.746003,-0.0565 1.435491,-0.27127 0.700791,-0.21476 1.559825,-0.67818 h 0.825124 v 6.89487 q 0.994671,-0.746 2.045857,-1.119 1.051186,-0.373 2.147584,-0.373 1.265945,0 2.339737,0.67818 1.073793,0.67819 1.684159,1.92152 0.621669,1.23204 0.621669,2.9162 0,2.64492 -1.548522,4.35168 -1.43549,1.58243 -3.63959,1.58243 -1.32246,0 -2.362343,-0.55385 -0.768609,-0.40691 -1.492006,-1.25464 l -0.621669,1.53722 h -1.051187 v -14.694 z m 3.82044,6.12627 v 4.35168 q 0,1.02858 0.14694,1.4468 0.14694,0.40691 0.599063,0.84773 0.463426,0.42951 1.073792,0.68948 0.62167,0.24867 1.277248,0.24867 1.005974,0 1.831098,-0.53124 0.825125,-0.53125 1.299854,-1.57113 0.474729,-1.03988 0.474729,-2.49798 0,-2.04586 -1.005973,-3.27789 -0.802519,-1.01728 -2.249313,-1.01728 -0.746003,0 -1.514612,0.28258 -0.768609,0.27127 -1.932826,1.02858 z"
         style="font-family:'Bookman Old Style';-inkscape-font-specification:'Bookman Old Style'"
         id="path3206" />
      <path
         d="m 44.050669,510.73334 v -1.23204 q 0,-1.25464 -0.700791,-1.78588 -0.700791,-0.54255 -1.978039,-0.54255 -0.632972,0 -1.107701,0.15824 -0.474729,0.14694 -0.768609,0.41822 -0.282577,0.25997 -0.418214,0.59906 -0.05651,0.12433 -0.271274,0.96076 -0.259971,1.01728 -1.051186,1.01728 -0.452123,0 -0.7347,-0.29388 -0.271274,-0.30519 -0.271274,-0.81382 0,-0.74601 0.553851,-1.4581 0.553851,-0.7234 1.684158,-1.18682 1.141611,-0.47473 2.690133,-0.47473 1.446793,0 2.475373,0.45212 1.02858,0.44082 1.514613,1.27725 0.339092,0.57645 0.339092,2.10237 v 4.35168 q 0,0.92686 0.05651,1.20943 0.124334,0.48604 0.429517,0.7347 0.316486,0.23737 0.813822,0.23737 0.519941,0 1.243338,-0.24867 v 0.98337 q -0.938155,0.27127 -1.684158,0.27127 -0.802519,0 -1.35637,-0.22606 -0.542547,-0.22606 -0.892943,-0.65558 -0.350395,-0.44082 -0.452123,-1.03988 -1.356369,1.06249 -2.452767,1.492 -1.096399,0.42952 -2.215403,0.42952 -1.559825,0 -2.531889,-0.84773 -0.972065,-0.84773 -0.972065,-1.98934 0,-0.68949 0.350395,-1.31116 0.361699,-0.62167 1.085096,-1.0964 0.7347,-0.47473 2.294524,-0.83642 1.559825,-0.3617 4.329079,-0.65558 z m 0,0.98337 q -2.622314,0.3843 -3.243983,0.53124 -1.232036,0.28258 -1.76328,0.62167 -0.531245,0.33909 -0.757306,0.7347 -0.226062,0.3843 -0.226062,0.82512 0,0.44082 0.248668,0.85904 0.25997,0.40691 0.723397,0.64427 0.463426,0.23737 0.983367,0.23737 0.7347,0 1.661553,-0.3504 0.926852,-0.35039 2.373646,-1.36767 z"
         style="font-family:'Bookman Old Style';-inkscape-font-specification:'Bookman Old Style'"
         id="path3208" />
      <path
         d="m 52.324521,502.5273 h 0.802519 v 3.84305 h 3.357014 v 1.13031 H 53.12704 v 6.81575 q 0,0.87034 0.14694,1.24334 0.158243,0.373 0.519941,0.61037 0.373002,0.23736 0.825125,0.23736 1.073792,0 2.373646,-0.96076 v 1.0964 q -1.480703,1.00597 -2.995315,1.00597 -0.859034,0 -1.559825,-0.3843 -0.689487,-0.38431 -0.949458,-0.90425 -0.248668,-0.51994 -0.248668,-1.80849 v -6.95139 h -1.978038 v -0.94946 q 0.949458,-0.21476 1.525915,-0.66688 0.58776,-0.45212 0.949458,-1.17552 0.361699,-0.7234 0.58776,-2.1815 z"
         style="font-family:'Bookman Old Style';-inkscape-font-specification:'Bookman Old Style'"
         id="path3210" />
      <path
         d="m 61.118314,502.5273 h 0.802519 v 3.84305 h 3.357013 v 1.13031 h -3.357013 v 6.81575 q 0,0.87034 0.14694,1.24334 0.158243,0.373 0.519941,0.61037 0.373002,0.23736 0.825125,0.23736 1.073792,0 2.373646,-0.96076 v 1.0964 q -1.480703,1.00597 -2.995315,1.00597 -0.859034,0 -1.559825,-0.3843 -0.689488,-0.38431 -0.949458,-0.90425 -0.248668,-0.51994 -0.248668,-1.80849 v -6.95139 H 58.05518 v -0.94946 q 0.949459,-0.21476 1.525916,-0.66688 0.58776,-0.45212 0.949458,-1.17552 0.361699,-0.7234 0.58776,-2.1815 z"
         style="font-family:'Bookman Old Style';-inkscape-font-specification:'Bookman Old Style'"
         id="path3212" />
      <path
         d="m 66.815064,502.57252 v -0.92686 q 1.537218,-0.11303 2.995315,-0.94945 h 0.836428 v 13.91408 q 0,0.88164 0.113031,1.1077 0.14694,0.31649 0.429517,0.46343 0.282576,0.14694 1.085095,0.14694 h 0.361698 v 0.94946 h -5.821084 v -0.94946 h 0.58776 q 0.553851,0 0.825125,-0.16955 0.282576,-0.16954 0.395607,-0.46342 0.124334,-0.29388 0.124334,-1.17552 v -11.94735 z"
         style="font-family:'Bookman Old Style';-inkscape-font-specification:'Bookman Old Style'"
         id="path3214" />
      <path
         d="m 83.554921,514.36163 0.723397,0.58776 q -0.825124,0.98336 -1.605037,1.55982 -0.768609,0.57646 -1.458096,0.80252 -0.689488,0.23736 -1.61634,0.23736 -1.661553,0 -2.825769,-0.67818 -1.333763,-0.77991 -2.045857,-2.03456 -0.712094,-1.25464 -0.712094,-2.9614 0,-1.78589 0.689488,-3.05183 0.689487,-1.26595 1.921523,-1.98934 1.243338,-0.7347 2.870981,-0.7347 1.209429,0 2.102372,0.3843 0.892943,0.373 1.514612,1.14161 0.62167,0.75731 0.904247,1.74068 0.158243,0.57645 0.180849,1.492 h -7.991275 q -0.03391,0.55385 -0.03391,0.82513 0,1.42418 0.497336,2.54319 0.497335,1.1077 1.311157,1.63894 0.825124,0.51995 1.865007,0.51995 0.88164,0 1.706765,-0.40691 0.825125,-0.41822 2.000644,-1.61634 z m -1.446793,-4.56645 q -0.169546,-1.03988 -0.486033,-1.53722 -0.305183,-0.49733 -0.88164,-0.79121 -0.565153,-0.29388 -1.277247,-0.29388 -0.712094,0 -1.333763,0.29388 -0.621669,0.29388 -1.039883,0.81382 -0.406911,0.51994 -0.712094,1.51461 z"
         style="font-family:'Bookman Old Style';-inkscape-font-specification:'Bookman Old Style'"
         id="path3216" />
      <path
         d="m 85.849443,506.37035 h 1.932826 v -1.69546 q 0,-1.75198 1.152914,-2.85968 1.164216,-1.119 3.029224,-1.119 1.243338,0 1.932826,0.51994 0.700791,0.51994 0.700791,1.13031 0,0.40691 -0.282577,0.68948 -0.271274,0.27128 -0.689488,0.27128 -0.373001,0 -0.644275,-0.13564 -0.271274,-0.13564 -0.836428,-0.67818 -0.599063,-0.56516 -1.14161,-0.56516 -0.373002,0 -0.678185,0.23737 -0.29388,0.22606 -0.463426,0.67818 -0.158243,0.44082 -0.158243,1.36767 v 2.15889 h 2.124978 v 1.15291 h -2.124978 v 7.3357 q 0,0.75731 0.11303,1.01728 0.113031,0.24867 0.339093,0.35039 0.226061,0.10173 1.051186,0.10173 h 0.463426 v 0.94946 h -5.821084 v -0.94946 h 0.350395 q 0.892943,0 1.130308,-0.11303 0.248667,-0.11303 0.350395,-0.3617 0.113031,-0.25997 0.101728,-1.16422 v -7.16615 h -1.932826 z"
         style="font-family:'Bookman Old Style';-inkscape-font-specification:'Bookman Old Style'"
         id="path3218" />
      <path
         d="m 96.11264,501.00139 q 0.542547,0 0.926852,0.3843 0.384305,0.37301 0.384305,0.91555 0,0.54255 -0.384305,0.92686 -0.384305,0.3843 -0.926852,0.3843 -0.542548,0 -0.926853,-0.3843 -0.384304,-0.38431 -0.384304,-0.92686 0,-0.54254 0.384304,-0.91555 0.384305,-0.3843 0.926853,-0.3843 z m -2.882285,6.9966 v -0.93815 q 0.938156,-0.11303 1.571128,-0.31649 0.644275,-0.20345 1.458097,-0.64427 h 0.825124 v 9.06506 q 0,0.47473 0.135637,0.7121 0.135637,0.23736 0.373002,0.35039 0.248667,0.10173 0.892943,0.10173 h 0.531244 v 0.94946 h -5.787175 v -0.94946 h 0.463426 q 0.757306,0 1.017277,-0.13564 0.259971,-0.13563 0.361699,-0.3843 0.11303,-0.24867 0.11303,-1.16422 v -6.64621 z"
         style="font-family:'Bookman Old Style';-inkscape-font-specification:'Bookman Old Style'"
         id="path3220" />
      <path
         d="m 109.9363,514.36163 0.7234,0.58776 q -0.82513,0.98336 -1.60504,1.55982 -0.76861,0.57646 -1.4581,0.80252 -0.68948,0.23736 -1.61634,0.23736 -1.66155,0 -2.82577,-0.67818 -1.33376,-0.77991 -2.04585,-2.03456 -0.7121,-1.25464 -0.7121,-2.9614 0,-1.78589 0.68949,-3.05183 0.68949,-1.26595 1.92152,-1.98934 1.24334,-0.7347 2.87099,-0.7347 1.20942,0 2.10237,0.3843 0.89294,0.373 1.51461,1.14161 0.62167,0.75731 0.90425,1.74068 0.15824,0.57645 0.18085,1.492 h -7.99128 q -0.0339,0.55385 -0.0339,0.82513 0,1.42418 0.49734,2.54319 0.49733,1.1077 1.31115,1.63894 0.82513,0.51995 1.86501,0.51995 0.88164,0 1.70677,-0.40691 0.82512,-0.41822 2.00064,-1.61634 z m -1.44679,-4.56645 q -0.16955,-1.03988 -0.48604,-1.53722 -0.30518,-0.49733 -0.88164,-0.79121 -0.56515,-0.29388 -1.27724,-0.29388 -0.7121,0 -1.33377,0.29388 -0.62167,0.29388 -1.03988,0.81382 -0.40691,0.51994 -0.71209,1.51461 z"
         style="font-family:'Bookman Old Style';-inkscape-font-specification:'Bookman Old Style'"
         id="path3222" />
      <path
         d="m 112.17431,502.57252 v -0.92686 q 1.53722,-0.11303 2.99532,-0.94945 h 0.83643 v 13.91408 q 0,0.88164 0.11303,1.1077 0.14694,0.31649 0.42951,0.46343 0.28258,0.14694 1.0851,0.14694 h 0.3617 v 0.94946 h -5.82109 v -0.94946 h 0.58776 q 0.55385,0 0.82513,-0.16955 0.28257,-0.16954 0.39561,-0.46342 0.12433,-0.29388 0.12433,-1.17552 v -11.94735 z"
         style="font-family:'Bookman Old Style';-inkscape-font-specification:'Bookman Old Style'"
         id="path3224" />
      <path
         d="m 126.28055,502.60643 v -0.96077 q 0.76861,-0.0678 1.40158,-0.25997 0.64428,-0.20345 1.60504,-0.68948 h 0.84773 v 13.71063 q 0,0.94946 0.0452,1.15291 0.11303,0.42952 0.38431,0.59906 0.27127,0.16955 1.05118,0.16955 h 0.48603 v 0.94946 l -3.92216,0.18085 v -1.79719 q -1.13031,1.02858 -2.12498,1.4581 -0.98337,0.42951 -1.97804,0.42951 -2.04586,0 -3.40223,-1.63894 -1.34506,-1.65025 -1.34506,-3.96738 0,-1.65025 0.71209,-3.01792 0.7234,-1.37898 1.89892,-2.10238 1.17552,-0.72339 2.5771,-0.72339 1.07379,0 1.98934,0.373 0.91555,0.373 1.67286,1.119 v -4.98465 z m 1.89892,11.93604 v -4.27256 q 0,-0.91555 -0.3504,-1.492 -0.33909,-0.58776 -1.13031,-1.01728 -0.77991,-0.42952 -1.60503,-0.42952 -0.98337,0 -1.8198,0.54255 -0.82512,0.53124 -1.29985,1.54852 -0.46343,1.00597 -0.46343,2.44147 0,1.35636 0.42952,2.35104 0.44082,0.98336 1.17552,1.5033 0.7347,0.50864 1.50331,0.50864 0.7573,0 1.71807,-0.42951 0.96076,-0.44082 1.8424,-1.25465 z"
         style="font-family:'Bookman Old Style';-inkscape-font-specification:'Bookman Old Style'"
         id="path3226" />
      <path
         d="m 135.2552,521.36953 -0.61037,-0.746 q 2.31713,-1.88761 2.31713,-3.15356 0,-0.14694 -0.0226,-0.3617 -0.19216,0.0791 -0.37301,0.12434 -0.18085,0.0452 -0.33909,0.0452 -0.54255,0 -0.87033,-0.3504 -0.32779,-0.35039 -0.32779,-0.89294 0,-0.53124 0.3956,-0.92685 0.39561,-0.39561 0.94946,-0.39561 0.76861,0 1.31116,0.62167 0.55385,0.61037 0.55385,1.58243 0,0.63297 -0.25997,1.32246 -0.25997,0.70079 -0.75731,1.28855 -0.49733,0.59906 -1.96673,1.8424 z"
         style="font-family:'Bookman Old Style';-inkscape-font-specification:'Bookman Old Style'"
         id="path3228" />
      <path
         d="m 156.52759,510.73334 v -1.23204 q 0,-1.25464 -0.70079,-1.78588 -0.70079,-0.54255 -1.97804,-0.54255 -0.63297,0 -1.1077,0.15824 -0.47473,0.14694 -0.76861,0.41822 -0.28258,0.25997 -0.41822,0.59906 -0.0565,0.12433 -0.27127,0.96076 -0.25997,1.01728 -1.05119,1.01728 -0.45212,0 -0.7347,-0.29388 -0.27127,-0.30519 -0.27127,-0.81382 0,-0.74601 0.55385,-1.4581 0.55385,-0.7234 1.68416,-1.18682 1.14161,-0.47473 2.69013,-0.47473 1.44679,0 2.47537,0.45212 1.02858,0.44082 1.51462,1.27725 0.33909,0.57645 0.33909,2.10237 v 4.35168 q 0,0.92686 0.0565,1.20943 0.12434,0.48604 0.42952,0.7347 0.31649,0.23737 0.81382,0.23737 0.51994,0 1.24334,-0.24867 v 0.98337 q -0.93815,0.27127 -1.68416,0.27127 -0.80252,0 -1.35637,-0.22606 -0.54254,-0.22606 -0.89294,-0.65558 -0.35039,-0.44082 -0.45212,-1.03988 -1.35637,1.06249 -2.45277,1.492 -1.0964,0.42952 -2.2154,0.42952 -1.55983,0 -2.53189,-0.84773 -0.97207,-0.84773 -0.97207,-1.98934 0,-0.68949 0.3504,-1.31116 0.3617,-0.62167 1.08509,-1.0964 0.7347,-0.47473 2.29453,-0.83642 1.55982,-0.3617 4.32908,-0.65558 z m 0,0.98337 q -2.62232,0.3843 -3.24399,0.53124 -1.23203,0.28258 -1.76328,0.62167 -0.53124,0.33909 -0.7573,0.7347 -0.22606,0.3843 -0.22606,0.82512 0,0.44082 0.24866,0.85904 0.25997,0.40691 0.7234,0.64427 0.46343,0.23737 0.98337,0.23737 0.7347,0 1.66155,-0.3504 0.92685,-0.35039 2.37365,-1.36767 z"
         style="font-family:'Bookman Old Style';-inkscape-font-specification:'Bookman Old Style'"
         id="path3230" />
      <path
         d="m 161.84003,507.99799 v -0.94945 q 1.00597,-0.11304 1.5033,-0.27128 0.49734,-0.15824 1.43549,-0.67818 h 0.81383 v 2.14758 q 1.492,-1.25464 2.54319,-1.69546 1.06249,-0.45212 2.14758,-0.45212 0.92686,0 1.63895,0.31648 0.71209,0.30519 1.15291,0.83643 0.45213,0.53125 0.59907,1.20943 0.0904,0.41821 0.0904,1.26594 v 4.97336 q 0,0.89294 0.12433,1.15291 0.13564,0.24867 0.41822,0.3617 0.28258,0.11303 1.39028,0.11303 v 0.94946 h -5.82109 v -0.94946 h 0.31649 q 0.81382,0 1.1077,-0.14694 0.29388,-0.14694 0.41821,-0.42952 0.13564,-0.28257 0.13564,-1.15291 v -4.15953 q 0,-1.28855 -0.21476,-1.78589 -0.20345,-0.49733 -0.71209,-0.80252 -0.49734,-0.31648 -1.26595,-0.31648 -0.91555,0 -1.95543,0.47473 -1.03988,0.46342 -2.01195,1.37897 v 5.21072 q 0,0.88164 0.12434,1.17552 0.13563,0.29388 0.42951,0.44082 0.20346,0.11303 1.0851,0.11303 h 0.32779 v 0.94946 h -5.82108 v -0.94946 h 0.28257 q 0.83643,0 1.14161,-0.13564 0.30519,-0.14694 0.42952,-0.50863 0.0678,-0.18085 0.0678,-1.24334 v -6.44276 z"
         style="font-family:'Bookman Old Style';-inkscape-font-specification:'Bookman Old Style'"
         id="path3232" />
      <path
         d="m 184.15231,502.60643 v -0.96077 q 0.76861,-0.0678 1.40158,-0.25997 0.64427,-0.20345 1.60504,-0.68948 h 0.84773 v 13.71063 q 0,0.94946 0.0452,1.15291 0.11303,0.42952 0.3843,0.59906 0.27128,0.16955 1.05119,0.16955 h 0.48603 v 0.94946 l -3.92217,0.18085 v -1.79719 q -1.1303,1.02858 -2.12497,1.4581 -0.98337,0.42951 -1.97804,0.42951 -2.04586,0 -3.40223,-1.63894 -1.34506,-1.65025 -1.34506,-3.96738 0,-1.65025 0.71209,-3.01792 0.7234,-1.37898 1.89892,-2.10238 1.17552,-0.72339 2.5771,-0.72339 1.07379,0 1.98934,0.373 0.91555,0.373 1.67285,1.119 v -4.98465 z m 1.89891,11.93604 v -4.27256 q 0,-0.91555 -0.35039,-1.492 -0.33909,-0.58776 -1.13031,-1.01728 -0.77991,-0.42952 -1.60504,-0.42952 -0.98336,0 -1.81979,0.54255 -0.82513,0.53124 -1.29985,1.54852 -0.46343,1.00597 -0.46343,2.44147 0,1.35636 0.42952,2.35104 0.44082,0.98336 1.17552,1.5033 0.7347,0.50864 1.50331,0.50864 0.7573,0 1.71806,-0.42951 0.96076,-0.44082 1.8424,-1.25465 z"
         style="font-family:'Bookman Old Style';-inkscape-font-specification:'Bookman Old Style'"
         id="path3234" />
      <path
         d="m 205.91073,502.60643 v -0.96077 q 0.76861,-0.0678 1.40158,-0.25997 0.64428,-0.20345 1.60504,-0.68948 h 0.84773 v 13.71063 q 0,0.94946 0.0452,1.15291 0.11303,0.42952 0.38431,0.59906 0.27127,0.16955 1.05118,0.16955 h 0.48603 v 0.94946 l -3.92216,0.18085 v -1.79719 q -1.13031,1.02858 -2.12498,1.4581 -0.98337,0.42951 -1.97804,0.42951 -2.04586,0 -3.40223,-1.63894 -1.34506,-1.65025 -1.34506,-3.96738 0,-1.65025 0.71209,-3.01792 0.7234,-1.37898 1.89892,-2.10238 1.17552,-0.72339 2.5771,-0.72339 1.07379,0 1.98934,0.373 0.91555,0.373 1.67286,1.119 v -4.98465 z m 1.89892,11.93604 v -4.27256 q 0,-0.91555 -0.3504,-1.492 -0.33909,-0.58776 -1.13031,-1.01728 -0.77991,-0.42952 -1.60503,-0.42952 -0.98337,0 -1.8198,0.54255 -0.82512,0.53124 -1.29985,1.54852 -0.46343,1.00597 -0.46343,2.44147 0,1.35636 0.42952,2.35104 0.44082,0.98336 1.17552,1.5033 0.7347,0.50864 1.50331,0.50864 0.7573,0 1.71807,-0.42951 0.96076,-0.44082 1.8424,-1.25465 z"
         style="font-family:'Bookman Old Style';-inkscape-font-specification:'Bookman Old Style'"
         id="path3236" />
      <path
         d="m 216.01568,501.00139 q 0.54255,0 0.92685,0.3843 0.3843,0.37301 0.3843,0.91555 0,0.54255 -0.3843,0.92686 -0.3843,0.3843 -0.92685,0.3843 -0.54255,0 -0.92685,-0.3843 -0.38431,-0.38431 -0.38431,-0.92686 0,-0.54254 0.38431,-0.91555 0.3843,-0.3843 0.92685,-0.3843 z m -2.88229,6.9966 v -0.93815 q 0.93816,-0.11303 1.57113,-0.31649 0.64428,-0.20345 1.4581,-0.64427 h 0.82512 v 9.06506 q 0,0.47473 0.13564,0.7121 0.13564,0.23736 0.373,0.35039 0.24867,0.10173 0.89294,0.10173 h 0.53125 v 0.94946 h -5.78718 v -0.94946 h 0.46343 q 0.75731,0 1.01728,-0.13564 0.25997,-0.13563 0.36169,-0.3843 0.11304,-0.24867 0.11304,-1.16422 v -6.64621 z"
         style="font-family:'Bookman Old Style';-inkscape-font-specification:'Bookman Old Style'"
         id="path3238" />
      <path
         d="m 227.81609,506.37035 h 0.79122 l 1.01728,3.45874 -1.01728,0.33909 q -0.61037,-1.39027 -1.71807,-2.18149 -1.0964,-0.80252 -2.2267,-0.80252 -0.87034,0 -1.41289,0.42952 -0.54255,0.41821 -0.54255,0.97206 0,0.51995 0.39561,0.89295 0.38431,0.3843 1.72937,0.87033 l 2.2041,0.77992 q 1.86501,0.66688 2.54319,1.42418 0.66689,0.76861 0.66689,1.74068 0,0.82512 -0.49734,1.59373 -0.49733,0.75731 -1.44679,1.20943 -0.93816,0.45212 -2.15889,0.45212 -1.89892,0 -3.25529,-1.08509 l -0.23736,0.81382 h -0.80252 l -1.41288,-3.69611 1.02858,-0.40691 q 1.02858,1.62765 1.94412,2.30583 1.27725,0.96076 2.75796,0.96076 0.98336,0 1.61634,-0.51994 0.63297,-0.53124 0.63297,-1.17552 0,-0.53124 -0.39561,-0.97206 -0.40691,-0.42952 -1.55982,-0.83643 l -2.61102,-0.94946 q -1.68415,-0.61037 -2.33973,-1.33376 -0.65558,-0.7234 -0.65558,-1.66156 0,-1.14161 1.06249,-2.01194 1.07379,-0.88164 2.72404,-0.88164 0.85903,0 1.53722,0.22606 0.67818,0.21476 1.33376,0.7234 z"
         style="font-family:'Bookman Old Style';-inkscape-font-specification:'Bookman Old Style'"
         id="path3240" />
      <path
         d="m 242.1936,514.12426 0.72339,0.58776 q -2.12497,2.83707 -5.09768,2.83707 -2.31713,0 -3.91087,-1.65025 -1.59373,-1.65025 -1.59373,-4.10301 0,-1.63895 0.7347,-2.9388 0.746,-1.31116 2.05716,-2.03456 1.32246,-0.72339 3.02922,-0.72339 1.94413,0 3.24399,0.96076 1.29985,0.94946 1.29985,1.92152 0,0.51994 -0.30518,0.80252 -0.30519,0.28258 -0.68949,0.28258 -0.20346,0 -0.39561,-0.10173 -0.19215,-0.10173 -0.39561,-0.32779 -0.0904,-0.10173 -0.32779,-0.63297 -0.30518,-0.65558 -0.47473,-0.88164 -0.35039,-0.45213 -0.87033,-0.7121 -0.50864,-0.25997 -1.14161,-0.25997 -0.96076,0 -1.78589,0.53125 -0.81382,0.53124 -1.29985,1.57113 -0.47473,1.02858 -0.47473,2.46407 0,2.2267 1.18682,3.53786 1.02858,1.13031 2.45277,1.13031 0.65558,0 1.32246,-0.21476 0.67818,-0.22606 1.27725,-0.65558 0.44082,-0.30518 1.43549,-1.39028 z"
         style="font-family:'Bookman Old Style';-inkscape-font-specification:'Bookman Old Style'"
         id="path3242" />
      <path
         d="m 252.36637,510.73334 v -1.23204 q 0,-1.25464 -0.70079,-1.78588 -0.70079,-0.54255 -1.97804,-0.54255 -0.63297,0 -1.1077,0.15824 -0.47473,0.14694 -0.76861,0.41822 -0.28258,0.25997 -0.41821,0.59906 -0.0565,0.12433 -0.27128,0.96076 -0.25997,1.01728 -1.05118,1.01728 -0.45213,0 -0.7347,-0.29388 -0.27128,-0.30519 -0.27128,-0.81382 0,-0.74601 0.55385,-1.4581 0.55385,-0.7234 1.68416,-1.18682 1.14161,-0.47473 2.69013,-0.47473 1.4468,0 2.47538,0.45212 1.02858,0.44082 1.51461,1.27725 0.33909,0.57645 0.33909,2.10237 v 4.35168 q 0,0.92686 0.0565,1.20943 0.12433,0.48604 0.42951,0.7347 0.31649,0.23737 0.81383,0.23737 0.51994,0 1.24333,-0.24867 v 0.98337 q -0.93815,0.27127 -1.68415,0.27127 -0.80252,0 -1.35637,-0.22606 -0.54255,-0.22606 -0.89295,-0.65558 -0.35039,-0.44082 -0.45212,-1.03988 -1.35637,1.06249 -2.45277,1.492 -1.0964,0.42952 -2.2154,0.42952 -1.55982,0 -2.53189,-0.84773 -0.97206,-0.84773 -0.97206,-1.98934 0,-0.68949 0.35039,-1.31116 0.3617,-0.62167 1.0851,-1.0964 0.7347,-0.47473 2.29452,-0.83642 1.55983,-0.3617 4.32908,-0.65558 z m 0,0.98337 q -2.62231,0.3843 -3.24398,0.53124 -1.23204,0.28258 -1.76328,0.62167 -0.53125,0.33909 -0.75731,0.7347 -0.22606,0.3843 -0.22606,0.82512 0,0.44082 0.24867,0.85904 0.25997,0.40691 0.72339,0.64427 0.46343,0.23737 0.98337,0.23737 0.7347,0 1.66155,-0.3504 0.92686,-0.35039 2.37365,-1.36767 z"
         style="font-family:'Bookman Old Style';-inkscape-font-specification:'Bookman Old Style'"
         id="path3244" />
      <path
         d="m 257.64491,507.98669 v -0.92685 q 0.82512,-0.0678 1.4694,-0.27128 0.64427,-0.21475 1.4694,-0.68948 h 0.84773 v 2.13628 q 0.80252,-0.98337 1.865,-1.55983 1.06249,-0.57645 1.91022,-0.57645 0.83643,0 1.32246,0.3956 0.48604,0.39561 0.48604,0.96077 0,0.40691 -0.32779,0.72339 -0.31649,0.30519 -0.76861,0.30519 -0.20346,0 -0.3504,-0.0565 -0.14694,-0.0565 -0.42951,-0.24867 -0.62167,-0.40691 -1.03989,-0.40691 -0.56515,0 -1.24334,0.47473 -0.85903,0.61037 -1.34506,1.19813 v 5.21072 q 0,0.67818 0.0678,0.92685 0.0791,0.23736 0.24867,0.41821 0.16954,0.16955 0.41821,0.24867 0.24867,0.0791 0.87034,0.0791 h 0.373 v 0.94946 h -5.84369 v -0.94946 h 0.48603 q 0.68949,0 0.90425,-0.12433 0.29388,-0.16955 0.42951,-0.46343 0.14694,-0.30518 0.14694,-1.08509 v -6.66882 z"
         style="font-family:'Bookman Old Style';-inkscape-font-specification:'Bookman Old Style'"
         id="path3246" />
      <path
         d="m 274.8934,502.60643 v -0.96077 q 0.76861,-0.0678 1.40158,-0.25997 0.64427,-0.20345 1.60503,-0.68948 h 0.84774 v 13.71063 q 0,0.94946 0.0452,1.15291 0.11303,0.42952 0.3843,0.59906 0.27128,0.16955 1.05119,0.16955 h 0.48603 v 0.94946 l -3.92217,0.18085 v -1.79719 q -1.1303,1.02858 -2.12498,1.4581 -0.98336,0.42951 -1.97803,0.42951 -2.04586,0 -3.40223,-1.63894 -1.34507,-1.65025 -1.34507,-3.96738 0,-1.65025 0.7121,-3.01792 0.72339,-1.37898 1.89891,-2.10238 1.17552,-0.72339 2.57711,-0.72339 1.07379,0 1.98934,0.373 0.91555,0.373 1.67285,1.119 v -4.98465 z m 1.89891,11.93604 v -4.27256 q 0,-0.91555 -0.35039,-1.492 -0.33909,-0.58776 -1.13031,-1.01728 -0.77991,-0.42952 -1.60504,-0.42952 -0.98336,0 -1.81979,0.54255 -0.82513,0.53124 -1.29986,1.54852 -0.46342,1.00597 -0.46342,2.44147 0,1.35636 0.42951,2.35104 0.44082,0.98336 1.17552,1.5033 0.7347,0.50864 1.50331,0.50864 0.75731,0 1.71807,-0.42951 0.96076,-0.44082 1.8424,-1.25465 z"
         style="font-family:'Bookman Old Style';-inkscape-font-specification:'Bookman Old Style'"
         id="path3248" />
      <path
         d="m 292.58273,502.5273 h 0.80252 v 3.84305 h 3.35701 v 1.13031 h -3.35701 v 6.81575 q 0,0.87034 0.14694,1.24334 0.15824,0.373 0.51994,0.61037 0.373,0.23736 0.82512,0.23736 1.07379,0 2.37365,-0.96076 v 1.0964 q -1.48071,1.00597 -2.99532,1.00597 -0.85903,0 -1.55982,-0.3843 -0.68949,-0.38431 -0.94946,-0.90425 -0.24867,-0.51994 -0.24867,-1.80849 v -6.95139 h -1.97804 v -0.94946 q 0.94946,-0.21476 1.52592,-0.66688 0.58776,-0.45212 0.94946,-1.17552 0.3617,-0.7234 0.58776,-2.1815 z"
         style="font-family:'Bookman Old Style';-inkscape-font-specification:'Bookman Old Style'"
         id="path3250" />
      <path
         d="m 298.40381,502.61773 v -0.97207 q 1.0964,-0.14694 1.70677,-0.33909 0.61036,-0.20345 1.27724,-0.61036 h 0.88164 v 7.47133 q 1.27725,-1.07379 2.41886,-1.57113 1.14161,-0.49733 2.18149,-0.49733 1.51462,0 2.49798,0.90424 0.97207,0.90425 0.97207,2.2041 v 5.54981 q 0,0.82513 0.12433,1.0851 0.13564,0.24867 0.44082,0.373 0.30519,0.11303 1.36768,0.11303 v 0.94946 h -5.83239 v -0.94946 h 0.42951 q 0.82513,0 1.0851,-0.12433 0.25997,-0.13564 0.373,-0.42952 0.12434,-0.30518 0.12434,-1.24334 v -3.85435 q 0,-1.27724 -0.0904,-1.66155 -0.16955,-0.65558 -0.70079,-1.05119 -0.53124,-0.3956 -1.35637,-0.3956 -0.92685,0 -1.94413,0.46342 -1.00597,0.45213 -2.09107,1.36768 v 5.66284 q 0,0.63297 0.11303,0.84773 0.11303,0.21476 0.373,0.31648 0.25998,0.10173 1.03989,0.10173 h 0.46342 v 0.94946 h -5.85499 v -0.94946 h 0.3504 q 0.82512,0 1.19812,-0.20345 0.20346,-0.10173 0.29388,-0.39561 0.0904,-0.29388 0.0904,-1.62765 v -11.48392 z"
         style="font-family:'Bookman Old Style';-inkscape-font-specification:'Bookman Old Style'"
         id="path3252" />
      <path
         d="m 316.47741,501.00139 q 0.54255,0 0.92685,0.3843 0.38431,0.37301 0.38431,0.91555 0,0.54255 -0.38431,0.92686 -0.3843,0.3843 -0.92685,0.3843 -0.54255,0 -0.92685,-0.3843 -0.38431,-0.38431 -0.38431,-0.92686 0,-0.54254 0.38431,-0.91555 0.3843,-0.3843 0.92685,-0.3843 z m -2.88229,6.9966 v -0.93815 q 0.93816,-0.11303 1.57113,-0.31649 0.64428,-0.20345 1.4581,-0.64427 h 0.82512 v 9.06506 q 0,0.47473 0.13564,0.7121 0.13564,0.23736 0.373,0.35039 0.24867,0.10173 0.89294,0.10173 h 0.53125 v 0.94946 h -5.78718 v -0.94946 h 0.46343 q 0.75731,0 1.01728,-0.13564 0.25997,-0.13563 0.3617,-0.3843 0.11303,-0.24867 0.11303,-1.16422 v -6.64621 z"
         style="font-family:'Bookman Old Style';-inkscape-font-specification:'Bookman Old Style'"
         id="path3254" />
      <path
         d="m 328.27783,506.37035 h 0.79121 l 1.01728,3.45874 -1.01728,0.33909 q -0.61037,-1.39027 -1.71807,-2.18149 -1.0964,-0.80252 -2.2267,-0.80252 -0.87034,0 -1.41289,0.42952 -0.54255,0.41821 -0.54255,0.97206 0,0.51995 0.39561,0.89295 0.38431,0.3843 1.72937,0.87033 l 2.2041,0.77992 q 1.86501,0.66688 2.5432,1.42418 0.66688,0.76861 0.66688,1.74068 0,0.82512 -0.49734,1.59373 -0.49733,0.75731 -1.44679,1.20943 -0.93816,0.45212 -2.15889,0.45212 -1.89892,0 -3.25529,-1.08509 l -0.23736,0.81382 h -0.80252 l -1.41288,-3.69611 1.02858,-0.40691 q 1.02858,1.62765 1.94413,2.30583 1.27724,0.96076 2.75795,0.96076 0.98336,0 1.61634,-0.51994 0.63297,-0.53124 0.63297,-1.17552 0,-0.53124 -0.39561,-0.97206 -0.40691,-0.42952 -1.55982,-0.83643 l -2.61101,-0.94946 q -1.68416,-0.61037 -2.33974,-1.33376 -0.65558,-0.7234 -0.65558,-1.66156 0,-1.14161 1.06249,-2.01194 1.07379,-0.88164 2.72404,-0.88164 0.85903,0 1.53722,0.22606 0.67818,0.21476 1.33376,0.7234 z"
         style="font-family:'Bookman Old Style';-inkscape-font-specification:'Bookman Old Style'"
         id="path3256" />
      <path
         d="m 31.560769,542.04827 0.723397,0.58776 q -2.124978,2.83707 -5.097687,2.83707 -2.317131,0 -3.910865,-1.65024 -1.593734,-1.65025 -1.593734,-4.10302 0,-1.63895 0.7347,-2.9388 0.746003,-1.31116 2.05716,-2.03456 1.32246,-0.72339 3.029225,-0.72339 1.944129,0 3.243983,0.96076 1.299853,0.94946 1.299853,1.92152 0,0.51994 -0.305183,0.80252 -0.305183,0.28258 -0.689487,0.28258 -0.203456,0 -0.395608,-0.10173 -0.192152,-0.10173 -0.395608,-0.32779 -0.09042,-0.10173 -0.327789,-0.63297 -0.305183,-0.65558 -0.474729,-0.88164 -0.350395,-0.45212 -0.870337,-0.7121 -0.508638,-0.25997 -1.141611,-0.25997 -0.960761,0 -1.785886,0.53125 -0.813821,0.53124 -1.299854,1.57113 -0.474729,1.02858 -0.474729,2.46407 0,2.2267 1.186823,3.53786 1.02858,1.13031 2.452768,1.13031 0.655578,0 1.32246,-0.21476 0.678184,-0.22606 1.277247,-0.65558 0.44082,-0.30518 1.435491,-1.39028 z"
         style="font-family:'Bookman Old Style';-inkscape-font-specification:'Bookman Old Style'"
         id="path3258" />
      <path
         d="m 41.733539,538.65735 v -1.23204 q 0,-1.25464 -0.700791,-1.78588 -0.700791,-0.54255 -1.978039,-0.54255 -0.632972,0 -1.107701,0.15824 -0.474729,0.14694 -0.768609,0.41822 -0.282577,0.25997 -0.418214,0.59906 -0.05652,0.12433 -0.271274,0.96076 -0.259971,1.01728 -1.051186,1.01728 -0.452123,0 -0.7347,-0.29388 -0.271274,-0.30518 -0.271274,-0.81382 0,-0.74601 0.553851,-1.4581 0.553851,-0.7234 1.684158,-1.18682 1.141611,-0.47473 2.690132,-0.47473 1.446794,0 2.475374,0.45212 1.02858,0.44082 1.514612,1.27725 0.339093,0.57646 0.339093,2.10237 v 4.35169 q 0,0.92685 0.05651,1.20942 0.124334,0.48604 0.429517,0.7347 0.316486,0.23737 0.813822,0.23737 0.519941,0 1.243338,-0.24867 v 0.98337 q -0.938155,0.27127 -1.684158,0.27127 -0.802519,0 -1.35637,-0.22606 -0.542547,-0.22606 -0.892943,-0.65558 -0.350395,-0.44082 -0.452123,-1.03988 -1.356369,1.06249 -2.452767,1.49201 -1.096399,0.42951 -2.215403,0.42951 -1.559825,0 -2.531889,-0.84773 -0.972065,-0.84773 -0.972065,-1.98934 0,-0.68949 0.350395,-1.31116 0.361699,-0.62167 1.085096,-1.09639 0.7347,-0.47473 2.294524,-0.83643 1.559825,-0.3617 4.329079,-0.65558 z m 0,0.98337 q -2.622314,0.3843 -3.243983,0.53124 -1.232036,0.28258 -1.76328,0.62167 -0.531245,0.33909 -0.757307,0.7347 -0.226061,0.38431 -0.226061,0.82513 0,0.44082 0.248668,0.85903 0.25997,0.40691 0.723397,0.64427 0.463426,0.23737 0.983367,0.23737 0.7347,0 1.661552,-0.3504 0.926853,-0.35039 2.373647,-1.36767 z"
         style="font-family:'Bookman Old Style';-inkscape-font-specification:'Bookman Old Style'"
         id="path3260" />
      <path
         d="m 47.012075,535.9107 v -0.92685 q 0.825125,-0.0678 1.4694,-0.27127 0.644275,-0.21476 1.4694,-0.68949 h 0.847731 v 2.13628 q 0.802518,-0.98337 1.865007,-1.55983 1.06249,-0.57645 1.91022,-0.57645 0.836428,0 1.32246,0.39561 0.486033,0.3956 0.486033,0.96076 0,0.40691 -0.32779,0.72339 -0.316486,0.30519 -0.768609,0.30519 -0.203455,0 -0.350395,-0.0565 -0.14694,-0.0565 -0.429517,-0.24867 -0.621669,-0.40691 -1.039883,-0.40691 -0.565154,0 -1.243339,0.47473 -0.859033,0.61037 -1.345066,1.19813 v 5.21072 q 0,0.67818 0.06782,0.92685 0.07912,0.23736 0.248667,0.41821 0.169547,0.16955 0.418214,0.24867 0.248668,0.0791 0.870337,0.0791 h 0.373002 v 0.94946 h -5.843691 v -0.94946 h 0.486032 q 0.689488,0 0.904247,-0.12433 0.29388,-0.16955 0.429516,-0.46343 0.14694,-0.30518 0.14694,-1.08509 v -6.66882 z"
         style="font-family:'Bookman Old Style';-inkscape-font-specification:'Bookman Old Style'"
         id="path3262" />
      <path
         d="m 64.260569,530.53044 v -0.96076 q 0.768609,-0.0678 1.401581,-0.25997 0.644275,-0.20346 1.605037,-0.68949 h 0.847731 v 13.71063 q 0,0.94946 0.04521,1.15291 0.113031,0.42952 0.384305,0.59907 0.271273,0.16954 1.051186,0.16954 h 0.486032 v 0.94946 l -3.922168,0.18085 v -1.79719 q -1.130307,1.02858 -2.124978,1.4581 -0.983368,0.42951 -1.978038,0.42951 -2.045857,0 -3.402226,-1.63894 -1.345067,-1.65025 -1.345067,-3.96738 0,-1.65025 0.712094,-3.01792 0.723397,-1.37898 1.898917,-2.10238 1.17552,-0.72339 2.577102,-0.72339 1.073792,0 1.989341,0.373 0.915549,0.373 1.672855,1.119 v -4.98465 z m 1.898916,11.93605 v -4.27257 q 0,-0.91555 -0.350395,-1.492 -0.339092,-0.58776 -1.130308,-1.01728 -0.779912,-0.42952 -1.605036,-0.42952 -0.983368,0 -1.819796,0.54255 -0.825124,0.53125 -1.299854,1.54852 -0.463426,1.00598 -0.463426,2.44147 0,1.35637 0.429517,2.35104 0.44082,0.98336 1.17552,1.50331 0.7347,0.50863 1.503309,0.50863 0.757306,0 1.718068,-0.42951 0.960761,-0.44082 1.842401,-1.25464 z"
         style="font-family:'Bookman Old Style';-inkscape-font-specification:'Bookman Old Style'"
         id="path3264" />
      <path
         d="m 74.433338,542.56821 q 0.599063,0 1.005974,0.41822 0.418214,0.40691 0.418214,0.99467 0,0.58776 -0.418214,1.00597 -0.418214,0.40691 -1.005974,0.40691 -0.576457,0 -0.994671,-0.40691 -0.418213,-0.41821 -0.418213,-1.00597 0,-0.58776 0.40691,-0.99467 0.418214,-0.41822 1.005974,-0.41822 z"
         style="font-family:'Bookman Old Style';-inkscape-font-specification:'Bookman Old Style'"
         id="path3266" />
    </g>
    <path
       style="color:#000000;fill:#331f14;-inkscape-stroke:none"
       d="m 4.2011719,31.212891 v 0.5 80.996089 H 101.63086 V 31.212891 Z m 1,1 H 100.63086 V 111.70898 H 5.2011719 Z"
       id="rect33301" />
    <g
       id="g17936"
       transform="translate(-3.159204,-2.9617537)">
      <g
         id="g17917">
        <path
           id="path17074"
           style="fill:#ffffff;fill-rule:evenodd;stroke-width:0.601001"
           d="M 98.66552,86.917229 A 43.439056,16.487097 0 0 1 55.226463,103.40433 43.439056,16.487097 0 0 1 11.787407,86.917229 43.439056,16.487097 0 0 1 55.226463,70.430132 43.439056,16.487097 0 0 1 98.66552,86.917229 Z" />
        <path
           id="ellipse17910"
           style="fill:#d1d1d1;fill-rule:evenodd;stroke-width:0.493037"
           d="M 90.862099,85.329727 A 35.635635,13.525343 0 0 1 55.226463,98.85507 35.635635,13.525343 0 0 1 19.590828,85.329727 35.635635,13.525343 0 0 1 55.226463,71.804384 35.635635,13.525343 0 0 1 90.862099,85.329727 Z" />
        <path
           id="ellipse17912"
           style="fill:#fafafa;fill-rule:evenodd;stroke-width:0.457049"
           d="M 88.26096,86.388062 A 33.034496,12.538092 0 0 1 55.226463,98.926153 33.034496,12.538092 0 0 1 22.191967,86.388062 33.034496,12.538092 0 0 1 55.226463,73.84997 33.034496,12.538092 0 0 1 88.26096,86.388062 Z" />
      </g>
      <g
         id="g17922"
         transform="translate(0.59235075,-0.789801)">
        <path
           style="fill:#ffffff;fill-opacity:1;fill-rule:evenodd;stroke-width:0.601001"
           d="m 80.894234,62.1339 7.166949,-4.88661 c 0,0 -2.523179,-0.623179 -2.730961,-1.66974 -0.32071,-1.615369 1.298143,-3.658924 2.910995,-3.992067 4.909508,-1.014086 3.347789,4.427354 3.347789,4.427354 0,0 5.23123,-1.036299 4.936005,3.204395 -0.11094,1.593555 -1.394984,4.629605 -3.611956,3.149496 -1.61522,-1.078363 -1.77526,-3.208041 -1.77526,-3.208041 l -9.630138,8.127292 z"
           id="path16910"
           sodipodi:nodetypes="ccascssccc" />
        <path
           id="path16318"
           style="fill:#552200;fill-rule:evenodd;stroke-width:0.468963"
           d="m 87.145779,79.710297 c 0,11.232021 -14.732774,16.289643 -32.906567,16.289643 -18.173793,0 -32.906564,-5.057622 -32.906567,-16.289643 0,-11.232023 1.20743,-16.881997 19.381225,-16.881997 1.20039,0 16.503462,0.237174 17.670574,0.314611 16.502857,1.094946 28.761335,6.077246 28.761335,16.567386 z"
           sodipodi:nodetypes="ssssss" />
        <path
           id="path16320"
           style="fill:#803300;fill-rule:evenodd;stroke-width:0.794477"
           d="m 82.311665,66.861193 c 0.730044,4.907715 -16.147994,16.692659 -24.086187,17.8735 -7.938191,1.18084 -14.965186,-1.840386 -15.695233,-6.748102 -0.730044,-4.907717 4.53594,-13.151566 12.474134,-14.332407 2.125661,-0.316201 7.730264,1.443574 12.098732,0.677906 6.4554,-1.131449 11.948835,-4.677109 13.673399,-3.341309 1.466657,1.136031 1.289478,4.218852 1.535155,5.870412 z"
           sodipodi:nodetypes="sssssss" />
      </g>
    </g>
  </g>
</svg>
