<?xml version="1.0" encoding="UTF-8" standalone="no"?>
<!-- Created with Inkscape (http://www.inkscape.org/) -->

<svg
   width="400.00006"
   height="600"
   viewBox="0 0 105.83335 158.75"
   version="1.1"
   id="svg5"
   inkscape:export-filename="CardTemplate.svg"
   inkscape:export-xdpi="26.281288"
   inkscape:export-ydpi="26.281288"
   sodipodi:docname="ButterFingersCard.svg"
   inkscape:version="1.2.2 (732a01da63, 2022-12-09)"
   xml:space="preserve"
   xmlns:inkscape="http://www.inkscape.org/namespaces/inkscape"
   xmlns:sodipodi="http://sodipodi.sourceforge.net/DTD/sodipodi-0.dtd"
   xmlns="http://www.w3.org/2000/svg"
   xmlns:svg="http://www.w3.org/2000/svg"><sodipodi:namedview
     id="namedview7"
     pagecolor="#505050"
     bordercolor="#ffffff"
     borderopacity="1"
     inkscape:showpageshadow="0"
     inkscape:pageopacity="0"
     inkscape:pagecheckerboard="1"
     inkscape:deskcolor="#505050"
     inkscape:document-units="mm"
     showgrid="false"
     showguides="true"
     inkscape:zoom="0.9475231"
     inkscape:cx="-101.31679"
     inkscape:cy="312.92113"
     inkscape:window-width="1920"
     inkscape:window-height="991"
     inkscape:window-x="-9"
     inkscape:window-y="-9"
     inkscape:window-maximized="1"
     inkscape:current-layer="layer1" /><defs
     id="defs2"><linearGradient
       id="linearGradient3910"
       inkscape:swatch="solid"><stop
         style="stop-color:#000000;stop-opacity:1;"
         offset="0"
         id="stop3908" /></linearGradient><linearGradient
       id="linearGradient3902"
       inkscape:swatch="solid"><stop
         style="stop-color:#000000;stop-opacity:1;"
         offset="0"
         id="stop3900" /></linearGradient><linearGradient
       id="linearGradient1908"
       inkscape:swatch="gradient"><stop
         style="stop-color:#412a2a;stop-opacity:1;"
         offset="0.83033931"
         id="stop1904" /><stop
         style="stop-color:#412a2a;stop-opacity:0;"
         offset="0.84431136"
         id="stop1906" /></linearGradient><rect
       x="20.732048"
       y="466.96472"
       width="356.39377"
       height="115.50713"
       id="rect857" /><rect
       x="13.821366"
       y="17.770327"
       width="368.24066"
       height="96.749557"
       id="rect721" /></defs><g
     inkscape:label="Layer 1"
     inkscape:groupmode="layer"
     id="layer1"
     transform="translate(-0.33529438,-0.33529437)"><rect
       style="font-variation-settings:normal;opacity:1;fill:#c87137;fill-opacity:1;stroke:#331f14;stroke-width:2.64597;stroke-linejoin:round;stroke-dasharray:none;stroke-dashoffset:0;stroke-opacity:1;paint-order:markers fill stroke;stop-color:#000000;stop-opacity:1"
       id="rect386"
       width="103.18738"
       height="156.10403"
       x="1.6582794"
       y="1.6582794" /><rect
       style="opacity:1;vector-effect:none;fill:#a99069;fill-opacity:1;stroke-width:0.289246;stroke-linecap:butt;stroke-linejoin:miter;stroke-miterlimit:4;stroke-dasharray:none;stroke-dashoffset:0;stroke-opacity:1;-inkscape-stroke:none;stop-color:#000000;stop-opacity:1"
       id="rect711"
       width="96.429878"
       height="80.496231"
       x="4.7017326"
       y="31.71199" /><text
       xml:space="preserve"
       transform="matrix(0.26458333,0,0,0.26458333,0,9.5250005)"
       id="text719"
       style="font-style:normal;font-variant:normal;font-weight:normal;font-stretch:normal;font-size:48px;line-height:0;font-family:Broadway;-inkscape-font-specification:Broadway;text-align:center;letter-spacing:0px;word-spacing:0px;writing-mode:lr-tb;baseline-shift:baseline;white-space:pre;shape-inside:url(#rect721);display:inline;opacity:1;vector-effect:none;fill:#000000;fill-opacity:1;stroke-width:0.999999;stroke-linecap:butt;stroke-linejoin:miter;stroke-miterlimit:4;stroke-dasharray:none;stroke-dashoffset:0;stroke-opacity:1;-inkscape-stroke:none;stop-color:#000000;stop-opacity:1"
       x="80.755417"
       y="0"><tspan
         x="14.438477"
         y="40.19418"
         id="tspan378">Butter Fingers</tspan></text><text
       xml:space="preserve"
       style="font-style:normal;font-variant:normal;font-weight:normal;font-stretch:normal;font-size:7.05556px;line-height:0px;font-family:Broadway;-inkscape-font-specification:Broadway;text-align:start;writing-mode:lr-tb;text-anchor:start;opacity:1;vector-effect:none;fill:#000000;fill-opacity:1;stroke-width:0.264583;stroke-linecap:butt;stroke-linejoin:miter;stroke-miterlimit:4;stroke-dasharray:none;stroke-dashoffset:0;stroke-opacity:1;-inkscape-stroke:none;stop-color:#000000;stop-opacity:1"
       x="4.3020148"
       y="121.22047"
       id="text733"><tspan
         sodipodi:role="line"
         id="tspan731"
         style="font-size:7.05556px;stroke-width:0.264583"
         x="4.3020148"
         y="121.22047">Description:</tspan></text><text
       xml:space="preserve"
       transform="matrix(0.27431353,0,0,0.27431353,-0.8676689,-4.702566)"
       id="text855"
       style="font-style:normal;font-variant:normal;font-weight:normal;font-stretch:normal;font-size:23.1487px;line-height:23.1487px;font-family:Broadway;-inkscape-font-specification:Broadway;text-align:start;writing-mode:lr-tb;white-space:pre;shape-inside:url(#rect857);display:inline;opacity:1;vector-effect:none;fill:#000000;fill-opacity:1;stroke-width:0.999999;stroke-linecap:butt;stroke-linejoin:miter;stroke-miterlimit:4;stroke-dasharray:none;stroke-dashoffset:0;stroke-opacity:1;-inkscape-stroke:none;stop-color:#000000;stop-opacity:1"><tspan
         x="20.732422"
         y="489.35381"
         id="tspan382"><tspan
           style="font-family:'Bookman Old Style';-inkscape-font-specification:'Bookman Old Style'"
           id="tspan380">Force the opposing player to </tspan></tspan><tspan
         x="20.732422"
         y="517.27782"
         id="tspan386"><tspan
           style="font-family:'Bookman Old Style';-inkscape-font-specification:'Bookman Old Style'"
           id="tspan384">discard their entire hand. </tspan></tspan><tspan
         x="20.732422"
         y="545.20183"
         id="tspan390"><tspan
           style="font-family:'Bookman Old Style';-inkscape-font-specification:'Bookman Old Style'"
           id="tspan388">Discard this card.</tspan></tspan></text><g
       id="g10292"
       transform="matrix(1.3273314,-0.35018289,0.33292339,1.2619111,-39.705417,-0.23167477)"
       sodipodi:insensitive="true"><path
         style="fill:#ffffff;fill-opacity:1;fill-rule:evenodd;stroke:#000000;stroke-width:0.901;stroke-linecap:round;stroke-dasharray:none;stroke-opacity:1"
         d="m 39.627893,85.480149 c 0,0 -1.855432,8.471238 9.015371,8.935579 11.145256,0.476064 8.5577,-7.399776 8.5577,-7.399776 1.166935,-1.43729 4.253787,-0.875513 5.544365,-4.244772 3.461709,-9.037341 10.776364,-10.370036 6.040865,-14.47378 -4.564047,-3.955165 -10.140285,5.332829 -10.140285,5.332829 1.757608,-14.773658 -1.54748,-8.784762 -16.005869,-9.996894 -8.957985,-1.109464 -5.73241,4.931087 -4.789196,8.771299 0,0 -3.246489,2.11243 -2.458382,7.128573 0.820516,4.515057 4.235431,5.946942 4.235431,5.946942 z"
         id="path6268"
         sodipodi:nodetypes="cscssccccc" /><path
         style="fill:none;fill-opacity:1;fill-rule:evenodd;stroke:#000000;stroke-width:0.900999;stroke-linecap:round;stroke-dasharray:none;stroke-opacity:1"
         d="m 58.647879,86.10189 c 0,0 -2.423737,0.741248 -3.668149,0.964475 -0.766407,0.137481 -2.32474,0.228272 -2.32474,0.228272"
         id="path9505"
         sodipodi:nodetypes="cac" /><path
         style="fill:none;fill-opacity:1;fill-rule:evenodd;stroke:#000000;stroke-width:0.900999;stroke-linecap:round;stroke-dasharray:none;stroke-opacity:1"
         d="m 39.568068,85.420737 c 0,0 1.800184,0.59905 2.721809,0.818599 1.271217,0.302829 3.8601,0.684777 3.8601,0.684777"
         id="path9507"
         sodipodi:nodetypes="cac" /><g
         id="g9551"
         style="display:inline"><g
           id="g6197"
           transform="matrix(0.10956336,-0.31745213,0.26137714,0.13306872,13.558755,68.502098)"><rect
             style="fill:#d4aa00;fill-rule:evenodd;stroke-width:0.601001"
             id="rect3569"
             width="63.480251"
             height="23.891479"
             x="-31.055803"
             y="74.16758"
             ry="3.4553792"
             transform="matrix(-0.8409155,0.54116645,0.54116645,0.8409155,0,0)" /><rect
             style="fill:#ffff00;fill-rule:evenodd;stroke-width:0.601001"
             id="rect3623"
             width="63.480251"
             height="23.891479"
             x="-33.425217"
             y="75.845909"
             ry="3.4553792"
             transform="matrix(-0.8409155,0.54116645,0.54116645,0.8409155,0,0)" /><rect
             style="fill:#ffff00;fill-rule:evenodd;stroke-width:0.601001"
             id="rect9509"
             width="63.480251"
             height="23.891479"
             x="-33.425217"
             y="75.845909"
             ry="3.4553792"
             transform="matrix(-0.8409155,0.54116645,0.54116645,0.8409155,0,0)" /></g><g
           id="g9529"
           transform="matrix(0.17171601,-0.36042594,0.31623854,0.19570956,14.706829,63.658989)"><rect
             style="fill:#d4aa00;fill-rule:evenodd;stroke-width:0.601001"
             id="rect9523"
             width="63.480251"
             height="23.891479"
             x="-31.055803"
             y="74.16758"
             ry="3.4553792"
             transform="matrix(-0.8409155,0.54116645,0.54116645,0.8409155,0,0)" /><rect
             style="fill:#ffff00;fill-rule:evenodd;stroke-width:0.601001"
             id="rect9525"
             width="63.480251"
             height="23.891479"
             x="-33.425217"
             y="75.845909"
             ry="3.4553792"
             transform="matrix(-0.8409155,0.54116645,0.54116645,0.8409155,0,0)" /><rect
             style="fill:#ffff00;fill-rule:evenodd;stroke-width:0.601001"
             id="rect9527"
             width="63.480251"
             height="23.891479"
             x="-33.425217"
             y="75.845909"
             ry="3.4553792"
             transform="matrix(-0.8409155,0.54116645,0.54116645,0.8409155,0,0)" /></g><g
           id="g9537"
           transform="matrix(0.22339189,-0.36766477,0.28362824,0.24203306,24.205398,59.838246)"><rect
             style="fill:#d4aa00;fill-rule:evenodd;stroke-width:0.601001"
             id="rect9531"
             width="63.480251"
             height="23.891479"
             x="-31.055803"
             y="74.16758"
             ry="3.4553792"
             transform="matrix(-0.8409155,0.54116645,0.54116645,0.8409155,0,0)" /><rect
             style="fill:#ffff00;fill-rule:evenodd;stroke-width:0.601001"
             id="rect9533"
             width="63.480251"
             height="23.891479"
             x="-33.425217"
             y="75.845909"
             ry="3.4553792"
             transform="matrix(-0.8409155,0.54116645,0.54116645,0.8409155,0,0)" /><rect
             style="fill:#ffff00;fill-rule:evenodd;stroke-width:0.601001"
             id="rect9535"
             width="63.480251"
             height="23.891479"
             x="-33.44046"
             y="77.316818"
             ry="3.4553792"
             transform="matrix(-0.8409155,0.54116645,0.54116645,0.8409155,0,0)" /></g><path
           style="fill:#d4aa00;fill-opacity:1;fill-rule:evenodd;stroke:none;stroke-width:0.900999;stroke-linecap:round;stroke-dasharray:none;stroke-opacity:1"
           d="m 36.147415,73.70477 c -2.554498,2.242295 -1.461834,2.599362 0.977331,3.560269 2.029737,0.662897 3.560269,-2.164086 3.560269,-2.164086 0,0 1.663925,2.556112 2.44332,1.884849 3.977126,-3.425346 4.110231,0.751889 5.445119,-0.488666 2.423167,-2.251927 6.631875,-0.767902 6.631875,-0.767902 l 2.303703,0.139621 1.88485,-2.652752 z"
           id="path9609"
           sodipodi:nodetypes="cccsscccc" /><path
           style="fill:#ffff00;fill-opacity:1;fill-rule:evenodd;stroke:none;stroke-width:0.900999;stroke-linecap:round;stroke-dasharray:none;stroke-opacity:1"
           d="m 35.937988,73.006678 c -2.554498,2.242295 -1.461834,2.599362 0.977331,3.560269 2.029737,0.662897 3.560269,-2.164086 3.560269,-2.164086 0,0 1.663925,2.556112 2.44332,1.884849 3.977126,-3.425346 4.110231,0.751889 5.445119,-0.488666 2.423167,-2.251927 6.631875,-0.767902 6.631875,-0.767902 l 2.303703,0.139621 1.88485,-2.652752 z"
           id="path9607"
           sodipodi:nodetypes="cccsscccc" /></g><path
         style="fill:none;fill-opacity:1;fill-rule:evenodd;stroke:#000000;stroke-width:0.900999;stroke-linecap:round;stroke-dasharray:none;stroke-opacity:1"
         d="m 60.964586,70.528448 c 0,0 -2.387105,3.008998 -3.250578,4.709972 -0.189972,0.374229 -0.414404,1.188908 -0.414404,1.188908 0,0 -1.144472,-0.508061 -3.884462,0.299621 -1.044689,0.307948 -2.81722,1.655036 -2.81722,1.655036"
         id="path9503"
         sodipodi:nodetypes="cacsc" /></g><rect
       style="opacity:1;fill:none;fill-opacity:1;stroke-width:1;stroke-linecap:butt;stroke-linejoin:miter;stroke-miterlimit:4;stroke-dasharray:none;stroke-dashoffset:0;stroke-opacity:1;stop-color:#000000;stop-opacity:1;stroke:#331f14"
       id="rect33301"
       width="96.429878"
       height="80.496231"
       x="4.7017326"
       y="31.71199" /></g></svg>
