<?xml version="1.0" encoding="UTF-8" standalone="no"?>
<!-- Created with Inkscape (http://www.inkscape.org/) -->

<svg
   width="400"
   height="600"
   viewBox="0 0 105.83333 158.75"
   version="1.1"
   id="svg5"
   inkscape:export-filename="CardTemplate.svg"
   inkscape:export-xdpi="26.281288"
   inkscape:export-ydpi="26.281288"
   inkscape:version="1.2.2 (732a01da63, 2022-12-09)"
   sodipodi:docname="DivorceCard.svg"
   xmlns:inkscape="http://www.inkscape.org/namespaces/inkscape"
   xmlns:sodipodi="http://sodipodi.sourceforge.net/DTD/sodipodi-0.dtd"
   xmlns="http://www.w3.org/2000/svg"
   xmlns:svg="http://www.w3.org/2000/svg">
  <sodipodi:namedview
     id="namedview7"
     pagecolor="#505050"
     bordercolor="#ffffff"
     borderopacity="1"
     inkscape:showpageshadow="0"
     inkscape:pageopacity="0"
     inkscape:pagecheckerboard="1"
     inkscape:deskcolor="#505050"
     inkscape:document-units="mm"
     showgrid="false"
     showguides="true"
     inkscape:zoom="1.0129245"
     inkscape:cx="187.57568"
     inkscape:cy="328.25744"
     inkscape:window-width="1920"
     inkscape:window-height="991"
     inkscape:window-x="-9"
     inkscape:window-y="-9"
     inkscape:window-maximized="1"
     inkscape:current-layer="layer1" />
  <defs
     id="defs2">
    <inkscape:path-effect
       effect="bspline"
       id="path-effect15526"
       is_visible="true"
       lpeversion="1"
       weight="33.333333"
       steps="2"
       helper_size="0"
       apply_no_weight="true"
       apply_with_weight="true"
       only_selected="false" />
    <inkscape:path-effect
       effect="bspline"
       id="path-effect15522"
       is_visible="true"
       lpeversion="1"
       weight="33.333333"
       steps="2"
       helper_size="0"
       apply_no_weight="true"
       apply_with_weight="true"
       only_selected="false" />
    <linearGradient
       id="linearGradient3910"
       inkscape:swatch="solid">
      <stop
         style="stop-color:#000000;stop-opacity:1;"
         offset="0"
         id="stop3908" />
    </linearGradient>
    <linearGradient
       id="linearGradient3902"
       inkscape:swatch="solid">
      <stop
         style="stop-color:#000000;stop-opacity:1;"
         offset="0"
         id="stop3900" />
    </linearGradient>
    <linearGradient
       id="linearGradient1908"
       inkscape:swatch="gradient">
      <stop
         style="stop-color:#412a2a;stop-opacity:1;"
         offset="0.83033931"
         id="stop1904" />
      <stop
         style="stop-color:#412a2a;stop-opacity:0;"
         offset="0.84431136"
         id="stop1906" />
    </linearGradient>
    <rect
       x="20.732048"
       y="466.96471"
       width="356.39378"
       height="115.50713"
       id="rect857" />
    <rect
       x="13.821366"
       y="17.770327"
       width="368.24067"
       height="96.749559"
       id="rect721" />
    <rect
       x="18.757568"
       y="19.744808"
       width="363.22514"
       height="30.382957"
       id="rect495" />
    <clipPath
       clipPathUnits="userSpaceOnUse"
       id="clipPath14850">
      <rect
         style="opacity:1;vector-effect:none;fill:#ffffff;fill-opacity:1;stroke-width:0.289245;stroke-linecap:butt;stroke-linejoin:miter;stroke-miterlimit:4;stroke-dasharray:none;stroke-dashoffset:0;stroke-opacity:1;-inkscape-stroke:none;stop-color:#000000;stop-opacity:1"
         id="rect14852"
         width="96.429878"
         height="80.496231"
         x="4.7017326"
         y="31.71199" />
    </clipPath>
    <inkscape:path-effect
       effect="fill_between_many"
       method="originald"
       linkedpaths="#path15212,0,1|#ellipse15225,0,1"
       id="path-effect15534" />
    <clipPath
       clipPathUnits="userSpaceOnUse"
       id="clipPath17247">
      <path
         style="fill:none;fill-opacity:1;stroke:none;stroke-width:0.593166;stroke-linejoin:round;stroke-dasharray:none;stroke-opacity:1;paint-order:markers fill stroke;stop-color:#000000"
         d="m 36.92879,70.909685 c 0.0913,0.03652 0.182598,0.07304 0.273896,0.109558 0.03652,0.03652 0.06336,0.08646 0.10956,0.109559 0.278904,0.139452 0.641235,0.122446 0.931248,0.219118 0.25097,0.08366 0.530646,0.210543 0.76691,0.328675 0.05888,0.02944 0.101034,0.09147 0.164336,0.109559 0.140459,0.04013 0.294145,-0.02402 0.438235,0 0.04028,0.0067 0.06995,0.04487 0.109558,0.05478 0.182583,0.04564 0.516068,0.03921 0.712131,0 0.05662,-0.01133 0.108319,-0.04078 0.164338,-0.05478 0.205223,-0.0513 0.49901,0 0.712131,0 0.01826,0 0.04187,-0.01292 0.05478,0 0.08432,0.08432 0.134791,0.244349 0.219116,0.328674 0.02887,0.02887 0.08069,0.02591 0.109558,0.05478 0.02887,0.02887 0.02591,0.08069 0.05478,0.109559 0.02582,0.02582 0.08373,-0.02582 0.109557,0 0.01292,0.01292 -0.01292,0.04187 0,0.05478 0.119931,0.119929 0.301048,0.150523 0.438235,0.219117 0.0434,0.0217 0.260475,-0.0023 0.273896,0 0.274953,0.04583 0.52355,0.09744 0.76691,0.219118 0.163712,0.08186 0.245531,0.354439 0.328675,0.493013 0.03986,0.06643 0.121367,0.09988 0.164339,0.164337 0.01012,0.01519 -0.01633,0.04661 0,0.05478 0.03267,0.01633 0.0769,-0.01634 0.109558,0 0.01634,0.0082 -0.01292,0.04187 0,0.05478 0.02888,0.02887 0.08069,0.02591 0.109559,0.05478 0.02582,0.02582 -0.02582,0.08373 0,0.109558 0.03873,0.03873 0.115341,-0.0245 0.164337,0 0.01692,0.0085 -0.0098,0.144742 0,0.164338 0.02945,0.05888 0.06301,0.117785 0.109559,0.164339 0.05901,0.05901 0.06786,0.0065 0.164339,0.05478 0.138855,0.06943 0.09352,0.203081 0.164337,0.273896 0.01292,0.01292 0.04186,-0.01292 0.05478,0 0.02888,0.02887 0.03652,0.07304 0.05478,0.109558 0.07304,0.03652 0.151171,0.06426 0.219118,0.109559 0.142161,0.09477 0.08351,0.09788 0.164337,0.219117 0.07559,0.113383 0.278086,0.275992 0.383455,0.328676 0.03267,0.01633 0.07689,-0.01633 0.109558,0 0.01633,0.0082 -0.01292,0.04187 0,0.05478 0.04083,0.04083 0.10832,0.04077 0.164338,0.05478 0.0045,0.0011 1.384784,-0.03504 1.424262,-0.05478 0.131728,-0.06586 0.304768,-0.09761 0.438233,-0.164337 0.283475,-0.141737 -0.508918,0.04915 0.273897,-0.164339 0.124567,-0.03398 0.257414,-0.02677 0.383455,-0.05478 0.03986,-0.0089 0.07304,-0.03652 0.109558,-0.05478 0.0913,-0.01826 0.18151,-0.04323 0.273896,-0.05478 0.05436,-0.0068 0.112371,0.01732 0.164339,0 0.01732,-0.0058 -0.01633,-0.04661 0,-0.05478 0.06033,-0.03016 0.154884,0.02141 0.219117,0 0.203982,-0.06799 0.440804,-0.192048 0.657352,-0.219118 0.09059,-0.01132 0.183156,0.01008 0.273896,0 0.234601,-0.02607 0.432587,-0.108147 0.657351,-0.164337 0.05314,-0.01329 0.111194,0.01329 0.164338,0 0.199779,-0.04994 0.404596,-0.114845 0.602572,-0.164338 0.05568,-0.01392 0.504126,-0.04367 0.547794,0 0.01292,0.01292 -0.01634,0.04661 0,0.05478 0.07318,0.03659 0.19546,-0.02615 0.273896,0 0.12596,0.04198 0.248344,0.08704 0.383454,0.109559 0.207943,0.03465 0.5169,-0.07809 0.712131,0 0.07582,0.03033 0.143297,0.07923 0.219117,0.109558 0.05674,0.0227 0.499015,0.03252 0.547793,0 0.529656,-0.353103 -0.579737,0.22094 0.383455,-0.164338 0.01695,-0.0068 -0.01733,-0.04901 0,-0.05478 0.438235,-0.146078 0.02434,0.04869 0.219118,0 0.17873,-0.04468 0.378121,-0.09162 0.547792,-0.164338 0.112585,-0.04825 0.209842,-0.13463 0.328675,-0.164337 0.155958,-0.03899 0.435266,-0.03346 0.602573,0 0.351409,0.07028 0.507843,0.64137 0.821689,0.76691 0.273896,0.109558 0,-0.05478 0.164339,0 0.396787,0.132262 -0.08637,-0.01579 0.164336,0.109558 0.172019,0.08601 1.48883,-0.109558 1.698158,-0.109558 0.235356,0 1.560182,0.05547 1.64338,0 0.191322,-0.12755 0.476371,-0.324515 0.712129,-0.383456 0.14282,-0.0357 0.29175,-0.04013 0.438234,-0.05478 0.05451,-0.0055 0.11876,0.03039 0.164339,0 0.125073,-0.08338 0.342128,-0.478594 0.383454,-0.602571 0.01733,-0.05197 -0.03039,-0.11876 0,-0.164339 0.094,-0.140993 0.27588,-0.166322 0.328677,-0.219117 0.01292,-0.01292 0,-0.03652 0,-0.05478 0.03652,-0.03652 0.06336,-0.08646 0.109558,-0.109558 0.049,-0.0245 0.125603,0.03874 0.164338,0 0.01292,-0.01292 -0.0082,-0.03845 0,-0.05478 0.05775,-0.115484 0.176726,-0.188873 0.273896,-0.273896 0.06871,-0.06012 0.15456,-0.09978 0.219118,-0.164337 0.04655,-0.04655 0.05898,-0.12219 0.109557,-0.164338 0.0037,-0.0031 0.326557,-0.204892 0.383456,-0.219118 0.05314,-0.01329 0.125602,0.03874 0.164337,0 0.02888,-0.02887 0.02081,-0.08691 0.05478,-0.109557 0.03039,-0.02026 0.07689,0.01633 0.109558,0 0.02463,-0.01232 0.09406,-0.446517 0.109558,-0.493014 0.04842,-0.145267 0.145745,-0.10906 0.219117,-0.219117 0.03203,-0.04805 0.01395,-0.123509 0.05478,-0.164339 0.02887,-0.02887 0.08069,-0.02591 0.109558,-0.05478 0.0408,-0.04081 0.07861,-0.188167 0.109558,-0.219119 0.106642,-0.106642 0.157174,-0.01587 0.273897,-0.05478 0.0245,-0.0082 0.03168,-0.04323 0.05478,-0.05478 0.049,-0.0245 0.112369,0.01732 0.164337,0 0.0245,-0.0082 0.03652,-0.03652 0.05478,-0.05478 0.05478,-0.01826 0.10832,-0.04077 0.164337,-0.05478 0.158936,-0.03974 0.339683,-0.03289 0.493012,-0.109556 0.03956,-0.01978 0.203081,-0.225783 0.219119,-0.273898 0.01069,-0.03207 -0.02325,-0.250648 0,-0.273898 0.04083,-0.04083 0.118142,-0.02013 0.164338,-0.05478 0.03267,-0.0245 0.02927,-0.07767 0.05478,-0.109558 0.124317,-0.155397 0.297948,-0.243169 0.438235,-0.383457 0.02887,-0.02887 0.01826,-0.0913 0.05478,-0.109557 0.03267,-0.01634 0.07917,0.02026 0.109558,0 0.117293,-0.0782 0.01586,-0.231379 0.05478,-0.328676 0.02445,-0.06113 0.08511,-0.10321 0.109558,-0.164337 0.08369,-0.209219 -0.03204,-0.542588 0,-0.76691 0.01064,-0.07453 0.04413,-0.144589 0.05478,-0.219119 0.02555,-0.178882 -0.02242,-0.368483 0,-0.547791 0.04521,-0.361669 0.31302,-0.774755 0.219119,-1.150365 -0.05711,-0.228432 -0.185157,-0.419617 -0.219119,-0.657352 -0.02007,-0.140493 0.03426,-0.301198 0,-0.438233 -0.04564,-0.182582 -0.159938,-0.385052 -0.219118,-0.547793 -0.06853,-0.188474 0.0036,-0.372543 -0.05478,-0.547795 -0.03614,-0.108399 -0.281951,-0.665405 -0.328676,-0.712131 -0.02887,-0.02887 -0.08691,-0.0208 -0.109559,-0.05478 -0.02605,-0.03907 -0.0229,-0.171294 -0.05478,-0.219117 -0.02865,-0.04297 -0.08646,-0.06336 -0.109556,-0.109558 -0.06425,-0.128491 0.03348,-0.291136 -0.05478,-0.438235 -0.02658,-0.04429 -0.08299,-0.06527 -0.10956,-0.109557 -0.04913,-0.08189 -0.192795,-0.359264 -0.219119,-0.438235 -0.02887,-0.08661 0.02887,-0.187283 0,-0.273898 -0.03367,-0.101006 -0.130668,-0.172887 -0.164336,-0.273895 -0.01791,-0.05372 -0.06999,-0.317511 -0.10956,-0.383455 -0.02657,-0.04429 -0.08393,-0.06472 -0.109556,-0.109558 -0.07776,-0.136089 -0.30943,-0.760494 -0.493014,-0.821689 -0.03465,-0.01155 -0.07689,0.01633 -0.109559,0 -0.01633,-0.0082 0.01292,-0.04187 0,-0.05478 -0.494731,-0.494729 -0.01108,-0.0055 -0.219118,-0.109558 -0.04619,-0.0231 -0.06056,-0.09323 -0.109559,-0.109559 -0.0986,-0.03287 -0.230073,0.03287 -0.328674,0 -0.0245,-0.0082 -0.03028,-0.04661 -0.05478,-0.05478 -0.03465,-0.01155 -0.07304,0 -0.109559,0 -0.127816,-0.05478 -0.253246,-0.115509 -0.383453,-0.164337 -0.171607,-0.06435 -0.359919,0.02574 -0.547794,-0.05478 -0.06051,-0.02593 -0.10545,-0.08011 -0.164336,-0.109558 -0.148547,-0.07427 -0.500357,-0.179869 -0.657352,-0.219117 -0.24242,-0.0606 -0.44549,-0.262391 -0.657352,-0.383456 -0.212702,-0.121543 -0.431215,-0.234452 -0.657352,-0.328675 -0.06949,-0.02895 -0.151777,-0.02111 -0.219116,-0.05478 -0.0462,-0.0231 -0.06527,-0.08299 -0.109559,-0.109559 -0.14804,-0.08882 -0.434638,-0.143346 -0.602572,-0.164337 -0.312534,-0.03907 -0.726048,-0.03497 -1.040806,0 -0.217937,0.02421 -0.393409,0.129477 -0.602575,0.164337 -0.372924,0.06216 -0.774942,-0.04693 -1.150364,0 -0.05729,0.0072 -0.107175,0.04661 -0.164336,0.05478 -0.25623,0.0366 -0.731865,0.04236 -0.986027,0 -0.05696,-0.0095 -0.109558,-0.03652 -0.164337,-0.05478 -0.07304,0 -0.146813,0.01033 -0.219118,0 -0.186346,-0.02662 -0.357977,-0.137221 -0.547794,-0.164337 -0.178945,-0.02557 -0.368846,0.02556 -0.547792,0 -0.05717,-0.0082 -0.107381,-0.04529 -0.164337,-0.05478 -0.402873,-0.06715 -1.152756,0 -1.5886,0 -0.263895,0 -0.56263,-0.04318 -0.821689,0 -0.345636,0.05761 -0.685736,0.118023 -1.040806,0.164337 -0.481102,0.06275 -0.948292,0.111452 -1.424262,0.164338 -0.12611,0.01401 -0.310474,-0.03194 -0.438234,0 -0.199585,0.0499 -0.392527,0.115865 -0.602572,0.164339 -0.498552,0.115049 -0.265661,0.01301 -0.76691,0.05478 -0.986424,0.0822 0.22121,0.01535 -0.438234,0.109558 -0.07231,0.01033 -0.146813,-0.01033 -0.219118,0 -0.16375,0.02339 -0.329052,0.08906 -0.493013,0.10956 -0.537852,0.06723 -0.02974,-0.07759 -0.493014,0.05478 -0.205496,0.05871 -0.331389,0.179772 -0.547792,0.219117 -0.386239,0.07023 -0.722445,0.07105 -1.095585,0.164339 -0.348428,0.08711 -0.73781,0.09929 -1.095587,0.164337 -0.184345,0.03352 -0.31539,0.119931 -0.493013,0.164338 -0.146079,0.03652 -0.289709,0.0848 -0.438234,0.109559 -0.05404,0.009 -0.111194,-0.01328 -0.164338,0 -0.299815,0.07495 -0.227387,0.119507 -0.493014,0.219118 -0.347735,0.1304 -0.737495,0.218494 -1.095585,0.328673 -0.803348,0.247187 0.12148,-0.02076 -0.438234,0.219119 -0.309202,0.132514 -0.666941,0.222315 -0.986027,0.328675 -0.106601,0.03553 -0.319342,0.122947 -0.383456,0.219118 -0.02265,0.03397 -0.02211,0.08506 -0.05478,0.109559 -0.0462,0.03465 -0.114823,0.02507 -0.164338,0.05478 -0.150485,0.09029 -0.266155,0.259844 -0.438233,0.328674 -0.03391,0.01356 -0.07917,-0.02026 -0.10956,0 -0.03397,0.02265 -0.02591,0.08069 -0.05478,0.109559 -0.08217,0.08217 -0.191728,0.136949 -0.273896,0.219119 -0.05003,0.05003 -0.238506,0.551175 -0.273896,0.657349 -0.08977,0.26931 -0.256278,0.548563 -0.438235,0.76691 -0.03306,0.03968 -0.08299,0.06527 -0.109558,0.109559 -0.108892,0.181488 -0.352372,1.151894 -0.383455,1.369483 -0.01549,0.108456 0.02148,0.221246 0,0.328675 -0.04926,0.246305 -0.131857,0.50706 -0.164339,0.76691 -0.06989,0.559149 0,1.380423 0,1.972054 0,0.197708 0.03927,0.461025 0,0.657352 -0.01602,0.08007 -0.09354,0.139041 -0.109558,0.219116 -0.02178,0.108913 -0.03491,0.219398 -0.05478,0.328677 -0.05474,0.30108 -0.01285,0.58303 -0.05478,0.876468 -0.0011,0.0072 -0.101356,0.720335 -0.05478,0.766909 0.03095,0.03095 0.178311,0.06875 0.219118,0.10956 0.01292,0.01292 -0.01566,0.04538 0,0.05478 0.08432,0.05059 0.182598,0.07304 0.273896,0.109559 z"
         id="path17249" />
    </clipPath>
  </defs>
  <g
     inkscape:label="Layer 1"
     inkscape:groupmode="layer"
     id="layer1">
    <rect
       style="font-variation-settings:normal;opacity:1;fill:#c87137;fill-opacity:1;stroke:#331f14;stroke-width:2.64597;stroke-linejoin:round;stroke-dasharray:none;stroke-dashoffset:0;stroke-opacity:1;paint-order:markers fill stroke;stop-color:#000000;stop-opacity:1"
       id="rect386"
       width="103.18738"
       height="156.10403"
       x="1.6582794"
       y="1.6582794" />
    <text
       xml:space="preserve"
       transform="matrix(0.26458333,0,0,0.26458333,0,9.5250005)"
       id="text719"
       style="font-style:normal;font-variant:normal;font-weight:normal;font-stretch:normal;font-size:53.3333px;line-height:0;font-family:Broadway;-inkscape-font-specification:Broadway;text-align:center;letter-spacing:0px;word-spacing:0px;writing-mode:lr-tb;baseline-shift:baseline;white-space:pre;shape-inside:url(#rect721);display:inline;opacity:1;vector-effect:none;fill:#000000;fill-opacity:1;stroke-width:0.999999;stroke-linecap:butt;stroke-linejoin:miter;stroke-miterlimit:4;stroke-dasharray:none;stroke-dashoffset:0;stroke-opacity:1;-inkscape-stroke:none;stop-color:#000000;stop-opacity:1"
       x="80.755417"
       y="0"><tspan
         x="92.083071"
         y="42.685792"
         id="tspan18344">Divorce</tspan></text>
    <text
       xml:space="preserve"
       style="font-style:normal;font-variant:normal;font-weight:normal;font-stretch:normal;font-size:7.05556px;line-height:0px;font-family:Broadway;-inkscape-font-specification:Broadway;text-align:start;writing-mode:lr-tb;text-anchor:start;opacity:1;vector-effect:none;fill:#000000;fill-opacity:1;stroke-width:0.264583;stroke-linecap:butt;stroke-linejoin:miter;stroke-miterlimit:4;stroke-dasharray:none;stroke-dashoffset:0;stroke-opacity:1;-inkscape-stroke:none;stop-color:#000000;stop-opacity:1"
       x="4.3020148"
       y="121.22047"
       id="text733"><tspan
         sodipodi:role="line"
         id="tspan731"
         style="font-size:7.05556px;stroke-width:0.264583"
         x="4.3020148"
         y="121.22047">Description:</tspan></text>
    <text
       xml:space="preserve"
       transform="matrix(0.27431353,0,0,0.27431353,-0.8676689,-4.702566)"
       id="text855"
       style="font-style:normal;font-variant:normal;font-weight:normal;font-stretch:normal;font-size:23.1487px;line-height:23.1487px;font-family:Broadway;-inkscape-font-specification:Broadway;text-align:start;writing-mode:lr-tb;white-space:pre;shape-inside:url(#rect857);display:inline;opacity:1;vector-effect:none;fill:#000000;fill-opacity:1;stroke-width:0.999999;stroke-linecap:butt;stroke-linejoin:miter;stroke-miterlimit:4;stroke-dasharray:none;stroke-dashoffset:0;stroke-opacity:1;-inkscape-stroke:none;stop-color:#000000;stop-opacity:1"><tspan
         x="20.732422"
         y="489.35381"
         id="tspan18348"><tspan
           style="font-family:'Bookman Old Style';-inkscape-font-specification:'Bookman Old Style'"
           id="tspan18346">Remove one enemy queen from </tspan></tspan><tspan
         x="20.732422"
         y="517.27782"
         id="tspan18352"><tspan
           style="font-family:'Bookman Old Style';-inkscape-font-specification:'Bookman Old Style'"
           id="tspan18350">battle, and discard this card.</tspan></tspan></text>
    <g
       id="g14895"
       clip-path="url(#clipPath14850)"
       style="stroke:#ff9644;stroke-opacity:1;stroke-width:2;stroke-dasharray:none">
      <rect
         style="fill:#44110c;fill-opacity:1;stroke:#ff9644;stroke-width:2;stroke-linejoin:round;stroke-opacity:1;paint-order:markers fill stroke;stop-color:#000000;stroke-dasharray:none"
         id="rect14875"
         width="110.96245"
         height="96.073639"
         x="-3.3703623"
         y="24.317616" />
      <g
         id="g14893"
         style="stroke:#ff9644;stroke-opacity:1;stroke-width:2;stroke-dasharray:none">
        <path
           style="fill:#1a1a1a;stroke:#ff6200;stroke-width:2;stroke-linejoin:round;paint-order:markers fill stroke;stop-color:#000000;stroke-opacity:1;stroke-dasharray:none"
           d="m 14.758216,51.980263 c 0.570194,-0.191907 0.926406,-0.931407 1.43664,-1.175432 1.691976,-0.809207 3.46154,-1.44871 5.224147,-2.089658 1.007157,-0.366239 2.328413,-0.60302 3.265092,-1.175436 0.315205,-0.192624 0.492033,-0.556828 0.783622,-0.783621 0.120303,-0.09357 1.30692,-0.435052 1.43664,-0.391811 0.219445,0.07315 2.081099,0.757941 2.220264,1.175432 0.05506,0.165204 -0.03415,0.351661 0,0.522418 0.111141,0.555707 0.261207,0.413215 0.261207,1.044829 0,0.130603 0.05841,0.274994 0,0.39181 -0.01947,0.03894 -0.09982,-0.03078 -0.130603,0 -0.06883,0.06883 -0.06177,0.192374 -0.130604,0.261208 -0.126926,0.126923 -0.361868,0.05033 -0.522414,0.130603 -0.472988,0.236493 -0.975035,0.519846 -1.436643,0.783622 -0.724154,0.413803 -1.221985,1.015913 -1.82845,1.567244 -0.0344,0.03128 -1.545733,1.259173 -1.697848,1.436639 -0.165202,0.192736 -0.261208,0.435348 -0.391811,0.653021 -0.217673,0.217673 -0.450307,0.421346 -0.653019,0.653018 -0.436674,0.499055 -0.124652,0.249304 -0.391811,0.783622 -0.0702,0.140393 -0.202911,0.24607 -0.261207,0.391811 -0.06042,0.15104 -0.122271,1.667293 -0.130604,1.697847 -0.175112,0.642078 -1.467799,1.06041 -1.959055,1.306036 -0.679674,0.339839 -1.347382,0.832752 -2.089659,1.044829 -0.254472,0.07271 -0.779321,0 -1.044829,0 -0.178351,0 -0.595569,0.06268 -0.783622,0 -0.09235,-0.03078 -0.166768,-0.106992 -0.261208,-0.130603 -0.08447,-0.02111 -0.19964,0.06157 -0.261207,0 -0.137668,-0.137668 -0.144392,-0.36666 -0.261207,-0.522415 -0.147762,-0.197014 -0.362146,-0.335433 -0.522415,-0.522414 -0.329234,-0.384107 -0.66254,-0.865587 -0.914226,-1.306037 -0.09659,-0.169039 -0.134503,-0.374591 -0.261207,-0.522414 -0.261207,-0.304742 -0.593131,-0.542801 -0.914226,-0.783622 -0.03483,-0.02611 -0.09982,0.03078 -0.130603,0 -0.313548,-0.313547 0.888612,-1.541632 1.044829,-1.697847 0.153918,-0.153919 0.401671,-0.210698 0.522415,-0.391811 0.794177,-1.191265 0.101374,-0.405498 0.261207,-1.044832 0.07167,-0.286665 0.279539,-0.29787 0.391811,-0.522414 0.118427,-0.236852 0.07867,-0.523954 0.130604,-0.783622 z"
           id="path14877" />
        <path
           style="fill:#1a1a1a;stroke:#ff6200;stroke-width:2;stroke-linejoin:round;paint-order:markers fill stroke;stop-color:#000000;stroke-opacity:1;stroke-dasharray:none"
           d="m 46.103098,44.797061 c -1.146207,0.824013 -2.015088,1.884485 -3.003884,2.873283 -0.217672,0.217672 -0.50352,0.383921 -0.653018,0.653018 -0.3072,0.552955 0.463436,1.977316 0.783622,2.350865 0.192214,0.22425 1.402675,0.720947 1.175432,1.175433 -0.572984,1.145968 -2.039598,1.90065 -2.873279,2.873282 -0.408572,0.476665 -0.652457,1.096396 -1.044832,1.567243 -0.157657,0.189188 -0.379272,0.322017 -0.522414,0.522415 -0.385996,0.540393 -0.0053,1.34072 -0.391811,1.959054 -0.338339,0.541343 -0.999882,0.869281 -1.43664,1.306037 -0.153919,0.153918 -0.237892,0.368498 -0.391811,0.522417 -0.153919,0.153916 -0.380757,0.226541 -0.522414,0.391811 -0.126704,0.14782 -0.153213,0.36042 -0.261208,0.522414 -0.154628,0.231939 -0.39775,0.403691 -0.522414,0.653018 -0.05841,0.116816 0,0.261207 0,0.391811 0,0.639871 -0.121881,0.449477 -0.653018,0.914225 -1.368997,1.197872 0.72617,-0.210179 -2.089661,1.306037 -0.356502,0.191963 0,0.840105 0,0.653018 0,-0.173231 -1.088644,0.600945 -1.175433,0.653018 -0.269195,0.161517 -0.506621,0.374682 -0.783621,0.522417 -1.51283,0.806842 -0.762117,0.16564 -1.697847,0.914225 -0.258734,-0.01304 -0.06177,0.192374 -0.130604,0.261208 -0.09235,0.09235 -0.274997,0.05841 -0.391811,0 -0.09186,-0.04593 0.05116,-0.811919 0,-0.914226 -0.323892,-0.647782 -0.783558,-0.979561 -1.436642,-0.653021 -1.779288,0.889646 0.355777,-0.09135 -1.175433,0.783625 -0.119528,0.0683 -0.261207,0.08707 -0.391811,0.130604 -0.174138,0.130603 -0.335761,0.279818 -0.522414,0.39181 -0.03733,0.02241 -0.130604,-0.04353 -0.130604,0 0,0.06157 0.130604,0.06903 0.130604,0.130604 0,0.06157 -0.08707,0.08707 -0.130604,0.130604 -0.08707,0.08707 -0.14281,0.227377 -0.261207,0.261207 -0.209298,0.0598 -0.443721,-0.0598 -0.653019,0 -0.220955,0.06313 -0.341845,0.341844 -0.39181,0.391811 -0.06883,0.06883 -0.174139,0.08707 -0.261208,0.130603 -0.130604,0.08707 -0.280819,0.150215 -0.391811,0.261208 -0.06883,0.06883 -0.05669,0.197855 -0.130604,0.261207 -0.238355,0.204303 -0.538482,0.326303 -0.783622,0.522414 -0.192303,0.153842 -0.328022,0.371221 -0.522415,0.522415 -0.200375,0.155847 -0.464334,0.221996 -0.653018,0.391811 -0.252731,0.227459 -0.412591,0.543195 -0.653018,0.783621 -0.153918,0.153919 -0.380755,0.226542 -0.522415,0.391811 -0.316664,0.369443 -0.574424,1.018247 -0.783622,1.436643 -0.03894,0.07788 0.0448,0.186544 0,0.261207 -0.111992,0.186653 -0.303406,0.323501 -0.391811,0.522415 -0.299023,0.672801 0.08985,0.563163 -0.391811,1.044829 -0.428834,0.428834 -1.265727,0.596045 -1.828452,0.783621 -0.170286,0.05676 -0.370201,0.03547 -0.522414,0.130604 -0.208836,0.130522 -0.322018,0.379275 -0.522415,0.522414 -0.112025,0.08002 -0.261207,0.08707 -0.391811,0.130604 -0.130604,0.08707 -0.269241,0.163153 -0.391811,0.261207 -0.144228,0.115382 -0.21887,0.326959 -0.391811,0.391811 -0.24485,0.09182 -1.221774,0.360405 -1.567244,0.391811 -0.442144,0.0402 -1.504585,-0.135887 -1.306037,0.261207 0.160577,0.321154 0.778513,0.493229 1.04483,0.653018 0.642621,0.385575 1.549212,0.700561 2.350866,0.522415 0.306456,-0.0681 0.511052,-0.36666 0.783622,-0.522415 0.918975,-0.525129 1.432803,-1.110771 2.612073,-0.914225 0.135796,0.02262 0.255527,0.111136 0.391811,0.130604 0.172388,0.02463 0.354977,-0.04784 0.522415,0 0.479388,0.136969 0.780732,0.652295 1.306037,0.783621 0.168939,0.04224 0.348276,0 0.522414,0 1.157247,0 1.111721,0.0501 2.48147,-0.261207 0.768199,-0.17459 1.55749,-0.539678 2.350866,-0.653018 0.462754,-0.06611 0.718712,0.08908 1.175433,0.130604 0.536117,0.04874 2.371928,-0.06741 2.612075,-0.130604 0.806143,-0.212143 1.647711,-1.539142 2.612072,-1.828451 0.637866,-0.19136 1.297178,-0.31827 1.959055,-0.391811 0.959556,-0.106616 2.235065,0.319109 3.134489,-0.130603 0.909918,-0.454959 2.088301,-1.515015 2.742676,-1.959055 5.218052,-3.54082 -2.106998,1.615708 3.656904,-2.08966 0.600618,-0.386112 1.120394,-0.886071 1.697848,-1.306036 0.380833,-0.276969 0.830363,-0.463198 1.175432,-0.783622 0.0614,-0.05702 1.094185,-1.535345 1.175435,-1.697847 0.03894,-0.07788 -0.06157,-0.199642 0,-0.261207 0.04182,-0.04183 1.060625,-0.192326 1.175433,-0.261208 0.15838,-0.09503 0.252809,-0.270184 0.391811,-0.391813 0.209785,-0.183563 0.455906,-0.325303 0.653018,-0.522415 0.350986,-0.350985 0.584454,-0.804439 0.914225,-1.175432 1.627884,-1.831369 -0.515659,0.646263 1.044829,-0.914226 0.153919,-0.153918 0.237895,-0.368496 0.391811,-0.522414 0.153919,-0.153919 0.395896,-0.214683 0.522415,-0.391811 0.104333,-0.146063 0.04155,-0.366567 0.130603,-0.522415 0.09164,-0.160366 0.300175,-0.231446 0.391814,-0.39181 0.975101,-1.706431 -1.982007,1.561819 1.044829,-1.697848 0.231362,-0.249163 0.556162,-0.400288 0.783622,-0.65302 0.169814,-0.188683 0.233232,-0.454795 0.39181,-0.653018 0.192305,-0.24038 0.448504,-0.42294 0.653019,-0.653019 0.144613,-0.162689 0.237892,-0.368495 0.39181,-0.522414 0.153919,-0.153919 0.368496,-0.237892 0.522415,-0.391811 1.812965,-1.812965 -0.523597,0.430649 0.522414,-0.914225 0.226793,-0.29159 0.533064,-0.512183 0.783622,-0.783622 0.612003,-0.663001 1.02674,-1.138589 1.69785,-1.697847 0.441608,-0.368009 0.298921,-0.452419 0.783622,-1.044832 0.194931,-0.238252 0.460713,-0.412639 0.653018,-0.653018 0.158578,-0.19822 0.246237,-0.445058 0.391811,-0.653018 0.855739,-1.222486 1.27196,-1.413973 1.044829,-3.003883 -0.08457,-0.591966 -0.787435,-1.471282 -0.522415,-2.089661 0.08575,-0.200073 0.274947,-0.338772 0.391811,-0.522414 0.762402,-1.198063 0.903637,-1.958383 1.959054,-3.265091 0.844984,-1.04617 1.470729,-0.998104 2.481472,-1.69785 0.20248,-0.140176 0.337079,-0.360243 0.522414,-0.522414 0.185336,-0.162169 0.742683,-0.412279 0.522415,-0.522415 -0.435346,-0.217672 -0.964443,0.143158 -1.43664,0.261207 -0.48155,0.120389 -0.980406,0.196282 -1.436643,0.391811 -0.144274,0.06183 -0.248912,0.196255 -0.39181,0.261208 -0.806085,0.366403 -1.403723,0.481271 -1.959055,1.175435 -0.507635,0.634542 0.0024,0.778608 -0.261207,1.306036 -0.193413,0.386826 -2.715286,2.894944 -3.134487,3.134487 -0.155847,0.08906 -0.349824,0.08129 -0.522417,0.130604 -1.674461,0.478419 -2.023301,-1.357855 -3.526298,-1.959055 -0.337394,-0.134956 -1.985296,1.026581 -2.481469,1.175433 -0.586727,0.176019 -1.262221,-0.198292 -1.828453,-0.261207 -0.61594,-0.06844 -1.210411,-0.172916 -1.828451,-0.261208 -0.276889,-0.03956 -0.967745,0.13846 -1.175432,0 -0.102455,-0.0683 -0.146881,-0.215476 -0.261208,-0.261207 -0.496392,-0.198556 -1.312568,0.103177 -1.828453,0 -0.342167,-0.06843 -0.345141,-0.495281 -0.914225,-0.391811 -0.386324,0.07024 -0.792515,0.783622 -1.175433,0.783622"
           id="path14879" />
        <path
           style="fill:#1a1a1a;stroke:#ff6200;stroke-width:2;stroke-linejoin:round;paint-order:markers fill stroke;stop-color:#000000;stroke-opacity:1;stroke-dasharray:none"
           d="m 4.440525,95.079477 c 2.421473,-1.229719 5.007841,-1.82845 7.705617,-1.82845 0.297746,0 1.289105,-0.03386 1.306037,0 0.125993,0.251986 -0.02978,0.804254 0.130603,1.044829 0.054,0.081 0.20721,0.04961 0.261208,0.130603 0.0483,0.07245 -0.02753,0.178607 0,0.261208 0.01947,0.05841 0.09645,0.07938 0.130604,0.130603 0.833436,1.250156 1.079393,1.163913 3.003884,0.522415 1.159148,-0.386382 1.805834,-1.473851 2.873281,-1.959055 0.33862,-0.153918 0.704056,-0.242723 1.044829,-0.39181 0.182713,-0.07994 1.36436,-0.831811 1.828452,-0.522415 0.17013,0.113419 -0.03214,0.872516 -0.130604,1.044829 -0.385091,0.67391 -0.841285,1.100309 -1.306036,1.697847 -0.155848,0.200374 -0.224651,0.461978 -0.391812,0.653018 -0.143338,0.163817 -0.358599,0.248473 -0.522414,0.391811 -0.324338,0.283797 -0.609484,0.609484 -0.914226,0.914225 -0.1066,0.106601 -0.482684,0.692751 -0.261207,0.914226 0.818875,0.818877 2.487575,0.653021 3.526299,0.653021 0.827157,0 1.660701,0.102594 2.48147,0 0.618507,-0.07731 1.215186,-0.280311 1.828451,-0.391811 0.345326,-0.06279 0.703172,-0.05022 1.044829,-0.130607 0.557866,-0.0524 1.033012,-0.388855 1.567246,-0.522414 0.709951,-0.177488 1.808144,0.224443 2.481469,0 1.880793,-0.940395 -0.747938,0.276624 1.044829,-0.261207 0.279722,-0.08392 0.516069,-0.274757 0.783621,-0.391811 1.131496,-0.495028 2.336515,-0.915437 3.395697,-1.567244 0.768977,-0.473218 1.582375,-1.190564 2.220262,-1.82845 0.04353,-0.04353 0.07554,-0.158139 0.130603,-0.130604 0.324059,0.162028 0.427668,2.478863 0.391811,2.87328 -0.04019,0.442145 -0.212177,0.864785 -0.261207,1.306036 -0.0655,0.589542 0.0491,1.127308 0.130604,1.69785 0.103624,0.72536 -0.0909,1.49305 0,2.22026 0.10306,0.82448 0.261207,-0.10127 0.261207,1.04483 0,0.91263 -0.397846,1.6095 -0.522415,2.48147 -0.06972,0.48808 0.172747,1.23719 0,1.69785 -0.3113,0.83014 -1.038301,1.55419 -1.436639,2.35086 -0.201507,0.40302 -0.160158,1.05342 -0.261208,1.30604 -0.04573,0.11433 -0.197855,0.15562 -0.261207,0.26121 -0.217665,0.36277 0.01704,0.48833 -0.130604,0.78362 -0.140395,0.28079 -0.356031,0.51741 -0.522414,0.78362 -0.05159,0.0825 -0.09982,0.16886 -0.130604,0.26121 -0.01376,0.0413 0.03894,0.11113 0,0.1306 -0.07788,0.0389 -0.175829,-0.0171 -0.261207,0 -0.269991,0.054 -0.516506,0.19443 -0.783622,0.26121 -0.584205,0.14605 -1.412644,-0.0213 -1.959057,-0.1306 -0.386897,-0.0774 -0.914373,0 -1.306036,0 -0.116192,0 -0.882729,-0.081 -1.044829,0 -3.388503,1.69425 2.158153,-0.66606 -1.828451,0.78362 -0.147515,0.0536 -0.240884,0.21809 -0.391811,0.26121 -0.167438,0.0478 -0.350027,-0.0246 -0.522414,0 -0.136287,0.0195 -0.256016,0.10797 -0.391814,0.1306 -0.549015,0.0915 -1.144389,-0.0615 -1.697847,0 -0.808937,0.0899 -1.656883,0.23368 -2.481469,0.1306 -0.136605,-0.0171 -0.255526,-0.11113 -0.391811,-0.1306 -0.172388,-0.0246 -0.350646,0.0286 -0.522415,0 -0.09602,-0.016 -0.174138,-0.0871 -0.261207,-0.1306 -0.130604,-0.0435 -0.255206,-0.11353 -0.391811,-0.13061 -0.347576,-0.0434 -1.219083,-0.0387 -1.567244,0 -0.792411,0.0881 -1.567566,0.36576 -2.350866,0.52242 -1.128255,0.22565 -2.263261,0.14796 -3.395696,0.26121 -1.093042,0.1093 -2.194107,0.47452 -3.265092,0.65301 -0.799872,0.13332 -1.835735,0 -2.6120735,0 -0.8479428,0 -1.7761717,0.11942 -2.6120736,0 -0.3453243,-0.0493 -0.5084931,-0.3001 -0.783622,-0.39181 -0.082601,-0.0275 -0.1833305,0.0389 -0.2612075,0 -0.038938,-0.0195 0.030784,-0.0998 0,-0.1306 -0.338278,-0.33828 -0.8370395,-0.57583 -1.1754331,-0.91423 -0.030784,-0.0308 0,-0.0871 0,-0.1306 -0.087069,-0.0871 -0.1510726,-0.20614 -0.2612073,-0.26121 -0.077877,-0.0389 -0.1996402,0.0616 -0.2612072,0 -0.097346,-0.0973 -0.054239,-0.27726 -0.1306039,-0.39181 -0.024148,-0.0362 -0.087069,0 -0.1306036,0 -0.1741382,-0.26121 -0.356031,-0.51741 -0.5224148,-0.78362 -0.072964,-0.11674 -0.033257,-0.29447 -0.1306036,-0.39181 -0.068834,-0.0688 -0.2176727,-0.0435 -0.2612072,-0.1306 -0.1111123,-0.22223 0,-1.72443 0,-1.95906 0,-0.82443 -0.033278,-1.69618 0.2612072,-2.48147 0.068361,-0.1823 0.1996403,-0.33771 0.2612075,-0.52241 0.2204008,-0.66121 0.1484538,-1.41314 0.2612073,-2.08967 0.1251688,-0.75101 0.5443111,-1.4593 0.6530183,-2.22026 0.1376911,-0.96383 0.04022,-2.2302 -0.2612072,-3.134484 -0.1155589,-0.346678 -0.3461639,-0.54905 -0.3918111,-0.914225 -0.110295,-0.882362 0,-1.848805 0,-2.742679"
           id="path14881" />
        <path
           style="fill:#1a1a1a;stroke:#ff6200;stroke-width:2;stroke-linejoin:round;paint-order:markers fill stroke;stop-color:#000000;stroke-opacity:1;stroke-dasharray:none"
           d="m 53.416903,81.366092 c 0.700069,-0.765953 1.637824,-1.346602 2.220264,-2.220264 0.916787,-1.375183 -0.172733,-0.22891 0.914226,-1.43664 0.757944,-0.842159 1.631635,-1.607262 2.481469,-2.350866 0.163816,-0.143338 0.368498,-0.237892 0.522414,-0.39181 0.153919,-0.153919 0.224592,-0.383064 0.391811,-0.522415 0.105762,-0.08813 0.286052,-0.04247 0.391813,-0.130604 0.16722,-0.13935 0.237893,-0.368498 0.391811,-0.522414 0.350986,-0.350988 0.762426,-0.638889 1.175433,-0.914228 1.81207,-1.208045 3.768455,-2.241005 5.615958,-3.395694 1.037881,-0.648677 -0.483907,0.274791 1.044829,-0.914226 0.632243,-0.491746 1.00049,-0.217352 1.43664,-0.391811 0.325882,-0.130354 0.58125,-0.411424 0.914226,-0.522414 0.414242,-0.138081 1.533247,-0.304149 1.959054,0 0.546867,0.390618 1.119537,1.127056 1.436642,1.697847 0.127133,0.228838 0.161013,0.760362 0.391811,0.914225 0.261208,0.174139 0.876372,-0.116816 1.044829,-0.261207 0.16527,-0.14166 0.237892,-0.368496 0.391811,-0.522414 0.153919,-0.153919 0.368496,-0.237892 0.522415,-0.391811 1.034804,-1.034804 1.910897,-2.295829 2.873282,-3.395697 0.257286,-0.294039 1.025448,-1.456018 1.567243,-0.914225 0.890043,0.890042 1.758165,3.154431 1.43664,4.440525 -0.111117,0.444466 -0.530902,0.480359 -0.783621,0.783622 -0.12464,0.149567 -0.153213,0.360421 -0.261208,0.522415 -0.0683,0.102454 -0.215476,0.146881 -0.261207,0.261207 -0.24992,0.624798 0.443323,1.725427 0.130604,2.350868 -0.09735,0.194691 -0.368499,0.237892 -0.522415,0.391811 -0.414821,0.414821 -0.720164,0.915805 -1.175432,1.306036 -0.981761,0.841507 -2.103356,1.577515 -3.13449,2.350865 -0.496065,0.372049 -1.164317,0.293759 -1.697847,0.522415 -0.40009,0.171468 -0.635582,0.766185 -0.914225,1.044829 -0.110993,0.110992 -0.280821,0.150217 -0.391811,0.261207 -0.550604,0.550603 0.06685,0.297198 -0.653021,0.914228 -0.14782,0.126704 -0.374592,0.134501 -0.522415,0.261207 -0.351366,0.301173 -0.565949,0.740087 -0.914225,1.044829 -0.47071,0.411869 -1.055317,0.703546 -1.567243,1.044829 -0.858303,0.572201 -1.654009,1.156645 -2.612073,1.567244 -0.579668,0.248427 -1.215916,0.09232 -1.828453,0.130603 -0.393454,0.02458 -0.783622,0.08707 -1.175433,0.130604 -0.47888,0.04353 -0.956614,0.102367 -1.43664,0.130603 -1.601001,0.09418 -3.247636,-0.186335 -4.832336,0.130604 -0.501444,0.10029 -1.238928,0.456856 -1.697848,0.522415 -0.172389,0.02463 -0.357213,-0.05507 -0.522414,0 -0.116816,0.03894 -0.151074,0.206142 -0.261207,0.261207 -0.233633,0.116816 -0.524434,-0.0324 -0.783622,0 -1.007168,0.125897 -2.432965,0.701527 -3.265093,-0.130604 -0.187249,-0.187248 0.05785,-0.529 0.130603,-0.783622 0.02674,-0.0936 0.09982,-0.168857 0.130604,-0.261207 0.02754,-0.0826 -0.06157,-0.199638 0,-0.261207 0.03078,-0.03078 0.09982,0.03078 0.130604,0 0.143309,-0.143309 0.471199,-0.760574 0.522414,-0.914225 0.0653,-0.195906 -0.0653,-0.457113 0,-0.653019 0.246788,-0.740357 1.306036,-0.256659 1.306036,-1.697847"
           id="path14883" />
        <path
           style="fill:#1a1a1a;stroke:#ff6200;stroke-width:2;stroke-linejoin:round;paint-order:markers fill stroke;stop-color:#000000;stroke-opacity:1;stroke-dasharray:none"
           d="m 72.48504,105.91958 c 4.173252,-0.89268 8.423884,-2.67732 11.493124,-5.74656 0.741368,-0.741366 1.394984,-1.565578 2.089661,-2.350866 0.306623,-0.346618 0.657521,-0.659773 0.914225,-1.044829 0.183909,-0.275866 0.195744,-0.646862 0.391811,-0.914226 0.771485,-1.052025 1.021125,-0.890521 1.828451,-1.697847 0.240427,-0.240427 0.412591,-0.543195 0.653018,-0.783622 0.153919,-0.153918 0.368498,-0.237894 0.522414,-0.39181 0.409147,-0.409147 0.612008,-0.893721 1.175433,-1.175436 0.160549,-0.08027 0.359008,-0.05632 0.522417,-0.130603 0.879465,-0.399757 1.379178,-0.752277 2.350865,-0.914226 0.360252,-0.06004 0.381344,0.0658 0.653018,0.391811 0.171572,0.205888 0.357162,0.506431 0.391811,0.783622 0.0287,0.229571 -0.181959,1.436642 0.261208,1.436642 0.28236,0 0.641937,0.06807 0.914225,0 0.06039,-0.01511 0.271084,-0.190968 0.391811,-0.130603 0.194693,0.09735 0.250153,0.357145 0.391811,0.522414 0.280471,0.327216 0.700405,0.540039 0.914228,0.914226 0.184351,0.322614 0.444264,1.462336 0.261207,1.82845 -0.208801,0.417603 -0.478168,0.949672 -0.783624,1.306037 -0.278077,0.324426 -0.612286,0.514445 -0.783622,0.914228 -0.288057,0.672136 -0.04379,1.395118 -0.130604,2.089658 -0.129722,1.03778 -0.58461,1.69446 -1.306036,2.48147 -0.274876,0.29986 -1.951082,1.56459 -2.350865,1.69785 -0.123902,0.0413 -0.265107,-0.0317 -0.391811,0 -0.621239,0.15531 0.647324,-0.16466 -0.261207,0.65302 -0.394994,0.35549 -0.839518,0.65976 -1.306039,0.91422 -1.937904,1.05704 -4.202502,1.47404 -6.268977,2.22026 -1.270002,0.45862 -2.548554,0.89977 -3.787505,1.43664 -0.714565,0.30965 -1.369547,0.74832 -2.08966,1.04483 -1.744041,0.71814 -3.579556,1.19121 -5.354749,1.82846 -1.309262,0.46999 -2.619769,0.93727 -3.918111,1.43664 -0.528228,0.20316 -1.030338,0.47404 -1.567244,0.65301 -0.380772,0.12693 -0.791813,0.14317 -1.175432,0.26121 -0.586984,0.18061 -1.074794,0.52841 -1.69785,0.65302 -0.582991,0.1166 -1.201822,0.1438 -1.697847,0.39181 -0.330404,0.1652 -0.552858,-0.49517 -0.783622,-0.78362 -0.957593,-1.19699 -1.497862,-1.39481 -0.653018,-2.87328 0.148235,-0.25941 0.109122,-0.33396 0.391811,-0.52242 0.161993,-0.10799 0.348276,-0.17413 0.522414,-0.2612 0.217673,-0.13061 0.445058,-0.24624 0.653018,-0.39181 1.044805,-0.73137 1.917856,-1.77608 2.873283,-2.61208 0.68131,-0.59615 1.080648,-1.45199 1.959054,-1.82845 0.164984,-0.0707 0.355756,-0.0639 0.522414,-0.1306 0.281075,-0.11243 0.432581,-0.33331 0.783622,-0.39181 0.381222,-0.0635 0.794211,0.0635 1.175433,0 0.09602,-0.016 0.165751,-0.11152 0.261207,-0.13061 0.128069,-0.0256 0.281059,0.0692 0.391811,0 0.261046,-0.16315 0.435345,-0.43534 0.653018,-0.65302 z"
           id="path14885" />
        <path
           style="fill:#1a1a1a;stroke:#ff6200;stroke-width:2;stroke-linejoin:round;paint-order:markers fill stroke;stop-color:#000000;stroke-opacity:1;stroke-dasharray:none"
           d="m 101.60966,50.282416 c -0.3886,0.94402 -1.18812,1.664258 -1.56724,2.612073 -0.219916,0.549783 -0.324403,1.139806 -0.522417,1.697849 -0.28117,0.792385 -0.62689,1.560695 -0.914225,2.350866 -0.186933,0.514064 -1.077709,3.181604 -1.175435,3.787507 -0.322178,1.997515 0.378124,3.95917 -0.261208,5.877166 -0.384145,1.15244 -0.474519,1.165749 -1.306036,2.089658 -0.145616,0.161795 -0.237892,0.368496 -0.391811,0.522414 -0.153918,0.153919 -0.368495,0.237893 -0.522414,0.391811 -0.325795,0.325795 -0.865955,1.328743 -1.044829,1.567244 -0.147762,0.197017 -0.360246,0.337079 -0.522415,0.522414 -0.143338,0.163817 -0.226541,0.380757 -0.39181,0.522415 -0.147823,0.126706 -0.370388,0.139586 -0.522415,0.261207 -0.258437,0.206751 -0.345916,0.667128 -0.522417,0.914228 -0.393637,0.55109 -1.00308,0.916371 -1.43664,1.43664 -0.574355,0.689224 -1.031129,1.975495 -0.391811,2.742676 0.371547,0.445857 0.719408,0.961025 1.306036,1.044829 0.05164,0.0074 0.656196,-0.0032 0.653021,0 -0.149672,0.149672 -0.503348,0.242141 -0.653021,0.391811 -0.153916,0.153919 -0.237892,0.368498 -0.39181,0.522417 -0.440299,0.440298 -1.059297,0.706197 -1.567244,1.044829 -0.376973,0.251314 -0.608134,0.608134 -0.914225,0.914225 -0.327234,0.327234 -0.717595,0.586992 -1.044829,0.914226 -0.117983,0.117983 -0.786493,0.647279 -0.653018,0.914225 0.142118,0.284239 1.230794,0.391811 1.436639,0.391811 0.193506,0 2.196222,-0.02751 2.742677,-0.391811 0.130603,-0.08707 0.157845,-0.273682 0.261207,-0.391811 0.202713,-0.231669 0.426098,-0.445005 0.653018,-0.653018 1.090798,-0.999897 2.224828,-1.951929 3.134489,-3.134489 0.118706,-0.154316 0.174139,-0.348277 0.261208,-0.522415 0.174138,-0.130604 0.368496,-0.237892 0.522414,-0.391811 0.309179,-0.309176 0.84985,-1.046681 1.044829,-1.43664 0.03894,-0.07788 -0.03234,-0.180366 0,-0.261207 0.09428,-0.235691 0.212315,-0.473519 0.391811,-0.653018 0.374878,-0.374875 1.067943,-0.70965 1.436643,-1.044829 0.454538,-0.413218 0.661924,-0.977157 1.044829,-1.43664 0.157657,-0.18919 0.462689,-0.283501 0.522419,-0.522417 0.0317,-0.126704 0,-0.261207 0,-0.391811 0.0435,-0.304742 0.0332,-0.622186 0.1306,-0.914225 0.22198,-0.665951 0.77484,-1.180476 1.04483,-1.828451 0.0502,-0.120557 -0.0256,-0.263745 0,-0.391811 0.038,-0.190164 0.33906,-0.521144 0.39181,-0.653018 0.10581,-0.264517 -0.0903,-0.643205 0,-0.914225 0.16422,-0.492665 0.47286,-0.891564 0.52241,-1.436643 0.0512,-0.563623 -0.0861,-1.138478 0,-1.697847 0.11396,-0.740714 0.55316,-1.129443 0.65302,-1.828451 0.15237,-1.066596 -0.15237,-2.198494 0,-3.265093 0.0889,-0.621985 0.20939,-0.153323 0.1306,-0.783622 -0.0435,-0.217672 -0.0871,-0.435345 -0.1306,-0.653018 -0.0435,-0.08707 -0.11151,-0.165751 -0.1306,-0.261207 -0.0895,-0.447358 0,-0.978487 0,-1.43664 0,-0.982247 0.007,-1.91325 -0.13061,-2.873282 -0.0185,-0.129289 0.0359,-0.266232 0,-0.391811 -0.10308,-0.360778 -0.431,-0.679172 -0.52241,-1.044829 -0.15369,-0.614765 -0.44445,-1.202748 -0.65302,-1.828451 z"
           id="path14887" />
        <path
           style="fill:#1a1a1a;stroke:#ff6200;stroke-width:2;stroke-linejoin:round;paint-order:markers fill stroke;stop-color:#000000;stroke-opacity:1;stroke-dasharray:none"
           d="m 90.116537,31.083676 c -0.783762,1.283673 -2.293916,2.067491 -3.526298,2.873279 -0.556188,0.363662 -1.169977,0.641165 -1.697849,1.044832 -0.221433,0.169331 -0.335937,0.445818 -0.522415,0.653018 -0.20593,0.228812 -0.455946,0.416531 -0.653018,0.653018 -0.16251,0.195011 0.180597,0.512207 0.391811,0.653018 1.516761,1.011172 3.266982,0.671947 4.96294,0.914226 0.368221,0.0526 0.691957,0.274187 1.044829,0.391811 0.170286,0.05676 0.355756,0.06394 0.522415,0.130603 0.417909,0.167164 0.03169,1.247304 -0.130604,1.43664 -0.320537,0.373962 -0.720489,0.674158 -1.044829,1.044829 -0.51199,0.585134 -0.978762,1.174755 -1.567243,1.69785 -1.411534,1.254696 0.209301,-0.283255 -0.914226,0.653018 -0.545729,0.454774 -0.391811,0.314301 -0.391811,1.044829 0,0.04353 -0.03483,0.104484 0,0.130603 0.973797,0.730348 3.653195,-0.2248 4.440524,-0.39181 1.72013,-0.364877 1.886873,-0.183444 3.265093,-1.044829 0.261207,-0.217673 0.522414,-0.435346 0.783621,-0.653019 0.04354,-0.08707 0.06177,-0.192373 0.130604,-0.261207 0.610542,-0.610542 1.291685,-1.138325 1.828451,-1.828453 1.490321,-1.916123 -0.781135,0.650036 0.522414,-0.914225 0.118245,-0.141891 0.300175,-0.231445 0.391811,-0.391811 0.157245,-0.275178 0.11947,-0.630749 0.261207,-0.914226 0.431917,-0.863833 0.989259,-1.710822 1.567247,-2.481469 0.146274,-0.195035 0.376139,-0.327382 0.522419,-0.522414 0.11681,-0.155755 0.1532,-0.360423 0.2612,-0.522417 0.13316,-0.199732 0.18034,-0.1026 0.39181,-0.261207 0.27569,-0.206764 1.62875,-1.786311 1.69785,-1.959055 0.0647,-0.161684 -0.12313,-0.39928 0,-0.522414 0.14395,-0.14395 0.49956,-0.199179 0.39181,-0.522415 -0.22591,-0.677722 -0.7333,-0.758462 -1.30604,-1.044829 -0.14039,-0.0702 -0.24753,-0.199377 -0.39181,-0.261207 -0.8546,-0.366257 -2.430988,-0.182184 -3.265089,0.130604 -0.146971,0.05511 -0.242898,0.211568 -0.391811,0.261207 -0.123902,0.0413 -0.272463,-0.05304 -0.391811,0 -0.730962,0.324871 -1.301983,1.080987 -2.089658,1.306036 -0.251158,0.07176 -0.522414,0 -0.783622,0 -0.776962,0 -1.731904,0.05679 -2.481471,-0.130604 -0.188878,-0.04722 -0.331502,-0.223025 -0.522415,-0.261207 -0.319029,-0.06381 -1.032044,-0.130603 -1.306036,-0.130603 z"
           id="path14889" />
        <path
           style="fill:#1a1a1a;stroke:#ff6200;stroke-width:2;stroke-linejoin:round;paint-order:markers fill stroke;stop-color:#000000;stroke-opacity:1;stroke-dasharray:none"
           d="m -0.39181103,39.44231 c 0.61312567,-0.153064 1.11006304,-0.576167 1.69784783,-0.783622 0.3784869,-0.133582 0.7931597,-0.138879 1.1754331,-0.261207 0.7085264,-0.226729 1.3791687,-0.563126 2.0896588,-0.783622 0.5547238,-0.172156 1.1385356,-0.235204 1.6978479,-0.39181 0.5302787,-0.148479 1.0392595,-0.365975 1.567244,-0.522415 2.3128834,-0.6853 4.5325954,-1.27858 6.6607874,-2.481471 0.824859,-0.466223 0.577135,-1.095317 0.914226,-1.567244 0.983806,-1.377328 0.10918,0.766522 0.914226,-1.044829 0.22177,-0.498983 0.0645,-0.869622 0.391811,-1.306036 0.216506,-0.288676 0.968119,-0.81285 1.306036,-0.914226 0.726559,-0.217969 3.767069,-0.25305 4.440525,-0.130603 0.353205,0.06422 0.690719,0.202187 1.04483,0.261207 0.911295,0.151882 1.712089,-0.261207 2.612074,-0.261207 0.06157,0 0.13931,0.06965 0.130603,0.130603 -0.160314,1.122199 -1.055962,1.436013 -1.828451,2.089658 -0.281998,0.238612 -0.493154,0.555398 -0.783622,0.783622 -0.835062,0.656119 -1.415236,0.77139 -2.350866,1.306036 -0.40249,0.0411 -0.492061,0.478084 -0.783623,0.653019 -0.337475,0.202485 -0.863209,0.288247 -1.175433,0.522414 -0.07788,0.05841 -0.06177,0.192373 -0.130603,0.26121 -0.110992,0.11099 -0.28082,0.150214 -0.391811,0.261207 -0.06883,0.06883 -0.08707,0.174138 -0.130604,0.261207 -0.217673,0.217673 -0.421348,0.450305 -0.653019,0.653019 -0.516644,0.452061 -0.81253,0.368128 -1.43664,0.914225 -0.507758,0.444288 -0.918483,1.004842 -1.43664,1.43664 -0.943843,0.786535 -2.044488,1.452745 -3.003885,2.220261 -0.144228,0.115383 -0.235184,0.293921 -0.391811,0.391811 -0.455564,0.284729 -1.11168,0.498896 -1.567244,0.783625 -0.582252,0.363905 -1.3818223,1.070091 -2.0896589,1.306036 -0.7696081,0.256535 -1.6912987,0.531453 -2.4814699,0.653018 -0.2581701,0.03972 -0.527028,-0.04888 -0.783622,0 -0.798929,0.152178 -1.5486393,0.519314 -2.3508663,0.653018 -0.1288267,0.02148 -0.2667154,-0.03753 -0.3918111,0 -0.449107,0.134731 -0.8435348,0.445331 -1.30603674,0.522415 -0.73699399,0.122832 -1.43664044,-0.435666 -1.43664044,-1.175433 0,-0.217673 -0.0884053,-0.454107 0,-0.653018 0.10001916,-0.225044 0.37927396,-0.322019 0.5224147,-0.522415 C -0.08063193,42.637442 0.12894148,41.922117 0,41.793178 c -0.06883418,-0.06883 -0.17413824,-0.08707 -0.26120736,-0.130604 -0.2176728,-0.174138 -0.47456237,-0.308268 -0.65301837,-0.522417 -0.0557403,-0.06689 0.0522414,-0.19155 0,-0.261207 -0.0941797,-0.125571 -0.26623817,-0.167026 -0.39181107,-0.261207 -0.181082,-0.135811 -0.7928926,-0.895684 -0.6530184,-1.175433 0.1363719,-0.272743 0.4283634,-0.257016 0.6530184,-0.391811 0.1055868,-0.06335 0.1587534,-0.192905 0.2612074,-0.261207 0.022518,-0.015 0.39181102,0.01201 0.39181102,0 0,-0.04354 -0.0870691,0 -0.13060368,0"
           id="path14891" />
      </g>
    </g>
    <rect
       style="opacity:1;fill:none;fill-opacity:1;stroke-width:1;stroke-linecap:butt;stroke-linejoin:miter;stroke-miterlimit:4;stroke-dasharray:none;stroke-dashoffset:0;stroke-opacity:1;stop-color:#000000;stop-opacity:1;stroke:#331f14"
       id="rect14897"
       width="96.429878"
       height="80.496231"
       x="4.7017326"
       y="31.71199"
       inkscape:label="rect14897" />
    <path
       inkscape:original-d="M 0,0"
       inkscape:path-effect="#path-effect15534"
       d="M 0,0"
       id="path15536"
       class="UnoptimicedTransforms" />
    <path
       style="fill:#ff6200;fill-opacity:1;stroke:none;stroke-width:1.12282;stroke-linejoin:round;stroke-dasharray:none;stroke-opacity:1;paint-order:markers fill stroke;stop-color:#000000"
       d="m 28.998135,77.360571 c 0.519641,0.133464 0.98617,0.07796 1.47761,0.232859 0.119459,0.03765 0.249947,-0.03766 0.369403,0 0.133559,0.04209 0.234408,0.198819 0.369404,0.232858 0.09056,0.02282 0.189441,-0.03681 0.277053,0 0.245851,0.103315 0.473035,0.38195 0.738806,0.465715 0.649719,0.204779 1.715408,0.349288 2.401118,0.349288 0.377508,0 2.371378,0.0138 2.49347,0.116428 0.128069,0.10764 0.260567,0.212075 0.369404,0.349287 0.04867,0.06136 0.03508,0.18472 0.09235,0.232857 0.05123,0.04306 0.126293,-0.02454 0.184703,0 0.190619,0.0801 0.282273,0.32995 0.461753,0.465715 0.08347,0.06313 0.196057,0.04835 0.277053,0.116428 0.443434,0.372701 0.134314,0.476293 0.738804,0.815004 0.112522,0.06305 0.247508,-0.02195 0.369404,0 0.411506,0.07412 0.997582,0.442672 1.29291,0.815 0.487571,0.614693 -0.07824,-0.0092 0.09235,0.349286 0.07919,0.166395 0.168217,0.328504 0.277053,0.465718 0.02177,0.02746 0.07858,-0.03472 0.09235,0 0.06883,0.173561 -0.05716,0.401973 0,0.582143 0.03234,0.101922 0.157168,0.12872 0.184703,0.232857 0.04746,0.179504 -0.07553,0.624559 0,0.815002 0.07072,0.178318 0.164571,0.09105 0.277051,0.232856 0.02177,0.02746 -0.01376,0.08172 0,0.116428 0.192172,0.484548 -0.0064,-0.124458 0.184703,0.116429 0.04867,0.06136 0.04368,0.171493 0.09235,0.232856 0.27228,0.343271 1.654067,1.217304 2.124067,1.513575 0.34407,0.216888 0.952434,-0.189365 1.10821,-0.582144 0.01376,-0.03471 -0.02754,-0.09906 0,-0.116428 0.05507,-0.03471 0.126294,0.02454 0.1847,0 0.09566,-0.0402 0.185434,-0.175106 0.277053,-0.23286 0.140648,-0.08865 0.943626,-0.222738 1.015858,-0.232855 0.290208,-0.04066 0.85858,-0.0465 1.10821,-0.116428 0.525293,-0.147171 0.190134,-0.277379 0.646453,-0.349288 0.152731,-0.02408 0.30878,0.02142 0.461756,0 0.123135,-0.03882 0.246267,-0.07762 0.369401,-0.116427 0.03078,-0.03881 0.05105,-0.09906 0.09235,-0.116428 0.176575,-0.07421 0.483685,-0.01381 0.646454,-0.116428 0.07788,-0.0491 0.11004,-0.17638 0.184703,-0.232857 0.166946,-0.126285 0.375152,-0.136168 0.554103,-0.232858 0.194691,-0.105196 0.451766,-0.360522 0.646454,-0.465714 0.493533,-0.266659 1.055627,-0.482427 1.569964,-0.698575 0.05841,-0.02454 0.129635,0.03473 0.184703,0 0.209044,-0.131776 0.422433,-0.488001 0.646453,-0.582143 0.116817,-0.0491 0.252587,0.0491 0.369404,0 0.187351,-0.07873 0.42986,-0.294673 0.646456,-0.349288 0.559231,-0.141005 1.205177,0.05346 1.754664,0.116427 0.183943,0.02108 0.370829,-0.02889 0.554103,0 0.30811,0.04855 0.616564,0.284791 0.923507,0.349285 0.669409,0.140658 1.370915,0.02458 2.031717,0.23286 0.144865,0.04567 0.316889,-0.04567 0.461754,0 0.243308,0.07667 0.358481,0.317739 0.554106,0.465715 0.01675,0.01267 0.420222,0.154318 0.461753,0.232857 0.03415,0.06459 -0.02754,0.163434 0,0.232858 0.01376,0.03471 0.07058,-0.02746 0.09235,0 0.171545,0.216269 0.289814,0.598236 0.461753,0.815001 0.05674,0.07153 0.215207,0.07692 0.277053,0.232857 0.02753,0.06943 -0.05123,0.189803 0,0.232859 0.396545,0.333289 1.546238,0.116428 2.031714,0.116428 0.162605,0 1.380578,0.08156 1.477614,0 0.29333,-0.246539 0.419301,-0.600216 0.646454,-0.814999 0.36644,-0.346487 0.01286,0.241717 0.461756,-0.465716 0.043,-0.06777 0.04368,-0.171497 0.09235,-0.23286 0.398327,-0.502181 1.10567,-0.541202 1.569963,-0.931428 0.163727,0.03586 0.05727,-0.188636 0.09235,-0.23286 0.134771,-0.169909 0.375759,-0.0081 0.461754,-0.116428 0.04867,-0.06136 0.04368,-0.171492 0.09235,-0.232859 0.113104,-0.142593 0.271116,-0.163414 0.369403,-0.349284 0.054,-0.10212 0.03835,-0.247173 0.09235,-0.349287 0.10934,-0.206768 0.230027,-0.406425 0.369404,-0.582145 0.06883,-0.08677 0.233518,-0.0067 0.277053,-0.116427 0.107233,-0.270386 -0.117594,-0.27516 0.369403,-0.582143 0.894932,-0.564132 0.102428,-0.0724 0.738804,-0.23286 0.127238,-0.03209 0.380161,-0.3052 0.461754,-0.349286 0.205988,-0.111297 0.438377,-0.127925 0.646456,-0.232858 0.351835,-0.177428 0.0371,-0.04678 0.369403,-0.465717 0.205177,-0.258667 0.667023,-0.304036 0.923507,-0.465715 0.12369,-0.07796 0.127963,-0.277755 0.184701,-0.349285 0.02177,-0.02744 0.06482,0.01735 0.09235,0 0.384341,-0.242275 -0.09873,0.0081 0.09235,-0.232859 0.02178,-0.02744 0.07858,0.03473 0.09235,0 0.0793,-0.199954 0.05845,-0.772261 0.184703,-0.931428 0.04867,-0.06136 0.136027,-0.05507 0.1847,-0.116429 0.01701,-0.02145 0.07533,-0.327831 0.09235,-0.349283 0.264658,-0.333659 2.052744,-0.23286 2.493471,-0.23286 0.326353,0 0.377042,0.324781 0.461753,0.698575 0.168228,0.74231 0.27668,1.437522 0.09235,2.212148 -0.08134,0.341825 -0.300609,0.700951 -0.3694,1.04786 -0.01492,0.0753 0.04353,0.177972 0,0.232856 -0.04353,0.05489 -0.126294,-0.02454 -0.184703,0 -7.94e-4,3.3e-4 -0.414036,0.638413 -0.461754,0.698572 -0.175482,0.221238 -0.286268,0.477337 -0.461753,0.698575 -0.108837,0.137213 -0.260567,0.212071 -0.369404,0.349284 -0.200683,0.253011 -0.369403,0.543337 -0.554103,0.815004 -0.172337,0.25348 -0.274505,0.578931 -0.461754,0.815003 -0.123134,0.116427 -0.246269,0.232857 -0.369403,0.349285 -0.03078,0.07762 -0.04368,0.171492 -0.09235,0.23286 -0.04868,0.06136 -0.13603,0.05507 -0.184703,0.116428 -0.172942,0.218032 0.554104,0.684462 0.554104,0.814999 0,0.454824 -0.05507,0.047 0.184702,0.349288 0.02178,0.02746 -0.06482,-0.01734 -0.09235,0 -0.271772,0.171313 0.143354,0.116428 -0.277053,0.116428 -0.06157,0 -0.1847,-0.07762 -0.1847,0 0,0.05488 0.07858,0.06436 0.09235,0.116427 0.01947,0.07364 -0.01947,0.159226 0,0.23286 0.120536,0.455896 0.497004,0.247671 0.738807,0.349288 0.130603,0.05489 -0.07268,0.364832 -0.184703,0.465713 -0.146064,0.131535 -0.309539,0.229351 -0.461754,0.349288 -0.09412,0.07416 -0.175035,0.177738 -0.277053,0.232858 -0.416496,0.225039 -1.509358,0.271841 -1.939364,0.349286 -0.186724,0.03362 -0.669904,0.13121 -0.831157,0.232859 -0.03894,0.02454 -0.05105,0.09906 -0.09235,0.116428 -0.210349,0.08839 -0.523497,-0.04525 -0.738807,0 -0.09602,0.02019 -0.18103,0.09626 -0.277053,0.116428 -0.161613,0.03395 -0.502798,-0.04528 -0.646454,0 -0.133559,0.04209 -0.2405,0.171917 -0.369403,0.23286 -0.69637,0.32922 -1.434594,0.583735 -2.124067,0.931427 -0.131569,0.06636 -0.20352,0.19103 -0.369403,0.23286 -1.38934,0.350315 -3.119289,0.08861 -4.525187,0 -0.88976,-0.05609 -1.720567,-0.32936 -2.585821,-0.465715 -0.49862,-0.07858 -0.975296,-0.386557 -1.477613,-0.465717 -0.636029,-0.100228 -1.399064,-0.03988 -2.031714,0 -0.955083,0.06021 -1.911046,0.116731 -2.862874,0.232857 -0.372758,0.04548 -0.736179,0.178742 -1.10821,0.23286 -0.42922,0.06243 -0.867233,0.02309 -1.29291,0.116428 -0.536006,0.117525 -1.04825,0.523175 -1.569964,0.69857 -0.476297,0.160131 -1.280422,0.327744 -1.754663,0.465718 -0.28456,0.08279 -0.542513,0.293301 -0.831157,0.349287 -0.363789,0.07056 -2.683915,0.0684 -2.955224,0 -0.229888,-0.05797 -0.42613,-0.248281 -0.646454,-0.349287 -0.119282,-0.05469 -0.252743,-0.05339 -0.369403,-0.116428 -0.424251,-0.229228 -0.753174,-0.816155 -1.10821,-1.164288 -0.175223,-0.171818 -0.397137,-0.267825 -0.554104,-0.465717 -0.09735,-0.122719 -0.09511,-0.333937 -0.184703,-0.465715 -0.100168,-0.147334 -0.260567,-0.212075 -0.369403,-0.349288 -0.108836,-0.137212 -0.158808,-0.341488 -0.27705,-0.465713 -0.07478,-0.07856 -0.202269,-0.03786 -0.277054,-0.116428 -0.17096,-0.179607 -0.75702,-1.117463 -0.923506,-1.280715 -0.108368,-0.106266 -1.929257,-1.219316 -2.124067,-1.280718 -0.08959,-0.02825 -0.186495,0.02285 -0.277054,0 -0.219755,-0.05541 -0.426698,-0.177445 -0.646453,-0.232858 -0.333415,-0.08406 -0.678085,-0.0673 -1.01586,-0.116427 -0.666978,-0.09703 -3.847947,-0.533633 -4.155784,-0.582144 -1.127226,-0.17764 -1.666327,-0.195736 -2.585821,-0.582144 -0.0292,-0.01223 0.07058,0.02746 0.09235,0 0.02178,-0.02744 0.0051,-0.07815 0,-0.116427 -0.0408,-0.308636 -0.04368,-0.624615 -0.09235,-0.931429 -0.06151,-0.3877 -0.299754,-0.450434 -0.369403,-0.582143 -0.191077,-0.36135 0.18315,-1.740561 0.277053,-2.09572 0.04549,-0.172064 -0.03475,-0.406888 0,-0.582143 0.113252,-0.57112 0.240954,-0.354589 0.369404,-1.164292 z"
       id="path17255" />
    <g
       id="g17115"
       transform="matrix(1.68587,0,0,1.68587,-34.367214,-39.661114)"
       clip-path="url(#clipPath17247)">
      <path
         id="path15212"
         style="fill:#c88a00;fill-opacity:1;stroke:none;stroke-width:1;stroke-linejoin:round;stroke-dasharray:none;stroke-opacity:1;paint-order:markers fill stroke;stop-color:#000000"
         class="UnoptimicedTransforms"
         d="m 52.176143,58.640865 a 13.778687,4.8976378 0 0 0 -13.778487,4.897892 13.778687,4.8976378 0 0 0 3.950147,3.430799 13.778687,4.8976378 0 0 1 9.782348,-1.449524 13.778687,4.8976378 0 0 1 9.829891,1.46606 13.778687,4.8976378 0 0 0 3.994589,-3.447335 13.778687,4.8976378 0 0 0 -13.778488,-4.897892 z m 9.783899,8.345227 a 13.778687,4.8976378 0 0 1 -9.783899,1.450041 13.778687,4.8976378 0 0 1 -9.82834,-1.466577 13.778687,4.8976378 0 0 0 -3.996656,3.448368 13.778687,4.8976378 0 0 0 13.779004,4.897375 13.778687,4.8976378 0 0 0 13.778488,-4.897375 13.778687,4.8976378 0 0 0 -3.948597,-3.431832 z" />
      <ellipse
         style="fill:#c88a00;fill-opacity:1;stroke:none;stroke-width:1.03107;stroke-linejoin:round;stroke-dasharray:none;stroke-opacity:1;paint-order:markers fill stroke;stop-color:#000000"
         id="path16975"
         cx="40.030025"
         cy="66.98336"
         rx="2.5794227"
         ry="5.3384252" />
      <ellipse
         style="fill:#c88a00;fill-opacity:1;stroke:none;stroke-width:1.03107;stroke-linejoin:round;stroke-dasharray:none;stroke-opacity:1;paint-order:markers fill stroke;stop-color:#000000"
         id="ellipse17108"
         cx="64.224358"
         cy="66.820099"
         rx="2.5794227"
         ry="5.3384252" />
      <path
         id="path15606"
         style="fill:#724e00;fill-opacity:1;stroke:none;stroke-width:1;stroke-linejoin:round;stroke-dasharray:none;stroke-opacity:1;paint-order:markers fill stroke;stop-color:#000000"
         class="UnoptimicedTransforms"
         d="m 52.176143,58.640865 a 13.778687,4.8976378 0 0 0 -13.778487,4.897892 13.778687,4.8976378 0 0 0 3.950147,3.430799 13.778687,4.8976378 0 0 1 0.03927,-0.01499 13.778687,4.8976378 0 0 1 0.657841,-0.219108 13.778687,4.8976378 0 0 1 0.697115,-0.203088 13.778687,4.8976378 0 0 1 0.732772,-0.186552 13.778687,4.8976378 0 0 1 0.765844,-0.169499 13.778687,4.8976378 0 0 1 0.795301,-0.150895 13.778687,4.8976378 0 0 1 0.821138,-0.132291 13.778687,4.8976378 0 0 1 0.843876,-0.113172 13.778687,4.8976378 0 0 1 0.862997,-0.09302 13.778687,4.8976378 0 0 1 0.877982,-0.07286 13.778687,4.8976378 0 0 1 0.889352,-0.05219 13.778687,4.8976378 0 0 1 0.897619,-0.03101 13.778687,4.8976378 0 0 1 0.901237,-0.01085 13.778687,4.8976378 0 0 1 0.304891,0.0015 13.778687,4.8976378 0 0 1 0.304375,0.0036 13.778687,4.8976378 0 0 1 0.304374,0.0057 13.778687,4.8976378 0 0 1 0.303857,0.0083 13.778687,4.8976378 0 0 1 0.303341,0.01085 13.778687,4.8976378 0 0 1 0.302824,0.01344 13.778687,4.8976378 0 0 1 0.301273,0.0155 13.778687,4.8976378 0 0 1 0.300757,0.01757 13.778687,4.8976378 0 0 1 0.299723,0.02067 13.778687,4.8976378 0 0 1 0.298173,0.02222 13.778687,4.8976378 0 0 1 0.296623,0.02532 13.778687,4.8976378 0 0 1 0.295073,0.02687 13.778687,4.8976378 0 0 1 0.293005,0.02997 13.778687,4.8976378 0 0 1 0.291455,0.03152 13.778687,4.8976378 0 0 1 0.289388,0.03411 13.778687,4.8976378 0 0 1 0.286804,0.03669 13.778687,4.8976378 0 0 1 0.284737,0.03876 13.778687,4.8976378 0 0 1 0.282154,0.04082 13.778687,4.8976378 0 0 1 0.280086,0.04289 13.778687,4.8976378 0 0 1 0.276469,0.04548 13.778687,4.8976378 0 0 1 0.274402,0.04754 13.778687,4.8976378 0 0 1 0.270784,0.04961 13.778687,4.8976378 0 0 1 0.267684,0.05168 13.778687,4.8976378 0 0 1 0.264583,0.05374 13.778687,4.8976378 0 0 1 0.261483,0.05581 13.778687,4.8976378 0 0 1 0.257349,0.05839 13.778687,4.8976378 0 0 1 0.253731,0.05994 13.778687,4.8976378 0 0 1 0.250631,0.06149 13.778687,4.8976378 0 0 1 0.24598,0.06408 13.778687,4.8976378 0 0 1 0.242362,0.06563 13.778687,4.8976378 0 0 1 0.237712,0.0677 13.778687,4.8976378 0 0 1 0.234094,0.06976 13.778687,4.8976378 0 0 1 0.228927,0.07131 13.778687,4.8976378 0 0 1 0.225309,0.07338 13.778687,4.8976378 0 0 1 0.220141,0.07493 13.778687,4.8976378 0 0 1 0.195337,0.06925 13.778687,4.8976378 0 0 0 3.994589,-3.447335 13.778687,4.8976378 0 0 0 -13.778488,-4.897892 z"
         transform="matrix(0.96919,0,0,1.0173182,1.5585669,-1.0224953)" />
    </g>
  </g>
</svg>
