<?xml version="1.0" encoding="UTF-8" standalone="no"?>
<!-- Created with Inkscape (http://www.inkscape.org/) -->

<svg
   width="400.00006"
   height="600"
   viewBox="0 0 105.83335 158.75"
   version="1.1"
   id="svg5"
   inkscape:export-filename="CardTemplate.svg"
   inkscape:export-xdpi="26.281288"
   inkscape:export-ydpi="26.281288"
   sodipodi:docname="FalseProphetCard.svg"
   inkscape:version="1.2.2 (732a01da63, 2022-12-09)"
   xml:space="preserve"
   xmlns:inkscape="http://www.inkscape.org/namespaces/inkscape"
   xmlns:sodipodi="http://sodipodi.sourceforge.net/DTD/sodipodi-0.dtd"
   xmlns="http://www.w3.org/2000/svg"
   xmlns:svg="http://www.w3.org/2000/svg"><sodipodi:namedview
     id="namedview7"
     pagecolor="#505050"
     bordercolor="#ffffff"
     borderopacity="1"
     inkscape:showpageshadow="0"
     inkscape:pageopacity="0"
     inkscape:pagecheckerboard="1"
     inkscape:deskcolor="#505050"
     inkscape:document-units="mm"
     showgrid="false"
     showguides="true"
     inkscape:zoom="1.34"
     inkscape:cx="214.1791"
     inkscape:cy="305.59701"
     inkscape:window-width="1920"
     inkscape:window-height="991"
     inkscape:window-x="-9"
     inkscape:window-y="-9"
     inkscape:window-maximized="1"
     inkscape:current-layer="layer1" /><defs
     id="defs2"><inkscape:path-effect
       effect="spiro"
       id="path-effect3272"
       is_visible="true"
       lpeversion="1" /><linearGradient
       id="linearGradient3910"
       inkscape:swatch="solid"><stop
         style="stop-color:#000000;stop-opacity:1;"
         offset="0"
         id="stop3908" /></linearGradient><linearGradient
       id="linearGradient3902"
       inkscape:swatch="solid"><stop
         style="stop-color:#000000;stop-opacity:1;"
         offset="0"
         id="stop3900" /></linearGradient><linearGradient
       id="linearGradient1908"
       inkscape:swatch="gradient"><stop
         style="stop-color:#412a2a;stop-opacity:1;"
         offset="0.83033931"
         id="stop1904" /><stop
         style="stop-color:#412a2a;stop-opacity:0;"
         offset="0.84431136"
         id="stop1906" /></linearGradient><rect
       x="20.732048"
       y="466.96472"
       width="356.39377"
       height="115.50713"
       id="rect857" /><rect
       x="13.821366"
       y="17.770327"
       width="368.24066"
       height="96.749557"
       id="rect721" /></defs><g
     inkscape:label="Layer 1"
     inkscape:groupmode="layer"
     id="layer1"
     transform="translate(-0.33529438,-0.33529437)"><rect
       style="font-variation-settings:normal;opacity:1;fill:#c87137;fill-opacity:1;stroke:#331f14;stroke-width:2.64597;stroke-linejoin:round;stroke-dasharray:none;stroke-dashoffset:0;stroke-opacity:1;paint-order:markers fill stroke;stop-color:#000000;stop-opacity:1"
       id="rect386"
       width="103.18738"
       height="156.10403"
       x="1.6582794"
       y="1.6582794" /><rect
       style="opacity:1;vector-effect:none;fill:#642d2d;fill-opacity:1;stroke-width:0.289246;stroke-linecap:butt;stroke-linejoin:miter;stroke-miterlimit:4;stroke-dasharray:none;stroke-dashoffset:0;stroke-opacity:1;-inkscape-stroke:none;stop-color:#000000;stop-opacity:1"
       id="rect711"
       width="96.429878"
       height="80.496231"
       x="4.7017326"
       y="31.71199" /><text
       xml:space="preserve"
       transform="matrix(0.26458333,0,0,0.26458333,0,9.5250005)"
       id="text719"
       style="font-style:normal;font-variant:normal;font-weight:normal;font-stretch:normal;font-size:48px;line-height:0;font-family:Broadway;-inkscape-font-specification:Broadway;text-align:center;letter-spacing:0px;word-spacing:0px;writing-mode:lr-tb;baseline-shift:baseline;white-space:pre;shape-inside:url(#rect721);display:inline;opacity:1;vector-effect:none;fill:#000000;fill-opacity:1;stroke-width:0.999999;stroke-linecap:butt;stroke-linejoin:miter;stroke-miterlimit:4;stroke-dasharray:none;stroke-dashoffset:0;stroke-opacity:1;-inkscape-stroke:none;stop-color:#000000;stop-opacity:1"
       x="80.755417"
       y="0"><tspan
         x="20.708008"
         y="40.19418"
         id="tspan3429">False Prophet</tspan></text><text
       xml:space="preserve"
       style="font-style:normal;font-variant:normal;font-weight:normal;font-stretch:normal;font-size:7.05556px;line-height:0px;font-family:Broadway;-inkscape-font-specification:Broadway;text-align:start;writing-mode:lr-tb;text-anchor:start;opacity:1;vector-effect:none;fill:#000000;fill-opacity:1;stroke-width:0.264583;stroke-linecap:butt;stroke-linejoin:miter;stroke-miterlimit:4;stroke-dasharray:none;stroke-dashoffset:0;stroke-opacity:1;-inkscape-stroke:none;stop-color:#000000;stop-opacity:1"
       x="4.3020148"
       y="121.22047"
       id="text733"><tspan
         sodipodi:role="line"
         id="tspan731"
         style="font-size:7.05556px;stroke-width:0.264583"
         x="4.3020148"
         y="121.22047">Description:</tspan></text><text
       xml:space="preserve"
       transform="matrix(0.27431353,0,0,0.27431353,-0.8676689,-4.702566)"
       id="text855"
       style="font-style:normal;font-variant:normal;font-weight:normal;font-stretch:normal;font-size:23.1487px;line-height:23.1487px;font-family:Broadway;-inkscape-font-specification:Broadway;text-align:start;writing-mode:lr-tb;white-space:pre;shape-inside:url(#rect857);display:inline;opacity:1;vector-effect:none;fill:#000000;fill-opacity:1;stroke-width:0.999999;stroke-linecap:butt;stroke-linejoin:miter;stroke-miterlimit:4;stroke-dasharray:none;stroke-dashoffset:0;stroke-opacity:1;-inkscape-stroke:none;stop-color:#000000;stop-opacity:1"><tspan
         x="20.732422"
         y="489.35381"
         id="tspan3433"><tspan
           style="font-family:'Bookman Old Style';-inkscape-font-specification:'Bookman Old Style'"
           id="tspan3431">Demote enemy bishop to pawn, </tspan></tspan><tspan
         x="20.732422"
         y="517.27782"
         id="tspan3437"><tspan
           style="font-family:'Bookman Old Style';-inkscape-font-specification:'Bookman Old Style'"
           id="tspan3435">and discard this card.</tspan></tspan></text><rect
       style="opacity:1;fill:none;fill-opacity:1;stroke-width:1;stroke-linecap:butt;stroke-linejoin:miter;stroke-miterlimit:4;stroke-dasharray:none;stroke-dashoffset:0;stroke-opacity:1;stop-color:#000000;stop-opacity:1;stroke:#331f14"
       id="rect33301"
       width="96.429878"
       height="80.496231"
       x="4.7017326"
       y="31.71199" /><g
       id="g3289"
       transform="matrix(0.68576377,-0.09214839,0.09214839,0.68576377,9.1548191,26.490632)"><path
         id="path251"
         style="fill:#616161;fill-opacity:1;stroke:none;stroke-width:0.264583;stroke-opacity:1"
         d="m 46.834782,48.611934 -11.155909,10.366292 3.060279,2.566769 c 0,0 -1.479501,0.802285 -1.95802,1.461409 -0.402009,0.553738 -0.657841,1.944585 -0.657841,1.944585 0,0 -0.197426,3.69233 0.28112,5.507157 0.51109,1.938254 2.631364,5.697843 2.631364,5.697843 0,0 2.680985,-0.274981 3.641638,0.11989 1.825548,0.858497 -0.262888,9.966001 0.109554,12.220959 l 3.751709,7.305497 c 1.076728,5.243205 1.828827,11.141055 3.489192,16.136995 0.883031,0.80131 1.333859,1.10522 2.472201,1.10433 0.09414,-7e-5 0.205895,-5.05291 0.3514,-5.04775 0.119711,0.004 0.273555,5.06728 0.362768,5.06067 1.093495,-0.081 2.333773,-0.43106 2.984831,-1.11725 1.660365,-4.99594 2.412465,-10.89379 3.489193,-16.136995 l 3.751709,-7.305497 c 0.37244,-2.254958 -1.186828,-11.362462 0.63872,-12.220959 0.960653,-0.394871 3.642155,-0.11989 3.642155,-0.11989 0,0 2.169365,-3.710496 2.680457,-5.64875 0.478544,-1.814828 0.232027,-5.55625 0.232027,-5.55625 0,0 -0.255832,-1.390847 -0.657841,-1.944585 -0.478519,-0.659124 -1.958537,-1.461409 -1.958537,-1.461409 L 71.07723,58.978226 59.392155,48.611934 c 0,0 -2.114134,2.128541 -3.479891,2.623613 -1.296488,0.153287 -4.41349,0.392208 -5.597591,0 -1.365759,-0.495072 -3.479891,-2.623613 -3.479891,-2.623613 z m 9.396325,50.386589 c 0.589424,4.43e-4 -0.02844,4.489487 -0.28267,6.479187 -0.1821,1.42521 -0.918468,5.63077 -0.98702,4.19561 -0.120766,-2.5283 -0.561133,-4.63505 -0.197404,-6.91069 0.207013,-1.29513 0.524887,-3.0311 1.332736,-3.702096 0.05049,-0.04194 0.09506,-0.06204 0.134358,-0.06201 z m -6.519498,0.0987 c 0.03929,-3e-5 0.08387,0.02007 0.134358,0.06201 0.807849,0.670996 1.125723,2.406957 1.332736,3.702107 0.363729,2.27562 -0.07664,4.38237 -0.197404,6.91069 -0.06855,1.43514 -0.80492,-2.77042 -0.98702,-4.19561 -0.254226,-1.98971 -0.872094,-6.478755 -0.28267,-6.479197 z" /><path
         id="path1755"
         style="fill:#a7a7a7;fill-opacity:1;stroke:none;stroke-width:0.264583;stroke-opacity:1"
         d="m 46.834782,48.611934 -11.155909,10.366292 3.060279,2.566769 c 0,0 -1.479501,0.802285 -1.95802,1.461409 -0.402009,0.553738 -0.657841,1.944585 -0.657841,1.944585 0,0 1.896503,3.063944 2.375049,4.878772 0.51109,1.938254 0.537435,6.326228 0.537435,6.326228 0,0 2.680985,-0.274981 3.641638,0.11989 1.825548,0.858497 -0.262888,9.966001 0.109554,12.220959 l 3.751709,7.305497 c 1.076728,5.243205 1.828827,11.141055 3.489192,16.136995 0.883031,0.80131 1.333859,1.10522 2.472201,1.10433 0.09414,-7e-5 0.205895,-5.05291 0.3514,-5.04775 0.119711,0.004 0.273555,5.06728 0.362768,5.06067 1.093495,-0.081 2.333773,-0.43106 2.984831,-1.11725 1.660365,-4.99594 2.412465,-10.89379 3.489193,-16.136995 l 3.751709,-7.305497 c 0.37244,-2.254958 -1.186828,-11.362462 0.63872,-12.220959 0.960653,-0.394871 3.642155,-0.11989 3.642155,-0.11989 0,0 0.214446,-3.850023 0.725537,-5.788277 0.478545,-1.814827 2.186947,-5.416723 2.186947,-5.416723 0,0 -0.255832,-1.390847 -0.657841,-1.944585 -0.478519,-0.659124 -1.958537,-1.461409 -1.958537,-1.461409 L 71.07723,58.978226 59.392155,48.611934 c 0,0 -2.114134,2.128541 -3.479891,2.623613 -1.296488,0.153287 -4.41349,0.392208 -5.597591,0 -1.365759,-0.495072 -3.479891,-2.623613 -3.479891,-2.623613 z m 9.396325,50.386589 c 0.589424,4.43e-4 -0.02844,4.489487 -0.28267,6.479187 -0.1821,1.42521 -0.918468,5.63077 -0.98702,4.19561 -0.120766,-2.5283 -0.561133,-4.63505 -0.197404,-6.91069 0.207013,-1.29513 0.524887,-3.0311 1.332736,-3.702096 0.05049,-0.04194 0.09506,-0.06204 0.134358,-0.06201 z m -6.519498,0.0987 c 0.03929,-3e-5 0.08387,0.02007 0.134358,0.06201 0.807849,0.670996 1.125723,2.406957 1.332736,3.702107 0.363729,2.27562 -0.07664,4.38237 -0.197404,6.91069 -0.06855,1.43514 -0.80492,-2.77042 -0.98702,-4.19561 -0.254226,-1.98971 -0.872094,-6.478755 -0.28267,-6.479197 z" /><path
         style="fill:#616161;fill-opacity:1;stroke:none;stroke-width:0.264583;stroke-opacity:1"
         d="m 43.267956,75.868853 c 0.473061,-1.166209 3.4311,-2.21553 4.083837,-0.977327 1.432116,2.716638 1.488738,9.702021 -0.453759,14.171266 1.552244,-4.294729 2.437446,-17.642201 -3.630078,-13.193939 z"
         id="path1849"
         sodipodi:nodetypes="cscc" /><path
         style="fill:#616161;fill-opacity:1;stroke:none;stroke-width:0.264583;stroke-opacity:1"
         d="m 63.822625,75.764139 c -0.473061,-1.166209 -3.4311,-2.21553 -4.083837,-0.977327 -1.432116,2.716638 -1.488738,9.702021 0.453759,14.171266 -1.552244,-4.294729 -2.437446,-17.642201 3.630078,-13.193939 z"
         id="path2334"
         sodipodi:nodetypes="cscc" /><path
         style="fill:#616161;fill-opacity:1;stroke:none;stroke-width:0.264583;stroke-opacity:1"
         d="m 46.956479,48.964858 c 0,0 1.209234,3.0048 3.705701,3.293686 0.284018,0.03287 1.322078,0.627455 2.518819,0.630913 0.890802,0.0026 1.853959,-0.540289 2.742528,-0.723653 2.230528,-0.460288 3.623914,-3.172031 3.623914,-3.172031 -0.730496,4.237202 -5.738825,4.047604 -6.29611,4.451003 -1.245113,-0.430119 -5.876341,-0.360754 -6.294852,-4.47992 z"
         id="path3074"
         sodipodi:nodetypes="cssscccc" /><path
         style="fill:#616161;fill-opacity:1;stroke:none;stroke-width:0.291902;stroke-opacity:1"
         d="m 65.076048,61.618249 c 0,0 -2.157388,-2.049972 -6.611323,-2.24706 -0.506715,-0.02242 -2.358713,-0.42807 -4.493813,-0.430429 -1.589275,-0.0018 -3.307639,0.368603 -4.892931,0.4937 -3.979474,0.314023 -6.465407,2.164063 -6.465407,2.164063 1.303274,-2.890758 10.23861,-2.761408 11.232859,-3.03662 2.2214,0.293441 10.483952,0.246118 11.230615,3.056348 z"
         id="path3076"
         sodipodi:nodetypes="cssscccc" /><path
         style="fill:#616161;fill-opacity:1;stroke:none;stroke-width:0.264583;stroke-opacity:1"
         d="m 52.607553,97.971931 c 0,0 1.321431,-12.730785 1.395806,-19.120968 0.03557,-3.056419 -0.45457,-9.158602 -0.45457,-9.158602 0.232032,9.941643 0.02076,18.298848 -0.941236,28.27957 z"
         id="path3225"
         sodipodi:nodetypes="cacc" /><path
         style="color:#000000;fill:#101010;stroke-width:1.136;-inkscape-stroke:none;fill-opacity:1"
         d="M 13.055676,34.055274 C -28.137443,55.966531 35.176674,89.373638 -10.267642,87.997028 1.4304658,92.713694 23.073519,95.795056 16.879945,78.592215 4.7257119,44.833454 21.903595,45.384483 34.719858,60.204476 L 47.463159,48.462554 C 42.894153,37.702404 23.44337,29.108033 13.055676,34.055274 Z"
         id="path3270"
         sodipodi:nodetypes="ccsccc" /><path
         style="color:#000000;fill:#101010;stroke-width:1.15573;-inkscape-stroke:none;fill-opacity:1"
         d="M 92.788748,33.846374 C 134.6974,56.138237 70.2835,90.125636 116.5172,88.725114 104.61589,93.523711 82.596892,96.658597 88.89805,79.156936 101.26341,44.811774 83.787138,45.372375 70.748252,60.449797 L 57.783595,48.503913 C 62.431966,37.556856 82.220616,28.813197 92.788748,33.846374 Z"
         id="path3278"
         sodipodi:nodetypes="ccsccc" /></g></g></svg>
