<?xml version="1.0" encoding="UTF-8" standalone="no"?>
<!-- Created with Inkscape (http://www.inkscape.org/) -->

<svg
   width="400.00006"
   height="600"
   viewBox="0 0 105.83335 158.75"
   version="1.1"
   id="svg5"
   inkscape:export-filename="CardTemplate.svg"
   inkscape:export-xdpi="26.281288"
   inkscape:export-ydpi="26.281288"
   sodipodi:docname="HighHeelCard.svg"
   inkscape:version="1.2.2 (732a01da63, 2022-12-09)"
   xmlns:inkscape="http://www.inkscape.org/namespaces/inkscape"
   xmlns:sodipodi="http://sodipodi.sourceforge.net/DTD/sodipodi-0.dtd"
   xmlns="http://www.w3.org/2000/svg"
   xmlns:svg="http://www.w3.org/2000/svg">
  <sodipodi:namedview
     id="namedview7"
     pagecolor="#505050"
     bordercolor="#ffffff"
     borderopacity="1"
     inkscape:showpageshadow="0"
     inkscape:pageopacity="0"
     inkscape:pagecheckerboard="1"
     inkscape:deskcolor="#505050"
     inkscape:document-units="mm"
     showgrid="false"
     showguides="true"
     inkscape:zoom="1.34"
     inkscape:cx="136.56716"
     inkscape:cy="277.98507"
     inkscape:window-width="1920"
     inkscape:window-height="991"
     inkscape:window-x="-9"
     inkscape:window-y="-9"
     inkscape:window-maximized="1"
     inkscape:current-layer="layer1" />
  <defs
     id="defs2">
    <inkscape:perspective
       sodipodi:type="inkscape:persp3d"
       inkscape:vp_x="0 : 79.375 : 1"
       inkscape:vp_y="0 : 1000 : 0"
       inkscape:vp_z="105.83335 : 79.375 : 1"
       inkscape:persp3d-origin="52.916675 : 52.916667 : 1"
       id="perspective1793" />
    <linearGradient
       id="linearGradient3910"
       inkscape:swatch="solid">
      <stop
         style="stop-color:#000000;stop-opacity:1;"
         offset="0"
         id="stop3908" />
    </linearGradient>
    <linearGradient
       id="linearGradient3902"
       inkscape:swatch="solid">
      <stop
         style="stop-color:#000000;stop-opacity:1;"
         offset="0"
         id="stop3900" />
    </linearGradient>
    <linearGradient
       id="linearGradient1908"
       inkscape:swatch="gradient">
      <stop
         style="stop-color:#412a2a;stop-opacity:1;"
         offset="0.83033931"
         id="stop1904" />
      <stop
         style="stop-color:#412a2a;stop-opacity:0;"
         offset="0.84431136"
         id="stop1906" />
    </linearGradient>
    <rect
       x="20.732048"
       y="466.96472"
       width="356.39377"
       height="115.50713"
       id="rect857" />
    <rect
       x="13.821366"
       y="17.770327"
       width="368.24066"
       height="96.749557"
       id="rect721" />
  </defs>
  <g
     inkscape:label="Layer 1"
     inkscape:groupmode="layer"
     id="layer1"
     transform="translate(-0.33529438,-0.33529437)">
    <rect
       style="font-variation-settings:normal;opacity:1;fill:#c87137;fill-opacity:1;stroke:#331f14;stroke-width:2.64597;stroke-linejoin:round;stroke-dasharray:none;stroke-dashoffset:0;stroke-opacity:1;paint-order:markers fill stroke;stop-color:#000000;stop-opacity:1"
       id="rect386"
       width="103.18738"
       height="156.10403"
       x="1.6582794"
       y="1.6582794" />
    <rect
       style="opacity:1;vector-effect:none;fill:#a6c78b;fill-opacity:1;stroke-width:0.289246;stroke-linecap:butt;stroke-linejoin:miter;stroke-miterlimit:4;stroke-dasharray:none;stroke-dashoffset:0;stroke-opacity:1;-inkscape-stroke:none;stop-color:#000000;stop-opacity:1"
       id="rect711"
       width="96.429878"
       height="80.496231"
       x="4.7017326"
       y="31.71199" />
    <text
       xml:space="preserve"
       transform="matrix(0.26458333,0,0,0.26458333,0,9.5250005)"
       id="text719"
       style="font-style:normal;font-variant:normal;font-weight:normal;font-stretch:normal;font-size:53.3333px;line-height:0;font-family:Broadway;-inkscape-font-specification:Broadway;text-align:center;letter-spacing:0px;word-spacing:0px;writing-mode:lr-tb;baseline-shift:baseline;white-space:pre;shape-inside:url(#rect721);display:inline;opacity:1;vector-effect:none;fill:#000000;fill-opacity:1;stroke-width:0.999999;stroke-linecap:butt;stroke-linejoin:miter;stroke-miterlimit:4;stroke-dasharray:none;stroke-dashoffset:0;stroke-opacity:1;-inkscape-stroke:none;stop-color:#000000;stop-opacity:1"
       x="80.755417"
       y="0"><tspan
         x="51.406012"
         y="42.685792"
         id="tspan2009">High Heels</tspan></text>
    <text
       xml:space="preserve"
       style="font-style:normal;font-variant:normal;font-weight:normal;font-stretch:normal;font-size:7.05556px;line-height:0px;font-family:Broadway;-inkscape-font-specification:Broadway;text-align:start;writing-mode:lr-tb;text-anchor:start;opacity:1;vector-effect:none;fill:#000000;fill-opacity:1;stroke-width:0.264583;stroke-linecap:butt;stroke-linejoin:miter;stroke-miterlimit:4;stroke-dasharray:none;stroke-dashoffset:0;stroke-opacity:1;-inkscape-stroke:none;stop-color:#000000;stop-opacity:1"
       x="4.3020148"
       y="121.22047"
       id="text733"><tspan
         sodipodi:role="line"
         id="tspan731"
         style="font-size:7.05556px;stroke-width:0.264583"
         x="4.3020148"
         y="121.22047">Description:</tspan></text>
    <text
       xml:space="preserve"
       transform="matrix(0.27431353,0,0,0.27431353,-0.8676689,-4.702566)"
       id="text855"
       style="font-style:normal;font-variant:normal;font-weight:normal;font-stretch:normal;font-size:23.1487px;line-height:23.1487px;font-family:Broadway;-inkscape-font-specification:Broadway;text-align:start;writing-mode:lr-tb;white-space:pre;shape-inside:url(#rect857);display:inline;opacity:1;vector-effect:none;fill:#000000;fill-opacity:1;stroke-width:0.999999;stroke-linecap:butt;stroke-linejoin:miter;stroke-miterlimit:4;stroke-dasharray:none;stroke-dashoffset:0;stroke-opacity:1;-inkscape-stroke:none;stop-color:#000000;stop-opacity:1"><tspan
         x="20.732422"
         y="489.35381"
         id="tspan2013"><tspan
           style="font-family:'Bookman Old Style';-inkscape-font-specification:'Bookman Old Style'"
           id="tspan2011">Limit an enemy queen's next </tspan></tspan><tspan
         x="20.732422"
         y="517.27782"
         id="tspan2017"><tspan
           style="font-family:'Bookman Old Style';-inkscape-font-specification:'Bookman Old Style'"
           id="tspan2015">move to 4 spaces, and discard </tspan></tspan><tspan
         x="20.732422"
         y="545.20183"
         id="tspan2021"><tspan
           style="font-family:'Bookman Old Style';-inkscape-font-specification:'Bookman Old Style'"
           id="tspan2019">this card.</tspan></tspan></text>
    <rect
       style="opacity:1;fill:none;fill-opacity:1;stroke-width:1;stroke-linecap:butt;stroke-linejoin:miter;stroke-miterlimit:4;stroke-dasharray:none;stroke-dashoffset:0;stroke-opacity:1;stop-color:#000000;stop-opacity:1;stroke:#331f14"
       id="rect33301"
       width="96.429878"
       height="80.496231"
       x="4.7017326"
       y="31.71199" />
    <g
       id="g1809"
       transform="matrix(1.2130363,0.1930515,-0.1930515,1.2130363,6.3788963,-18.024644)">
      <g
         id="g1673">
        <path
           id="path1669"
           style="fill:#520808;fill-opacity:1;fill-rule:evenodd;stroke-width:0.586761"
           d="m 81.491522,52.165984 c 5.835948,11.671869 -3.152789,9.325236 -4.429469,17.084941 -0.699183,7.182035 2.615953,9.676588 -3.056129,8.540676 -1.881263,-0.376748 -0.917951,-9.703845 -2.23504,-11.716052 -5.848227,-5.37103 -17.879965,5.993774 -20.938776,11.979375 -25.323136,1.598272 -23.308063,-5.186311 -18.199377,-5.05654 5.732298,0.145612 16.528324,-6.334458 24.563702,-12.397447 4.163559,-3.141559 8.75414,-5.762606 9.04499,-8.155716 -0.161655,-1.297548 0.934902,-2.64864 6.028081,-2.64864 5.09318,0 9.222018,1.060818 9.222018,2.369403 z"
           sodipodi:nodetypes="ccsccsscsc" />
        <path
           id="path417"
           style="fill:#8a0c0c;fill-opacity:1;fill-rule:evenodd;stroke-width:0.601001"
           d="m 80.697547,52.165984 c 6.122648,11.671869 -3.307674,9.325236 -4.647073,17.084941 -0.733531,7.182035 2.744465,9.676588 -3.206267,8.540676 -1.973682,-0.376748 -0.963046,-9.703845 -2.344839,-11.716052 -6.13553,-5.37103 -18.758345,5.993774 -21.967425,11.979375 -26.567173,1.598272 -24.453107,-5.186311 -19.09345,-5.05654 6.013906,0.145612 17.340304,-6.334458 25.770432,-12.397447 4.3681,-3.141559 9.1842,-5.762606 9.489339,-8.155716 -0.169597,-1.297548 0.980831,-2.64864 6.32422,-2.64864 5.34339,0 9.675063,1.060818 9.675063,2.369403 z"
           sodipodi:nodetypes="ccsccsscsc" />
        <ellipse
           style="fill:#520808;fill-opacity:1;fill-rule:evenodd;stroke-width:0.613976"
           id="ellipse1795"
           cx="74.977112"
           cy="48.952404"
           rx="7.2689805"
           ry="1.3818839"
           transform="matrix(0.99948992,0.03193573,-0.02983408,0.99955486,0,0)" />
      </g>
      <g
         id="g1679"
         transform="translate(-10.610999,1.8150393)">
        <path
           id="path1675"
           style="fill:#520808;fill-opacity:1;fill-rule:evenodd;stroke-width:0.586761"
           d="m 81.491522,52.165984 c 5.835948,11.671869 -3.152789,9.325236 -4.429469,17.084941 -0.699183,7.182035 2.615953,9.676588 -3.056129,8.540676 -1.881263,-0.376748 -0.917951,-9.703845 -2.23504,-11.716052 -5.848227,-5.37103 -17.879965,5.993774 -20.938776,11.979375 -25.323136,1.598272 -23.308063,-5.186311 -18.199377,-5.05654 5.732298,0.145612 16.528324,-6.334458 24.563702,-12.397447 4.163559,-3.141559 8.75414,-5.762606 9.04499,-8.155716 -0.161655,-1.297548 0.934902,-2.64864 6.028081,-2.64864 5.09318,0 9.222018,1.060818 9.222018,2.369403 z"
           sodipodi:nodetypes="ccsccsscsc" />
        <path
           id="path1677"
           style="fill:#8a0c0c;fill-opacity:1;fill-rule:evenodd;stroke-width:0.601001"
           d="m 80.697547,52.165984 c 6.122648,11.671869 -3.307674,9.325236 -4.647073,17.084941 -0.733531,7.182035 2.744465,9.676588 -3.206267,8.540676 -1.973682,-0.376748 -0.963046,-9.703845 -2.344839,-11.716052 -6.13553,-5.37103 -18.758345,5.993774 -21.967425,11.979375 -26.567173,1.598272 -24.453107,-5.186311 -19.09345,-5.05654 6.013906,0.145612 17.340304,-6.334458 25.770432,-12.397447 4.3681,-3.141559 9.1842,-5.762606 9.489339,-8.155716 -0.169597,-1.297548 0.980831,-2.64864 6.32422,-2.64864 5.34339,0 9.675063,1.060818 9.675063,2.369403 z"
           sodipodi:nodetypes="ccsccsscsc" />
        <ellipse
           style="fill:#520808;fill-opacity:1;fill-rule:evenodd;stroke-width:0.591327"
           id="path1733"
           cx="63.806534"
           cy="51.627647"
           rx="7.3918929"
           ry="1.2604994"
           transform="rotate(1.3268152,83.680721,457.28611)" />
      </g>
    </g>
  </g>
</svg>
