<?xml version="1.0" encoding="UTF-8" standalone="no"?>
<!-- Created with Inkscape (http://www.inkscape.org/) -->

<svg
   width="400.00006"
   height="600"
   viewBox="0 0 105.83335 158.75"
   version="1.1"
   id="svg5"
   inkscape:export-filename="CardTemplate.svg"
   inkscape:export-xdpi="26.281288"
   inkscape:export-ydpi="26.281288"
   sodipodi:docname="RainingMenCard.svg"
   inkscape:version="1.2.2 (732a01da63, 2022-12-09)"
   xml:space="preserve"
   xmlns:inkscape="http://www.inkscape.org/namespaces/inkscape"
   xmlns:sodipodi="http://sodipodi.sourceforge.net/DTD/sodipodi-0.dtd"
   xmlns="http://www.w3.org/2000/svg"
   xmlns:svg="http://www.w3.org/2000/svg"><sodipodi:namedview
     id="namedview7"
     pagecolor="#505050"
     bordercolor="#ffffff"
     borderopacity="1"
     inkscape:showpageshadow="0"
     inkscape:pageopacity="0"
     inkscape:pagecheckerboard="1"
     inkscape:deskcolor="#505050"
     inkscape:document-units="mm"
     showgrid="false"
     showguides="true"
     inkscape:zoom="0.94752309"
     inkscape:cx="-227.96278"
     inkscape:cy="180.99823"
     inkscape:window-width="1920"
     inkscape:window-height="991"
     inkscape:window-x="-9"
     inkscape:window-y="-9"
     inkscape:window-maximized="1"
     inkscape:current-layer="layer1" /><defs
     id="defs2"><linearGradient
       id="linearGradient3910"
       inkscape:swatch="solid"><stop
         style="stop-color:#000000;stop-opacity:1;"
         offset="0"
         id="stop3908" /></linearGradient><linearGradient
       id="linearGradient3902"
       inkscape:swatch="solid"><stop
         style="stop-color:#000000;stop-opacity:1;"
         offset="0"
         id="stop3900" /></linearGradient><linearGradient
       id="linearGradient1908"
       inkscape:swatch="gradient"><stop
         style="stop-color:#412a2a;stop-opacity:1;"
         offset="0.83033931"
         id="stop1904" /><stop
         style="stop-color:#412a2a;stop-opacity:0;"
         offset="0.84431136"
         id="stop1906" /></linearGradient><rect
       x="20.732048"
       y="466.96472"
       width="356.39377"
       height="115.50713"
       id="rect857" /><rect
       x="13.821366"
       y="17.770327"
       width="368.24066"
       height="96.749557"
       id="rect721" /><clipPath
       clipPathUnits="userSpaceOnUse"
       id="clipPath6141"><rect
         style="opacity:1;vector-effect:none;fill:#ffffff;fill-opacity:1;stroke-width:0.289245;stroke-linecap:butt;stroke-linejoin:miter;stroke-miterlimit:4;stroke-dasharray:none;stroke-dashoffset:0;stroke-opacity:1;-inkscape-stroke:none;stop-color:#000000;stop-opacity:1"
         id="rect6143"
         width="96.429878"
         height="80.496231"
         x="4.7017331"
         y="31.71199" /></clipPath></defs><g
     inkscape:label="Layer 1"
     inkscape:groupmode="layer"
     id="layer1"
     transform="translate(-0.33529438,-0.33529437)"><rect
       style="font-variation-settings:normal;opacity:1;fill:#c87137;fill-opacity:1;stroke:#331f14;stroke-width:2.64597;stroke-linejoin:round;stroke-dasharray:none;stroke-dashoffset:0;stroke-opacity:1;paint-order:markers fill stroke;stop-color:#000000;stop-opacity:1"
       id="rect386"
       width="103.18738"
       height="156.10403"
       x="1.6582794"
       y="1.6582794" /><text
       xml:space="preserve"
       transform="matrix(0.26458333,0,0,0.26458333,0,9.5250005)"
       id="text719"
       style="font-style:normal;font-variant:normal;font-weight:normal;font-stretch:normal;font-size:53.3333px;line-height:0;font-family:Broadway;-inkscape-font-specification:Broadway;text-align:center;letter-spacing:0px;word-spacing:0px;writing-mode:lr-tb;baseline-shift:baseline;white-space:pre;shape-inside:url(#rect721);display:inline;opacity:1;vector-effect:none;fill:#000000;fill-opacity:1;stroke-width:0.999999;stroke-linecap:butt;stroke-linejoin:miter;stroke-miterlimit:4;stroke-dasharray:none;stroke-dashoffset:0;stroke-opacity:1;-inkscape-stroke:none;stop-color:#000000;stop-opacity:1"
       x="80.755417"
       y="0"><tspan
         x="16.52322"
         y="42.685792"
         id="tspan6181">Raining Men</tspan></text><text
       xml:space="preserve"
       style="font-style:normal;font-variant:normal;font-weight:normal;font-stretch:normal;font-size:7.05556px;line-height:0px;font-family:Broadway;-inkscape-font-specification:Broadway;text-align:start;writing-mode:lr-tb;text-anchor:start;opacity:1;vector-effect:none;fill:#000000;fill-opacity:1;stroke-width:0.264583;stroke-linecap:butt;stroke-linejoin:miter;stroke-miterlimit:4;stroke-dasharray:none;stroke-dashoffset:0;stroke-opacity:1;-inkscape-stroke:none;stop-color:#000000;stop-opacity:1"
       x="4.3020148"
       y="121.22047"
       id="text733"><tspan
         sodipodi:role="line"
         id="tspan731"
         style="font-size:7.05556px;stroke-width:0.264583"
         x="4.3020148"
         y="121.22047">Description:</tspan></text><text
       xml:space="preserve"
       transform="matrix(0.27431353,0,0,0.27431353,-0.8676689,-4.702566)"
       id="text855"
       style="font-style:normal;font-variant:normal;font-weight:normal;font-stretch:normal;font-size:23.1487px;line-height:23.1487px;font-family:Broadway;-inkscape-font-specification:Broadway;text-align:start;writing-mode:lr-tb;white-space:pre;shape-inside:url(#rect857);display:inline;opacity:1;vector-effect:none;fill:#000000;fill-opacity:1;stroke-width:0.999999;stroke-linecap:butt;stroke-linejoin:miter;stroke-miterlimit:4;stroke-dasharray:none;stroke-dashoffset:0;stroke-opacity:1;-inkscape-stroke:none;stop-color:#000000;stop-opacity:1"><tspan
         x="20.732422"
         y="489.35381"
         id="tspan6185"><tspan
           style="font-family:'Bookman Old Style';-inkscape-font-specification:'Bookman Old Style'"
           id="tspan6183">Both players receive three </tspan></tspan><tspan
         x="20.732422"
         y="517.27782"
         id="tspan6189"><tspan
           style="font-family:'Bookman Old Style';-inkscape-font-specification:'Bookman Old Style'"
           id="tspan6187">pawns with random positions. </tspan></tspan><tspan
         x="20.732422"
         y="545.20183"
         id="tspan6193"><tspan
           style="font-family:'Bookman Old Style';-inkscape-font-specification:'Bookman Old Style'"
           id="tspan6191">Discard this card.</tspan></tspan></text><g
       id="g6089"
       clip-path="url(#clipPath6141)"><rect
         style="opacity:1;vector-effect:none;fill:#2c5265;fill-opacity:1;stroke-width:0.289246;stroke-linecap:butt;stroke-linejoin:miter;stroke-miterlimit:4;stroke-dasharray:none;stroke-dashoffset:0;stroke-opacity:1;-inkscape-stroke:none;stop-color:#000000;stop-opacity:1"
         id="rect6093"
         width="96.429878"
         height="80.496231"
         x="4.7017326"
         y="31.71199" /><g
         id="g6077"><rect
           style="fill:#8bb5c7;fill-opacity:1;fill-rule:evenodd;stroke-width:0.601001"
           id="rect3790"
           width="2.566853"
           height="29.814987"
           x="24.226774"
           y="45.748852" /><path
           d="m 25.411476,71.286349 c -1.306624,0 -2.364929,1.058307 -2.364929,2.36493 0,0.526196 0.171459,1.011007 0.461161,1.407132 -1.152905,0.662183 -1.939244,1.897859 -1.939244,3.32273 0,1.200202 0.55576,2.270333 1.424871,2.973898 -1.773698,0.626706 -4.381034,3.28134 -4.381034,7.963903 h 13.59835 c 0,-4.682563 -2.607336,-7.337197 -4.381034,-7.963903 0.869111,-0.703565 1.424871,-1.773696 1.424871,-2.973898 0,-1.424871 -0.786339,-2.660547 -1.939244,-3.32273 0.289705,-0.396125 0.461161,-0.880936 0.461161,-1.407132 0,-1.306623 -1.058305,-2.36493 -2.364929,-2.36493 z"
           style="opacity:1;fill:#ffffff;fill-opacity:1;fill-rule:nonzero;stroke:#000000;stroke-width:0.886852;stroke-linecap:round;stroke-linejoin:miter;stroke-miterlimit:4;stroke-dasharray:none;stroke-opacity:1"
           id="path3729" /></g><g
         id="g6013"><rect
           style="fill:#8bb5c7;fill-opacity:1;fill-rule:evenodd;stroke-width:0.601001"
           id="rect4832"
           width="2.566853"
           height="29.814987"
           x="51.869808"
           y="66.086227" /><path
           d="m 53.054512,91.623725 c -1.306624,0 -2.364929,1.058307 -2.364929,2.36493 0,0.526196 0.171459,1.011007 0.461161,1.407132 -1.152905,0.662183 -1.939244,1.897859 -1.939244,3.32273 0,1.200202 0.55576,2.270333 1.424871,2.973903 -1.773698,0.6267 -4.381034,3.28134 -4.381034,7.9639 h 13.59835 c 0,-4.68256 -2.607336,-7.3372 -4.381034,-7.9639 0.869111,-0.70357 1.424871,-1.773701 1.424871,-2.973903 0,-1.424871 -0.786339,-2.660547 -1.939244,-3.32273 0.289705,-0.396125 0.461161,-0.880936 0.461161,-1.407132 0,-1.306623 -1.058305,-2.36493 -2.364929,-2.36493 z"
           style="opacity:1;fill:#ffffff;fill-opacity:1;fill-rule:nonzero;stroke:#000000;stroke-width:0.886852;stroke-linecap:round;stroke-linejoin:miter;stroke-miterlimit:4;stroke-dasharray:none;stroke-opacity:1"
           id="path4834" /></g><g
         id="g6009"><rect
           style="fill:#8bb5c7;fill-opacity:1;fill-rule:evenodd;stroke-width:0.601001"
           id="rect4836"
           width="2.566853"
           height="29.814987"
           x="75.168938"
           y="33.901836" /><path
           d="m 76.353641,59.439334 c -1.306624,0 -2.364929,1.058307 -2.364929,2.36493 0,0.526196 0.171459,1.011007 0.461161,1.407132 -1.152905,0.662183 -1.939244,1.897859 -1.939244,3.32273 0,1.200202 0.55576,2.270333 1.424871,2.973903 -1.773698,0.6267 -4.381034,3.28134 -4.381034,7.9639 h 13.59835 c 0,-4.68256 -2.607336,-7.3372 -4.381034,-7.9639 0.869111,-0.70357 1.424871,-1.773701 1.424871,-2.973903 0,-1.424871 -0.786339,-2.660547 -1.939244,-3.32273 0.289705,-0.396125 0.461161,-0.880936 0.461161,-1.407132 0,-1.306623 -1.058305,-2.36493 -2.364929,-2.36493 z"
           style="opacity:1;fill:#ffffff;fill-opacity:1;fill-rule:nonzero;stroke:#000000;stroke-width:0.886852;stroke-linecap:round;stroke-linejoin:miter;stroke-miterlimit:4;stroke-dasharray:none;stroke-opacity:1"
           id="path4838"
           inkscape:label="path4838" /></g><path
         id="path4894"
         style="fill:#498199;fill-opacity:1;fill-rule:evenodd;stroke-width:0.42787"
         inkscape:label="path4894"
         d="M 93.498083 31.430037 L 90.256421 34.140983 L 86.832857 40.469279 L 86.666459 42.699117 L 93.498083 31.430037 z M 42.480009 31.637776 L 39.238346 34.348205 L 35.814782 40.676501 L 35.648384 42.906339 L 42.480009 31.637776 z M 25.027327 35.547099 L 21.785665 38.257527 L 18.362618 44.585823 L 18.195703 46.815661 L 25.027327 35.547099 z M 63.008988 37.207979 L 59.767326 39.918408 L 56.343762 46.246704 L 56.177364 48.476542 L 63.008988 37.207979 z M 10.64681 44.621997 L 7.4051471 47.332942 L 3.9815834 53.661238 L 3.8151853 55.891076 L 10.64681 44.621997 z M 42.898588 48.252266 L 39.656925 50.963212 L 36.233362 57.291508 L 36.066963 59.520829 L 42.898588 48.252266 z M 56.022851 54.39556 L 52.781189 57.105989 L 49.357625 63.434802 L 49.191227 65.664123 L 56.022851 54.39556 z M 92.310559 58.106445 L 89.068896 60.817391 L 85.645333 67.145687 L 85.478935 69.375525 L 92.310559 58.106445 z M 16.31158 59.322392 L 13.069918 62.03282 L 9.6468707 68.361633 L 9.4804726 70.590954 L 16.31158 59.322392 z M 66.188639 62.464319 L 62.946977 65.175264 L 59.523413 71.50356 L 59.357015 73.733398 L 66.188639 62.464319 z M 39.314827 67.714127 L 36.073165 70.424556 L 32.649601 76.752852 L 32.483203 78.98269 L 39.314827 67.714127 z M 103.41376 67.789058 L 100.17209 70.500004 L 96.749048 76.8283 L 96.582133 79.058138 L 103.41376 67.789058 z M 54.863749 75.049597 L 51.622086 77.760543 L 48.198523 84.088838 L 48.032125 86.31816 L 54.863749 75.049597 z M 82.092578 83.047042 L 78.850915 85.757987 L 75.427868 92.086283 L 75.260954 94.315604 L 82.092578 83.047042 z M 15.423262 87.162553 L 12.1816 89.873498 L 8.7580361 96.201794 L 8.591638 98.431632 L 15.423262 87.162553 z M 35.956376 92.124007 L 32.714713 94.834436 L 29.29115 101.16325 L 29.124752 103.39257 L 35.956376 92.124007 z M 95.455587 97.806864 L 92.213924 100.51781 L 88.790877 106.84611 L 88.623962 109.07594 L 95.455587 97.806864 z M 65.971081 99.172672 L 62.729419 101.8831 L 59.306372 108.21191 L 59.139457 110.44124 L 65.971081 99.172672 z M 20.28033 103.82045 L 17.038668 106.53088 L 13.615621 112.85969 L 13.448706 115.08901 L 20.28033 103.82045 z M 79.059688 104.65813 L 75.818025 107.36907 L 72.394979 113.69737 L 72.228064 115.92669 L 79.059688 104.65813 z " /></g><rect
       style="opacity:1;fill:none;fill-opacity:1;stroke-width:1;stroke-linecap:butt;stroke-linejoin:miter;stroke-miterlimit:4;stroke-dasharray:none;stroke-dashoffset:0;stroke-opacity:1;stop-color:#000000;stop-opacity:1;stroke:#331f14"
       id="rect33301"
       width="96.429878"
       height="80.496231"
       x="4.7017326"
       y="31.71199" /></g></svg>
