<?xml version="1.0" encoding="UTF-8" standalone="no"?>
<!-- Created with Inkscape (http://www.inkscape.org/) -->

<svg
   width="400.00006"
   height="600"
   viewBox="0 0 105.83335 158.75"
   version="1.1"
   id="svg5"
   inkscape:export-filename="CardTemplate.svg"
   inkscape:export-xdpi="26.281288"
   inkscape:export-ydpi="26.281288"
   sodipodi:docname="WetConcreteCard.svg"
   inkscape:version="1.2.2 (732a01da63, 2022-12-09)"
   xmlns:inkscape="http://www.inkscape.org/namespaces/inkscape"
   xmlns:sodipodi="http://sodipodi.sourceforge.net/DTD/sodipodi-0.dtd"
   xmlns="http://www.w3.org/2000/svg"
   xmlns:svg="http://www.w3.org/2000/svg">
  <sodipodi:namedview
     id="namedview7"
     pagecolor="#505050"
     bordercolor="#ffffff"
     borderopacity="1"
     inkscape:showpageshadow="0"
     inkscape:pageopacity="0"
     inkscape:pagecheckerboard="1"
     inkscape:deskcolor="#505050"
     inkscape:document-units="mm"
     showgrid="false"
     showguides="true"
     inkscape:zoom="1.34"
     inkscape:cx="110.44776"
     inkscape:cy="320.52239"
     inkscape:window-width="1920"
     inkscape:window-height="991"
     inkscape:window-x="-9"
     inkscape:window-y="-9"
     inkscape:window-maximized="1"
     inkscape:current-layer="layer1" />
  <defs
     id="defs2">
    <linearGradient
       id="linearGradient3910"
       inkscape:swatch="solid">
      <stop
         style="stop-color:#000000;stop-opacity:1;"
         offset="0"
         id="stop3908" />
    </linearGradient>
    <linearGradient
       id="linearGradient3902"
       inkscape:swatch="solid">
      <stop
         style="stop-color:#000000;stop-opacity:1;"
         offset="0"
         id="stop3900" />
    </linearGradient>
    <linearGradient
       id="linearGradient1908"
       inkscape:swatch="gradient">
      <stop
         style="stop-color:#412a2a;stop-opacity:1;"
         offset="0.83033931"
         id="stop1904" />
      <stop
         style="stop-color:#412a2a;stop-opacity:0;"
         offset="0.84431136"
         id="stop1906" />
    </linearGradient>
    <rect
       x="20.732048"
       y="466.96472"
       width="356.39377"
       height="115.50713"
       id="rect857" />
    <rect
       x="13.821366"
       y="17.770327"
       width="368.24066"
       height="96.749557"
       id="rect721" />
    <clipPath
       clipPathUnits="userSpaceOnUse"
       id="clipPath9269">
      <rect
         style="opacity:1;vector-effect:none;fill:#ffffff;fill-opacity:1;stroke-width:0.295624;stroke-linecap:butt;stroke-linejoin:miter;stroke-miterlimit:4;stroke-dasharray:none;stroke-dashoffset:0;stroke-opacity:1;-inkscape-stroke:none;stop-color:#000000;stop-opacity:1"
         id="rect9271"
         width="98.556541"
         height="82.2715"
         x="14.977839"
         y="31.55065" />
    </clipPath>
  </defs>
  <g
     inkscape:label="Layer 1"
     inkscape:groupmode="layer"
     id="layer1"
     transform="translate(-0.33529438,-0.33529437)">
    <rect
       style="font-variation-settings:normal;opacity:1;fill:#c87137;fill-opacity:1;stroke:#331f14;stroke-width:2.64597;stroke-linejoin:round;stroke-dasharray:none;stroke-dashoffset:0;stroke-opacity:1;paint-order:markers fill stroke;stop-color:#000000;stop-opacity:1"
       id="rect386"
       width="103.18738"
       height="156.10403"
       x="1.6582794"
       y="1.6582794" />
    <text
       xml:space="preserve"
       transform="matrix(0.26458333,0,0,0.26458333,0,9.5250005)"
       id="text719"
       style="font-style:normal;font-variant:normal;font-weight:normal;font-stretch:normal;font-size:48.0000006px;line-height:0;font-family:Broadway;-inkscape-font-specification:Broadway;text-align:center;letter-spacing:0px;word-spacing:0px;writing-mode:lr-tb;baseline-shift:baseline;white-space:pre;shape-inside:url(#rect721);display:inline;opacity:1;vector-effect:none;fill:#000000;fill-opacity:1;stroke-width:0.999999;stroke-linecap:butt;stroke-linejoin:miter;stroke-miterlimit:4;stroke-dasharray:none;stroke-dashoffset:0;stroke-opacity:1;-inkscape-stroke:none;stop-color:#000000;stop-opacity:1"
       x="80.755417"
       y="0"><tspan
         x="30.633789"
         y="40.19418"
         id="tspan10214">Wet Concrete</tspan></text>
    <text
       xml:space="preserve"
       style="font-style:normal;font-variant:normal;font-weight:normal;font-stretch:normal;font-size:7.05556px;line-height:0px;font-family:Broadway;-inkscape-font-specification:Broadway;text-align:start;writing-mode:lr-tb;text-anchor:start;opacity:1;vector-effect:none;fill:#000000;fill-opacity:1;stroke-width:0.264583;stroke-linecap:butt;stroke-linejoin:miter;stroke-miterlimit:4;stroke-dasharray:none;stroke-dashoffset:0;stroke-opacity:1;-inkscape-stroke:none;stop-color:#000000;stop-opacity:1"
       x="4.3020148"
       y="121.22047"
       id="text733"><tspan
         sodipodi:role="line"
         id="tspan731"
         style="font-size:7.05556px;stroke-width:0.264583"
         x="4.3020148"
         y="121.22047">Description:</tspan></text>
    <text
       xml:space="preserve"
       transform="matrix(0.27431353,0,0,0.27431353,-0.8676689,-4.702566)"
       id="text855"
       style="font-style:normal;font-variant:normal;font-weight:normal;font-stretch:normal;font-size:23.1487px;line-height:23.1487px;font-family:Broadway;-inkscape-font-specification:Broadway;text-align:start;writing-mode:lr-tb;white-space:pre;shape-inside:url(#rect857);display:inline;opacity:1;vector-effect:none;fill:#000000;fill-opacity:1;stroke-width:0.999999;stroke-linecap:butt;stroke-linejoin:miter;stroke-miterlimit:4;stroke-dasharray:none;stroke-dashoffset:0;stroke-opacity:1;-inkscape-stroke:none;stop-color:#000000;stop-opacity:1"><tspan
         x="20.732422"
         y="489.35381"
         id="tspan10218"><tspan
           style="font-family:'Bookman Old Style';-inkscape-font-specification:'Bookman Old Style'"
           id="tspan10216">Promote any pawn to a rook, </tspan></tspan><tspan
         x="20.732422"
         y="517.27782"
         id="tspan10222"><tspan
           style="font-family:'Bookman Old Style';-inkscape-font-specification:'Bookman Old Style'"
           id="tspan10220">and discard this card.</tspan></tspan></text>
    <rect
       style="opacity:1;vector-effect:none;fill:#77c1d3;fill-opacity:1;stroke-width:0.289246;stroke-linecap:butt;stroke-linejoin:miter;stroke-miterlimit:4;stroke-dasharray:none;stroke-dashoffset:0;stroke-opacity:1;-inkscape-stroke:none;stop-color:#000000;stop-opacity:1"
       id="rect711"
       width="96.429878"
       height="80.496231"
       x="4.7017326"
       y="31.71199" />
    <g
       id="g9265"
       transform="matrix(0.97842189,0,0,0.97842189,-9.9529126,0.84214489)"
       clip-path="url(#clipPath9269)">
      <path
         style="fill:#af564d;fill-opacity:1;fill-rule:evenodd;stroke:#000000;stroke-width:1.997;stroke-linecap:round;stroke-linejoin:round;stroke-dasharray:none;stroke-opacity:1;paint-order:stroke fill markers"
         d="m 107.6901,22.90997 17.17818,-0.394901 -37.713,24.28638 c 0,0 -10.736789,8.469431 -16.974957,8.002734 -5.136071,-0.384246 -12.840031,-8.595084 -12.840031,-8.595084 z"
         id="path5876"
         sodipodi:nodetypes="cccacc" />
      <path
         style="fill:#767676;fill-opacity:1;fill-rule:evenodd;stroke:#000000;stroke-width:1.997;stroke-linecap:round;stroke-linejoin:round;stroke-dasharray:none;stroke-opacity:1;paint-order:stroke fill markers"
         d="m 109.79613,29.65516 c 0.0465,-0.186159 0.17725,-0.370314 0.13962,-0.558472 -0.13066,-0.653267 -0.98542,-1.750288 -1.53581,-2.094278 -0.55056,-0.344104 -1.35167,0.62289 -1.5358,0.837711 -0.24082,0.280961 -0.0567,0.36423 -0.27924,0.698092 -0.0382,0.05734 -0.75738,-0.139618 -1.11694,-0.139618 -0.69275,0 -1.42945,-0.02659 -2.09428,0.139618 -0.2158,0.05395 -1.0298,1.029798 -1.11695,1.116947 -0.27146,0.271462 -0.35044,0.201572 -0.69809,0.418856 -0.2527,0.157938 -0.44256,0.405154 -0.69809,0.558472 -0.30393,0.182356 -0.72671,0.168233 -0.977331,0.418857 -0.03291,0.03291 0.03787,0.112567 0,0.139618 -0.526116,0.375798 -1.17502,0.567909 -1.675421,0.977328 -0.305636,0.250066 -0.514194,0.611251 -0.83771,0.837711 -0.1572,0.11004 -0.386845,0.0538 -0.558475,0.139618 0.01307,0.523131 0.253442,-0.253439 0,0 -0.07358,0.07359 -0.05303,0.221511 -0.139618,0.279238 -0.39129,0.260861 -2.328005,-0.232182 -3.071603,0.139618 -1.117539,0.558768 -2.27211,1.028182 -3.350842,1.675421 -0.501259,0.300755 -0.621332,0.76404 -1.256567,1.116947 -0.476179,0.264543 -1.025756,0.367207 -1.535801,0.558474 -1.116949,0.418854 -2.251424,0.793652 -3.350842,1.256565 -0.51109,0.215196 -1.354712,0.555704 -1.675421,1.116946 -0.06927,0.121224 -0.07745,0.302686 0,0.418857 0.05163,0.07745 0.279236,0.09308 0.279236,0 0,-0.09308 -0.195985,-0.04163 -0.279236,0 -3.579947,2.088303 0.06573,0.07171 -3.071606,1.535803 -0.280659,0.130974 -0.819388,0.499718 -1.116946,0.698092 -0.139618,0.09308 -0.300202,0.160584 -0.418857,0.279236 -0.03291,0.03291 0.04484,0.127162 0,0.139618 -0.86315,0.239763 -3.091569,0.542528 -4.048932,1.116947 -0.427305,0.256381 -2.1639,1.81474 -2.513131,2.373513 -0.132832,0.212527 -0.199983,0.46033 -0.279239,0.698093 -0.01471,0.04415 0.03291,0.106709 0,0.139618 -0.174712,0.174715 -1.033693,-0.04163 -1.396183,0.139618 -0.245284,0.122642 -0.464401,0.441629 -0.698092,0.558474 -0.380757,0.190379 -1.082614,-0.204359 -1.535803,-0.139618 -0.426982,0.061 -0.554966,0.278067 -0.977329,0.418854 -0.655939,0.218647 -1.686311,0.277059 -2.373513,0.139618 -0.102045,-0.0204 -0.177192,-0.119208 -0.279236,-0.139618 -0.601305,-0.120261 -1.3345,0 -1.954657,0 -0.04654,0 0.183769,0.01471 0.139618,0 -0.286004,-0.09533 -1.543137,-0.52615 -1.954657,-0.279236 -0.459203,0.275521 -0.628322,1.675376 -0.279239,2.094275 0.291023,0.349229 1.047898,0.489426 1.396185,0.837711 0.09872,0.09873 -0.311597,-0.08938 -0.418856,0 -0.292285,0.24357 -1.685909,1.846506 -1.815039,2.233895 -0.126318,0.378952 0.290481,1.083218 0.279238,1.116947 -0.333393,1.000175 -0.840634,0.814326 -0.698092,1.954657 0.04654,0.372316 0.418854,0.418856 0.698092,0.558474 0.09308,0.04654 0.18051,0.106709 0.279236,0.139618 0.04415,0.01471 0.172527,-0.03291 0.139618,0 -0.284456,0.284459 -0.743204,0.504794 -0.83771,0.977329 -0.0628,0.313976 0.202234,1.266158 0,1.535803 -0.100679,0.134241 -0.291452,0.170034 -0.418854,0.279238 -0.18896,0.161962 -1.285769,1.314969 -1.396185,1.535801 -0.620527,1.241054 0.248211,0.155133 0,1.396185 -0.01826,0.09127 -0.187426,-0.01529 -0.279236,0 -0.189278,0.03155 -0.376433,0.07894 -0.558475,0.139618 -0.866626,0.288875 0.464024,-0.0113 -0.698092,0.279236 -0.04515,0.0113 -0.172527,-0.03291 -0.139618,0 0.07359,0.07359 0.304477,0.240578 0.279236,0.13962 -0.132612,-0.530452 -0.664231,-0.994259 -1.256565,-0.698092 -0.375867,0.187933 -0.585089,1.76181 -0.418856,2.094275 0.04654,0.09308 0.180512,0.106712 0.279238,0.139618 0.371404,0.123804 0.69809,0.171135 0.69809,0.13962 0,-0.04654 -0.09308,0 -0.139618,0 -0.09308,0 -0.199421,-0.04789 -0.279236,0 -0.406318,0.24379 -0.995516,1.33916 -0.698092,1.815039 0.130077,0.208124 1.454356,1.431081 1.535803,1.675421 0.143483,0.430446 -1.837394,1.88068 -2.094275,2.233893 -0.192085,0.264115 -0.558475,1.199801 -0.558475,1.535803 0,0.104066 0.232696,0.232699 0.279236,0.139618 0.153557,-0.307112 -0.222236,-0.397205 -0.418854,-0.279236 -0.717399,0.430438 -1.128154,1.463421 -1.256567,2.233893 -0.03825,0.229532 0,0.465397 0,0.698093 0,0.186158 -0.103261,0.403582 0,0.558474 0.10872,0.163079 0.918316,0.47787 0.977329,0.418854 0.374679,-0.374676 -1.352167,0.661647 -1.675421,1.95466 -0.281763,1.127054 1.061191,1.731328 1.815041,2.233893 0.03872,0.02582 -0.100896,-0.02582 -0.13962,0 -0.109525,0.07302 -0.186156,0.186158 -0.279236,0.279239 -0.232699,0.232695 -0.477946,0.453485 -0.698093,0.698089 -0.374893,0.41655 -0.806087,0.790279 -1.116946,1.256568 -0.109286,0.16393 0.08913,0.519842 0,0.698092 -0.188397,0.376793 -0.06258,-0.0048 -0.279236,0.139618 -0.653405,0.435602 -1.039262,0.820875 -1.116949,1.675421 -0.01738,0.191098 0.01326,0.414062 0.139618,0.558472 0.220996,0.252566 0.56923,0.357113 0.83771,0.558475 0.776756,0.582564 1.398492,0.698092 2.373514,0.698092 0.186158,0 0.724979,-0.08325 0.558474,0 -0.224163,0.112083 -0.485566,0.146407 -0.698092,0.279236 -0.455787,0.284869 -1.083017,0.957752 -1.396185,1.396185 -0.335206,0.469292 -0.432943,1.270654 -0.837711,1.675421 -0.428543,0.428546 -0.116088,-0.08157 -0.558472,0.139618 -0.521798,0.260898 -1.457142,1.47746 -1.815039,1.954657 -0.06244,0.08325 -0.06603,0.205653 -0.139618,0.279239 -0.167801,0.167798 -0.475898,-0.0563 -0.698092,-0.139621 -0.566492,-0.212434 -1.113682,-0.473395 -1.675421,-0.69809 -0.153543,-0.06142 -0.776312,-0.173262 -0.837711,-0.418856 -0.03386,-0.135449 -0.06244,-0.293976 0,-0.418854 0.156171,-0.312344 2.465073,-2.84692 1.116947,-3.071606 -0.183624,-0.0306 -0.380167,-0.05349 -0.558475,0 -0.856504,0.256952 -1.868638,1.191733 -2.094275,2.094277 -0.04515,0.180599 0.03651,0.375931 0,0.558472 -0.07668,0.383392 -0.753922,0.753922 -0.977328,0.977329 -0.03291,0.03291 0.04163,0.118805 0,0.139618 -0.619154,0.309578 -1.532451,0.276725 -2.094278,0.698092 -0.308631,0.231476 -0.01003,0.438923 -0.139618,0.698093 -0.150085,0.300169 -0.54434,-0.395492 -0.83771,-0.558475 -0.218697,-0.121497 -0.871424,-0.200999 -1.116947,-0.139618 -1.331325,0.332833 -0.719129,1.040442 -0.977328,1.815039 -0.106127,0.318381 -0.527926,-0.429395 -0.837711,-0.558472 -0.192037,-0.08002 -2.355831,-0.278058 -2.373513,-0.279238 -1.647267,-0.109816 -0.801712,0.243236 -1.116947,0.558474 -0.155765,0.155766 -0.64566,0.183211 -0.83771,0.279236 -0.429028,0.214514 -0.844063,0.590209 -1.256567,0.837711 -0.429813,0.257889 -0.930789,0.372316 -1.396183,0.558474 -0.08642,0.03457 -0.213421,0.06582 -0.279238,0 -0.478095,-0.478097 -0.978027,-1.339916 -1.815039,-0.83771 -0.112875,0.06773 -0.23761,0.154358 -0.279236,0.279236 -0.05887,0.176606 0,0.372316 0,0.558474 0,0.186158 -0.108203,0.40699 0,0.558475 0.541611,0.758256 2.432219,0.840316 3.071606,0.977328 0.750509,0.160825 1.497533,0.341897 2.233893,0.558472 0.06314,0.01857 0.204538,0.128799 0.139618,0.139621 -0.877039,0.146171 -1.78335,0.09293 -2.65275,0.279236 -0.448186,0.09604 -0.841206,0.36464 -1.256564,0.558474 -1.546655,0.72177 -2.046612,1.106816 -2.233896,2.792366 -0.101053,0.90948 0.698093,0.86629 0.698093,0.97733 0,0.0554 -1.632653,-0.0729 -1.81504,0 -0.563035,0.22521 -0.286686,0.93425 0.139619,1.11695 0.299435,0.12833 0.651552,0 0.977328,0 0.09308,0 0.320863,0.0833 0.279237,0 -0.170128,-0.34026 -1.256565,-0.61573 -1.256565,0 0,0.28308 0.02465,0.57902 0.139618,0.83771 0.161759,0.36396 1.443249,1.1946 1.815039,1.25656 0.355806,0.0593 1.779209,0.0161 1.954659,0.27924 0.131633,0.19745 0.02188,0.49205 0.139618,0.69809 0.419785,0.73463 0.715164,0.71517 1.396183,1.39619 0.164541,0.16454 0.242178,0.40703 0.418856,0.55847 0.785453,0.67325 1.548736,0.38718 2.233893,0.55847 0.416264,0.10407 0.607497,0.62017 0.977331,0.83771 1.277247,0.75133 3.36286,1.27539 4.607407,1.67543 0.376732,0.12109 1.208468,0.55227 1.675421,0.41885 1.260522,-0.36015 2.514597,-1.39789 3.350842,-2.37351 0.654418,-0.76349 -0.217215,-0.16131 0.977328,-1.11695 1.205561,-0.96445 3.065852,-1.26645 4.467789,-1.81504 0.523674,-0.20491 1.002321,-0.52027 1.535803,-0.69809 0.7753,-0.25843 1.161097,2.22995 2.094275,2.37351 0.459983,0.0708 0.930791,0 1.396185,0 1.585984,0 3.45585,-0.0416 5.026263,0.13962 0.336579,0.0388 0.648631,0.19706 0.977328,0.27924 0.718304,0.17957 1.628106,-0.0745 2.373514,0 0.574151,0.0574 1.229635,0.40932 1.815039,0.27923 0.287332,-0.0638 0.558474,-0.18615 0.83771,-0.27923 0.558475,-0.13962 1.110938,-0.30596 1.675421,-0.41886 2.406277,-0.48125 1.107411,-0.11831 3.211225,-0.41885 1.747366,-0.24963 4.69733,-0.48181 6.003591,-1.39619 0.319797,-0.22386 0.730615,-2.16118 0.558472,-2.79236 -0.09496,-0.34819 -0.627798,-0.76839 -0.698093,-0.6981 -0.09872,0.0987 -0.07745,0.30269 0,0.41886 0.219052,0.32857 0.468855,0.69667 0.837711,0.83771 1.012719,0.38721 5.227902,1.97538 6.562066,0.41885 0.318302,-0.37135 -0.396804,-1.04348 -0.279236,-1.39618 0.20638,-0.61914 0.935665,-0.32371 1.256565,-0.69809 0.44945,-0.52436 0.928293,-2.101769 0.698092,-2.792371 -0.07956,-0.238692 -1.166947,-1.296183 -1.116946,-1.396185 0.343368,-0.686734 1.426014,-0.508344 1.815039,-1.675419 0.07425,-0.222771 -0.06819,-0.816623 -0.139618,-0.977331 -0.536657,-1.207474 -1.007896,-1.104966 -1.95466,-1.815039 -0.166505,-0.124878 0.22206,-0.358349 0.279239,-0.558472 0.163031,-0.570611 -0.07021,-1.489794 -0.418857,-1.954659 -1.935745,-2.580995 -0.771247,-1.0261 -3.630078,-2.931986 -0.44305,-0.295367 -0.408805,-1.024244 -0.698093,-1.396185 -0.242445,-0.311714 -0.575352,-0.542557 -0.83771,-0.83771 -0.372631,-0.419209 -0.608939,-0.966396 -0.977328,-1.396183 -0.774611,-0.903713 -1.532838,-1.450697 -2.65275,-1.95466 -0.538176,-0.242178 -1.873311,-0.430974 -1.954657,-0.83771 -0.09562,-0.478094 0.133744,-1.067697 0,-1.5358 -0.0461,-0.161346 -0.211087,-0.265518 -0.279239,-0.418857 -0.460218,-1.035497 -0.752705,-2.652533 -0.83771,-3.630078 -0.07557,-0.869095 0.502936,-1.588254 0.418856,-2.513132 -0.04235,-0.465796 -0.01114,-0.946464 -0.139617,-1.396185 -0.212659,-0.744296 -0.876123,-1.527865 -0.698093,-2.373511 0.009,-0.04297 1.126987,-2.074198 0.83771,-2.652752 -0.07504,-0.150085 -0.311433,-0.150328 -0.418856,-0.279236 -0.133242,-0.15989 -0.132064,-0.411302 -0.279236,-0.558472 -1.028904,-1.028903 -0.132884,0.820563 -1.256564,-0.977331 -0.150038,-0.240056 -0.01302,-0.584507 -0.139621,-0.83771 -0.330489,-0.66098 -0.518766,-0.678884 -0.69809,-1.396183 -0.145023,-0.580085 0.145743,-1.001834 0.279236,-1.535803 0.07652,-0.306078 0.02387,-1.443931 0.139618,-1.675421 0.02943,-0.05887 0.118806,-0.07718 0.139618,-0.139618 0.05887,-0.176604 -0.04515,-0.377875 0,-0.558474 0.21372,-0.854877 3.204307,1.16441 3.204307,0.272319 0,-0.186155 0.05887,-0.381868 0,-0.558472 -0.07866,-0.235971 -1.000865,-1.093411 -0.83771,-1.256567 0.03291,-0.03291 0.106709,0.03291 0.139618,0 0.02572,-0.02572 0.113892,-0.393128 0.139618,-0.418854 0.09309,-0.09309 0.588235,0.05493 0.698092,0 0.124273,-0.06214 0.125289,-0.640765 0.139618,-0.698092 0.05644,-0.225751 0.393933,-0.254312 0.558475,-0.418854 0.07359,-0.07359 0.06603,-0.205653 0.139618,-0.279239 0.07359,-0.07359 0.221512,-0.05303 0.279236,-0.139618 0.05163,-0.07745 -0.02257,-0.188936 0,-0.279236 0.06504,-0.260178 0.344702,-0.475633 0.418856,-0.698092 0.02943,-0.0883 -0.02943,-0.190934 0,-0.279236 0.02021,-0.06067 1.389505,-1.183418 1.535804,-1.256567 0.04162,-0.02082 0.09308,0 0.139618,0 0.139617,-0.04654 0.287221,-0.0738 0.418853,-0.139618 0.05887,-0.02943 0.07718,-0.118806 0.139618,-0.139618 0.132456,-0.04415 0.293979,0.06244 0.418857,0 0.05887,-0.02943 0.07577,-0.123656 0.139618,-0.139618 0.135451,-0.03386 0.286401,0.04415 0.418857,0 0.355957,-0.118655 0.628951,-0.419124 0.977328,-0.558475 0.266091,-0.106436 0.721156,0.08539 0.977329,0 0.124878,-0.04163 0.166362,-0.211513 0.279235,-0.279236 0.136311,-0.08179 0.556821,-0.137964 0.698093,-0.279238 0.07359,-0.07358 0.06603,-0.20565 0.139618,-0.279236 0.238776,-0.238776 -0.0038,0.467955 0.279239,0.279236 0.268496,-0.178996 0.429593,-0.519094 0.698089,-0.69809 0.515811,-0.343874 0.132387,0.146849 0.837711,-0.558475 0.07359,-0.07359 0.09308,-0.186158 0.139618,-0.279236 0.139621,-0.13962 0.264673,-0.29551 0.418857,-0.418856 0.08126,-0.06501 0.20565,-0.06603 0.279235,-0.139618 0.118653,-0.118653 0.160584,-0.300202 0.279239,-0.418857 0.311317,-0.311316 0.77189,-0.561665 1.116947,-0.83771 0.205576,-0.16446 0.352896,-0.394013 0.558474,-0.558472 0.312619,-0.250095 0.62973,-0.499465 0.977329,-0.698093 0.127777,-0.07302 0.292655,-0.0639 0.418854,-0.139618 0.112876,-0.06772 0.169711,-0.206221 0.279238,-0.279238 0.236765,-0.157843 0.842158,0.175696 1.535801,-0.418854 1.198895,-1.027626 2.263396,-2.207263 3.49046,-3.211224 0.53082,-0.434306 1.38785,-0.432845 1.954659,-0.837711 0.503873,-0.359907 1.461777,-0.957052 1.821954,-1.389267 0.357762,-0.429313 0.01735,-0.38732 0.551557,-0.56539 0.390443,-0.130146 0.369858,0.254738 0.418857,0.279236 0.08325,0.04163 0.187423,-0.01529 0.279236,0 0.189277,0.03155 0.366588,0.139618 0.558474,0.139618 0.478433,0 0.934903,-0.186978 1.396185,-0.279236 0.249383,-0.04988 0.615487,0.02778 0.837708,0 0.490278,-0.06129 0.939664,-0.304723 1.396184,-0.418854 0.43188,-0.107968 0.84513,-0.521763 1.25657,-0.698092 0.33091,-0.14182 0.64641,-0.137417 0.97732,-0.279236 0.30847,-0.132202 -0.41587,-1.848623 -0.1327,-1.668505 2.78278,1.770044 2.41303,2.061595 1.52428,-0.246464 -0.50485,-1.311071 1.41954,0.574086 0.0115,-0.591246 -0.0717,-0.05933 0.19599,0.04163 0.27924,0 0.0416,-0.02082 0.24634,1.70833 0,-0.139618 0.33387,-0.333867 1.97159,0.230084 2.3666,-0.0069 0.55995,-0.335968 1.15777,-0.524389 1.67542,-0.977329 0.24766,-0.216702 0.38589,-0.594027 0.69809,-0.698092 0.0883,-0.02943 0.20179,0.05163 0.27924,0 0.0866,-0.05773 0.066,-0.20565 0.13962,-0.279236 0.0736,-0.07359 0.19598,-0.07718 0.27923,-0.139618 0.29946,-0.224595 -2.32211,-3.109166 -2.08735,-3.343926 0.0513,-0.05128 0.45236,-0.226182 0.55847,-0.279236 0.21383,-0.106918 0.10918,-0.248803 0.27924,-0.418856 0.0658,-0.06582 0.21342,0.06582 0.27923,0 0.0329,-0.03291 -0.0452,-0.128331 0,-0.139618 0.1806,-0.04515 0.37232,0 0.55848,0 z"
         id="path5947"
         sodipodi:nodetypes="cssssssssssssscsssssssssscssssssssssssssscssssssssssssssscssssssssssssssssssssssssssscsssssssssssssssssssscsssssscssssssssssscsssscsscsssssssscsssssscscssccsssssssssssssssssssssssssssccsssssssssssssssssssssssscsssssssssscsscsssssssssssssscsssssssssscsssssssssscc" />
      <path
         style="fill:#8d8d8d;fill-opacity:1;fill-rule:evenodd;stroke:#000000;stroke-width:1.997;stroke-linecap:round;stroke-linejoin:round;stroke-dasharray:none;stroke-opacity:1;paint-order:stroke fill markers"
         d="m 39.847304,95.136195 c -0.325776,0.372313 -0.611265,0.784161 -0.977329,1.116946 -0.758383,0.689438 -1.804987,1.101868 -2.373513,1.954657 -0.02582,0.03872 0.03291,0.106709 0,0.139618 -0.118653,0.118653 -0.300202,0.160584 -0.418854,0.279239 -0.164542,0.164541 -0.269886,0.379709 -0.418857,0.558472 -0.400836,0.481002 -0.909254,0.875213 -1.256564,1.396183 -0.159155,0.23873 0.37669,0.10907 -0.139618,0.41886 -0.164542,0.0987 -0.382104,0.064 -0.558475,0.13962 -0.21609,0.0926 -0.834297,0.61635 -0.977328,0.69809 -0.255561,0.14603 -0.592805,0.11596 -0.837711,0.27923 -0.301437,0.20096 1.076608,1.03983 1.256565,1.11695 0.100094,0.0429 0.680598,-0.0261 0.558474,0.27924 -0.218847,0.54711 -1.634622,1.71622 -1.116946,2.23389 0.544893,0.5449 0.07498,-0.0323 0.418854,0.13962 0.700143,0.35007 0.972883,0.97733 1.815039,0.97733 0.186158,0 0.426841,0.13163 0.558474,0 0.178948,-0.17895 -0.278733,-1.67694 -0.139618,-2.09428 0.175464,-0.52639 1.163201,-0.93022 1.256565,-1.11694 0.01693,-0.0339 -0.381056,-0.48288 -0.418854,-0.55848 -0.125106,-0.25021 0.279236,-0.64619 0.279236,-0.97733 0,-0.39168 0.04415,-0.47017 -0.139618,-0.83771 -0.02943,-0.0589 -0.186158,-0.0931 -0.139618,-0.13961 0.164541,-0.16455 0.465394,0 0.69809,0 0.418856,0 0.853829,-0.11507 1.256567,0 1.229106,0.35117 0.367085,1.75385 2.513131,1.39618 0.474702,-0.0791 0.214083,-0.3537 0.558475,-0.69809 0.06582,-0.0658 0.188373,0.0202 0.279236,0 0.232074,-0.0516 1.436849,-0.53137 1.815039,-0.27924 0.537884,0.35859 1.086183,1.24888 1.675421,1.39619 1.072536,0.26813 3.836543,0.38543 4.886645,-0.13963 0.09308,-0.0465 -0.139621,-0.17517 -0.139621,-0.27923 0,-0.0658 0.147783,-0.0743 0.139621,-0.13962 -0.07942,-0.63538 -0.257088,-1.0948 -0.698093,-1.5358 -0.167801,-0.1678 -0.895543,-0.27125 -0.698092,-0.13962 0.859933,0.57329 0.263255,-0.0128 0.977328,0.55847 0.102788,0.0822 0.161502,0.22037 0.279236,0.27924 0.04163,0.0208 0,-0.0931 0,-0.13962 0,-0.18616 0.05887,-0.38187 0,-0.55847 -0.04162,-0.12488 -0.230349,-0.15702 -0.279236,-0.27924 -0.05185,-0.12963 0.06927,-0.29763 0,-0.41885 -0.192037,-0.336071 -1.479116,-1.226129 -1.535803,-1.396187 -0.126219,-0.378664 0.09748,-0.866646 0,-1.256567 -0.08214,-0.328586 -0.702617,-0.680731 -0.977328,-0.837711 -0.382559,-0.218604 -0.906008,-0.377272 -0.698093,-0.418854 0.6389,-0.12778 1.31576,0.127781 1.95466,0 1.831054,-0.366212 3.180556,-1.138851 1.256564,-2.513131 -0.906364,-0.647404 -2.375625,0.48972 -3.071603,0.83771 -0.521711,0.260853 -1.133174,0.287348 -1.675421,0.558475 -0.448186,0.224091 -0.824238,0.833218 -1.256567,0.977328 -0.628727,0.209574 -1.681726,-0.285543 -2.094275,-0.698092 -0.06582,-0.06582 0.213418,-0.06582 0.279236,0 0.322871,0.322871 -0.803847,0.03386 -0.837711,0 -0.03291,-0.03291 0.03291,-0.106709 0,-0.139618 -0.03291,-0.03291 -0.09371,0.0076 -0.139618,0 -0.234077,-0.03901 -0.465394,-0.09308 -0.698092,-0.139618 z"
         id="path6012" />
      <path
         style="fill:#8d8d8d;fill-opacity:1;fill-rule:evenodd;stroke:#000000;stroke-width:1.997;stroke-linecap:round;stroke-linejoin:round;stroke-dasharray:none;stroke-opacity:1;paint-order:stroke fill markers"
         d="m 68.18984,101.00017 c -0.575757,-0.0426 -3.333556,-0.51583 -3.909314,-0.55848 -0.603361,-0.0447 -1.216107,-0.0856 -1.815041,0 -0.393637,0.0562 -0.754954,0.25432 -1.116947,0.41886 -0.152759,0.0694 -0.251055,0.27924 -0.418854,0.27924 -0.09308,0 0.02257,-0.18894 0,-0.27924 -0.06925,-0.277 -0.367093,-0.54499 -0.558474,-0.69809 -0.300977,-0.240786 -0.615508,-0.279241 -0.977329,-0.279241 -0.09308,0 -0.293391,0.092 -0.279236,0 0.09625,-0.625644 0.374166,-1.20946 0.558472,-1.815039 0.141473,-0.464836 0.293661,-0.926703 0.418857,-1.396185 0.06114,-0.229293 0.03349,-0.485838 0.139618,-0.69809 0.02724,-0.05448 0.692139,-0.801319 0.83771,-0.83771 1.102662,-0.275667 2.365836,0.187436 3.49046,0 0.06297,-0.0105 0.286158,-0.945349 0.558475,-1.256567 1.048605,-1.198407 4.050096,-1.685642 5.305499,-1.954657 0.134533,-0.02883 2.220105,-0.425749 2.513132,-0.279239 0.150084,0.07504 0.160583,0.300204 0.279235,0.418857 0.118653,0.118652 0.279236,0.186158 0.418854,0.279236 0.428813,0.285874 1.501614,0.855757 1.815042,1.116949 0.128908,0.107421 0.148206,0.314031 0.279236,0.418854 0.114922,0.09194 0.303935,0.04768 0.418854,0.139618 0.131032,0.104825 0.160586,0.300204 0.279239,0.418856 0.427045,0.427046 1.044799,0.888315 1.535803,1.256565 0.240927,0.180697 1.131914,0.653187 0.977328,1.116946 -0.195424,0.586272 -0.672724,1.091578 -1.116949,1.535803 -0.164542,0.164542 -0.516848,0.189913 -0.558472,0.418857 -0.277662,1.527137 0.558472,0.879551 0.558472,1.396187 0,0.0465 -0.09799,-0.0208 -0.139618,0 -0.150085,0.075 -0.300202,0.16058 -0.418854,0.27923 -0.430144,0.43014 -0.73352,1.04749 -1.256567,1.39619 -1.286555,0.8577 -2.33058,0.83771 -3.769696,0.83771 -0.08713,0 -0.997524,0.0796 -1.116946,0 -0.650606,-0.43374 0.06124,-0.098 -0.418857,-0.69809 -0.104825,-0.13104 -0.318175,-0.145 -0.418854,-0.27924 -0.05585,-0.0745 0.04162,-0.19599 0,-0.27924 -0.03171,-0.0634 -0.654111,-0.0517 -0.698093,-0.13962 -0.04163,-0.0832 0.05163,-0.20179 0,-0.27923 -0.05773,-0.0866 -0.205652,-0.066 -0.279238,-0.13962 -0.07358,-0.0736 -0.06603,-0.20565 -0.139618,-0.27924 -0.250621,-0.25062 -0.673404,0.2365 -0.977329,0.41886 z"
         id="path8030" />
      <path
         style="fill:#8d8d8d;fill-opacity:1;fill-rule:evenodd;stroke:#000000;stroke-width:1.997;stroke-linecap:round;stroke-linejoin:round;stroke-dasharray:none;stroke-opacity:1;paint-order:stroke fill markers"
         d="m 54.228,82.15168 c 0.128045,1.068618 -1.337942,2.199111 -0.698092,3.350843 0.0982,0.176757 1.970296,0.310515 2.233895,0.83771 0.123069,0.246142 -0.165965,1.097986 -0.279238,1.256567 -0.135253,0.189352 -0.429395,0.22524 -0.558472,0.418854 -0.254254,0.381381 -0.447305,0.811893 -0.558475,1.256567 -0.119557,0.478232 0.373174,0.451025 0.558475,0.698093 0.05584,0.07446 -0.05163,0.201789 0,0.279236 0.19373,0.290594 1.253498,0.407879 1.396182,0.418854 2.138918,0.164533 2.914724,-0.940454 4.188553,-2.373511 0.21863,-0.245962 0.52878,-0.415907 0.698092,-0.698093 0.252728,-0.421214 0.07713,-0.617003 0.139618,-1.116949 0.03651,-0.292068 0.230849,-0.547373 0.279236,-0.83771 0.08175,-0.490488 0.05189,-1.348068 0,-1.815039 -0.105426,-0.948849 -0.421166,-1.705124 0,-2.65275 0.126797,-0.285287 0.312166,-0.544309 0.418857,-0.837711 0.199186,-0.547761 0.111842,-1.08917 0.558474,-1.535803 0.562883,-0.562882 1.292326,-1.233865 1.954657,-1.675418 0.05476,-0.03651 0.139618,-0.0738 0.139618,-0.139621 0,-0.02527 -0.4763,0.02828 -0.977328,0.139621 -0.574186,0.127595 -1.589701,0.558472 -2.094278,0.558472 -0.02426,0 0.05156,-0.594971 0,-0.698093 -0.06074,-0.121472 -0.340529,-0.776417 -0.558472,-0.558471 -0.939212,0.93921 -1.720514,1.988476 -2.792367,2.792367 -0.207452,0.155588 -0.563528,0.496242 -0.698093,0.698093 -0.02582,0.03872 0.03634,0.110545 0,0.139618 -0.211904,0.169523 -0.493866,0.240157 -0.698092,0.418853 -0.175123,0.153234 -0.267417,0.3818 -0.418857,0.558475 -0.128497,0.149916 -0.317267,0.249544 -0.418854,0.418857 -0.102928,0.171545 -0.02109,0.858808 -0.139618,0.977328 C 55.676031,82.65831 54.373892,82.210037 54.228,82.15168 Z"
         id="path8032" />
      <path
         style="fill:#8d8d8d;fill-opacity:1;fill-rule:evenodd;stroke:#000000;stroke-width:1.997;stroke-linecap:round;stroke-linejoin:round;stroke-dasharray:none;stroke-opacity:1;paint-order:stroke fill markers"
         d="m 65.397473,60.37121 c -0.639961,0.669983 -1.939332,3.04011 -1.535803,4.048934 0.433477,1.083697 1.784845,0.932035 2.373513,1.815039 0.273746,0.410618 0.371348,0.875364 0.698093,1.256565 0.233413,0.272317 0.695251,0.59744 0.83771,0.977328 0.198787,0.530104 0.06465,0.755859 0.279236,1.256567 0.347552,0.810956 1.280351,1.123667 1.675421,1.815039 0.04203,0.07356 0.675746,1.317975 0.698093,1.396186 0.05114,0.178993 -0.08325,0.391966 0,0.558471 0.07478,0.149567 0.910336,0.508231 0.977328,0.558475 0.253492,0.190119 -0.42052,0.644078 -0.977328,1.256564 -0.137332,0.151064 -0.804931,0.91177 -0.977328,1.256568 -0.143423,0.28684 -0.307618,1.479039 -0.139621,1.815039 0.05495,0.109899 0.427826,-0.09448 0.698092,-0.837711 0.07952,-0.218686 -0.02886,-0.467191 0,-0.698093 0.01826,-0.146034 0.115425,-0.273687 0.139618,-0.418853 0.07329,-0.439714 0,-0.949386 0,-1.396186 0,-0.977328 0,-1.954657 0,-2.931985 0,-0.382757 0.052,-0.906079 0.139621,-1.256567 0.01595,-0.06385 0.126709,-0.07508 0.139618,-0.139618 0.08201,-0.410049 0.1393,-2.688209 0,-2.931986 -0.09797,-0.171436 -0.30933,-0.254568 -0.418857,-0.418856 -0.08163,-0.122452 -0.04768,-0.303935 -0.139618,-0.418854 -0.250094,-0.312621 -0.637833,-0.48591 -0.977328,-0.698093 -0.176496,-0.11031 -0.401839,-0.142181 -0.558475,-0.279236 -0.387892,-0.339407 -0.944734,-1.09924 -1.256564,-1.535803 -0.355084,-0.497117 -0.419418,-0.97958 -0.558475,-1.535803 -0.02257,-0.0903 0.03457,-0.192815 0,-0.279236 -0.06232,-0.155799 -0.213137,-0.264623 -0.279236,-0.418856 -0.377973,-0.881933 -0.208928,-0.871866 -0.83771,-1.815039 z"
         id="path8034" />
      <path
         style="fill:#8d8d8d;fill-opacity:1;fill-rule:evenodd;stroke:#000000;stroke-width:1.997;stroke-linecap:round;stroke-linejoin:round;stroke-dasharray:none;stroke-opacity:1;paint-order:stroke fill markers"
         d="m 70.004879,49.341355 c -2.801498,0.315817 -4.367178,1.148154 -6.422445,2.792368 -0.154183,0.123346 -0.254566,0.309329 -0.418857,0.418856 -0.835104,0.556737 -0.10592,-0.376486 -0.698092,-0.139618 -0.949584,0.379834 -1.610141,1.386658 -2.094275,2.233893 -0.359677,0.629439 -0.666504,1.338056 -0.558475,2.094278 0.01471,0.103018 0.119211,0.177191 0.139621,0.279236 0.03651,0.182544 -0.131636,0.426839 0,0.558474 0.208129,0.20813 0.56442,-0.16992 0.837708,-0.279238 5.316752,-2.1267 -1.987032,0.839647 2.513131,-1.116947 0.689518,-0.299788 1.417183,-0.510836 2.094278,-0.83771 1.224566,-0.591169 2.690381,-1.348391 3.630078,-2.373514 0.352817,-0.384889 0.546613,-1.099156 0.83771,-1.5358 0.133401,-0.200102 1.02684,-1.181476 1.116947,-1.256567 0.113062,-0.09422 0.294055,-0.06162 0.418856,-0.139618 0.339495,-0.212185 0.584756,-0.619578 0.977329,-0.698093 0.314039,-0.06281 1.586897,-0.01288 1.815039,-0.139618 0.375555,-0.208642 1.684049,-1.224407 1.954657,-1.675421 0.07572,-0.126198 0.04768,-0.303935 0.139621,-0.418854 0.104822,-0.131032 0.289946,-0.171815 0.418854,-0.279238 0.595704,-0.496419 0.372316,-0.53779 1.116946,-1.116947 0.859806,-0.668739 1.914745,0.146299 2.652749,-0.83771 0.08377,-0.111694 0.03836,-0.28461 0,-0.418857 -0.332253,-1.162891 -1.437843,-1.954657 -2.652749,-1.954657 -1.869067,0 -1.98546,0.06629 -3.211221,1.116947 -0.330185,0.283014 -1.148573,0.819814 -1.396186,1.116949 -0.328805,0.394565 -0.50365,1.006446 -0.83771,1.396182 -0.151437,0.176678 -0.393933,0.254315 -0.558475,0.418857 -0.104063,0.104066 -0.03555,0.31479 -0.139618,0.418854 -0.478485,0.478488 -1.026631,0.780261 -1.396182,1.396185 -0.04789,0.07981 0.02943,0.190934 0,0.279236 -0.07926,0.237762 -0.186158,0.465397 -0.279239,0.698092 z"
         id="path8036" />
      <path
         style="fill:#8d8d8d;fill-opacity:1;fill-rule:evenodd;stroke:#000000;stroke-width:1.997;stroke-linecap:round;stroke-linejoin:round;stroke-dasharray:none;stroke-opacity:1;paint-order:stroke fill markers"
         d="m 87.177944,41.801961 c 0.186158,0.13962 0.418856,0.605014 0.558474,0.418856 0.139618,-0.186158 -0.79117,-0.418856 -0.558474,-0.418856 0.530632,0 1.00517,0.418856 1.535803,0.418856 0.147171,0 0.0639,-0.292658 0.139618,-0.418856 0.06773,-0.112874 0.220368,-0.161499 0.279238,-0.279236 0.08581,-0.17163 0.04643,-0.390734 0.139618,-0.558475 0.144719,-0.260495 0.393174,-0.450141 0.558472,-0.69809 0.115451,-0.173177 0.151458,-0.394187 0.279239,-0.558474 0.202035,-0.259763 0.496054,-0.43833 0.69809,-0.698093 0.12778,-0.164288 0.140964,-0.402915 0.279238,-0.558474 0.31278,-0.351878 1.097021,-1.073727 1.675421,-0.977329 0.658617,0.10977 0.191794,0.251838 0.977329,0.139618 0.824963,-0.117851 1.66534,-0.902478 2.373513,-1.256564 0.224163,-0.112083 0.483185,-0.150292 0.69809,-0.279236 0.03991,-0.02394 -0.04654,-0.139618 0,-0.139618 0.27137,0 0.434827,0.353036 0.698093,0.418854 0.476604,0.119149 1.063307,-0.134999 1.535803,0 0.24098,0.06885 0.454953,0.21845 0.698092,0.279236 0.135451,0.03386 0.286399,-0.04415 0.418859,0 0.25744,0.08582 -0.21282,0.521488 -0.418859,0.698092 -0.349324,0.299421 -1.079735,0.632939 -1.535803,0.698093 -0.138216,0.01974 -0.284609,-0.03836 -0.418854,0 -0.611949,0.174842 -1.306817,0.904711 -1.675421,1.396185 -0.02792,0.03723 0.02792,0.102386 0,0.139618 -0.407892,0.543853 -1.103841,1.038947 -1.675421,1.396182 -0.352991,0.22062 -0.713115,0.457518 -1.116949,0.558475 -0.616244,0.154061 -1.218139,-0.100608 -1.815039,0.279236 -0.332221,0.211415 -1.468017,0.933489 -1.815039,1.396185 -0.215077,0.286771 -0.08072,0.53994 -0.279236,0.83771 -0.401786,0.602679 -1.197941,1.584399 -1.815039,1.954657 -0.167219,0.100333 -1.077095,0.139618 -1.256567,0.139618 -0.679924,0 -1.182981,0.181835 -1.815039,0.418857 -0.179668,0.06738 -0.558472,0.331504 -0.558472,0.139618 0,-0.607777 1.311402,-1.080781 1.675419,-1.535803 0.324059,-0.405072 0.306204,-0.666345 0.418856,-1.116947 0.108051,-0.432199 0.180427,-0.161094 0.418854,-0.558474 0.295426,-0.492374 0.517906,-1.134859 0.698093,-1.675421 z"
         id="path8038" />
      <path
         style="fill:#444444;fill-opacity:1;fill-rule:evenodd;stroke:#000000;stroke-width:1.997;stroke-linecap:round;stroke-linejoin:round;stroke-dasharray:none;stroke-opacity:1;paint-order:stroke fill markers"
         d="m 54.088382,69.446407 c 0.06015,0.846799 -0.503533,3.444971 0.977329,3.630078 1.201446,0.150181 1.538025,-0.141007 2.652749,-0.83771 0.284589,-0.177869 0.586881,-0.335513 0.837711,-0.558475 0.173918,-0.154596 0.254312,-0.39393 0.418854,-0.558471 0.164542,-0.164545 0.407037,-0.242179 0.558474,-0.418857 0.135451,-0.158025 0.140962,-0.402915 0.279236,-0.558475 0.241488,-0.271671 0.598356,-0.424539 0.837711,-0.69809 0.09691,-0.110757 0.0639,-0.292658 0.139618,-0.418856 0.205978,-0.343294 0.48591,-0.637834 0.698092,-0.977329 0.02466,-0.03947 -0.03291,-0.106709 0,-0.139618 0.465215,-0.465211 1.335702,1.950125 1.396185,2.373514 0.02082,0.14569 0.03555,0.52292 0.139618,0.418854 0.202057,-0.202057 0.139618,-0.44626 0.139618,-0.698093 0,-1.349351 -0.395157,-2.10798 -1.535803,-2.792367 -0.493728,-0.296238 -0.35302,-0.340818 -0.977328,-0.418857 -0.32326,-0.04041 -0.674852,-0.120988 -0.977329,0 -0.122219,0.04889 -0.161499,0.220369 -0.279236,0.279239 -0.08325,0.04163 -0.197871,-0.0452 -0.279236,0 -0.979871,0.544372 -1.485802,1.502468 -2.373513,2.094275 -0.173175,0.115451 -0.411303,0.132067 -0.558475,0.279238 -0.03291,0.03291 0.03291,0.10671 0,0.139618 -0.04929,0.04929 -1.841714,-0.139618 -2.094275,-0.139618 z"
         id="path8040" />
      <path
         style="fill:#444444;fill-opacity:1;fill-rule:evenodd;stroke:#000000;stroke-width:1.997;stroke-linecap:round;stroke-linejoin:round;stroke-dasharray:none;stroke-opacity:1;paint-order:stroke fill markers"
         d="m 51.016776,99.045509 c -0.0031,1.838751 -0.342373,2.310371 0.977329,3.630081 0.257024,0.25702 0.580689,0.44107 0.83771,0.69809 0.164542,0.16454 0.244936,0.40388 0.418857,0.55847 0.04107,0.0365 1.37668,0.9296 1.5358,0.97733 1.573337,0.472 3.513916,-1.88218 4.607409,-1.39618 0.589537,0.26201 1.445813,1.77829 2.233893,1.5358 0.85562,-0.26327 1.553366,-0.89775 2.373514,-1.25656 0.543473,-0.23777 1.094634,-0.44232 1.675421,-0.55848 0.116348,-0.0233 0.325776,0.0465 0.418856,0 0.266536,-0.13327 -0.369771,-0.46745 -0.558474,-0.69809 -0.253516,-0.30985 -0.508288,-0.62484 -0.698093,-0.97733 -0.751564,-1.39576 -1.655802,-4.211627 -2.931985,-5.305499 -0.846878,-0.725895 -2.997126,-0.418856 -4.048935,-0.418856 -1.115644,0 0.410517,0.03386 -0.977328,-0.139618 -1.137073,-0.142135 -2.282579,0.06277 -3.350842,0.418856 -0.105881,0.03529 -0.678924,0.545693 -0.698093,0.558472 -0.225792,0.15053 -0.558472,0.186158 -0.698092,0.418857 -0.181105,0.301844 0.02029,0.87708 -0.139618,1.116946 -0.05772,0.08659 -0.200224,0.07189 -0.279236,0.139618 -0.249859,0.214164 -0.497446,0.437253 -0.698093,0.698093 -0.267695,0.348003 -0.48487,0.733147 -0.698092,1.116951 -0.0226,0.0407 0.03291,0.10671 0,0.13962 -0.186158,0.18615 -0.139618,-0.2327 -0.139618,0.13961"
         id="path9239" />
      <path
         style="fill:#444444;fill-opacity:1;fill-rule:evenodd;stroke:#000000;stroke-width:1.997;stroke-linecap:round;stroke-linejoin:round;stroke-dasharray:none;stroke-opacity:1;paint-order:stroke fill markers"
         d="m 68.469076,84.10634 c -0.605012,0.511934 -1.290677,0.941525 -1.815039,1.535801 -0.82347,0.93327 0.06838,1.801047 0.698093,2.373513 0.268957,0.244507 0.505007,0.551704 0.83771,0.698093 0.848765,0.373456 1.767319,0.562242 2.65275,0.83771 1.20886,0.376089 2.409656,0.780278 3.630078,1.116947 0.134593,0.03713 0.283406,-0.03386 0.418857,0 0.26272,0.06568 0.07879,2.099807 0.139617,2.373513 0.08662,0.389798 0.604825,1.209932 0.977329,1.396185 0.728737,0.364368 3.678931,0.698093 4.32817,0.698093 0.981753,0 1.954803,-0.184672 2.931989,-0.279239 0.465539,-0.04505 0.933905,-0.0685 1.396182,-0.139618 0.14546,-0.02238 0.314791,-0.03555 0.418857,-0.139618 0.210941,-0.210944 -0.232503,-0.49616 -0.279239,-0.558474 -0.761598,-1.015463 -1.055862,-2.452048 -1.954657,-3.350842 -0.866942,-0.866939 -1.820378,-1.320991 -2.931985,-1.815039 -0.268973,-0.119544 -0.580412,-0.136293 -0.837711,-0.279236 -0.172604,-0.09589 -0.258183,-0.304091 -0.418857,-0.418857 -0.169362,-0.120973 -0.400446,-0.143785 -0.558471,-0.279236 -0.176679,-0.151437 -0.254315,-0.393933 -0.418857,-0.558474 -0.713552,-0.71355 -1.659961,-1.241105 -2.373514,-1.954657 -0.118652,-0.118653 -0.150328,-0.311431 -0.279236,-0.418854 -0.15989,-0.133245 -0.400449,-0.143788 -0.558474,-0.279239 -0.176676,-0.151437 -0.232696,-0.418854 -0.418854,-0.558472 -0.200499,-0.150373 -0.47393,-0.167156 -0.698093,-0.279238 -0.955783,-0.477891 -1.049072,-0.558472 -2.233892,-0.558472 -0.418857,0 -0.86767,-0.15556 -1.256568,0 -0.50392,0.201567 -0.930788,0.558472 -1.396185,0.83771 z"
         id="path9241" />
      <path
         style="fill:#444444;fill-opacity:1;fill-rule:evenodd;stroke:#000000;stroke-width:1.997;stroke-linecap:round;stroke-linejoin:round;stroke-dasharray:none;stroke-opacity:1;paint-order:stroke fill markers"
         d="m 27.560885,100.16246 c -0.05828,0.18941 -0.865205,2.17891 -0.558475,2.79237 0.01852,0.0371 2.59026,2.33879 2.65275,2.37351 2.634712,1.46373 5.754354,1.25656 8.656341,1.25656 0.139618,0 -0.32013,-0.0987 -0.418854,0 -0.127172,0.12718 -0.448072,0.91243 -0.418857,1.11695 0.05184,0.36288 0.305978,0.43223 0.558475,0.55847 0.537062,0.26854 1.474814,0.83379 2.094275,0.55848 0.272314,-0.12103 0.444301,-0.4023 0.698092,-0.55848 0.94143,-0.57934 3.341542,-1.63816 2.931988,-3.0716 -0.344088,-1.20431 -1.238951,-1.93704 -2.094277,-2.79237 -1.548744,-1.54874 -3.83744,-2.710579 -6.003592,-3.071605 -0.449649,-0.07494 -0.946369,0.06426 -1.396182,0 -0.103021,-0.01471 -0.177194,-0.119208 -0.279239,-0.139618 -0.251859,-0.05037 -0.862457,-0.03635 -1.116946,0 -1.043506,0.149071 -1.416037,0.315796 -2.65275,0.418856 -0.402905,0.03358 -1.97989,-0.145148 -2.233895,0 -0.202039,0.115449 -0.279236,0.372317 -0.418854,0.558477 z"
         id="path9243" />
      <path
         style="fill:#444444;fill-opacity:1;fill-rule:evenodd;stroke:#000000;stroke-width:1.997;stroke-linecap:round;stroke-linejoin:round;stroke-dasharray:none;stroke-opacity:1;paint-order:stroke fill markers"
         d="m 70.423736,51.296012 c 0.795449,-0.132575 0.892069,-0.04349 1.535803,-0.558472 0.938504,-0.750803 1.759611,-1.867659 2.792368,-2.513131 0.124798,-0.078 0.296402,-0.05798 0.418853,-0.139618 0.302438,-0.201626 0.495404,-0.575839 0.837711,-0.698093 0.350626,-0.125224 0.746162,0.03371 1.116949,0 0.551,-0.05009 1.145596,-0.312891 1.675418,-0.418856 0.205804,-0.04116 0.624446,0.07109 0.837711,0 0.633151,-0.21105 1.043755,-0.706906 1.535803,-1.116947 0.178763,-0.148968 0.393933,-0.254312 0.558475,-0.418854 0.209161,-0.209161 1.376486,-1.858721 1.954657,-1.396185 0.335925,0.26874 0.392869,1.27594 0.418856,1.535803 0.214318,2.143191 -0.516482,1.633429 -1.815039,2.931986 -0.357018,0.357018 -0.552725,0.798494 -0.977331,1.116946 -1.166461,0.874848 -2.573152,1.396315 -3.769696,2.233896 -0.941425,0.658997 -0.198956,0.161335 -1.116946,0.977328 -0.272463,0.411721 -0.763593,0.534837 -1.11695,0.837711 -0.199887,0.171333 -0.344244,0.405453 -0.558471,0.558474 -0.119759,0.08554 -0.314791,0.03555 -0.418857,0.139618 -0.237305,0.237305 -0.348824,0.575652 -0.558472,0.837711 -0.164462,0.205576 -0.394012,0.352896 -0.558475,0.558474 -0.02907,0.03634 0.04579,0.131292 0,0.139618 -0.505753,0.09196 -1.03174,0.03881 -1.535803,0.139618 -0.204089,0.04082 -0.356557,0.228759 -0.558471,0.279236 -0.180602,0.04515 -0.375934,-0.03651 -0.558475,0 -0.04544,0.0091 -0.163669,0.255188 -0.279236,0.139618 -0.520025,-0.520022 -0.503663,-1.372187 -0.139621,-1.954657 0.104651,-0.167436 0.320895,-0.24742 0.418857,-0.418854 0.192386,-0.336677 0.139618,-0.751681 0.139618,-1.116949 0,-0.104063 0.06603,-0.352822 0.139618,-0.279236 0.06582,0.06582 0,0.186158 0,0.279236"
         id="path9245" />
      <path
         style="fill:#af564d;fill-opacity:1;fill-rule:evenodd;stroke:#000000;stroke-width:1.997;stroke-linecap:round;stroke-linejoin:round;stroke-dasharray:none;stroke-opacity:1;paint-order:stroke fill markers"
         d="m 70.387282,54.930785 c 0.405482,-0.135161 7.43522,-1.628954 15.772553,-5.739486 16.180425,-8.120487 32.066355,-16.81252 47.203845,-26.738039 l -8.23477,-0.727993 z"
         id="path5878"
         sodipodi:nodetypes="ccccc" />
    </g>
    <rect
       style="opacity:1;fill:none;fill-opacity:1;stroke-width:1;stroke-linecap:butt;stroke-linejoin:miter;stroke-miterlimit:4;stroke-dasharray:none;stroke-dashoffset:0;stroke-opacity:1;stop-color:#000000;stop-opacity:1;stroke:#331f14"
       id="rect33301"
       width="96.429878"
       height="80.496231"
       x="4.7017326"
       y="31.71199" />
  </g>
</svg>
